<svg xmlns="http://www.w3.org/2000/svg" viewBox="0 0 885.7 550.92"><defs><style>.cls-1{fill:#fff;}</style></defs><g id="Layer_2" data-name="Layer 2"><g id="Draw_Layer" data-name="Draw Layer"><path class="cls-1" d="M783.27,517.14c-3,.45-6.13.82-9.14,1.48-.64.14-1.26.35-1.88.55l-.34.11a2.74,2.74,0,0,0-3.12,1.24,2.6,2.6,0,0,0-.25.57l-.25.21c-3.13,2.79-4.53,7-5,11a16.07,16.07,0,0,0,7,15.82,14.9,14.9,0,0,0,5.6,2.26,26.52,26.52,0,0,0,12.52-.5,24.79,24.79,0,0,0,2.92-1.06,11.23,11.23,0,0,0,6.06-6.51A12.57,12.57,0,0,0,796,530.89a16.14,16.14,0,0,0-4.69-4.4,17.51,17.51,0,0,0-2.5-1.22c-1.12-.48-2.24-1-3.4-1.38s-2.19-.73-3.3-1.07l2.58-.37a2.65,2.65,0,0,0,1.64-1.27,2.76,2.76,0,0,0,.28-2.12,2.8,2.8,0,0,0-1.26-1.64,2.55,2.55,0,0,0-1.33-.35,5.51,5.51,0,0,0-.79.07ZM772,525.36c.52.23,1,.45,1.59.64s1,.41,1.52.55l1.89.52,3.22.95c.76.22,1.52.46,2.28.7,1.3.4,2.55.88,3.8,1.39a16.84,16.84,0,0,1,3.07,1.66,16.07,16.07,0,0,1,1.9,1.88,11,11,0,0,1,.91,1.51,13,13,0,0,1,.46,1.81,12.14,12.14,0,0,1,0,2,13.2,13.2,0,0,1-.48,1.71,9.83,9.83,0,0,1-.82,1.45,11.22,11.22,0,0,1-1.05,1,9.94,9.94,0,0,1-1.35.76,24.68,24.68,0,0,1-4.92,1.33c-.91.1-1.81.18-2.72.21a21,21,0,0,1-2.86-.17,18.53,18.53,0,0,1-3.68-.92,14.22,14.22,0,0,1-2.12-1.28,16,16,0,0,1-1.93-1.93,11.23,11.23,0,0,1-2-4.91,17.8,17.8,0,0,1,0-3.5,23.77,23.77,0,0,1,1.13-4.33,13.82,13.82,0,0,1,1.25-2.08,10.36,10.36,0,0,1,.91-1Zm14.44,4.81.29.12-.29-.12Z"/><path class="cls-1" d="M184.5,0h-.15c-1.54,0-3.13.06-4.71.18s-3,.28-4.12.41a25.22,25.22,0,0,1-2.84.16c-.29,0-.58,0-.87,0h0a2.73,2.73,0,0,0-2.36,1.37A2.68,2.68,0,0,0,166.88.26a2.9,2.9,0,0,0-2,.9A2.54,2.54,0,0,0,164.12,3c.31,6,.49,12.3.55,18.59,0,5.1.07,10.57.08,17.72q0,18,0,36v1.55c0,1.6,0,3.27-.06,4.89-.1,1.86-.27,3.82-.52,6L164,89c-.16,1-.33,2.07-.46,3.12-.2,1.61-.4,3.23-.57,4.86v.15a71.84,71.84,0,0,0-.57,8.57c0,1.66.09,3.32.15,5,0,1.23.09,2.45.12,3.68.08,3,.14,6,.2,9,0,.63,0,1.27,0,1.9l0,2.28a7.27,7.27,0,0,0,.86,4.07c1.31,1.93,3.87,2.38,5.94,2.74,1.89.34,3.83.52,5.71.7h.15c1.27.12,2.58.24,3.86.26h1.2a30.08,30.08,0,0,0,8.06-.91,23.29,23.29,0,0,0,8.14-3.81,16.76,16.76,0,0,0,4-4.43,15.33,15.33,0,0,0,1.42-3.42l.18-.56c.22-.68.43-1.35.62-2,.77-2.73,1.54-5.6,2.3-8.52s1.39-5.82,1.93-8.37l.33-1.55c.19-.88.37-1.75.56-2.62.29-1.32.57-2.61.74-3.88.29-2.14.53-3.92.7-5.78s.34-3.68.54-5.51l0-.21c.08-.74.16-1.47.23-2.21.49,1.53,1,3.16,1.7,4.76a24.56,24.56,0,0,0,1.49,3.12c.58,1,1.24,1.86,1.86,2.69.77,1,1.6,2,2.4,3,.52.61,1,1.23,1.53,1.85a38.18,38.18,0,0,1,2.25,3.62c.54,1,1,2,1.46,3l.33.72q.88,1.95,1.8,3.9c.35.74.72,1.46,1.09,2.19l.75,1.5.6,1.24c1,2.08,2.09,4.24,3.05,6.4.59,1.32,1.18,2.63,1.8,3.93a21.54,21.54,0,0,0,2.31,3.63c.5.66,1,1.3,1.55,1.94a7.84,7.84,0,0,0,1.65,1.55,11.67,11.67,0,0,0,2.84,1.35,17.09,17.09,0,0,0,3.31.69l.24,0c1,.14,1.94.26,2.91.37,1.58.18,2.87.29,4.05.36l.5,0c.55,0,1.11.07,1.66.07a7.54,7.54,0,0,0,1.82-.19c2.22-.53,3.76-2.23,5.1-4,.23-.31.45-.61.65-.94a5.51,5.51,0,0,0,.47-1.05c.06-.13.11-.26.16-.39a19.39,19.39,0,0,0,.75-2.39l.12-.43.05-.18c.17-.61.34-1.23.48-1.85l.17-.69c.27-1.18.56-2.4.79-3.62a86.13,86.13,0,0,0,1.22-9.38c.49-6,.59-11.93.67-18,0-1.89,0-3.78.05-5.67l0-3.24c0-1.54,0-3.08.07-4.62,0-1,.1-2.07.17-3.1,0-.47.07-.94.09-1.41.07-1.06.12-2.12.18-3.18.08-1.72.17-3.5.31-5.24.22-2.7.41-5.66.62-9.31.11-1.94.25-3.89.39-5.83l.21-2.89,0-.44c.18-2.68.36-5.45.36-8.17a29.75,29.75,0,0,0-.49-5.59l0-.11c-.3-1.58-.61-3.22-.85-4.84-.17-1.34-.32-2.68-.44-4a41,41,0,0,0-.67-4.76,13.94,13.94,0,0,0-1-2.64l-.1-.23a10.64,10.64,0,0,0-1.5-2.27,8,8,0,0,0-1.79-1.49c-.35-.23-.69-.45-1-.66a25.39,25.39,0,0,0-4.12-1.92,40.69,40.69,0,0,0-8.29-2l-1.11-.19a16,16,0,0,0-2.85-.35,4.68,4.68,0,0,0-3,1.18,7.34,7.34,0,0,0-1.88,2.86,27.29,27.29,0,0,0-1.48,6.43l-.17,1.15c-.38,2.51-.7,5-1,7.62-.45,3.28-.78,6-1,8.62s-.37,5.49-.47,8.54c0,1.08-.05,2.16-.07,3.25,0,1.57,0,3.21-.14,4.81-.14,2.62-.29,5.33-.59,8l-.74-.67-.52-.45-.26-.23c-.8-.7-1.61-1.4-2.39-2.12l-.46-.42c-1.4-1.27-2.85-2.58-4.21-3.93-1.1-1.09-2.28-2.1-3.43-3.08-.65-.55-1.3-1.11-1.93-1.67-.92-.82-1.77-1.66-2.62-2.58-.61-.67-1.18-1.4-1.73-2.11-.86-1.13-1.78-2.28-2.72-3.43a10.59,10.59,0,0,0-2.2-2.08,6.06,6.06,0,0,0-2-.9,5.39,5.39,0,0,0-1.36-.17,9,9,0,0,0-1.73.19,6.09,6.09,0,0,0-1.9.81,7.74,7.74,0,0,0-1.66,1.31,12.7,12.7,0,0,0-1.79,2.38,39.69,39.69,0,0,0-1.93,3.66c-.33.69-.63,1.4-.92,2.1.17-2,.24-3.66.23-5.18,0-3.14,0-6-.33-8.85-.16-1.58-.42-3.17-.68-4.71-.12-.74-.24-1.48-.35-2.23-.35-2.72-.59-5.41-.71-8,0-.76-.07-1.53-.09-2.3a53.63,53.63,0,0,0-.52-6.65,18.4,18.4,0,0,0-.54-2.5,7.27,7.27,0,0,0-1.35-2.51,5.8,5.8,0,0,0-2.78-1.7,11.55,11.55,0,0,0-2.5-.41l-.45,0-1-.07h-.16l-.81,0C185.43,0,185,0,184.5,0Z"/><path class="cls-1" d="M338.44,5.87c-.53,0-1.06,0-1.59,0a23.81,23.81,0,0,0-2.4.28l-.11,0A7.56,7.56,0,0,0,329.43,9a11.22,11.22,0,0,0-2.25,5.09l-.16.65c-.12.54-.25,1.08-.35,1.62-.22,1.25-.45,2.55-.55,3.88a17.76,17.76,0,0,0,.09,2.82c0,.31.05.62.07.93.09,1.34.18,2.69.26,4,.2,3.54.34,6.45.43,9.15a17.13,17.13,0,0,1,0,1.92,6.56,6.56,0,0,1-.23.84c-.14.27-.3.54-.52.88-.17.19-.34.37-.52.54l-.17.1a5.8,5.8,0,0,1-.95-.28c-.71-.31-1.42-.64-2.13-1s-1.49-.65-2.22-.94l-.65-.25a6.91,6.91,0,0,1-.91-.49l-.16-.15a12.36,12.36,0,0,1-.73-1.42,28.53,28.53,0,0,1-1.22-4.52c-.2-1-.4-2-.57-3.06-.24-2.2-.37-4.14-.4-6s.08-3.66.2-5.44l.06-.85,0-.49,0-.49a9.21,9.21,0,0,0-.14-2.14,4.81,4.81,0,0,0-.46-1.3l-.1-.21a9,9,0,0,0-.63-.86,7.61,7.61,0,0,0-1.21-.94c-.36-.17-.72-.33-1.09-.48s-.55-.21-.84-.31a13.71,13.71,0,0,0-1.91-.49l-.2,0a28.22,28.22,0,0,0-4.84-.56h-.59a25.13,25.13,0,0,0-3.3.25l-2.47-.41c-.69-.1-1.48-.22-2.25-.28-.39,0-.77-.05-1.16-.05l-.59,0c-.44,0-.89.1-1.34.17l-.44.07a5.91,5.91,0,0,0-3.1,1.41,3,3,0,0,0-2.42-1.32,2.74,2.74,0,0,0-2,.84,2.67,2.67,0,0,0-.8,1.92q0,3.57.08,7.14c0,4.16.08,8.33.16,12.49,0,1.88.11,3.79.19,5.63,0,.87.07,1.74.11,2.61.12,3.16.21,6.32.3,9.48.07,2.66.07,5.47,0,8.86l0,1.78c0,2.2-.09,4.47-.21,6.7-.1,1.7-.21,3.39-.32,5.08l-.27,4.24c-.17,3-.31,6.13-.4,9.31-.17,5.9-.22,11.74-.25,17.7q0,4.7,0,9.39c0,2.79.16,5.51.35,8.52.1,1.46.17,2.92.24,4.38l.06,1.74c0,.81.05,1.62.1,2.43a27.81,27.81,0,0,0,.62,4.82c.1.42.21.85.32,1.27a6.41,6.41,0,0,0,1.48,2.49,5.39,5.39,0,0,0,.95.82l.22.16c.31.24.63.47,1,.68a10.13,10.13,0,0,0,2.92,1.23,7.8,7.8,0,0,0,2.11.26c.29,0,.58,0,.86,0,.62,0,1.24-.13,1.84-.22l.37,0,.85-.11,1.52-.22c1.84-.32,3.25-.59,4.56-.87l1.92-.42.75-.16a12.35,12.35,0,0,0,2.59-.74,5.81,5.81,0,0,0,2.28-1.91,10.57,10.57,0,0,0,1.22-2.45,11.56,11.56,0,0,0,.51-2.26l.06-.33c.2-1.25.36-2.49.48-3.69.36-3.71.49-7.48.61-10.81.12-3.62.17-6.58.16-9.3,0-1.06,0-2.47-.16-3.88-.14-1.64-.3-3.27-.47-4.9-.3-3-.52-6.16-.69-8.79-.11-1.87-.17-3.78-.23-5.63l0-1.07c0-1.08-.11-2.16-.18-3.24l-.05-.59-.09-1.26c0-.24-.05-.48-.08-.72a14.23,14.23,0,0,1-.12-1.73l.08-.08h0A25.32,25.32,0,0,1,316.21,73a43.06,43.06,0,0,1,8.35-2.3,10.32,10.32,0,0,1,1.11-.06h.44l.11,0h0l.15.09.16.13a9.42,9.42,0,0,1,.64,1.15,47.22,47.22,0,0,1,2.1,9l.19,1.15c.27,1.57.51,3.14.75,4.71l.12.75c.44,3.28.89,6.57,1.36,9.85.33,2.91.68,6,1,9.11l.78,8.47,0,.37c.31,3.35.65,6.25,1,8.87.23,1.61.47,3.06.73,4.41.14.7.28,1.4.44,2.09a7.52,7.52,0,0,0,.92,2.25,9.26,9.26,0,0,0,2.67,2.62c2.45,1.69,5.36,2.28,8.17,2.84,1.28.26,2.61.44,3.88.62l.5.07a42.46,42.46,0,0,0,4.73.43h.5a21.51,21.51,0,0,0,3.63-.3,12,12,0,0,0,2.69-.9l.31-.14a5.21,5.21,0,0,0,1.27-.87,10.46,10.46,0,0,0,1.22-1.43,9.7,9.7,0,0,0,1.24-2.63l0-.12a21.66,21.66,0,0,0,.73-2.85c.17-.83.29-1.64.4-2.42l.1-.65c.21-1.39.39-2.65.53-4a58,58,0,0,0,.2-6.71v-1.11c0-2.77,0-5.64-.21-8.44l-.11-1.62L369,104l0-.44c0-.35,0-.7-.08-1l-.66-5.47c-.14-1.14-.31-2.28-.49-3.41l-.18-1.22c-.18-1.19-.39-2.53-.64-3.83-1.09-5.53-2.39-12-4.12-18.2a42.36,42.36,0,0,0-1.34-4.08c-.49-1.24-1-2.48-1.57-3.68l-.32-.71c-.54-1.31-1-2.39-1.29-3.4-.43-1.29-.83-2.58-1.23-3.87l-.19-.62q-.24-.78-.51-1.56c-.29-.91-.59-1.81-.85-2.73a31.34,31.34,0,0,1-.82-4.2c-.34-3.15-.55-5.93-.65-8.51,0-1-.07-2.07-.1-3.11-.06-1.91-.12-3.88-.25-5.82a42.38,42.38,0,0,0-.56-5,39.66,39.66,0,0,0-1-4.18,37.82,37.82,0,0,0-1.69-4.41,37.42,37.42,0,0,0-1.92-3.86,11.9,11.9,0,0,0-1.17-1.6,8.45,8.45,0,0,0-1.59-1.4,8.21,8.21,0,0,0-2.26-1.08l-.09,0a11.3,11.3,0,0,0-1.47-.37l-.26-.06a15.45,15.45,0,0,0-3.18-.29Z"/><path class="cls-1" d="M441.36,10.59a3,3,0,0,0-1,.18l-.77,0a20.54,20.54,0,0,0-6,.88l-.34-.07a10.35,10.35,0,0,0-1.94-.19,9.84,9.84,0,0,0-1.43.11,13.75,13.75,0,0,0-2.34.61,20.94,20.94,0,0,0-3,1.38,20.08,20.08,0,0,0-5.1,4.69c-1.1,1.3-2.19,2.63-3.22,4-.72.93-1.66,2.18-2.51,3.49s-1.58,2.64-2.11,3.66a65.92,65.92,0,0,0-3.45,8.2l-.12.32c-.89,2.38-1.75,5-2.72,8.27l-.81,2.69c-.56,1.88-1.13,3.76-1.67,5.65-.78,2.69-1.66,5.83-2.36,9-.64,2.92-1.14,5.92-1.63,8.82-.58,3.5-1,6.58-1.4,9.45a60.08,60.08,0,0,0-.37,8.58l0,1.69c0,2.26,0,4.59.18,6.88a71.94,71.94,0,0,0,1.1,9.24c.31,1.56.64,3,1,4.3.13.45.29.89.45,1.33l.22.63c.31.86.66,1.72,1,2.44a34.09,34.09,0,0,0,2,4,24.86,24.86,0,0,0,2.63,3.66c2,2.31,4.07,4.54,6.24,6.8.93,1,1.91,1.91,2.92,2.85l1.71,1.61a21.43,21.43,0,0,0,5,3.63A34.74,34.74,0,0,0,429.7,142c1.37.31,2.66.6,3.95.85l.84.17c2.81.56,5.72,1.13,8.62,1.49,1.46.18,3,.35,4.62.43q.6,0,1.2,0a27.2,27.2,0,0,0,3.21-.19,25.23,25.23,0,0,0,4.43-.86c.71-.21,1.39-.44,2.08-.69a20,20,0,0,0,5.35-2.95,41.81,41.81,0,0,0,4.49-3.76l1.92-1.89c.87-.86,1.68-1.75,2.46-2.61l.54-.59.65-.71c.68-.73,1.39-1.49,2-2.28l.34-.41c.45-.54.89-1.08,1.3-1.65l.44-.59c.31-.42.63-.85.91-1.3a70.75,70.75,0,0,0,4.32-7.7l.32-.68c.3-.61.6-1.25.85-1.89l.19-.5.7-1.86c.38-1,.68-2.09,1-3.12l.2-.73.18-.62c.33-1.16.67-2.37.9-3.58l.11-.58c.14-.71.28-1.45.36-2.18l.33-2.77c.34-2.87.46-5.75.57-9,0-1.19,0-2.43,0-4l0-1c0-1.05,0-2.13-.1-3.2-.18-3.11-.38-6.17-.76-9.25a63.15,63.15,0,0,0-1.41-8.24,13.47,13.47,0,0,0-1.93-4.18c-.41-.6-.84-1.18-1.28-1.76l-.36-.48-.43-.58-2-2.71C478,50,474.65,45.55,471.2,41.2c-1.29-1.71-2.5-3.53-3.68-5.28l-.72-1.07c-1.46-2.16-3.09-4.25-4.66-6.27l-.08-.11-.12-.15c-1.26-1.64-2.56-3.35-4-4.89a43.65,43.65,0,0,0-4.59-4.15c-1-.8-2-1.57-3.1-2.38a2.72,2.72,0,0,0,.61-.7l.27-.66a2.82,2.82,0,0,0,0-1.47c-.23-1.75-2.31-2.39-3.53-2.62-.86-.16-1.75-.28-2.72-.38l-1.31-.13a12.05,12.05,0,0,0-2-.34Zm1.08,94.31q-.36,0-.72,0a12.12,12.12,0,0,1-1.91-.54,14.38,14.38,0,0,1-2.26-1.33,10.41,10.41,0,0,1-1.3-1.27A25.84,25.84,0,0,1,434.14,98,25.56,25.56,0,0,1,433,93c-.22-1.76-.36-3.23-.46-4.64a35.63,35.63,0,0,1,.36-6.61c.24-1.66.53-3.35.86-5.15.11-.59.25-1.19.4-1.78.07-.3.15-.61.22-.92a32.09,32.09,0,0,1,1.43-4.7,12.12,12.12,0,0,1,.69-1.24,7.93,7.93,0,0,1,.71-.71,10.8,10.8,0,0,1,1.39-.78c1-.41,2.13-.76,3.18-1.09l.28-.1.22-.07.54.16a16,16,0,0,1,1.91,1.2,15.24,15.24,0,0,1,1.86,1.77,16.49,16.49,0,0,1,1.11,2,25,25,0,0,1,1.19,3.55c.35,1.44.63,2.85.85,4.33a71.39,71.39,0,0,1-.4,14.77,33.08,33.08,0,0,1-1.66,7.42,17.44,17.44,0,0,1-1.72,2.76,13.39,13.39,0,0,1-1.13,1.23l-.4.21a10.79,10.79,0,0,1-1.27.34l-.68,0Z"/><path class="cls-1" d="M175.88,165.82c-.93,0-1.87.05-2.78.1l-.34,0c-1.33.07-2.66.15-4,.26a71.35,71.35,0,0,0-9.36,1.24c-.64.14-1.27.29-1.9.45s-1.27.32-1.9.46l-2.79.58-1.39.29-1.81.38c-2.14.45-4.35.92-6.55,1.27-4.79.59-9.69.84-14.44,1.09l-3.07.16c-1.89.1-3.78.18-5.66.26l-3.28.14c-2.55.11-5.12.39-7.61.65l-.66.07c-4.52.48-9.13.68-13.59.88l-4.47.21c-2.81.15-6.09.34-9.24.81l-1.44.22c-2.32.34-4.71.69-7,1.19l-.63.13c-1.43.3-2.92.61-4.36,1a10.86,10.86,0,0,0-4,1.9,5.46,5.46,0,0,0-1,1.08h-.17a2.82,2.82,0,0,0-2,.83,2.67,2.67,0,0,0-.8,1.93c0,4,.23,7.55.59,10.87.16,1.56.4,3.63.77,5.69.17.92.32,1.62.49,2.28l.06.23a10.64,10.64,0,0,0,1.13,3.08A2.81,2.81,0,0,0,65.11,207a2.5,2.5,0,0,0,.72-.1,2.42,2.42,0,0,0,1-.48,2.61,2.61,0,0,0,1.68.76l.18,0,.93-.12a32.69,32.69,0,0,0,4.49-.78c.4-.11.79-.24,1.18-.37l.86-.27c.83-.25,1.67-.46,2.46-.65a84.89,84.89,0,0,1,8.54-1.6A56.31,56.31,0,0,1,93.4,203h4.19c.88,0,1.81,0,2.72.08a9.27,9.27,0,0,1,1,.29,9.93,9.93,0,0,1,1.26.75,7.44,7.44,0,0,1,.58.55l.66,1.06.51.83c.25.4.52.79.78,1.18l.48.71a30.06,30.06,0,0,1,2.18,3.92,44.4,44.4,0,0,1,1.87,7.27c.56,3.14,1,5.75,1.37,8.21l0,.24c.14,1.11.28,2.22.38,3.34.14,1.48.23,2.94.33,4.67.13,2.12.15,4.29.17,6.38,0,.68,0,1.36,0,2,.08,5.76.21,11.91.8,18.09.21,2.24.57,4.45,1,6.71.31,1.81.57,3.67.82,5.47l.06.4,0-.25c.43,3.29.88,6.29,1.37,9.17a22.4,22.4,0,0,0,1.41,5.21,10.66,10.66,0,0,0,1.56,2.47,5.1,5.1,0,0,0,1.11,1,8.1,8.1,0,0,0,1.35.75,10.16,10.16,0,0,0,2.17.66l.51.09.51.09,2.1.4a42.05,42.05,0,0,0,4.57.67c.57.05,1.17.08,1.79.08s1.49,0,2.35-.11a21.88,21.88,0,0,0,9-2.44,11.64,11.64,0,0,0,2.21-1.54q.38-.44.72-.9c.16-.33.31-.66.44-1s.12-.72.16-1.08a11.51,11.51,0,0,0-.22-1.53c-.12-.57-.27-1.14-.43-1.7-.08-.31-.17-.62-.25-.93-.41-1.65-.75-3.32-1-5.1a79.33,79.33,0,0,1-.16-10.1c0-2.16.11-4.39,0-6.59a51,51,0,0,0-1.07-9.18c-.27-1.28-.63-2.63-1.09-4.14a39.88,39.88,0,0,1-1.11-4.19c-.08-.37-.14-.75-.21-1.14l-.06-.36c-.18-1.43-.3-2.6-.39-3.67-.11-1.49-.15-3-.18-4.48-.07-2.77-.15-5.71-.35-8.61-.08-1.19-.2-2.37-.32-3.56-.17-1.56-.33-3.17-.4-4.76s-.11-3-.12-4.44a31.49,31.49,0,0,1,.26-4.26l.1-.85,0-.19a20.71,20.71,0,0,1,.82-3.63l.19-.06c.32,0,.6,0,.89,0h3.52l4,0,2.29,0c1.24,0,2.48.05,3.73.05q1.11,0,2.22,0a44.53,44.53,0,0,0,4.83-.39c1.39-.2,2.84-.48,4.69-.9,1.3-.3,2.6-.68,3.86-1l.43-.13c1.27-.36,2.58-.74,3.85-1.16l.92-.3,3.29-1.09a17,17,0,0,0,3.69-1.67,18.88,18.88,0,0,0,2.67-2.15,11.77,11.77,0,0,0,1-1.12l.22-.27a10.37,10.37,0,0,0,1.56-2.42,11,11,0,0,0,.87-3.32,23.11,23.11,0,0,0-.25-5.28c-.21-1.46-.48-2.92-.81-4.33a19.56,19.56,0,0,0-2.33-5.76,15.4,15.4,0,0,0-1-1.41l-.13-.18c-.55-.75-1.06-1.43-1.61-2.09s-1-1.14-1.4-1.55a11.82,11.82,0,0,0-1.88-1.52,6.52,6.52,0,0,0-1.38-.63,8,8,0,0,0-2-.41,19.52,19.52,0,0,0-2-.09Z"/><path class="cls-1" d="M216.15,169.18c-.9,0-1.79,0-2.68,0a29,29,0,0,0-5.47.54,2.78,2.78,0,0,0-2,3.08,2.68,2.68,0,0,0-2.6,2c-.34,1.59-.67,3.18-1,4.78l-.15.77a11.17,11.17,0,0,0-.17,1.16c0,.2-.05.4-.08.6l-.4,2.9c-.17,1.24-.27,2.51-.36,3.74,0,.44-.07.88-.1,1.32-.11,1.29-.18,2.57-.24,3.85-.29,6.2-.37,12.51-.45,18.61q0,3.12,0,6.24c0,3.64,0,7.4-.15,11.1-.11,3.31-.22,6.62-.36,9.93-.11,2.64-.26,5.27-.41,7.9l-.07,1.21c-.33,5.77-.43,11.68-.3,17.56,0,2.64.26,5.32.45,7.9l.1,1.31c.21,2.88.31,5.81.4,8.65.08,2.21.13,4.42.18,6.62v.6c0,.93,0,1.87.09,2.8a18.09,18.09,0,0,0,.21,1.82,5.87,5.87,0,0,0,.8,2,8.25,8.25,0,0,0,3.49,3A21.71,21.71,0,0,0,211.4,303c1.28.21,2.52.36,3.72.51l.51.06,2.84.34,3.15.38,1.49.25c.84.14,1.69.29,2.54.41s1.63.24,2.41.28c.51,0,1,.05,1.52.05a7.32,7.32,0,0,0,3.39-.66,6.45,6.45,0,0,0,2.18-1.79,12.28,12.28,0,0,0,1.57-2.38,17.39,17.39,0,0,0,1.22-6.15l0-.45c.05-.67.1-1.35.13-2a32.32,32.32,0,0,0-.18-4.12c-.52-5.86-.79-11.93-.8-18,0-1.61.07-3.24.14-4.82l.09-2.35c.07-2.15.06-4.45,0-7.44l0-.71c-.07-2.19-.14-4.47-.37-6.69a39.31,39.31,0,0,0-.59-4l-.06-.32c-.08-.42-.16-.85-.28-1.27s-.16-.58-.25-.86-.2-.64-.28-1l.1-.1.11-.1.58-.34a31.92,31.92,0,0,1,6.53-1.53,24.37,24.37,0,0,1,2.87-.21l.91,0a2.35,2.35,0,0,1,.39.37,22.2,22.2,0,0,1,1.41,2.45,27.83,27.83,0,0,1,1.27,5.72,46.42,46.42,0,0,1,.18,5.52v1c0,.93,0,1.87,0,2.8v1.4q0,3.17-.07,6.33l0,2.53c-.07,7-.09,12.47-.07,17.59a45.25,45.25,0,0,0,.81,9.08,12.91,12.91,0,0,0,.9,2.85,5.16,5.16,0,0,0,1.72,2.08,9.53,9.53,0,0,0,3.13,1.31c1.45.41,2.94.69,4.38,1a84.73,84.73,0,0,0,9.24,1.15c.64.05,1.29.09,1.94.12.29,0,.59,0,.88,0l1.05,0a8,8,0,0,0,3.32-1,6.25,6.25,0,0,0,1.32-.95,9,9,0,0,0,1-1.06,11.81,11.81,0,0,0,1.64-2.9,31.87,31.87,0,0,0,1.73-6.24,97.55,97.55,0,0,0,1.16-11.24v-.12c.18-2.67.18-5.4.17-8v-.87c0-1.44-.08-2.86-.15-3.93l-.05-.81c-.08-1.22-.16-2.47-.32-3.7l-.22-1.73c-.28-2.24-.58-4.56-.75-6.85-.25-3.2-.44-6.39-.6-9.09-.08-1.32-.19-2.63-.29-4-.13-1.51-.25-3-.33-4.53-.32-6.14-.44-12.29-.53-18.06-.05-3.29-.19-6.22-.44-9-.23-2.51-.6-5-1-7.49l-.23-1.57c-.16-1.31-.3-2.61-.45-3.92s-.3-2.8-.48-4.19a38.15,38.15,0,0,0-.8-4.65,23.69,23.69,0,0,0-1.66-4.53,8.84,8.84,0,0,0-2.3-3.08,14.73,14.73,0,0,0-3.84-2l-.63-.26c-1.23-.5-2.48-.89-3.76-1.29-2.8-.87-5.62-1.61-8.38-2.21a8.28,8.28,0,0,0-1.65-.19,6.47,6.47,0,0,0-1.08.09,6.77,6.77,0,0,0-2.1.75c-.31.22-.61.44-.9.68a9.18,9.18,0,0,0-1,1.2,5.14,5.14,0,0,0-.41.77,15.5,15.5,0,0,0-.62,1.54,23.77,23.77,0,0,0-1,5l-.14,1c-.3,2.09-.51,4.39-.67,7.24l0,.42c-.13,2.19-.27,4.46-.45,6.69l-.12,1.63c-.11,1.48-.22,3-.38,4.5a19.74,19.74,0,0,1-.63,2.55c-.16.47-.27.95-.39,1.43s-.21.88-.34,1.31l-.24.13a19.15,19.15,0,0,1-3.52.75,22.76,22.76,0,0,1-2.46.16l-.93,0a9,9,0,0,1-1.38-.37c-.18-.09-.35-.2-.53-.3s-.45-.43-.67-.67a12.84,12.84,0,0,1-1.06-1.87c-.4-1-.73-2.09-1-3A32.81,32.81,0,0,1,232,199.3a78.43,78.43,0,0,1-.2-11.36v-.29l.18-5.21.11-3.1v-.18c0-.67.05-1.34,0-2a9.17,9.17,0,0,0-.37-2.35,6.09,6.09,0,0,0-1.41-2.45,4.17,4.17,0,0,0-.72-.6l-.3-.22a5.69,5.69,0,0,0-.74-.46l-.11-.06a13.13,13.13,0,0,0-2.5-1,19,19,0,0,0-4.22-.65c-1.66-.13-3.46-.19-5.66-.19Z"/><path class="cls-1" d="M316.6,173.1h0a9.53,9.53,0,0,0-1.07.17c-.36.13-.71.28-1.06.43a7.65,7.65,0,0,0-.93.52,12,12,0,0,0-2.1,1.73,20.54,20.54,0,0,0-2.3,1,8.8,8.8,0,0,0-1.79,1.45,5.6,5.6,0,0,0-.41.43,2.81,2.81,0,0,0-2.71,2.76c-.41,7.61-.62,13.9-.64,19.79,0,2.08.06,4.2.13,6.24l.06,1.69c.09,3.3.19,6.59.27,9.88.26,11.19.26,22.57.27,33.58v2.27q0,8.59,0,17.2v11.31c0,2.18,0,4.43.05,6.64,0,1.44.15,2.86.26,4.07l0,.4.15,1.6c.06.57.14,1.24.27,1.92a5.79,5.79,0,0,0,1.12,2.36,6.07,6.07,0,0,0,1.32,1.31,6.91,6.91,0,0,0,1.13.68,15.94,15.94,0,0,0,2.75,1.05,19.6,19.6,0,0,0,4.26.49h.21c1.53.06,3.05.09,4.58.11,2.38,0,4.76,0,7.14.06h3.61l2.77,0c1.46,0,2.93-.12,4.35-.21,2.89-.18,5.83-.28,8.67-.38s6.05-.2,9.06-.4l1.78-.11c2.33-.15,4.74-.3,7.11-.52l1.11-.1c2.44-.22,5-.46,7.45-.63a68.91,68.91,0,0,0,8.65-1.19c.76-.15,1.5-.29,2.22-.5a6.34,6.34,0,0,0,2.45-1.28,7.37,7.37,0,0,0,1.94-2.89,22,22,0,0,0,1.15-5.58l.15-1.35.15-1.35c.33-2.86.61-5.77.84-8.24l.09-1a68.18,68.18,0,0,0,.43-8,33.93,33.93,0,0,0-.44-4.85,16.56,16.56,0,0,0-.72-2.88,7.51,7.51,0,0,0-4.22-4.26,15.86,15.86,0,0,0-6.21-1.24c-.47,0-.93,0-1.4.06a46.22,46.22,0,0,0-4.8.68c-1,.2-2.08.35-3.13.5l-1.17.18c-1.4.21-2.81.47-4.3.79l-2.7.59c-1.85.42-3.76.86-5.67,1.14l-1,.15a26.8,26.8,0,0,1-3.29.26c-.31,0-.61,0-.92,0a6.56,6.56,0,0,1-.87-.23,4.91,4.91,0,0,1-.5-.28l-.33-.33a14.19,14.19,0,0,1-1.18-2.22,22.2,22.2,0,0,1-1.05-3l0-.1a13.2,13.2,0,0,1,1.14-1,31.56,31.56,0,0,1,5-3c1-.41,2-.76,3-1.06a29,29,0,0,1,3.44-.79,24.16,24.16,0,0,1,3-.22h.64c.65,0,1.31.06,2,.13l.81.1a13.53,13.53,0,0,0,1.8.16h.41a5.22,5.22,0,0,0,2.53-.84,5.36,5.36,0,0,0,1.94-2.61,20.26,20.26,0,0,0,1.16-5.26c.16-1.25.3-2.5.45-3.75l.09-.8c.3-2.56.63-5.55.85-8.55a20.71,20.71,0,0,0,.06-2.66,6.64,6.64,0,0,0-.78-2.76,4.9,4.9,0,0,0-.62-.87l-.27-.32a5.75,5.75,0,0,0-1.08-1,18.39,18.39,0,0,0-6-3,64,64,0,0,0-10.76-2.4c-1.53-.2-3.34-.42-5.15-.52l-.27,0c-.73,0-1.47-.08-2.21-.08h-.72l-.84,0-.68,0c-.35,0-.7,0-1.05,0l-.49,0-.14-.07a9.46,9.46,0,0,1-1-1.06,14,14,0,0,1-1.17-2,15.42,15.42,0,0,1-.73-2.89,12,12,0,0,1,0-1.9c.5-.11,1-.19,1.53-.27s1.09-.07,1.72-.07c.95,0,1.91,0,2.84.1l1.5.07,4,.12q4.6.1,9.19.17l1.85,0c1.32,0,2.64.05,4,.05.95,0,1.9,0,2.85-.05.68,0,1.37-.08,2.06-.15a12.27,12.27,0,0,0,3.65-.76,10,10,0,0,0,1.21-.56,5.93,5.93,0,0,0,.86-.63l.19-.16a3.93,3.93,0,0,0,.77-1l.13-.2a5.46,5.46,0,0,0,.45-1l.13-.36a18.34,18.34,0,0,0,.95-3.55,26.54,26.54,0,0,0,.3-5.89,40.19,40.19,0,0,0-.55-4.72,15.94,15.94,0,0,0-1.27-3.76,9.17,9.17,0,0,0-2.07-3.05A9.61,9.61,0,0,0,373.9,179c-.8-.18-1.6-.35-2.41-.51-2.84-.56-5.72-1-8.51-1.34s-5.91-.7-9.34-1l-1.88-.14c-2.18-.16-4.43-.32-6.64-.58-1.32-.19-2.63-.37-3.95-.53-1.12-.15-2.26-.24-3.36-.32l-.67-.06c-1.58-.13-3.28-.19-5.2-.19-1,0-2,0-3,0l-1.75,0c-2.58,0-5.25.09-7.86.31a2.94,2.94,0,0,0-1.78-1.46c-.32-.06-.64-.1-1-.14Z"/><path class="cls-1" d="M547.3,172.24h0l-1,0c-1.45.09-2.89.19-4.34.3l-3.08.28-1.32.13-2.12.16-2.11.16c-3.26.3-6.39.7-9.31,1.18-5.64.94-11.15,1.89-16.51,3.24-2.23.56-5.18,1.3-8.17,2-.47.11-.95.19-1.42.27l-.74.13-.53.1-1.2.21-3.89.55-1.34.13c-1.86.18-3.8.36-5.7.49l-1.33.08c-.89.05-1.77.1-2.65.19l-3.77.36-.37,0c-1,.1-2,.26-3,.41-.45.08-.91.15-1.36.21-1,.15-2,.37-3,.58l-.27.06c-2.71.58-5.46,1.22-8.39,1.93a2.61,2.61,0,0,0-1.62,1.24,2.8,2.8,0,0,0-.31,2.16,2.74,2.74,0,0,0,2.45,2c.06.46.13.93.2,1.4l0,.18,0,.22,0,.23s0,.06,0,.06h0V193h0c.26,2.09.57,4.26.89,6.44.23,1.65.47,3.31.7,5l.39,3.41c.2,1.73.39,3.47.6,5.21.13,1.12.25,2.25.36,3.37l.1,1c.06.63.15,1.27.23,1.9s.19,1.46.26,2.19c.26,2.84.47,5.95.63,9.49,0,.9.07,1.8.11,2.7.08,2,.16,3.94.28,5.91.09,1.53.27,3,.4,4.2s.31,2,.5,3c.09.47.18.95.26,1.42l.29,1.7c.37,2.11.74,4.22,1.06,6.34.29,2.48.52,5.11.74,8.52.2,3.08.51,6.12.78,8.69.34,3.17.64,5.83,1,8.52.2,1.59.42,3.28.68,4.95.16,1,.39,2,.62,3l.24,1.12c.14.63.28,1.26.43,1.89.22,1,.45,2,.64,2.95.12.63.23,1.27.34,1.9a30.17,30.17,0,0,0,1,4.41,3.45,3.45,0,0,0,.14.34,2.66,2.66,0,0,0-.07,1.65,2.77,2.77,0,0,0,2.68,2,2.82,2.82,0,0,0,.71-.09c1-.26,2-.54,3-.82l2.22-.6a2.85,2.85,0,0,0,2.3-.21l.77-.42.5-.27,2-.47.77-.18,1.74-.39.29-.07c1.28-.28,2.74-.59,3.33-1.91q.12-.27.21-.54l1-.29,4.35-1.38c1.49-.48,3-1,4.47-1.48l.93-.3.93-.31c.35-.11.7-.26,1-.4l.21-.09a6.42,6.42,0,0,0,1.36-.69l.56-.43c.21-.26.41-.52.6-.79a3.43,3.43,0,0,0,.48-1.66,10.94,10.94,0,0,0-.38-2.29c-.17-.66-.31-1.32-.45-2s-.31-1.44-.5-2.15-.48-1.65-.74-2.44c-.19-.61-.38-1.21-.56-1.83-.33-1.13-.7-2.47-1-3.85s-.54-2.92-.72-4.13q-.58-4.75-1.15-9.49l-.14-1.24c-.12-1-.24-2-.33-3-.07-.83-.08-1.67-.09-2.48v-.28a46.32,46.32,0,0,1,.34-6,10.5,10.5,0,0,1,.39-1.68,3.64,3.64,0,0,1,.23-.39l.18-.19.13,0,1.69-.17,2.41-.25q1.17-.12,2.34-.21l1.9-.16.29,0a42.28,42.28,0,0,0,6.5-.95,7.06,7.06,0,0,0,1.34-.53,4.29,4.29,0,0,0,1.12-.76,8.57,8.57,0,0,0,.85-1.11,5.72,5.72,0,0,0,.5-1.16l.06-.19a4.48,4.48,0,0,0,.2-1.16c0-.13,0-.26,0-.39a7.08,7.08,0,0,0,0-1c0-.46,0-.86-.08-1.25-.21-2.92-.54-6-1-9.29-.19-1.36-.39-2.71-.61-4.07L524,226c-.14-.89-.29-1.78-.48-2.67a9.82,9.82,0,0,0-1-2.62,5,5,0,0,0-1-1.13,4.53,4.53,0,0,0-1.77-.94,4.81,4.81,0,0,0-1.37-.16h-1.06c-.45,0-.9,0-1.35.08a27.4,27.4,0,0,0-3.31.45l-1.6.32c-1.44.29-2.94.59-4.42.82-.31,0-.61,0-.91,0l-.53,0-.31-.07a17.88,17.88,0,0,1,.14-2.41,31,31,0,0,1,1.5-5.88,12.26,12.26,0,0,1,.92-1.72,18.88,18.88,0,0,1,2.47-.59l1.55-.28,1.24-.22c1.55-.29,3.38-.65,5.16-1.11.76-.2,1.51-.42,2.26-.64s1.78-.53,2.69-.75a46.81,46.81,0,0,1,5.08-1c2.87-.36,5.44-.61,7.85-.77l4.2-.25c1.74-.1,3.48-.2,5.22-.32.87-.06,1.74-.12,2.6-.21a28.45,28.45,0,0,0,6.51-1.16,10.11,10.11,0,0,0,1.43-.65,5.47,5.47,0,0,0,.87-.62l.25-.21a5,5,0,0,0,1.41-2.45,7.21,7.21,0,0,0,.22-1.38c0-.35.06-.64.07-.93s.05-.82.06-1.24a39.5,39.5,0,0,0-1-9c-.25-1.19-.56-2.44-1-4l-.37-1.31-.27-.93a18.13,18.13,0,0,0-1.6-3.61,11.86,11.86,0,0,0-1.87-2.52,5.89,5.89,0,0,0-2.51-1.41,7.08,7.08,0,0,0-1.46-.23c-.41,0-.8,0-1.21,0Z"/><path class="cls-1" d="M582.12,172.06a9.12,9.12,0,0,0-1.44.12,6.58,6.58,0,0,0-2.62,1,11.47,11.47,0,0,0-2.61,2.52l-.12.14-.67.82-.08.1a4.11,4.11,0,0,0-1,1.62,3.26,3.26,0,0,0,0,1.78,2.74,2.74,0,0,0,.71,1.22,3.31,3.31,0,0,0,.3.25c-.17,1.57-.32,3.16-.44,4.75-.09,1.27-.18,2.55-.26,3.83,0,.85-.11,1.7-.17,2.55-.29,4.27-.62,8.81-1.13,13.29l0,.14c-.41,2.74-.83,5.58-1,8.39-.23,3-.4,6.11-.51,9.24-.2,5.61-.31,11.45-.31,17.36V242c0,1.17,0,2.37,0,3.55.07,1.5.16,3,.25,4.48l0,.68c.06,1.17.13,2.38.25,3.56.17,1.51.33,3,.47,4.54.24,2.53.32,5.11.4,7.6l.05,1.37q.06,1.79.09,3.57c0,1.68.08,3.42.16,5.13a38.72,38.72,0,0,0,.64,5.11,22.94,22.94,0,0,0,1,3.76c1,2.68,2.19,5.53,3.69,9a33.6,33.6,0,0,0,2,3.95,40.2,40.2,0,0,0,2.75,3.84,17.09,17.09,0,0,0,3.46,3.18l.16.11.93.66a13.9,13.9,0,0,0,2.55,1.29,26.42,26.42,0,0,0,6.66,1.61,32.48,32.48,0,0,0,4.15.25h1.83c.41,0,.81,0,1.22,0l.25,0c1.58-.13,3.2-.26,4.78-.53l.54-.09c.81-.14,1.66-.29,2.48-.49a15.65,15.65,0,0,0,2.44-.92l.13-.06,1.4-.61c1.27-.57,2.61-1.2,4.09-1.94,2-1,3.94-2.06,5.84-3.11l1.9-1c1.19-.65,2.4-1.39,3.71-2.27a19,19,0,0,0,1.73-1.23,21,21,0,0,0,1.93-1.89,30.38,30.38,0,0,0,3.07-4,92.41,92.41,0,0,0,8.73-16.11c.55-1.43,1-2.73,1.49-4.06s.8-2.58,1.15-3.81l.06-.18c.77-2.71,1.57-5.5,2.08-8.32.6-3.25,1-6.53,1.31-9,.35-3,.58-5.94.68-8.68a39.53,39.53,0,0,0,0-4c-.08-1.2-.21-2.43-.34-3.61l-.11-1c-.12-1.16-.22-2.33-.32-3.5-.13-1.54-.26-3.13-.45-4.69h0v0l0-.09h0l0-.23,0-.17c-.18-1.35-.38-2.73-.6-4.11-.12-.74-.25-1.46-.39-2.19-.11-.57-.21-1.13-.31-1.69-.6-3.47-1.1-6.11-1.61-8.57-.21-1-.46-2-.71-3l-.24-1c-.38-1.52-.71-2.74-1.07-3.85a40,40,0,0,0-1.68-4.38c-.28-.61-.57-1.21-.86-1.82s-.49-1-.73-1.54c-.47-1.25-.91-2.51-1.36-3.77-.79-2.26-1.8-4.54-3.85-5.94a12.35,12.35,0,0,0-5.54-2,12.64,12.64,0,0,0-1.55-.08c-.93,0-1.86.07-2.75.14a35.94,35.94,0,0,0-4.62.75,6.06,6.06,0,0,0-.61.16l-.35.1a7.45,7.45,0,0,0-1.48.57,9.34,9.34,0,0,0-1.22.87l-.09.07-.14.16-.14.16a11,11,0,0,0-.68.92,6.41,6.41,0,0,0-.65,1.41,22.08,22.08,0,0,0-.87,2.9,36.85,36.85,0,0,0-.95,5.25,24.43,24.43,0,0,0-.08,4.4l.14,1.41c.09.94.18,1.88.26,2.82l.14,1.71a85.37,85.37,0,0,0,1.35,10.84c.46,2.08,1,4.14,1.45,5.69a54.56,54.56,0,0,1,1.25,5.83c.29,2.36.52,4.69.67,6.92v.2c.17,2.44.34,5,.28,7.46s-.3,5.08-.57,7.66c-.09.8-.17,1.6-.25,2.41-.17,1.6-.33,3.21-.53,4.82s-.57,3.34-.92,4.88a34.34,34.34,0,0,1-1.44,4.62c-.41.92-.83,1.83-1.26,2.74a24.43,24.43,0,0,1-2.06,3.68l-.18.2-.23-.08a13.1,13.1,0,0,1-1.4-.81,10,10,0,0,1-1-1,25.81,25.81,0,0,1-1.64-2.64c-.46-.82-1-1.75-1.4-2.69a31.82,31.82,0,0,1-1.19-4.27c-.24-1.09-.49-2.2-.72-3.3-.46-2.18-.83-4.16-1.13-6.06-.59-3.73-1.13-7.53-1.66-11.21l-.07-.5c-.51-4.38-.83-8.94-1-13.56-.08-2.71-.11-5.12-.08-7.36a61.81,61.81,0,0,1,.42-6.2,70.86,70.86,0,0,1,1.87-8.1,78,78,0,0,0,2-8.68,35.7,35.7,0,0,0,.54-5.33,13,13,0,0,0-.39-2.94,10.31,10.31,0,0,0-2-3.78l-.25-.32a6.93,6.93,0,0,0-1-1,15.68,15.68,0,0,0-2.64-1.74,36.26,36.26,0,0,0-6.54-2.5c-1.53-.45-2.78-.78-4-1l-.31-.06-.58-.11a2.57,2.57,0,0,0-1.86-1.77c-.35-.07-.71-.13-1.06-.18-1.09-.57-2.28-1.17-3.53-1.68a6.42,6.42,0,0,0-2.41-.43Z"/><path class="cls-1" d="M707.7,184.8a2.75,2.75,0,0,0-1.79.81,2.72,2.72,0,0,0-.47.63,14.45,14.45,0,0,0-2.72-.4h-.41a13.51,13.51,0,0,0-2.36.28,10.47,10.47,0,0,0-2.18.79l-1.09.52c-1.27.65-2.53,1.37-3.59,2s-2,1.22-3,1.84l-.57.36-.39.24c-.4.25-.81.51-1.2.79l-1.1.83a22,22,0,0,0-2.41,2.14c-2.06,2.1-4,4.26-6.09,6.66l-.14.16c-.89,1-1.8,2.05-2.67,3.1s-1.86,2.38-3,4a30.15,30.15,0,0,0-2.15,3.69,29.47,29.47,0,0,0-1.85,4.39,68,68,0,0,0-2.28,8.87c-.43,2.36-.74,4.78-1,7.13l-.27,2.1c-.24,1.85-.44,3.74-.64,5.56l-.33,3.09a67.49,67.49,0,0,0-.27,8.81,39.21,39.21,0,0,0,.3,4.3c.13,1,.27,1.82.44,2.62s.34,1.56.53,2.34a40.15,40.15,0,0,0,3.41,8.51c.6,1.22,1.23,2.42,1.85,3.63s1.41,2.71,2.09,4.08c1.52,3.11,2.81,5.59,4.08,7.81A50.15,50.15,0,0,0,679.3,291a34.75,34.75,0,0,0,5.91,5.94,21.18,21.18,0,0,0,5.13,2.55c.82.31,1.66.59,2.49.87l.61.2a37.79,37.79,0,0,0,4.28,1.1c1.38.3,2.81.47,4.2.63l.31,0,.76.08c1.16.14,2.37.28,3.57.34.83,0,1.66.06,2.5.06.65,0,1.31,0,2,0a33.09,33.09,0,0,0,4.75-.67,44.25,44.25,0,0,0,6.94-2.24l1.07-.41c1.39-.52,2.63-1,3.78-1.5l.57-.23a28.58,28.58,0,0,0,3.71-1.76,33.78,33.78,0,0,0,7-5.45,44.46,44.46,0,0,0,4.08-5.12c.4-.56.8-1.11,1.21-1.66.84-1.06,1.61-2,2.35-2.83.54-.62,1.14-1.22,1.71-1.79.35-.35.7-.7,1-1.06l.29-.3c.88-.91,1.76-1.83,2.63-2.76a14.73,14.73,0,0,0,2.07-2.76,14.1,14.1,0,0,0,1.1-2.64,11,11,0,0,0,.46-3.12,8.56,8.56,0,0,0-1.47-4.63,21.22,21.22,0,0,0-1.51-2l-.29-.36c-.62-.77-1.28-1.52-1.93-2.24l-.72-.81c-.23-.26-.44-.53-.66-.8l-.55-.66a8.78,8.78,0,0,0-5.2-2.56,13.87,13.87,0,0,0-2.48-.23,12.33,12.33,0,0,0-3.11.39,10.29,10.29,0,0,0-4.44,2.88c-1.93,1.88-3.67,3.94-5.35,5.94a38.55,38.55,0,0,1-5.36,5.27,17.38,17.38,0,0,1-2.82,1.72,7.93,7.93,0,0,1-.83.25h-.45c-.27,0-.55,0-.82,0a12.48,12.48,0,0,1-1.91-.55,14.64,14.64,0,0,1-2.67-1.6l-1.32-1a43.38,43.38,0,0,1-7.12-6.51,35.68,35.68,0,0,1-3.84-6.67,56.6,56.6,0,0,1-2-5.94,49.65,49.65,0,0,1-1.24-6.07l0-.16a26.73,26.73,0,0,1-.15-2.84c0-1,.1-1.95.22-3a34,34,0,0,1,1.18-4.67,17.6,17.6,0,0,1,1.66-2.69c.64-.75,1.28-1.52,2-2.21s1.27-1.14,1.88-1.64a34,34,0,0,1,4.13-2.51,33.53,33.53,0,0,1,6.84-1.89c.73-.07,1.6-.14,2.47-.14.26,0,.51,0,.77,0,1.06,0,2.12.13,3.25.27.74.12,1.47.26,2.2.39l.85.16a13.44,13.44,0,0,0,2.38.26h.19a6,6,0,0,0,2-.41,8,8,0,0,0,2.19-1.41,17.5,17.5,0,0,0,3.16-4.1c.43-.76.81-1.56,1.19-2.34l.4-.81,0-.1c.26-.52.52-1,.76-1.6a7,7,0,0,0,.65-2.32,4.31,4.31,0,0,0-.43-2.25,12.54,12.54,0,0,0-3.18-3.59q-2.37-2.06-4.92-4l-.21-.16c-1.21-1-2.46-2-3.64-3l-.21-.19c-1.32-1.13-2.67-2.31-4.07-3.4-.85-.66-1.77-1.36-2.75-2a22.35,22.35,0,0,0-3.33-1.65,16.55,16.55,0,0,0-3.26-.89l-.11,0a38.28,38.28,0,0,0-4-.58Z"/><path class="cls-1" d="M799.36,170.71c-.62,0-1.25,0-1.87,0a74.14,74.14,0,0,0-8.83,1.08l-.22,0a15.34,15.34,0,0,0-3.9,1,7.63,7.63,0,0,0-2.69,1.93,11.6,11.6,0,0,0-1.5,2.38,23.53,23.53,0,0,0-2,6.37,33.58,33.58,0,0,0-.76,6.25c0,.27,0,.54,0,.81a27.38,27.38,0,0,0-.43,3.24,18.2,18.2,0,0,0,0,3.61l.16,1.37.15,1.37c.11,1,.23,1.94.34,2.91.2,1.73.41,3.45.59,5.18l.22,2.12c.22,2.24.46,4.56.75,6.83q.61,4.83,1.24,9.66c.35,2.65.62,5.43.8,8.29l.06.9c.07,1,.14,2.13.15,3.19l.06,5.2c0,2.08,0,4.2,0,6.25q0,1.56,0,3.12c0,3,0,5.93.2,8.74.07,1.23.2,2.47.34,3.68.1,1,.21,1.9.28,2.86.23,3,.39,5.41.52,7.69.12,2.1.28,4.37.49,6.94a33.36,33.36,0,0,1-.14,6.28c-.1.65-.21,1.3-.32,2l-.33,2a19.15,19.15,0,0,0-.27,2.4,11.16,11.16,0,0,0,.25,2.71,6.92,6.92,0,0,0,.86,2.13,6.53,6.53,0,0,0,2,2,5.92,5.92,0,0,0,1.31.59,11.62,11.62,0,0,0,1.31.39,15.51,15.51,0,0,0,3.08.38h.45a18.1,18.1,0,0,0,4-.53,30.3,30.3,0,0,0,4.87-1.75,20,20,0,0,0,1.79-.91,11,11,0,0,0,4.24-4.05,15.71,15.71,0,0,0,1.65-5.72,51.51,51.51,0,0,0,.47-5.68c.11-3.21.2-6.11.23-9s0-6.09-.06-9.12c-.07-1.94-.2-3.91-.33-5.81-.07-.92-.13-1.83-.19-2.74-.16-2.68-.26-5.42-.31-8.38,0-.65,0-1.29,0-1.94s0-1.29,0-1.93c0-.86-.08-1.73-.14-2.58v-.18c1.47.79,2.93,1.67,4.34,2.52l.41.25c1.37.82,2.78,1.77,4.58,3.09,2.14,1.68,4.24,3.46,6.39,5.29s4.22,3.59,6.29,5.47a34.66,34.66,0,0,1,2.82,2.76c1,1.17,2,2.34,3.21,3.75s2.34,2.84,3.51,4.27l2,2.4c1.66,2,3.66,4.4,5.83,6.67.4.43.81.85,1.23,1.27.57.59,1.15,1.18,1.71,1.79s1.11,1.19,1.66,1.8l1.16,1.25c1,1.06,1.92,2.12,2.8,3.16l.35.42a10.2,10.2,0,0,0,2.14,2.11,6.87,6.87,0,0,0,2.52,1,15.6,15.6,0,0,0,2.91.23h.63a21.74,21.74,0,0,0,10.15-2.46,12.07,12.07,0,0,0,4.29-4.1,20.91,20.91,0,0,0,1.45-2.61c.66-1.41,1.25-2.87,1.82-4.29l.59-1.46c.54-1.24,1.08-2.39,1.64-3.52a17.1,17.1,0,0,0,.9-2.09,11.48,11.48,0,0,0,.5-2.52,14.19,14.19,0,0,0,.07-2.82,12.58,12.58,0,0,0-.6-3.19,32.06,32.06,0,0,0-1.76-4.23,24.24,24.24,0,0,0-2.18-3.66,21.69,21.69,0,0,0-3.18-3.56,28.1,28.1,0,0,0-3.94-2.78l-2.27-1.31c-1.79-1-3.64-2.1-5.41-3.25-1.4-.92-2.83-1.92-4.36-3.07s-3-2.2-4.35-3.07l-2.41-1.55c-2.09-1.33-4.25-2.7-6.27-4.2l-1.34-1.13a41.39,41.39,0,0,0-7.19-5.29l-2-1.07-2.59-1.39-.66-.34c-.53-.29-1.06-.57-1.6-.84l-.74-.36c-.39-.18-.78-.36-1.16-.57a37.33,37.33,0,0,1,3-2.68l.8-.68c.64-.54,1.3-1.06,2-1.58l.15-.12c2.35-1.72,4.77-3.33,7.38-4.93l.8-.49c.93-.56,1.87-1.13,2.78-1.73,1.2-.77,2.38-1.57,3.56-2.36s2.37-1.55,3.51-2.18l1.3-.7c.78-.41,1.59-.83,2.34-1.31a19.63,19.63,0,0,0,2.56-2,10.55,10.55,0,0,0,1.66-2.07,7,7,0,0,0,.52-1,6.44,6.44,0,0,0,.63-2.12,10.93,10.93,0,0,0-.57-3.8l-.09-.34c-.17-.62-.38-1.24-.59-1.83l-.08-.22c-.35-1-.73-2-1.12-3l-.36-1-.11-.28a24.64,24.64,0,0,0-2.7-5.65,15.46,15.46,0,0,0-5.05-4.61,13,13,0,0,0-5.85-1.45h-.25a14.87,14.87,0,0,0-2.74.29,20.39,20.39,0,0,0-3.38,1,62.78,62.78,0,0,0-5.9,2.66l-1,.51c-1.12.55-2.24,1.1-3.35,1.69-1.38.73-2.75,1.45-4,2.29s-2.57,1.85-3.93,2.93a58.47,58.47,0,0,0-7.19,7.14l-1.26,1.4c-.69.76-1.38,1.53-2.06,2.31l-.25.29c-.45.51-.91,1-1.33,1.55l-.44.55c0-.28-.07-.56-.11-.84s-.09-.62-.15-.92c-.07-.46-.16-.92-.24-1.38-.12-.66-.23-1.31-.34-2-.17-1.33-.33-2.65-.47-4-.09-.77-.15-1.54-.22-2.32-.05-.56-.09-1.12-.15-1.69-.12-1.22-.26-2.44-.4-3.66-.18-1.61-.36-3.23-.5-4.86-.08-.81-.18-1.61-.3-2.39a4.62,4.62,0,0,0-2.34-3.54,8.11,8.11,0,0,0-1.82-.66,18.11,18.11,0,0,0-4.48-.49Z"/><path class="cls-1" d="M104.32,331.6h-3.61c-3.61,0-6.37,0-8.95.07A44.75,44.75,0,0,0,82.9,333c-3,.68-5.72,1.29-8.49,1.76-1.61.28-3.21.54-4.82.8l-.92.14c-1,.16-2,.31-3,.52-1.3.28-2.6.58-3.9.89-1.53.36-3.12.73-4.69,1-2.48.49-5,.83-7.45,1.17-3.1.32-6.26.62-9.4.87-1.11.09-2.22.16-3.34.24-1.63.12-3.27.23-4.91.39s-3.18.3-4.73.51l-1.31.17c-1,.13-2.12.27-3.17.46l-1.3.23-3.3.6-1.37.27c-1,.2-2.05.41-3.07.58l-2.7.43-.3,0a40.94,40.94,0,0,0-4.63.75l-.41.11a2.9,2.9,0,0,0-2,1.09,3.38,3.38,0,0,0-1.19,2.44,3.65,3.65,0,0,0,.47,1.75l-.24.6A13,13,0,0,0,2,354.05a16.38,16.38,0,0,0,.15,4.47,18.55,18.55,0,0,0,.64,2.8,10.35,10.35,0,0,0,.6,1.37,4.93,4.93,0,0,0,.65.92l.22.28a5.7,5.7,0,0,0,1.13,1,7.82,7.82,0,0,0,1.68.88,18.38,18.38,0,0,0,5.82,1l1.17,0c.88,0,1.82-.05,3-.16l3-.28,1,.06c.49,0,1,0,1.49,0,.94,0,1.79,0,2.6-.12l2.26-.26c.82,0,1.65,0,2.47,0,1.82-.06,3.64-.15,5.47-.24,1.33-.07,2.66-.14,4-.19a3,3,0,0,0,1.4-.41,2.65,2.65,0,0,1,.37.12,6.16,6.16,0,0,1,.71.4,6.11,6.11,0,0,1,.35.67c.34.88.6,1.79.86,2.68l.3,1c.22.72.44,1.43.67,2.14s.4,1.25.59,1.88c.25.81.55,1.62.85,2.4.18.48.36,1,.53,1.44.44,1.26.89,2.64,1.37,4.21s1,3,1.5,4.47c.44,1.26.88,2.53,1.28,3.8.79,2.48,1.53,5.12,2.35,8.32.95,3.73,1.76,7.56,2.55,11.26l.48,2.27c.13.61.27,1.22.41,1.83.33,1.51.68,3.06.94,4.6.35,2.08.69,4.29,1,6.77.19,1.89.34,3.83.43,5.9,0,.8,0,1.61,0,2.42v.94a44.83,44.83,0,0,1-.21,4.9,28.56,28.56,0,0,1-1.17,5.46l-.13.23A7.65,7.65,0,0,1,56,446a14.85,14.85,0,0,1-2,1.15c-.65.25-1.17.43-1.66.57a20.69,20.69,0,0,1-2.1.43l-.52.07c-2.48.32-5,.66-7.59.83-2.83.2-5.78.35-8.77.46s-5.89.21-8.68.4l-.8.05c-1.17.07-2.37.14-3.55.27l-1.41.13c-1.2.11-2.44.22-3.64.42l-.49.08c-2,.34-4.11.68-6.15,1.23a19.59,19.59,0,0,0-5.53,2.25A8.12,8.12,0,0,0,1,456.52a6.13,6.13,0,0,0-.87,3.2v.11c-.06.61-.06,1.24-.07,1.86v.51c0,.75,0,1.43,0,2.07A37.47,37.47,0,0,0,.61,469l.06.28c.19,1,.39,2,.66,3a13.36,13.36,0,0,0,1,2.68,4.77,4.77,0,0,0,2.73,2.32,14.11,14.11,0,0,0,2.49.51l.27,0c.95.15,1.9.28,2.86.4a79.74,79.74,0,0,0,8,.51l.95,0c2.84.09,5.78.21,8.74.37.82.05,1.63.11,2.45.18l1.69.13c1.5.1,3,.17,4.51.24h.39c2.69.11,5.47.22,8.2.4l2.91.24c1.89.17,3.84.35,5.77.35s3.68-.1,5.43-.18c1.1-.06,2.21-.11,3.31-.15.63,0,1.26,0,1.9,0h2.74l4.33,0a139.86,139.86,0,0,0,17.55-.87c2.11-.29,4.22-.74,6.2-1.18,2.15-.48,4.33-.82,6-1.07,1.44-.18,2.88-.35,4.33-.51s2.9-.22,4.32-.29l1-.05c2.27-.11,4.69-.25,7-.58a10.33,10.33,0,0,0,3.48-.9,4.3,4.3,0,0,0,2.22-2.69,5.71,5.71,0,0,0,.14-1.33v-.15a8.66,8.66,0,0,0-.15-1.6l-.09-.53-.06-.45-.06-.38c-.32-2.77-.46-5.6-.6-8.35-.15-3-.3-6-.69-9.05l-.16-1.31c-.16-1.24-.31-2.48-.5-3.72-.39-2.69-.8-5.46-2.23-7.85a5.85,5.85,0,0,0-2.2-2.1,4.3,4.3,0,0,0-1.83-.51h-.11a8.57,8.57,0,0,0-1.34.13,24.8,24.8,0,0,0-2.86.6l-.1,0c-.73.18-1.45.39-2.18.59l-1.87.52-2.16.57c-2,.53-4,1.08-6.1,1.45a29.34,29.34,0,0,1-3.45.23c-.62,0-1.19,0-1.76-.08a13.73,13.73,0,0,1-1.43-.32l-.07-.13h0c-.66-1.66-1.2-3.37-1.6-4.67-.28-.95-.58-1.9-.88-2.84s-.54-1.74-.8-2.61a77.11,77.11,0,0,1-2.41-11c-.28-2.29-.49-4.62-.69-6.88-.17-2-.35-4.06-.59-6.08-.17-1.5-.46-3-.75-4.48-.14-.74-.28-1.47-.4-2.2l-.3-1.66c-.26-1.48-.53-3-.75-4.52-.25-2.09-.42-4.22-.56-6.21-.07-.92-.09-1.85-.12-2.77v-.66l0-.52a35.78,35.78,0,0,1,.06-4.51,13,13,0,0,1,.52-2.36,8.37,8.37,0,0,1,.49-.87l1,0h1l2.18,0c1.45,0,2.89,0,4.33-.07,2.83-.06,5.45-.2,8-.41l.76-.07c1.2-.1,2.39-.2,3.58-.28s2.18-.11,3.26-.15l1,0c3-.11,6.14-.26,9.19-.45,1.75-.11,3.2-.25,4.56-.44l1.28-.18,1.28-.18a17.53,17.53,0,0,0,5.42-1.68,7.88,7.88,0,0,0,2.22-1.74,5.34,5.34,0,0,0,1.29-2.64,12.14,12.14,0,0,0-.17-4.12l-.1-.65c-.21-1.43-.5-2.9-.76-4.19-.5-2.48-1.1-5.4-1.81-8.31l-.33-1.38a67.85,67.85,0,0,0-1.82-6.63c-.32-.94-.7-1.87-1.11-2.78a12.9,12.9,0,0,0-1.38-2.32,6.45,6.45,0,0,0-2.31-2.11,6.82,6.82,0,0,0-2.56-.77,12.38,12.38,0,0,0-1.36-.06h0c-.43,0-.8,0-1.16,0l-.76,0h-1.06c-1.12,0-2.23,0-3.31-.1l-1.37-.09c-.92-.07-1.84-.13-2.76-.16-1.82-.05-3.67-.06-5.39-.06ZM7.48,472.21l-.42-.1.42.1Z"/><path class="cls-1" d="M190.72,339.46h0c-6.58,0-12.16,4.31-17.07,8.12l-.24.18c-1.34,1-2.39,1.92-3.3,2.77a24.39,24.39,0,0,0-2.93,3.48c-.44.61-.85,1.27-1.24,1.9s-.66,1.07-1,1.59c-.8,1.16-1.62,2.32-2.46,3.47l-1.27,1.7c-1.15,1.55-2.34,3.15-3.44,4.77a73.35,73.35,0,0,0-4.21,7.32c-1.25,2.4-2.59,4.94-4.05,7.34l-.88,1.43c-1.17,1.9-2.38,3.86-3.44,5.87a24.73,24.73,0,0,0-2,4.6c-.14.5-.3,1.1-.42,1.72a9.59,9.59,0,0,0,0,3.21,5.46,5.46,0,0,0,1.29,2.78,9.72,9.72,0,0,0,2.46,1.86,23.14,23.14,0,0,0,6,2.15,42,42,0,0,0,4.44.74h.12a32.47,32.47,0,0,0,4,.31h.16c1,0,2-.1,3-.2l1-.09c1.92-.17,4-.31,6.24-.44l.91-.05c1.73-.1,3.52-.2,5.27-.36,1.94-.17,3.91-.44,5.81-.69l.47-.07,3.12-.38,4.17-.51H191c2.31-.28,4.11-.47,5.8-.59,1.23-.08,2.24-.12,3.16-.12h.11c.85,0,1.75,0,2.92.15a18.84,18.84,0,0,1,3.16.72l.43.28a11.65,11.65,0,0,1,1.3,1.38,9.67,9.67,0,0,1,.89,1.54,31,31,0,0,1,1.43,6,23.47,23.47,0,0,1,.18,4.35,24.17,24.17,0,0,1-1.42,4.58,22.53,22.53,0,0,1-2.41,3.82A24.15,24.15,0,0,1,203.7,429a25.89,25.89,0,0,1-3.9,2.22,30.69,30.69,0,0,1-6.61,2.17c-2.26.22-4.55.23-6.51.23a51.09,51.09,0,0,1-5.72-.38c-1.3-.19-2.6-.39-3.9-.62-.84-.15-1.67-.34-2.51-.53-.52-.13-1-.25-1.57-.36a62.65,62.65,0,0,1-8.35-2.28l-2.57-1c-1.78-.67-3.61-1.36-5.46-1.93l-.36-.11a18.05,18.05,0,0,0-5.11-1l-.75,0a7,7,0,0,0-2.47.62,5.2,5.2,0,0,0-1.89,1.48,12.8,12.8,0,0,0-1.63,2.87c-.6,1.4-1.19,2.8-1.77,4.21l-.27.64c-.52,1.2-1.07,2.4-1.61,3.59-.71,1.54-1.41,3.07-2.07,4.63l0-.08-.41.89c-.47,1.07-.94,2.14-1.37,3.22a16.68,16.68,0,0,0-1,4.22c-.14,1.16-.23,2.37-.28,3.81v.24c0,.68,0,1.37,0,2.05a4.77,4.77,0,0,0,1.23,3.11,7.8,7.8,0,0,0,2.67,1.82,32.19,32.19,0,0,0,9.72,2l1,.09c1.19.11,2.38.21,3.57.29,1.6.09,3.2.19,4.81.27l1,.05c.86,0,1.74.09,2.6.09h.55c2.14-.05,4.28-.14,6.42-.23l3-.12c3-.1,6-.16,8.94-.21,6-.12,11.88-.27,17.67-.89,1.5-.16,3-.45,4.46-.73l.33-.06a23.55,23.55,0,0,0,5.47-2c1.22-.56,2.48-1.21,3.73-1.94l.7-.41c1.09-.63,2.21-1.27,3.29-1.95,1.38-.86,2.75-1.73,4.11-2.63,2.49-1.62,5.13-3.37,7.56-5.27l.86-.67.86-.68a26.18,26.18,0,0,0,3.73-3.56l.19-.22,2.79-3.24c2.2-2.58,4.11-4.91,5.84-7.13l.27-.34a34.7,34.7,0,0,0,2.5-3.5,18.36,18.36,0,0,0,2-4.75,34.57,34.57,0,0,0,.84-4.44,73,73,0,0,0,.88-9.24,17.39,17.39,0,0,0-1.83-8.52,23.76,23.76,0,0,0-2.86-4.09,21.89,21.89,0,0,0-3.06-2.92l-.4-.31c-.31-.25-.62-.5-.94-.73a18.78,18.78,0,0,0-2.28-1.41c-.58-.32-1.18-.6-1.78-.88l-.72-.34c-2.35-1.12-4.93-2.18-8.34-3.44-1.39-.51-2.77-1-4.15-1.58s-2.49-1-3.75-1.43c-2.75-1-5.57-1.92-8.38-2.68-1.36-.37-2.71-.73-4.08-1.06a41,41,0,0,0-4.78-.83c-1.63-.2-3-.36-4.42-.43-.8-.05-1.58-.07-2.38-.09h-1.6c-.43,0-.86,0-1.28,0-.22,0-.43-.1-.64-.16l-.34-.18v-.21a4.89,4.89,0,0,1,.21-.72,11.43,11.43,0,0,1,.89-1.51,22.21,22.21,0,0,1,2.33-2.45,9.18,9.18,0,0,1,1.48-.84,35.66,35.66,0,0,1,7-1.75,20.44,20.44,0,0,1,2.4-.18c.84,0,1.63,0,2.41.13a16.09,16.09,0,0,1,2.63.75,19.88,19.88,0,0,1,3,1.85l1.27,1.09a20.48,20.48,0,0,0,2.79,2.18,14.24,14.24,0,0,0,2.14,1l.23.09.72.26c.8.25,1.53.45,2.24.61a46.89,46.89,0,0,0,4.64.76l.15,0a36.12,36.12,0,0,0,4.29.34h.17a5.06,5.06,0,0,0,2.54-.72,7.46,7.46,0,0,0,2.08-2.14c.46-.66.93-1.35,1.41-2.13.73-1.21,1.43-2.44,2.12-3.66l.1-.17.31-.54c.54-.95,1.08-1.9,1.63-2.84a24.74,24.74,0,0,0,2.25-4.52,8.17,8.17,0,0,0,.35-1.93,7.1,7.1,0,0,0,0-1.46,10.5,10.5,0,0,0-.53-2.55,12.48,12.48,0,0,0-.69-1.54,8.65,8.65,0,0,0-2.67-3,17.85,17.85,0,0,0-2-1.29,10.73,10.73,0,0,0-1.85-.76l-.29-.1c-1.17-.41-2.39-.72-3.58-1l-1-.26c-1.1-.28-2.24-.49-3.31-.69l-3.09-.54-4.06-.71-.78-.14a40.31,40.31,0,0,1-5.47-1.23,2,2,0,0,0-.09-.58,2.61,2.61,0,0,0-1.26-1.64l-.25-.11c-1.76-.8-3.59-1.62-5.43-2.3-1.31-.47-2.65-.86-3.8-1.17l-1-.28c-1-.28-2.06-.57-3.1-.79a60.69,60.69,0,0,0-9.39-1.35c-.26,0-.53,0-.79,0Z"/><path class="cls-1" d="M375.05,352.27a51.12,51.12,0,0,0-5.94.46l-1.93.22-3.35.35a2.41,2.41,0,0,0-1.65-.7H362c-1.71.14-3.41.28-5.11.46a18.74,18.74,0,0,0-4.76,1,20.63,20.63,0,0,0-5.64,3.58,87.13,87.13,0,0,0-9.27,9.36l-1.42,1.58c-.78.86-1.51,1.79-2.21,2.69l-.07.08c-1.4,1.78-2.77,3.64-4,5.53a80.79,80.79,0,0,0-6.1,10.87c-.52,1.08-1,2.2-1.46,3.29-.21.48-.41,1-.63,1.45l-.31.73c-.44,1-.88,2-1.28,3-1.44,3.71-2.58,6.73-3.6,9.49l-.45,1.22c-.79,2.12-1.6,4.32-2.29,6.51-.48,1.53-.93,3.06-1.37,4.6-.14.52-.24,1.06-.34,1.59,0,.26-.09.53-.14.79-.15.69-.24,1.4-.33,2.08l0,.25c-.24,1.83-.41,3.33-.52,4.72-.14,1.57-.25,3.14-.35,4.71-.26,4.2-.1,8.47,0,12.61.06,1.55.11,3.11.15,4.66,0,.76,0,1.51,0,2.27.09,5.31.18,10.81,1.89,15.93a14.32,14.32,0,0,0,1.9,3.94,21.72,21.72,0,0,0,4.87,4.59,51.72,51.72,0,0,0,5.15,3.23,65.45,65.45,0,0,0,6,2.95c3,1.33,6.13,2.48,9.84,3.8,1.06.38,2.26.74,3.76,1.15l.35.09c.73.21,1.47.41,2.21.6a17.46,17.46,0,0,0,4.28.49c.74,0,1.53,0,2.4-.12,3.7-.32,7.42-.78,10.25-1.15,1.69-.22,3.3-.48,4.79-.79l1.32-.27a21.08,21.08,0,0,0,2.94-.9c.69-.25,1.38-.54,2.06-.82l.67-.28.18-.08a66.24,66.24,0,0,0,8-3.74c1.72-1,3.42-2,5.13-3.05l2.62-1.56,1.35-.8c2-1.16,4-2.36,6-3.6l.26-.16a71,71,0,0,0,8.05-5.59,10.65,10.65,0,0,0,1.41-1.5,17.27,17.27,0,0,0,1.6-2.31,40.25,40.25,0,0,0,2.13-4.35c0-.08.07-.16.1-.23a40.58,40.58,0,0,0,2.44-7.65,20.64,20.64,0,0,0,.37-6,44.43,44.43,0,0,0-.71-5,24.53,24.53,0,0,0-2.49-6.23l-.27-.53c-.24-.47-.48-.94-.74-1.4s-.41-.7-.61-1.06a19.46,19.46,0,0,0-1.94-2.74,27.35,27.35,0,0,0-1.91-2l-.59-.57c-.47-.46-1-.91-1.46-1.35a47.71,47.71,0,0,0-3.78-2.93l-1-.73c-.89-.73-1.93-1.6-2.93-2.57-.81-.8-1.6-1.63-2.39-2.45l-.5-.52-.63-.65c-1.76-1.85-3.58-3.75-5.51-5.47a30.29,30.29,0,0,0-2.47-2,9.16,9.16,0,0,0-2-1l-.45-.18c-.39-.16-.78-.3-1.17-.43l-.35-.12a23.52,23.52,0,0,0-4.7-1c-.75-.09-1.49-.17-2.24-.22-.37,0-.74,0-1.1,0a22.45,22.45,0,0,0-3,.22,21.6,21.6,0,0,0-3.28.68,19.72,19.72,0,0,0-3.44,1.54c-.54.29-1.06.64-1.55,1a11.42,11.42,0,0,0-2.58,2.21c-1.43,1.79-1.91,4.11-2.37,6.36-.09.4-.17.8-.26,1.2-.61,2.74-1.13,5.56-1.64,8.28l-.07.36-.05.26a14.12,14.12,0,0,0-.34,4.76,5.47,5.47,0,0,0,1.18,2.62,5,5,0,0,0,2.37,1.51,4.81,4.81,0,0,0,1.54.21c.27,0,.54,0,.79,0l.67,0,.62-.05,2.2-.14c2.22-.13,4.48-.2,6.66-.27l1.66,0c1.07,0,2.15-.16,3.19-.28l.94-.1.34,0c1-.1,2.05-.21,3.08-.21l1,0,.78.21.45.25a6.27,6.27,0,0,1,.5.88,29.6,29.6,0,0,1,1.44,5.2,20.11,20.11,0,0,1,.11,3.88,12.35,12.35,0,0,1-.44,1.72,5.24,5.24,0,0,1-.45.76,15.89,15.89,0,0,1-1.77,1.68,19,19,0,0,1-3.11,1.73c-2.38.9-4.75,1.68-7.17,2.48-1.06.35-2.19.71-3.33,1s-2.14.48-3.44.7c-1.57.19-3.19.33-4.94.42h-.72c-.6,0-1.2,0-1.79-.06-1-.05-1.89-.11-2.72-.21a17.38,17.38,0,0,1-3.33-.92l-.62-.25-.16-.07.19.1a24.34,24.34,0,0,1-4-2.43c-1.15-1-2.2-2-3-2.85s-1.41-1.61-2.08-2.43l-.42-.53a22.47,22.47,0,0,1-1.77-2.63,31.06,31.06,0,0,1-1.49-3.07l-.21-.53-.21-.52a20.39,20.39,0,0,1-1-3.5c-.1-.54-.18-1.09-.27-1.64l-.08-.56c-.07-.63-.15-1.25-.23-1.88a22.68,22.68,0,0,1-.07-5.19,27.57,27.57,0,0,1,1.25-5.6,29.54,29.54,0,0,1,3.4-5.2c1.09-1.35,2.2-2.69,3.3-4,2-2.46,4.15-5,6.1-7.63l1.4-1.77q2.64-3.36,5.3-6.69c1.29-1.62,2.32-2.84,3.33-4a29.82,29.82,0,0,1,3.62-3.34,13.82,13.82,0,0,1,2.29-1.41,21,21,0,0,1,3.48-.89,15.61,15.61,0,0,1,1.83-.13h.11c.78,0,1.59.06,2.53.16s1.91.33,2.76.52a23.4,23.4,0,0,1,2.74.83c1.39.49,2.75,1.05,4.06,1.59l1.27.52c1.27.54,2.41,1,3.48,1.38l1.49.52c.79.27,1.57.54,2.35.84a36,36,0,0,1,4.44,2.6l1.11.74.44.29c.49.33,1,.65,1.48,1a3.84,3.84,0,0,0,1.73.51h.28a3.49,3.49,0,0,0,1.94-.47,6.69,6.69,0,0,0,1-.88,8.17,8.17,0,0,0,.78-1.05l.06-.09a12.75,12.75,0,0,0,1.08-2.23l.13-.32a21.82,21.82,0,0,0,.91-2.63,30.31,30.31,0,0,0,.91-4.72,36,36,0,0,0,.26-4.73,17,17,0,0,0-1-5.29,14.92,14.92,0,0,0-1.76-3.58l-.11-.16a20.36,20.36,0,0,0-1.42-1.93c-.37-.42-.73-.85-1.12-1.25a12.81,12.81,0,0,0-1.19-1l-.17-.14c-1.12-.9-2.35-1.82-3.75-2.82a25.41,25.41,0,0,0-4-2.44,31.05,31.05,0,0,0-4.9-1.66l-.29-.08-.11,0-.1,0a2.63,2.63,0,0,0,.37-1.35,2.79,2.79,0,0,0-2.74-2.76h-.23c-.41,0-.81,0-1.21-.05l-1.64-.28-2.15-.35a39.16,39.16,0,0,0-4.77-.4Z"/><path class="cls-1" d="M471.85,361.26h-.91a81.78,81.78,0,0,0-9.31,1l-.15,0c-1.54.23-3.08.57-4.57.91-1,.21-1.92.43-2.89.61l-4.39.82c-1,.18-2,.31-2.95.45l-.25,0c-1.92.21-3.88.45-6,.75a24.17,24.17,0,0,0-2.48.5l-1.42.34-1.42.34a2.61,2.61,0,0,0-.84-.4,2.8,2.8,0,0,0-3.39,1.93c-.38,1.54-.75,3.09-1.11,4.64l-.17.72c-.1.43-.18.87-.25,1.32,0,.22-.07.45-.11.67l-.1.52c-.12.65-.25,1.32-.32,2l-.18,1.39c-.12,1-.25,2-.32,3l-.17,2.53L428,387.9c-.08,1.08-.09,2.18-.11,3.25,0,.54,0,1.08,0,1.63,0,1.05,0,2.13,0,3.17v.76l0,.68c0,1.08,0,2.15.1,3.22l.14,2.58.13,2.45c.28,5,.62,11.57.78,18.26.07,3,.11,6,.14,9,0,2.1-.08,4.24-.18,6.31,0,.72-.07,1.44-.1,2.15-.14,3.38-.23,6.42-.28,9.29,0,2.31,0,5.35.08,8.36s.4,5.82.81,9.05c.33,2.54.64,5.27,1,8.84.1,1,.22,2,.34,3l.05.44c0,.21.05.43.06.64a5.14,5.14,0,0,0,.26,1.5,2.89,2.89,0,0,0,.71,1.22,4,4,0,0,0,1.07,1,3.47,3.47,0,0,0,1,.46l.15,0,.15,0a3.14,3.14,0,0,0,.74.1,3.06,3.06,0,0,0,.73-.1,3.13,3.13,0,0,0,.82-.26,4.54,4.54,0,0,0,.68.55l.26.19a4.79,4.79,0,0,0,2.08.69c.71.12,1.41.25,2.12.39,1.4.29,2.77.57,4.16.77s2.53.42,3.78.65l.3.05,1.32.22a24,24,0,0,1,2.88.57c.95.26,1.9.57,2.82.88l1.46.48c.52.16,1,.34,1.55.52l.37.12a7.66,7.66,0,0,0,.94.25l.17,0a8.62,8.62,0,0,0,1.89.26,3.85,3.85,0,0,0,1.3-.2,3.57,3.57,0,0,0,2.21-2.27,6.29,6.29,0,0,0,.24-2.73c-.06-.69-.16-1.39-.26-2.06l-.11-.79c-.17-1.24-.37-2.48-.58-3.72l-.18-1.06c-.44-2.7-.82-5.45-1.18-8.12l-.1-.73c-.23-2-.49-4.28-.68-6.65-.09-1.13-.15-2.12-.18-3,0-.1,0-.2,0-.3.44.74.92,1.47,1.41,2.19,1.46,2.13,3,4.27,4.45,6.34l.41.59,1.14,1.58c.46.63.92,1.25,1.36,1.89l.73,1.05c.58.83,1.15,1.66,1.74,2.47.8,1.08,1.86,2.5,3,3.87l.28.32a14.37,14.37,0,0,0,2.07,2.13,10.28,10.28,0,0,0,2.81,1.63,6.5,6.5,0,0,0,2.24.37,5,5,0,0,0,.55,0,23.05,23.05,0,0,0,4.47-.92l.23-.06c1.17-.32,2.33-.63,3.5-.93a49.25,49.25,0,0,0,7.82-2.62l.22-.09a11.21,11.21,0,0,0,3-1.74,4.77,4.77,0,0,0,1.25-1.92,3.4,3.4,0,0,0,.22-.82,5,5,0,0,0,0-1.77,8.87,8.87,0,0,0-.54-1.89l-.16-.46-.16-.46c-.18-.51-.36-1-.53-1.53-.25-.72-.51-1.43-.78-2.14l-.48-1.29c-.3-.83-.57-1.5-.85-2.13-.2-.45-.41-.91-.64-1.36a10.19,10.19,0,0,0-.86-1.35,3.07,3.07,0,0,0-.33-.45,2.59,2.59,0,0,0-.32-.42l-.41-.51-1.3-1.53c-.57-.66-1.14-1.32-1.69-2-.93-1.33-1.85-2.7-2.73-4-.62-.93-1.24-1.87-1.87-2.8-1.48-2.17-3.22-4.75-4.93-7.4-1.08-1.68-2.13-3.42-3.15-5.1q-.82-1.36-1.65-2.7a42.73,42.73,0,0,0-2.68-3.83,41.93,41.93,0,0,0-4.2-4.78c-.42-.41-.85-.8-1.28-1.2l-.65-.6a15.48,15.48,0,0,1-1.11-1.18,20.16,20.16,0,0,1,2.16-.67l.89-.24c1.17-.32,2.45-.6,4-.88l1.45-.25c.91-.15,1.82-.3,2.73-.48,1.32-.26,2.69-.6,4.17-1s2.91-.9,4.27-1.36a41.61,41.61,0,0,0,4.16-1.78l.39-.19a25.83,25.83,0,0,0,8.14-6.64l.35-.42c.51-.61,1-1.22,1.49-1.84a23.19,23.19,0,0,0,3.36-5.77,17.63,17.63,0,0,0,.92-7.51c-.18-3.15-.64-6.31-1.08-9.37a28,28,0,0,0-.59-2.81,18.19,18.19,0,0,0-1-2.68,8.88,8.88,0,0,0-2.52-3.05,35.18,35.18,0,0,0-3.56-2.62c-2.26-1.47-4.64-2.74-7-4s-4.95-2.5-7.53-3.6a61.61,61.61,0,0,0-8.71-2.79,32.77,32.77,0,0,0-8.25-1Zm-8.76,39.45q-.66,0-1.32-.06a11.19,11.19,0,0,1-1.54-.38,2.86,2.86,0,0,1-.42-.24l-.28-.27c-.11-.19-.22-.38-.31-.57l-.07-.22c0-.3,0-.61,0-.91a33,33,0,0,1,1.07-4.27l.21-.64c.15-.49.31-1,.49-1.46.25-.65.51-1.29.76-1.93s.73-1.57,1.1-2.35l.63-.11.63-.13a24.34,24.34,0,0,1,3.29-.28l.89,0a13,13,0,0,1,2,.66,12.56,12.56,0,0,1,2.09,1.19l.62.47.13.11-.28-.24A26.37,26.37,0,0,1,476,392a8.52,8.52,0,0,1,.65,1.07,4.42,4.42,0,0,1,.15.48v.28a3.22,3.22,0,0,1-.28.24c-.7.54-1.41,1.06-2.11,1.59l-1,.75-.44.33a24.71,24.71,0,0,1-4.25,2.79,22.5,22.5,0,0,1-4,1.09c-.57.05-1.09.08-1.6.08Z"/><path class="cls-1" d="M569.5,359.57H569a70.09,70.09,0,0,0-7.42.32c-1.4.14-2.81.26-4.2.33-.79,0-1.57.1-2.35.17l-1.75.13h-.23c-2.7.18-5.49.36-8.23.66l-2.68.28-1,.1a3.31,3.31,0,0,0-1.24-.22,10.52,10.52,0,0,0-1.84.23l-.51.09-1.86.34h-.15c-.46,0-.93.06-1.4.11l-.28,0a7.92,7.92,0,0,0-1.89.38,3.47,3.47,0,0,0-1.27.78l-1.15.39a2.64,2.64,0,0,0-.88.39,2.54,2.54,0,0,0-1,1,2.76,2.76,0,0,0-.27,2.12l0,1.61c.06,2.58.11,5.24.27,7.86s.44,5.24.72,7.78l.08.81c.31,2.84.46,5.75.6,8.56l0,.58c.17,3.27.24,6.5.29,8.94.06,3.18,0,6-.16,8.52-.11,1.56-.26,3.12-.4,4.68s-.27,2.82-.38,4.23c-.38,5.42-.61,11.19-.68,17.65,0,2.91-.06,5.82-.07,8.74v2.8c0,2,0,4.08,0,6.12,0,2.66-.18,5.49-.39,8.92-.1,1.67-.27,3.35-.43,5-.12,1.18-.24,2.36-.34,3.53l0,.25a61.5,61.5,0,0,0-.28,8.38,6.54,6.54,0,0,0,1.27,4.07c1.4,1.65,3.7,2.22,5.74,2.63a62,62,0,0,0,6.46.83l1.42.14,2,.2c2,.2,4.17.42,6.26.56,2.8.19,5.86.34,9.37.47l1.84.05c2,.06,4.06.12,6.07.34,1.07.17,2.13.38,3.2.59q1.15.24,2.31.45c1.62.28,3.28.52,5.08.71a17.55,17.55,0,0,0,1.82.08c.73,0,1.51,0,2.52-.11,1.57-.12,2.88-.18,4.11-.19H586l1.13,0h1.13a5.69,5.69,0,0,0,4.88-2.48,15.29,15.29,0,0,0,1.24-2.64,18.86,18.86,0,0,0,.83-2.63c.25-1,.42-2,.59-3l.09-.5c.43-2.46.8-5,1.17-7.4l.16-1.09c.38-2.49.91-5.1,1.73-8.46.15-.62.32-1.24.49-1.85s.38-1.41.55-2.11a49,49,0,0,0,.92-4.88,10.33,10.33,0,0,0,.07-2,6.16,6.16,0,0,0-.87-2.75c-1.1-1.88-3.2-2.46-5.11-2.79-1.49-.25-3-.45-4.51-.64l-.29,0c-2.92-.37-5.9-.63-8.88-.78-2.33-.11-4.42-.17-6.38-.17s-3.77.06-5.55.17a52.31,52.31,0,0,0-6.17.74c-1,.19-1.88.35-2.73.58-.43.11-.85.24-1.27.38s-1.11.34-1.67.47l-.16-.18a11.75,11.75,0,0,1-.83-1.49,38.24,38.24,0,0,1-2.32-7.6c0-.23,0-.46,0-.68l.49-.12q1-.06,2.16-.06c2.21,0,4.39.18,6.8.41,1.53.13,2.87.24,4.12.31l2.2.09h.64a8.71,8.71,0,0,0,1.89-.17,5.83,5.83,0,0,0,3-1.85,14.24,14.24,0,0,0,1.62-2.26,14.73,14.73,0,0,0,1.16-2.29,22.94,22.94,0,0,0,1-2.82,29.78,29.78,0,0,0,.76-4l.28-1.86c.13-.88.26-1.75.38-2.63a8.78,8.78,0,0,0-.57-5.47,6.15,6.15,0,0,0-2-2.15,11.68,11.68,0,0,0-2.63-1.36,11.44,11.44,0,0,0-1.61-.48,4.11,4.11,0,0,0-.46-.15,14.49,14.49,0,0,0-2.17-.38c-.92-.1-1.84-.12-2.74-.13l-1.33,0H567a13.39,13.39,0,0,0-3,.48l-1,.23-.14,0c-1.22.27-2.49.55-3.75.76h-.49l-.11,0-.08-.05,0-.05a9.26,9.26,0,0,1-.65-1.14,19.05,19.05,0,0,0-.45-2.25c-.18-.68-.32-1.29-.42-1.84a20.44,20.44,0,0,1,.07-3.79c.1-.5.19-.89.3-1.26l.2-.18a12,12,0,0,1,1.75-1,30,30,0,0,1,4-1l.26-.05,1.36-.29c1-.22,2.1-.45,3.15-.62a35.94,35.94,0,0,1,3.85-.16h7.56a12.89,12.89,0,0,1,1.75.42,10.58,10.58,0,0,1,1.14.43,6.28,6.28,0,0,0,2.32.66h.11a6.7,6.7,0,0,0,1.51-.19,4.26,4.26,0,0,0,1.82-1.17,5.94,5.94,0,0,0,.72-.87l.23-.32a7,7,0,0,0,.69-1.22l.11-.22a19.44,19.44,0,0,0,1.58-6.25h0l.06-.5c.38-2.76.77-5.62.92-8.45a40.1,40.1,0,0,0-.54-9.18,14.53,14.53,0,0,0-2.48-6,10.86,10.86,0,0,0-4.92-3.65c-.83-.32-1.54-.56-2.23-.77a30,30,0,0,0-4-.95c-1.14-.18-2-.29-2.87-.36-.64-.06-1.29-.08-1.94-.1l-.47,0-1.07,0a2.76,2.76,0,0,0-2.28-1.22Z"/><path class="cls-1" d="M364.58,351.43c-1.65.09-3.32.25-4.95.49a17.57,17.57,0,0,0-2.38.47A12.92,12.92,0,0,0,354,354a2.75,2.75,0,1,0,2.77,4.75c.55-.32,1.1-.65,1.68-.94a15,15,0,0,1,2.11-.48,45.09,45.09,0,0,1,9.78-.31,49.72,49.72,0,0,0,5.31.68c1.44.1,2.9.2,4.34.35.62.11,1.23.26,1.85.4a20,20,0,0,0,2,.35,15.74,15.74,0,0,1,3.39.78l1.61.75a9.8,9.8,0,0,1,1.77,1.09l.45.34c.09.22.19.44.28.65a3.28,3.28,0,0,0,1.07,1.06l.37.22c.17.36.32.72.5,1.07a12.48,12.48,0,0,0,1.69,2.33c.5.56,1,1.08,1.57,1.61s.91.86,1.33,1.32c.2.31.38.63.58.94a6.72,6.72,0,0,0,1.2,1.66,2.79,2.79,0,0,0,1.22.71,2.73,2.73,0,0,0,1,.08,24.5,24.5,0,0,1,.91,3.14,12.73,12.73,0,0,1,.05,2.47,2.71,2.71,0,0,0,2,3.11,2.76,2.76,0,0,0,2.12-.28,2.65,2.65,0,0,0,1.27-1.64,14.61,14.61,0,0,0,.2-2.38,17,17,0,0,0-.15-1.74,14.57,14.57,0,0,0-.41-2.09c-.14-.46-.29-.91-.44-1.36-.27-.86-.52-1.73-.83-2.59a19.35,19.35,0,0,0-1.33-3.19,13.52,13.52,0,0,0-1.84-2.4c-.66-.7-1.28-1.44-2-2.1a20.25,20.25,0,0,0-3.24-2.52,14.82,14.82,0,0,0-1.54-.78l-.63-.29a20,20,0,0,0-2.06-1.67,12.27,12.27,0,0,0-1.95-1.34c-.73-.38-1.5-.71-2.25-1a14.2,14.2,0,0,0-2.75-.95c-.77-.15-1.54-.26-2.31-.36h0c-.92-.14-1.81-.36-2.72-.57a20.88,20.88,0,0,0-3.26-.39c-1.79-.12-3.58-.26-5.36-.46a41.12,41.12,0,0,0-4.28-.58l-1.57,0c-1,0-2,0-3,.09Zm29.76,5.89.16.12-.16-.12Z"/><path class="cls-1" d="M475.26,290.7a2.78,2.78,0,0,0-1.92,3.38c.18.74.34,1.48.46,2.23.13,1.13.25,2.28.32,3.42s0,2.27,0,3.41c0,.93-.19,1.92.37,2.76a4.7,4.7,0,0,0,.92,1.07l.55.43,1,.43.43.09c.37.06.74.1,1.11.13a6.37,6.37,0,0,0,1.58-.15,24.62,24.62,0,0,0,3.87-1.06c2.24-.77,4.43-1.7,6.67-2.48,1.25-.43,2.54-.85,3.82-1.2s2.47-.61,3.7-1c2-.57,3.92-1.21,5.84-1.95.91-.34,1.84-.62,2.75-1,.6-.23,1.19-.47,1.77-.75a5.42,5.42,0,0,0,2-1.85,2.77,2.77,0,0,0-1-3.77,2.81,2.81,0,0,0-2.12-.28,2.68,2.68,0,0,0-1.46,1c-.14.08-.28.16-.43.23-.9.34-1.82.61-2.72,1-1.17.44-2.34.86-3.53,1.24s-2.46.79-3.71,1.11-2.31.57-3.45.92-2.34.72-3.49,1.15-2.1.8-3.16,1.19a46.88,46.88,0,0,1-5.9,2v-.56a20.87,20.87,0,0,0,0-2.5,41.33,41.33,0,0,0-1-6.73,2.75,2.75,0,0,0-2.68-2,2.42,2.42,0,0,0-.7.1Z"/><path class="cls-1" d="M655.15,372h-.1a10.54,10.54,0,0,0-3,.52,14.72,14.72,0,0,0-5.14,3.18c-1.13,1-2.19,2.12-3.2,3.21l-.13.13c-.34.36-.66.75-1,1.14l-.46.56q-.63.74-1.23,1.5-1.5,1.86-2.95,3.75c-.89,1.16-1.82,2.41-2.84,3.83a20.69,20.69,0,0,0-2.06,3.42,58.17,58.17,0,0,0-3.31,8.5l-.38,1.29c-.69,2.36-1.4,4.8-2,7.22-.74,2.83-1.5,5.77-2.15,8.72s-1.32,5.95-1.75,9c-.74,5.35-1.31,11.09-1.84,18.62-.12,1.63-.21,3.26-.29,4.9a35.82,35.82,0,0,0,0,4.13,34.33,34.33,0,0,0,.53,4.7,30.84,30.84,0,0,0,1.14,4.1l1,2.73c.67,1.87,1.34,3.74,2,5.62l.3.9a38.37,38.37,0,0,0,3,7.35,21.47,21.47,0,0,0,2.83,3.89,42.63,42.63,0,0,0,3.14,3,28.88,28.88,0,0,0,7.82,5,85.79,85.79,0,0,0,8.21,2.66,32.66,32.66,0,0,0,3.65.71l.71.11a30.28,30.28,0,0,0,4.72.37h.77l2.1-.09.84-.05,1.25-.06c2.36-.11,4.8-.22,7.19-.44a80.43,80.43,0,0,0,9.18-1.31c2.66-.53,5.68-1.15,8.6-2a27.16,27.16,0,0,0,6-2.63,26,26,0,0,0,4.41-3.13,12.46,12.46,0,0,0,1.85-2.23l.12-.17c.3-.42.57-.86.85-1.29.44-.71.87-1.4,1.26-2.13a44.64,44.64,0,0,0,2.2-4.7,26.06,26.06,0,0,0,1.22-3.79c.32-1.29.7-2.83,1-4.36.28-1.32.58-2.73.77-4.12l.08-.58c.14-1,.28-2,.35-3a21.74,21.74,0,0,0-.37-4.77l0-.11a46,46,0,0,0-2.25-8.06l0-.11c-.37-1.08-.8-2.17-1.23-3.22l-.23-.58c-.25-.61-.48-1.23-.71-1.85-.32-.84-.63-1.68-1-2.5a17.09,17.09,0,0,0-1.46-2.84c-.4-.6-.86-1.18-1.31-1.74l-.42-.53a17.94,17.94,0,0,0-3.45-3.3,27.35,27.35,0,0,0-3.54-2.25l-1.34-.71c-.82-.44-1.64-.87-2.44-1.33-1.21-.71-2.5-1.47-3.74-2.26a33.56,33.56,0,0,0-3.6-2,30.58,30.58,0,0,0-4.67-1.77,44.41,44.41,0,0,0-7.17-1.13h-.28a6.94,6.94,0,0,0-2.47.46,6.46,6.46,0,0,0-2.7,2,17.77,17.77,0,0,0-2.67,4.76,21,21,0,0,0-.86,3.05l-.05.24a41.35,41.35,0,0,0-.66,4.28l-.12,1-.28,2-.42,3.07a7.72,7.72,0,0,0,.51,4.91,7.11,7.11,0,0,0,5.17,3.31,41.17,41.17,0,0,0,5.17.48l1.75,0,.87,0c.59,0,1.17.07,1.86.15a26.25,26.25,0,0,1,4.56,1.28c.16.08.31.16.47.26s.25.24.37.37.31.54.45.82a10.14,10.14,0,0,1,.34,1.29,16.4,16.4,0,0,1-.05,3,22.43,22.43,0,0,1-.85,3.16,18,18,0,0,1-1.45,2.66,10.57,10.57,0,0,1-1.11,1.11,9,9,0,0,1-.87.46,26.42,26.42,0,0,1-4,1.2c-1.29.27-2.58.47-3.78.65-.92.1-1.86.21-2.8.24h-.77c-.75,0-1.52,0-2.35-.09a34.92,34.92,0,0,1-6.95-1.89,18.34,18.34,0,0,1-3.21-1.91,16.12,16.12,0,0,1-2.07-2.06,49.26,49.26,0,0,1-3.75-5.85c-.92-1.68-1.84-3.53-2.91-5.8-.37-1-.67-1.83-.91-2.72s-.44-1.84-.61-2.86c-.06-.66-.11-1.32-.13-2a16.72,16.72,0,0,1,.09-1.87,27.38,27.38,0,0,1,.67-3.15,29.34,29.34,0,0,1,1.09-3.16c.58-1.24,1.14-2.36,1.71-3.44s1.17-2,1.78-2.9l.51-.77c1.35-2.1,2.83-4.22,4.39-6.3l.09-.12c.33-.41.66-.82,1-1.21a16.73,16.73,0,0,1,2-1.94,21.62,21.62,0,0,1,3.59-2.16,37.31,37.31,0,0,1,7.61-1.83,27.63,27.63,0,0,1,2.78-.23h.26c1,0,1.94,0,2.87.14a12.44,12.44,0,0,1,2.09.51,40.13,40.13,0,0,1,3.8,2.12l.9.54c.67.4,1.33.8,2,1.22l.09.06a8,8,0,0,0,4,1.65h0a5.06,5.06,0,0,0,1.28-.17,4.42,4.42,0,0,0,1.74-1.06,5.07,5.07,0,0,0,.67-.82l.18-.25c.31-.42.6-.85.89-1.29L693.5,412c.87-1.32,1.81-2.59,2.62-3.65l.35-.45c.77-1,1.57-2,2.25-3a20.16,20.16,0,0,0,2.12-4.23c1.7-4.62,1.55-9.35-.41-13a8.91,8.91,0,0,0-1.57-2,7.1,7.1,0,0,0-.64-.59,25.54,25.54,0,0,0-2.21-1.62,32,32,0,0,0-3.76-2c-.89-.42-1.78-.82-2.68-1.21l-1.15-.51a26.68,26.68,0,0,0-4.34-1.53c-1.68-.42-3.41-.73-5.09-1-1-.18-2.1-.37-3.14-.59a31.65,31.65,0,0,1-3.63-1c-.69-.24-1.37-.5-2.06-.76s-1.53-.59-2.31-.84a2.24,2.24,0,0,0-.73-.12,2.79,2.79,0,0,0-1.61.55,2.53,2.53,0,0,0-.56-.25c-1.5-.47-3.24-1-5-1.51-.57-.16-1.2-.3-2-.45a15.64,15.64,0,0,0-2.83-.28Z"/><path class="cls-1" d="M796.2,338.3h-.13c-2.65,0-5.45.17-8.56.47l-.28,0a58.82,58.82,0,0,0-10.36,1.65,26,26,0,0,0-6,2.79c-1.3.77-2.58,1.56-3.87,2.37-1.11.7-2.17,1.48-3.41,2.44-1.49,1.14-2.6,2.05-3.59,2.95-1.26,1.15-2.35,2.21-3.34,3.23a41.85,41.85,0,0,0-3.23,3.9,48.65,48.65,0,0,0-4.3,7.23,2.6,2.6,0,0,0-.36.3,3,3,0,0,0-.8,1.95l-.18,1.52-.16,1.34a1.82,1.82,0,0,0-.26.66c-.1.58-.26,1.16-.4,1.72s-.26,1-.36,1.49a27.12,27.12,0,0,0-.49,3.35,18.71,18.71,0,0,0,0,2v.39a15.78,15.78,0,0,0,2.38,8.08,6.13,6.13,0,0,0,1.91,2,12.45,12.45,0,0,0,2,1l1.1.45a15.38,15.38,0,0,1,1.79.94c.32.2.63.4.93.61s.85.57,1.29.83a10.22,10.22,0,0,0,2.56,1.11,3.24,3.24,0,0,0,.89.12,3.89,3.89,0,0,0,1.31-.24,4.3,4.3,0,0,0,1.84-1.34,11.63,11.63,0,0,0,1.25-2.07c.16-.32.33-.64.51-1,.39-.69.8-1.37,1.2-2,.5-.83,1-1.66,1.47-2.51a40.66,40.66,0,0,1,2.76-4.41,38.35,38.35,0,0,1,4.58-4.61,35.9,35.9,0,0,1,6.72-3.92,11.65,11.65,0,0,1,2.07-.6l.59-.1c1.13-.11,2.18-.16,3.24-.16a25.8,25.8,0,0,1,3.35.27,42.15,42.15,0,0,1,8.05,2,27.82,27.82,0,0,1,2.73,1.35c.81.47,1.6,1,2.43,1.57a10.39,10.39,0,0,1,3.16,4.12,17.72,17.72,0,0,1,.88,3.1,11.87,11.87,0,0,1,0,1.79,12,12,0,0,1-.61,2.22,23.78,23.78,0,0,1-2.3,4,16,16,0,0,1-1.84,1.85,26.91,26.91,0,0,1-4.68,2.73,34.11,34.11,0,0,1-3.51,1.24c-1.33.37-2.72.71-4.26,1l-1.78.37c-2.18.45-4.43.92-6.6,1.55a29.43,29.43,0,0,0-2.81,1l-.95.39c-1.54.61-3,1.24-4.33,1.85l-.27.13c-.58.26-1.15.53-1.71.8a16.52,16.52,0,0,0-1.95,1.11,18,18,0,0,0-3,2.46,12.9,12.9,0,0,0-2.53,3.9,10.83,10.83,0,0,0-.92,3.26c-.06.55-.09,1.09-.13,1.65s0,1.28,0,1.92v.35c0,1.43,0,2.87-.06,4.3,0,2.94-.14,5.88-.26,8.72-.05,1.12-.11,2.23-.17,3.35l0,.84,0,.75c-.06,1.13-.13,2.3-.08,3.44.13,2.86.41,5.78.85,8.93.22,1.59.48,3.3.88,5s.66,3,.88,4.28c.33,2.72.55,5.47.75,8q.33,4.35.62,8.7c.2,3.13.46,6.22.79,9.91.09,1,.23,2,.36,3a21.78,21.78,0,0,0,1.58,6.15,10.87,10.87,0,0,0,1.66,2.68,8.18,8.18,0,0,0,2,1.63,7.77,7.77,0,0,0,1,.48l.38.16,1.25.52.28.12a22.1,22.1,0,0,0,5.27,1.36,26.81,26.81,0,0,0,3.81.28,26.12,26.12,0,0,0,3.62-.25,10.94,10.94,0,0,0,3.56-1,6.43,6.43,0,0,0,1.49-1,3.37,3.37,0,0,0,.67-.78,2.63,2.63,0,0,0,.51-1c.56-1.36.12-2.76-.31-4.11l-.19-.6a41.64,41.64,0,0,1-1.14-5.32,66.83,66.83,0,0,1-.61-7.89c0-1.7,0-3.39,0-5.08l0-3.81c0-6-.11-11.87-.34-17.8q-.1-2.65-.24-5.31c-.11-2.2-.13-4.16-.09-6,.1-3.92.3-7.47.63-10.84a32.58,32.58,0,0,1,1.61-7,11.54,11.54,0,0,1,.6-1.12c.12-.13.25-.27.39-.4a4.64,4.64,0,0,1,.71-.22l.69-.06c1.23-.11,2.45-.22,3.68-.37,1.61-.18,3.24-.42,4.81-.66,3-.45,6.09-1,8.92-1.54,2.47-.47,5-1,7.36-1.59l1.18-.26.1,0c1.24-.28,2.52-.57,3.73-.95l.58-.18a13.25,13.25,0,0,0,1.39-.45c1.15-.45,2.36-.93,3.57-1.46a9.13,9.13,0,0,0,2.37-1.46,16.85,16.85,0,0,0,1.19-1.22l.24-.28a2.51,2.51,0,0,0,.4-.5l.14-.19.14-.2.3-.4c.18-.25.35-.5.52-.76a16.22,16.22,0,0,0,1.48-3l.22-.54c.21-.51.39-1,.56-1.57l.15-.44a39.64,39.64,0,0,0,1-4.06c.35-1.58.54-3.17.73-4.7l0-.27a37.33,37.33,0,0,0,.23-4.31c0-2.86-.19-5.68-.49-9.05a68.14,68.14,0,0,0-1.47-9.23c-.28-1.2-.66-2.4-1-3.56l-.11-.35c-.53-1.64-1-3.08-1.54-4.4a89.5,89.5,0,0,0-3.73-8.16l-.21-.41c-.59-1.14-1.19-2.31-1.9-3.4a44.92,44.92,0,0,0-2.9-3.81c-.4-.48-.84-.94-1.27-1.4l-.16-.17a22.45,22.45,0,0,0-3-2.53,17.52,17.52,0,0,0-4.11-2.11,67.82,67.82,0,0,0-8.13-2.57,79.85,79.85,0,0,0-8.39-1.73,54.47,54.47,0,0,0-8.55-.83Z"/><path class="cls-1" d="M777.92,514.57a4.63,4.63,0,0,0-.83.23c-.37.14-.74.3-1.11.46a14,14,0,0,0-1.88,1.25c-.45.35-.89.7-1.33,1.07-.3.16-.59.34-.88.52a15.85,15.85,0,0,0-4.49,4.52,12,12,0,0,0-1.41,2.84,7.23,7.23,0,0,0-.39,2.61c0,.59.16,1.19.25,1.78a5.54,5.54,0,0,0,.67,2.07.35.35,0,0,0,.06.09,24.93,24.93,0,0,0-.41,3.18,12,12,0,0,0,.64,5.39,8.7,8.7,0,0,0,1.68,2.61,8.94,8.94,0,0,0,1.52,1.22,10.08,10.08,0,0,0,4.35,1.52,28.51,28.51,0,0,0,4.22.37,35,35,0,0,0,5-.6l1.35-.23c1-.08,2-.18,3-.35.73-.13,1.43-.27,2.15-.44a16.63,16.63,0,0,0,2.65-1,9.39,9.39,0,0,0,3.42-2.38,9.13,9.13,0,0,0,2.14-5.77,18.45,18.45,0,0,0-.35-3.92c-.1-.56-.21-1.12-.36-1.68a14.65,14.65,0,0,0-.76-2.1,28.39,28.39,0,0,0-3.8-6.17c-.09-.11-.18-.23-.28-.34a.22.22,0,0,0-.05-.08,3.46,3.46,0,0,0-.82-.88,10.22,10.22,0,0,0-2.36-1.79,7.43,7.43,0,0,0-1.32-.53,11.93,11.93,0,0,0-4.28-2,6.92,6.92,0,0,0-1-.19,3.49,3.49,0,0,0-1.78-1.26,6.43,6.43,0,0,0-1.68-.24h-.07a9,9,0,0,0-1.46.2Z"/></g></g></svg>