<svg xmlns="http://www.w3.org/2000/svg" viewBox="0 0 441.99 231.04"><defs><style>.cls-1{fill:#fff;}</style></defs><g id="Layer_2" data-name="Layer 2"><g id="Draw_Layer" data-name="Draw Layer"><path class="cls-1" d="M73,14.83H71.71c-1.29,0-2.6.17-3.87.3l-.81.09c-.94.09-1.87.21-2.8.33l-2.14.26c-1.14.13-2.28.24-3.41.34l-1.44.14-2.46.25a7.34,7.34,0,0,0-2.18-.28c-3.2,0-6.17,1.55-8.71,3l-.19.11-.19.11a55.84,55.84,0,0,0-7.74,4.8C34,25.51,32.28,26.81,30,28.58l-.14.08-.14.09c-1.55.93-3.16,1.83-4.72,2.7l-3,1.69a40.92,40.92,0,0,0-4.43,3,19.73,19.73,0,0,0-3.91,4.35c-1.19,1.7-2.25,3.53-3.27,5.29-.52.91-1.05,1.81-1.59,2.71-.95,1.56-2,3.11-2.93,4.61-.73,1.12-1.45,2.24-2.16,3.37A38.28,38.28,0,0,0,1.51,60.3a15.68,15.68,0,0,0-1,2.55,8.06,8.06,0,0,0-.18.88L.3,64a10.09,10.09,0,0,0-.2,2.66,10.2,10.2,0,0,0,1.58,4.75A12.79,12.79,0,0,0,4,73.93,26.3,26.3,0,0,0,7.64,76.6a3.09,3.09,0,0,0,3,2.84l.2.1c2.1.95,4.25,2,6.37,3.1l1.58.85a35.06,35.06,0,0,0,4.12,2,11.59,11.59,0,0,0,4.24,1h.24a5,5,0,0,0,4-2.34,9.73,9.73,0,0,0,1.71-.95A13.24,13.24,0,0,0,35.61,81a38.92,38.92,0,0,0,3-4c.66-1,1.29-2.08,1.9-3.11l.33-.57c.43-.73.87-1.45,1.31-2.17.28-.46.56-.91.83-1.37.73-1.22,1.43-2.45,2.13-3.68a41.57,41.57,0,0,1,2.42-3.76c.35-.47.69-.94,1-1.4s.89-1.13,1.43-1.73l.07-.08a22.9,22.9,0,0,1,1.58-1.69,5.36,5.36,0,0,1,.62-.34,16.33,16.33,0,0,1,2.43-.69c.6,0,1.21-.08,1.81-.08s1.26,0,1.89.09a30.41,30.41,0,0,1,6.32,1.87A23.54,23.54,0,0,1,68,60a22.79,22.79,0,0,1,3,3.06c.67.9,1.33,1.86,2,2.84a30.24,30.24,0,0,1,1.84,3.56,12.41,12.41,0,0,1,.62,2.24c.11.61.21,1.23.3,1.85v-.24q.18,1.43.39,2.85l.11.76a22.14,22.14,0,0,1,.17,4,13.47,13.47,0,0,1-.58,2.14,17.94,17.94,0,0,1-1.56,2.65,13.68,13.68,0,0,1-1,1.15c-.33.31-.68.61-1,.9-1.29.9-2.65,1.75-4,2.57-1.6,1-3.26,2-4.8,3.19-3.29,2.45-6.45,5-8.84,7a9.19,9.19,0,0,1-1.18.65,32.68,32.68,0,0,1-4.9,1.63l-1,.22-.4.08a5.06,5.06,0,0,0-1.89.86,4.37,4.37,0,0,0-1.79,2.43,6.1,6.1,0,0,0-.19,1.89,11.79,11.79,0,0,0-2.06,5.24c-.12.65-.21,1.32-.29,2l-.08.65v.14c-.05.37-.1.75-.13,1.13l0,.31c-.07,1.06-.15,2.16-.16,3.25,0,2.06,0,4.17.17,6.44a24,24,0,0,0,1.81,7.36A27.67,27.67,0,0,0,44,138.33c0,.48,0,.93,0,1.39l0,1.18a52.75,52.75,0,0,0,.33,6.14l.05.44c0,.29.07.58.12.86a9.61,9.61,0,0,0,.7,2.38,8.52,8.52,0,0,0,3.23,3.66c.39.18.78.35,1.18.51a3.73,3.73,0,0,0,.93.23,15.87,15.87,0,0,0,1.9.19l1.16.06.47,0c2.21.1,4.45.28,6.84.56a27.57,27.57,0,0,1,2.77.5,23.79,23.79,0,0,1,2.71.9,26.86,26.86,0,0,1,4,2.48,14.28,14.28,0,0,1,1.61,1.5l.13.23a4.4,4.4,0,0,1,.18.62,13.8,13.8,0,0,1,0,2.1c-.17.88-.35,1.75-.54,2.62-.13.63-.27,1.26-.39,1.88a32,32,0,0,1-1.24,4.67,19.26,19.26,0,0,1-1.59,2.64,11.33,11.33,0,0,1-1,1,30.68,30.68,0,0,1-4.88,2.63,25.22,25.22,0,0,1-3.37,1.06c-1.08.26-2.1.46-3.12.61a22.07,22.07,0,0,1-2.21.12c-.74,0-1.47-.06-2.28-.14a26.43,26.43,0,0,1-4.88-1.15,8.58,8.58,0,0,1-1.24-.73c-.89-.73-1.75-1.52-2.59-2.28l-.25-.22a37.62,37.62,0,0,0-4.1-3.29,22.39,22.39,0,0,0-3.81-2.19,6.24,6.24,0,0,0-2.5-.6,4.71,4.71,0,0,0-.53,0,5.56,5.56,0,0,0-1.95.54,6.66,6.66,0,0,0-1.3.78,25.82,25.82,0,0,0-2.09,1.83l-.09.07c-2.43,2.29-4.5,4.17-6.74,5.91a44.54,44.54,0,0,0-6.46,6c-.74.86-1.37,1.64-1.94,2.38l-.19.25a15.65,15.65,0,0,0-1.78,2.64,14.25,14.25,0,0,0-1,2.89,16.09,16.09,0,0,0-.4,2.21A11,11,0,0,0,8,199.26a19,19,0,0,0,1,3.36c.12.34.24.67.35,1l.21.6c.41,1.2.81,2.41,1.24,3.6.53,1.49,1.13,3.18,1.81,4.79a22,22,0,0,0,2.25,4.22,18.23,18.23,0,0,0,4,4.12,21.8,21.8,0,0,0,4.46,2.36c1.28.54,2.58,1,4,1.54.86.3,1.73.58,2.6.86l1.71.56c1.16.39,2.33.83,3.45,1.25l1.13.43a31.91,31.91,0,0,0,4.35,1.22c3.36.7,6.71,1.1,10.14,1.48a74.43,74.43,0,0,0,8.24.39h1.14c3,0,6.54-.07,10.06-.17A73.94,73.94,0,0,0,80.25,230c1.1-.18,2.22-.44,3.3-.69l.88-.21c1.74-.39,3.17-.73,4.53-1.07a24.9,24.9,0,0,0,5.34-1.85,20.32,20.32,0,0,0,2.44-1.58l1.17-.81c1-.64,2-1.24,3-1.82l.75-.44c1.33-.78,2.66-1.63,3.94-2.53a34.05,34.05,0,0,0,3.78-3,25.12,25.12,0,0,0,3.32-3.8c.84-1.17,1.63-2.38,2.36-3.6s1.42-2.65,2.06-4l0-.1c1.16-2.39,2.17-4.91,3.14-7.34.28-.71.57-1.42.85-2.12l.24-.57c.45-1.12.92-2.28,1.35-3.43.52-1.41,1-2.81,1.42-4.36a31.13,31.13,0,0,0,1.08-4.59c.15-1.05.29-2.1.43-3.15.09-.82.14-1.65.18-2.45v-.13c0-.5,0-1,0-1.52,0-.22,0-.43,0-.65l-.09-2.89c-.06-1.43-.16-3-.35-4.8a74.83,74.83,0,0,0-1.78-10.29,31.34,31.34,0,0,0-3.47-9,29.9,29.9,0,0,0-3.2-4.19c-1-1.17-2.15-2.26-3.12-3.17s-1.66-1.59-2.48-2.39c-1.31-1.27-2.66-2.59-4-3.82-.5-.45-1-.91-1.47-1.37s-1.2-1.13-1.83-1.67a19.25,19.25,0,0,0-4.28-2.75,36.46,36.46,0,0,0-7.09-2.78,31.9,31.9,0,0,0-7.93-1H83.28c.57-.15,1.14-.32,1.71-.48l2.45-.73c1.19-.36,2.36-.74,3.54-1.13l.88-.29c1.46-.47,3-1,4.46-1.54a33,33,0,0,0,4.45-2.09,31,31,0,0,0,4-2.69A32.91,32.91,0,0,0,108,112.1a46.28,46.28,0,0,0,3.26-3.64,47.58,47.58,0,0,0,5.11-8.33c.79-1.58,1.5-3.27,2.1-4.72a19.25,19.25,0,0,0,1.09-3.62c.15-.74.24-1.51.32-2.25l.08-.65c.19-1.59.27-3.22.34-4.79l0-.52c.07-1.5.14-3,.13-4.58a65.67,65.67,0,0,0-.8-10.1,34.57,34.57,0,0,0-1-4.56c-.27-.91-.55-1.81-.83-2.72-.19-.6-.38-1.2-.56-1.8l-.45-1.48c-.31-1-.61-2-.94-3.06A52.12,52.12,0,0,0,114,50.13c-1.13-2.63-2.35-5.43-3.75-8.1-.66-1.26-1.35-2.5-2.07-3.69-.36-.6-.74-1.19-1.11-1.78s-.94-1.46-1.38-2.22l-.26-.45c-.28-.48-.55-1-.85-1.43a19.44,19.44,0,0,0-1.86-2.36,25.67,25.67,0,0,0-3.18-2.81L99.12,27c-3.15-2.5-6.26-4.81-9.23-6.89a22.18,22.18,0,0,0-5.47-2.91c-.79-.27-1.59-.54-2.39-.79l-.35-.11a29,29,0,0,0-4.36-1.09l-.2,0c-.89-.13-1.81-.26-2.72-.32l-1.44,0ZM8,69.27a12.85,12.85,0,0,1-1-1,9.16,9.16,0,0,1-.46-.8,8.14,8.14,0,0,1-.31-1.1c0-.3,0-.62,0-1a13.15,13.15,0,0,1,.5-1.88c.51-1,1.1-2.1,1.81-3.27A4,4,0,0,0,9,61.39c-.1.65-.2,1.31-.29,2-.25,1.81-.53,3.87-.75,5.91Z"/><path class="cls-1" d="M22.52,47c-2.49,1.64-5.12,3.19-7.16,5.41a14.16,14.16,0,0,0-1,1.27,2.88,2.88,0,0,0-.72-.3,3.28,3.28,0,0,0-2.36.31A5.85,5.85,0,0,0,9.52,54.9l-.76,1c-.31.42-.61.84-.9,1.27A15,15,0,0,0,7,58.66a5.28,5.28,0,0,0-1.55.22,5.3,5.3,0,0,0-2.72,2.24A13.5,13.5,0,0,0,.86,66.06,12.38,12.38,0,0,0,1,71.77a6.57,6.57,0,0,0,.93,1.92,8.22,8.22,0,0,0,1.83,1.8,9.56,9.56,0,0,0,2.86,3.34,20.65,20.65,0,0,0,3.84,1.94c1.85.82,3.62,1.74,5.39,2.71l2.41,1.27c.6.32,1.22.59,1.84.85.44.18.89.31,1.34.45l.43.25a11.54,11.54,0,0,0,1.71.79,2.93,2.93,0,0,0,2.36-.32,3,3,0,0,0,1.41-1.83,3.11,3.11,0,0,0-.3-2.37,3.21,3.21,0,0,0-1.65-1.33,16.23,16.23,0,0,0-2.26-1.09c-.36-.13-.72-.23-1.07-.35-1.44-.67-2.83-1.46-4.22-2.21-.77-.42-1.55-.82-2.34-1.21,0-.25-.07-.51-.1-.76a2.86,2.86,0,0,0-.15-.41,3.06,3.06,0,0,0,.86-4.94,5.1,5.1,0,0,0-1-.77l-.22-.14-.62-.56L15.36,68c.2-.12.39-.27.59-.41.36-.26.7-.54,1-.83a6.47,6.47,0,0,0,1.06-1.32q.24-.52.45-1.08c.05-.38.11-.77.15-1.15s-.08-.78-.14-1.16a8.08,8.08,0,0,0-.62-1.37A4.2,4.2,0,0,0,17.4,60l.1-.16c.67-1,1.35-2,2.07-2.95a16,16,0,0,1,2.25-2.1c1.26-.85,2.53-1.68,3.81-2.52a3.12,3.12,0,0,0,1.1-4.2A3.21,3.21,0,0,0,24,46.57a2.69,2.69,0,0,0-1.49.43Zm-8.3,21.9.54.42c-.18-.13-.36-.28-.54-.42Z"/><path class="cls-1" d="M53.19,15.44a47.84,47.84,0,0,0-9.62,1.17,13.83,13.83,0,0,0-2.42.91,8.43,8.43,0,0,0-1.95,1.41c-.55.5-1.05,1.06-1.57,1.59-.91.9-1.83,1.79-2.81,2.62a59,59,0,0,0-5.49,4.07c-1.82,1.63-3.59,3.32-5.44,4.92a61.86,61.86,0,0,0-7.12,5.69,34.09,34.09,0,0,0-3.38,4c-.88,1.22-1.81,2.41-2.69,3.63S8.91,48,8,49.33,6.35,52,5.55,53.3,4,56,3.29,57.41a42.79,42.79,0,0,0-2,5.1c-.4,1.13-.78,2.27-1.16,3.4a3.08,3.08,0,0,0,2.15,3.77,3.11,3.11,0,0,0,2.37-.3,3.24,3.24,0,0,0,1.41-1.84c.74-2.2,1.47-4.4,2.33-6.56.64-1.38,1.37-2.71,2.15-4,.89-1.52,1.8-3.05,2.78-4.52,1.79-2.66,3.69-5.25,5.61-7.82a34.42,34.42,0,0,1,4.4-4.47c2-1.47,4-2.86,5.83-4.46s3.61-3.4,5.52-5c1.55-1.14,3.17-2.16,4.66-3.37.79-.64,1.51-1.37,2.24-2.08S43,23.8,43.71,23.14c.2-.12.39-.23.59-.33A22.18,22.18,0,0,1,47.89,22c3.73-.39,7.48-.54,11.23-.59A83,83,0,0,1,70.38,22a37.73,37.73,0,0,1,8.21,1.86A33.54,33.54,0,0,1,84.33,27a31.41,31.41,0,0,1,4.34,4.44,14,14,0,0,1,1.26,2.27,65.16,65.16,0,0,1,2.79,10.38,3.08,3.08,0,0,0,5.62.73,3.25,3.25,0,0,0,.31-2.37c-.38-1.81-.79-3.62-1.24-5.41a34.09,34.09,0,0,0-2.92-8,13.36,13.36,0,0,0-1.68-2.22L92,26c-.5-.57-1-1.12-1.54-1.66a21.6,21.6,0,0,0-3.59-2.95,32.48,32.48,0,0,0-8.11-4,29.26,29.26,0,0,0-4.34-1c-1.78-.29-3.56-.56-5.35-.74a80.35,80.35,0,0,0-8.64-.41c-2.42,0-4.84.07-7.27.17ZM78,23.57l.39.16L78,23.57Z"/><path class="cls-1" d="M213,8.9a10.09,10.09,0,0,0-2.18.24,13.23,13.23,0,0,0-2.62.94l-.65.28c-.61.26-1.24.55-1.92.89l-.93,0a36.67,36.67,0,0,0-3.94.25l-.37-.05-.19,0-.16,0,.09,0c-1.69-.25-3.69-.49-5.69-.61-.73,0-1.51-.08-2.29-.08h-.45a24.38,24.38,0,0,0-3.79.41,14.27,14.27,0,0,0-3.22,1.11l-.26.11a23.46,23.46,0,0,0-2.16,1.1c-.55.32-1.11.63-1.67.93l-.63.35-.45.24H179a14.9,14.9,0,0,0-2.82.35h-.1A14.5,14.5,0,0,0,173,16.45l-.18.08a24.88,24.88,0,0,0-3.28,1.9,41.37,41.37,0,0,0-5.26,4.3,47.72,47.72,0,0,0-4.73,5.18c-1.55,1.94-3,4-4.4,6l-.25.35c-1.86,2.62-3.64,5.35-5.37,8l-.26.4c-.64,1-1.22,2-1.79,3l-.6,1c-.28.49-.54,1-.8,1.49l-.42.8-.26.47c-.24.45-.48.9-.71,1.36l-.34.7c-.71,1.43-1.43,2.91-2.06,4.4l-.27.66c-.57,1.36-1.16,2.78-1.68,4.19s-1.08,3-1.74,5a44.52,44.52,0,0,0-1.18,4.61l-.06.27c-.3,1.36-.49,2.77-.67,4.14l0,.31-.11.86c-.21,1.52-.43,3.08-.56,4.63-.27,3-.57,6.49-.65,9.92-.07,3.24-.14,6.68,0,10.07l0,1.56c.09,2.79.17,5.67.43,8.48l0,.23c.15,1.71.31,3.42.47,5.14.06.62.15,1.24.25,1.86,0,.32.09.63.13,1l.23,1.66.2,1.43c.15,1,.35,2.11.54,3.14l.3,1.58c.3,1.69.63,3.38.93,4.81l0,.22c.31,1.54.63,3.13,1,4.67s.79,3,1.19,4.4l.17.61c.21.73.43,1.46.65,2.19s.44,1.46.64,2.19L144,151c.52,1.85,1,3.73,1.46,5.56.32,1.29.65,2.58,1,3.86,1,3.62,1.75,6.38,2.57,9l.15.49a169.93,169.93,0,0,0,6.71,18.67c.31.7.62,1.39.92,2.09,1,2.22,2,4.52,3.16,6.7a38.77,38.77,0,0,0,5.3,7.62,28,28,0,0,0,4.43,3.72l.65.48c1,.76,1.88,1.54,2.8,2.32,1.4,1.18,2.84,2.39,4.33,3.5.66.48,1.31,1,2,1.4a15.36,15.36,0,0,0,2.95,1.48,21.38,21.38,0,0,0,3.39,1.06,35.62,35.62,0,0,0,7,.82c.44,0,.88,0,1.32,0a43.24,43.24,0,0,0,5.94-.42,44.3,44.3,0,0,0,6.68-1.47c1.21-.37,2.41-.78,3.52-1.17L215.2,215l3.73-1.32,5.43-1.93c1.54-.56,3.35-1.25,5.1-2.09s3-1.52,4.23-2.27,2.5-1.54,3.75-2.32c1.61-1,3.27-2.05,4.93-3,2.69-1.58,5.4-3.09,8.06-4.47l2.1-1.08a18.72,18.72,0,0,0,4.4-3.14c3.53-3.42,5.2-8.46,6.26-12.48a59.44,59.44,0,0,0,1.68-10.32l.08-.83c.12-1.3.24-2.64.3-4,.14-3.1.3-6.69.36-10.23l0-1.51c0-1.16.05-2.32,0-3.47,0-.54,0-1.07,0-1.61,0-1.09,0-2.22,0-3.32-.14-3.83-.27-7-.57-10.34l-.15-1.78c-.24-2.69-.48-5.48-.81-8.2l-.08-.65c-.4-3.24-.81-6.58-1.17-9.88-.23-2-.39-4.11-.54-6.12l-.27-3.33L262,104c-.09-1.12-.19-2.27-.33-3.41l-.34-2.8-.38-3.12c-.33-2.62-.75-5.28-1.16-7.85l-.42-2.62c-.5-3.22-1.06-6.56-1.67-10-.84-4.68-1.58-9.46-2.29-14.09-.29-1.86-.57-3.72-.87-5.58s-.54-3.25-.81-4.66c-.14-.72-.29-1.48-.48-2.24s-.48-1.66-.74-2.46l-.07-.2c-.17-.52-.39-1-.6-1.56l-.17-.41c-.42-1-.86-2.1-1.3-3.14-.62-1.46-1.25-2.91-1.88-4.37a77.44,77.44,0,0,0-4.36-8.65c-1.94-3.28-4.62-5.95-7.67-8.85a32.76,32.76,0,0,0-7.82-5.54l-.5-.25a23.59,23.59,0,0,0-4.3-1.84c-.69-.18-1.52-.4-2.38-.57-.63-.13-1.27-.22-1.9-.31l-.42-.06c-1.69-.24-3.51-.42-5.55-.54-.2,0-.4,0-.6,0Zm-19.72,70a4,4,0,0,0,1.62-.42l1.51-.69,1.36-.62a16.33,16.33,0,0,1,2.48-.74q.63-.06,1.2-.06l.7,0a12.41,12.41,0,0,1,1.34.38,17,17,0,0,1,2.46,1.53,19.91,19.91,0,0,1,2.8,2.59A16,16,0,0,1,210,83.18a50.18,50.18,0,0,1,1.66,5.16,52,52,0,0,1,1,5.33c.38,3.45.69,7.15,1,11.31l0,.26c.13,2,.26,4.16.32,6.25l.08,3.22c0,1.51,0,3.06-.14,4.55-.07,1.34-.2,2.7-.41,4.36a52.33,52.33,0,0,1-3.14,12.27,22.12,22.12,0,0,1-2.29,3.91,16.4,16.4,0,0,1-2.09,2.14,14.25,14.25,0,0,1-1.79,1.06,8.89,8.89,0,0,1-.92.26c-.7.05-1.4.08-2.1.08s-1.43,0-2.13-.09a10.74,10.74,0,0,1-2-.52,8.92,8.92,0,0,1-1-.54,5.11,5.11,0,0,1-.52-.52,15.09,15.09,0,0,1-1-1.9,85.44,85.44,0,0,1-2.8-8.52c-.44-1.65-.89-3.34-1.2-5-.29-1.55-.55-3.11-.8-4.67-.39-3.41-.61-6.77-.85-10.49-.11-1.83-.24-3.78-.48-5.69-.16-1.28-.37-2.57-.57-3.82-.11-.66-.22-1.32-.32-2v.22l-.06-.57a22.56,22.56,0,0,1-.35-5c.35-2.08.78-4.13,1.16-5.86A49.59,49.59,0,0,1,190.33,81a12.58,12.58,0,0,1,1.11-2c.14-.17.28-.34.43-.5a2.68,2.68,0,0,0,.62.25,2.78,2.78,0,0,0,.75.11Z"/><path class="cls-1" d="M412.79,111.93a2.76,2.76,0,0,0-1.49.43l-.61.39-.61.4q-.52.15-1,.33a18.64,18.64,0,0,0-3.91,1.89c-1.13.75-2.3,1.45-3.6,2.14a27.84,27.84,0,0,0-3.08,1.81c-.49.34-1,.72-1.45,1.09l-.27.21-.49.38-.49.38-.45.33-.59.45a10.1,10.1,0,0,0-2,2.08,30.79,30.79,0,0,0-1.82,2.79c-.53.9-1,1.79-1.52,2.87-.17.31-.31.65-.45,1l-.21.48c-.23.55-.45,1.09-.65,1.65a9.09,9.09,0,0,0-.48,2.45,2.46,2.46,0,0,0,.33,1.41,32.84,32.84,0,0,0-.11,4.36c.07,1.83.22,3.73.47,5.82.28,2.32.53,4.19.81,5.9a17.82,17.82,0,0,0,2.1,5.72,37.11,37.11,0,0,0,3.72,5.51l.89,1.14a36.9,36.9,0,0,0,4,4.59,24.18,24.18,0,0,0,5.53,3.76,16.74,16.74,0,0,0,3.07,1.28,10.64,10.64,0,0,0,1.82.31h.1a15.89,15.89,0,0,0,1.8.1h.48a21.82,21.82,0,0,0,6.76-1.63,31,31,0,0,0,6.48-3.19,21.85,21.85,0,0,0,4.69-4.56,25.37,25.37,0,0,0,2-2.93,27,27,0,0,0,1.67-3.58l.08-.19a42.4,42.4,0,0,0,2-6.57l0-.11,0-.12a18.22,18.22,0,0,0,.67-1.91,10.68,10.68,0,0,0,.26-1.15l.08-.38a15.76,15.76,0,0,0,.4-4.1q0-1.19-.12-2.37a49.41,49.41,0,0,0-.55-5.32c-.27-1.49-.55-3-.83-4.48l0-.09a36.79,36.79,0,0,0-.94-4.1,19.83,19.83,0,0,0-4.92-8.4c-.82-.79-1.72-1.52-2.59-2.21l-.34-.28c-.29-.23-.59-.47-.88-.72a21.42,21.42,0,0,0-3.13-2.28,16.24,16.24,0,0,0-2-.91l-.38-.16a16.46,16.46,0,0,0-2.16-.72,15.35,15.35,0,0,0-3.74-.43h-.5a3.19,3.19,0,0,0-1.78-.55Zm-.42,7.89a3,3,0,0,0,2.41-1.19h.3c.47,0,.93,0,1.37.06a16.5,16.5,0,0,1,3,.92l-.08,0a7.56,7.56,0,0,1,.91.43,10.43,10.43,0,0,1,1.26.81l.93.74,1.15.91-.2-.08-.21-.07a19.31,19.31,0,0,0-6-.83l-1,0c-1.09,0-2.18.15-3.24.27l-.67.07c-.69.08-1.38.21-2,.33l-.51.1a19.45,19.45,0,0,0-4.24,1.44c.46-.32,1-.7,1.49-1.07,1.57-1.16,3.17-2.22,4.4-3a2.87,2.87,0,0,0,1,.18Z"/><path class="cls-1" d="M418.84,116.47l-.74.1-1.83.22-1.18.13-1.28.16a4.64,4.64,0,0,0-1.89.72,3.39,3.39,0,0,0-.74.61l-.23,0-2.28.38c-1.55.25-3.33.54-4.11,2.1a3.21,3.21,0,0,0-.3,2.37,3,3,0,0,0,1.41,1.83,6.44,6.44,0,0,0,2.15.83,2,2,0,0,0,.25.14,7.4,7.4,0,0,0,1,.44,2.53,2.53,0,0,0,1.22.07,13.89,13.89,0,0,0,.19,2.1c.14,1,.29,2,.43,3a3,3,0,0,0,1.42,1.84,3.07,3.07,0,0,0,4.2-1.1c.1-.25.2-.49.31-.74a3.22,3.22,0,0,0,0-1.63l-.07-.42a12,12,0,0,0,2,.38,4.22,4.22,0,0,0,1.87-.48,3.63,3.63,0,0,0,1-1c.41.24.82.49,1.24.72.69.37,1.41.68,2.09,1.06a3.65,3.65,0,0,0,1,.44,3,3,0,0,0,1.64,0l.74-.31a3.05,3.05,0,0,0,1.1-1.1,3.16,3.16,0,0,0,.42-1.47,3.09,3.09,0,0,0-.05-4.29,25.62,25.62,0,0,0-4.43-4,3,3,0,0,0-2.36-.32l-.31.11a3.07,3.07,0,0,0-1.52-2.68l-.74-.31a3.07,3.07,0,0,0-1.63,0Zm-1.43,12.34h0l.19.14-.19-.14Z"/><path class="cls-1" d="M326.24,20.14l-.72,0a12.58,12.58,0,0,0-5,1.21,12.21,12.21,0,0,0-3.81,2.92l-.67.78-.21,0a16.25,16.25,0,0,0-4.73,1.52,5.81,5.81,0,0,0-1.33,1.13,15,15,0,0,0-1,1.23l-.09.12a15.58,15.58,0,0,0-1.82,3.1,34.78,34.78,0,0,0-2.46,10.65l-.12,1.06c-.14,1.3-.29,2.65-.39,4l-.08,1a42.38,42.38,0,0,0-.18,7.81A35.23,35.23,0,0,0,305,63.56a9.84,9.84,0,0,0,1.38,2.77,9.46,9.46,0,0,0,3,2.61,18.5,18.5,0,0,0,3,1.34,19.32,19.32,0,0,0,3,.79,28.57,28.57,0,0,0,5.59.49c.62,0,1.24,0,1.86,0a55.94,55.94,0,0,0,7.29-.84,24.31,24.31,0,0,0,3-.67,17.91,17.91,0,0,0,3.59-1.64,20,20,0,0,0,5-4.34A32,32,0,0,0,346,57.81a56.36,56.36,0,0,0,2.83-6.36,33.29,33.29,0,0,0,1.29-4.62,43,43,0,0,0,1.15-7.37,16.46,16.46,0,0,0-.25-3.13,13.57,13.57,0,0,0-.68-2.84A12.45,12.45,0,0,0,347,28.33a26.23,26.23,0,0,0-2.18-1.8,20.77,20.77,0,0,0-2.23-1.37,43.9,43.9,0,0,0-4.61-2l-1.17-.46a34.19,34.19,0,0,0-7.63-2.33,22.85,22.85,0,0,0-2.92-.23Z"/><path class="cls-1" d="M410.87,0a14.88,14.88,0,0,0-2.6.24,9.83,9.83,0,0,0-2.21.77l-.39.18c-.35.15-.7.31-1,.48a63.79,63.79,0,0,0-8,4.78,30.56,30.56,0,0,0-4.07,3.26c-.54.53-1.06,1.08-1.58,1.64s-.85.92-1.29,1.36a24.92,24.92,0,0,0-2.86,3.5,25.39,25.39,0,0,0-2.29,4.44l-.15.36c-.41,1-.82,1.94-1.22,2.91l.1-.2-.59,1.37c-.71,1.08-1.43,2.15-2.15,3.22-1.57,2.34-3.31,4.61-5,6.81l-.63.83c-1,1.29-2.06,2.56-3.11,3.83a107.1,107.1,0,0,0-8.17,10.87c-.84,1.35-1.69,2.69-2.54,4l-2.55,4c-1.48,2.38-3.1,4.71-4.93,7.13-.9,1.13-1.77,2.16-2.64,3.15s-1.93,2.32-2.85,3.48l-.16.2a59.37,59.37,0,0,0-5.35,7.82c-1.68,3-3,5.6-4.15,8.1s-2.26,5.22-3.3,7.79l-.57,1.39a92.2,92.2,0,0,1-4,8.43l-.28.51c-.66,1.19-1.34,2.42-2.09,3.57-.92,1.43-2,2.81-2.94,4.14l-.1.14c-1,1.35-1.93,2.73-2.7,3.89l-.67,1c-.62.93-1.26,1.9-1.85,2.88l-1.83,3c-1.1,1.81-2.23,3.67-3.31,5.53-1.44,2.47-2.81,5-4.14,7.52l-.54,1c-1.41,2.65-2.82,5.46-4.32,8.6q-1,2.07-2,4.12c-.33.65-.66,1.32-1,2a20.81,20.81,0,0,0-1.36,4.17c-.35,1.44-.68,3-1,4.86a29.84,29.84,0,0,0-.57,6,13.62,13.62,0,0,0,.25,2.29,10.66,10.66,0,0,0,.8,2.41c.35.83.75,1.61,1.21,2.46a23.18,23.18,0,0,0,2.29,3.41,27.79,27.79,0,0,0,2.23,2.56c.89.89,1.79,1.74,2.56,2.45l.22.21a31.39,31.39,0,0,0,5.43,4.33,29.54,29.54,0,0,0,3.52,1.73c.56.23,1.12.44,1.69.66l1.23.47c1.1.51,2.17,1.11,3.2,1.68l.48.27a10.22,10.22,0,0,0,2.61,1.07,5.92,5.92,0,0,0,3.47-.2,13.58,13.58,0,0,0,4-2.69A28.58,28.58,0,0,0,338.3,189c1.09-1.32,2.15-2.75,3.25-4.35.77-1.13,1.53-2.27,2.29-3.4,1-1.47,2-2.93,3-4.37s2.14-3.07,3.22-4.59l1.22-1.68c.51-.7,1-1.4,1.52-2.12,4.73-6.78,9.22-13.89,13.55-20.76,2.59-4.1,5.26-8.33,8-12.45,1.94-3,3.91-5.91,5.88-8.86s3.87-5.78,5.78-8.69q5.35-8.17,10.7-16.39c2.69-4.13,5.47-8.41,8.45-12.44,2.86-3.68,5.7-7.46,8.45-11.12q2.1-2.81,4.2-5.58h0l.09-.14h0l1.23-1.59,2.61-3.38-.32.38c5-6.35,8.57-11.35,11.71-16.18.85-1.31,1.75-2.61,2.62-3.88s1.77-2.57,2.62-3.88l.34-.51c.29-.43.58-.88.84-1.33a21.66,21.66,0,0,0,1.32-2.9,19.74,19.74,0,0,0,1.11-5.35,18.72,18.72,0,0,0-.31-5.13,22.38,22.38,0,0,0-1.54-5.08,23,23,0,0,0-2.26-4c-1.24-1.75-2.22-3.07-3.19-4.27a26.79,26.79,0,0,0-3.25-3.34c-1.05-.93-2.3-2-3.58-3.1a51.66,51.66,0,0,0-4.31-3.34c-1.22-.82-2.54-1.55-3.82-2.25l-.22-.13A28,28,0,0,0,413.78.37,11.43,11.43,0,0,0,410.87,0Z"/></g></g></svg>