<svg xmlns="http://www.w3.org/2000/svg" viewBox="0 0 492.25 232.38"><defs><style>.cls-1{fill:#fff;}</style></defs><g id="Layer_2" data-name="Layer 2"><g id="Draw_Layer" data-name="Draw Layer"><path class="cls-1" d="M113,0h-.44A42.45,42.45,0,0,0,107,.68l-1.53.25a86.5,86.5,0,0,1-9.26.53l-3.19,0q-3.21,0-6.4,0c-3,0-6.39.08-9.73.23h-.16c-1.6.08-3.26.16-4.88.34a30.61,30.61,0,0,0-4.83.79,8.92,8.92,0,0,0-3.84,2.52c-.31.31-.61.63-.91,1l-.77.81-1.11,1.1-.88.87c-1.18,1.19-2.45,2.51-4,4.16a43.64,43.64,0,0,0-3.83,4.85l-.21.31c-.92,1.34-1.87,2.71-2.85,4-1.77,2.22-3.74,4.33-5.63,6.37l-.29.31c-2.16,2.32-4.27,4.74-6.27,7.19-1,1.25-2,2.47-3.09,3.69s-1.82,2.13-2.71,3.22c-2,2.41-4.25,5.15-6.32,7.91-.09.12-.17.24-.27.35-2.1,2.68-3.88,4.84-5.59,6.81-1.28,1.47-2.64,2.9-4,4.28-.84.89-1.69,1.78-2.52,2.69-.53.57-1,1.16-1.53,1.75S9.45,68.32,8.9,68.92s-1.3,1.34-1.94,2q-.62.6-1.23,1.23A35.07,35.07,0,0,0,2.43,76a13,13,0,0,0-1.38,2.87,15.81,15.81,0,0,0-.66,2.34,21.31,21.31,0,0,0-.38,5,24.08,24.08,0,0,0,.54,4.18,11,11,0,0,0,.6,2c.21.49.4.93.64,1.38a7.85,7.85,0,0,0,1,1.35l.18.21a8.82,8.82,0,0,0,1.46,1.25,10.67,10.67,0,0,0,1.11.73c.31.17.62.33.94.48l.7.34c.38.19.77.37,1.15.58,1,.56,2.06,1.16,3.05,1.75l.85.5.3.17.28.17,1.08,1.3.37.45a17.12,17.12,0,0,0,4,3.21c.6.39,1.18.8,1.76,1.21s1,.7,1.49,1a24.52,24.52,0,0,0,7.41,3.81,15.87,15.87,0,0,0,1.7.33,16.57,16.57,0,0,0,3.2.6l.15,0c.33,0,.65.05,1,.05a10.51,10.51,0,0,0,5.3-1.52l.26-.16.59-.41.7-.52c.57-.33,1.13-.71,1.68-1.07l.25-.17c.86-.56,1.72-1.17,2.57-1.8l.78-.57a44.34,44.34,0,0,0,4.24-3.39,34.56,34.56,0,0,0,3.44-4l.31-.4c1.1-1.43,2.2-2.85,3.28-4.29s2.18-2.72,3.18-3.86l1.31-1.47c.72-.8,1.43-1.6,2.13-2.42,1.25-1.46,2.6-3,4-4.47l1.47-1.17.51-.38c1.09-.81,2.23-1.65,3.38-2.43,1.53-1,3.1-2,4.45-2.9,1-.66,2.06-1.34,3.08-2l.07.26.08.27a37.27,37.27,0,0,1,1.13,4.94,64.67,64.67,0,0,1,.21,8.88c-.06,1.69-.13,3.38-.22,5.07,0,.69-.09,1.39-.14,2.08s-.12,1.63-.16,2.45c-.08,1.79-.15,3.57-.21,5.36s-.13,3.37-.21,5-.2,3.64-.32,5.46c-.09,1.46-.19,2.91-.26,4.37s-.18,3-.28,4.52-.23,3.3-.31,5-.16,3.12-.32,4.67c-.07.73-.16,1.46-.24,2.18-.11,1-.22,2-.31,3l-.1,1.11c-.12,1.34-.24,2.68-.32,4-.08,1.2-.12,2.4-.17,3.61l0,1.2c-.15,3.52-.1,6.95,0,9.84s.16,6.46.4,10c.07,1.1.17,2.19.28,3.29l.1,1.1c.09,1,.17,2,.25,3,.06.75.12,1.5.19,2.24s.16,1.47.25,2.2.2,1.55.27,2.32c.11,1.41.25,3.08.32,4.77.06,1.34.12,2.68.19,4,.1,2,.2,3.91.27,5.87,0,1,0,2,0,3v1.62c0,1.68,0,3.36.05,5,0,3.4.17,6.78.37,10,.12,1.83.36,3.67.62,5.54a18.84,18.84,0,0,0,1.31,4.9,8.6,8.6,0,0,0,3.89,4.16,13.59,13.59,0,0,0,2.68,1l.4.1c.61.16,1.21.33,1.82.46a24.91,24.91,0,0,0,5,.63c.88,0,1.77,0,2.63-.09.7,0,1.41-.07,2.11-.08h6.31l3.73,0a39.16,39.16,0,0,0,4.71-.41c1.36-.17,2.72-.43,4-.67l1.27-.24c1.1-.19,2.19-.37,3.29-.54l1.23-.2c1.86-.3,3.75-.79,5-2.34a4.69,4.69,0,0,0,.92-1.62,5.17,5.17,0,0,0,.24-.9,15.66,15.66,0,0,0,.22-2.27,33.5,33.5,0,0,0-.13-3.61l-.06-1,0-.63c-.08-1.35-.17-2.75-.2-4.14s0-2.55,0-3.83v-11q0-10,0-19.91c0-6.18.17-12.69.43-19.91.2-5.62.22-11.76.06-19.31-.07-4-.19-7.26-.35-10.32-.07-1.38-.16-2.86-.32-4.36l-.27-2.29c-.11-.93-.23-1.87-.32-2.8-.39-3.81-.58-6.75-.61-9.55v-1.33c0-3.14-.07-6.27-.12-9.41-.06-3.74-.16-6.61-.33-9.3s-.42-5.46-.67-8.12l-.2-2.15c-.11-1.2-.26-2.38-.4-3.57-.23-1.86-.46-3.78-.55-5.69-.08-1.67-.15-3.34-.2-5,0-1.37,0-2.77,0-4.13l0-1c0-1.52.08-3,.13-4.55l.05-1.28c0-1.16.09-2.36.08-3.54,0-3.32-.2-6.72-.5-10.11s-.79-6.89-1.28-10.24c-.22-1.6-.49-3.11-.78-4.54s-.7-3.08-1.21-5-1.14-3.85-1.76-5.72l-.35-1.08-.52-1.59c-.57-1.76-1.15-3.58-1.78-5.36-.22-.6-.49-1.26-.85-2.06-.21-.48-.43-.94-.67-1.4a9.68,9.68,0,0,0-1.28-1.77,7.22,7.22,0,0,0-3.05-2A9.35,9.35,0,0,0,113,0Z"/><path class="cls-1" d="M205.76,2.28c-1.14,0-2.29.1-3.4.19l-.26,0c-1.59.14-3.2.38-4.76.61l-.29,0c-1.77.27-3.33.55-4.75.84a38.16,38.16,0,0,0-4.37,1.15,37.15,37.15,0,0,0-4.62,1.92A47.87,47.87,0,0,0,176,11.7c-1.4,1-2.77,2-4.05,3.12a21.81,21.81,0,0,0-3.46,3.7,24.49,24.49,0,0,0-2.22,3.64,47.6,47.6,0,0,0-2,4.83,42.57,42.57,0,0,0-2.3,8.76c-.3,2.18-.5,4.4-.7,6.55l0,.64c-.19,2-.39,4.17-.54,6.32-.32,4.48-.73,8.56-1.23,12.45-.29,2.18-.52,4.4-.74,6.55-.12,1.18-.24,2.36-.37,3.54-.2,1.87-.43,3.73-.66,5.6-.17,1.45-.35,2.9-.51,4.35-.32,2.78-.46,5.63-.6,8.39l-.06,1.26c-.07,1.29-.16,2.57-.25,3.86-.14,1.82-.27,3.71-.33,5.58-.2,6.6-.23,13.24-.24,20v1.95c0,5.93,0,11.86,0,17.79a122.74,122.74,0,0,0,1.59,16.87l.24,1.74v-.09l0,.28,0,.09h0v.06h0s0,0,0,0h0v.09h0c.18,1.34.37,2.64.55,3.92q0-.41-.09-.81c.44,3.44,1,6.83,1.6,10l0,.15c.28,1.49.57,3,.94,4.52s.83,3,1.25,4.21l.53,1.59c.81,2.46,1.65,5,2.68,7.41a32.8,32.8,0,0,0,2,3.83c.33.55.65,1.11,1,1.66s.71,1.24,1.08,1.85a40.79,40.79,0,0,0,5.36,7.39c.87.92,1.8,1.9,2.78,2.87l.44.44a40.73,40.73,0,0,0,3,2.82,35.25,35.25,0,0,0,4,2.79c1.29.78,2.68,1.45,4,2.09l.13.06c1.75.84,3.47,1.56,5.12,2.16,1,.35,2,.66,3,1l1.38.45a60.9,60.9,0,0,0,8.78,2.2c2.07.35,4.12.58,5.68.74,1.06.12,2,.19,2.89.22h.43a25.61,25.61,0,0,0,2.77-.2l.61-.06a35.4,35.4,0,0,0,5.14-1c1.71-.43,3.29-.88,4.84-1.35,2.94-.9,6-1.92,9-3.05a84.46,84.46,0,0,0,9.26-3.88l1.16-.58c2.48-1.26,5.05-2.56,7.53-3.93a51.94,51.94,0,0,0,8-5.63c1.28-1.06,2.51-2.14,3.64-3.23.5-.47,1-.93,1.51-1.35a24,24,0,0,0,2.42-2.41,29.64,29.64,0,0,0,2.3-2.85,25.45,25.45,0,0,0,1.43-2.41l.14-.26c.68-1.24,1.37-2.58,2.25-4.34l.48-1a39.59,39.59,0,0,0,1.78-3.85c.58-1.51,1.19-3.12,1.73-4.76.81-2.48,1.58-5,2.33-7.46L285,168l.15-.49c.44-1.41.87-2.82,1.28-4.23a42.27,42.27,0,0,0,1-4.61c.67-3.85,1.19-7.6,1.62-10.76.44-3.35.91-6.91,1.26-10.5.61-6.2.71-12.25.79-19.51l0-2c.06-6,.13-12.17-.2-18.25-.06-1.2-.17-2.4-.27-3.6l-.11-1.36c-.07-.86-.19-1.73-.3-2.58-.08-.6-.16-1.21-.22-1.81-.17-1.57-.33-3.14-.5-4.72-.18-1.79-.37-3.59-.56-5.38s-.46-3.61-.79-5.35c-.2-1.08-.47-2.15-.74-3.19l-.28-1.12c-.15-.59-.29-1.18-.43-1.77-.58-2.42-1.18-4.92-2-7.31-.5-1.47-1.1-3.18-1.83-4.82s-1.38-3.07-2.12-4.61-1.51-3-2.26-4.39a32.26,32.26,0,0,0-2.26-3.47l-.47-.67c-1.39-2-2.66-3.93-3.85-6a59.83,59.83,0,0,0-4.07-6c-.75-1-1.47-2.13-2.17-3.19q-.6-.95-1.23-1.86a42.84,42.84,0,0,0-4.05-5.19,18,18,0,0,0-2.32-2l-.49-.37c-.67-.51-1.41-1-2.37-1.69A28.12,28.12,0,0,0,250,12.68l-.13,0-1.11-.5c-.75-.33-1.5-.67-2.26-1l0,0c-.88-.38-1.79-.77-2.72-1.09-.75-.26-1.49-.52-2.24-.8l-.76-.29c-.59-.22-1.18-.45-1.78-.65a17.19,17.19,0,0,0-2.76-.64c-1.34-.22-2.7-.37-4-.51l-1.77-.2c-1-.13-2-.23-3.07-.32s-2-.19-3-.31h-.19a2.16,2.16,0,0,0-.66.1c-1.57-.67-3.13-1.3-4.65-1.88a30.31,30.31,0,0,0-6.5-1.62c-1.61-.22-3.53-.47-5.54-.59-.36,0-.71,0-1.07,0Zm6.05,144.08c-.89,0-1.76,0-2.58-.12a23.93,23.93,0,0,1-4.46-1.24,10.11,10.11,0,0,1-.89-.51,12,12,0,0,1-.82-.94,15.1,15.1,0,0,1-1.43-2.39,41,41,0,0,1-1.92-8.11c-.3-2.42-.51-4.63-.66-6.73-.13-1.82-.13-3.68-.14-5.48,0-.65,0-1.3,0-1.94,0-2.21.09-4.46.2-6.63l.05-.83c.11-2.19.35-4.35.63-6.75.56-3.82,1.1-7.27,1.67-10.53.29-1.68.65-3.38,1.1-5.2a41.16,41.16,0,0,1,1.53-4.59A26.41,26.41,0,0,1,205.86,81c.28-.16.56-.31.85-.44,1.4-.52,2.86-.91,4.28-1.29l.11,0a3.13,3.13,0,0,0,1-.48c1,.06,1.85.14,2.69.24,1.9.27,3.58.56,5.15.9a20.79,20.79,0,0,1,2.72.81l.35.12c.8.27,1.66.6,2.64,1l.14.06a23.44,23.44,0,0,1,2.13,1.06,21.38,21.38,0,0,1,2,1.3,14.27,14.27,0,0,1,1.65,1.65,32.66,32.66,0,0,1,2.87,5.36,44.8,44.8,0,0,1,2.38,9.22,40.4,40.4,0,0,1,0,6.85c-.15,2.4-.36,4.79-.64,7.12-.54,3.16-1.22,6.38-2.07,9.83a77.63,77.63,0,0,1-3,9.65,20.74,20.74,0,0,1-2.23,3.82l0,0h0l-.19.25c-.74.85-1.5,1.69-2.36,2.53a28.81,28.81,0,0,1-2.77,2.33,25.17,25.17,0,0,1-4.2,2.46,18.05,18.05,0,0,1-3,.77,40.56,40.56,0,0,1-4.49.27Z"/><path class="cls-1" d="M444.18,12.7a22.76,22.76,0,0,0-4.12.39,9.81,9.81,0,0,0-2.07.73l-.49.22a7.87,7.87,0,0,0-2.08,1.42,16.42,16.42,0,0,0-1.75,2l-.19.24a54.53,54.53,0,0,0-3.91,5.52l-1.06,1.74q-1.2,2-2.41,3.92c-1.26,2-2.43,3.81-3.57,5.47-1.3,1.89-2.69,3.75-4,5.55l-1.17,1.49c-1.44,1.82-2.93,3.7-4.25,5.66-.8,1.19-1.64,2.51-2.63,4.16l-.78,1.27c-.62,1-1.24,2-1.83,3.07l-1.2,2.11c-1.24,2.19-2.52,4.46-3.84,6.66-2.12,3.51-3.82,6.17-5.52,8.62-1.12,1.63-2.3,3.27-3.44,4.85-.69,1-1.38,1.91-2.06,2.87l-1.2,1.69c-1.58,2.21-3.21,4.49-4.72,6.8-.92,1.41-1.84,2.91-2.84,4.6-.65,1.11-1.28,2.26-1.88,3.38l-.57,1c-.34.62-.66,1.24-1,1.87s-.67,1.28-1,1.92l-1.19,2.17-1.19,2.16-.79,1.46c-.53,1-1.06,2-1.63,3L371,115.43c-.58,1-1.21,2-1.83,2.91-.31.49-.63,1-.94,1.48l-1.33,2.11L365.55,124c-3.47,5.52-6.94,11.33-10.29,17.25q-1.22,2.13-2.41,4.27l-2.4,4.27c-1.46,2.58-3.11,5.39-5.19,8.84-.56.92-1.11,1.85-1.66,2.77-1,1.7-2.05,3.45-3.11,5.16l-.21.33c-1.75,2.82-3.56,5.73-5.31,8.62-1.57,2.6-3.17,5.42-4.88,8.61a35.82,35.82,0,0,0-2.33,5.28,18.2,18.2,0,0,0-.93,6.12,24.08,24.08,0,0,0,.4,3.4l.14.86c.11.69.25,1.43.43,2.24a16.26,16.26,0,0,0,1.21,3.46,6,6,0,0,0,1,1.36,8.69,8.69,0,0,0,1.16,1c.31.24.6.46.91.66.48.31,1,.6,1.52.89l.15.19.15.19a17.68,17.68,0,0,0,2.35,2.31l.29.26a12,12,0,0,0,4.92,2.72,13.94,13.94,0,0,0,2.68.34l.24,0c.84.06,1.52.09,2.15.09a51.83,51.83,0,0,0,7.47-.7l.61-.09c1.23-.13,2.47-.31,3.67-.48l1.19-.17.37,0a17,17,0,0,0,2.12-.32,11.62,11.62,0,0,0,2.39-.89l3.91-1.88a23,23,0,0,0,3.82-2.24l.09-.07a16.25,16.25,0,0,0,2.14-1.81,17.91,17.91,0,0,0,1.83-2.41,35.51,35.51,0,0,0,2.05-3.65c.73-1.44,1.37-2.75,1.95-4,.75-1.6,1.4-2.91,2-4.11s1.39-2.4,2.11-3.55l.25-.4c.68-1.09,1.32-2.2,2-3.31.88-1.52,1.8-3.1,2.79-4.6,1.83-2.76,3.27-5.1,4.55-7.34q1.23-2.14,2.44-4.31l2.45-4.3c1.49-2.62,3.17-5.58,5.09-8.33,1.56-2.25,3-4.29,4.48-6.25l.1-.13c1.91-2.37,3.89-4.82,5.94-7.13,1.11-1.24,2.19-2.51,3.27-3.77s2.11-2.47,3.19-3.68c2.38-2.68,4.65-5.51,6.85-8.25,1.77-2.21,3.6-4.49,5.47-6.68,1.74-2,3.57-4,5.34-6,1-1.12,2.05-2.25,3.07-3.39l.35-.39c1.32-1.48,2.69-3,3.93-4.6.79-1,1.57-2,2.35-3,.48-.65,1-1.29,1.46-1.93,2.77-3.47,5.73-7.34,9.32-12.18l.32-.4c.87-1.11,1.77-2.26,2.58-3.44,1.05-1.54,2-3.13,2.73-4.35.56-1,1.09-1.94,1.59-2.9l.64-1.19.53-1c.53-1,1.07-2,1.59-3,.71-1.39,1.49-2.75,2.23-4,.86-1.48,1.66-3,2.32-4.2a69.81,69.81,0,0,0,4.06-8.82c1.37-3.77,2.47-7.57,3.35-10.78.11-.39.22-.78.34-1.17a38.52,38.52,0,0,0,1.05-4.3c.09-.59.16-1.19.22-1.78a7.75,7.75,0,0,0-1.22-4.75,9.62,9.62,0,0,0-2.85-2.65l-.61-.43L476.45,29l-.9-.72c-.74-.58-1.52-1.14-2.27-1.68l-.75-.54c-.58-.48-1.15-1-1.71-1.48s-.88-.78-1.33-1.16a27.15,27.15,0,0,0-4-2.88c-2.07-1.19-4.26-2.24-6.39-3.25l-2.21-1.06a50,50,0,0,0-4.85-2,26.28,26.28,0,0,0-5.83-1.41,19.11,19.11,0,0,0-2-.1Z"/><path class="cls-1" d="M347.6,24.27a10.87,10.87,0,0,0-1.86.16A16.93,16.93,0,0,0,341.26,26,15.62,15.62,0,0,0,338,28.16a10.14,10.14,0,0,0-2.65,3.61,5.77,5.77,0,0,0-.85.44,6.54,6.54,0,0,0-2.26,2.64,22.62,22.62,0,0,0-1.19,2.75,19.33,19.33,0,0,0-.73,3l0,.1a38.18,38.18,0,0,0-.51,4.15,37.75,37.75,0,0,0,.15,6.32,19.79,19.79,0,0,0,.59,3.33,22.53,22.53,0,0,0,1.41,3.7A33.71,33.71,0,0,0,335,63.5,14,14,0,0,0,340.27,68a19.38,19.38,0,0,0,6.52,1.93,19.66,19.66,0,0,0,2.45.15,28,28,0,0,0,4.93-.48,31.17,31.17,0,0,0,6.72-2.21A26.63,26.63,0,0,0,367,63.56a25.82,25.82,0,0,0,4.58-5,24.69,24.69,0,0,0,3.37-6.78,23.87,23.87,0,0,0,.74-3l.06-.3a32.29,32.29,0,0,0,.51-3.35l.08-.74c.08-.69.15-1.38.2-2.08a14.66,14.66,0,0,0-.86-6.13,18.17,18.17,0,0,0-4.12-6,14.14,14.14,0,0,0-5-3.26c-.8-.33-1.58-.59-2.24-.81a23.92,23.92,0,0,0-4.51-.85l-.81-.11c-1.5-.19-3-.29-4.53-.38-1.88-.12-3.4-.23-4.83-.36l-1.18-.11-.87,0Z"/><path class="cls-1" d="M466.33,125.68a23.88,23.88,0,0,0-3.67.36,12.94,12.94,0,0,0-4.16,1.52,11.94,11.94,0,0,0-1.09.72h-.13a2.74,2.74,0,0,0-.84.14l-1.18.42c-1.34.47-2.72.95-4,1.53a11.64,11.64,0,0,0-3.76,2.43,13.14,13.14,0,0,0-1.5,2c-.24.38-.47.76-.7,1.15a32.64,32.64,0,0,0-1.55,3.14l-.28.61c-.74,1.64-1.41,3.18-2.05,4.71a18.09,18.09,0,0,0-1.11,4.65l-.06.47c-.09.68-.18,1.36-.24,2l-.06.69c-.12,1.44-.25,2.92-.28,4.39s0,3.17.06,5a18,18,0,0,0,1.24,6.21,30.93,30.93,0,0,0,2.29,4.58l.21.33a24.9,24.9,0,0,0,2.65,3.7,21.35,21.35,0,0,0,3.18,2.88c.69.5,1.38,1,2.08,1.45a14.24,14.24,0,0,0,1.81,1l.14.07c.85.4,1.81.85,2.77,1.21a45.71,45.71,0,0,0,4.75,1.56,15.81,15.81,0,0,0,1.64.32l.73.13c.73.13,1.49.22,2.23.3l1,.12,1.48.16.74.07a22.76,22.76,0,0,0,2.31.13c.38,0,.75,0,1.14,0a12.23,12.23,0,0,0,4.15-1.15,26.28,26.28,0,0,0,5-3.29l.3-.24c.59-.48,1.21-1,1.78-1.48a22.62,22.62,0,0,0,3.69-4.05,23.61,23.61,0,0,0,2.17-3.95,24.41,24.41,0,0,0,1.44-4.56c.14-.65.25-1.31.37-2,.05-.32.11-.63.17-1,.11-.61.2-1.22.28-1.84l.15-1c.11-.7.22-1.43.28-2.14l.13-1.48.12-1.36c0-.59.06-1.2.06-1.79,0-.25,0-.5,0-.76a35.9,35.9,0,0,0-.17-4.7,16.67,16.67,0,0,0-.63-3.49,24.19,24.19,0,0,0-1.58-3.62l-.24-.49a24.85,24.85,0,0,0-6.83-7.73l-.23-.18a31.4,31.4,0,0,0-3.05-2.09c-.61-.37-1.23-.71-1.85-1.05L477,130c-1.7-.94-3.72-2-5.8-3a11.15,11.15,0,0,0-4.15-1.3l-.69,0Z"/></g></g></svg>