<svg xmlns="http://www.w3.org/2000/svg" viewBox="0 0 453.83 214.44"><defs><style>.cls-1{fill:#fff;}</style></defs><g id="Layer_2" data-name="Layer 2"><g id="Draw_Layer" data-name="Draw Layer"><path class="cls-1" d="M29.28,2.21c-.44,0-.89,0-1.33,0-1.67.09-3.36.21-5.16.37a39.86,39.86,0,0,0-5.32.82c-1.34.3-2.68.72-4,1.13l-.22.07a18.87,18.87,0,0,0-2.06.81,13.3,13.3,0,0,0-2.69,1.8,11.82,11.82,0,0,0-2.78,3.43A12.72,12.72,0,0,0,4.55,17c0,.84,0,1.67,0,2.51v1.26q0,3.38.08,6.75v1c0,.78,0,1.56,0,2.33,0,.93-.1,1.92-.25,3.18a183.88,183.88,0,0,0-1.8,19.59l0,2c-.06,2.59-.13,5.27-.3,7.9C2,66.93,1.8,70.32,1.49,73.72l-.18,1.85C1.08,78,.84,80.53.72,83c-.08,1.8-.16,3.6-.26,5.4,0,.54-.06,1.08-.1,1.63-.06,1-.13,2-.15,3L.14,95.62.07,98.15l0,1c0,1.28-.07,2.6,0,3.9l.07,1.15c.07,1.24.14,2.52.28,3.77l.12,1.12a31.86,31.86,0,0,0,.67,4.45,31.3,31.3,0,0,0,1.69,4.92c.26.61.62,1.42,1.05,2.21A16.06,16.06,0,0,0,5.55,123a38.74,38.74,0,0,0,2.82,3.12,17.21,17.21,0,0,0,3.84,2.72,17.25,17.25,0,0,0,4.64,1.73,29.32,29.32,0,0,0,5.26.55h.62c.56,0,1.11,0,1.67,0s1.17-.05,1.76-.05h.3l2,.07c.83,0,1.67.06,2.5.07H32.5c3.29,0,6.55-.11,9.68-.33,2-.14,4-.36,6-.64.82-.12,1.64-.26,2.46-.4s1.57-.27,2.36-.38c1.39-.18,3.24-.39,5.14-.46.73,0,1.45,0,2.17,0h1.45l2,0a33.34,33.34,0,0,0,6.23-.66l.63-.14c1.55-.34,3.16-.69,4.76-.94a28.06,28.06,0,0,1,3.12-.19h.36a34.12,34.12,0,0,1,3.89.34,24,24,0,0,1,4.62.94l.06.64c.12,1.15.24,2.33.26,3.49l0,1.54c0,1,0,2.05,0,3.07.09,3.7.25,6.7.52,9.47s.44,5.45.62,8.11l.1,1.57c.06.89.11,1.78.15,2.66.13,2.22.25,4.51.53,6.75.18,1.44.38,3.11.51,4.76.08,1.07.12,2.14.17,3.21,0,.52,0,1,.07,1.54l0,.56c.08,1.56.16,3.12.22,4.68,0,1,0,2,0,2.91v1.55c0,2.75,0,6.38.18,10.07.06,1.47.14,3.05.26,4.82s.37,3.61.61,5.17a15.07,15.07,0,0,0,.78,2.92,7.07,7.07,0,0,0,1.73,2.94,4.72,4.72,0,0,0,1.92,1.11,10.44,10.44,0,0,0,1.63.22c2.08.12,3.67.25,5.16.43s2.74.51,4,.81c1.61.36,3.27.56,4.87.76l.27,0c.64.08,1.3.13,2,.19h.22l.57.05c.71.06,1.44.13,2.16.13h.35a17.21,17.21,0,0,0,3.06-.39,12.06,12.06,0,0,0,1.71-.46,5.69,5.69,0,0,0,3.14-2.53,6.11,6.11,0,0,0,.65-2.07,13,13,0,0,0,.18-1.74c0-.52,0-1.05,0-1.57a8.4,8.4,0,0,0,.92-4.12c0-1.55-.11-3.13-.23-4.52-.13-1.57-.22-3.2-.28-4.86,0-1.34-.1-2.68-.16-4-.06-1.53-.12-3.06-.17-4.58.06-5,.19-8.92.42-12.58l.06-.87q.3-4.55.56-9.1c.18-3.33.33-6.67.48-10,0-.77.08-1.54.12-2.32s.07-1.35.1-2c.06-1.08.08-2.16.11-3.23l0-1.42c.07-2.64.27-5.46.61-8.6a53.62,53.62,0,0,1,1-5.27c.25-1,.51-1.93.79-2.89s.62-1.74,1-2.58a15.58,15.58,0,0,1,.82-1.64,10.53,10.53,0,0,1,.89-.81l.16-.12.36-.28c.18-.13.34-.26.5-.4l.65,0c1.23,0,2.47.05,3.7.05a29.89,29.89,0,0,0,9.77-1.53,11.22,11.22,0,0,0,3.73-2.11,5.72,5.72,0,0,0,1.68-2.57A8.37,8.37,0,0,0,154,112c.32-1.75.49-3.49.63-5.14.28-3.15.62-6.3.94-9.34,0-.3.06-.6.1-.9.08-.63.15-1.26.19-1.9.06-1,.11-1.93.15-2.9a46.56,46.56,0,0,0-.32-9,5.3,5.3,0,0,0-.52-1.52,4,4,0,0,0-1.61-1.86,6.76,6.76,0,0,0-1.71-.59l-.35-.06-.35-.06c-1-.17-2.06-.37-3.13-.47-.8-.08-1.58-.09-2.24-.09h-.26a21.92,21.92,0,0,1-2.43-.15,30.72,30.72,0,0,1-3.42-.74,19.74,19.74,0,0,0-4.5-.74h-.28a13.9,13.9,0,0,0-1.52.11c-.83.1-1.8.23-2.78.4l-1,.17c-.9.17-1.79.33-2.69.46a21.61,21.61,0,0,1-2.46.16h-.57c0-.9.14-1.82.23-2.72l.1-.87c.15-1.58.31-3.11.43-4.65s.29-3.24.47-4.77c.11-.94.19-1.88.28-2.82.06-.65.11-1.3.18-2l.3-3c.24-2.43.49-4.94.78-7.4.39-3.33.66-6.76.87-9.71s.28-5.71.21-8.82c-.07-3.77-.19-6.83-.37-9.63a39.43,39.43,0,0,0-.57-4.68,28.71,28.71,0,0,0-1.87-6.38,4.12,4.12,0,0,0-.38-.58,7.07,7.07,0,0,0-1.22-1.38,6.3,6.3,0,0,0-2.85-1.37,7.57,7.57,0,0,0-1.55-.14c-.36,0-.73,0-1.1,0-1.27.1-2.54.29-3.78.47l-.4.06a21.56,21.56,0,0,1-2.55.14c-.53,0-1.07,0-1.61,0-1-.07-2.07-.18-3.1-.28l-1.49-.15c-1.31-.12-2.48-.18-3.58-.18h-.92l-.45,0c-1.43,0-2.91.09-4.35.27a46.43,46.43,0,0,0-6.16,1.11,10.41,10.41,0,0,0-2.82,1.24,9.08,9.08,0,0,0-2.5,2.54,6.61,6.61,0,0,0-.94,3.31A6.84,6.84,0,0,0,83.25,17l0,.2c.38,3.19,1,6.33,1.65,9.25.25,1.13.42,2.06.55,2.91.34,3,.4,6,.46,9l0,.59c.07,3.36.23,6.72.39,9.87.11,2.16.13,4.36.15,6.49,0,1.08,0,2.16,0,3.24.06,2.91.14,6.33.37,9.71l0,.68A33.72,33.72,0,0,1,87,74.21a19.4,19.4,0,0,1-.78,3.23,5.58,5.58,0,0,1-.32.52l-.23.25-.09.05h0a16.32,16.32,0,0,1-3,.67c-3.35.37-6.77.48-10.08.57l-1.21,0-1.2,0c-1.52,0-3-.08-4.6-.17-1.83-.1-3.75-.27-5.88-.52l-1-.15a33,33,0,0,0-4.2-.51l-1.43,0c-1.05,0-2.19,0-3.59.12q-1.08.06-2.16.15c0-.89.11-1.79.2-2.67l0-.25c.12-1.09.23-2.18.31-3.27,0-.47.06-.94.08-1.41s.07-1.14.12-1.71c.08-1,.19-2,.33-3.06.38-2.76.74-5.53,1.09-8.29l.32-2.5.29-2c.4-2.74.81-5.58,1.13-8.38s.5-5.5.67-8.19l.06-1c.21-3.23.3-6.51.38-9.69l0-.71a61.64,61.64,0,0,0-.58-9.53c-.13-1-.31-2.12-.52-3.18C50.81,10.26,50,7.41,47.76,6a18,18,0,0,0-5.45-2c-1.3-.3-2.71-.56-4.31-.8q-1-.15-2-.33c-1.09-.18-2.23-.38-3.35-.5a27.87,27.87,0,0,0-3.36-.2ZM41.2,78.66l-1-.07-.3,0c-.66-.09-1.33-.19-2-.3-.87-.14-1.65-.3-2.41-.47a12.84,12.84,0,0,1-1.93-.64,8.69,8.69,0,0,1-1.07-.6l-.2-.18c-.19-.59-.34-1.2-.49-1.79-.08-.34-.17-.68-.26-1-.18-.65-.37-1.29-.57-1.93l-.21-.71a41,41,0,0,1-1.3-5.69c-.35-3-.48-5.87-.57-9.31a82.93,82.93,0,0,1,.19-9.33c.29-3.46.64-6.84,1-9.69.18-1.72.37-3.48.48-5.21.07-1.21.11-2.41.15-3.61l0-1.22c.05-1.35.1-2.67.12-4,0-1,0-2-.09-3l0-.9c-.12-2.49-.42-5-.74-7.23l-.16-1.35-.16-1.34-.09-.7h.1a24.23,24.23,0,0,1,2.64.16l1,.17c1.62.25,3.25.51,4.87.79a31.47,31.47,0,0,1,5.58,1.39c.21.1.42.2.63.32l.18.32a28.74,28.74,0,0,1,1.11,4.85,67.16,67.16,0,0,1,.51,7.21c0,2.09-.06,4.23-.13,6.29L46,31.6c-.17,5-.57,10.22-1.19,15.49-.13,1-.27,1.95-.42,2.92-.23,1.56-.46,3.13-.66,4.7-.33,2.49-.64,5-1,7.47l-.15,1.09c-.19,1.28-.37,2.56-.52,3.84s-.28,2.9-.38,4.75c-.07,1.27-.21,2.55-.34,3.79l-.09.77a18.14,18.14,0,0,0-.12,2.24Z"/><path class="cls-1" d="M33.72,7.27A9.64,9.64,0,0,0,30.41,8a6.49,6.49,0,0,0-3.87,5.25,10.53,10.53,0,0,0,.6,3.64c.18.68.31,1.37.43,2.06a2.6,2.6,0,0,0,.05.39A14.58,14.58,0,0,0,27.89,21c.18,1,.47,2,.71,2.95.09.38.17.75.25,1.13,0,.18-.05.35-.07.53a3.85,3.85,0,0,0-.58.08,3.62,3.62,0,0,0-1.75.92,2.36,2.36,0,0,0-.61.92,3,3,0,0,0-.42,1.55,16,16,0,0,0,.11,2.49c0,1.73.1,3.46.16,5.19a73.53,73.53,0,0,0,.85,8.36l.15,7.9c.07,3.06.15,6.11.3,9.17.17,3.42.33,6.85.52,10.27.23,3.92.4,7.86.73,11.78,0,.56,0,1.12,0,1.68,0,3.14-.06,6.28.07,9.43a3.13,3.13,0,0,0,2.25,3A3.07,3.07,0,0,0,32.91,98a3.25,3.25,0,0,0,1.41-1.84c.2-.53.39-1,.54-1.6a13.35,13.35,0,0,0,.32-1.65c.24-1.39.38-2.79.51-4.18.11-1.07.18-2.14.27-3.2l.22.07a3.15,3.15,0,0,0,1.33.06,3.51,3.51,0,0,0,.53.4,3.07,3.07,0,0,0,3.1,0,3,3,0,0,0,1.33-1.21A4.11,4.11,0,0,0,43,83c0-.29,0-.58,0-.86a3.13,3.13,0,0,0,.16-.62c.1-.71.12-1.42.19-2.14.13-1.29.17-2.6.25-3.9.05-.86.09-1.72.14-2.59,0-.63.06-1.26.09-1.9A17.84,17.84,0,0,0,43.44,67a2.49,2.49,0,0,0-.2-.6c0-.77,0-1.54,0-2.31l.06-2.74a3.42,3.42,0,0,0,.69-.51l.48-.63a3.08,3.08,0,0,0,.42-1.55c.14-1.09.25-2.19.35-3.29a1.86,1.86,0,0,0,.24-.67c.13-.9.24-1.8.36-2.7.43-3.09.89-6.18,1.48-9.24a50.4,50.4,0,0,0,.8-5.31c.14-1.6.24-3.2.31-4.8,0-.74.07-1.48.08-2.22s.07-1.77,0-2.65c-.09-1.87-.22-3.72-.48-5.57A26.67,26.67,0,0,0,47,17.41l-.24-.67,0-.09c.16-.2.32-.41.47-.63a4.05,4.05,0,0,0,.38-.75,3.07,3.07,0,0,0-3.63-4.9,3.88,3.88,0,0,0-.64.46,7.84,7.84,0,0,0-2.66-1.52,18.64,18.64,0,0,0-1.83-.6c-.56-.15-1.14-.27-1.71-.4a2.62,2.62,0,0,0-1.47-.92,11.87,11.87,0,0,0-1.57-.13Zm13.91,8Zm-.25.24,0,0,0,0Z"/><path class="cls-1" d="M240.56,0h-.38a3.16,3.16,0,0,0-2.72,1.64c-.57.15-1.13.28-1.7.39-.75.05-1.58.08-2.61.08h-1.59l-1.15,0h-2.23c-1.05,0-1.85,0-2.6.06s-1.61.12-2.41.2a14.7,14.7,0,0,0-2.61.46,13.27,13.27,0,0,0-3,1.32c-.94.54-1.87,1.12-2.79,1.69l-1.37.85c-.39.23-.79.46-1.2.68l-.67.37c-.84.48-1.64,1-2.45,1.51-1.28.82-2.49,1.77-3.67,2.7l-.66.52c-.83.64-1.64,1.3-2.46,2l-1,.77-.57.45a28.93,28.93,0,0,0-3.42,3A16.84,16.84,0,0,0,194.44,24l-.3.73-1.06,2.55-.39.92c-.46,1.08-.92,2.16-1.39,3.24-.33.77-.68,1.53-1,2.29s-.62,1.36-.92,2a60.24,60.24,0,0,0-3.47,9.59A90.6,90.6,0,0,0,184,55.73c-.37,3.14-.76,6.48-1,9.86-.22,3-.26,6-.31,9v.75l0,3.76v1.25l0,1.37c0,1.11,0,2.23,0,3.34,0,2,.12,4,.2,6,.06,1.43.11,2.85.16,4.28.1,3.15.1,6.39,0,9.91-.07,2.75-.25,5.55-.42,8.25-.23,3.66-.47,7.44-.46,11.17a40.69,40.69,0,0,0,1.38,8.85c.11.5.22,1,.34,1.49l.93,4.2c.38,1.75.76,3.49,1.16,5.24s.77,3.42,1.15,5.13c1,4.71,2.13,9.58,3.5,14.3.81,2.77,1.83,5.73,3,8.81.22.56.43,1.13.65,1.69.34.9.68,1.79,1,2.68a29.94,29.94,0,0,0,1.64,3.52c.41.72.88,1.43,1.34,2.12l.45.69c1.71,2.62,3.26,5.3,4.83,8.05A83.59,83.59,0,0,0,209.1,200c.77,1,1.6,2.08,2.39,3.08l.91,1.13a28.13,28.13,0,0,0,4,4.39,13.49,13.49,0,0,0,6.13,2.6,23.33,23.33,0,0,0,4.77.46c.94,0,1.9,0,2.94-.14,1.46-.12,2.92-.34,4.53-.59l.83-.13c.58-.08,1.16-.16,1.73-.28l2.51-.51a29.16,29.16,0,0,0,5.15-1.66c1.51-.61,3-1.33,4.45-2l.75-.36c1-.46,1.92-1,2.87-1.45l.86-.45c1.31-.68,2.62-1.29,3.84-1.85l.87-.34c4.26-1.7,8.66-3.46,12.5-6.1A40.25,40.25,0,0,0,281,185.54c1.2-1.68,2.32-3.46,3.39-5.17l.59-.94q2.53-4,5.14-8l.15-.24c1.72-2.67,3.27-5.5,4.77-8.23l.17-.31c.19-.36.37-.74.54-1.12.08-.18.16-.36.25-.54l.85-1.79.45-.95c.1-.21.19-.43.28-.64l.05-.12.19-.45a3,3,0,0,0,.31-.72l.05-.13.05-.12c.24-.55.46-1.09.69-1.63l0-.12h0a3.32,3.32,0,0,0,.27-.64v0c.71-1.7,1.39-3.41,2.08-5.12.5-1.27,1-2.54,1.53-3.8l.28-.68c.46-1.13.95-2.31,1.33-3.5.53-1.62,1.07-3.36,1.64-5.34a130.84,130.84,0,0,0,3.61-19.58l.18-1.34c.16-1.18.32-2.37.46-3.56.2-1.7.37-3.48.53-5.6.23-3,.31-6.29.24-9.94,0-1.23-.07-2.47-.12-3.7l0-1.1c0-.53,0-1-.05-1.58,0-1-.05-2-.1-3-.19-3.44-.39-7-.91-10.52-.91-6.12-2.14-12.66-3.85-20.6-.31-1.43-.67-3-1.08-4.67-.15-.63-.31-1.26-.49-1.87a23.08,23.08,0,0,0-1.14-2.93c-.37-.81-.73-1.55-1.08-2.28l-.41-.83c-.45-.93-.93-1.86-1.41-2.78l-.73-1.41A47.71,47.71,0,0,0,294,29.35c-.47-.56-1-1.19-1.58-1.76l-1-1a17.71,17.71,0,0,1-1.82-2l-.38-.52a76.65,76.65,0,0,0-5.73-7.23l-3.16-3.39c-1-1.1-2.06-2.23-3.22-3.27a34.45,34.45,0,0,0-4-2.93l-.1-.06c-.87-.57-1.74-1.19-2.57-1.79l-.69-.49a25,25,0,0,0-5.68-2.77A20.27,20.27,0,0,0,258.92,1C258.11.9,257.3.88,256.4.85H256l-1.4,0h-.81c-.71,0-1.44.11-2.14.18-.89.09-1.81.19-2.71.19q-.39,0-.78,0c-.65-.12-1.29-.27-1.93-.42L245.12.5a21.17,21.17,0,0,0-4.56-.5Zm1.05,141-.65,0c-.22-.05-.43-.11-.64-.18a15.24,15.24,0,0,1-2-1.17c-.23-.21-.45-.42-.66-.64s-.31-.55-.44-.83a32.71,32.71,0,0,1-1.16-3.92c-.27-1.22-.48-2.48-.68-3.7l-.11-.66-.26-1.52c-.42-2.57-.85-5.15-1.24-7.72-.4-3-.68-5.72-.87-8.19-.08-1.09-.15-2.19-.22-3.28-.12-1.89-.24-3.83-.44-5.74-.33-3.16-.62-6-.84-8.86V94.4c-.17-2.25-.35-4.58-.33-6.9a56.57,56.57,0,0,1,.52-6.28l0-.16.13-.88c.09-.53.17-1.07.26-1.6a3.19,3.19,0,0,0,2.28-1,2.75,2.75,0,0,0,.77-2c0-.33,0-.63,0-1a14.22,14.22,0,0,1,.63-2.07l.07-.15,1.06-.33,2.28-.64a3,3,0,0,0,1.45-.91l.41-.14.85-.28a49,49,0,0,0,5.65-2.27l.16-.07,1.71-.69.86-.34c.59-.24,1.19-.5,1.77-.76l.16-.06c.33-.14.64-.31,1-.47l.39-.2.19,0h.12l.31.09a9.33,9.33,0,0,1,1,.59,7.4,7.4,0,0,1,.57.55,15.69,15.69,0,0,1,1.24,2.37c.3.66.58,1.33.87,2l.06.13h0l.05.15c.37.9.74,1.81,1.1,2.72l.28.68.5,1.22.5,1.22.19.46a22.79,22.79,0,0,1,1.39,4.13c.11,1.45.09,2.93.08,4.36v.62c0,1.37-.1,2.76-.19,4.11q-.15,2.36-.36,4.71c-.1,1.17-.25,2.32-.4,3.5l-.13.89c-.25,1.7-.51,3.46-.89,5.17-.08.36-.16.72-.23,1.09-.16.75-.32,1.5-.51,2.24l-1,3.72c-.55,2.11-1.26,4.23-1.94,6.27l-.08.22c-.7,2.12-1.48,4.17-2.28,6.25l-.2.46A60.41,60.41,0,0,1,247.4,137a22.65,22.65,0,0,1-3,3.09,10.14,10.14,0,0,1-1.08.66,7.81,7.81,0,0,1-1,.25c-.26,0-.51,0-.77,0Z"/><path class="cls-1" d="M235.06,54.07q-1.08,2-2.13,4.1a2.62,2.62,0,0,0-1.41.81,27.78,27.78,0,0,0-2.82,4.31l-2,3.32c-1,1.62-1.86,3.29-2.78,4.94s-1.75,3.19-2.61,4.8c-.45.83-.88,1.68-1.3,2.52a30.52,30.52,0,0,0-1.79,4.06,3.07,3.07,0,0,0,.79,3,3.15,3.15,0,0,0,1.52.82,61.56,61.56,0,0,0-2,6.2A3.08,3.08,0,0,0,223,96.41a3.29,3.29,0,0,0,1.41-1.84l.41-1.08.11,0a3,3,0,0,0,1.74,0l-.15.94c-.27,1.74-.54,3.48-.77,5.23-.21,1.6-.3,3.23-.38,4.83a66.92,66.92,0,0,0-.15,7.22c.14,2.44.49,4.89.78,7.32a128.91,128.91,0,0,0,2.19,14.51,3.07,3.07,0,1,0,5.92-1.63c-.43-1.83-.77-3.66-1.06-5.52q-.92-6.94-1.64-13.91a44.8,44.8,0,0,1,.05-7c.12-2.28.28-4.56.56-6.83.32-2,.63-3.93,1-5.89a30,30,0,0,1,.63-3.11c.29-1,.6-2.07.91-3.1.65-2.11,1.28-4.24,2-6.32s1.62-4.39,2.48-6.57c.26-.61.52-1.21.82-1.8.43-.86.84-1.75,1.34-2.58a3,3,0,0,0,.67-1.94A3.17,3.17,0,0,0,240,64.52a2.58,2.58,0,0,0-.31-.36,3,3,0,0,0-2.44-.87q1.54-3.07,3.16-6.12a3.05,3.05,0,0,0-2.64-4.61,3,3,0,0,0-2.67,1.51Zm3.83,20-.11.24.11-.24Z"/><path class="cls-1" d="M404.66,3.75h0c-.44,0-.89.08-1.33.15a7.85,7.85,0,0,0-1.59.66,5.9,5.9,0,0,0-1.11.84l-.21.19a6.83,6.83,0,0,0-.91,1,23.13,23.13,0,0,0-1.78,2.57,22,22,0,0,0-1.38,2.95l-.08.2a34.43,34.43,0,0,0-1.69,6.1c-.28,1.37-.47,2.77-.66,4.13l-.05.39c-.06.45-.12.91-.17,1.37s-.35.9-.52,1.36c-.47,1.34-.95,2.67-1.4,4-1.87,5.62-4,11-5.84,15.6l.05-.11-.11.26c-.88,2.07-1.79,4.23-2.63,6.37-.36.93-.64,1.91-.91,2.86l-.21.71c-.35,1.18-.66,2.38-.95,3.5s-.61,2.29-.95,3.43c-.11.38-.21.76-.32,1.14l-.42,1.46-.15.29-.15.29c-1.34,2.66-2.9,5.82-4.33,9-.68,1.52-1.35,3.12-2.05,4.9-.52,1.3-.94,2.66-1.35,4l-.2.67c-.9,2.87-1.82,5.75-2.74,8.56l-.68,1.71c-.83,2.07-1.67,4.15-2.52,6.22l-.75,1.83c-1,2.45-2.06,5-3,7.51l-.19.54c-.53,1.47-1.07,3-1.55,4.51-.57,1.8-1.14,3.6-1.69,5.41s-1.06,3.3-1.72,5.24c-.43,1.24-.94,2.48-1.44,3.67l-.15.36-1,2c-1.06,2.28-2.13,4.55-3.17,6.84-.59,1.28-1.33,3-1.93,4.7-.24.71-.47,1.41-.7,2.11s-.54,1.64-.82,2.45c-.38,1.11-.77,2.21-1.16,3.31-.72,2.06-1.44,4.11-2.13,6.18-.82,2.43-1.6,5.1-2.47,8.4l-.18.62c-1,3.32-1.72,6.25-2.28,9l-.23,1.12c-.23,1.15-.47,2.29-.72,3.44-.65,1.54-1.32,3.12-1.93,4.71-.38,1-.7,2-1,2.91s-.49,1.72-.74,2.87c-.07.39-.12.79-.17,1.18s.1.76.16,1.13a3.25,3.25,0,0,0,1.56,1.95,2.37,2.37,0,0,0,1.25.43,7.55,7.55,0,0,0,.35.75,9.41,9.41,0,0,0,1,1.51,9.21,9.21,0,0,0,1.41,1.45,21.61,21.61,0,0,0,2.25,1.65,15,15,0,0,0,3.53,1.52l1.58.46c.84.25,1.68.49,2.52.76,1.27.42,2.53.93,3.75,1.42s2.68,1.09,4.06,1.52a29.6,29.6,0,0,0,4.44,1c1,.16,1.89.28,2.71.37l1.18.11.53,0a8.66,8.66,0,0,0,2.32-.35,9.9,9.9,0,0,0,4.49-2.77,15.41,15.41,0,0,0,3-5.71c.35-1.11.68-2.22,1-3.33l.54-1.78.07-.25c.87-2.85,1.76-5.79,2.86-8.62q1-2.62,2.09-5.22c1.91-4.47,3.93-9,5.88-13.36l.12-.27.72-1.61c.77-1.72,1.57-3.5,2.32-5.27s1.39-3.36,2.08-5l1.05-2.58c1.61-3.78,3.11-7.2,4.59-10.45,1.16-2.55,2.25-5.2,3.29-7.75l1.32-3.2c1.16-2.66,2.67-6.17,4.13-9.68L409,119c1-2.43,2.07-4.94,3-7.46l1.15-3.17q1.16-3.16,2.28-6.34c1.09-3.12,2-6.24,3.06-9.71.45-1.52.91-3,1.37-4.56l.34-1.12c.31-1,.62-2.11,1-3.14.63-1.75,1.33-3.51,2-5.2.54-1.35,1.08-2.7,1.59-4.06a37.67,37.67,0,0,0,1.45-4.64c.37-1.56.67-3.07.91-4.59.51-3.15,1.3-6.28,2.12-9.49.37-1.41.8-2.86,1.31-4.32.4-1.18.88-2.36,1.34-3.51l.47-1.16a38.19,38.19,0,0,0,1.44-4.25l.27-1c.3-1.09.6-2.22.84-3.35a36,36,0,0,0,.91-10.31c0-.57-.09-1.13-.14-1.7a3.56,3.56,0,0,0,.73-.53,3,3,0,0,0,.79-3,6,6,0,0,0-.82-1.5c-.4-.53-.8-1.07-1.21-1.59a26.25,26.25,0,0,0-1.84-2.09,16.14,16.14,0,0,0-1.82-2.55c-.74-.88-1.41-1.67-2.15-2.43-.49-.5-1.07-1.1-1.71-1.67a13.47,13.47,0,0,0-1.55-2.1A12.35,12.35,0,0,0,424.48,7a11.77,11.77,0,0,0-2-1.29A13.05,13.05,0,0,0,421,5a12.19,12.19,0,0,0-4.4-.79l-.7,0-.51,0-.55-.07-.24,0a10.77,10.77,0,0,0-1.36-.13,3.86,3.86,0,0,0-1,.13,2.82,2.82,0,0,0-1,.5H411c-.6,0-1.19,0-1.78-.05a18.94,18.94,0,0,0-4.55-.89Z"/><path class="cls-1" d="M354.82,17.21a9.81,9.81,0,0,0-1.24.08,26.2,26.2,0,0,0-8.06,3,8.85,8.85,0,0,0-.84.5,11.42,11.42,0,0,0-2.2.6,11,11,0,0,0-2.81,1.51A14.58,14.58,0,0,0,338.28,24a7.3,7.3,0,0,0-1,1.21l-.25.36A19.09,19.09,0,0,0,335.12,29a19.36,19.36,0,0,0-1.55,7,30.86,30.86,0,0,0,.6,7,36.8,36.8,0,0,0,1.1,4.34,12.3,12.3,0,0,0,1.73,4,9.09,9.09,0,0,0,1.08,1.25c.14.32.3.63.46.94A7.7,7.7,0,0,0,341,56a11.21,11.21,0,0,0,2.8,1.36,6.8,6.8,0,0,0,1.92.35l.68,0c.3,0,.61,0,.92,0a14.44,14.44,0,0,0,4-1A27.35,27.35,0,0,0,354.81,55a13.72,13.72,0,0,0,2.6-1.13,23.76,23.76,0,0,0,2.43-1.67l.23-.17c.69-.51,1.5-1.13,2.27-1.8l.36-.32c.68-.58,1.35-1.17,2-1.78a15.85,15.85,0,0,0,3.51-5.77c.39-.94.75-2,1.14-3.24a24.71,24.71,0,0,0,.84-3.65,9.33,9.33,0,0,0,.12-1.81,11.63,11.63,0,0,0-.29-1.79,13.84,13.84,0,0,0-1.2-3l0-.09a22.45,22.45,0,0,0-4.28-5.52l-.94-1A22.5,22.5,0,0,0,360,18.8a8.93,8.93,0,0,0-5.16-1.59Z"/><path class="cls-1" d="M427.72,134.93a15.6,15.6,0,0,0-1.85.12,11.94,11.94,0,0,0-1.44-.07h-.17a11.55,11.55,0,0,0-6.82,2.48,11.06,11.06,0,0,0-3.8,3.89,35.93,35.93,0,0,0-3.15,6.67c-.48,1.26-.88,2.57-1.24,3.8a30.58,30.58,0,0,0-1,4.29,14.23,14.23,0,0,0-.23,3.39,10.49,10.49,0,0,0,1.15,3.59,16.42,16.42,0,0,0,1.65,2.61l.06.09c.63.89,1.31,1.78,2,2.65a21.77,21.77,0,0,0,1.84,3.64,16.75,16.75,0,0,0,11.11,7.32,17,17,0,0,0,3.16.28h.35a24.36,24.36,0,0,0,3.53-.42,24.68,24.68,0,0,0,12.34-6.35,26.81,26.81,0,0,0,4.59-5.7,36.6,36.6,0,0,0,2.81-6.13,15.67,15.67,0,0,0,1.2-6.88,14.87,14.87,0,0,0-2.27-6.58,20.94,20.94,0,0,0-4.67-5.08,36.07,36.07,0,0,0-5.51-3.73,33.75,33.75,0,0,0-6.7-2.7,25.9,25.9,0,0,0-6.6-1.18Z"/></g></g></svg>