<svg xmlns="http://www.w3.org/2000/svg" viewBox="0 0 521.3 224.57"><defs><style>.cls-1{fill:#fff;}</style></defs><g id="Layer_2" data-name="Layer 2"><g id="Draw_Layer" data-name="Draw Layer"><path class="cls-1" d="M110.41,9.38c-.55,0-1.1,0-1.65,0a26.4,26.4,0,0,0-4.33.61l-.6.12A25.49,25.49,0,0,0,98.32,12c-.69,0-1.39,0-2.08,0l-1.6,0c-1.43-.14-2.85-.19-4-.21h-.14l-1.65,0a18.24,18.24,0,0,0-4.37.43,11.11,11.11,0,0,0-2,.72l-.3.14a8.51,8.51,0,0,0-1.2.61c-.87.54-1.66,1.13-2.6,1.84a5.6,5.6,0,0,0-.89.78c-1.23.49-2.47,1-3.7,1.55l-.1,0-.13.07h0l-.2.09-.48.2.61-.24-2.48,1-2.5,1q-5,2-10,4c-.87.34-1.77.62-2.65.9a38,38,0,0,0-7,3.13c-1.29.72-2.54,1.55-3.75,2.34l-.56.37c-.29.2-.58.38-.88.57-.55.36-1.1.71-1.63,1.09l-1.21.85-1.22.86a51.58,51.58,0,0,0-6.53,5.58c-.46.45-.89.93-1.33,1.41l-.63.69-.3.32c-.43.46-.87.92-1.28,1.39-2.36,2.71-5,5.78-7.48,8.92-1.29,1.65-2.55,3.32-3.81,5s-2.19,2.93-3.1,4.41l-.06.08c-.45.73-.91,1.47-1.33,2.24s-.76,1.51-1.13,2.27l-.07.16a56.94,56.94,0,0,0-2.35,5.76A50.81,50.81,0,0,0,8.85,77.4c-.41,1.81-.87,3.74-1.43,5.65l-.55,1.82a86.64,86.64,0,0,0-2.24,8.52c-.22,1.14-.42,2.38-.64,3.9-.06.41-.11.82-.17,1.23l-.1.79-.12.88a3.36,3.36,0,0,0-.11.82c0,.11,0,.22,0,.33l-.08.6-.08.61c-.12.77-.24,1.6-.36,2.42-.14,1-.29,2-.43,3l-.3,2c-.19,1.26-.39,2.52-.54,3.79-.53,4.41-.91,8.06-1.19,11.49-.12,1.45-.19,2.93-.26,4.36L.15,131C.07,132.72,0,134.53,0,136.3a34.2,34.2,0,0,0,.68,6.21A31.41,31.41,0,0,0,2,146.68l.16.42c1,2.73,2.08,5.5,3.37,8.45.51,1.17,1,2.32,1.56,3.47s1.15,2.51,1.7,3.78,1,2.55,1.47,3.83l.37,1c.72,1.91,1.52,3.87,2.43,6a71.68,71.68,0,0,0,4.71,9.62c1,1.7,2,3.18,2.92,4.53.54.79,1.1,1.57,1.66,2.35s.93,1.31,1.39,2c.79,1.12,1.56,2.25,2.32,3.39,1.21,1.77,2.45,3.6,3.73,5.37a35,35,0,0,0,4.47,5.32,38.09,38.09,0,0,0,5.83,4.45A46.38,46.38,0,0,0,46,213.67l.67.28.3.13c.24.12.5.22.75.32a3.42,3.42,0,0,0,.65.27,55.18,55.18,0,0,0,9.54,3l2.95.58c2.5.49,5.09,1,7.58,1.71.72.21,1.43.43,2.14.66,1,.3,2,.62,3,.87,1.18.3,2.37.56,3.56.82l1.66.37a73.38,73.38,0,0,0,11.68,1.49c2.87.17,6.12.36,9.28.36h1.62a22.6,22.6,0,0,0,5.29-.72,32.19,32.19,0,0,0,4.57-1.62,41.12,41.12,0,0,0,4.65-2.31l1.5-.85c1-.57,2.07-1.17,3.08-1.8a7.3,7.3,0,0,0,.72-.52l.35-.26.38-.28c.39-.28.79-.56,1.15-.87l1.27-1.09,1.1-.94c1.26-1.08,2.45-2.28,3.61-3.45l.5-.5c1.05-1,2.08-2.12,3.11-3.2l.47-.49,1.18-1.22c.91-.95,1.82-1.89,2.72-2.85l1-1c1-1,2-2.07,2.85-3.18,2.48-3.16,4.89-6.27,7-9.57,1-1.48,1.92-3,2.74-4.52a51.55,51.55,0,0,0,2.08-4.78l.28-.69c.48-1.21.87-2.49,1.25-3.72.15-.49.3-1,.46-1.47a38.75,38.75,0,0,0,1.27-5.59,92.68,92.68,0,0,0,.92-10.36l.06-1.16a62.93,62.93,0,0,0-.22-11.7,43.73,43.73,0,0,0-2.54-9.58,60.28,60.28,0,0,0-5.27-10.13c-.77-1.25-1.67-2.7-2.66-4.07s-1.89-2.47-2.86-3.64l-.76-.93a54,54,0,0,0-7.23-7,26.21,26.21,0,0,0-4.72-3.26,18.79,18.79,0,0,0-4.36-1.73c-1-.23-1.93-.44-2.9-.63l-2.35-.47c-1.08-.22-2.15-.44-3.23-.64-1.94-.36-4-.58-5.88-.78l-.31,0c-2.07-.22-4.19-.35-6.24-.48-1.39-.08-2.78-.17-4.16-.28l-.62-.05c-2.63-.21-5.36-.43-8-.43-.77,0-1.54,0-2.31,0a46.59,46.59,0,0,0-5.19.68l-.69.12-2.36.39-3.14.51c-.85.14-1.69.32-2.53.5a18.23,18.23,0,0,0-2.32.69l-.46.16c-1.44.5-3,1.1-4.92,1.89-1.24.51-2.7,1.14-4.12,1.88a37.67,37.67,0,0,0-3.24,2l-.11.07a32.6,32.6,0,0,0-6.07,4.83,32.08,32.08,0,0,0-4.75,6.41c-.18.32-.34.65-.49,1l0-.18h0c-.52-2.44-.9-4.9-1.31-7.84s-.66-5.89-1-8.83a38.35,38.35,0,0,1-.07-8c.15-.84.34-1.67.57-2.52A20,20,0,0,1,49,91c1-2.26,1.87-4.21,2.78-6A40.77,40.77,0,0,1,55,79.83a46.16,46.16,0,0,1,6.16-6.48,26.11,26.11,0,0,1,4.6-2.47l.64-.27a3.76,3.76,0,0,0,.55-.23l.66-.27,2-.84.38-.16,1.65-.72.68-.29L72.5,68c1-.39,1.94-.8,2.93-1.14s2.2-.69,3.28-1L79,65.8c1.16-.33,2.52-.73,3.84-1.17s2.59-1,3.79-1.48a61.09,61.09,0,0,1,8.94-2.79q1.25-.3,2.49-.63c2.35-.6,4.77-1.22,7.2-1.63a80.73,80.73,0,0,1,9.58-.7l1.52,0c1.93.07,3.83.22,5.66.47a3.78,3.78,0,0,0,.81.12l.19,0A52.56,52.56,0,0,1,132.14,60l.88.31c.44.16.88.32,1.32.46a10,10,0,0,0,3,.48,8.07,8.07,0,0,0,3-.56,8.54,8.54,0,0,0,1.54-.74,9.72,9.72,0,0,0,1.3-1l.11-.1A12.3,12.3,0,0,0,145.47,56a23,23,0,0,0,1.23-2.42,35.88,35.88,0,0,0,1.87-5.13,37.87,37.87,0,0,0,1-5.62l.15-1.4c.14-1.28.28-2.55.43-3.82l.14-1.09a35.27,35.27,0,0,0,.38-4.11,20,20,0,0,0-.71-5.79,20.31,20.31,0,0,0-.74-2A16.09,16.09,0,0,0,147.91,22a14.74,14.74,0,0,0-1-1.41l-.25-.31a12.38,12.38,0,0,0-1.88-1.8c-.55-.47-1.16-.93-1.8-1.39a12.53,12.53,0,0,0-2.84-1.36c-.6-.22-1.23-.38-1.84-.54l-.63-.17c-.85-.22-1.72-.43-2.68-.62L133,13.94c-1-.23-2.07-.45-3.11-.65A29.65,29.65,0,0,1,125,12l-.48-.18-.14,0a3.13,3.13,0,0,0-.64-.91,3.68,3.68,0,0,0-2.48-1l-1,0c-2.37-.14-4.82-.28-7.24-.33l-2.67,0ZM89.12,147.16A3.13,3.13,0,0,0,90,147a16.3,16.3,0,0,1,2.21-.44c.27,0,.54-.08.81-.14h.13c.48.1.95.24,1.43.38s.89.25,1.34.35c.88.2,1.8.31,2.69.42l.24,0a18.34,18.34,0,0,1,3.38.8,12.75,12.75,0,0,1,1.86,1.16,13.39,13.39,0,0,1,1.52,1.48,12.75,12.75,0,0,1,.7,1.24,38.62,38.62,0,0,1,2.23,7.89,22.3,22.3,0,0,1,0,3.65,22.65,22.65,0,0,1-.84,2.92l0,.12c-.33,1-.67,2-1.05,3a10.74,10.74,0,0,1-.91,1.6,22.07,22.07,0,0,1-2.85,2.74,22.36,22.36,0,0,1-3.34,2,22.94,22.94,0,0,1-3.85,1,16,16,0,0,1-1.67.09c-.53,0-1.06,0-1.57-.08L90.73,177a39.79,39.79,0,0,1-8.55-1.89,17.34,17.34,0,0,1-2.24-1.27,22.19,22.19,0,0,1-2.8-3,9.88,9.88,0,0,1-2.08-4.49,40,40,0,0,1,.21-7.19,22.8,22.8,0,0,1,1-4,12.31,12.31,0,0,1,.91-1.57,19.11,19.11,0,0,1,1.74-1.8c1-.65,2-1.23,3.07-1.8l.43-.24,4.35-2.41c.64,0,1.28-.1,1.92-.17l.18,0Z"/><path class="cls-1" d="M283.66,0a34.12,34.12,0,0,0-3.48.21l-2,.21L275,.75a96.6,96.6,0,0,0-11.38,1.48,46.08,46.08,0,0,0-5,1.28A25.13,25.13,0,0,0,256,4.64l-.39.19c-.81.38-1.65.8-2.49,1.25C252,6.64,251,7.19,250,7.81a30.06,30.06,0,0,1-3.21,1.82,60.42,60.42,0,0,1-6.55,2l-.52.14a34.17,34.17,0,0,0-5.19,1.83,22.83,22.83,0,0,0-3.7,2.25,36.53,36.53,0,0,0-3.62,2.84c-1.05,1-2,2-2.71,2.78A34.26,34.26,0,0,0,222,24.7l-.43.59c-.35.48-.68,1-1,1.46a78.06,78.06,0,0,0-6.93,5.05,30,30,0,0,0-3.4,3.32,35.9,35.9,0,0,0-3.45,4.55,52.44,52.44,0,0,0-4.47,9.83l-.32.84c-1.29,3.42-2.58,6.83-3.84,10.26-.18.51-.38,1-.57,1.52-.43,1.13-.88,2.29-1.23,3.45l-.07.22c-.51,1.67-1,3.4-1.45,5.14-.78,3.22-1.26,6.56-1.73,9.79L193,81.89l-.51,3.46c-.37,2.54-.74,5.07-1.13,7.6-.52,3.46-1.1,7.57-1.32,11.81-.41,7.85-.51,15.83-.55,23.29,0,3.69,0,7.39,0,11.08v1.43c0,1.44,0,2.87,0,4.31,0,1.61.14,3.25.23,4.84l.05.85c.13,2.18.32,4.38.5,6.51.13,1.54.26,3.08.37,4.62.18,2.57.48,5.16.77,7.67.14,1.19.28,2.38.41,3.57.43,4.06.85,7.71,1.49,11.36a37,37,0,0,0,3.44,10.46,49.77,49.77,0,0,0,4.44,7c.88,1.21,2.06,2.78,3.31,4.31,2.1,2.57,5,4.29,7.85,6,1.36.8,2.71,1.57,4.18,2.37a34.37,34.37,0,0,0,4.89,2.24,30.92,30.92,0,0,0,5.71,1.28c2.52.38,5.1.69,7.59,1l1.71.21,3,.44c2.62.38,5.33.78,8,1.09,3,.34,6.1.61,9.09.87l2.29.2c1.35.11,2.69.26,4,.41,2.3.25,4.68.51,7,.61.58,0,1.16,0,1.74,0a30.79,30.79,0,0,0,3.79-.22,45.31,45.31,0,0,0,6.19-1.14c.81-.22,1.61-.48,2.39-.74l.81-.26a67.46,67.46,0,0,0,10.47-4.47,83.27,83.27,0,0,0,9.34-5.92l.29-.21c3.31-2.31,6.48-4.86,9.14-7.06,1.28-1.06,2.62-2.25,4.09-3.65a44.81,44.81,0,0,0,3.62-4,54.87,54.87,0,0,0,6.19-9.46c1.71-3.3,3.16-6.8,4.56-10.19l.25-.6A83.06,83.06,0,0,0,336,164.4a44.73,44.73,0,0,0,.89-4.53l.13-.82c.29-1.8.54-3.71.79-6,.42-4,.63-8.06.8-11.87.15-3.32.22-6.88.22-10.57a183.27,183.27,0,0,0-.94-22.56c-.46-3.76-1-7.57-1.56-11.25-.25-1.67-.49-3.35-.73-5-.46-3.41-1-7.37-1.58-11.29-.53-3.52-1.21-7.07-1.87-10.5l0-.17c-.71-3.7-1.42-7.31-2.41-10.9a39.6,39.6,0,0,0-1.45-4.13L328,54c-.18-.48-.37-1-.56-1.45-.47-1.2-1-2.44-1.39-3.68l-.54-1.56c-1-3-2.07-6-3.06-9.05a54.46,54.46,0,0,0-2.1-5.48c-.52-1.15-1.08-2.3-1.64-3.4-.27-.56-.55-1.11-.82-1.67-.8-1.66-1.57-3.33-2.33-5A42.92,42.92,0,0,0,313,17.74a38.27,38.27,0,0,0-3.58-4.83c-.7-.81-1.43-1.6-2.17-2.39-.42-.46-.84-.91-1.25-1.37l-.62-.68-.81-.89a13.45,13.45,0,0,0-4.29-2.95c-1.17-.57-2.42-1-3.62-1.52l-1-.39c-1.31-.55-3-1.25-4.84-1.81a26.84,26.84,0,0,0-5.66-.86c-.5,0-1,0-1.51,0Zm-23.5,145.28c-.23,0-.47,0-.7,0a9.38,9.38,0,0,1-1.07-.3,13.8,13.8,0,0,1-1.54-.94,13.07,13.07,0,0,1-1.26-1.21,16.39,16.39,0,0,1-.89-1.61,48.41,48.41,0,0,1-2.34-7.23q-.87-3.72-1.69-7.45c-.62-2.78-1.23-5.55-1.87-8.31l-.21-.91c-.61-2.63-1.24-5.34-1.66-8a46.62,46.62,0,0,1,0-7.93c.1-1.72.24-3.54.42-5.56a31.55,31.55,0,0,1,1.47-6.44L249,89a26.36,26.36,0,0,1,2.59-2.53l3.7-3.22a3.45,3.45,0,0,0,.59-4.15l.16-.07a9.57,9.57,0,0,1,1.27-.35c.57,0,1.15-.08,1.72-.08s1,0,1.46.06a16.85,16.85,0,0,1,2.73.73,25.35,25.35,0,0,1,3.6,2.21,19.41,19.41,0,0,1,2.38,2.73l.13.17c1,1.42,1.82,2.91,2.75,4.57.67,1.2,1.37,2.49,2,3.84a36.21,36.21,0,0,1,1.77,6.64,69,69,0,0,1,.31,10.06c-.12,4.16-.36,7.88-.74,11.38-.09.64-.18,1.26-.31,1.88-.21,1-.43,1.87-.68,2.78a43.52,43.52,0,0,1-1.73,5A59.35,59.35,0,0,1,266.83,142a12.6,12.6,0,0,1-1.15,1.22,21.09,21.09,0,0,1-2.42,1.37,12.11,12.11,0,0,1-2.12.64c-.33,0-.65.05-1,.05Z"/><path class="cls-1" d="M481,2.38a21.6,21.6,0,0,0-2.23.11,32.28,32.28,0,0,0-3.25.48,10.62,10.62,0,0,0-1.47.45,14.49,14.49,0,0,0-1.5.65,14,14,0,0,0-1.14.85,9,9,0,0,0-.87.78,27.82,27.82,0,0,0-4,5.18,50.59,50.59,0,0,0-2.68,4.72,3.34,3.34,0,0,0-.68.82c-.61,1-1.17,2.13-1.71,3.19-.22.44-.45.88-.68,1.32-.15.28-.31.55-.47.83a4.11,4.11,0,0,0-1.37,1.31l-.72,1c-.62.89-1.24,1.78-1.85,2.68-.41.41-.82.83-1.21,1.25a20,20,0,0,0-2.35,3,6.62,6.62,0,0,0-.58,1.27c-.07.18-.13.35-.21.52a5.34,5.34,0,0,0-.26,1l-.52.82-.51.82a54.46,54.46,0,0,0-3.43,6.58c-1.08,2.37-2.08,4.73-2.92,6.73l.08-.12c-.64,1.45-1.28,2.94-1.92,4.44S441,56.36,440,58.2c-1.54,2.8-3.35,5.51-5.11,8.13l-1,1.5c-.92,1.39-1.92,2.84-3,4.4-.62.87-1.26,1.71-1.9,2.56l-1.24,1.65c-1.31,1.78-2.56,3.62-3.63,5.2-.76,1.12-1.46,2.3-2.15,3.45-.28.48-.57,1-.86,1.43s-.5.89-.73,1.34l-.31.58-.52,1-1.11,2.06c-.48.89-.94,1.79-1.4,2.68l-1,2c-1.69,3.18-3.59,6.79-5.36,10.32-1.59,3.19-3.14,6.31-4.64,9.49-.93,2-1.83,4-2.73,6-.61,1.35-1.21,2.7-1.83,4-1.16,2.55-2.41,5.1-3.62,7.58l-1.07,2.2c-.54,1.09-1.06,2.2-1.59,3.3-1,2.16-2.08,4.38-3.2,6.53-1.31,2.5-2.76,5-4.16,7.36l-1.38,2.37c-1.46,2.53-2.86,5.15-4.21,7.69l-1.23,2.32c-.94,1.76-1.72,3.26-2.44,4.81s-1.48,3.37-2.31,5.5a46,46,0,0,0-2.91,9.81,37.17,37.17,0,0,0-.13,12,23.36,23.36,0,0,0,4.23,9.91,21.31,21.31,0,0,0,2.17,2.52c.29.28.6.55.91.81s.76.6,1.14.89l.16.11a8.82,8.82,0,0,0,1.93,1,43.51,43.51,0,0,0,6.56,2l1.17.29c1.31.32,2.61.64,3.91,1s2.46.75,3.65,1.15l1.34.44a17.12,17.12,0,0,0,3.59.81l.25,0,.25,0a7.68,7.68,0,0,0,1.41-.23,7.07,7.07,0,0,0,1.69-.71l.32-.16a12,12,0,0,0,3.05-2.44,42.41,42.41,0,0,0,3-3.82l.33-.45,1.73-2.37c2.11-2.9,4.21-6,6.25-9.33l.94-1.52c1.51-2.44,3.07-5,4.66-7.43,1.06-1.65,2.12-3.3,3.16-5,.94-1.51,1.89-3.13,3.1-5.25,1.54-2.71,3-5.51,4.44-8.22l.83-1.57c1.76-3.33,3.34-6.34,4.77-9.43l.84-1.8c1.34-2.89,2.69-5.77,4-8.67.75-1.63,1.46-3.27,2.17-4.92.78-1.8,1.56-3.61,2.38-5.39,1.61-3.51,3.28-7,5-10.34.53-1.06,1-2.13,1.56-3.19l.82-1.71c.79-1.62,1.64-3.23,2.47-4.8l.06-.12c2.91-5.51,5.44-11.16,8-17,1.26-2.87,2.6-6,3.82-9,.41-1,.8-2.11,1.18-3.17l.49-1.32c.49-1.32,1-2.63,1.55-3.91,1.44-3.35,2.92-6.63,4.39-9.77,1.62-3.48,3.14-7,4.61-10.36,1.66-3.83,3-7.27,4.23-10.54,1-2.77,2.11-5.55,3.18-8.25l.59-1.46c3.14-7.91,5.65-14.41,7.89-20.45l.16-.41c.58-1.55,1.18-3.16,1.62-4.78.7-2.61,1.13-6.42-.87-9.75A11.69,11.69,0,0,0,500,5.63a19.16,19.16,0,0,0-4.79-1.79,38.58,38.58,0,0,0-5.62-.95l-.38-.05c-1.75-.21-3.52-.29-5.18-.36l-.4,0c-.9,0-1.8-.08-2.7-.08Z"/><path class="cls-1" d="M495.24,129.8a15.07,15.07,0,0,0-2.51.28l-.33,0a16.2,16.2,0,0,0-6.7,2.71,15.83,15.83,0,0,0-2.59,2.31,17.47,17.47,0,0,0-5.77,1.77c-4.26,2-7.38,6.35-8.36,11.65a67.59,67.59,0,0,0-1.19,12.08,39.6,39.6,0,0,0,.4,5.46,24.61,24.61,0,0,0,1.32,5.74,39.35,39.35,0,0,0,2.46,5.29,30.89,30.89,0,0,0,3.31,4.6c.3.34.62.67.94,1l.54.55c.44.47.89.94,1.33,1.42l.21.23.29.32c.4.43.8.87,1.21,1.3a15.33,15.33,0,0,0,1.87,1.68,14.23,14.23,0,0,0,3.67,1.8,12.81,12.81,0,0,0,3.45.65,5.43,5.43,0,0,0,.57,0,18.34,18.34,0,0,0,2.56-.25l.81-.12a25.44,25.44,0,0,0,6-1.78,37.83,37.83,0,0,0,5.43-2.59,20,20,0,0,0,4.44-3.69c.69-.77,1.37-1.55,2-2.34,1.35-1.58,2.67-3.23,3.93-4.91a32.54,32.54,0,0,0,5.78-11.27,21.65,21.65,0,0,0,.72-9.32,29.94,29.94,0,0,0-2.23-6.57l-.05-.12c-.76-1.85-1.46-3.51-2.22-5.14a19.53,19.53,0,0,0-2.94-4.61,22.86,22.86,0,0,0-4.5-4.3,17.61,17.61,0,0,0-5.57-2.49l-.51-.12c-1.4-.34-2.86-.69-4.29-.92a25.89,25.89,0,0,0-3.19-.36Z"/><path class="cls-1" d="M398.33,14.87c-.33,0-.67,0-1,0a4.12,4.12,0,0,0-1.42.31l-.44,0a2.22,2.22,0,0,0-.85.15l-.73.31-.72.3L393,16h0a3.16,3.16,0,0,0-.68.29,3.23,3.23,0,0,0-.66.29l-.76.32c-.81.36-1.71.76-2.57,1.21A16,16,0,0,0,385,20.34a19.44,19.44,0,0,0-2.84,3.54A25,25,0,0,0,379.49,29l-.15.41c-.35.92-.71,1.87-1,2.83a22.47,22.47,0,0,0-.58,3.44l0,.25c-.15,1.27-.18,2.58-.21,3.84v.13c0,1.27,0,2.4,0,3.45a28.59,28.59,0,0,0,.95,6,24.07,24.07,0,0,0,2.2,5.52,48,48,0,0,0,2.73,4.57l.21.3c.45.67.91,1.34,1.4,2l.08.11a18.13,18.13,0,0,0,4,4.26c2.52,1.75,5.63,2.51,8.59,3.13a24.11,24.11,0,0,0,2.38.4,12.21,12.21,0,0,0,1.23.06,16.17,16.17,0,0,0,2.32-.18,13.38,13.38,0,0,0,3-.72,14.54,14.54,0,0,0,1.74-.81,9.83,9.83,0,0,0,1.6-1.2l.32-.27a36.29,36.29,0,0,0,5-5.13,35.9,35.9,0,0,0,3.32-5,54.76,54.76,0,0,0,4.38-10.24A31.74,31.74,0,0,0,424,40.73a28.44,28.44,0,0,0,.28-6.09,21.39,21.39,0,0,0-1.25-5.73,25.67,25.67,0,0,0-2.4-4.85,15.71,15.71,0,0,0-3.75-4c-.7-.54-1.52-1.17-2.42-1.76a15.54,15.54,0,0,0-3.14-1.41l-.35-.12A36.83,36.83,0,0,0,400.71,15c-.76-.05-1.58-.09-2.38-.09Z"/></g></g></svg>