<svg xmlns="http://www.w3.org/2000/svg" viewBox="0 0 436.02 206.56"><defs><style>.cls-1{fill:#fff;}</style></defs><g id="Layer_2" data-name="Layer 2"><g id="Draw_Layer" data-name="Draw Layer"><path class="cls-1" d="M56.66,11.53l-.83,0a44.17,44.17,0,0,0-11.1,2.28,27.82,27.82,0,0,0-5.34,2.36c-.86.49-1.71,1-2.58,1.59l-.23.15-1.18.75c-1.1.68-2.73,1.71-4.29,2.85l-.83.6c-1.4,1-2.66,1.94-3.87,3a30.21,30.21,0,0,0-3.76,3.83,31.28,31.28,0,0,0-3.15,4.87,48.9,48.9,0,0,0-3.79,10.7,80.53,80.53,0,0,0-2.35,11c-.43,3.53-.73,7.26-.94,11.71,0,1-.05,1.89-.05,2.83a30.88,30.88,0,0,0,.5,4.81l.1.64c.14.86.27,1.73.4,2.6l0,.19.2,1.28L13.83,81c.13.78.24,1.55.36,2.33a85.9,85.9,0,0,0,1.57,8.48,35.26,35.26,0,0,0,1.75,4.94l.23.57a30,30,0,0,0,2,4.08A8.61,8.61,0,0,0,19,102a37,37,0,0,0-3.64,3.68,56.32,56.32,0,0,0-6.8,9.74,94.53,94.53,0,0,0-4.89,9.54,46.81,46.81,0,0,0-2,5.68,18.3,18.3,0,0,0-.51,2.19l0,.12c-.2,1-.37,2-.53,3.07A69.31,69.31,0,0,0,0,147.67a35.66,35.66,0,0,0,1.49,10.87c.33,1,.7,2,1.06,2.91.24.62.47,1.24.7,1.86.43,1.21.86,2.43,1.28,3.64L5,168.24l.1.3c.49,1.39,1.09,3.12,1.77,4.74s1.59,3.54,2.63,5.51a41.49,41.49,0,0,0,6.18,8.65,69.38,69.38,0,0,0,8.21,7.47A43.69,43.69,0,0,0,34.14,201c2.11.87,3.75,1.47,5.31,1.94,1.86.56,3.58,1,5.25,1.41a81,81,0,0,0,11.92,1.79c2.76.21,5.69.43,8.53.43.8,0,1.6,0,2.39-.05a23.54,23.54,0,0,0,3-.36l.8-.14.13,0a18.67,18.67,0,0,0,1.89-.39c2.23-.58,4-1.08,5.59-1.59a39.26,39.26,0,0,0,10-4.36c1.11-.73,2.2-1.55,3.16-2.27l.42-.32.81-.61.67-.5c1.24-.91,2.79-2.06,4.2-3.24a83,83,0,0,0,8.05-7.83l.12-.12.1-.12c1.13-1.23,2.31-2.51,3.41-3.84.92-1.1,1.82-2.25,2.68-3.37l.22-.27.17-.23a41.13,41.13,0,0,0,3.44-4.91l.36-.62.14-.24c.66-1.15,1.31-2.3,1.95-3.46.82-1.48,1.63-3,2.43-4.48,1-1.81,1.77-3.69,2.5-5.45a57.14,57.14,0,0,0,2.78-10,68.16,68.16,0,0,0,1.1-11.46V136a36.83,36.83,0,0,0-.31-6.08,45.79,45.79,0,0,0-1.13-5.15l-.34-1.31a29.76,29.76,0,0,0-3.2-8.65,52.94,52.94,0,0,0-4.74-6.1l-.1-.12-.51-.6c-.8-.92-1.74-2-2.73-3a30.23,30.23,0,0,0-3-2.43l-.08-.07-.69-.52c-1.94-1.46-3.93-2.9-6.09-4.39a7.42,7.42,0,0,0,.7-.68c1.37-1.5,2.68-3.1,3.94-4.66l.14-.17,1.21-1.48c1.21-1.48,2.36-3,3.41-4.3l.29-.39a50.75,50.75,0,0,0,3.33-4.65,20.65,20.65,0,0,0,1.83-3.86c.31-.87.55-1.81.76-2.64l.13-.55a72.8,72.8,0,0,0,2.14-11.49c.11-1.23.16-2.26.16-3.26a23.25,23.25,0,0,0-.57-4.4l-.15-.8c-.35-1.8-.74-3.42-1.18-5A48.75,48.75,0,0,0,119.14,44c-.74-1.79-1.61-3.63-2.59-5.46a30.21,30.21,0,0,0-2.71-4.32l-.1-.14c-.63-.81-1.28-1.65-2-2.44A25,25,0,0,0,110,29.82l-.17-.16c-1.61-1.48-3.3-2.86-4.9-4.13-1.19-.94-2.47-1.86-3.5-2.6l-.34-.25-1.64-1.2-.85-.68a36.66,36.66,0,0,0-5.81-4.05c-3.74-1.95-8.17-2.62-12-3.1l-.42-.05a46.76,46.76,0,0,0-5-.43h-.24a42.17,42.17,0,0,0-5.63.47l-.46.07-.45.06-.12,0a2.88,2.88,0,0,0-.93-.4c-2-.52-3.92-1-5.75-1.3a26.57,26.57,0,0,0-5.05-.56Zm8,64c-.5,0-1,0-1.51-.06a21.14,21.14,0,0,1-3-.79,12,12,0,0,1-1.39-.87,10.76,10.76,0,0,1-1.14-1.08c-.17-.27-.32-.55-.46-.83a11.78,11.78,0,0,1-.39-1.61,34.32,34.32,0,0,1,.25-6c.15-.92.33-1.84.53-2.73a3.27,3.27,0,0,0,2.88-1.72,33.8,33.8,0,0,1,2.82-4.47,8.17,8.17,0,0,1,.63-.69c.24-.16.51-.3.77-.44a7.89,7.89,0,0,1,1-.27c.24,0,.48,0,.73,0,.67,0,1.33,0,1.76.08a25.14,25.14,0,0,1,2.69.59c.86.25,1.71.59,2.58.93a17.75,17.75,0,0,1,2.32,1.24c.16.15.32.31.47.48s.22.34.32.52a7.38,7.38,0,0,1,.19.78,25.9,25.9,0,0,1-.27,5.05c-.13,1-.28,2-.5,3a23.48,23.48,0,0,1-1,3.41,18.58,18.58,0,0,1-1.15,2,11.39,11.39,0,0,1-1.27,1.24,13.91,13.91,0,0,1-1.74,1,23,23,0,0,1-4.08,1.16,18.63,18.63,0,0,1-2.13.11Zm-8,63.64a3.55,3.55,0,0,0,3.15-1.87l.66-.13c.29,0,.57,0,.86,0h.47a23.89,23.89,0,0,1,3.89,1,24.5,24.5,0,0,1,4,2.31,30,30,0,0,1,3.6,3.36c.18.31.35.62.51.94a10.68,10.68,0,0,1,.32,1.24,18.42,18.42,0,0,1-.06,2.53,23.07,23.07,0,0,1-1.08,4.09c-.48,1-.89,1.8-1.3,2.51l-.34.6a39.43,39.43,0,0,1-2.15,3.49,20,20,0,0,1-2.48,2.68,19.85,19.85,0,0,1-3.06,1.72,17.87,17.87,0,0,1-3.15.9c-.46,0-.93.07-1.39.07s-.69,0-1,0a20.18,20.18,0,0,1-2.44-.73,6,6,0,0,1-.65-.37,19.42,19.42,0,0,1-2.41-2.55A31.25,31.25,0,0,1,50,155.81a35.15,35.15,0,0,1-1.88-6.46,22.36,22.36,0,0,1,0-4.39,21.87,21.87,0,0,1,.93-4.17,13.62,13.62,0,0,1,.93-1.61l.15-.15c.27-.18.55-.34.83-.49s.48-.15.72-.21h.36a3.52,3.52,0,0,0,1.12.54A3.19,3.19,0,0,0,54,139a3.33,3.33,0,0,0,.91-.13l.45.12.45.12a3.82,3.82,0,0,0,.9.11Z"/><path class="cls-1" d="M228.52,8.33a6.09,6.09,0,0,0-1,.1l-1.76.27-.75.11c-1.71.2-3.47.36-5.37.49l-2.16.18c-1,.09-2,.18-3,.23-2.15.13-3.91.21-5.54.25l-4.23.11a37.9,37.9,0,0,0-8.77,1.32,63.85,63.85,0,0,0-11.12,4.55c-1.38.68-2.71,1.48-4,2.25l-.75.44c-.58.35-1.15.74-1.7,1.12l-.76.53q-1.12.75-2.22,1.53l-.2.14c-1.58,1.1-3.21,2.25-4.71,3.49A27.89,27.89,0,0,0,165,31.81a20,20,0,0,0-1.9,3.58c-.39.92-.75,1.86-1.1,2.79l-.18.47L160.53,42c-.91,2.33-1.81,4.66-2.7,7-1.65,4.39-2.93,8-4,11.5-.61,1.9-1.06,3.47-1.44,4.95-.43,1.72-.78,3.46-1.06,5.33-.61,4.07-1.18,8.23-1.72,12.72-.19,1.6-.34,3.34-.44,5.19l0,.71c-.1,1.67-.19,3.34-.25,5-.12,3.47-.13,7.21,0,11.76,0,1.26.06,2.52.1,3.78.06,2.32.12,4.65.14,7l0,1.32c0,3.45.06,7,.17,10.53.07,2.24.13,4.54.35,6.78a48.11,48.11,0,0,0,1.36,6.9l.12.5c1,4,1.89,8,2.66,11.93l.63,3.21c.49,2.5,1,5,1.49,7.51l.09.44c.3,1.48.61,3,1.06,4.5.55,1.78,1.16,3.73,1.89,5.94.52,1.61,1.09,3.32,1.74,5l.27.72c.28.75.58,1.54.92,2.28.14.3.28.59.41.89.26.59.54,1.21.85,1.78.84,1.55,1.77,3.21,2.84,4.81a17.7,17.7,0,0,0,5.65,5.12c1,.6,2,1.1,3,1.6l.66.33a29.72,29.72,0,0,0,7.21,2.41c1.1.23,2.23.4,3.33.56l.73.11c.94.14,1.87.26,2.82.38l1,.13c.68.09,1.35.18,2,.23l1,.08c1.49.12,3,.24,4.56.26l.93,0c.41,0,.81,0,1.22,0h.65l1.79-.08,1.78-.08c1.26,0,2.54-.15,3.77-.25l1.19-.09.52,0c1.9-.14,3.87-.28,5.78-.54l1.77-.24c3.23-.43,6.56-.88,9.81-1.48,2.13-.39,4.19-.86,6.09-1.32a42.35,42.35,0,0,0,11-4.73c1.56-.89,3.13-1.79,4.6-2.77s3.19-2.14,4.77-3.23c.6-.42,1.21-.83,1.83-1.25,1.44-1,2.94-2,4.3-3.08a18.59,18.59,0,0,0,2.41-2.31,22.86,22.86,0,0,0,2.28-3.22,25.56,25.56,0,0,0,1.66-3.55,38.87,38.87,0,0,0,1.4-4,92.41,92.41,0,0,0,2.05-9.58c.19-1.09.38-2.17.58-3.26q.5-2.57,1-5.13c.4-2.06.81-4.12,1.19-6.19,1.34-7.14,2.42-14.24,3.63-22.71,1-7,1.73-14.23,2.43-21.19l.22-2.16c.79-7.69.9-15.51.95-22.23,0-1.06,0-2.12,0-3.18,0-2.56.06-5.21,0-7.81a85.26,85.26,0,0,0-1.37-12.09,35.68,35.68,0,0,0-3.6-9.52l-.45-.91c-.4-.82-.77-1.65-1.14-2.48s-.61-1.35-.93-2a24.47,24.47,0,0,0-1.25-2.36,20.44,20.44,0,0,0-1.31-1.75L269,35.8l-.61-.78-.38-.48c-.83-1.09-1.78-2.33-2.66-3.61-.3-.43-.6-.88-.9-1.32-.79-1.17-1.6-2.39-2.51-3.51A24,24,0,0,0,260,24c-.49-.47-1-.94-1.42-1.43l-1-1.11-.47-.52A16,16,0,0,0,254,18.32l-.92-.58L252,17c-.4-.26-.78-.53-1.16-.8l-.89-.62A13.71,13.71,0,0,0,247,14.24L246.5,14c-.74-.29-1.52-.57-2.38-.85l-.58-.19c-1.31-.43-2.62-.86-3.92-1.31l-.49-.17A27.72,27.72,0,0,0,235,10.29a21.49,21.49,0,0,0-3-.33h-.14l-.42,0a3.5,3.5,0,0,0-1.22-1.2,3.17,3.17,0,0,0-1.69-.45ZM203.86,81.45a3.11,3.11,0,0,0,1.68-.49,2,2,0,0,1,.26-.18,30.53,30.53,0,0,1,3.46-.2h0c.7,0,1.39,0,2,.08a21.07,21.07,0,0,1,4,1.18c.29.16.56.32.83.49a18.5,18.5,0,0,1,1.45,1.35,12.28,12.28,0,0,1,.72,1.29c.53,1.37,1,2.79,1.48,4.17l.12.35a37,37,0,0,1,1.35,4.75,73.2,73.2,0,0,1,.27,8.3,83.78,83.78,0,0,1-.55,8.74c-.22,1.23-.44,2.45-.76,3.63a34.37,34.37,0,0,1-1.23,3.67c-.87,2-1.79,3.87-2.65,5.64a46.31,46.31,0,0,1-4.17,7.16,19,19,0,0,1-2.31,2.4,11.28,11.28,0,0,1-1.66,1l-.5.15a7.74,7.74,0,0,1-1.22-.38,8.51,8.51,0,0,1-1-.57c-.09-.15-.17-.3-.25-.46a37.39,37.39,0,0,1-1.51-5.72l-.19-.91c-.53-2.56-1.13-5-1.64-7.11l-.49-2c-.45-1.81-.91-3.67-1.3-5.53-.14-.67-.24-1.35-.35-2-.07-.47-.14-.94-.22-1.4-.2-1.13-.38-2.25-.54-3.37-.17-1.32-.33-2.63-.47-4-.16-1.52-.19-3-.2-4.32s.06-2.5.14-3.72l0-.65c.08-1.31.2-2.62.35-3.89a23.32,23.32,0,0,1,1.06-4,3.59,3.59,0,0,1,.27-.47,24.77,24.77,0,0,1,3.18-2.68l.41-.31Z"/><path class="cls-1" d="M399.94,0h-.56a7.53,7.53,0,0,0-3.11.73A15.4,15.4,0,0,0,394.08,2a25,25,0,0,0-2.23,1.68,17.62,17.62,0,0,0-3.12,3.71c-1,1.47-2,2.92-3.07,4.36l-.25.32c-.58.74-1.19,1.51-1.81,2.23q-1.59,1.81-3.22,3.58c-1.05,1.14-1.94,2.05-2.8,2.85l-.41.37-.4.37q-.45.55-.87,1.11a8.2,8.2,0,0,0-.83,1.76c-.3,1-.58,2-.86,3.18a3.81,3.81,0,0,0,.24,2.43l-.1.13-.13.17-.53.72c-1.93,2.62-3.92,5.32-5.7,8.09-2.35,3.66-4.39,7-6.24,10.22-2.08,3.61-4.12,7.33-5.87,10.52s-3.41,6.69-5,10l-.11.22c-1,2.12-2,4.25-2.94,6.39l-.21.46c-.92,2-1.87,4.11-2.67,6.21-.38,1-.76,2-1.13,3.07-.43,1.17-.86,2.34-1.3,3.51-.77,2-1.64,4.17-2.74,6.84-.8,1.9-1.63,3.86-2.49,5.79-.26.59-.53,1.17-.79,1.75-.8,1.75-1.63,3.56-2.34,5.38-.79,2-1.54,4.08-2.29,6.13-.86,2.33-1.74,4.74-2.67,7.09-.3.68-.61,1.36-.92,2-.49,1.08-1,2.16-1.45,3.24-1.18,2.77-2.19,5.22-3.08,7.5-.8,2.06-1.61,4.13-2.42,6.19l-2.17,5.58c-.67,1.52-1.32,2.84-2,4.06q-1.18,2.16-2.39,4.31c-.8,1.45-1.7,3-2.75,4.68a41.33,41.33,0,0,0-2,3.85l-.44.91c-.68,1.4-1.4,2.88-2.18,4.32s-1.48,3-2.15,4.48l-.11.24-.05.12a40.8,40.8,0,0,0-3.34,9.46,19.84,19.84,0,0,0-.32,3.24,8.65,8.65,0,0,0,0,1c.05.51.11.91.18,1.32l0,.13a6.87,6.87,0,0,0,.76,2,6.48,6.48,0,0,0,.69,1.06l.09.12a11.21,11.21,0,0,0,1.49,1.68,17.5,17.5,0,0,0,3.29,2.33,18.37,18.37,0,0,0,6.35,1.66c1.06.13,2.11.26,3.17.36s2.15.15,3.5.15l1.78,0a25.55,25.55,0,0,0,5.58-.62,9.94,9.94,0,0,0,3.37-1.45,21.23,21.23,0,0,0,4.12-4.18,92.13,92.13,0,0,0,6.63-9.49c1.79-2.88,3.89-6.3,5.81-9.89,1.32-2.46,2.46-5.07,3.57-7.59.36-.83.73-1.67,1.1-2.49,3.18-7.1,6.58-13.9,10.1-20.22.73-1.3,1.47-2.59,2.2-3.88,1.05-1.84,2.11-3.69,3.12-5.55s1.95-3.59,2.91-5.39l2.7-5c1.82-3.34,3.73-6.6,5.69-9.67,1-1.59,2-3.17,3-4.78.51-.84,1.05-1.66,1.58-2.49.42-.64.83-1.28,1.24-1.93,1.84-2.94,3.77-6.12,5.92-9.72l1-1.66c1.45-2.41,2.95-4.91,4.23-7.48,1.07-2.15,2.11-4.35,3.11-6.48q1-2.06,1.94-4.09c1.65-3.41,3.35-6.81,5.06-10.1.35-.68.7-1.36,1-2,1.31-2.55,2.65-5.19,4.22-7.65,1.13-1.79,2.3-3.55,3.46-5.32q1.51-2.28,3-4.59C419.81,43,421,41,422.25,39l2.09-3.34c1.06-1.69,2.16-3.35,3.25-5,1-1.49,2-3,2.91-4.5s1.86-3,2.58-4.34a49.1,49.1,0,0,0,2.39-5.19,7.32,7.32,0,0,0,.54-3.13,9.6,9.6,0,0,0-.41-2.22,20,20,0,0,0-1.16-3,7,7,0,0,0-1.44-2,7.51,7.51,0,0,0-.81-.66l-.39-.29L430.1,4,430,4a5.87,5.87,0,0,0-1.37-.69l-.28-.12a14.07,14.07,0,0,0-1.5-.55l-.13,0a29.54,29.54,0,0,0-4.6-1.17l-.59-.09c-.9-.14-1.83-.28-2.74-.34s-1.69-.08-2.67-.08h-.23l-3.49,0-1.73,0h-1.9A27.28,27.28,0,0,1,406,.83c-.5-.08-1-.18-1.5-.29-.84-.17-1.7-.28-2.53-.39l-.39,0a12.3,12.3,0,0,0-1.63-.1Zm-7.29,14,.71-1c.66-1,1.33-1.9,2-2.84A13.63,13.63,0,0,1,397,8.49,21.38,21.38,0,0,1,399.34,7h.54a14.12,14.12,0,0,1,1.68.1l1.45.25c1,.18,2.05.37,3.1.49a21.47,21.47,0,0,0,2.3.11l1.36,0h.89l1.8,0-.85.21-.87.23-.53.14c-3,.81-6.09,1.65-9.1,2.56l-1.69.51c-1.17.36-2.33.71-3.51,1A17.44,17.44,0,0,0,392.65,14Z"/><path class="cls-1" d="M398.15,3.85c-1.87.24-4.26.59-5.27,2.42a4.13,4.13,0,0,0-.44,3.28l-.92.65c-1.14.83-2.29,1.72-3.34,2.66l-2.5,2.24a24.69,24.69,0,0,0-2.55,2.46l-.55.71-.49,1.15a3.94,3.94,0,0,0,.15,2.47c.12.27.24.55.35.83a9.38,9.38,0,0,0,.73.91,3.49,3.49,0,0,0,1.54.9,5.8,5.8,0,0,0,1.3.22,11.49,11.49,0,0,0,1.85-.29,13.23,13.23,0,0,0,2.36-.91,41.28,41.28,0,0,0,5.31-3.16,3.83,3.83,0,0,0,1.77-.95c.5-.45,1-.89,1.52-1.32.89-.64,1.77-1.29,2.65-2a5.4,5.4,0,0,0,1.83-1.88,3.52,3.52,0,0,0,.46-1.46l.84-.63.08-.06a4.11,4.11,0,0,0,1.16-.51,3.59,3.59,0,0,0,1.61-3.95,3.52,3.52,0,0,0-3.38-2.57h0a3,3,0,0,0-.74-.57,5.15,5.15,0,0,0-1.68-.65,10.08,10.08,0,0,0-1.9-.15h-.05a15.44,15.44,0,0,0-1.66.12Zm-1,1.58.13.05-.13-.05Z"/><path class="cls-1" d="M327,22.43q-.58,0-1.17,0a11.14,11.14,0,0,0-2.42.38,12.6,12.6,0,0,0-1.67.66l-.52.23A11.14,11.14,0,0,0,318,26.14a11.91,11.91,0,0,0-.85.89l-.64.2a19.53,19.53,0,0,0-5.4,2.33,10,10,0,0,0-3.23,3.65,17.74,17.74,0,0,0-1.56,6.16A43.08,43.08,0,0,0,306,45.6a27.56,27.56,0,0,0,.47,3.47,16.33,16.33,0,0,0,1.34,3.63l.13.28a30.71,30.71,0,0,0,4.56,6.77,26.2,26.2,0,0,0,2.56,2.69c2,1.82,4.47,2.4,7.55,2.72a9.58,9.58,0,0,0,1.07,0A18.54,18.54,0,0,0,326.4,65,16.31,16.31,0,0,0,330,64a20.33,20.33,0,0,0,3.4-1.69,38.12,38.12,0,0,0,3.45-2.54A13.45,13.45,0,0,0,339.27,57a13.8,13.8,0,0,0,1.36-2.75l.23-.58a33.45,33.45,0,0,0,1.82-7.85,23.84,23.84,0,0,0,0-7.74,24.84,24.84,0,0,0-1.87-5.49,21.57,21.57,0,0,0-4.59-7.3,9.34,9.34,0,0,0-3-1.78c-.48-.19-1-.37-1.46-.54a10,10,0,0,0-2-.4l-.16,0a19.2,19.2,0,0,0-2.6-.16Z"/><path class="cls-1" d="M406,129.31h0a3.24,3.24,0,0,0-1.49.36l-.37.07a30.33,30.33,0,0,0-4.3,1.14c-.67.25-1.35.52-2,.8l-.18.07-.6.27a14.21,14.21,0,0,0-3.18,2.2,15.6,15.6,0,0,0-1.45,1.48l-.3.34a15.47,15.47,0,0,0-2.74,4,17.54,17.54,0,0,0-1.18,3.75c-.19,1-.31,2-.43,2.93l0,.32-.08.63c-.09.72-.18,1.45-.25,2.18a89.36,89.36,0,0,0-.41,11.23A32.84,32.84,0,0,0,389.74,174a8,8,0,0,0,1.09,1.54,12.17,12.17,0,0,0,1.07,1.09,10.7,10.7,0,0,0,3.48,2,19.73,19.73,0,0,0,7,1.25l1,0a42.93,42.93,0,0,0,8.46-1.56l.24-.06a32.27,32.27,0,0,0,4.63-1.55,23.34,23.34,0,0,0,2.82-1.36,20.78,20.78,0,0,0,3.17-2.44,20,20,0,0,0,2-2.21c.82-1,1.6-2.08,2.33-3.18a21.91,21.91,0,0,0,2.9-6.55,23.32,23.32,0,0,0,.49-3.32l0-.25a25.66,25.66,0,0,0,0-3.51c0-1.24-.19-2.48-.33-3.69l0-.23a41.91,41.91,0,0,0-1-5.26,18.66,18.66,0,0,0-5.19-9.34,40.18,40.18,0,0,0-3.18-2.72,10,10,0,0,0-2.28-1.16l-.49-.2a15.59,15.59,0,0,0-3.11-.88,31.25,31.25,0,0,0-3.46-.37c-.6-.05-1.19-.09-1.78-.15l-.56-.11a16.79,16.79,0,0,0-3.18-.43Z"/><path class="cls-1" d="M53.3,132.53a3.5,3.5,0,0,0,.84,6.4c1.54.31,3.06.57,4.62.78,1.17.15,2.36.06,3.54.14a11.91,11.91,0,0,1,1.64.5,25,25,0,0,1,3.69,2.11l2,1.6-.3-.23a28,28,0,0,1,3.86,4.2c.48.61,1,1.22,1.44,1.82s.85.92,1.26,1.39a11.48,11.48,0,0,1,.81,1.35c.46,1.16.92,2.32,1.44,3.46.06.14.12.28.17.42a3.62,3.62,0,0,0,1.26,1.26,3.5,3.5,0,0,0,4.79-1.26,3.34,3.34,0,0,0,.35-2.69c-.29-.71-.6-1.41-.91-2.11a21.64,21.64,0,0,0-1.52-3.45,31.81,31.81,0,0,0-2.7-3.32c-.76-.92-1.48-1.87-2.23-2.8-.49-.6-1-1.19-1.52-1.77a13.91,13.91,0,0,0-2-1.78c-1-.77-1.93-1.57-2.94-2.29a22.71,22.71,0,0,0-2.86-1.67c-.79-.39-1.59-.73-2.41-1.05a11.93,11.93,0,0,0-3.74-.72c-1.1-.06-2.18,0-3.27-.14-.89-.15-1.77-.32-2.66-.5a4.75,4.75,0,0,0-1-.11,3.39,3.39,0,0,0-1.72.46Z"/></g></g></svg>