<svg xmlns="http://www.w3.org/2000/svg" viewBox="0 0 862.74 253.99"><defs><style>.cls-1{fill:#fff;}</style></defs><g id="Layer_2" data-name="Layer 2"><g id="Draw_Layer" data-name="Draw Layer"><path class="cls-1" d="M799.74,0a15.44,15.44,0,0,0-2,.11,5.89,5.89,0,0,0-2.42.64,10.41,10.41,0,0,0-1.68,1.19l-.23.28-.2.24a6.77,6.77,0,0,0-.95,1.36,14.73,14.73,0,0,0-1,2.1l-.2.49A29.12,29.12,0,0,0,789.49,14l-.12,1c-.11,1-.23,2-.34,3l-.11,1c-.23,2.05-.42,4.1-.61,6.15l0,.47c-.59,6.34-.73,12.56-.84,19.44-.06,3.42-.09,6.85-.11,10.27,0,1.61,0,3.22,0,4.82,0,.51,0,1,0,1.51,0,1,0,2,0,2.94-1,0-2.12.07-3.18.09s-2.08,0-3.12.1c-2.47.14-4.88.29-7.32.52-4.52.44-9,1.09-13.53,1.78-.08-.16-.16-.32-.23-.5a31.49,31.49,0,0,1-1.43-6.08l-.06-.67c-.17-1.71-.35-3.48-.47-5.22l-.05-.62c-.14-1.93-.28-3.87-.45-5.8a133.72,133.72,0,0,0-2-13.6c-.76-3.83-1.81-7.64-2.84-11.32l-.27-1-.29-1c-.44-1.58-.88-3.16-1.28-4.74-.16-.64-.32-1.28-.47-1.93-.28-1.19-.57-2.42-.94-3.62a22.31,22.31,0,0,0-1.08-2.74l-.15-.28L748,7.55c-.32-.45-.66-.89-1-1.33a10.46,10.46,0,0,0-2.27-1.69,17.28,17.28,0,0,0-5.67-1.48l-.29,0-2.36-.35c-1.84-.29-3.74-.58-5.64-.74-1.07-.09-2.16-.1-3.21-.1h-.33a27,27,0,0,0-3.09.15,25.78,25.78,0,0,0-4,.73l-.5.14c-.82.23-1.67.48-2.53.66h-.62c-.42,0-.85,0-1.28,0l-.73,0c-.36,0-.73,0-1.1,0a8.15,8.15,0,0,0-3.7,1.33,8.51,8.51,0,0,0-3.45,5.46,4,4,0,0,0-3.81,4c.45,12.82.49,25.86.54,38.47q0,7.62.08,15.23c0,4.71.21,9.5.37,14.12.13,3.72.26,7.57.33,11.36q.12,6.78.2,13.56c0,4.15.15,8.54.35,13.81.34,9.23.55,17.59.65,25.55.1,8.75.12,17.46.12,26.34,0,5.66-.21,11.4-.42,17-.11,3-.22,5.91-.3,8.86-.21,7.52-.3,15.57-.3,24.61v2c0,1.25,0,2.5,0,3.75a8.54,8.54,0,0,0,.77,3.89,6.69,6.69,0,0,0,3.75,3.24,10.57,10.57,0,0,0,3.6.64h.2c.72,0,1.44-.08,2.14-.15l.56-.05c4.16-.39,8.6-.82,13.08-1.41l.77-.1c2.16-.29,4.4-.58,6.57-1,1.66-.33,3.33-.74,5-1.13l1.79-.44c3.16-.76,6.44-1.27,9.61-1.77l2.24-.35,1.5-.24c1.53-.24,3.11-.49,4.65-.8a12.69,12.69,0,0,0,4.53-1.78c2.77-1.9,3.89-5.37,4.5-7.82a44.73,44.73,0,0,0,.79-4.58l0-.17c.17-1.24.34-2.51.44-3.79l.15-2,.16-2c.15-1.92.24-3.89.33-5.79l0-.85c.2-4,.32-8.25.34-12.49a115,115,0,0,0-.76-12.08l0-.22c-.69-7.05-1.64-14.18-2.64-21.47-.66-5.12-1.38-10.18-2.14-15-.28-2.22-.51-4.48-.73-6.67-.3-2.88-.61-5.87-1-8.79a31.73,31.73,0,0,1,3.65-.75c4.4-.54,8.38-1,12.41-1.75a57.74,57.74,0,0,0,5.68-1.38l1-.28,1.93-.55,1-.32c.27-.09.55-.19.83-.27.17.69.31,1.45.45,2.36.46,3.72.74,7.81.89,12.86.13,4.54.22,9,.28,13.16l0,1.45c.06,3.85.11,7.83.44,11.73l.15,1.73c.15,1.74.3,3.47.46,5.2.09,1.09.21,2.17.33,3.26.09.83.18,1.66.26,2.49.44,4.39.78,8.84,1,13.62.23,4.07.33,8.21.42,12.21v.36l0,1.43c0,1.44.06,2.93.17,4.39.21,2.74.43,4.83.71,6.77a10.52,10.52,0,0,0,.55,2.33,11.11,11.11,0,0,0,1.82,3.14c1.69,2.17,4.47,3.14,7.21,3.86a30.89,30.89,0,0,0,4.07.74l.78.1c.76.1,1.53.21,2.3.26l3.12.19c.24,0,.49,0,.74,0l1,0,.79,0c1.7,0,3.41-.16,5.07-.3l.34,0c1.56-.13,3.13-.3,4.69-.47s3.3-.35,5-.48q2.88-.24,5.76-.43l4.74-.35c1.76-.14,3.38-.3,4.93-.5s3-.44,4.39-.69l1.24-.22.58-.05.6,0a9.72,9.72,0,0,0,2.27-.33,6.47,6.47,0,0,0,3.36-2.94,7.38,7.38,0,0,0,.79-2,11,11,0,0,0,.32-2.58v-.21a23.22,23.22,0,0,0-.16-3.23l-.08-.75c-.13-1.55-.31-3.08-.54-4.54l-.29-1.88-.26-1.59c-.21-1.37-.43-2.73-.65-4.1-.43-2.73-.87-5.46-1.28-8.2q-.94-6.28-1.87-12.57l-.14-.93c-.46-3.14-1-6.32-1.51-9.39-.22-1.3-.44-2.6-.65-3.9-.53-3.26-1.06-6.52-1.61-9.78-.28-1.67-.65-3.44-1.16-5.57-.31-1.27-.64-2.53-1-3.8l-.41-1.54c-.88-3.35-1.67-6.68-2.35-9.89l-.25-1.18c-.26-1.2-.53-2.44-.74-3.66l-1-6-.71-5.47c-.09-.67-.13-1.36-.17-2l-.06-1.06-.13-1.67-.13-1.81c0-.67,0-1.37,0-2,0-.33,0-.66,0-1l0-1.9,0-1.91c0-1.51,0-3,0-4.54,0-.76,0-1.52,0-2.28l0-3.94c.07-7.24.14-14.72-.91-22-.17-1.2-.35-2.41-.53-3.61l-.48-3.77c-.38-3-.77-6-1.22-9.06-.57-3.89-1.34-7.58-2.29-12-1-4.6-1.77-8.69-2.39-12.49-.15-.93-.31-1.85-.46-2.78-.2-1.18-.4-2.37-.59-3.55l-.24-1.52c-.21-1.42-.44-2.88-.72-4.31a20.29,20.29,0,0,0-.72-2.45l-.07-.2a17.6,17.6,0,0,0-1.36-3,9.6,9.6,0,0,0-1.45-1.81,13.63,13.63,0,0,0-2.5-2c-2.81-1.87-6.37-2.29-9.51-2.66C816.39.69,812.38.4,807.42.2c-2-.08-4-.14-6.36-.18h-1.32Z"/><path class="cls-1" d="M588.75,10.05c-2.9,0-5.89,0-8.9.11-1.72,0-3.55.17-5.78.41s-4.77.5-7.09.91c-1.21.21-2.27.43-3.24.69a32.86,32.86,0,0,0-7,3,49.93,49.93,0,0,0-5.39,3.41,59.85,59.85,0,0,0-6.9,6.18c-.78.78-1.55,1.55-2.35,2.31a39,39,0,0,0-3.8,4.05l-.13.15a54.32,54.32,0,0,0-3.5,4.78c-.62,1-1.21,2-1.79,3l-.63,1.07c-1.68,2.9-3.87,6.73-5.79,10.72a109.27,109.27,0,0,0-4.91,12.46c-1.4,4.22-2.7,8.41-3.68,11.59-.82,2.66-1.68,5.3-2.53,7.94-.44,1.34-.87,2.68-1.3,4-.68,2.12-1.19,4.32-1.65,6.39-.15.7-.25,1.42-.35,2.11,0,.32-.08.63-.13.94-.18,1.16-.35,2.32-.5,3.5-.41,3.2-.78,6.41-1.16,9.62l-.43,3.73c-.1.81-.19,1.61-.29,2.42l-.09.87-.09.68c-.08.74-.18,1.5-.2,2.25l-.05,1.65,0,1.65c0,.8,0,1.63,0,2.42,0,.42,0,.83,0,1.25,0,1.85.13,3.72.22,5.54l.06,1.18,0,1c.07,1.5.14,3,.26,4.57.69,8.82,1.41,17.93,2.7,26.92.5,3.45,1.33,6.92,2.13,10.27.19.8.39,1.6.57,2.4l.25,1.07c.85,3.63,1.72,7.39,2.84,11,.27.86.62,1.7,1,2.52l.21.5a26,26,0,0,0,1.8,3.66c.3.49.62,1,.93,1.45l.27.39.54.82c1,1.45,1.91,2.89,2.86,4.35,2.8,4.3,5.2,7.84,7.55,11.14a67.52,67.52,0,0,0,8.43,9.91c1.48,1.39,3.09,2.69,4.62,3.88,2.08,1.63,4,3.1,5.87,4.5s3.72,2.68,5.14,3.65a49.54,49.54,0,0,0,5.45,3.19c2.28,1.18,4.16,2.18,5.89,3.15s3.41,2,5.11,3.09l.52.34c1.1.7,2.19,1.4,3.3,2.08a38.5,38.5,0,0,0,8.28,3.43,43.6,43.6,0,0,0,10.33,1.55c.71,0,1.43.06,2.21.06,1.31,0,2.59-.06,3.68-.12,2.26-.13,4.51-.25,6.78-.36,4.6-.22,8.76-.45,12.94-1a57.18,57.18,0,0,0,8.8-2.19l2.34-.7.32-.1c1.77-.52,3.61-1.06,5.39-1.68a38.69,38.69,0,0,0,6.24-2.91c2.09-1.18,3.69-2.07,5.2-2.87l4.14-2.13,1.32-.67,3.2-1.66c2.45-1.27,5-2.59,7.53-3.79l1.62-.78.9-.43.84-.45.34-.19.33-.18.21-.12a6.38,6.38,0,0,0,2.34-2.13,11.42,11.42,0,0,0,.76-1.84,9.67,9.67,0,0,0,.3-2l0-.53a30.77,30.77,0,0,0,0-3.84v-.28c0-.86-.11-1.72-.18-2.57,0-.39-.07-.77-.1-1.15,0-.74-.14-1.48-.24-2.21l0-.31c-.06-.42-.1-.85-.15-1.27-.1-1-.2-1.95-.38-2.9-.12-.65-.23-1.29-.34-1.93-.24-1.38-.49-2.8-.78-4.19l-.8-3.87c-.62-3-1.23-6-1.86-8.94l-.53-2.51c-.73-3.48-1.48-7.09-2.3-10.61A46.8,46.8,0,0,0,662,166.44c-.4-.74-.84-1.45-1.28-2.17l-.85-1.43a35,35,0,0,0-3-4.45,6,6,0,0,0-2.49-1.58,5.58,5.58,0,0,0-2.11-.39,8.49,8.49,0,0,0-1.38.12,16.07,16.07,0,0,0-3.84,1.35l-.31.14-.69.3c-1.05.47-2.1.94-3.14,1.43q-3.68,1.74-7.33,3.53l-.74.36-1.74.85c-1.82.89-3.7,1.82-5.59,2.65-.89.34-1.79.67-2.7,1l-.52.19a22.11,22.11,0,0,1-2.35.75c-1.87.44-3.84.82-6.2,1.18-1.73.2-3.28.32-4.75.37h-.52a28.42,28.42,0,0,1-3.86-.33,55.61,55.61,0,0,1-6.74-1.46c-1.85-.56-4.27-1.32-6.66-2.24a30,30,0,0,1-4.27-2.22c-1.57-1-3-2-4.34-3-1.42-1.16-2.7-2.28-3.92-3.43a41.27,41.27,0,0,1-3.57-4.06,51,51,0,0,1-3.62-5.47,28,28,0,0,1-1.23-2.6l-.4-.93c-.44-1-.87-2-1.3-3a47.19,47.19,0,0,1-1.78-4.88,42.91,42.91,0,0,1-1.17-5.44l-.12-1.16a16.7,16.7,0,0,1,.12-3.56l.18-1.07c.26-1.53.53-3.11.85-4.66.49-2.37,1-4.74,1.52-7.11a86.16,86.16,0,0,1,3.11-11.15,68.56,68.56,0,0,1,6.89-11.28c.76-1,1.38-1.69,2-2.35a20.52,20.52,0,0,1,2.12-1.9c1.58-1.16,3.28-2.19,4.93-3.19L591,83.11l.25-.15a81.41,81.41,0,0,1,8.25-4.67,47.41,47.41,0,0,1,14.92-2.72c.65,0,1.28,0,1.88.08a30.16,30.16,0,0,1,5.36,1.45,32.13,32.13,0,0,1,3.18,1.75c.75.45,1.48.93,2.21,1.4l1.41.91.2.13c2.19,1.39,4.46,2.83,6.6,4.39l1,.78a39.94,39.94,0,0,0,3.26,2.48A6.73,6.73,0,0,0,643,90.27a5.21,5.21,0,0,0,4-1.93,12.15,12.15,0,0,0,1.86-3.23c.24-.61.46-1.23.69-1.85l.1-.27c1.38-3.79,2.72-7.51,3.92-11.33l.94-2.94c.93-3,1.91-6,2.8-9l.25-.87c1-3.34,2-6.8,3.28-10.1.69-1.51,1.4-2.93,2.17-4.36l.48-.86.81-1.49a26.42,26.42,0,0,0,1.33-3.2,23,23,0,0,0,1-5.59c.08-.8.12-1.61.15-2.41a10.58,10.58,0,0,0-.36-3.34A10.38,10.38,0,0,0,664.31,24a4,4,0,0,0-4.42-.85c0-.09-.09-.18-.14-.27a4.33,4.33,0,0,0-2.4-1.84,170.91,170.91,0,0,0-25.24-7.38,178.53,178.53,0,0,0-26.28-3.17c-5.4-.32-11.14-.48-17.08-.48Z"/><path class="cls-1" d="M150.87,4.37a150.35,150.35,0,0,0-26.28,2.22c-1.24.22-2.48.46-3.72.7l-4,.74c-2,.35-4,.65-6,1l-1.46.22-2,.23c-1.41.17-2.81.34-4.22.53l-.86.12c-.89.12-1.79.24-2.68.4a16.94,16.94,0,0,0-3.4.92,12.11,12.11,0,0,0-1.91.92,11.29,11.29,0,0,0-1.65,1.29l-.18.16c-2.08,1.85-2.78,4.58-3.46,7.23l-.22.85c-.49,1.82-.85,3.64-1.18,5.33a100.87,100.87,0,0,0-1.37,12.94c-.11,1.89-.25,3.93-.46,6l-.11,1.06c-.07.7-.14,1.41-.23,2.11l-.14,1-.14,1-.09.72c-.07.31-.12.64-.17,1l-.4,2.42-.25,1.46c-.46,2.75-.94,5.59-1.53,8.36-.86,4.08-1.57,7.22-2.29,10.18l-.15.62c-.25,1-.5,2-.77,3.07-.29-.84-.58-1.68-.83-2.49-.38-1.19-.73-2.38-1.09-3.57l-.6-2c-.53-1.75-1.16-3.82-1.9-5.94C74.63,63.58,74,62,73.41,60.49l-.38-1c-1.73-4.41-3-8.15-4.09-11.75q-.75-2.55-1.45-5.12c-.6-2.17-1.22-4.41-1.89-6.6-.94-3.09-1.87-6.39-2.76-9.82l-.51-2c-.25-1-.5-2-.78-3l-.16-.61c-.8-2.92-1.63-5.95-3.86-8A7,7,0,0,0,54.47,11a10.68,10.68,0,0,0-2.37-.22h-.39c-.66,0-1.31,0-2,.05h-.18c-1.73.07-3.28.16-4.73.28-2.86.24-5.73.66-8.51,1.07l-2.12.3c-1.79.22-3.59.42-5.39.63q-3.26.36-6.51.76l-2.61.31A102.27,102.27,0,0,0,7.76,16.1c-2,.5-5.65,1.84-6.71,5.2a11.11,11.11,0,0,0-.28,3.93c0,.46,0,.92,0,1.37q0,2.13,0,4.26v1.71c0,4.12,0,8.24,0,12.36,0,3.64-.07,7.94-.2,12.22-.13,4-.26,8.17-.26,12.25,0,2.18,0,4.49.12,7.07,0,.81.07,1.63.11,2.44.06,1.17.13,2.37.13,3.56,0,4.33-.18,8.73-.35,13v.26c-.17,4.22-.35,8.58-.33,13,0,4,.09,8.3.18,12.66s.26,8.88.42,13c.16,3.87.23,8,.24,12.52,0,10.15.07,18.57.15,26.5.09,9.3.54,18.65,1,26.57l.12,2.17c.12,2.42.25,4.92.44,7.37a77.67,77.67,0,0,0,1.26,9.66,18.32,18.32,0,0,0,1,3.14,10.47,10.47,0,0,0,2,3.5,7.35,7.35,0,0,0,3,2,12.72,12.72,0,0,0,3.28.46l1.14,0c1.32.05,2.69.09,4,.09a38.11,38.11,0,0,0,4.21-.2,37.64,37.64,0,0,0,5.6-1,43.8,43.8,0,0,0,4.17-1.46l.32-.12,1.94-.06.3,0c1.21,0,2.42-.08,3.63-.08h.15a61.13,61.13,0,0,1,6.84.46c1,.15,2,.33,3.14.57.59.12,1.19.22,1.78.33s1.18.2,1.77.32l1.35.28c.66.15,1.32.29,2,.4l.82.16a15.17,15.17,0,0,0,2.1.3h.23a4.57,4.57,0,0,0,4.24-2.52l.15-.35.26-.61c0-.33.09-.66.13-1l.07-.5a7,7,0,0,0-.16-2c0-.17-.06-.34-.08-.5-.1-.62-.2-1.24-.33-1.85l-.09-.47c-.22-1.1-.44-2.21-.64-3.32-.14-.83-.3-1.66-.45-2.48-.29-1.56-.59-3.17-.83-4.77-.27-2.56-.45-5.17-.63-7.7-.1-1.39-.2-2.79-.31-4.18-.16-2-.29-4.12-.4-6.13s-.24-4-.4-6c-.18-2.25-.42-4.52-.65-6.73-.2-1.9-.4-3.81-.57-5.72-.35-4.07-.59-8.26-.73-12.83-.07-2.55-.06-5.15,0-7.67,0-1.3,0-2.6,0-3.9,0-4,0-8-.06-11.94-.06-4.51-.15-8.46-.28-12.06-.08-2.11-.16-4.18-.18-6.25,0-.56,0-1.11,0-1.66l.21.29.22.28q1.92,2.55,3.81,5.13c1.23,1.65,2.45,3.31,3.69,5,1.08,1.43,2.23,2.83,3.35,4.19l.91,1.1,1.52,1.89c.74.92,1.48,1.84,2.24,2.75l.43.5c1.13,1.35,2.3,2.74,3.5,4.06l.75.84c1.15,1.27,2.33,2.59,3.61,3.75a27.25,27.25,0,0,0,3.92,3.12A15.19,15.19,0,0,0,89.42,150a11,11,0,0,0,2.39.27,9.7,9.7,0,0,0,2.71-.38,8.39,8.39,0,0,0,2.67-1.52,17.44,17.44,0,0,0,2.91-2.71,67.35,67.35,0,0,0,6.55-10c.8-1.44,1.87-3.32,3.07-5.09.88-1.31,1.85-2.58,2.79-3.81l.67-.89c1.61-2.07,3.23-4.14,4.87-6.19a50.33,50.33,0,0,1,3.9-4.38l.08,1.5.11,1.5.08,1c.12,1.5.24,3,.27,4.59.08,4.58.21,8.66.38,12.45.1,2.29.26,4.61.42,6.85.14,2,.27,3.95.37,5.92.23,4.39.24,8.44.06,12.4-.1,1.93-.19,4.22-.19,6.57,0,1.51,0,3.05.09,4.54l0,1.49v.28c.12,4.28.25,8.72.18,13.08,0,2.1,0,4.18,0,6.28,0,1.71.16,3.46.31,5.15l.12,1.4c.37,4.57,1,9.11,1.75,13.49a35.09,35.09,0,0,0,1.48,5.77c.48,1.31,1,2.51,1.49,3.67a12.44,12.44,0,0,0,4.34,5.62,20.11,20.11,0,0,0,7.59,2.48c2.47.36,5,.54,7.05.66,1.88.11,4.07.23,6.22.29l1.05,0c1.78,0,3.53-.11,5.33-.23.89-.07,1.65-.13,2.42-.23a17.59,17.59,0,0,0,2.32-.43,7.41,7.41,0,0,0,1.74-.82,9.69,9.69,0,0,0,4.35-6.51,30.43,30.43,0,0,0,.33-5.73c0-.63,0-1.25,0-1.86.08-5.94.36-12.42.85-19.81.1-1.58.16-3.19.21-4.75s.1-3,.19-4.48c.18-2.87.48-5.88.9-9.2.39-2.71.64-4.91.82-6.94.15-1.73.21-3.5.27-5.22l0-1.08c.13-3.61.05-7.29,0-10.85l-.05-2.27c0-.61,0-1.22,0-1.83,0-1.33-.08-2.71-.05-4.07.06-2.22.23-4.45.38-6.37.35-4.32.58-8.49.85-13.5.21-3.81.38-7.9.56-12.87l.1-2.76c.13-3.25.26-6.6.28-9.9,0-6.38,0-12.86,0-19.13,0-2.46,0-4.93,0-7.4,0-7.76,0-17-.14-26.29-.05-4.61-.2-9.2-.33-13.09-.05-1.6-.16-3.23-.26-4.81l-.1-1.61c0-.6-.09-1.19-.16-1.79l-.07-.71-.08-.82c-.1-1-.19-2-.35-3a41.78,41.78,0,0,0-1.7-7.53,11.74,11.74,0,0,0-1.6-3,15.72,15.72,0,0,0-1.25-1.53,6.94,6.94,0,0,0-1.28-1l-.14-.09a7.41,7.41,0,0,0-1.93-.74l-.5-.13-.25-.06c-.43-.11-.86-.19-1.29-.28l-.42-.08a17.89,17.89,0,0,1-2.4-.71l-.25-.09c-1-.37-2-.68-2.89-1a30.14,30.14,0,0,0-8.71-1.42Z"/><path class="cls-1" d="M276.12,10.67c-3.54,0-7.1.23-10.73.48-1.32.09-2.66.12-3.95.15-.66,0-1.32,0-2,0-1.71.05-3.43.15-5.14.24l-.47,0c-.83,0-1.69.06-2.63.06-2,0-4-.1-5.93-.19-1.14-.06-2.28-.12-3.42-.16h-.72c-1.52,0-3.06.15-4.54.29l-.41,0a61.42,61.42,0,0,0-6.08.91c-.57.11-1.14.2-1.71.3-1.07.18-2.18.37-3.24.64a31.09,31.09,0,0,0-5.73,2.12,15.94,15.94,0,0,0-2.88,2,11.38,11.38,0,0,0-2,2l-.09.11h0a12.36,12.36,0,0,0-1.68,2.35l-.19.37a9.38,9.38,0,0,0-1.23,4,4.44,4.44,0,0,0,.23,1.52c-.16,1.44-.31,2.87-.44,4.31,0,.36-.07.71-.11,1.06-.07.7-.15,1.43-.18,2.14,0,.38,0,.76-.07,1.13,0,.71-.09,1.45-.07,2.16,0,2.51.15,4.74.28,6.84.06.8.12,1.61.17,2.42.08,1.1.16,2.21.23,3.31.24,4.11.44,8.44.62,13.65.13,3.65.35,7.65.69,12.59.29,4.29.43,8.64.53,12.7.13,4.88.31,8.85.58,12.5.15,2,.36,4.13.57,6.14s.42,4.23.58,6.35l.14,2c.1,1.48.2,3,.33,4.43.08,1,.17,1.89.27,2.84s.19,1.88.27,2.83c.68,8.23.81,16.62.93,24.74v.67c.05,3.26.22,6.58.38,9.79.06,1,.11,2.06.16,3.08.21,4.32.37,8.77.49,13.61l0,1.26c.09,3.51.18,7.13.45,10.7.37,4.91.6,9,.71,12.77,0,1.39.07,2.78.1,4.17l0,2.09a23,23,0,0,0,.31,3.39,11.31,11.31,0,0,0,1.41,3.78,11.62,11.62,0,0,0,3.15,3.14,14.94,14.94,0,0,0,3.56,1.82l.41.17a59.74,59.74,0,0,0,6,2.18c.79.22,1.66.43,2.68.63a32.94,32.94,0,0,0,6.3.73h.7c6.59-.22,12.91-2.38,19-4.47l.8-.27a72.26,72.26,0,0,1,9.2-2.59c2.92-.59,6-1.13,9.08-1.61,3.65-.46,7-.78,10.1-1,3.55-.21,7.74-.5,11.86-1.07a81.14,81.14,0,0,0,10.4-2.32,82.12,82.12,0,0,1,9.74-2.14l2.14-.24.3,0c.79-.08,1.62-.18,2.41-.34l.27-.1.27-.11a5.79,5.79,0,0,0,1.44-.69,7.43,7.43,0,0,0,2.15-2.24,19.65,19.65,0,0,0,2.65-7.52c.19-1.15.41-2.67.56-4.21a26.83,26.83,0,0,0-.17-6.06,67,67,0,0,0-1.24-6.8,50.29,50.29,0,0,0-1.71-5.63l-.58-1.62c-.47-1.33-1-2.7-1.48-4-.87-2.2-1.75-4.18-2.68-6a12.57,12.57,0,0,0-3.13-4.3,12.35,12.35,0,0,0-3.76-2.18,19.27,19.27,0,0,0-3.2-.77,102.47,102.47,0,0,0-13.22-1.06l-1.14,0c-1.51-.05-3.07-.1-4.6-.1h-.75c-2.28,0-4.61.13-6.78.23l-1.54.07c-1.48.06-3,.12-4.43.22-2,.15-4.08.34-6.06.53l-.47.05c-4.45.42-8.39.68-12.05.79h-1.2c-.07-.15-.16-.31-.24-.47a31.43,31.43,0,0,1-1.5-6.14,33.24,33.24,0,0,1-.32-5.32c.06-.3.14-.6.21-.89a35.88,35.88,0,0,1,6.73-1.45c1.76-.2,3.84-.41,6-.55l.59,0a15.84,15.84,0,0,0,5.66-1c3.12-1.4,4.47-4.62,5.48-7.53a35.47,35.47,0,0,0,1-3.6l.22-1c.25-1,.43-2.11.56-2.92a54.12,54.12,0,0,0,.74-7,59.89,59.89,0,0,0-.17-6,9.5,9.5,0,0,0-.92-3.73,7.15,7.15,0,0,0-2.4-2.64,8.32,8.32,0,0,0-3.33-1.23,22.65,22.65,0,0,0-3.75-.33h-.65c-1.55,0-3.11.08-4.63.15l-1,0-2,.09-4,.18-.51,0-.05-.1-.05-.11a37.35,37.35,0,0,1-1.27-4.6l-.21-.89c-.21-.91-.39-1.82-.57-2.74l-.19-.92c-.59-3-1-5.29-1.32-7.46a55.52,55.52,0,0,1,6.64-1.5c2.07-.27,3.65-.44,5.13-.55l3.32-.24,3.31-.23c2.32-.18,4.64-.38,7-.58l5-.42c1.8-.15,3.16-.32,4.42-.55a7.88,7.88,0,0,0,2.87-1.19,6.32,6.32,0,0,0,1.72-1.7,10.16,10.16,0,0,0,1.06-2.14l.13-.31a16.83,16.83,0,0,0,1-3.93,23.55,23.55,0,0,0,.29-3.44c0-1.18,0-2.36,0-3.54-.05-3.74-.1-8-.45-12.14-.13-1.7-.38-3.42-.61-5.08l-.05-.32-.48-3.56c.08-1.37,0-2.77,0-4.12l0-1.18c0-3.42-.1-7.06-.4-10.62-.15-1.75-.29-3.52-.42-5.28-.15-2.06-.47-4.14-.77-6.14l0-.17a14.14,14.14,0,0,0-1.49-5.3,6.18,6.18,0,0,0-2-2,7.5,7.5,0,0,0-2.35-1,16,16,0,0,0-1.93-.27l-.19,0c-.7-.11-1.4-.25-2.09-.39-.85-.17-1.73-.34-2.61-.47l-.58-.09-.3-.05a3.84,3.84,0,0,0-.68-.09l-.35,0-.57-.07-1.39-.14-2.76-.26c-2.23-.24-4.22-.36-6.1-.39Z"/><path class="cls-1" d="M425.17,14.44a116.72,116.72,0,0,0-17.73,1.83l-1.84.29-1.38.21c-5.57.85-11.33,1.73-16.69,3.71a105.61,105.61,0,0,0-16.63,8.14h-.3a4,4,0,0,0-2.84,1.17,3.9,3.9,0,0,0-1.17,2.84c.31,4.09.65,9,.8,13.92.08,2.6.11,5.24.13,7.79,0,1.47,0,2.93.05,4.39.08,4.73.27,9.54.45,14.2.16,4,.32,8.12.41,12.19.22,9.73.29,19.49.32,26.9,0,1.16,0,2.32,0,3.48,0,2.93,0,6,.07,8.94s.22,6.07.37,9c.07,1.4.14,2.8.2,4.2.35,7.78.39,15.71.43,23.38l0,2.46v3.07c0,3.16,0,6.42.09,9.63.07,3.57.34,7.21.59,10.72l.13,1.72c.33,4.57.59,8.61.8,12.38.12,2.15.21,4.3.31,6.46s.18,4.11.29,6.17a4.13,4.13,0,0,0,1.18,2.83,4,4,0,0,0,2.83,1.18,4.19,4.19,0,0,0,2.88-1.22c.62.07,1.26.12,1.9.18s1.28.11,1.92.18c1.65.26,3.32.6,4.93.92l3.33.66c2.1.38,4.27.61,6.37.83l2.59.29,1.69.23a7.73,7.73,0,0,0,.95.07,5,5,0,0,0,1.24-.16,5.37,5.37,0,0,0,2.38-1.45c1.75-1.74,1.6-4.31,1.32-6.59-.17-1.39-.4-2.79-.63-4.15-.13-.79-.27-1.58-.39-2.38a192.57,192.57,0,0,1-.6-22.37l0-2.63c0-4.71.1-8.67.25-12.7q.11-3.37.28-6.75c.52,1.44,1.06,2.88,1.63,4.3q2.3,5.73,4.66,11.42c1.3,3.17,2.36,6.5,3.39,9.73l.64,2,1.39,4.27c.19.6.4,1.18.63,1.76-.05.3-.09.6-.12.91.06.49.13,1,.2,1.48a6.09,6.09,0,0,0,.25.93c.05.15.1.3.14.45.23.79.43,1.43.65,2a50.12,50.12,0,0,0,2.43,5.62,24.11,24.11,0,0,0,2.37,3.94c.68.91,1.43,1.77,2.16,2.6.35.41.7.81,1,1.22a17,17,0,0,1,1.2,1.95c.22.42.42.84.61,1.27s.34.75.53,1.11a8.28,8.28,0,0,0,1.84,2.45,9.65,9.65,0,0,0,4.13,2,7.75,7.75,0,0,0,1.87.21,21.56,21.56,0,0,0,3.4-.37l1-.16a100.27,100.27,0,0,0,11.95-2.49c.7-.18,1.39-.38,2.08-.57,1.22-.34,2.45-.68,3.68-1l1.58-.4c1.39-.35,2.82-.71,4.21-1.12,1.65-.48,3.28-1.09,4.86-1.68l.68-.25a28.81,28.81,0,0,1,5.51-1.36c1.07-.12,2.14-.22,3.16-.29s1.84-.17,2.81-.33a4.81,4.81,0,0,0,2.08-1,4.29,4.29,0,0,0,1.23-.88l.16-.2.08-.09a4,4,0,0,0,1-1.77,5.12,5.12,0,0,0,.29-1.46l0-.33a6.49,6.49,0,0,0-.14-1.54,4.07,4.07,0,0,1-.07-.42l-.05-.33-.06-.33c-.14-.87-.27-1.67-.47-2.46a37.51,37.51,0,0,0-1.49-4.39,31.52,31.52,0,0,0-1.67-3.63c0-.36-.09-.73-.15-1.09l-.07-.56a14,14,0,0,0-1.64-4.36,13.59,13.59,0,0,0-2.11-2.81,10.08,10.08,0,0,0-1.48-1.28l-.46-.36-.4-.32a8.38,8.38,0,0,0-1.45-1l-.35-.17c-.62-.77-1.23-1.55-1.85-2.34l0,0,0,0L474,179l-.07-.09.05.1c-1-1.32-2-2.61-2.85-4-1.07-1.63-2.11-3.35-3.19-5.26-.91-1.63-1.8-3.28-2.69-4.93l-.54-1c-.95-1.76-2-3.51-3-5.21l-.34-.58c-.93-1.6-1.89-3.18-2.85-4.75l-.39-.65c-1-1.66-2.11-3.31-3.16-4.91l-.52-.78c-2.2-3.32-4.58-6.87-7.14-10.36-3-4.1-6.27-8.14-9.69-12-1-1.08-1.92-2.17-2.89-3.25-.55-.62-1.16-1.21-1.75-1.78l-.84-.81-1.57-1.54c-.83-.81-1.66-1.61-2.46-2.44,1.2-.47,2.63-1.06,4.05-1.74a32.81,32.81,0,0,0,5.08-3.17,80,80,0,0,0,9.8-8.16A78.13,78.13,0,0,0,455.24,92a60.45,60.45,0,0,0,3.36-5.29,40.26,40.26,0,0,0,2.75-6.38,47.37,47.37,0,0,0,1.53-5.78,40.14,40.14,0,0,0,.95-7.17c.14-4.31-.14-8.69-.41-12.92-.14-2.13-.37-4.25-.61-6.42-.11-1-.25-1.95-.4-2.92l-.14-1a31.77,31.77,0,0,0-1.42-6.21,43,43,0,0,0-2.91-6.35l-.15-.26c-.39-.71-.79-1.43-1.24-2.11-.63-1-1.35-1.93-2.34-3.16A19.18,19.18,0,0,0,452,23.81a29.07,29.07,0,0,0-2.74-2.18,36.06,36.06,0,0,0-4.87-2.88A53.49,53.49,0,0,0,438,16.11a34.06,34.06,0,0,0-6.72-1.31,48.85,48.85,0,0,0-6.08-.36ZM407.05,83c-.14-1.89-.19-3.81-.24-5.67,0-.87,0-1.75-.07-2.62-.11-3.18-.27-6.6-.47-10.45l1.49-.13,1.49-.14c.89-.09,1.79-.22,2.66-.35l.35,0a34.54,34.54,0,0,1,4.28-.33q.7,0,1.41.06a19.12,19.12,0,0,1,2.82.8c.24.12.46.24.68.37a8.92,8.92,0,0,1,.47.86,9.24,9.24,0,0,1,.33,1.28,12.81,12.81,0,0,1,0,1.86,14.54,14.54,0,0,1-.64,2.34,23.6,23.6,0,0,1-1.54,2.81,15,15,0,0,1-1.6,1.58c-1.82,1.34-3.72,2.63-5.56,3.88l-.24.16L409,81.72c-.66.44-1.32.88-2,1.3Z"/></g></g></svg>