<svg xmlns="http://www.w3.org/2000/svg" viewBox="0 0 814.8 257.84"><defs><style>.cls-1{fill:#fff;}</style></defs><g id="Layer_2" data-name="Layer 2"><g id="Draw_Layer" data-name="Draw Layer"><path class="cls-1" d="M770.24,0a5.18,5.18,0,0,0-1.87.34,8.51,8.51,0,0,0-1.92,1,22.66,22.66,0,0,0-2.13,1.8,70.29,70.29,0,0,0-5.48,5.89c-1.49,1.73-3,3.57-4.61,5.48-2.79,3.37-5.45,6.92-7.92,10.55A74.27,74.27,0,0,0,739.86,36l-1,2.12c-.91,2-1.85,4.16-2.91,6.18l-1.47,2.82c-1,1.82-1.92,3.64-2.85,5.47-1.6,3.15-3,5.72-4.33,8.08l-.54.94Q726,63,725.24,64.3c-1.41-3.46-2.74-6.48-4-9.22-1.16-2.45-2.3-4.91-3.44-7.37l-.13-.47a103.45,103.45,0,0,0-3.85-10.9c-1.53-3.73-3.17-7.53-5-11.6-.36-.8-.73-1.59-1.1-2.37s-.58-1.59-.89-2.38l-.06-.27-.06-.29c-.36-1.82-.8-3.93-1.36-6-.14-.5-.3-1-.49-1.5a3.26,3.26,0,0,0,.15-.44,4,4,0,0,0-.4-3.09,4.23,4.23,0,0,0-3.56-2,3.47,3.47,0,0,0-1.93.57l-.31.2-.31.21-.43.09a6.16,6.16,0,0,0-2,.78,8.14,8.14,0,0,0-2.35,2l-.16.08c-1.95,1-3.91,1.85-5.4,2.5-3.79,1.51-7.67,3-11.42,4.4l-.57.21-3.71,1.39c-2.57.95-5.22,1.94-7.8,3-2,.8-4,1.62-6,2.44-.58.24-1.15.49-1.72.76l-.55.41A4.05,4.05,0,0,0,655,26.84a10.35,10.35,0,0,0-1.3,3.39,16.13,16.13,0,0,0,0,6.58,41.75,41.75,0,0,0,1.63,5.84c.71,2.14,1.55,4.17,2.59,6.56,1.12,2.58,2.42,5.13,3.69,7.6l.54,1.07c1.43,2.82,3.1,5.57,4.71,8.23l.08.14,1.21,2c1.27,2.07,2.58,4.22,3.8,6.37,1.66,2.92,3.08,6,4.38,8.81.83,2,1.63,4,2.43,6l1.17,2.9c1.52,3.77,3.08,7.47,4.64,11,1.36,3.07,2.71,6.07,4.24,8.93a42.71,42.71,0,0,0,2.65,4.34c.34.49.68,1,1,1.49l.38.56c.18.26.37.52.56.77a12.44,12.44,0,0,1,.78,1.12,15.09,15.09,0,0,1,.47,2.16c.34,3.62.54,7.5.62,12.21.08,4.31.13,8.85.17,13.88,0,3.75,0,8,.33,12.16.31,4.35.63,9,.88,13.84.1,2,.16,4,.21,6l0,1.13c0,1.73.1,3.53.08,5.29,0,3.26-.29,6.56-.53,9.76-.09,1.23-.18,2.47-.26,3.71-.26,3.95-.43,8.13-.49,12.44,0,2.21,0,4.24,0,6.22v.28c0,2,.08,4,.28,6v.16a23.83,23.83,0,0,0,1.78,8.18,8.83,8.83,0,0,0,1.3,2,9,9,0,0,0,1.62,1.33,5.29,5.29,0,0,0,2.45.64q.33,0,.66,0c.32,0,.64,0,1,0a24.4,24.4,0,0,0,5.35-1l1.88-.6c3.32-1,6.76-2.13,10.2-2.92,1.6-.37,3.24-.69,4.82-1,2.46-.48,5-1,7.44-1.67,1.41-.4,2.8-.93,4.16-1.45.48-.18,1-.37,1.44-.54l.92-.34c1.52-.57,3.1-1.16,4.69-1.65a52.25,52.25,0,0,1,7.4-1.66c.71-.09,1.42-.16,2.13-.23s1.21-.12,1.81-.2l.2,0a5.81,5.81,0,0,0,4.64-2.63,12.58,12.58,0,0,0,1.57-3.74,32.87,32.87,0,0,0,.75-4.38c.18-1.41.3-2.77.42-4.08l0-.48a113.06,113.06,0,0,0,.33-12.31l-.18-10q-.16-8.35-.31-16.73c-.07-4.21-.35-8.45-.66-12.78a46.68,46.68,0,0,0-.87-6.85c-.22-1-.45-2-.73-2.93-.12-.41-.24-.81-.37-1.22s-.36-1.11-.51-1.67c-.67-2.47-1.14-4.49-1.46-6.36s-.57-3.55-.82-5.28l-.09-.65,0-.32a89.88,89.88,0,0,0-2.24-11.87,18,18,0,0,0-1.11-2.79c.34-.52.71-1,1.08-1.54l.53-.75,1.25-1.79.46-.66c.88-1.24,1.84-2.46,2.77-3.64l.92-1.17,2.59-3.12c2.15-2.61,4.37-5.3,6.48-8,1.69-2.18,3.36-4.39,5-6.59q1.9-2.53,3.83-5c3.54-4.44,7.75-9.65,12.1-14.73,2.3-2.69,4.45-5.56,6.26-8,1.5-2,3.13-4.22,5.28-7,.91-1.17,2-2.52,3.1-3.78.44-.5.88-1,1.33-1.48.71-.79,1.45-1.6,2.15-2.43s1.38-1.73,1.95-2.57l.32-.46a9.67,9.67,0,0,0,1.66-3.1c.89-3.27-1.85-6.05-4.34-8.11-1.46-1.21-3-2.46-5.07-4.07-1.51-1.19-3.1-2.32-4.63-3.42l-1-.7c-3.33-2.4-7.11-5.11-10.74-7.88l-.12-.08h0l-.34-.29a50.55,50.55,0,0,1-8-7.12c-.48-.73-.91-1.5-1.33-2.24a32,32,0,0,0-1.85-3c-.44-.6-.89-1.19-1.36-1.78a7.92,7.92,0,0,0-3.32-2.4A6.19,6.19,0,0,0,770.24,0Z"/><path class="cls-1" d="M307.31,21.29a4.29,4.29,0,0,0-1.06.14l-.76.1a36.45,36.45,0,0,1-5,.46c-.55,0-1.07,0-1.58-.07-.85-.12-1.7-.23-2.57-.31-.34,0-.69,0-1,0-.71,0-1.43.05-2.12.1-1,.06-1.93.14-2.89.22l-3.12.23c-.9.06-1.79.13-2.68.22l-1,.12h0a4.17,4.17,0,0,0-1,.13l-.22,0-.14,0-.39.05-.32,0-.23,0-.91.16a29.21,29.21,0,0,0-9.32,3.58c-1.44-.05-2.89-.12-4.34-.2-2.1-.13-4.24-.29-6.35-.47-2.41-.22-4.79-.39-7.29-.53-1.32-.07-2.68-.1-4.16-.1-2.8,0-5.65.13-8.32.27-4.55.23-9,.45-13.52.55l-2.11,0c-3.73,0-7.43-.19-11.21-.41-4.85-.27-9.1-.47-13-.63-3.35-.13-6.75-.21-10-.28-4.94-.11-10.05-.23-15.07-.53q-2.89-.19-5.79-.32l-3.1-.11h-.31a8.6,8.6,0,0,0-2.89.45,6.89,6.89,0,0,0-2.26,1.35,12.51,12.51,0,0,0-1.88,2.11,7,7,0,0,0-.83,1.69l-.14.37c-.24.59-.46,1.18-.68,1.77s-.41,1.28-.59,1.91l-.23.8c-.36,1.17-.7,2.34-1,3.53a43,43,0,0,0-1.1,6.83c-.18,1.83-.37,4-.46,6.2-.07,1.53,0,3.09.07,4.59l0,1c.16,4.25.29,8.43.36,12.41,0,1.91.08,3.8.09,5.7l0,1.43v1.65c0,.67,0,1.36.08,2a8.82,8.82,0,0,0,1.42,4.11,8.41,8.41,0,0,0,4,3,14.69,14.69,0,0,0,4.09,1c.42,0,.83.06,1.24.06a24,24,0,0,0,4.14-.46c.59-.11,1.17-.23,1.75-.36l1.15-.24c.74-.14,1.49-.26,2.23-.38a246.74,246.74,0,0,1,24.78-1.14c3.81,0,7.62-.07,11.43-.07H213c2.71,0,5.46.21,8.13.41,1.19.09,2.39.18,3.58.25l1.48.11.23,0,.39.07c.16,1.87.23,3.79.3,5.65l0,1c.08,1.9.11,3.79.14,6q.06,5.73.09,11.45v2.24c0,1.79,0,3.64.1,5.46l.11,2.11c.07,1.4.15,2.81.21,4.23.19,4.77.32,9,.39,12.89,0,1.67.05,3.88-.07,6.12l0,.85c-.1,1.81-.2,3.61-.27,5.42,0,1.21-.08,2.42-.11,3.64-.1,3.15-.2,6.4-.42,9.6-.6,8.71-.69,17.39-.77,25.78l0,3.41,0,3.41c0,1.84-.11,3.72-.21,5.53l0,.82c-.16,3-.43,6.06-.69,9l-.33,3.71a84.42,84.42,0,0,0-.38,12.05c.15,2.44.36,4.61.65,6.62a13.49,13.49,0,0,0,1.1,4.22,7.36,7.36,0,0,0,2.34,2.7,13.34,13.34,0,0,0,4.41,1.83,36.61,36.61,0,0,0,5.07.8l.93.11c1,.11,2,.18,2.92.26l.47,0c2.07.16,4.19.26,6.24.36s3.86.14,5.73.18h.47c1.1,0,2.21,0,3.31,0,.86,0,1.71,0,2.56,0,1-.05,1.95-.13,2.9-.25a22.68,22.68,0,0,0,5.07-1,18.46,18.46,0,0,0,1.89-.81,6,6,0,0,0,1.29-.91l.45-.37a10.56,10.56,0,0,0,2.48-3.22,20.79,20.79,0,0,0,1.66-4.47,39.8,39.8,0,0,0,1-5A151.11,151.11,0,0,0,279,211.12c0-1.42,0-2.87,0-4.27,0-.69,0-1.38,0-2.07,0-1.5-.07-3-.12-4.48,0-.68-.05-1.36-.07-2-.08-2.61-.23-5.25-.37-7.81-.09-1.58-.18-3.16-.25-4.74-.17-3.57-.42-7.2-.65-10.7l-.2-3.06c-.28-4.33-.39-8.64-.45-12.29-.15-8.18-.23-16.7-.25-26v-1.8c0-1.54,0-3.13,0-4.69-.07-2.17-.18-4.28-.32-6.61-.27-4.62-.38-9.19-.45-12.66l0-1.93c0-1.72,0-3.51-.17-5.25a42.31,42.31,0,0,0-.62-4.36c-.15-.77-.36-1.53-.56-2.27l-.16-.58.36-.19a33.44,33.44,0,0,1,5.72-1.34l.48-.09,2.9-.5,2.09-.35,3-.53c2.27-.4,4.54-.81,6.82-1.17,3.83-.46,7.78-.88,11.75-1.25,1.85-.17,3.7-.36,5.54-.55,2.47-.25,5-.52,7.53-.73q3.11-.24,6.21-.53l1.54-.16c1.45-.15,3-.32,4.45-.34h1.77c.49,0,1,0,1.45,0a6.32,6.32,0,0,0,4.29-2,5.87,5.87,0,0,0,1.39-4.88,49.49,49.49,0,0,0-1.3-6.76l0-.14c-.31-1.26-.61-2.53-.9-3.79-.52-2.21-1.06-4.49-1.63-6.73-.44-1.69-.95-3.34-1.51-4.9-.49-1.4-1.1-2.79-1.69-4.13l-.44-1a62.3,62.3,0,0,1-3.23-9.78c-.19-.86-.35-1.71-.51-2.57s-.33-1.72-.52-2.57a20.67,20.67,0,0,0-1.19-3.87,10.41,10.41,0,0,0-3.11-3.95,18.54,18.54,0,0,0-9.15-3.77c-1.77-.24-3.43-.44-5.07-.59a4,4,0,0,0-1.85-2.47l-.48-.2-.48-.21a4.3,4.3,0,0,0-1.07-.14Z"/><path class="cls-1" d="M401.73,20.4c-1.1,0-2,0-2.9.1-1.67.15-3.16.31-4.55.51a27.87,27.87,0,0,0-7.21,2.48l-.82.36a106.28,106.28,0,0,0-10.09,5.06,3.87,3.87,0,0,0-1.58,1.74,15.7,15.7,0,0,0-2.81,1.1,18,18,0,0,0-3.18,2.17l-.53.42a54.93,54.93,0,0,0-6.68,6.6c-2.91,3.23-5.73,6.64-8.47,9.93l-.66.79c-1.6,1.94-3.14,4-4.51,5.77-.48.63-.94,1.28-1.4,1.93l-.39.55c-.59.83-1.15,1.71-1.66,2.6a16.9,16.9,0,0,0-1.67,4.7,46,46,0,0,0-.89,6.92l-.14,2.23-.14,2.22c-.11,1.59-.17,3.19-.24,4.79l-.09,2c-.19,4.08-.51,8.21-.82,12.21l0,.33c-.77,10-1.18,18.2-1.28,25.69-.07,4.35-.13,8.7-.15,13.06,0,.63,0,1.26,0,1.9,0,1.41,0,2.82,0,4.23,0,.51,0,1,0,1.52,0,1.63,0,3.32.18,5l.1,1.21c.17,2,.35,4,.64,6l.28,1.89c.23,1.55.46,3.1.72,4.65q1.17,6.84,2.38,13.68c.34,1.93.72,3.83,1.17,6.08.18.86.37,1.7.59,2.55.09.36.17.72.25,1.08.18.78.37,1.58.62,2.34l.42,1.31c.51,1.59,1,3.24,1.63,4.83.81,2.17,1.67,4.4,2.58,6.64a71.49,71.49,0,0,0,6,11.37c1.31,2,2.5,3.88,3.79,5.72,1.15,1.66,2.44,3.45,4.07,5.61a80.2,80.2,0,0,0,5.67,7,49.5,49.5,0,0,0,6.66,5.75,33.41,33.41,0,0,0,8.25,4.37,56.73,56.73,0,0,0,8.75,2.24l1.41.29a33.37,33.37,0,0,0,6.71.71c.73,0,1.47,0,2.19-.08a41.36,41.36,0,0,0,9.23-1.88,64.54,64.54,0,0,0,12.37-5.72l.87-.48c.58-.31,1.17-.64,1.72-1l3.31-2.21c.69-.47,1.36-1,2-1.5l.52-.41.84-.66c.58-.44,1.15-.88,1.7-1.35,2-1.69,3.72-3.21,5.31-4.64a68.58,68.58,0,0,0,10-11.47c1.57-2.24,3-4.6,4.4-6.89l.71-1.18c1.05-1.72,2-3.5,2.84-5l.42-.78c.83-1.51,1.68-3.07,2.43-4.66l.5-1c1.37-2.85,2.78-5.8,3.93-8.8a42.17,42.17,0,0,0,2.2-8.57,78.89,78.89,0,0,0,.94-8.29c.29-5.1.52-9.82.7-14.44.17-4.24.48-8.55.78-12.71s.61-8.41.78-12.62.14-8.44.09-12.72q-.09-6.75-.2-13.49c-.06-4-.3-8.06-.75-12.47-.3-3-.64-6-1-8.94-.16-1.34-.31-2.68-.46-4-.25-2.22-.61-4.47-.95-6.64l-.09-.62a36.32,36.32,0,0,0-1.31-5.82A54,54,0,0,0,465,57c-.77-1.58-1.56-3.31-2.48-5.43a49.61,49.61,0,0,0-5.92-10.44,42.84,42.84,0,0,0-9.94-9.47,36.07,36.07,0,0,0-5-2.68c-1.92-.88-3.85-1.69-5.73-2.4l-2.07-.76c-1.11-.41-2.23-.82-3.34-1.25a42,42,0,0,0-5.73-1.6,82.9,82.9,0,0,0-9.29-1.36L414,21.48l-3.06-.36-2.06-.25-.87-.1c-1.26-.15-2.56-.31-3.83-.34-.81,0-1.6,0-2.4,0Zm-.42,82a3.92,3.92,0,0,0,2-.54,4.16,4.16,0,0,0,1.7-2l.74.24a12.5,12.5,0,0,1,1.13.63,4,4,0,0,1,.35.36c.14.24.26.49.38.75a39.72,39.72,0,0,1,1.76,7.72c.14,1.64.29,3.39.37,5.14l0,.8c0,.86.08,1.72.1,2.59a67.09,67.09,0,0,1-.5,8.73,42.92,42.92,0,0,1-2.1,9.32,14.34,14.34,0,0,1-.89,1.66l-.1.1a10.74,10.74,0,0,1-1.43.09,24.06,24.06,0,0,1-2.63-.16,22.91,22.91,0,0,1-4.07-1,17.92,17.92,0,0,1-2.49-1.41c-.3-.26-.59-.53-.87-.82a7.19,7.19,0,0,1-.37-.67,22.34,22.34,0,0,1-1.07-4.22c-.19-1.73-.33-3.3-.43-4.79s-.11-2.88-.12-4.28v-1.28a12,12,0,0,1,.06-1.33l0-.56.1-1.73.1-1.73c.07-1.16.22-2.35.37-3.49l.12-.9.15-.86c.3-1.82.62-3.69,1-5.51a4.27,4.27,0,0,0,2.24-1.1c.36-.33.73-.65,1.1-1l.19-.13a4.14,4.14,0,0,0,3,1.38Z"/><path class="cls-1" d="M90.76,15.44a22.64,22.64,0,0,0-3,.2c-.93.11-1.86.24-2.78.4a6.18,6.18,0,0,0-.62-.07c-.56,0-1.12,0-1.67,0a20.59,20.59,0,0,0-5,.57,11.5,11.5,0,0,0-1.44.46l-.61.06-.6.06c-4,.39-8.2,1-13.6,2-3.6.64-7.84,1.42-12.07,2.38-1.11.25-2.21.53-3.31.82-.89.23-1.78.54-2.64.83l-.39.14c-1.86.64-3.72,1.38-5.51,2.1L37,25.5A90.41,90.41,0,0,0,24.9,31.27a41.3,41.3,0,0,0-5.51,3.91,51.37,51.37,0,0,0-4.63,4.35,49,49,0,0,0-4.19,5.37,34.21,34.21,0,0,0-2.84,5.22l-.16.34A58.88,58.88,0,0,0,5,57.26C4.42,59,3.85,60.82,3.43,62.68c-.27,1.25-.55,2.51-.82,3.76-.16.68-.26,1.4-.36,2.09,0,.33-.09.66-.14,1-.42,2.6-.74,5.25-1,7.72C.6,81.5.26,85.73.07,89.82A77.5,77.5,0,0,0,.58,102.3a125.25,125.25,0,0,0,2.18,13.28c1.8,8,4.45,17.09,10.45,24.06a28.59,28.59,0,0,0,2.64,2.71,21.26,21.26,0,0,0,3,2.21,18.51,18.51,0,0,0,4.44,1.81A60.33,60.33,0,0,0,32,148.1a43.69,43.69,0,0,0,6.41.59h.48a53.08,53.08,0,0,0,7.13-.52c2.7-.43,5-.83,7.09-1.26,2.37-.49,4.76-.9,7.3-1.26,3.13-.36,6.36-.74,9.64-.87q1.39-.06,2.79-.06c2.2,0,4.47.11,6.74.33,1.67.26,3.16.55,4.55.88a38.67,38.67,0,0,1,4.79,1.54,13,13,0,0,1,1.55.83q.39.39.75.81a21.17,21.17,0,0,1,2,3.5,48.42,48.42,0,0,1,2.42,9.3,37.16,37.16,0,0,1,.09,7.56,22.24,22.24,0,0,1-1,3.49,19.16,19.16,0,0,1-1.61,2.84,15.79,15.79,0,0,1-1.43,1.49l-.76.44a27.14,27.14,0,0,1-5.27,1l-.16,0c-5.4.49-10.94.82-16.48,1-1.38,0-2.77.06-4.16.06-1.71,0-3.25,0-4.7-.11-2.6-.14-5.23-.36-8-.68-4.47-.68-8.85-1.68-12.16-2.46l-3.51-.86c-2.73-.68-5.55-1.38-8.36-1.94-.84-.17-1.68-.32-2.52-.46a16.29,16.29,0,0,0-2.89-.31c-.25,0-.49,0-.74,0a8.93,8.93,0,0,0-5,2.22c-2.26,1.88-3.42,4.64-4.54,7.3l-.32.75A130.07,130.07,0,0,0,7.73,195.7c-1.3,4.21-2.61,8-4,11.7l-.53,1.4-.54,1.4-.15.39a19.27,19.27,0,0,0-1.18,3.78,14.64,14.64,0,0,0,1.86,9.22,21.08,21.08,0,0,0,2.63,3.64A34.09,34.09,0,0,0,9,230.46a62.64,62.64,0,0,0,6.65,5.06l.29.2c1.65,1.15,3.43,2.36,5.36,3.44a50.5,50.5,0,0,0,6.27,3l1.23.49,2,.8c.77.3,1.57.55,2.35.8.41.13.82.25,1.23.39a77.92,77.92,0,0,0,12,2.86c2.41.41,4.68.76,6.93,1.07l.22,0c2,.28,4.16.57,6.25.69l.56,0c1.18.06,2.4.13,3.61.14h.28a33,33,0,0,0,7.86-.94,48.68,48.68,0,0,0,4.76-1.34,54.35,54.35,0,0,0,9.2-4.56c2.45-1.44,4.81-3,7-4.57,1.45-1,3.35-2.46,5.13-4l2.84-2.46,2.84-2.45c1.2-1,2.36-2.14,3.49-3.21.55-.53,1.1-1.06,1.66-1.58,1.07-1,2.1-2.05,3.1-3.07l1.36-1.38c2.91-2.93,5.64-6.12,8.42-9.4.58-.69,1.13-1.44,1.66-2.15l.59-.8c.56-.72,1.09-1.47,1.63-2.27,1.07-1.58,2.46-3.67,3.79-5.85a123.89,123.89,0,0,0,6.33-11.4,57.69,57.69,0,0,0,2.52-6.05,43.16,43.16,0,0,0,1.66-6.88c.43-2.56.79-5,1.11-7.33s.57-4.72.73-7.09a36.2,36.2,0,0,0-.18-6.48c-.14-1.24-.29-2.57-.54-3.85a49.4,49.4,0,0,0-1.55-6.24c-.73-2.18-1.6-4.41-2.64-6.81a25.16,25.16,0,0,0-4.74-7.12,28.23,28.23,0,0,0-8.12-5.61c-.49-.25-1-.46-1.52-.67l-.52-.22c-1-.44-2-.87-3.06-1.22-1.8-.62-3.66-1.18-5.68-1.72-1.85-.49-3.71-1-5.53-1.39-1.58-.37-3.22-.61-4.81-.84l-.79-.12c-4-.6-8.1-1-12-1.29-3.57-.31-7.18-.71-10.68-1.1a33.61,33.61,0,0,1-7.18-1.69,19.39,19.39,0,0,1-3.28-1.87,17.77,17.77,0,0,1-2-1.93,19.56,19.56,0,0,1-1.5-2.64,23.58,23.58,0,0,1-1.2-4.5,25.45,25.45,0,0,1,0-4.7,18.37,18.37,0,0,1,.6-2.43,17.82,17.82,0,0,1,1.54-2.4,51.17,51.17,0,0,1,4.21-4.61c1.36-1.29,2.83-2.5,4.26-3.66l.46-.37a15.84,15.84,0,0,1,2.25-1.39,33.57,33.57,0,0,1,5.86-1.56c1.35-.25,2.72-.48,4.19-.71,2.43-.22,4.6-.33,6.62-.33.59,0,1.17,0,1.76,0,2.6.09,5.26.38,7.82.66,1.45.22,2.59.43,3.67.65l.57.13,1.4.29c.52.09,1,.16,1.55.22a3.81,3.81,0,0,0,.75.07,4.45,4.45,0,0,0,1.08-.14,4.71,4.71,0,0,0,3.29-2.33,6.27,6.27,0,0,0,.69-3c0-.87,0-1.73,0-2.59V67.39c0-2.45,0-5,.08-7.46.06-1.59.14-3.18.23-4.78.06-1.17.21-2.36.35-3.51l.08-.68c.27-1.83.61-3.68.94-5.47.25-1.36.5-2.71.72-4.07a38.94,38.94,0,0,0,.61-6.24c0-.73,0-1.46-.1-2.21a19.54,19.54,0,0,0-.38-2.36A8.29,8.29,0,0,0,119,29l-.21-.46a6.28,6.28,0,0,0-.7-1,14.81,14.81,0,0,0-1.52-1.75,15.67,15.67,0,0,0-3.79-2.57l-.19-.1-.2-.11a18.13,18.13,0,0,0-1.51-1.2,24.31,24.31,0,0,0-4.49-2.38c-1.23-.53-2.47-1.07-3.7-1.62a22.86,22.86,0,0,0-5-1.58,36.51,36.51,0,0,0-6.88-.74Z"/><path class="cls-1" d="M544.69,7.08c-.72,0-1.49,0-2.28.1l-.27,0c-1.33.1-2.7.21-4,.44-1.14.19-2.27.42-3.39.66-.91.19-1.82.37-2.74.54l-1.43.26c-1.5.26-3,.53-4.55.92-1.18.31-2.41.7-3.76,1.2-1,.38-2.08.86-3.07,1.32-.37.17-.74.35-1.11.51-1.85.8-3.72,1.64-5.56,2.51a17,17,0,0,0-3.61,2.37,17.37,17.37,0,0,0-3.22,3.87l-.13.19a42.63,42.63,0,0,0-2.74,5l-.34.69a4.17,4.17,0,0,0-3.22,2l-.58.9c-1.15,1.81-2.34,3.68-3.4,5.58a18.85,18.85,0,0,0-1.57,3.87,22.51,22.51,0,0,0-.6,4.41l0,.23a60.41,60.41,0,0,0-.16,6.82l.09,2.1.09,2.1,0,.81c0,.57,0,1.14.09,1.7l.33,3.53.37,3.87c.73,7.81,1.19,16.11,1.38,25.38,0,1.37.05,2.74.08,4.11.05,3.07.11,6.24.21,9.35q.12,3.57.27,7.14c.08,2.2.17,4.4.24,6.6l0,.62c.28,8.25.57,16.77,1.14,25.14.21,3.11.58,6.26.94,9.31.15,1.23.29,2.47.43,3.7.47,4.26.84,8.5,1.17,12.46.43,5.22.76,9.54,1.05,13.6l.07,1.08c.13,1.81.25,3.63.41,5.44l.12,1.52a50.66,50.66,0,0,0,.62,5.49c.38,2,.93,3.93,1.47,5.83l.37,1.34a53.74,53.74,0,0,1,1.14,5.56l.15.86c.32,2.5.54,4.77.69,6.94.16,2.48.24,5,.29,7.25l0,.82c.05,2.25.11,4.57.28,6.85.18,2.51.57,5,.95,7.48l.07.46a46.39,46.39,0,0,1,.17,5.21c0,1,0,2-.08,3,0,.35-.06.71-.1,1.06l0,.28a7.41,7.41,0,0,0,.24,3.07,5.42,5.42,0,0,0,.85,1.68,6.32,6.32,0,0,0,1.9,1.81,12.14,12.14,0,0,0,3.6,1.27c1.16.22,2.35.33,3.51.44l.68.06a17.41,17.41,0,0,0,1.78.08,25.62,25.62,0,0,0,2.68-.15c1.84-.21,3.71-.48,5.52-.75l2-.3c2.28-.28,4.16-.45,5.93-.53.72,0,1.44,0,2.16,0l2.58,0,1.68,0,1.2,0,2.49,0c.77,0,1.54,0,2.31,0a44.46,44.46,0,0,0,6.93-.77,19.63,19.63,0,0,0,2.87-.85,11.9,11.9,0,0,0,4.93-3,11.35,11.35,0,0,0,2.68-6.48,18.24,18.24,0,0,0-.1-4.24c0-.34-.07-.67-.1-1-.37-4.36-.59-8.82-.79-13-.09-2-.15-4.08-.21-6.12-.06-2.21-.12-4.42-.23-6.63A116.32,116.32,0,0,0,563,200.58c-.53-3.17-1-6.35-1.52-9.53l-.49-3.11c-.44-2.81-1-5.65-1.48-8.39-.24-1.29-.48-2.58-.71-3.87-.79-4.39-1.67-9.1-2.68-14.39-.41-2.12-.85-4.24-1.29-6.36-.1-.49-.22-1-.34-1.46s-.26-1-.36-1.52c-.2-1-.36-2-.49-2.95-.16-1.34-.33-2.67-.49-4l0-.22c.55.68,1.11,1.37,1.66,2.07,1.82,2.42,3.5,5,5.12,7.52q1.17,1.83,2.38,3.65l.93,1.4c.84,1.27,1.71,2.59,2.62,3.86,1.42,2,2.87,4,4.31,6l.59.79c2.16,2.92,4.39,5.95,6.33,9.08l.44.71c1,1.66,2.11,3.39,3.1,5.12s2,3.61,3.13,5.64c2.56,4.77,5.31,9.84,8.22,14.73,1.29,2.17,2.6,4.33,3.91,6.49a65.8,65.8,0,0,1,3.68,6.95c.46,1.16.88,2.34,1.29,3.51s.78,2.17,1.19,3.25c.67,1.73,1.51,3.41,2.32,5,.46.92.92,1.83,1.35,2.76a38.38,38.38,0,0,0,1.94,4.15c.15.26.3.52.46.77s.44.74.63,1.12c.38.72.73,1.46,1.07,2.2l0,.11c.29.62.56,1.24.83,1.87l.11.26a6.76,6.76,0,0,0,2.48,3,11.1,11.1,0,0,0,1.83.9l.3.13.5.08a8.86,8.86,0,0,0,1.72.17h.26a13.92,13.92,0,0,0,1.71-.15l.19,0,.48,0c.47-.06.93-.12,1.39-.2,1.09-.2,2-.39,2.79-.6,1.9-.5,3.56-1,5.07-1.57,1.85-.67,3.67-1.46,5.44-2.22l.73-.31c1.68-.72,3.37-1.49,5-2.24,1.34-.61,2.68-1.23,4-1.82a47.72,47.72,0,0,1,5.45-2,56.21,56.21,0,0,1,6-1.32l1.13-.18a24.37,24.37,0,0,0,6.27-1.59,6.55,6.55,0,0,0,3-2.84,5.61,5.61,0,0,0,.68-2.51,10.22,10.22,0,0,0-.24-2.26,6,6,0,0,0-.41-1.26l-.18-.45c-.26-.73-.57-1.43-.88-2.14a27.81,27.81,0,0,0-2.81-4.94c-1.33-1.92-2.58-3.9-3.62-5.59a103.4,103.4,0,0,1-5.78-11.1l-.46-1c-.69-1.5-1.4-3-2.25-4.49-1.27-2.2-2.58-4.31-3.81-6.26-2-3.17-4.19-6.57-6.75-10.39l-3.36-5q-1.94-2.88-3.86-5.77l-.28-.42c-2.27-3.4-4.61-6.91-7-10.26s-5-6.82-7.39-10.25c-.73-1-1.43-2.09-2.1-3.13l-1-1.6-1.29-1.95c-.56-.87-1.13-1.73-1.71-2.59-1.17-1.72-2.34-3.45-3.53-5.17-.88-1.28-1.84-2.54-2.76-3.76l-.69-.9c-.76-1-1.56-2-2.35-3-.5-.62-1-1.24-1.5-1.87l-1.8-2.28-1.81-2.31-.59-.77c-1.57-2-3.18-4.15-4.91-6.11-.83-1-1.76-1.94-2.82-3-.44-.45-.9-.89-1.36-1.32l-.12-.11c.33-.3.65-.62,1-.94.81-.85,1.59-1.7,2.38-2.57q2.08-2.31,4.22-4.59a69,69,0,0,0,8.3-10.09A58.57,58.57,0,0,0,609,76.36a41.75,41.75,0,0,0,1.6-6.07c.25-1.36.43-2.76.6-4.12l.16-1.24c.26-2,.48-4,.65-5.9.19-2.14.39-4.41.44-6.67a26.78,26.78,0,0,0-.15-3.56,16.38,16.38,0,0,0-2.28-6.94c-.59-1-1.23-1.92-1.85-2.84s-1.14-1.7-1.67-2.56c-.26-.4-.5-.81-.75-1.21-.8-1.3-1.62-2.65-2.52-3.9a40.84,40.84,0,0,0-4.69-5.54,32.47,32.47,0,0,0-6.05-4.22l-1.37-.81c-1.77-1.06-3.58-2.1-5.12-3-1.86-1-3.78-2.14-5.77-3.06a54.43,54.43,0,0,0-12.72-4c-2.15-.41-4.29-.82-6.45-1.21-1-.17-1.9-.36-2.85-.56s-1.9-.4-2.86-.57c-2.63-.47-5.69-1-8.72-1.24q-1-.09-2-.09Zm-1.8,56.78h0c.51-3.49,1-6.38,1.5-9.11a8,8,0,0,0,.11-.84,2.22,2.22,0,0,0,.41-.2q.48-.26,1-.48c.86-.31,1.73-.6,2.59-.84a33.55,33.55,0,0,1,3.3-.79c.32,0,.64,0,1,0,.52,0,1.06,0,1.67.09s1.5.29,2.24.44l1.36.27a25.5,25.5,0,0,1,4.11,1.09A8.56,8.56,0,0,1,563,54a14.23,14.23,0,0,1,1.41,1.47c.18.27.34.54.49.82a13.75,13.75,0,0,1,.49,1.94,14.55,14.55,0,0,1,0,2.47,21.67,21.67,0,0,1-1.14,4,20.08,20.08,0,0,1-1.67,2.93c-.62.89-1.28,1.76-1.84,2.5a40.23,40.23,0,0,1-5.64,6,16.34,16.34,0,0,1-2.44,1.39,28.8,28.8,0,0,1-5,1.26c-.7.06-1.24.09-1.74.09l-.71,0-.54-.14c-.24-.44-.48-.91-.76-1.53s-.58-1.52-.81-2.32a21.82,21.82,0,0,1-.52-2.38c-.1-1.4-.13-2.86-.09-4.6a33.77,33.77,0,0,1,.39-4Z"/></g></g></svg>