<svg xmlns="http://www.w3.org/2000/svg" viewBox="0 0 518.96 256.59"><defs><style>.cls-1{fill:#fff;}</style></defs><g id="Layer_2" data-name="Layer 2"><g id="Draw_Layer" data-name="Draw Layer"><path class="cls-1" d="M31.46.48a52.57,52.57,0,0,0-9,.67,37.79,37.79,0,0,0-5.18,1.31,8.7,8.7,0,0,0-1.55.61,14,14,0,0,0-1.5,1.06l-.18.14a7,7,0,0,0-1,1.22l-.16.21c-.22.29-.42.59-.61.9a19.81,19.81,0,0,0-1.38,3L10.7,10l-.16.4A45.66,45.66,0,0,0,8.92,15.3C8.36,17.22,8,19.08,7.54,21c-.63,3-1.18,6-1.7,9l0,.24-.3,1.71c-.39,2.14-.67,3.8-.9,5.49l0,.35,0,.14c-.12.87-.24,1.78-.31,2.68,0,.27,0,.53-.07.8-.06.62-.13,1.33-.13,2,0,2,0,4.07.07,6.13s.19,4,.29,6c.12,2.15.27,4.23.42,6.31.11,1.5.22,3,.31,4.48a68.14,68.14,0,0,1-.27,9.38l-.14,1.88c-.23,3.31-.5,7.07-.93,10.77-.41,3.55-.7,7.37-.86,11.65-.21,5.8-.24,11.81-.26,17.12,0,1.67,0,3.32,0,5,0,2-.08,3.67-.22,5.19l-.05.62a26.87,26.87,0,0,0-.15,4.55c.07,1,.18,2,.33,3A12.75,12.75,0,0,0,3,137.28l.1.3.18.6c.17.53.32,1,.53,1.55a10,10,0,0,0,.76,1.64A6.79,6.79,0,0,0,5,142l.16.22c.17.24.36.48.54.71l.08.11.2.24,1.12,1.5c.69.94,1.48,2,2.3,3a14.22,14.22,0,0,0,2.87,2.47,4.74,4.74,0,0,0,.78.4l.16.06c.49.21,1,.43,1.58.61a11.51,11.51,0,0,0,2.76.42l.33,0c1,.07,2,.1,3.11.1.77,0,1.53,0,2.31,0a23.47,23.47,0,0,0,5.89-.9c1.68-.51,3.33-1.09,4.9-1.73a58.93,58.93,0,0,0,5.38-2.57c1.25-.66,2.5-1.39,3.7-2.09l.1-.06.52-.31c1-.6,2.09-1.19,3.15-1.77l1.11-.62c1.84-1,3.51-1.94,5.27-2.75,1.1-.42,2.21-.83,3.31-1.23l.17-.06.54-.19,2.32-.86a42.39,42.39,0,0,1,7.1-2.16c1.41-.27,2.83-.51,4.24-.75l.83-.15c.89-.15,1.77-.3,2.65-.47,1.17-.21,2.34-.47,3.43-.71,1.39-.31,2.64-.58,3.9-.8a24,24,0,0,1,2.4-.13,23.16,23.16,0,0,1,2.74.17c1.62.18,3.5.38,5.35.47,1.41.06,2.83.08,4.24.11,2.34,0,4.7.08,7,.28a36.47,36.47,0,0,1,6.68,1.73,22.61,22.61,0,0,1,3.19,1.81c.91.62,1.84,1.29,2.86,2.07a49.76,49.76,0,0,1,7.86,7.9,26.82,26.82,0,0,1,2.91,4.49,19,19,0,0,1,.78,3.41l.23,1.45c.1.57.19,1.15.28,1.73.12,1,.21,2.11.3,3.16,0,.58.1,1.16.16,1.75l.16,1.68c.14,1.3.27,2.59.37,3.89.13,1.72.21,3.54.23,5.41a34.38,34.38,0,0,1-.29,4.74,28,28,0,0,1-1.61,5.61,34.25,34.25,0,0,1-3.51,6.15,27.76,27.76,0,0,1-4,4l-3.28,2.39L115.29,197a28.5,28.5,0,0,1-4.81,2.92,19.63,19.63,0,0,1-3.17,1c-1,.21-2.13.39-3.45.58a71.66,71.66,0,0,1-7.41.4,57.09,57.09,0,0,1-6-.31l-.1,0a19.81,19.81,0,0,1-2-.44c-.75-.22-1.45-.45-2.14-.72s-1.56-.76-2.33-1.15l-.23-.12c-.66-.34-1.33-.67-2-1a49.11,49.11,0,0,0-6.11-2.38c-1.44-.46-2.94-.84-4.38-1.2a57.59,57.59,0,0,1-5.93-1.74,23.2,23.2,0,0,1-3.57-2.2c-1.16-.94-2.35-2-3.64-3.16-.73-.67-1.47-1.31-2.22-1.95l-.16-.14L54.14,184c-.46-.4-.91-.81-1.36-1.22-.77-.7-1.54-1.39-2.33-2.06a16.73,16.73,0,0,0-2.59-1.89c-.85-.47-1.7-.92-2.57-1.35l-1-.49c-.45-.2-.82-.37-1.18-.56s-.63-.31-1-.45c-.48-.21-1-.41-1.45-.59a7.38,7.38,0,0,0-2-.35l-.36,0H38a7.3,7.3,0,0,0-.92.08l-.26,0c-.54.06-1.17.15-1.8.28l-1.49.33-.38.09-1.08.24-3.35.73c-2.06.42-4.38.91-6.65,1.52A65.35,65.35,0,0,0,12,182.11a25,25,0,0,0-4.35,2.5,47.38,47.38,0,0,0-4.3,3.5A10,10,0,0,0,.92,191a10.7,10.7,0,0,0-.78,3.34l0,.3A11.36,11.36,0,0,0,0,196a18.11,18.11,0,0,0,.23,3.34A16.81,16.81,0,0,0,.8,202a49.56,49.56,0,0,0,4.93,10.23,64.53,64.53,0,0,0,5.07,7.24A16.88,16.88,0,0,0,13,221.55l.46.4L14.7,223l.24.2c.8.66,1.65,1.29,2.47,1.9.43.32.84.62,1.24.93,2.1,1.64,4.18,3.3,6.27,5l.6.48,1.35,1.07c2.32,1.85,4.74,3.58,6.8,5,.6.59,1.24,1.16,1.86,1.72l.2.18.28.25a34.14,34.14,0,0,0,4.75,3.55c1.05.65,2.15,1.27,3.22,1.87l1.25.72.91.52c1.06.61,2.25,1.3,3.45,1.93,1.45.77,3,1.57,4.58,2.29,1.73.79,3.4,1.47,5.58,2.34a52,52,0,0,0,10.06,2.8,49.65,49.65,0,0,0,5.92.75c1.42.09,2.85.1,4.19.1h2.71c6.86,0,14,0,20.88-.58a43,43,0,0,0,6.32-1.05,22.12,22.12,0,0,0,2.38-.78l.4-.15c1-.35,1.9-.74,2.84-1.13,4-1.65,7.16-3.11,10.1-4.6a43.12,43.12,0,0,0,9.29-6.13,33.19,33.19,0,0,0,3.25-3.46l.37-.45.25-.28.15-.18c1.08-1.28,2.2-2.59,3.24-3.94a44.43,44.43,0,0,0,2.78-4.09l.54-.44.55-.44,1.62-1.29a39,39,0,0,0,6.77-6.24,28.7,28.7,0,0,0,3.45-6.07c.61-1.37,1.22-2.74,1.82-4.11l.13-.31.46-1.06c1.27-2.89,2.88-6.71,4.17-10.63q.8-2.4,1.54-4.82l0-.1c.4-1,.77-2,1.09-3,.2-.61.39-1.22.56-1.84a8.68,8.68,0,0,0,.34-1.29,64,64,0,0,0,1.38-8.08,88.76,88.76,0,0,0,.57-11c0-3.66-.18-7.22-.41-10.59a81,81,0,0,0-1.64-11.28c-.34-1.61-.73-3.29-1.23-5.3-.19-.76-.4-1.52-.61-2.27s-.47-1.71-.68-2.57c-.58-2.41-1.1-5-1.52-7.05-.22-1.07-.44-2.14-.67-3.21-.43-2-.83-3.68-1.28-5.24-.31-1.12-.7-2.23-1.08-3.3l0-.11-.38-1.07-.24-.68c-.17-.51-.34-1-.54-1.53-.31-.77-.65-1.52-1-2.28l-.4-.89-.36-.85a28.7,28.7,0,0,0-2-4.09l-.35-.55a31.71,31.71,0,0,0-3-4.24c-.47-.52-1-1-1.45-1.42a20.09,20.09,0,0,0-2.48-1.79l-.3-.19a49.89,49.89,0,0,0-9.54-4.69c-.6-.22-1.22-.41-1.82-.59l-.12,0-.3-.09c-.56-.17-1.12-.36-1.67-.55l-.15,0-.6-.21A32.18,32.18,0,0,0,129,91a74.85,74.85,0,0,0-7.83-.76c-1.23-.08-2.47-.16-3.69-.26-3.65-.31-7.17-.5-11.07-.7-1.51-.08-3.18-.11-5.43-.11H95.42c-4.34,0-8.57,0-12.7-.11-4.61-.08-8.45-.17-12.39-.62a14.78,14.78,0,0,1-2.57-.65c-.59-.21-1.18-.41-1.78-.59s-1-.29-1.45-.42c-.76-.21-1.5-.42-2.21-.68l-.25-.21c-.14-.22-.27-.44-.4-.67A10.57,10.57,0,0,1,61.39,84c-.14-1.29-.21-2.61-.27-3.78v-.33c-.09-1.71-.13-3.39-.12-5a88.39,88.39,0,0,1,.62-9.77l0-.12a23.93,23.93,0,0,1,1-4.69,5.33,5.33,0,0,1,.31-.57,13.7,13.7,0,0,1,1.87-.4,4.92,4.92,0,0,0,.67-.1A32.65,32.65,0,0,1,69.18,59c1.41,0,2.9.07,4.57.23l2.26.21c2.28.22,4.5.43,6.68.58,2.39.17,4.83.18,7.18.19H92a29.87,29.87,0,0,0,3.84-.2c1-.12,1.91-.26,2.86-.4l1.52-.22c1.22-.12,2.44-.17,3.71-.17.43,0,.87,0,1.3,0,1.45,0,2.93.2,4.21.35,1.74.3,3.5.66,5.38,1.08a24.06,24.06,0,0,1,2.46.76,23.75,23.75,0,0,0,5,1.35,8.41,8.41,0,0,0,1.14.07,22.61,22.61,0,0,0,3-.28A18.28,18.28,0,0,0,129.1,62c1.11-.34,2.2-.75,3.25-1.15l.38-.15,1.18-.43c1.77-.65,3.6-1.23,5.16-1.72a17.55,17.55,0,0,0,2.63-1.07l1.06-.53A11.71,11.71,0,0,0,145,55.37a11.18,11.18,0,0,0,2.56-3.44,29.51,29.51,0,0,0,1.54-3.39,8.55,8.55,0,0,0,.38-2.12c0-.27,0-.54,0-.82,0-.48,0-1,0-1.44,0-.82-.08-1.64-.13-2.45l-.15-2.06a5.58,5.58,0,0,0,.39-1,3.68,3.68,0,0,0-.8-3.35,61.79,61.79,0,0,0-1.25-6.84l-.45-1.95-.08-.34c-.36-1.55-.71-3.09-1.06-4.64a3.29,3.29,0,0,0,1-1.67,3.39,3.39,0,0,0-.35-2.71c-1.18-1.59-2.5-3.31-4-5.28l-.26-.36a20,20,0,0,0-1.83-2.32c-1.42-1.48-3.54-2-5.78-2.4a33.52,33.52,0,0,0-6.06-.48h-.2c-1,0-2.08.1-2.94.17-.54,0-1.09.1-1.63.13-1.52.1-3,.18-4.55.23-3.47.11-7,.19-10.35.23h-.89l-2.51,0h-1.52c-.91,0-1.81,0-2.72-.1-.5,0-1-.08-1.49-.14l-.13,0c-3.49-.58-7.07-1.18-10.62-2-3.73-.84-7.5-1.48-11-2-4-.64-8-1.08-11.79-1.31s-7.64-.26-10.77-.3l-2.69,0-2.69,0c-1.89,0-3.76-.13-5.34-.24C41.15.68,37.36.58,33.48.5c-.67,0-1.35,0-2,0ZM99.63,249.23c1.87-.12,3.74-.29,5.57-.49h.08l-.75.11c-1.55.17-3.13.3-4.9.39Zm-19.13.32c-1.18,0-2.35,0-3.53,0a33.84,33.84,0,0,1-3.41-.28h-.13q-1.29-.21-2.55-.45l.73.07.74,0c.7,0,1.41,0,2.12.06l3,.08c1.17.05,2.34.13,3.51.2l1.86.11c1.6.09,3.19.16,4.79.23-.71,0-1.39,0-2.06,0h-5Z"/><path class="cls-1" d="M121.89,124.88a5.56,5.56,0,0,0-.92,3.26,16.38,16.38,0,0,0-.29,1.9,16.79,16.79,0,0,0-.1,1.88c-.63-.31-1.27-.6-1.9-.88a97.19,97.19,0,0,0-14.2-4.7l-.52-.23a24.87,24.87,0,0,0-3.58-1.25,22.29,22.29,0,0,0-2.83-.48c-1.26-.18-2.52-.35-3.79-.49-1.44-.16-2.88-.35-4.32-.51a3.5,3.5,0,0,0-.93,6.87,31.59,31.59,0,0,0,4.15.53c1.79.29,3.55.7,5.33,1.08,1.38.3,2.74.68,4.1,1.07.6.31,1.2.63,1.78,1a9.06,9.06,0,0,0,2.41,2.07l1.4.93c.67.43,1.36.83,2,1.22q2.08,1.66,4.12,3.37c1.83,1.53,3.52,3.26,5.24,4.92q1.75,1.72,3.44,3.51c.26,2,.53,4,.79,6.06.29,2.2.57,4.42.77,6.63s.44,4.73.62,7.1l.21,2.74c-.3.53-.6,1.07-.91,1.6-1,1.68-1.89,3.38-2.88,5-2,3.4-4.07,6.8-6.09,10.2-.84,1.43-1.69,2.86-2.52,4.29-.69,1.17-1.34,2.36-2,3.53a65.36,65.36,0,0,1-6.16,5.6,39,39,0,0,1-7.13,4.34c-.93.35-1.88.69-2.83,1A4.75,4.75,0,0,0,91,210.33a3.63,3.63,0,0,0,0,3.53,3.46,3.46,0,0,0,1.26,1.26,3.52,3.52,0,0,0,1.77.47,17,17,0,0,0,3.42-.14c.94-.08,1.88-.18,2.82-.29,1.76-.2,3.52-.46,5.28-.71,1.22-.15,2.44-.28,3.67-.4l1.07-.11c-1,1.1-2.12,2.16-3.17,3.24a72.86,72.86,0,0,1-6.25,5.8,20.8,20.8,0,0,1-2.32,1.49c-.72.39-1.47.72-2.22,1A75,75,0,0,1,84.7,229c-1.68.37-3.36.79-5.06,1.06s-3.18.51-4.77.73-3.47.42-5.18.76a12.54,12.54,0,0,0-4.84,1.76,11.2,11.2,0,0,0-2.62,2.7,11.32,11.32,0,0,0-1.73,3.14,6.53,6.53,0,0,0-.26,3.28,7.17,7.17,0,0,0,1.68,3.41,14.42,14.42,0,0,0,6.17,3.68,34.88,34.88,0,0,0,5.32,1.36,4.77,4.77,0,0,0,.34.63,4.42,4.42,0,0,0,2.06,1.71,5.78,5.78,0,0,0,2.75.56,9,9,0,0,0,2.65-.6,20.32,20.32,0,0,0,2.37-1.09c.45-.23.9-.46,1.33-.72l.28-.11a3.21,3.21,0,0,0,1.17-.58,5.06,5.06,0,0,0,1.32-1.25l.23-.18a3.46,3.46,0,0,0,.91-1.54,3.5,3.5,0,0,0-.36-2.7,4.41,4.41,0,0,0-.44-.6c-.18-.36-.4-.71-.57-1a7.49,7.49,0,0,0-1.36-1.57,14,14,0,0,0-3.29-2.09,25.64,25.64,0,0,0-3.34-1.4,12.13,12.13,0,0,0-3.1-.53,4.43,4.43,0,0,0-4.79,4.73,4.66,4.66,0,0,0,.08.76c-.81-.23-1.61-.49-2.4-.79a14.32,14.32,0,0,1-1.75-1,2.68,2.68,0,0,1-.3-.28,12.71,12.71,0,0,1,.87-1.41,8.68,8.68,0,0,1,.65-.7l.4-.22a29.82,29.82,0,0,1,4.67-1c3.61-.47,7.21-.95,10.77-1.74,1.78-.39,3.59-.75,5.35-1.23,2.19-.6,4.35-1.25,6.49-2a34.21,34.21,0,0,0,7.35-3.44,33.91,33.91,0,0,0,3.27-2.57c1.15-1,2.23-2,3.31-3.05,1.6-1.56,3.13-3.19,4.69-4.79,1.31-1.34,2.55-2.74,3.82-4.11.45-.5.87-1,1.29-1.55l1.05-1.27a3.3,3.3,0,0,0,2.3-.44c.54-.36,1.07-.7,1.57-1.11a8.59,8.59,0,0,0,1.17-1.24,25.65,25.65,0,0,0,2.19-3.28,60.79,60.79,0,0,0,3.76-7.64c.25-.61.48-1.21.71-1.82.44-.69.87-1.38,1.29-2.08,1.53-2.54,3.1-5.06,4.44-7.71a31.67,31.67,0,0,0,2.69-7.44,5.43,5.43,0,0,0,.53-1.05,49,49,0,0,0,1.94-5.66,57.37,57.37,0,0,0,1.12-6.61c.18-1.3.36-2.6.45-3.92a32.65,32.65,0,0,0,0-3.83,70.62,70.62,0,0,0-1-8.19,64.41,64.41,0,0,0-3.23-11.82c-.73-1.95-1.51-3.88-2.42-5.75a24.42,24.42,0,0,0-1.48-2.59,14.42,14.42,0,0,0-2.13-2.54,12.43,12.43,0,0,0-1.27-1,9.76,9.76,0,0,0-2.41-1.22,2.85,2.85,0,0,0-1.33-.12,7.81,7.81,0,0,0-.67-.62,6.1,6.1,0,0,0-3.58-1.65h-.3a4.54,4.54,0,0,0-3.63,2.09Zm.52,24.06h0l0,.23,0-.24ZM67,240.56v.08a.25.25,0,0,1,0-.08Zm.23.9,0,.08,0-.08Zm.67.37.08.07-.08-.07Z"/><path class="cls-1" d="M276.11,0H275a23.38,23.38,0,0,0-6.77,1c-1.36.44-2.69,1-3.83,1.51a37.81,37.81,0,0,1-5,1.53l-.75.19c-1.45.35-2.95.72-4.44,1-1.17.21-2.34.39-3.52.57l-1.89.29a19.45,19.45,0,0,0-2.16.53l-.37.1c-.91.25-1.81.51-2.71.79l-.43.14A46.28,46.28,0,0,0,236.84,10a17.81,17.81,0,0,0-2.7,1.7l-.16.12a53.69,53.69,0,0,0-5.53,2.6c-1.55.82-3,1.81-4.49,2.76l-.13.09-1.12.74c-1,.64-2,1.29-2.92,2a52.15,52.15,0,0,0-4.71,3.88,37.49,37.49,0,0,0-3.58,3.88c-2.32,2.79-5.15,6.19-7.59,9.67a49.89,49.89,0,0,0-5,9.13c-.83,2-1.72,4.06-2.54,6.24-.39,1-.79,2.11-1.15,3.22a56.38,56.38,0,0,0-1.91,8.11c-.27,1.59-.46,3.23-.64,4.81-.07.65-.14,1.29-.22,1.93-.14,1.18-.22,2.4-.3,3.57,0,.53-.06,1.06-.1,1.59-.26,3.38-.37,7-.33,10.63,0,2.33.21,4.68.38,7,.11,1.37.21,2.74.29,4.11a77.48,77.48,0,0,1-.8,13.11l-.22,1.86c-.28,1.86-.55,3.5-.81,5-.1.55-.21,1.11-.31,1.67-.25,1.36-.51,2.77-.69,4.18-.48,3.74-.64,7.45-.79,11.56A82.45,82.45,0,0,0,189,145.8c.39,4.19,1,8.31,1.58,11.79q.7,4.47,1.47,8.93c.53,3,.95,6.08,1.34,8.94l.24,1.84a84,84,0,0,0,1.51,9.27,97.43,97.43,0,0,0,3.17,10.76c1.28,3.54,2.92,7,4.51,10.36l.12.25c1.66,3.51,3.22,6.74,4.77,9.86a110.25,110.25,0,0,0,5.46,9.59,40.62,40.62,0,0,0,3.08,4.07l.7.85c1.25,1.53,2.51,3.07,3.79,4.58,1.1,1.31,2.27,2.58,3.4,3.82l.14.15c.76.83,1.57,1.64,2.41,2.42a26.14,26.14,0,0,0,4.42,3.16,27.3,27.3,0,0,0,7.35,3.11c1.17.3,2.37.53,3.53.76l1.44.28c1.78.36,3.61.73,5.39,1.26a55.77,55.77,0,0,0,5.4,1.43c1,.2,2.1.41,3.19.53l1,.14c.7.09,1.42.19,2.13.22l.42,0c1.76.08,3.53.15,5.29.19,1.52,0,3,.06,4.55.06h1.12c.83,0,1.66,0,2.5-.07a22.27,22.27,0,0,0,7.83-1.83,51.75,51.75,0,0,0,13.49-8.6c.62-.54,1.22-1.12,1.8-1.69l.56-.53.33-.32c.48-.45,1-.9,1.4-1.38,1.39-1.47,2.84-3,4.22-4.55s2.73-3.15,4-4.63a87.5,87.5,0,0,0,6.85-9.48c2-3.16,4.08-6.42,5.93-9.8.58-1.05,1.16-2.11,1.73-3.17,1.21-2.22,2.45-4.52,3.73-6.76s2.58-4.42,3.87-6.55c.68-1.14,1.37-2.28,2.05-3.43l.29-.49c.85-1.43,1.72-2.91,2.44-4.44s1.47-3.33,2.15-5l.27-.64,2.33-5.52.06-.15c.71-1.69,1.45-3.44,2-5.22.68-2.16,1.27-4.3,1.75-6.12.95-3.57,1.66-7.27,2.22-10.41.75-4.18,1.29-8,1.64-11.76l.25-2.54c.27-2.75.55-5.59.71-8.4l.08-1.36c.09-1.46.18-3,.19-4.43v-.47c0-1.74,0-3.54-.07-5.32l-.07-1.78c-.13-3.1-.26-6.3-.47-9.45l-.05-.71c-.24-3.54-.49-7.19-.95-10.77l-.11-.91c-.23-1.9-.48-3.86-.83-5.78-.05-.27-.09-.54-.14-.81-.09-.55-.18-1.11-.31-1.65l-.86-3.68c-.76-3.21-1.46-6.63-2.28-11.09l-.31-1.71c-.23-1.26-.46-2.52-.71-3.77-.31-1.47-.74-2.94-1.16-4.36l-.13-.45c-.71-2.43-1.4-4.86-2.09-7.29-1.34-4.74-2.72-9.63-4.26-14.39-1.08-3.38-2.4-7.35-3.95-11.25a81.69,81.69,0,0,0-5-10.28,30.23,30.23,0,0,0-4.28-6.17c-2.76-2.88-6.73-3.89-10.23-4.78-1.2-.3-2.44-.57-3.64-.83l-1.61-.35c-1.69-.37-3.37-.87-5-1.34l-.15,0c-1.28-.37-2.59-.71-3.86-1s-2.38-.61-3.57-.95-2.64-.82-3.92-1.24c-1.12-.37-2.23-.74-3.35-1.07-1.34-.41-2.67-.74-4.05-1A24.4,24.4,0,0,0,276.11,0ZM261.33,92.3a55.87,55.87,0,0,1,6.08-.37h0a32.74,32.74,0,0,1,3.52.18,23,23,0,0,1,4.45,1.13,8,8,0,0,1,3.08,2.36,14.72,14.72,0,0,1,1.61,2.81l.07.18.05.11,0,.1,0,.11A67,67,0,0,1,283.9,112a59.48,59.48,0,0,1,.19,7.43v1.28q-.06,4-.17,8v.42c-.07,2.19-.13,4.44-.3,6.65,0,.45-.06.9-.09,1.35-.06.9-.12,1.84-.23,2.74l-.22,1.75-.21,1.73a34.39,34.39,0,0,1-1.76,6.69c-.47,1.06-1,2.32-1.69,3.53l-.23.42a41.38,41.38,0,0,1-2.58,4.32c-1,1.28-2,2.4-3,3.45a60.84,60.84,0,0,1-5.61,5.51,23.5,23.5,0,0,1-3.89,2.36,19.75,19.75,0,0,1-3.6,1c-.35,0-.7.05-1,.05h-.38a10.91,10.91,0,0,1-1.66-.51,17,17,0,0,1-2.65-1.47,20.24,20.24,0,0,1-2.29-2.33,32.13,32.13,0,0,1-3.14-5.75,32.17,32.17,0,0,1-1.37-5.85c-.53-5.09-.78-10.28-1-15.3L246.9,138c-.14-3-.27-5.68-.35-8.46a51.4,51.4,0,0,1,.46-7.62l.17-1.19c.41-2.84.83-5.78,1.4-8.64.3-1.5.65-3.09,1.09-4.85a35.3,35.3,0,0,1,1.53-4.47l.14-.27a18.77,18.77,0,0,1,1.12-2.13c.62-1,1.31-2,2.11-3a20,20,0,0,1,1.9-2.06,29.69,29.69,0,0,1,3.77-2.12,2.69,2.69,0,0,0,1-.8l.11,0Z"/><path class="cls-1" d="M395.87,29.21h-.21l-.45,0c-.6.05-1.2.09-1.8.16l-.65.07a7.71,7.71,0,0,0-3.55.92,4,4,0,0,0-1,1l-.73.09a11.58,11.58,0,0,0-3.06,1.06l-.36.17a9.9,9.9,0,0,0-4.76,5.08,22.4,22.4,0,0,0-1.88,8.08c-.07.94-.1,1.92-.1,3a23.31,23.31,0,0,0,.77,5.41c-.2,1.55-.34,3.11-.42,4.65a43.93,43.93,0,0,0,.65,8.56,22.5,22.5,0,0,0,2.12,7.23A17.41,17.41,0,0,0,382.78,78a19.41,19.41,0,0,0,3.55,2.91A29.71,29.71,0,0,0,392.88,84a15.22,15.22,0,0,0,3.81.75,8.82,8.82,0,0,0,1,0,14.87,14.87,0,0,0,3.64-.52,17.58,17.58,0,0,0,3.72-1.54,18.65,18.65,0,0,0,3.23-2.28A24.25,24.25,0,0,0,413.61,74a50.22,50.22,0,0,0,4.85-11.94l.07-.23a22.23,22.23,0,0,0,1.16-6.08,11.63,11.63,0,0,0-2-5.93,20.49,20.49,0,0,0-1.47-2c.08-.42.12-.84.17-1.25a9.32,9.32,0,0,0-2.27-7.08,24.48,24.48,0,0,0-1.77-1.76l-.24-.23c-.57-.52-1.2-1-1.74-1.41a15,15,0,0,0-3.47-1.77l-.1,0c-.31-.13-.62-.24-.93-.35a12.83,12.83,0,0,0-2.1-1.43A14.62,14.62,0,0,0,398.86,31l-.1,0a3.56,3.56,0,0,0-2.89-1.79Zm16,30.32-.06-.67a19.15,19.15,0,0,0,.28-2.2,12.13,12.13,0,0,0-.07-1.81l0-.46c0-.18,0-.36-.05-.55.12.23.25.46.37.7a9.69,9.69,0,0,1,.32,1.12q0,.36,0,.72c-.22,1-.47,2.11-.75,3.15ZM397.68,77.79c-.37,0-.75,0-1.12-.05a15,15,0,0,1-3-.93,25.05,25.05,0,0,1-4.4-2.48,15.12,15.12,0,0,1-1.89-1.86,14.82,14.82,0,0,1-1.09-1.82c-.13-.4-.25-.81-.37-1.22A18.12,18.12,0,0,0,388,71a14.6,14.6,0,0,0,3.74,1.58,6.94,6.94,0,0,0,1.37.26,30.9,30.9,0,0,0,2.9,1.19,12.69,12.69,0,0,0,2.82.56,8.62,8.62,0,0,0,.87,0,8.87,8.87,0,0,0,2.78-.47A12.46,12.46,0,0,0,407.23,71c-.4.61-.78,1.18-1.18,1.74a22.78,22.78,0,0,1-2.89,2.92,16.73,16.73,0,0,1-2.46,1.45,16.36,16.36,0,0,1-2.12.63q-.45,0-.9,0Z"/><path class="cls-1" d="M393.43,40.66q-1.56,2.36-3.1,4.72a9.2,9.2,0,0,0-1.39,1.52,15.25,15.25,0,0,0-1.75,3.35,20.21,20.21,0,0,0-1,3.61c-.18.91-.31,1.83-.44,2.74-.16,1.15-.34,2.3-.44,3.46-.05.54-.09,1.07-.11,1.61a19.15,19.15,0,0,0,.38,4.2,8.82,8.82,0,0,0,.27,1.1.21.21,0,0,1,0,.06,6.18,6.18,0,0,0-.71,2.62,8,8,0,0,0,.23,1.94,4.91,4.91,0,0,0,.33,1,8.35,8.35,0,0,0,1.67,2.81,10.61,10.61,0,0,0,2.75,1.94,12.86,12.86,0,0,0,4.44,1.48,12,12,0,0,0,6.4-1.15,3.19,3.19,0,0,0,2.17-.45c1.24-.89,2.46-1.82,3.73-2.68,1.12-.76,2.27-1.45,3.42-2.15a23.25,23.25,0,0,0,3.92-2.83,19.88,19.88,0,0,0,3-3.75,24.53,24.53,0,0,0,2.09-4.12c.25-.65.52-1.29.73-2s.32-1.06.47-1.59a19.34,19.34,0,0,0,.54-3.45,13.59,13.59,0,0,0-.21-3.37,18.77,18.77,0,0,0-.51-2.34,11.19,11.19,0,0,0-1.12-2.52c0-.3-.08-.6-.13-.89a7.32,7.32,0,0,0-1.21-3,7.19,7.19,0,0,0-2-1.92l-1.21-.51a7.51,7.51,0,0,0-1.26-.19,4.19,4.19,0,0,0-1.36.2,4.37,4.37,0,0,0-.71.28l-.43-.17a3.52,3.52,0,0,0-4.3,4.31,6.71,6.71,0,0,0,1.26,2.13,3.87,3.87,0,0,0-1.21,1.9,6,6,0,0,0-.19,1.2c.06.48.12.95.19,1.42.23.74.53,1.46.82,2.18a19.49,19.49,0,0,1,1,3.24,14.12,14.12,0,0,1,0,1.45c-.27.43-.55.85-.83,1.27-.51.62-1,1.21-1.56,1.78-.26.2-.51.41-.76.63a3.56,3.56,0,0,0-.87,3.59c-.33.45-.66.9-1,1.34A11.82,11.82,0,0,0,401.63,69a3,3,0,0,0-.18.36,5.23,5.23,0,0,0-1-.91,8.61,8.61,0,0,0-1.35-.78,35.83,35.83,0,0,0,.68-3.55,40.9,40.9,0,0,0,.38-9,29,29,0,0,0-1.25-7.57,5.84,5.84,0,0,0-.68-1.37l1.25-1.9a3.51,3.51,0,0,0-1.25-4.79,3.43,3.43,0,0,0-1.72-.47,3.72,3.72,0,0,0-3.07,1.73Zm15.8,11.21a3.4,3.4,0,0,1,.23.3l-.23-.3Zm0,.32.19.07-.19-.07Z"/><path class="cls-1" d="M475.56,28.41c-.53,0-1.07,0-1.61.06a9.11,9.11,0,0,0-3.79,1.2A10.47,10.47,0,0,0,468.42,31c-.64.54-1.25,1.1-1.83,1.67-1,1-1.86,2-2.72,3l-.27.32c-.64.75-1.3,1.53-1.91,2.33-1.27,1.66-2.54,3.32-3.78,5-1.11,1.5-2.11,3-3.06,4.53-.7,1.14-1.37,2.33-2,3.48l-.62,1.1q-2.88,5.1-5.81,10.18l-.89,1.54c-1.57,2.71-3.2,5.51-4.72,8.31-1,1.82-1.85,3.65-2.49,5-.94,2-1.79,3.85-2.61,5.53-.66,1.32-1.39,2.64-2.1,3.92l-.2.36c-1,1.85-2,3.7-3,5.57-2.17,4.07-4.31,8.23-6.39,12.26q-2,3.88-4,7.75L417.8,117c-.94,1.78-1.89,3.55-2.81,5.34l-.94,1.82c-1.42,2.74-2.88,5.57-4.4,8.31-1.84,3.32-3.49,6.33-5,9.52-.84,1.8-1.64,3.64-2.42,5.42-.65,1.48-1.29,3-2,4.41L399,154.71c-1.18,2.58-2.37,5.16-3.52,7.75-.85,1.93-1.52,3.39-2.17,4.74l-.4.85c-.65,1.37-1.33,2.78-2.09,4.12-1,1.73-2.06,3.46-3.1,5.14-1.48,2.39-3,4.86-4.34,7.4-1.92,3.69-4.14,8.07-6.07,12.61l-.05.11-.2.48c-.47,1.1-.92,2.2-1.38,3.31l-.27.65c-.62,1.4-1.24,2.8-1.84,4.21-.33.77-.68,1.53-1,2.3-.42.93-.84,1.86-1.23,2.8a15.66,15.66,0,0,0-.76,2.19,12.24,12.24,0,0,0-.44,4.39,20.77,20.77,0,0,0,2.92,7.55,35.89,35.89,0,0,0,6.77,8.54,23.88,23.88,0,0,0,4.94,3.32c1.43.77,3,1.52,4.9,2.36l4.94,2.21.43.2a31.93,31.93,0,0,0,5.17,2,17.54,17.54,0,0,0,2.68.45,5.06,5.06,0,0,0,.55,0,11.91,11.91,0,0,0,3-.49,14.6,14.6,0,0,0,3.49-1.62,29.21,29.21,0,0,0,3.55-2.55c1.67-1.34,3-2.51,4.29-3.68a22.84,22.84,0,0,0,3.48-4.4l.53-.81c.39-.59.78-1.18,1.15-1.78l.73-1.21c.69-1.14,1.4-2.31,2.14-3.44,1.95-3,4.07-6.12,6.69-9.82,2.29-3.24,4.35-6.29,6.31-9.32,1.68-2.6,3.13-5.42,4.53-8.14l.81-1.55c3.86-7.46,7.93-14.66,11.05-20.09.93-1.63,1.84-3.26,2.69-4.86l.34-.64c.7-1.3,1.42-2.64,2.06-4l1.35-2.85,1.35-2.85c.58-1.21,1.1-2.47,1.61-3.69l.75-1.76c1.3-3,2.8-6.25,4.71-10.13,1.13-2.28,2.34-4.56,3.51-6.77.58-1.1,1.16-2.19,1.73-3.3,1.07-2,2.11-4.09,3.16-6.15l1.84-3.58c1.82-3.55,3.71-7.07,5.31-10.06l3.87-7.24,1.71-3.2c1.89-3.54,3.59-6.75,5.12-10,1.23-2.63,2.43-5.21,3.51-7.84s2-5.2,2.83-7.76c.62-2,1.18-4,1.72-6l.38-1.39a73.59,73.59,0,0,1,2.39-7c.43-1,.89-1.92,1.34-2.87l.13-.26a43.74,43.74,0,0,0,1.82-4.57A32.14,32.14,0,0,0,511.49,53a20.61,20.61,0,0,0,.38-2.65,11.67,11.67,0,0,0-.31-3.38,9,9,0,0,0-.68-1.88l-.17-.38a12.78,12.78,0,0,0-2.89-3.83,19.05,19.05,0,0,0-3.12-2.44,17.64,17.64,0,0,0-2.32-1.21l-1.07-.51-.94-.5c-.28-.16-.57-.31-.86-.46a12.94,12.94,0,0,0-2.07-.82,3.47,3.47,0,0,0-.27-.59,3.79,3.79,0,0,0-2.1-1.6c-1.73-.71-4-1.62-6.4-2.44a20.54,20.54,0,0,0-2.31-.61c-.92-.2-1.91-.41-2.91-.56-1.91-.3-3.88-.51-6-.65-.61-.05-1.23-.07-1.86-.07Z"/><path class="cls-1" d="M489.42,169.25a6.6,6.6,0,0,0-1,.09l-.48.08a25.43,25.43,0,0,0-6.63,1.68,19.6,19.6,0,0,0-3.86,2.5c-.37.29-.73.59-1.09.9a17.88,17.88,0,0,0-2.35,2.63,29.62,29.62,0,0,0-2.25,3.57,20.25,20.25,0,0,0-1.45,3.74,32,32,0,0,0-.89,4.15c-.51,3-.79,6-1,8.47l-.06.72c-.08.95-.15,1.9-.22,2.86a26.69,26.69,0,0,0,.82,7.77,24.56,24.56,0,0,0,1.14,3.51,13.42,13.42,0,0,0,1.82,3.3,20.87,20.87,0,0,0,6.32,5.38,30,30,0,0,0,3.25,1.53l.45.19a28.64,28.64,0,0,0,3.64,1.21,28.27,28.27,0,0,0,7.34,1c.5,0,1,0,1.48,0,1.33-.08,2.69-.29,4-.5l.16,0a26.36,26.36,0,0,0,3.54-.82,23.89,23.89,0,0,0,3.69-1.49,14.59,14.59,0,0,0,3.67-2.77,23.61,23.61,0,0,0,3.93-5.18,40.11,40.11,0,0,0,3-6.58,51.68,51.68,0,0,0,1.88-6.34,23.08,23.08,0,0,0,.62-7.19c-.45-5.05-3.36-9.33-5.85-12.49a43.76,43.76,0,0,0-4.33-4.91,22.11,22.11,0,0,0-5.22-3.58,25.9,25.9,0,0,0-6.51-1.93l-.53-.11a42,42,0,0,0-5.22-.79l-.11-.07a3.18,3.18,0,0,0-1.7-.45Z"/></g></g></svg>