<svg xmlns="http://www.w3.org/2000/svg" viewBox="0 0 1044.13 252.28"><defs><style>.cls-1{fill:#fff;}</style></defs><g id="Layer_2" data-name="Layer 2"><g id="Draw_Layer" data-name="Draw Layer"><path class="cls-1" d="M895.53,0a4.07,4.07,0,0,0-3.75,4A4.09,4.09,0,0,0,892,5.17,3.86,3.86,0,0,0,891,6.8a55.21,55.21,0,0,0-1.49,6.59c-.35,2.29-.74,4.89-1,7.45-.52,4.44-.88,8.83-1.27,13.7-.73,9-.9,18.26-1,26.2s-.11,16.13-.12,25.08c0,.79,0,1.59,0,2.38,0,1.5,0,3,0,4.49l.06,3.81v.88c0,.65,0,1.32,0,2s.11,1.4.15,2.09c.13,1.76.25,3.57.51,5.34.11.74.21,1.5.31,2.25.19,1.4.39,2.86.63,4.27l.38,2.16c.24,1.44.49,2.88.74,4.31s.43,3,.61,4.42l.16,1.29,0,.56c.34,3.86.69,7.85.85,11.79,0,1.09.07,2.19.11,3.28.09,3.09.19,6.29.49,9.41l0,.19c.39,4.16.8,8.45,1,12.69.19,4.7.31,8.86.35,12.72.05,4.29.08,8.86-.11,13.48-.18,4.05-.31,8.23-.42,12.8-.16,7.1-.16,14.31-.17,21.29v18.59c0,1.75,0,3.55,1.07,5l.62.81a7.76,7.76,0,0,0,1.29.92,6.6,6.6,0,0,0,2.08.74,6.22,6.22,0,0,0,1.32.13,15.61,15.61,0,0,0,3.5-.54c1.1-.26,2.19-.63,3.25-1l1.57-.53c1.33-.47,2.71-.94,4.09-1.33,2.15-.6,4.44-1.23,6.73-1.76,3.8-.88,8-1.65,12.73-2.35l1.86-.28,4-.59a40.33,40.33,0,0,1,5.45-.48h.38c1.9,0,3.81.24,5.6.44,4.7.65,8.36,1,11.86,1.14.39,0,.77,0,1.16,0a58.67,58.67,0,0,0,8.6-.85l1.47-.21,2.5-.3c3.08-.37,6.25-.76,9.4-.93,4.35-.24,8.7-.4,12.92-.47h.79c3.86-.07,7.85-.14,11.77-.16h1.79c1.38,0,2.81,0,4.21-.05a39.08,39.08,0,0,0,4.83-.59l1.5-.24c1.88-.21,3.8-.38,5.73-.48l.93,0a17.19,17.19,0,0,0,3.5-.37,6.07,6.07,0,0,0,2.34-1.4,10.65,10.65,0,0,0,1.52-1.74,23.22,23.22,0,0,0,1.64-2.73,37.26,37.26,0,0,0,2.5-6.39c.59-1.94,1.07-4,1.5-5.73l.57-2.29a97.84,97.84,0,0,0,2.29-11c.29-2.17.54-4.44.77-7,.16-1.82.22-3.68.29-5.49v-.4c.1-2.79.18-5.74.25-9.56l0-1c0-2.47.09-5,0-7.53,0-1.21-.09-2.5-.22-4.05-.06-.74-.12-1.49-.2-2.23a7.74,7.74,0,0,0-.82-3.1,5.2,5.2,0,0,0-.86-1.24l-.24-.18-.24-.19a4.06,4.06,0,0,0-1.77-1,13.26,13.26,0,0,0-3.37-.76c-1.08-.16-2.16-.3-3.25-.43l-1.72-.22-1.72-.23-1.74-.27c-3.63-.56-7.38-1.14-11.09-1.48-1.32-.11-2.63-.24-3.94-.37-2.89-.28-5.87-.57-8.81-.77-3.25-.21-6.55-.27-9.76-.32l-2.44-.05c-1.9,0-3.91-.12-6.5-.29-1.53-.1-3.08-.27-4.57-.44l-1.26-.14-3-.34c-1.19-.18-2.37-.38-3.56-.58-2-.34-4-.7-6.07-.92a21.17,21.17,0,0,0-2.3-.12,48,48,0,0,0-6.5.59,17.11,17.11,0,0,1-2,.12h-.53a41.63,41.63,0,0,1-1.11-5.28l-.15-.88c-.19-1.1-.36-2.21-.53-3.32-.29-2.54-.46-5.13-.61-7.64-.09-1.43-.19-2.85-.3-4.27-.23-3-.57-6.08-.89-9-.14-1.22-.27-2.43-.4-3.65-.39-3.76-.92-8.2-1.8-12.55-.76-3.74-1.45-7.78-2.16-12.72a217.45,217.45,0,0,1-1-23.6V72.44q-.06-10.14,0-20.29V44.93c0-2.59,0-5.26.09-7.89.11-3.08.36-6.21.73-9.3.09-.57.17-1.13.26-1.7.23-1.49.48-3,.65-4.57a28.79,28.79,0,0,0,0-6.08L948.09,13c-.12-1.1-.25-2.2-.36-3.31-.08-.83-.14-1.66-.2-2.49l0-.34c0-.26,0-.52,0-.78a5.09,5.09,0,0,0-.64-2.28A5.17,5.17,0,0,0,945,2a11.45,11.45,0,0,0-1.77-.7A7.51,7.51,0,0,0,941.87,1L941.36,1c-.45-.06-.89-.1-1.34-.14a8.44,8.44,0,0,0-.87,0c-.48,0-1,0-1.46.06l-.73,0L934.81,1c-1.25,0-2.5.08-3.75.16s-2.8.21-4.21.34c-2.49.22-5.07.45-7.6.45h-.4c-1,0-2-.09-2.92-.16l-1-.07c-1.53-.1-3.07-.17-4.61-.23s-2.83-.18-4.2-.3l-.73-.07c-.63-.06-1.26-.1-1.89-.15-.9-.07-1.81-.14-2.71-.24L899.64.55c-1.28-.19-2.56-.37-3.85-.53a1.1,1.1,0,0,0-.26,0Z"/><path class="cls-1" d="M605.37,19.91h-3c-1.46,0-2.88.08-4.25.16-.54,0-1.07.07-1.61.09-4,.2-8.69.43-13.54.57l-2.45.08c-3.32.09-6.75.2-10.12.37-2.54.13-4.81.27-6.92.42-.85.07-1.69.15-2.54.24-1.12.11-2.27.22-3.41.28-1.43.09-2.74.12-4,.12-.82,0-1.63,0-2.45-.05-1.52-.07-3-.18-4.56-.3l-1.74-.13q-3-.21-6-.37l-1-.06h-.24a7.78,7.78,0,0,0-1.44.19l-.33.06-1,.41a2.91,2.91,0,0,0-1.26.82,9.66,9.66,0,0,0-1.28,1.5l-.11.15a8.36,8.36,0,0,0-1,2.09c-.22.6-.41,1.24-.61,2-.36,1.42-.69,2.92-1.07,4.87-1,5.44-1.77,9.87-2.29,13.93-.63,4.82-1,8.88-1.2,12.77-.23,4.78-.38,9.09-.46,13.17a33.7,33.7,0,0,0,.14,3.7A9.62,9.62,0,0,0,527,81a8.67,8.67,0,0,0,2.94,2.77,8.2,8.2,0,0,0,3.55,1.07,12.06,12.06,0,0,0,1.6.1,15.59,15.59,0,0,0,2-.13,21.88,21.88,0,0,0,3.54-.63c2-.59,4-1.31,6-2,1.73-.63,3.52-1.27,5.31-1.81,3-.91,6.89-2.06,10.83-2.93,3.69-.81,7.5-1.39,10.79-1.86a17.33,17.33,0,0,1,2.16-.16h.47a34.23,34.23,0,0,1,1.14,5.24,51.67,51.67,0,0,1,.1,6.58l0,1.63,0,1.26c0,1.69-.06,3.38-.08,5.08,0,4.31-.1,8.63-.12,13,0,1.46,0,2.93,0,4.39,0,2.77,0,5.54,0,8.31-.05,4.69-.23,9.33-.41,14.06-.15,3.62-.36,7.3-.56,10.86-.27,4.69-.55,9.53-.68,14.31-.22,7.91-.33,16.32-.34,25.69,0,.48,0,1,0,1.43,0,1.37,0,2.79-.09,4.17a6.85,6.85,0,0,1-1.42.11c-.67,0-1.37,0-2.14-.1a46.53,46.53,0,0,1-8.32-2.37l-1.48-.54c-1.34-.5-2.73-1-4.13-1.42a25.72,25.72,0,0,0-6.56-.79h-1.27c-.81,0-1.51,0-2.16.06A6.84,6.84,0,0,0,543.1,188a10.66,10.66,0,0,0-1.47,1.73,14.31,14.31,0,0,0-1.35,2.65c-1.74,4.14-2.3,8.54-2.8,13.44-.22,2.17-.36,4.38-.5,6.51l0,.28c-.24,3.63-.28,7.46-.13,12.42a80.69,80.69,0,0,0,1.71,13.06,10.13,10.13,0,0,0,1,2.81,6.87,6.87,0,0,0,1.39,1.62,8.21,8.21,0,0,0,1.71,1.17,22.9,22.9,0,0,0,7,2,29.69,29.69,0,0,0,5.17.48c.49,0,1,0,1.47,0a31.28,31.28,0,0,0,5.59-.83l3.34-.84,6.39-1.61,4.18-1.09c2.71-.72,5.51-1.45,8.29-2.09,6.2-1.42,12.45-2.47,17.75-3.3a98.15,98.15,0,0,1,11.75-.85h.12c2.08,0,4.11,0,6.13.14,2.18.13,4.39.33,6.53.52,2,.18,3.86.34,5.78.34h.21c1.91,0,3.82-.06,5.73-.12l.8,0c1.28,0,2.55-.06,3.83-.06l2.22,0,2.46.1c1.28.05,2.55.11,3.83.12h.35a42.34,42.34,0,0,0,6.27-.58c.91-.13,1.82-.34,2.71-.54l.11,0h0a12.63,12.63,0,0,0,2-.56,6.6,6.6,0,0,0,2.13-1.24,7.77,7.77,0,0,0,1.56-2,11.26,11.26,0,0,0,.86-2.3c.17-.61.29-1.24.4-1.85l0-.22c.21-1.23.36-2.3.44-3.3l.16-2,.19-2.17c.13-1.66.2-3.35.27-5l.07-1.62c.09-1.87.16-3.74.23-5.61.09-2.3.17-4.6.29-6.9l.07-1.31c.09-1.64.18-3.34.22-5a16.31,16.31,0,0,0-.17-2.9,5.2,5.2,0,0,0-2.26-3.42,12.09,12.09,0,0,0-5-1.57l-.49-.08c-1.23-.21-2.48-.37-3.72-.53l-.78-.11a47.42,47.42,0,0,0-6.18-.4c-1,0-2,0-3,.09l-1.78.1c-2.54.13-5.08.27-7.62.44-2.93.2-5.86.43-8.78.67l-2,.16-2,.17-.26,0c-1,.08-2,.17-3,.17h-.61a29.69,29.69,0,0,1-1-4.47l-.15-1.33-.14-1.32c-.09-.82-.13-1.66-.17-2.47,0-.4,0-.8-.06-1.2-.09-1.52-.14-3.06-.18-4.54,0-.62,0-1.24-.05-1.86-.09-2.92-.13-5.9-.17-8.77,0-1.51,0-3-.07-4.52-.06-3.27-.2-6.6-.33-9.82l-.12-3.06c-.15-3.91-.26-7.81-.38-11.72l0-1.06c0-1.44-.13-2.9-.21-4.31l-.11-1.71c-.14-2.43-.26-4.84-.36-7.27-.1-2.14-.17-4.28-.23-6.42s-.13-4.16-.22-6.24c-.06-1.15-.14-2.29-.22-3.44-.06-.85-.12-1.7-.17-2.55-.13-2.31-.25-4.63-.34-6.94-.13-2.88-.37-5.79-.6-8.6-.09-1.06-.18-2.11-.26-3.16,0-.62-.07-1.14-.07-1.63l.29-.26A17,17,0,0,1,619,77.19a36.61,36.61,0,0,1,5.29-1.63c.91-.2,1.85-.35,2.76-.49l.64-.1c3.54-.41,7.3-.71,12.19-1,2.1-.11,4.17-.17,6.1-.21h.68c1.5,0,3,.1,4.5.2l.68,0,1,.07,2,.13.9,0a13.27,13.27,0,0,0,2-.15,7,7,0,0,0,4.11-2.37c1.47-1.65,2.45-4.14,2.91-7.4l.15-1c.14-1,.29-2,.39-3,.24-2.2.43-4.38.59-6.5A54,54,0,0,0,666,48q-.12-3-.26-5.94l0-.41c-.08-1.65-.15-3.37-.35-5l0-.14a35.21,35.21,0,0,0-1.07-6.08,11.35,11.35,0,0,0-2-3.91A12.86,12.86,0,0,0,660.92,25a11,11,0,0,0-1.06-.86l-.42-.3a13.17,13.17,0,0,0-4.74-2.3,4,4,0,0,0-1-.14,4.08,4.08,0,0,0-3.61,2.19,2.46,2.46,0,0,0-.94-.37A120.07,120.07,0,0,0,635,21.66l-3.34-.15c-3.29-.14-6.68-.29-10-.51-2.12-.14-4.24-.32-6.35-.49s-4.45-.37-6.69-.52c-1.19-.07-2.37-.08-3.27-.08Z"/><path class="cls-1" d="M219.62,21c-1.1,0-2,0-2.91.11-1.66.14-3.15.31-4.54.51A27.48,27.48,0,0,0,205,24.08l-.82.37A103.06,103.06,0,0,0,194,29.51a4,4,0,0,0-1.58,1.73,15.12,15.12,0,0,0-6,3.28l-.52.41a56.58,56.58,0,0,0-6.69,6.61c-2.91,3.23-5.73,6.63-8.46,9.92l-.66.8c-1.6,1.94-3.15,4-4.51,5.76-.48.64-.95,1.28-1.41,1.94l-.39.54a28,28,0,0,0-1.65,2.61,16.32,16.32,0,0,0-1.67,4.69,45.06,45.06,0,0,0-.89,6.93L159.48,77l-.15,2.22c-.1,1.6-.17,3.19-.24,4.79l-.09,2c-.19,4.07-.51,8.21-.82,12.21l0,.33c-.78,10-1.19,18.19-1.29,25.68-.06,4.35-.12,8.7-.15,13.06,0,.63,0,1.27,0,1.9,0,1.41,0,2.83,0,4.24,0,.5,0,1,0,1.51,0,1.63,0,3.32.18,5l.11,1.22c.17,2,.34,4,.64,6l.28,1.89c.22,1.55.45,3.11.72,4.66q1.17,6.84,2.38,13.67c.34,1.94.71,3.83,1.17,6.08.17.86.36,1.7.58,2.55.09.36.17.72.26,1.09.18.77.36,1.58.61,2.34l.42,1.3c.51,1.6,1,3.24,1.64,4.84.8,2.17,1.67,4.4,2.58,6.63a70.26,70.26,0,0,0,6,11.37c1.31,2,2.5,3.88,3.78,5.73,1.15,1.66,2.45,3.44,4.08,5.61a81.61,81.61,0,0,0,5.66,7,49.28,49.28,0,0,0,6.67,5.74,33.34,33.34,0,0,0,8.24,4.37,58.55,58.55,0,0,0,8.75,2.25l1.41.29a33.37,33.37,0,0,0,6.71.71c.74,0,1.48,0,2.2-.09a40.84,40.84,0,0,0,9.22-1.88,64.93,64.93,0,0,0,12.38-5.72l.87-.48c.57-.31,1.17-.63,1.72-1l3.3-2.21c.7-.46,1.36-1,2-1.5l.52-.41.85-.65c.57-.45,1.15-.89,1.7-1.35,2-1.69,3.71-3.21,5.31-4.65a68.15,68.15,0,0,0,10-11.47c1.58-2.23,3-4.6,4.4-6.89l.72-1.17c1.05-1.73,2-3.5,2.84-5l.42-.77c.82-1.52,1.67-3.08,2.43-4.66l.5-1.05c1.36-2.85,2.77-5.8,3.93-8.8a42.24,42.24,0,0,0,2.2-8.56,79,79,0,0,0,.93-8.29c.29-5.1.52-9.83.71-14.45.17-4.24.48-8.54.78-12.71s.6-8.4.77-12.61.15-8.44.09-12.72q-.09-6.75-.19-13.5c-.06-4-.31-8-.75-12.46-.3-3-.65-6-1-8.94-.15-1.35-.31-2.69-.46-4-.25-2.23-.6-4.47-.94-6.65l-.1-.62a37.6,37.6,0,0,0-1.3-5.82,53.8,53.8,0,0,0-2.76-6.38c-.76-1.58-1.55-3.31-2.48-5.43a50.13,50.13,0,0,0-5.91-10.44,42.8,42.8,0,0,0-9.94-9.46,35.58,35.58,0,0,0-5-2.68c-1.93-.89-3.85-1.7-5.73-2.4l-2.07-.77-3.35-1.24a39.87,39.87,0,0,0-5.73-1.61,84.74,84.74,0,0,0-9.28-1.36l-1.54-.17c-1-.11-2-.24-3.06-.36l-2.06-.24-.87-.11c-1.26-.15-2.56-.31-3.83-.34l-2.39,0Zm-.43,82a3.82,3.82,0,0,0,2-.54,4,4,0,0,0,1.7-2l.75.25c.38.19.75.4,1.13.62l.35.36c.13.25.26.5.37.75a39.36,39.36,0,0,1,1.77,7.72c.14,1.64.28,3.39.37,5.14l0,.8c0,.86.08,1.73.09,2.59a67,67,0,0,1-.49,8.73,43.52,43.52,0,0,1-2.1,9.32,15.9,15.9,0,0,1-.89,1.66l-.1.1a9.34,9.34,0,0,1-1.44.09,23.89,23.89,0,0,1-2.62-.16,22,22,0,0,1-4.08-1,19.74,19.74,0,0,1-2.49-1.42,10.87,10.87,0,0,1-.86-.81,7.44,7.44,0,0,1-.38-.68,22,22,0,0,1-1.06-4.22c-.19-1.73-.33-3.3-.44-4.78s-.1-2.88-.12-4.29V120c0-.44,0-.89.06-1.33l0-.56.1-1.73.1-1.74c.06-1.16.22-2.34.37-3.49l.11-.9.15-.86c.31-1.81.63-3.69,1-5.51a4.17,4.17,0,0,0,2.23-1.1c.36-.33.74-.64,1.11-1l.18-.13a4.12,4.12,0,0,0,3,1.38Z"/><path class="cls-1" d="M90.76,16a22.67,22.67,0,0,0-3,.19c-.93.12-1.86.25-2.78.41a4.2,4.2,0,0,0-.62-.07c-.56,0-1.12,0-1.67,0a20.6,20.6,0,0,0-5,.56,13.43,13.43,0,0,0-1.44.46l-.61.06-.6.06c-4,.39-8.2,1-13.6,2-3.6.64-7.84,1.42-12.07,2.38-1.11.25-2.21.53-3.31.82-.89.24-1.78.54-2.64.84l-.39.13c-1.86.64-3.72,1.39-5.51,2.11l-.45.17A90.36,90.36,0,0,0,24.9,31.87a41.16,41.16,0,0,0-5.51,3.9,51.54,51.54,0,0,0-4.63,4.36,47.21,47.21,0,0,0-4.19,5.37,33.74,33.74,0,0,0-2.84,5.22l-.16.33A59.72,59.72,0,0,0,5,57.86c-.56,1.71-1.13,3.55-1.55,5.41-.27,1.26-.55,2.51-.82,3.76-.16.69-.26,1.4-.36,2.09,0,.33-.09.66-.14,1-.42,2.61-.74,5.25-1,7.72C.6,82.1.26,86.33.07,90.41a77.5,77.5,0,0,0,.51,12.48,125.25,125.25,0,0,0,2.18,13.28c1.8,8,4.45,17.1,10.45,24.06A27.61,27.61,0,0,0,15.85,143a22.07,22.07,0,0,0,3,2.21,18.9,18.9,0,0,0,4.44,1.8A60.34,60.34,0,0,0,32,148.7a45.1,45.1,0,0,0,6.41.59h.48a51.48,51.48,0,0,0,7.13-.52c2.7-.42,5-.82,7.09-1.26,2.37-.48,4.76-.89,7.3-1.26,3.13-.36,6.36-.73,9.64-.87.93,0,1.86-.05,2.79-.05,2.2,0,4.47.11,6.74.32,1.67.26,3.16.55,4.55.88a38.67,38.67,0,0,1,4.79,1.54,13,13,0,0,1,1.55.83q.39.39.75.81a21.59,21.59,0,0,1,2,3.5,48.32,48.32,0,0,1,2.42,9.31,37.16,37.16,0,0,1,.09,7.56,22.54,22.54,0,0,1-1,3.49,19,19,0,0,1-1.61,2.83,14.66,14.66,0,0,1-1.43,1.49c-.25.16-.51.31-.76.44a27.93,27.93,0,0,1-5.27,1l-.16,0c-5.4.49-10.94.82-16.48,1-1.38,0-2.77.06-4.16.06-1.71,0-3.25,0-4.7-.12-2.6-.14-5.23-.36-8-.67-4.47-.69-8.85-1.68-12.16-2.47l-3.51-.86c-2.73-.68-5.55-1.38-8.36-1.93-.84-.17-1.68-.32-2.52-.47a17.28,17.28,0,0,0-2.89-.31c-.25,0-.49,0-.74,0a8.93,8.93,0,0,0-5,2.22c-2.26,1.89-3.42,4.64-4.54,7.3l-.32.75a131,131,0,0,0-4.35,12.42c-1.3,4.21-2.61,8-4,11.7l-.53,1.4-.54,1.4-.15.39A19.27,19.27,0,0,0,1.32,215a14.63,14.63,0,0,0,1.86,9.22,21.16,21.16,0,0,0,2.63,3.65A35.37,35.37,0,0,0,9,231.05a62.64,62.64,0,0,0,6.65,5.06l.29.21c1.65,1.14,3.43,2.35,5.36,3.43a49.12,49.12,0,0,0,6.27,3l1.23.49,2,.8c.77.3,1.57.55,2.35.8l1.23.39a77.85,77.85,0,0,0,12,2.87c2.41.4,4.68.75,6.93,1.06l.22,0c2,.28,4.16.58,6.25.7l.56,0c1.18.07,2.4.14,3.61.15h.28a33.55,33.55,0,0,0,7.86-.94c1.6-.4,3.21-.79,4.76-1.34a55.89,55.89,0,0,0,9.2-4.56c2.45-1.44,4.81-3,7-4.57,1.45-1.06,3.35-2.47,5.13-4l2.84-2.45,2.84-2.46c1.2-1,2.36-2.13,3.49-3.21l1.66-1.57c1.07-1,2.1-2.05,3.1-3.07.45-.47.9-.93,1.36-1.39,2.91-2.92,5.64-6.11,8.42-9.4.58-.69,1.13-1.43,1.66-2.15l.59-.79c.56-.73,1.09-1.47,1.63-2.28,1.07-1.58,2.46-3.67,3.79-5.84a122.81,122.81,0,0,0,6.33-11.41,56,56,0,0,0,2.52-6,43.29,43.29,0,0,0,1.66-6.87c.43-2.56.79-5,1.11-7.34s.57-4.71.73-7.08a36.33,36.33,0,0,0-.18-6.49c-.14-1.24-.29-2.56-.54-3.84a49,49,0,0,0-1.55-6.24c-.73-2.19-1.6-4.42-2.64-6.81a25,25,0,0,0-4.74-7.12,28,28,0,0,0-8.12-5.61c-.49-.25-1-.46-1.52-.68l-.52-.21c-1-.45-2-.87-3.06-1.23-1.8-.62-3.66-1.18-5.68-1.72-1.85-.49-3.71-1-5.53-1.38-1.58-.37-3.22-.61-4.81-.85l-.79-.12c-4-.6-8.1-1-12-1.29-3.57-.3-7.18-.71-10.68-1.09a34.22,34.22,0,0,1-7.18-1.69,20.86,20.86,0,0,1-3.28-1.87,17.89,17.89,0,0,1-2-1.94,20.06,20.06,0,0,1-1.5-2.63,23.78,23.78,0,0,1-1.2-4.5,25.45,25.45,0,0,1,0-4.7,18.54,18.54,0,0,1,.6-2.44,18.42,18.42,0,0,1,1.54-2.39,51.44,51.44,0,0,1,4.21-4.62c1.36-1.29,2.83-2.49,4.26-3.66l.46-.37a15.84,15.84,0,0,1,2.25-1.39,33.63,33.63,0,0,1,5.86-1.55c1.35-.26,2.72-.49,4.19-.71,2.43-.23,4.6-.33,6.62-.33l1.76,0c2.6.09,5.26.38,7.82.66,1.45.22,2.59.43,3.67.66l.57.12,1.4.3c.52.08,1,.15,1.55.21a3.81,3.81,0,0,0,.75.07,4,4,0,0,0,1.08-.14,4.71,4.71,0,0,0,3.29-2.33,6.27,6.27,0,0,0,.69-3c0-.86,0-1.73,0-2.59V68c0-2.44,0-5,.08-7.46.06-1.59.14-3.18.23-4.77.06-1.17.21-2.36.35-3.51l.08-.68c.27-1.84.61-3.69.94-5.48.25-1.35.5-2.71.72-4.07a38.92,38.92,0,0,0,.61-6.23c0-.74,0-1.46-.1-2.21a19.69,19.69,0,0,0-.38-2.37,8.29,8.29,0,0,0-.64-1.65l-.21-.45a6.84,6.84,0,0,0-.7-1,13.89,13.89,0,0,0-1.52-1.74,15.39,15.39,0,0,0-3.79-2.58l-.19-.1-.2-.1a16.27,16.27,0,0,0-1.51-1.2A23.16,23.16,0,0,0,106.35,20l-3.7-1.62a22.38,22.38,0,0,0-5-1.59A36.42,36.42,0,0,0,90.76,16Z"/><path class="cls-1" d="M406.23,21c-2.9,0-5.9,0-8.9.1-1.72,0-3.56.16-5.78.37-2.37.23-4.77.45-7.09.83-1.21.18-2.27.39-3.24.62a34.53,34.53,0,0,0-7,2.75,49.6,49.6,0,0,0-5.39,3.08,57.44,57.44,0,0,0-6.9,5.59c-.78.7-1.56,1.4-2.35,2.08a38.32,38.32,0,0,0-3.8,3.66l-.13.14a50.38,50.38,0,0,0-3.5,4.32c-.62.9-1.21,1.81-1.8,2.73l-.62,1c-1.69,2.62-3.87,6.09-5.79,9.69A93.08,93.08,0,0,0,339,69.18c-1.4,3.81-2.7,7.6-3.68,10.47-.82,2.4-1.68,4.79-2.54,7.18l-1.29,3.64a59.27,59.27,0,0,0-1.65,5.78c-.15.62-.25,1.27-.35,1.9,0,.29-.08.57-.13.85-.18,1-.35,2.1-.5,3.16-.41,2.9-.78,5.8-1.16,8.7l-.44,3.37c-.09.73-.19,1.46-.28,2.19l-.1.78-.08.62a19.92,19.92,0,0,0-.2,2l-.05,1.5,0,1.49c0,.72,0,1.47,0,2.19,0,.37,0,.75,0,1.12,0,1.68.13,3.37.22,5l.05,1.06,0,.89c.07,1.35.14,2.75.25,4.13.7,8,1.42,16.21,2.71,24.33a93.37,93.37,0,0,0,2.13,9.29l.57,2.17.25,1c.85,3.28,1.72,6.68,2.84,10a23.83,23.83,0,0,0,1,2.28l.21.45a23.19,23.19,0,0,0,1.8,3.31c.3.44.62.87.93,1.31l.26.35.55.75,2.86,3.92c2.79,3.89,5.2,7.09,7.55,10.07a62.56,62.56,0,0,0,8.43,9c1.48,1.26,3.09,2.43,4.62,3.51,2.08,1.47,4,2.8,5.87,4.07s3.72,2.42,5.14,3.3a49.7,49.7,0,0,0,5.45,2.88c2.28,1.07,4.16,2,5.89,2.85s3.41,1.82,5.1,2.79l.53.31c1.1.63,2.19,1.27,3.29,1.88a40.91,40.91,0,0,0,8.28,3.1,47.49,47.49,0,0,0,10.34,1.4c.71,0,1.43.06,2.21.06,1.3,0,2.59-.06,3.68-.11q3.38-.18,6.77-.32c4.61-.2,8.77-.41,12.95-.94a64.65,64.65,0,0,0,8.8-2l2.33-.64.33-.09c1.77-.47,3.6-.95,5.39-1.52a41.48,41.48,0,0,0,6.24-2.63c2.09-1.07,3.69-1.87,5.2-2.59s2.76-1.29,4.14-1.93l1.32-.6,3.2-1.5c2.45-1.16,5-2.35,7.53-3.43l1.62-.7.9-.39.84-.41.34-.17.33-.17.2-.11a6.06,6.06,0,0,0,2.34-1.92,9.64,9.64,0,0,0,.77-1.66,8.64,8.64,0,0,0,.3-1.76l0-.49a23.66,23.66,0,0,0,0-3.47l0-.25c0-.78-.1-1.55-.17-2.33,0-.34-.07-.69-.1-1-.05-.67-.14-1.34-.24-2l0-.28c-.05-.38-.09-.77-.14-1.15-.1-.87-.21-1.76-.38-2.62-.12-.58-.23-1.17-.34-1.75-.24-1.24-.49-2.53-.78-3.78l-.8-3.51-1.86-8.07-.53-2.27c-.73-3.15-1.48-6.41-2.3-9.6a39.82,39.82,0,0,0-4.34-11c-.4-.67-.83-1.31-1.27-2-.29-.43-.58-.86-.86-1.3a30.64,30.64,0,0,0-2.94-4,6,6,0,0,0-2.49-1.44,6.23,6.23,0,0,0-2.11-.35,9.71,9.71,0,0,0-1.38.11,17.2,17.2,0,0,0-3.84,1.22l-.31.13-.69.27c-1.05.43-2.1.85-3.14,1.29-2.45,1-4.89,2.12-7.33,3.19l-.74.33-1.74.77c-1.82.8-3.7,1.64-5.59,2.39-.89.31-1.79.61-2.7.89l-.52.17a24.22,24.22,0,0,1-2.35.68c-1.87.4-3.84.74-6.2,1.06-1.73.18-3.29.3-4.75.34H428a30.48,30.48,0,0,1-3.87-.3,60.88,60.88,0,0,1-6.73-1.32c-1.85-.5-4.27-1.19-6.67-2a32.71,32.71,0,0,1-4.26-2c-1.57-.94-3-1.82-4.34-2.71-1.42-1.05-2.7-2.06-3.92-3.11a37.48,37.48,0,0,1-3.57-3.66,45,45,0,0,1-3.62-4.95,21.91,21.91,0,0,1-1.23-2.35l-.41-.84-1.29-2.67a40.31,40.31,0,0,1-1.78-4.42,35.93,35.93,0,0,1-1.17-4.91l-.12-1a13.78,13.78,0,0,1,.12-3.23l.18-1c.26-1.38.53-2.81.85-4.21.49-2.15,1-4.29,1.52-6.43a73.33,73.33,0,0,1,3.1-10.08,61.09,61.09,0,0,1,6.9-10.2c.76-.87,1.38-1.52,2-2.12a19.71,19.71,0,0,1,2.12-1.72c1.58-1,3.28-2,4.93-2.88l1.75-1,.25-.14A86.42,86.42,0,0,1,417,82.68a51.86,51.86,0,0,1,9.06-2,53.74,53.74,0,0,1,5.86-.43c.65,0,1.28,0,1.88.07a33.85,33.85,0,0,1,5.36,1.31c1,.45,2.07,1,3.18,1.59.74.41,1.48.84,2.21,1.27l1.4.82.21.11c2.19,1.26,4.46,2.56,6.6,4l.95.71A36.06,36.06,0,0,0,457,92.31a7.14,7.14,0,0,0,3.49,1.2,5.45,5.45,0,0,0,4-1.74,10.9,10.9,0,0,0,1.86-2.92c.24-.55.46-1.11.69-1.67l.1-.25c1.38-3.43,2.72-6.79,3.92-10.24l.93-2.66c.94-2.67,1.91-5.43,2.81-8.16l.25-.78c1-3,2-6.14,3.28-9.13.69-1.36,1.4-2.65,2.17-3.94l.48-.78c.27-.45.54-.89.8-1.35A20.56,20.56,0,0,0,483,47a19,19,0,0,0,1-5.06c.08-.72.11-1.44.15-2.17a8.71,8.71,0,0,0-.36-3,9.49,9.49,0,0,0-2.06-3.11A4.08,4.08,0,0,0,479,32.58a4.52,4.52,0,0,0-1.59.29,1.41,1.41,0,0,0-.13-.24,4.35,4.35,0,0,0-2.4-1.67,185.14,185.14,0,0,0-25.24-6.67,196.68,196.68,0,0,0-26.28-2.87c-5.4-.28-11.14-.43-17.08-.43Z"/><path class="cls-1" d="M803.87,13.84h-.11c-5.08.15-9.2.24-12.94.28h-1.29a90.05,90.05,0,0,0-11.9.62,81.21,81.21,0,0,0-11.58,2.55c-1.4.41-2.8.9-4.16,1.37l-1.68.58c-.89.3-1.77.61-2.64.94-.34.12-.68.25-1,.39l-1.78-.07-3.52-.12c-2.72-.09-5-.15-7.34-.15-1.85,0-3.52,0-5.11.12-.83,0-1.67.15-2.48.24l-.39,0c-.54.06-1.09.15-1.63.23l-.64.09a14.4,14.4,0,0,0-3.9,1.27,6.09,6.09,0,0,0-1.41,1.05l-.37.32a10.41,10.41,0,0,0-1.31,1.56l-.23.32a10.14,10.14,0,0,0-1.1,1.82,23.66,23.66,0,0,0-.9,2.23,45.83,45.83,0,0,0-2,9.59c-.42,3.26-.66,6.55-.88,9.74-.16,2.24-.26,4-.33,5.59q-.22,5.81-.43,11.62-.26,7.38-.56,14.77c-.16,3.72-.34,7.43-.52,11.15-.24,5.11-.5,10.4-.7,15.6-.33,8.9-1.12,17.63-1.92,25.73-.31,3.18-.71,6.39-1.1,9.51-.16,1.34-.33,2.68-.49,4-.41,3.37-.94,7.81-1.41,12.34-.49,4.74-.83,9-1,13.08-.24,4.72-.53,8.86-.88,12.63-.43,4.55-1,9.13-1.58,13.17-.34,2.27-.62,4.41-.88,6.51l-.09.57c-.42,3-.86,6-1.08,9-.25,3.31-.5,6.3-.87,9.31-.11.77-.22,1.53-.35,2.28-.06.36-.13.71-.2,1.06a19.69,19.69,0,0,0-.45,3.67c0,.29.06.51.1.73a4.62,4.62,0,0,0,.36,1.73,6.73,6.73,0,0,0,1.35,2.37,9.28,9.28,0,0,0,3.62,2.33A36,36,0,0,0,715.9,239a20.17,20.17,0,0,0,4.74.71c1.19.07,2.39.11,3.59.16l3.27.13c2.47.14,4.52.28,6.46.44,4.31.36,8.62.38,12.8.4h3.16l2.66,0c1.66,0,3.85,0,6.06.22l2.38.23a63.21,63.21,0,0,1,6.32,1.31l1.09.29.39.11.71.2a9,9,0,0,0,2.46.49,4.69,4.69,0,0,0,4.58-3.47,9.17,9.17,0,0,0,.22-2.46v-.12a14.66,14.66,0,0,0-.23-2.19q-.07-.39-.12-.78v.17c-.17-1.38-.37-2.75-.58-4.11l-.14-1-.06-.46c-.2-1.55-.41-3.16-.55-4.75-.2-2.2-.36-4.47-.48-6.93-.17-3.76-.11-7.59,0-11.29l0-2q.09-6.07.17-12.14c0-.57,0-1.14,0-1.71,0-1.56,0-3.18.12-4.76q.21-3.51.48-7c.32-4.09.86-8.24,1.38-12.26l.42-3.27q.9-7.17,1.83-14.31l-.06.3c.34-2.32.6-4.43.83-6.42.18-1.6.29-3.23.41-4.8l.1-1.4c.14-1.84.23-3.67.33-5.84l.12.35c.54,1.28,1.09,2.59,1.58,3.91l.08.21c.74,2,1.49,4.05,2.2,6.09,1.73,5,3.06,9,4.18,12.83,2.35,7.94,4.45,16.31,6.42,25.61.73,3.46,1.42,7.18,2.23,12.06l.35,2.09c.59,3.57,1.2,7.27,1.7,10.93.56,4.08,1.25,8.25,2.12,12.75.35,1.8.82,3.71,1.44,5.84.44,1.51,1,3,1.57,4.46l.41,1.07c.73,1.93,1.63,3.84,2.49,5.69.35.74.7,1.47,1,2.21a42.06,42.06,0,0,1,1.51,5.45l.18.84c.14.69.29,1.38.46,2.07s.29,1.11.45,1.67a10,10,0,0,0,.94,2.1,6.2,6.2,0,0,0,1.86,1.82l.15.1a7.89,7.89,0,0,0,1.66.78l.11,0a12.9,12.9,0,0,0,1.29.39,9.85,9.85,0,0,0,2.23.26,12.17,12.17,0,0,0,1.83-.15,29,29,0,0,0,5.23-1.47l.17-.06,1.9-.68c1.27-.45,2.53-.91,3.81-1.33,4.21-1.39,8.38-2.58,12.26-3.64,4.16-1.16,8.3-2.25,12.17-3.27l1.78-.46c3.3-.85,6.72-1.74,10-2.83,2.48-.83,4.62-1.65,6.53-2.51a7.39,7.39,0,0,0,2.3-1.79,10.09,10.09,0,0,0,1.77-3.11,9.52,9.52,0,0,0,.48-3,9.23,9.23,0,0,0-.14-1.76l0-.19a18,18,0,0,0-.34-1.83l-.88-3.46c-.81-3.19-1.62-6.38-2.4-9.57-.56-2.29-1.21-4.55-1.77-6.46-.45-1.5-1-3-1.55-4.45-.18-.46-.35-.93-.52-1.39-.51-1.41-1.09-2.83-1.65-4.2-.26-.64-.53-1.28-.78-1.92-.57-1.43-1.13-2.86-1.69-4.29l-.87-2.23c-1.38-3.54-2.84-7.44-4.47-11.93-1.09-3-2.11-6.11-3.09-9.11l-.87-2.63-.16-.48c-1.28-3.86-2.56-7.73-3.86-11.58l-1.22-3.61c-2.36-7-4.8-14.2-7.45-21.21-.8-2.15-1.52-4.2-2.18-6.29-.53-1.68-1-3.4-1.41-5.07l-.17-.65c-1-4-2.13-8.33-3.29-13.08l0-.13c-.79-3.24-1.61-6.59-2.56-9.86-1-3.6-2-6.84-3-10.08-.25-.78-.49-1.57-.73-2.35-.8-2.57-1.63-5.22-2.65-7.76-.78-2-1.66-3.92-2.51-5.81-.49-1.09-1-2.18-1.45-3.27-1.32-3.22-2.84-7-4-10.88-.6-1.94-1.22-3.94-1.7-5.95s-.91-4-1.39-6.31c-.41-2-.78-4.11-1.14-6.11-.09-.48-.16-.87-.22-1.26a25,25,0,0,0-1.55-6c-1.66-3.72-5.21-5.4-8.12-6.44a2.17,2.17,0,0,0,0-.45,4.06,4.06,0,0,0-3.9-4Zm-36.46,39.5a3.72,3.72,0,0,0,1.06-.15,3.94,3.94,0,0,0,2-1.28c.17.27.37.53.55.79l.24.32a35.85,35.85,0,0,1,3.36,5.57c.52,1.08,1,2.16,1.51,3.25.4.85.79,1.71,1.19,2.57.85,1.77,1.74,3.68,2.6,5.61a30.44,30.44,0,0,1,1.52,5.09,16.05,16.05,0,0,1,0,2.4c0,.21-.1.42-.16.63a3,3,0,0,1-.18.3c-.16.18-.34.36-.52.53H780c-.67,0-1.35,0-2-.07l-.72,0c-.93,0-1.86-.1-2.8-.16-1.43-.1-2.94-.24-4.75-.44a33.32,33.32,0,0,1-6.11-1.4c-.24-.12-.47-.24-.71-.38,0-.55.08-1.12.13-1.66l0-.15c.61-4.28,1.41-8.53,2.17-12.48.41-2.16.83-4.3,1.28-6.45.17-.82.35-1.63.53-2.44a2.69,2.69,0,0,0,.4,0Z"/></g></g></svg>