<svg xmlns="http://www.w3.org/2000/svg" viewBox="0 0 420.84 226.66"><defs><style>.cls-1{fill:#fff;}</style></defs><g id="Layer_2" data-name="Layer 2"><g id="Draw_Layer" data-name="Draw Layer"><path class="cls-1" d="M83,0c-.73,0-1.46,0-2.18.05l-.56,0c-.65,0-1.3.06-2,.09l-.64,0c-.76,0-1.57.1-2.39.2h-.11a7.59,7.59,0,0,0-3.34.92h-1c-1,0-2.06,0-3.08,0-.5,0-1,0-1.5,0-.71,0-1.42,0-2.13,0-.53,0-1.06,0-1.59,0l-2.27-.16C59.16,1.15,58.1,1.07,57,1q-.68,0-1.35,0a68.1,68.1,0,0,0-9.28.85L45.59,2c-1.61.23-3.5.51-5.38.93s-3.45.9-5,1.4l-1.8.58-.72.22a27.47,27.47,0,0,0-3,1.17,26,26,0,0,0-4.3,2.49c-.58.41-1.17.81-1.76,1.21-.9.62-1.81,1.24-2.69,1.89A13.8,13.8,0,0,0,18.52,14c-.61.7-1.18,1.46-1.73,2.19l-.27.35c-2.08,2.72-4.1,5.55-6,8.29l-.34.47C9.52,26.11,8.92,27,8.31,28c-.35.55-.7,1.11-1,1.67-.89,1.51-1.82,3.17-2.82,5.07-1.36,2.57-2.9,5.48-3.39,8.57A21.84,21.84,0,0,0,.72,48l.09,1.1,0,.21C.63,50.22.48,51.1.35,52S.1,53.67,0,54.6a15.07,15.07,0,0,0,.16,3.06A26.38,26.38,0,0,0,.76,61a20.9,20.9,0,0,0,.73,2.29c.45,1.23,1,2.43,1.54,3.6.27.57.53,1.14.78,1.72l.15.35a75.2,75.2,0,0,0,4.21,9c.6,1,1.28,2.06,1.93,3L11,82.23c.3.46.59.93.88,1.4.65,1,1.32,2.12,2.07,3.11,2.49,3.3,5.22,6.73,8.85,9.17.53.35,1.22.8,2,1.22a29.39,29.39,0,0,0,3.14,1.48A26.56,26.56,0,0,0,32,99.81l.85.2a35.22,35.22,0,0,0,5.51.72l.66,0c1.64.14,3.31.18,4.92.21h.5c.55,0,1.09,0,1.64,0,1.18,0,2.44,0,3.86-.08a35.92,35.92,0,0,0,6-.84A28.45,28.45,0,0,0,65.69,96a44.84,44.84,0,0,1,4.13-2.49l1.05-.54,1.06-.53a3.68,3.68,0,0,0-.21.45c-.61,1.38-1.3,3-2,4.44l-2.54,5a78.72,78.72,0,0,0-4.46,10.78c-1.13,3.33-2.33,6.87-3.6,10.46l-.56,1.55c-1,2.91-2.12,5.91-3,8.92-1.84,6.17-4,13.49-5.85,21l-.21.82c-.35,1.41-.71,2.87-1,4.32q-.24,1.09-.45,2.19c-.19.94-.38,1.89-.59,2.82-.36,1.54-.7,3.07-1,4.61q-.69,3.09-1.41,6.18l-.35,1.47c-.64,2.73-1.3,5.55-2.08,8.29l-.21.74c-.37,1.26-.74,2.56-1.06,3.85s-.62,2.76-.89,4.1l-.21,1c-.2,1-.39,2-.57,2.92-.47,2.41-.95,4.91-1.58,7.34l-.23.86a19.31,19.31,0,0,0-.84,4.63,11.72,11.72,0,0,0,.28,2.76,7.21,7.21,0,0,0,1.52,2.82c.51.61,1,1.22,1.57,1.82l.24.28a11.42,11.42,0,0,0,3.43,2.53,20.47,20.47,0,0,0,3.81,1.47,27.33,27.33,0,0,0,4.43.75c2.6.28,5.17.48,7.35.63.93.06,1.87.1,2.81.14,1.42.06,2.88.11,4.31.27l.3,0a38.23,38.23,0,0,0,5.44.52H73a36.87,36.87,0,0,0,7.55-1.25,3.4,3.4,0,0,0,2.34-2.15,5.91,5.91,0,0,0,1.34-3.17l.36-1.71,0-.17c.21-1,.45-2,.68-3l.27-1.19c.3-1.27.58-2.53.79-3.8s.33-2.3.46-3.43l.11-.92c.16-1.15.31-2.3.46-3.45l-.08.44c.53-3.7,1.06-7,1.64-10.1.52-2.73,1.14-5.49,1.73-8.15.22-1,.44-1.93.65-2.89.46-2.09.84-4.24,1.2-6.31.24-1.41.49-2.81.76-4.21.62-3.19,1.24-6.64,1.94-10.89.43-2.63.75-5.32,1.07-7.92.11-.94.23-1.87.34-2.8.24-1.6.49-3.15.78-4.73s.69-3.1,1.08-4.59l.24-.89c.13-.52.27-1,.41-1.54.32-1.19.66-2.41.92-3.63.46-2.2.77-3.91,1-5.52.35-2.31.77-4.63,1.18-6.88.21-1.15.42-2.3.62-3.45.42-2.42,1-4.85,1.49-7.2.19-.83.38-1.67.56-2.51.75-3.41,1.62-6.85,2.61-10.22.47-1.56,1-3.41,1.66-5.29.48-1.39,1.07-2.76,1.64-4.08l.08-.18.55-1.3a70.84,70.84,0,0,0,3.7-9.94c.46-1.73.93-3.52,1.48-5.25.48-1.51,1.1-3,1.7-4.45l.28-.69.19-.43q.81-1.95,1.65-3.9l.73-1.63c.59-1.31,1.19-2.67,1.69-4,.68-1.86,1.21-3.53,1.64-5.11.26-.93.5-1.88.73-2.82.17-.7.34-1.4.53-2.09.29-1.12.6-2.23.92-3.34.59-2.09,1.21-4.25,1.65-6.41a40.13,40.13,0,0,0,.9-5.84,48.93,48.93,0,0,0,0-5.51,41.54,41.54,0,0,0-.57-5.25,15.5,15.5,0,0,0-2-5.56,11.06,11.06,0,0,0-3.83-3.55,10.17,10.17,0,0,0-2.53-1,17.66,17.66,0,0,0-2.28-.34l-.31,0a28.39,28.39,0,0,1-6.23-1.83l-.82-.36a74.26,74.26,0,0,0-7.1-2.8l-1.16-.36-3.14-1c-1.32-.39-2.69-.68-4-1l-.41-.09A84.76,84.76,0,0,0,84.72.07C84.2,0,83.65,0,83,0ZM51.22,42.89a3.26,3.26,0,0,0,.87-.12A3.62,3.62,0,0,0,54,41.5c.27.08.54.17.83.28a22.46,22.46,0,0,1,3.68,2.06,19.55,19.55,0,0,1,2.64,2.57,11.89,11.89,0,0,1,.83,1.37c.08.23.14.46.2.7a13.93,13.93,0,0,1,0,2.14,11.11,11.11,0,0,1-.51,1.78,12.49,12.49,0,0,1-.84,1.43,17.73,17.73,0,0,1-2,1.92,9.17,9.17,0,0,1-1.08.63,7.66,7.66,0,0,1-.82.23l-1,0A27.25,27.25,0,0,1,53,56.46a17.73,17.73,0,0,1-3.27-.85,11.85,11.85,0,0,1-1.25-.71,9.57,9.57,0,0,1-.77-.79A11.78,11.78,0,0,1,47.06,53a11,11,0,0,1-.33-1.34,14.19,14.19,0,0,1,0-2.91c.05-.45.11-.89.16-1.34A26.62,26.62,0,0,1,48,42.63c.06-.14.13-.28.2-.41l.35-.11h.11l.69.32a4.35,4.35,0,0,0,1.83.47Z"/><path class="cls-1" d="M200.44,4l-1.73,0a20,20,0,0,0-5.94.78,20.1,20.1,0,0,0-3,1.41c-.54.29-1.07.58-1.63.84a21.42,21.42,0,0,0-2.55-.16c-.41,0-.83,0-1.24,0a36.73,36.73,0,0,0-7.56,1.29A22.73,22.73,0,0,0,173,9.58,19.43,19.43,0,0,0,169.45,12l-.27.21a33.13,33.13,0,0,0-5.05,5.18,75.57,75.57,0,0,0-4.93,6.85c-.34.53-.66,1.06-1,1.6l-.51.83-.45.72c-.31.49-.62,1-.9,1.5l-.75,1.39-2.14,3.94c-.26.48-.47,1-.68,1.49-.11.25-.21.5-.32.74L152,37.51l-1.07,2.37c-.64,1.42-1.2,2.91-1.74,4.34l-.6,1.56c-.49,1.28-.95,2.57-1.4,3.86l-.5,1.4c-1.21,3.38-2.19,6.89-3.13,10.29l-.09.33c-.15.54-.26,1.1-.37,1.65l-.15.77c-.06.29-.13.58-.19.87-.15.62-.29,1.25-.39,1.88l-.45,2.9-.44,2.88c-.23,1.44-.4,2.92-.57,4.34-.08.71-.16,1.42-.25,2.13s-.12,1.21-.17,1.82c0,.33-.05.66-.08,1l-.07.74c0,.56-.11,1.11-.14,1.66l0,.34c-.21,3.64-.43,7.41-.53,11.12-.18,7.21-.19,14.55-.19,21.65v1.27c0,3.9,0,7.79,0,11.69,0,3,.18,6.07.32,9l.13,2.66c.31,7.14,1.22,14.35,2.11,21.33l.15,1.23c.49,3.87,1,7.75,1.53,11.61.14,1.11.29,2.22.43,3.33.32,2.57.66,5.22,1.1,7.81.08.49.17,1,.25,1.48.23,1.43.47,2.91.81,4.34.45,1.89.94,3.91,1.53,5.93a89.07,89.07,0,0,0,4.3,11.71,34.52,34.52,0,0,0,1.64,3.13,27.48,27.48,0,0,0,2.3,3.26,17.78,17.78,0,0,0,6.36,4.87,49.63,49.63,0,0,0,15.85,4.19c2.69.29,5.44.31,8.1.33l2,0c1.62,0,3.24,0,4.87,0H195l3.4,0H200a68,68,0,0,0,12.15-1.2c2.44-.45,4.42-.85,6.22-1.25s3.2-.77,4.48-1.18a33.19,33.19,0,0,0,7.58-3.63,60.74,60.74,0,0,0,6.08-4.49,45,45,0,0,0,5.5-5.38c1.48-1.71,2.85-3.56,4.17-5.35l1-1.37a79.63,79.63,0,0,0,8.39-13.42,50.19,50.19,0,0,0,4.13-12.77c.4-2.33.76-4.43,1-6.59.52-4.23.88-8.44,1.17-12s.43-7.32.56-10.9l0-.5c.13-3.49.3-7.24.52-11.45l.12-2.09c.15-2.72.31-5.53.26-8.29-.06-4.11-.13-7.82-.32-11.61l0-.52c-.18-3.61-.37-7.34-.63-11-.27-3.82-.65-7.83-1.16-12.28-.46-3.92-1-8-1.58-12.21-.17-1.21-.43-2.44-.68-3.63-.11-.55-.23-1.1-.34-1.65-.22-1.15-.49-2.3-.76-3.45l-.39-1.71-.24-1.09c-.77-3.43-1.56-7-2.54-10.42-.56-1.94-1.19-3.81-1.85-5.73-.22-.65-.47-1.27-.73-1.89-.15-.36-.29-.73-.43-1.09-.33-.84-.67-1.7-1.06-2.52l-.11-.23c-.79-1.66-1.61-3.37-2.51-5s-1.79-3-2.84-4.52c-1.3-1.86-2.46-3.57-3.56-5.23-.65-1-1.27-2-1.88-3S238.58,24,238,23.06a31.1,31.1,0,0,0-2.31-3,21.4,21.4,0,0,0-2-2l-.43-.39-1.5-1.38-.77-.69a41,41,0,0,1-3-3.16l-.58-.63-.08-.1a12.92,12.92,0,0,0-4.07-3.41A28.27,28.27,0,0,0,219.45,7l-1-.28c-.72-.21-1.44-.46-2.16-.71a27.57,27.57,0,0,0-4.2-1.19,52.93,52.93,0,0,0-5.73-.57L205,4.13C203.45,4,202,4,200.44,4ZM195,88.85a4,4,0,0,0,1.82-.47l1.11-.55c.8-.4,1.61-.81,2.43-1.18a13.73,13.73,0,0,1,1.89-.59h1c.63.1,1.27.21,1.89.35l.07.45,0,.27c.11.74.22,1.48.32,2.22.22,1.56.43,3.11.64,4.67l.75,5.65c.26,1.93.53,3.93.63,5.93a93.92,93.92,0,0,1-.29,15.71c-.12.85-.26,1.7-.43,2.54a17.71,17.71,0,0,1-.9,2.93,40,40,0,0,1-4,6.78,17.73,17.73,0,0,1-2.09,2.2,8.82,8.82,0,0,1-.95.57l-.61.17h-.22l-.61,0c-.33-.07-.66-.16-1-.26a23,23,0,0,1-1.26-2.65l-.08-.19c-.34-.87-.65-1.66-.92-2.5s-.55-1.85-.84-2.95c-.47-1.78-.92-3.63-1.38-5.65-.93-4.1-1.56-8.22-2-11.36l-.07-.74c-.17-1.72-.34-3.5-.41-5.25l0-.57a59.24,59.24,0,0,1,.05-7.88A22.27,22.27,0,0,1,191,92.09a18.46,18.46,0,0,1,1.41-2.55,14,14,0,0,1,1-1l.09-.06a6.35,6.35,0,0,0,.65.23,3.39,3.39,0,0,0,.88.12Z"/><path class="cls-1" d="M397.14,8.41a3.21,3.21,0,0,0-1.72.48c-1,.63-2,1.25-3,1.87l-1.85,1.15-.83.52a36.9,36.9,0,0,0-3.36,2.23c-.77.6-1.78,1.39-2.76,2.28-.67.6-1.32,1.24-1.94,1.87l-.25.24c-1.17,1.17-2.31,2.39-3.41,3.58l-.45.48c-1.21,1.31-2.5,2.73-3.68,4.25s-2.22,3-3.41,4.82c-1.88,2.87-3.51,5.75-5.45,9.22l-1,1.85c-.55,1-1.1,2-1.68,3s-1,1.81-1.58,2.72c-.38.64-.76,1.28-1.13,1.93q-1.12,1.92-2.26,3.82c-1.12,1.89-2.27,3.83-3.37,5.77s-2,3.61-2.93,5.37c-.79,1.5-1.53,3.05-2.24,4.56l-.41.84c-.58,1.22-1.14,2.46-1.7,3.69L346,76.46c-.52,1.13-1.07,2.24-1.62,3.36l-.69,1.42c-.79,1.62-1.61,3.23-2.42,4.84s-1.63,3.22-2.42,4.84c-1.49,3.07-2.82,6.28-4.1,9.38l-.26.64-.55,1.2c-.51,1.11-1,2.26-1.61,3.37-.94,1.84-1.89,3.67-2.88,5.5-1.52,2.82-3.35,6.14-5.31,9.4-1.32,2.21-2.72,4.42-4.07,6.57l-1.93,3.08c-1.79,2.87-3.39,5.91-4.95,8.85l-.7,1.33c-1.19,2.25-2.36,4.52-3.52,6.79-.6,1.19-1.19,2.47-1.79,3.94-.23.55-.42,1.13-.61,1.7s-.34,1-.54,1.54a86.12,86.12,0,0,1-6.62,13.24q-2.2,3.44-4.39,6.88c-.69,1.1-1.37,2.17-1.95,3.27s-1.14,2.44-1.64,3.66c-.29.66-.58,1.28-.87,1.9s-.61,1.31-.9,2c-.38.89-.82,1.92-1.19,3a18.83,18.83,0,0,0-.7,3.65l-.08.65a24.7,24.7,0,0,0-.19,5.06,17.48,17.48,0,0,0,.53,3.21,18.37,18.37,0,0,0,1.21,3,26.85,26.85,0,0,0,3.08,5A21.63,21.63,0,0,0,296,212l.45.35a48.17,48.17,0,0,0,4.48,3.24c1.38.84,2.88,1.55,4.32,2.24a18.75,18.75,0,0,0,5.35,1.79,15.36,15.36,0,0,0,2.38.21,8.62,8.62,0,0,0,2.54-.35,13,13,0,0,0,5.94-4.29c1.46-1.67,2.79-3.5,4.07-5.28l.43-.6a37.9,37.9,0,0,0,2.74-4.26c.5-.91,1-1.84,1.49-2.76,1.23-2.27,2.49-4.62,3.82-6.88,1.73-2.93,3.64-6.09,5.85-9.65,1-1.65,2-3.29,3.05-4.94s2.1-3.61,3-5.22c1.31-2.32,2.57-4.72,3.78-7l1.26-2.39c1.66-3.12,3.54-6.17,5.36-9.12L357,156c1.91-3.07,3.72-6.22,5.41-9.17,2.22-3.86,4-7,5.67-10s3.53-6.37,5.11-9.66,3.21-6.89,5-11l.49-1.13c1.18-2.76,2.41-5.61,3.72-8.36l.25-.54c.77-1.6,1.56-3.25,2.38-4.86q1.42-2.74,2.87-5.47l1.95-3.66q1.69-3.17,3.37-6.33l1.11-2.12c1.31-2.51,2.67-5.1,4.07-7.62q1.42-2.6,2.88-5.18l.59-1A39.5,39.5,0,0,0,404,65.65q2.19-5.22,4.35-10.46c.72-1.72,1.38-3.5,2-5.31.48-1.48,1-3.17,1.69-4.78s1.45-3.5,2.16-5.25a41.82,41.82,0,0,0,1.59-4.78c.15-.57.32-1.13.48-1.69.32-1.11.66-2.25.88-3.38a12.58,12.58,0,0,0,.26-2.89,24.1,24.1,0,0,0-.33-2.82l-.07-.4a15.36,15.36,0,0,0-2.09-5.36A12.62,12.62,0,0,0,409,13.38c-1.19-.51-2.15-.87-3.11-1.18a18.78,18.78,0,0,0-2.8-.61c-.76-.11-1.58-.22-2.42-.27a3.26,3.26,0,0,0-.43-1.17,3.6,3.6,0,0,0-3.08-1.74Z"/><path class="cls-1" d="M309.38,27.43a14.79,14.79,0,0,0-2.2.23l-.47.07a8.13,8.13,0,0,0-4.16,2.4l-.16,0-.55-.06c-.57.05-1.08.12-1.58.21a4.88,4.88,0,0,0-2,1.19,13.33,13.33,0,0,0-1.74,2,17.36,17.36,0,0,0-1.62,2.92l-.06.11A30.38,30.38,0,0,0,293.43,40a31.09,31.09,0,0,0-.91,4.13l-.1.61c-.16.94-.3,1.95-.44,3.29-.27,2.58.72,5.1,1.84,7.43a20.93,20.93,0,0,0,1.6,2.73,12.49,12.49,0,0,0,1.12,1.41,7.12,7.12,0,0,0,1.31,1.07l.37.26a8.09,8.09,0,0,0,1.67.82l.19.08c.48.19,1,.36,1.54.52a18,18,0,0,0,4.29.59h.36a21.08,21.08,0,0,0,3.27-.34l.53-.08c.72-.11,1.43-.28,2.13-.44a28.11,28.11,0,0,0,3.51-1,12.31,12.31,0,0,0,4.82-3.4,20.12,20.12,0,0,0,3.68-7.05,23.88,23.88,0,0,0,.74-3.13l0-.15c.2-1.1.4-2.25.49-3.38a19.38,19.38,0,0,0-.38-5.94,10.1,10.1,0,0,0-2.77-4.73,18.68,18.68,0,0,0-1.93-1.81,19.62,19.62,0,0,0-1.87-1.31,12.94,12.94,0,0,0-1.81-.84l-.69-.27c-.92-.39-1.85-.73-2.55-1a14.9,14.9,0,0,0-3.53-.64l-.55,0Z"/><path class="cls-1" d="M399.07,139a36,36,0,0,0-3.76.21,22.2,22.2,0,0,0-2.71.45l-.16-.07a2.92,2.92,0,0,0-1.18-.41,6.08,6.08,0,0,0-1.15-.12,3.22,3.22,0,0,0-1,.15,7,7,0,0,0-2.88,1.8,30.08,30.08,0,0,0-3.22,4.08l-.28.4c-.46.65-.89,1.32-1.32,2a14.21,14.21,0,0,0-1.49,4.11,38,38,0,0,0-.82,5.84c-.11,1.57-.22,3.43-.19,5.33a20.54,20.54,0,0,0,.18,2.09l0,.27a30.24,30.24,0,0,0,.6,3.39,14.7,14.7,0,0,0,1.36,3.3,12.17,12.17,0,0,0,1.33,1.89l.45.58a34.38,34.38,0,0,0,4.13,4.45,13.24,13.24,0,0,0,3,2.18,19.66,19.66,0,0,0,4.13,1.38,36.1,36.1,0,0,0,4.11.76,5.51,5.51,0,0,0,.81,0,14.66,14.66,0,0,0,2.18-.21,22,22,0,0,0,3.08-.72,44.68,44.68,0,0,0,6.1-2.33,12.51,12.51,0,0,0,4.22-3.53,30.9,30.9,0,0,0,3.05-4.48l.07-.12a31,31,0,0,0,1.58-3,22.19,22.19,0,0,0,1.3-4.12,12.31,12.31,0,0,0-.37-6c-.2-.67-.46-1.33-.71-2l-.26-.66a37.23,37.23,0,0,0-1.54-3.6,17.73,17.73,0,0,0-1.72-2.6c-.61-.82-1.21-1.55-1.79-2.26-.3-.35-.59-.71-.88-1.07-.91-1.22-1.86-2.47-2.89-3.63a10.75,10.75,0,0,0-1.91-1.62,12.85,12.85,0,0,0-6-2,26.58,26.58,0,0,0-3.49-.22Z"/></g></g></svg>