<svg xmlns="http://www.w3.org/2000/svg" viewBox="0 0 363.29 245.21"><defs><style>.cls-1{fill:#fff;}</style></defs><g id="Layer_2" data-name="Layer 2"><g id="Draw_Layer" data-name="Draw Layer"><path class="cls-1" d="M161.67,0h0c-.8,0-1.66,0-2.64.09a38.7,38.7,0,0,0-4.09.48,27.36,27.36,0,0,0-3.66,1c-2.09.67-4.29,1.49-6.52,2.42h0c-1.9.78-3.39,1.35-4.82,1.83q-1.66.56-3.33,1.08l-1.78.57c-1.08.34-2.14.72-3.21,1.09l-1.81.64-2,.67q-1.45.46-2.88,1a28.15,28.15,0,0,0-3.69,1.63A34.74,34.74,0,0,0,118,14.39c-1.08.72-2.15,1.48-3.13,2.19s-2.11,1.49-3.17,2.22l-.63.43c-1.9,1.3-3.87,2.65-5.72,4.09-1.05.82-2.1,1.64-3.12,2.49l-.84.7L99.56,28a61.77,61.77,0,0,1-7.43,4.77c-.9.5-1.84,1-2.75,1.42l-.61.3c-1.24.61-2.35,1.13-3.4,1.58-2.67,1.16-4.89,2.16-7.06,3.33-1.16.63-2.31,1.29-3.46,2s-2.07,1.19-3.11,1.76l-2.07,1.13c-.36.2-.73.37-1.09.54l-.46.21c-1.1.53-2.08,1-3,1.37h0l-.11,0a1.51,1.51,0,0,0-.29.13h0l-.13,0a1.36,1.36,0,0,0-.25.11h0l-.16.06a3.75,3.75,0,0,0-.65.28l-.25.1-1.47.6-2.4,1-1.79.76-2.36,1-.19.07a6,6,0,0,0-.69.3l-.27.12-.28.11-.78.34-.55.23c-1.6.66-3.16,1.29-4.74,1.88L44.09,55a24.56,24.56,0,0,0-5.88,3.13,47.87,47.87,0,0,0-3.68,3.19c-1,1-2,1.95-3.05,3l-2.93,2.89-2.34,2.29c-.56.56-1.14,1.09-1.72,1.62l-.83.77c-.65.6-1.34,1.17-2,1.72l-.6.49c-1.91,1.58-3.7,3.24-5.34,4.79l-.22.2c-.43.41-.87.83-1.31,1.23l-.61.53-.68.6a22.1,22.1,0,0,0-2.57,2.67c-.63.8-1.23,1.63-1.83,2.45l-.61.84c-.71,1-1.41,1.92-2.1,2.9a26.1,26.1,0,0,0-1.8,3c-.44.86-.85,1.73-1.25,2.6l-.24.51-.4.86C1.73,98,1.37,98.74,1,99.52L.85,100a9.67,9.67,0,0,0-.56,1.47A6.42,6.42,0,0,0,0,103.2,9.78,9.78,0,0,0,.18,105a13.4,13.4,0,0,0,.45,1.79c.21.6.45,1.22.75,1.89a13.82,13.82,0,0,0,1.78,3.1,28.91,28.91,0,0,0,2.2,2.47l.35.35.62.65c.63.66,1.26,1.32,1.9,2A36.64,36.64,0,0,1,10.81,120l.66.82c.58.74,1.19,1.5,1.83,2.21.41.47.84.93,1.28,1.36s1,.89,1.39,1.24l.48.41a21.9,21.9,0,0,1,2.09,1.88c.71.76,1.39,1.57,2.05,2.35.89,1.06,1.81,2.15,2.82,3.14.44.43.89.85,1.34,1.27s.83.77,1.24,1.17.94.91,1.39,1.39c.28.3.55.61.82.91l.4.44c.83.92,1.64,1.84,2.45,2.77s1.51,1.72,2.19,2.57c1.27,1.7,2.42,3.52,3.53,5.28l.32.5c.66,1,1.35,2.06,2.12,3.12.4.54.82,1.08,1.25,1.6a14.38,14.38,0,0,0,1.63,1.73l.34.29.34.29c.71.61,1.46,1.19,2.19,1.75l.6.46c1,.8,2.07,1.6,3.09,2.42l.79.63c1.71,1.36,3.47,2.76,5.17,4.18l.79.66c.76.63,1.55,1.28,2.29,2l.85.77,1,.87c.31.28.61.59.91.9l.47.47c.7.69,1.37,1.43,2,2.15l.65.71c.79.86,1.54,1.74,2.3,2.63l.17.19c.42.49.82,1,1.22,1.51s.77,1,1.17,1.43A31.61,31.61,0,0,0,70.87,183c.62.58,1.3,1.12,2,1.64l.91.73c.57.47,1.13,1,1.69,1.45.35.3.69.61,1,.91,2.11,1.8,4,3.38,5.85,4.82,1.13.9,2,1.67,2.87,2.43s1.82,1.71,2.71,2.58,1.9,1.82,2.77,2.56l1.45,1.21,1.44,1.22c2,1.73,3.81,3.35,5.42,4.93.9.88,1.86,1.83,2.79,2.84.49.53,1,1.07,1.43,1.62.31.37.62.73.94,1.09,1.75,2,3.28,3.82,4.68,5.61l1.56,2.08c.89,1.2,1.79,2.4,2.71,3.57.67.86,1.39,1.7,2.19,2.63l2.33,2.7c3.44,3.95,6.87,7.73,11.11,10.57.51.34,1,.64,1.51.9l.31.16c.43.23.86.45,1.31.65l.52.22a14.32,14.32,0,0,0,2.63,1c.74.17,1.52.31,2.39.44,1.49.21,3,.36,4.48.51,1,.11,2,.21,3,.33l.86.12c1.75.24,3.55.49,5.34.62.52,0,1,.06,1.57.09h1.5a21.41,21.41,0,0,0,2.92-.32,15.23,15.23,0,0,0,3.75-1,7.93,7.93,0,0,0,4.21-4.24,11.46,11.46,0,0,0,.68-2.57h0l.11-.05a1.46,1.46,0,0,0,.69-.91c.07-.38.12-.77.17-1.16.09-.76.11-1.5.13-2.33s0-1.7.08-2.55c.06-1.6.14-3.19.23-4.78.08-1.26.17-2.51.26-3.76.14-1.86.28-3.79.35-5.69.12-3.17.27-6.55.58-9.93.06-.68.11-1.35.15-2,0-.15,0-.31.07-.48.14-.85.29-1.7.44-2.54l.18-1c.13-.67.24-1.35.35-2,.09-.48.17-1,.25-1.45L170,195c.14-.85.29-1.7.44-2.54a24.62,24.62,0,0,1,1.05-3.94l.47-1.29a1.15,1.15,0,0,0,.39-.45c.37-.77.73-1.54,1.09-2.31a13.07,13.07,0,0,0,.71-1.77,4.77,4.77,0,0,0,.38-1.14l.34.21,1.29.64c.58.28,1.15.56,1.71.86l.91.47c.57.3,1.14.59,1.7.91a27.72,27.72,0,0,1,2.45,1.6c.8.56,1.6,1.12,2.37,1.7l.21.16a44.93,44.93,0,0,0,4.61,3.19,47.19,47.19,0,0,0,5.18,2.56l1.38.63,1.07.5c.94.42,1.89.82,2.86,1.21l2.29.91c.82.32,1.65.64,2.48,1h0c2.91,1.24,6,2.53,9.19,3.82l3.82,1.55,5.71,2.32c2.27,1,4.61,2,6.89,3s4.52,2,7.46,3.24l-.18-.06c2,.86,4.16,1.77,6.36,2.6,1.9.72,3.89,1.51,6,2.41l.84.35,1.94.83c1.57.71,3.21,1.55,5.32,2.71l2.64,1.43,2.63,1.44a93,93,0,0,0,11.14,5.09c2.13.83,3.87,1.44,5.5,1.92,1.28.37,2.28.64,3.23.87s1.79.42,2.7.6c2.36.47,4.3.83,6.11,1.11q3,.46,5.93.88c2.13.29,4.23.72,6,1.09l1.68.39,1.32.3c.73.17,1.47.31,2.21.45l.61.11a99.77,99.77,0,0,0,11.94,1.5c2.11.14,4.06.22,6,.24s3.83,0,5.75,0h.66a53.81,53.81,0,0,0,5.83-.29c1-.11,2.17-.27,3.54-.48,1-.16,1.83-.33,2.58-.52s1.26-.33,1.87-.55l.22-.08a10.78,10.78,0,0,0,1.64-.7,6.31,6.31,0,0,0,1.73-1.33,6.17,6.17,0,0,0,1-1.45,8.5,8.5,0,0,0,.62-1.72,12.84,12.84,0,0,0,.31-2l0-.49c.06-.78.12-1.6.12-2.4l0-4.31c.21-.54.43-1.07.65-1.6.33-.8.66-1.6,1-2.41a39.67,39.67,0,0,0,1.75-5.55c.25-1.11.44-2.1.59-3s.27-1.89.37-2.82l.05-.41c.2-1.68.34-3.4.48-5.07l.06-.81,0-.23c.07-.91.15-1.82.21-2.73l.08-.86c.06-.68.11-1.36.15-2,.11-2.14.23-4.29.35-6.43.11-1.81.1-3.65.1-5.43v-.5q0-3.18,0-6.34V171.2c0-6.33,0-12.88,0-19.31l0-1.74c0-3.4,0-6.92.15-10.38l0-.61c0-1.86.09-3.78.2-5.66.07-1.22.16-2.44.25-3.66.06-.84.12-1.69.17-2.54.12-1.84.2-3.68.28-5.52l0-.82c.09-2,.24-4.07.38-5.85s.19-3.59.24-5.35l0-.76c.05-1.94.14-3.89.23-5.84,0-.93.1-1.87.16-2.86l0-.77c.05-.76.1-1.55.1-2.32,0-2.06,0-4.11,0-6.17s-.05-4-.12-6c-.05-1.58-.14-3.16-.23-4.73l.18-2,.07-.71.12-.78.15-.36a2.39,2.39,0,0,0,.19-.59c.07-.34.13-.67.19-1s.14-.91.19-1.37a10.67,10.67,0,0,0,.05-2.08c0-.44-.08-.89-.13-1.38a1,1,0,0,0-.08-.51,19.92,19.92,0,0,0-.56-2.67l-.12-.39a13.28,13.28,0,0,0-.44-1.35,16.52,16.52,0,0,0-.87-1.86c-.31-.56-.62-1.12-1-1.65l-.08-.13c-.37-.58-.74-1.17-1.13-1.74-.14-.2-.28-.4-.43-.59l-.16-.23a3.46,3.46,0,0,0-1.1-1.41,1.38,1.38,0,0,0-.73-.21,1.4,1.4,0,0,0-.64.15,14.29,14.29,0,0,0-1.24-2c-.64-.83-1.3-1.69-2-2.51l-.29-.33A24.73,24.73,0,0,0,349.9,50a15.07,15.07,0,0,0-3.09-2.15l-1.36-.65c-.66-.29-1.33-.57-2-.84l-1.38-.86c-.46-.28-.93-.52-1.47-.8A16.61,16.61,0,0,0,339,44a12.23,12.23,0,0,0-3.13-.67,14.11,14.11,0,0,0-1.51-.09,11.85,11.85,0,0,0-1.24.09l-.86.07c-.77.06-1.58.12-2.36.24l-.95.17-.58.11L328,44c-.35,0-.7.11-1,.18-1,.2-2,.41-3,.65-.68.16-1.37.29-2,.43l-.94.19c-1.62.34-3.26.63-4.88.93l-.91.17-.36.07a39.56,39.56,0,0,0-5.61,1.29,58.63,58.63,0,0,0-5.69,2.22c-1.75.78-3.44,1.69-5.16,2.64-1.52.83-3.11,1.63-4.86,2.43l.06,0c-2.77,1.17-5.36,2.14-7.91,3-.71.23-1.44.42-2.16.61l-.69.18c-1.13.3-2.16.54-3.14.72-.52.1-1,.18-1.56.26l-1.28.2c-1,.19-2.08.38-3.12.61s-2,.41-3,.59l-1.48.28-1.32.26-1.73.34-1.15.22c-.95.18-1.89.33-2.84.48l-1,.12-2.14.27a1.33,1.33,0,0,0-.4,0l-.69.09-.41.06-1.05.14c-.46.06-.91.14-1.44.22l-3.21.48-1.07.13c-1.26.15-2.51.31-3.84.49h-.1c-2.43.31-4.29.51-6,.63-2.26.17-4.25.27-6.1.33l-1.76.05c-1.5,0-3,.09-4.56.19l-.92.07c-1.61.11-3.28.22-4.9.41-2.17.24-4.13.46-6.13.61s-4,.23-5.94.29l-1.61,0-1.62,0c-.91,0-1.83.11-2.72.18l-.31,0c-1,.08-1.92.17-2.88.3l-1.73.26c-.47.08-.93.16-1.4.22-1,.14-1.93.28-2.9.46s-1.87.33-2.82.47c-1.23.15-2.54.27-4,.37-.61,0-1.22.08-1.83.09h-.21a12.46,12.46,0,0,1-1.56-.1c-.84-.12-1.68-.23-2.53-.32-.36-.06-.71-.11-1.06-.18l-.17,0a13.11,13.11,0,0,1-1.41-.32,1.35,1.35,0,0,0,.19-.73q0-.69-.09-1.38a18.29,18.29,0,0,1-.07-2.46c0-.74.09-1.49.15-2.23l.09-1.28,0-.67c.07-1,.13-2,.15-3,0-1.23,0-2.46,0-3.69,0-2.59,0-5.17-.09-7.75-.05-2.2-.12-4.8-.35-7.34-.06-.69-.14-1.39-.21-2.08s-.13-1.14-.18-1.71c-.13-1.28-.21-2.55-.3-3.83v-.26c-.08-1.19-.16-2.41-.29-3.61s-.27-2.34-.43-3.55h0l-.21-1.69c-.12-1.06-.24-2.11-.39-3.17-.09-.69-.21-1.38-.34-2.07l-.07-.38c-.12-.65-.24-1.32-.41-2-.48-1.75-.93-3.19-1.43-4.61-.24-.68-.49-1.39-.8-2l-.13-.31a13.37,13.37,0,0,0-.8-1.55A14.71,14.71,0,0,0,172.61,4l-.15-.18a8.18,8.18,0,0,0-.69-.75c-.29-.27-.6-.51-.91-.75A9.05,9.05,0,0,0,168.27,1l-.1,0a11.7,11.7,0,0,0-1.5-.45A23.83,23.83,0,0,0,162.91,0l-1.24,0ZM351.9,159.81h0v0h0v0h0c0,.2-.06.39-.08.58l.09-.76v.12ZM355.55,178h0v-.09c.05-.85.11-1.7.16-2.55s.07-1.56.1-2.34c.05-1.24.11-2.52.2-3.78v.12c-.08,2.1-.18,4.27-.31,6.63,0,.67-.09,1.34-.16,2Zm0,29.64h0l0,.16c-.09.62-.17,1.26-.3,1.88-.16.82-.34,1.63-.53,2.45-.15.6-.33,1.24-.52,1.93,0-1.12-.09-2.24-.14-3.36l0-.19,0-.19c.17-1.07.36-2.14.55-3.21.16-.88.32-1.76.47-2.64l.06-.34c.15-.91.3-1.82.42-2.74q.23-1.62.42-3.27v.18c.21-1.54.4-3.08.59-4.62.1-.82.2-1.65.28-2.48l0,.63c-.07,1.19-.13,2.38-.22,3.56l-.11,1.41c-.28,3.55-.56,7.23-1,10.84Z"/><path class="cls-1" d="M358.57,184.49h0a1.52,1.52,0,0,0-1.5-1.5,1.5,1.5,0,0,0-1.5,1.5c0,1.43-.08,2.87-.13,4.31a1.86,1.86,0,0,0-1,0,1.82,1.82,0,0,0-.81.46,5.19,5.19,0,0,0-.36.46,8.16,8.16,0,0,0-.71,2q-.19,1-.36,1.95c-.25,1.55-.51,3.09-.75,4.64,0,.16,0,.31-.07.46a3.11,3.11,0,0,0-1.78-1.62,2,2,0,0,0-2,.77,4.76,4.76,0,0,0-.73,1.23c-.12.27-.26.53-.37.8l-.75,1.74a1.67,1.67,0,0,0-.15,1.16,1.47,1.47,0,0,0,.69.89,1.51,1.51,0,0,0,1.16.15,1.41,1.41,0,0,0,.89-.69c.25-.58.48-1.17.75-1.73v0c.14.56.26,1.14.35,1.71a27.82,27.82,0,0,1-.12,5.84c-.12.47-.22.95-.33,1.42s-.18.84-.27,1.27c0,.25-.11.5-.15.75a2.66,2.66,0,0,0-.11.84c0,.25.06.5.11.75a1.51,1.51,0,0,0,1.45,1.1,1.55,1.55,0,0,0,1.45-1.1,7.65,7.65,0,0,0,.34-1.31l.09-.55.15-1c0-.38.1-.76.16-1.14l-.06.4c0-.1,0-.21,0-.31l0,.15.09-.68c.27-1.15.56-2.29.8-3.44.17-.84.36-1.68.52-2.53s.29-1.67.44-2.5c.27-1.53.48-3.08.73-4.61.13-.76.24-1.52.38-2.28v-.07c0,.15.05.29.07.43v.06c-.15,3.32-.38,6.64-.63,10-.12,1.65-.34,3.3-.51,5-.14,1.38-.34,2.76-.51,4.13-.1.52-.19,1-.29,1.56a13.21,13.21,0,0,0-.4,2.48,1.52,1.52,0,0,0,1.1,1.45,1.88,1.88,0,0,0,.33,0c-.07.46-.13.92-.19,1.38,0-.14,0-.27,0-.4-.06.41-.11.83-.17,1.24l.06-.4c-.14,1-.23,2.06-.36,3.09-.05.39-.11.78-.16,1.18,0-.14,0-.27.05-.4a19.35,19.35,0,0,1-.82,3.66,9.15,9.15,0,0,1-.82,1.33,13.62,13.62,0,0,1-1.34,1.4,11.65,11.65,0,0,1-1.86,1,12.91,12.91,0,0,1-2.39.62,3.66,3.66,0,0,1-.66,0c-.23,0-.45,0-.68,0-.64-.11-1.25-.3-1.88-.47s-1.21-.37-1.82-.59a1.5,1.5,0,0,0-1.69,2.21,1.58,1.58,0,0,0,.89.69c.46.16.93.35,1.4.47l1.19.32a8.6,8.6,0,0,0,3.49.33,11.78,11.78,0,0,0,2.28-.44,14.83,14.83,0,0,0,2.28-1,8.53,8.53,0,0,0,2.47-2,13,13,0,0,0,1.45-1.93,9.37,9.37,0,0,0,.91-2.28,1.45,1.45,0,0,0,.81-1c.65-3.21,1-6.47,1.42-9.71.17-1.41.27-2.83.4-4.24s.19-2.67.27-4c.22-3.2.27-6.42.36-9.62,0-1.56,0-3.14-.05-4.7,0-.77-.06-1.54-.1-2.31a27.19,27.19,0,0,0-.31-3.61,1.38,1.38,0,0,0-.19-.43c0-1.43,0-2.86,0-4.29Zm-9.32,25.13h0c0,.11,0,.23,0,.34a.77.77,0,0,1,0-.15c0-.06,0-.12,0-.18Zm2.2,3.71h0a.77.77,0,0,1,0,.15s0-.1,0-.15Zm2.22,10.94h0l0,.22,0-.22ZM352,211.37h0l0-.22v0l0,.17Zm0-.22h0a1.1,1.1,0,0,0,0-.18,1.1,1.1,0,0,1,0,.18Zm.13-1h0l0-.25,0,.25Z"/></g></g></svg>