<svg xmlns="http://www.w3.org/2000/svg" viewBox="0 0 445.81 214.98"><defs><style>.cls-1{fill:#fff;}</style></defs><g id="Layer_2" data-name="Layer 2"><g id="Draw_Layer" data-name="Draw Layer"><path class="cls-1" d="M88.83,0c-1.17,0-2.35.05-3.49.11l-.86,0a92.85,92.85,0,0,0-10.2.92A28.36,28.36,0,0,0,69,2.39,30.26,30.26,0,0,0,63.78,5c-2.89,1.75-5.71,3.58-8.38,5.42l-2.9,2.06-1.1.79c-1.44,1-2.9,1.9-4.14,2.63-1,.57-2,1.1-3,1.62l-1.11.58a27.47,27.47,0,0,0-3.89,2.57,39.11,39.11,0,0,0-3.85,3.52l-.15.14a35.9,35.9,0,0,0-3.59,4l-.69.91c-.62.82-1.26,1.67-1.84,2.54-.91,1.34-1.73,2.77-2.46,4s-1.47,2.69-2.07,3.87l-.16.32c-.67,1.31-1.36,2.67-2,4s-1.19,2.73-1.73,4.21c-.49,1.32-.88,2.67-1.25,4s-.82,2.8-1.23,4.19-.83,2.8-1.24,4.2-.73,2.62-1,4-.47,3.08-.65,5a37.48,37.48,0,0,0-.19,4.66c0,1.23.08,2.46.13,3.69l.05,1A3.12,3.12,0,0,0,18.3,82a10.55,10.55,0,0,0,1,1.4,9.85,9.85,0,0,0,1.35,1.38,10.48,10.48,0,0,0,2.81,1.66,23.9,23.9,0,0,0,6.82,1.32c.63.06,1.25.11,1.87.19s1.52.26,2.27.4A35,35,0,0,0,38,88.9a10.31,10.31,0,0,0,1.11,0,26,26,0,0,0,4-.4l.69-.11,1.43-.12c.6,0,1.2-.08,1.8-.16,1.21-.16,2.8-.39,4.39-.74a7.09,7.09,0,0,0,2.07-.8,5.24,5.24,0,0,0,1.87-2.09,8.49,8.49,0,0,0,.9-4c0-.28,0-.56,0-.84,0-.53,0-1.07,0-1.61a15.37,15.37,0,0,1,.67-2.17c.41-.9.87-1.79,1.32-2.65.27-.51.53-1,.79-1.54.81-1.64,1.63-3.29,2.43-4.95.34-.7.66-1.41,1-2.12.42-.9.83-1.81,1.28-2.7a26.68,26.68,0,0,1,2.41-4A44.9,44.9,0,0,1,71,53.27a6.63,6.63,0,0,1,.84-.5,22.86,22.86,0,0,1,4-.92,27.9,27.9,0,0,1,2.85-.19c.41,0,.82,0,1.23.05s.76.19,1.14.31c.2.11.4.22.59.34s.42.4.62.61a9.66,9.66,0,0,1,.67,1.15,27.55,27.55,0,0,1,1,3.81l.2,1c.21,1,.43,2.12.59,3.19a21.45,21.45,0,0,1,.1,3.95,18.47,18.47,0,0,1-.9,3A29.47,29.47,0,0,1,81,74.16c-2.49,3.22-5.14,6.65-7.7,10.15-1.09,1.37-2.28,2.69-3.42,4l-1.31,1.46c-.88,1-1.76,2-2.66,3s-2,2.09-3,3-2,2-3.05,2.94c-2.65,2.57-5.39,5.23-8.32,7.56-2.5,1.84-5.1,3.72-7.74,5.58-1.88,1.33-3.85,2.59-5.75,3.81l-1.64,1.06a36.61,36.61,0,0,0-7.64,6.57l-.3.34c-.85,1-1.73,2-2.67,2.9l-1.08,1.06c-.74.72-1.51,1.46-2.23,2.23s-1.59,1.77-2.35,2.65l-.47.56-1.42,1.58c-.56.61-1.13,1.23-1.67,1.87l-.17.2c-1.32,1.57-2.69,3.18-3.88,4.89a2.78,2.78,0,0,0-.6.1A3.29,3.29,0,0,0,10.1,143a9.57,9.57,0,0,0-1.22,2.51l-.06.17c-.16.45-.32.9-.49,1.34-.28.78-.56,1.57-.83,2.36-.43,1.26-1,2.93-1.45,4.64-.73,2.63-1.66,6.12-2.47,9.64a156.93,156.93,0,0,0-3,20c-.31,3.25-.4,6.51-.48,9.67v.35a58.32,58.32,0,0,0,.24,9.24,12.92,12.92,0,0,0,1.24,4,7.18,7.18,0,0,0,1.12,1.59c.24.26.45.49.7.73a15.57,15.57,0,0,0,1.5,1.18c.35.25.66.45,1,.65a3.78,3.78,0,0,0,.65,1.52A3.27,3.27,0,0,0,8.31,214a3.24,3.24,0,0,0,.82.11,3.14,3.14,0,0,0,1.56-.42l.09-.06a19.63,19.63,0,0,0,3.13.84,30.63,30.63,0,0,0,5.35.49h.9c1.44,0,2.72,0,3.9-.13l1.38-.1c1-.08,2.1-.16,3.15-.21,3.34-.16,6.74-.24,10-.31,3.81-.09,7-.27,10-.59,3.58-.38,7.13-.93,10.43-1.47s7-1.16,10.71-1.86c1.82-.34,3.64-.71,5.45-1.08,1.52-.32,3-.54,4.46-.74s2.78-.27,4.14-.35c1-.06,2-.12,3-.12H87a42.08,42.08,0,0,1,5.2.36l5,.88,4.79.85a101.76,101.76,0,0,0,10.15,1.13c1.92.12,3.49.18,4.94.18a42.5,42.5,0,0,0,4.54-.23c.7-.07,1.62-.18,2.52-.36a13,13,0,0,0,2.79-1l.34-.15c.94-.43,1.85-.95,2.72-1.45,1.32-.75,2.64-1.59,3.94-2.49,1.56-1.09,2.9-2.11,4.09-3.12.66-.55,1.28-1.14,1.91-1.72l.63-.57a8.42,8.42,0,0,0,3.07-3c.46-.52.87-1,1.24-1.49a22.28,22.28,0,0,0,3.31-6.42,29,29,0,0,0,1.08-5.69l.06-.48a25.31,25.31,0,0,0,.14-4.66,24.22,24.22,0,0,0-.84-5.19,14.86,14.86,0,0,0-.89-2.29l-.11-.25-.09-.21-.6-1.29v-.12h0a32.23,32.23,0,0,0-.43-5.43l-.09-.55a14.89,14.89,0,0,0-1.86-6.16,6.27,6.27,0,0,0-2.27-2.19,7.36,7.36,0,0,0-3.05-.74c-.46,0-.93,0-1.4,0H134c-5.1,0-10.2,0-15.3,0l-4,0-5.61,0h-1.07c-1.24,0-2.57,0-3.93.07a45.2,45.2,0,0,0-4.5.5l-.63.09-1.16.17-3.89.57c-1.5.24-3,.56-4.49.87l-.22.05c-1.22.26-2.43.55-3.65.85-1.78.43-3.63.87-5.47,1.21l-3.19.59a38.23,38.23,0,0,1-4.57.36c-1.94,0-3.85,0-5.74,0l1.21-1.84c1.21-1.89,2.54-3.88,4.32-6.48.61-.89,1.26-1.8,2-2.77a58.67,58.67,0,0,1,4.68-4.9l1.46-1.42,1.22-1.2c.72-.7,1.44-1.4,2.14-2.12,1.14-1.13,2.2-2.3,3.36-3.61a74.26,74.26,0,0,0,5.86-7.54c.49-.7,1-1.45,1.4-2.17.31-.5.62-1,.94-1.49.85-1.3,1.68-2.62,2.51-3.93.65-1,1.36-2,2-3l.37-.53c.89-1.26,1.78-2.52,2.66-3.8,1.49-2.15,3.07-4.28,4.6-6.35l.72-1a70.8,70.8,0,0,0,4.5-7c1.74-3,3.15-5.76,4.33-8.33.85-1.86,1.65-3.77,2.42-5.62l.15-.36c.86-2,1.86-3.9,2.82-5.77.39-.75.78-1.5,1.15-2.25.69-1.35,1.37-2.7,2.07-4,.5-1,1-1.91,1.56-2.85.27-.48.54-1,.8-1.43.74-1.34,1.38-2.75,2-4.07a31.15,31.15,0,0,0,1.82-4.95,37.42,37.42,0,0,0,1-9.55c0-3-.06-6.41-.3-9.8l0-.72c-.11-1.59-.23-3.23-.47-4.83a42.64,42.64,0,0,0-.94-4.71,44.48,44.48,0,0,0-1.39-4.29,28.55,28.55,0,0,0-1.2-2.7c-.25-.5-.56-1-.85-1.46L127.2,20l-.1-.17a24.08,24.08,0,0,0-3.32-4.5c-1.06-1.06-2.17-2.12-3.31-3.15s-2.35-2-4-3.22c-1.16-.86-2.41-1.62-3.62-2.36l-.26-.16a29.2,29.2,0,0,0-4.4-2.22c-1.52-.62-3.11-1.08-4.52-1.5l-1.44-.43A51.27,51.27,0,0,0,94.88.45,45,45,0,0,0,89.51,0ZM24.54,79.84a17.54,17.54,0,0,0,2.81-.25,24.26,24.26,0,0,0,2.82-.72l.29-.08a22.75,22.75,0,0,1,3.11-.67q1-.11,1.92-.18l.5,0c1.42.07,2.9.14,4.35.14,1.84,0,3.5,0,5.16.18,1.08.16,2,.32,2.81.49.5.11,1,.2,1.49.28l.21,0v.44c0,.53,0,1.06,0,1.58,0,.11-.06.23-.09.34a27.56,27.56,0,0,1-2.84.54q-.88.09-1.77.15l-1.23.1c-.79.07-1.6.2-2.38.32l-.75.12c-.61.06-1.21.09-1.79.09s-1,0-1.44-.06l-1.52-.29c-.85-.17-1.71-.35-2.58-.47s-2-.24-3-.35c-.72-.07-1.44-.15-2.15-.24a17.36,17.36,0,0,1-2.92-.71,6.8,6.8,0,0,1-.79-.46c-.13-.11-.25-.23-.37-.35Zm92.52,125.38c-1,0-1.92,0-2.88-.05-2.45-.08-5.08-.29-8.06-.65-1.54-.22-3.07-.45-4.61-.72-.78-.13-1.55-.28-2.32-.43l3.61-.07h.52c1.15,0,2.38.06,4,.19s3.35.26,5,.45c2,.24,3.61.41,5.11.53.73.06,1.46.09,2.23.09s1.29,0,2-.06c.88-.05,1.77-.14,2.65-.22l-.26.12a11.09,11.09,0,0,1-2.1.59,43.58,43.58,0,0,1-4.83.23ZM49.6,207.37l1.22-.25c.69-.07,1.39-.13,2.09-.17-.49.05-1,.13-1.45.19l-1.86.23Z"/><path class="cls-1" d="M122.1,191.81c-2,.11-4.11.16-6.16.33-1.23.1-2.46.26-3.68.44a10.08,10.08,0,0,0-4.27-.7,4.83,4.83,0,0,0-3.28,1.49,4.58,4.58,0,0,0-1,2.24,3.36,3.36,0,0,0-1.59.86,3.28,3.28,0,0,0-.88,1.62c-.46,0-.91,0-1.36,0-1.88.1-4.38.6-5.29,2.46a3.3,3.3,0,0,0-.31,2.37,3.24,3.24,0,0,0,1.42,1.83c1.53,1.06,3.4,1.2,5.19,1.41.89.11,1.79.15,2.68.2a17.81,17.81,0,0,0,4,.91c1.35.18,2.7.34,4.06.5.94.11,1.88.19,2.83.26l1,.05a7.14,7.14,0,0,0,2,.28,3.18,3.18,0,0,0,2.06-.81,3,3,0,0,0,1.86-2.8,4.15,4.15,0,0,0-1-2.89,5,5,0,0,0-.43-.37,3.22,3.22,0,0,0-.41-1.61c-.07-.12-.13-.25-.2-.38l-.23-.33a3.44,3.44,0,0,0,.31-1.12l2.77-.13a3.08,3.08,0,0,0,.13-6.15Z"/><path class="cls-1" d="M40,71.65l-4,.23a12,12,0,0,0-5.61,1.24,5.94,5.94,0,0,0-1.61,1.55,4.38,4.38,0,0,0-.35.57c-.38,0-.77-.07-1.16-.09a7.57,7.57,0,0,0-2.71.42,4.45,4.45,0,0,0-2.69,2.13,3.93,3.93,0,0,0,0,3.65,6,6,0,0,0,2.09,2.11,8.7,8.7,0,0,0,1.53.68c.49.2,1,.39,1.48.56a17.51,17.51,0,0,0,3.77.82l.32,0a5.51,5.51,0,0,0,.71-.08c.58.18,1.16.33,1.75.47s1.29.27,1.95.38a4.55,4.55,0,0,0,2,0,4,4,0,0,0,1.6-1,2.54,2.54,0,0,0,.28-.29c.2,0,.4,0,.6,0a3.45,3.45,0,0,0,1,1A9.57,9.57,0,0,0,44.92,87c.72.08,1.43.14,2.15.15a7.71,7.71,0,0,0,2.79-.4,4.15,4.15,0,0,0,1.59-.94l.12-.15a3.08,3.08,0,0,0,.79-1.35,3.34,3.34,0,0,0,0-2.05l.57-.5c1.06-1,2.46-2.08,2.37-3.65a3.15,3.15,0,0,0-.9-2.17A3.27,3.27,0,0,0,52.53,75a3.35,3.35,0,0,0-.39-.78,3.62,3.62,0,0,0-2-1.56,4.31,4.31,0,0,0-1.43-.12,2.89,2.89,0,0,0-1.23.26,6.3,6.3,0,0,0-1.21.56,11.13,11.13,0,0,0-1.14.8,12.51,12.51,0,0,1-1.63,1.09L43,75.4a3.11,3.11,0,0,0-2.85-3.76ZM33.8,76l0,.07h0l0-.07Z"/><path class="cls-1" d="M121.47,197.21a4.16,4.16,0,0,0-1.71,1,12.62,12.62,0,0,0-1.43,2,3.07,3.07,0,0,0,2.16,4.58,2.93,2.93,0,0,0,.4.46,3.65,3.65,0,0,0,1,.7l.73.31c.36.06.72.1,1.07.13a4.7,4.7,0,0,0,2.25-.65,3.89,3.89,0,0,0,1.87-2.28,3.37,3.37,0,0,0-.86-3.25,3.16,3.16,0,0,0-1.14-.72,5.31,5.31,0,0,0-.3-.64,3.31,3.31,0,0,0-2-1.56,6,6,0,0,0-1.14-.13,2.49,2.49,0,0,0-.81.12Z"/><path class="cls-1" d="M237.11,3.18l-1.21,0a14.78,14.78,0,0,0-3.16.44,19.81,19.81,0,0,0-2,.66,4.25,4.25,0,0,0-1.07.55L225.51,5c-1.5,0-3,.09-4.56.24-1.88.2-3.77.44-5.62.72a30,30,0,0,0-7.54,2.57l-1.11.5c-2.38,1-4.77,2.16-7.08,3.24l-1.76.83c-.45.21-.9.45-1.34.69l-.66.35-.43.22c-.51.26-1,.52-1.51.8l-1.07.6-1.66.92c-.53.3-1,.63-1.57,1L189,18c-1.16.73-2.31,1.52-3.41,2.29l-.72.49c-1.45,1-2.88,2.08-4.24,3.19a21.42,21.42,0,0,0-3.5,3.68,29.94,29.94,0,0,0-2.58,3.92,39,39,0,0,0-1.72,3.93l-.33.85c-.61,1.55-1.18,3.15-1.72,4.89s-1.15,3.69-1.71,5.54c-.42,1.36-.84,2.73-1.27,4.1L167.5,52c-.81,2.59-1.64,5.26-2.42,7.9-.13.46-.27.91-.41,1.37-.35,1.16-.71,2.35-1,3.54-.42,1.65-.81,3.33-1.19,5.13a129.31,129.31,0,0,0-2.09,20.27c0,.54,0,1.09,0,1.63v.82l0,.69c0,.52,0,1,0,1.55l0,1.66c0,1.15,0,2.33.13,3.48l.41,5.55c.09,1.18.23,2.38.37,3.54.06.57.13,1.13.19,1.7.19,1.78.36,3.56.53,5.34.14,1.43.28,2.86.43,4.29.34,3.35.79,6.81,1.33,10.29.31,1.95.65,3.9,1,5.85.22,1.27.44,2.53.65,3.8.27,1.58.52,3.15.76,4.73.28,1.75.56,3.49.85,5.24q.87,5.11,1.75,10.21c.29,1.7.58,3.4.9,5.09.15.86.33,1.71.52,2.56a19.06,19.06,0,0,0,1.19,3.29l.3.68.15.36a20.16,20.16,0,0,0,1.75,3.51,37.46,37.46,0,0,0,3.28,4.32c1,1.13,2.12,2.2,3.2,3.24l.29.28a44.27,44.27,0,0,0,3.61,3.1,31.25,31.25,0,0,0,4.77,3.12,46.68,46.68,0,0,0,6.82,2.87,44.54,44.54,0,0,0,6.3,1.57,48.4,48.4,0,0,0,7.62.8h.81a78.18,78.18,0,0,0,11-1l1.44-.2c1.2-.16,2.39-.33,3.58-.51,3-.45,6.49-1,9.93-1.61,3.68-.66,7-1.25,10.4-1.81,1.42-.23,2.84-.47,4.26-.73l1.3-.25,1.29-.24c.64-.13,1.29-.32,1.92-.5l.89-.26c1.44-.38,2.87-.86,4.2-1.33.82-.29,1.58-.56,2.32-.85l.32-.13,1.07-.43c.54-.23,1.06-.45,1.57-.7a10.43,10.43,0,0,0,1.86-1.25,40.5,40.5,0,0,0,3.85-3.67l.7-.74a22.52,22.52,0,0,0,3.63-5.07c.5-.94,1-1.92,1.41-2.87l.17-.35c.65-1.38,1.32-2.86,2.16-4.79s1.47-3.6,2.11-5.26A140.67,140.67,0,0,0,287,141.71c.68-3,1.35-6.13,2-9.64.3-1.51.64-3.21.9-4.9l.14-.92c.23-1.5.46-3,.65-4.5l.19-1.41c.36-2.83.75-5.76,1.08-8.64l.19-1.68c.33-2.79.66-5.67.82-8.51v-.26c.18-3.21.36-6.53.42-9.79l0-1.63c.05-2.73.1-5.46.12-8.2v-.92c0-1.44,0-2.88,0-4.31v-.54c0-1.42,0-2.89-.2-4.32-.34-3.24-.92-6.5-1.47-9.65l-.21-1.2c-.55-3.14-1.05-6.31-1.5-9.29l-.17-1.1c-.19-1.27-.39-2.58-.65-3.86-.16-.77-.34-1.55-.57-2.37l-.39-1.37c-.37-1.19-.84-2.34-1.37-3.6a63.89,63.89,0,0,0-4.65-9.2,85.44,85.44,0,0,0-5.1-7l-1-1.23-.51-.66-.51-.67-.06-.06h0L275,20l.14.21-.68-.93c-.74-1-1.51-2-2.3-2.94-.56-.68-1.12-1.35-1.71-2a19.74,19.74,0,0,0-4.43-3.47l-1-.63c-1-.62-2-1.24-3-1.88L261.52,8c-.45-.29-.9-.58-1.37-.85a17.8,17.8,0,0,0-3.56-1.51c-1.1-.35-2.22-.64-3.31-.92l-1-.26a30.84,30.84,0,0,0-4.85-.9c-2.89-.31-5.85-.33-8.71-.35l-1.59,0ZM219.78,136.4l-.53,0a27.39,27.39,0,0,1-4.45-1.22,13,13,0,0,1-1.86-1,20,20,0,0,1-2-2.07,30.12,30.12,0,0,1-2.31-4.3,39.43,39.43,0,0,1-1.34-4,32.07,32.07,0,0,1-.69-3.62l0-.24c-.19-2.34-.25-4.72-.3-7v-.31q-.11-4.4-.25-8.78c-.09-2.65-.07-5.17.06-7.7.07-1.47.16-2.94.27-4.42.08-1,.2-2.06.34-3.28l.09-.46c.14-.8.28-1.62.47-2.43.26-1.1.54-2.2.82-3.29a58.35,58.35,0,0,1,1.87-6,14.85,14.85,0,0,1,1.39-2.45,28.83,28.83,0,0,1,3.56-3.44,3.6,3.6,0,0,0,.66.3,7.84,7.84,0,0,0,.94.29c.25.07.5.14.75.23l.81.29.2.09c.65.28,1.29.57,1.92.88a19.16,19.16,0,0,1,1.95,1.15l.36.23c1.28.81,2.79,1.78,4.21,2.82A12.65,12.65,0,0,1,228,77.88a22.49,22.49,0,0,1,1.92,3.32,37.57,37.57,0,0,1,1.46,5.28c.12.56.25,1.12.38,1.68.55,2.32,1,4.73,1.36,7.16.24,1.87.47,3.7.66,5.52.13,1.12.24,2.17.34,3.21s.09,2,.09,3v.27c0,2-.09,4-.2,5.87-.14,2.47-.29,5-.58,7.51a22.64,22.64,0,0,1-1.07,4.18c-.14.39-.3.77-.45,1.16a36.41,36.41,0,0,1-3,5.32,8.44,8.44,0,0,1-.75.72,35.71,35.71,0,0,1-6.09,3.81,13.12,13.12,0,0,1-1.69.46l-.61,0Z"/><path class="cls-1" d="M396.38,16.44a31.85,31.85,0,0,0-6.29.86l-1.58.32a2.55,2.55,0,0,0-1,.48,6.66,6.66,0,0,0-2.32-.44h-.28a9.91,9.91,0,0,0-3.44.83l-.27.11c-.41.17-.84.34-1.24.54a10.16,10.16,0,0,0-2,1.35,24.29,24.29,0,0,0-3,3.1c-.5.6-1,1.19-1.51,1.78s-.82.95-1.22,1.43a36.92,36.92,0,0,0-2.86,4c-.78,1.24-1.6,2.57-2.33,4-1.52,2.91-2.79,5.9-4.07,9-.3.72-.61,1.44-.89,2.17-.19.47-.35,1-.51,1.44-.08.25-.16.5-.25.75l-1.68,4.81-.13.37c-.43,1.22-.87,2.48-1.26,3.74-.45,1.46-.86,3-1.28,4.93s-.73,3.63-1.07,5.4c-.26,1.39-.53,2.78-.81,4.16a86.69,86.69,0,0,1-2.33,8.66q-.8,2.48-1.62,4.94c-.43,1.31-.87,2.62-1.29,3.93l-.16.5c-.81,2.5-1.64,5.09-2.62,7.58-.87,2-1.77,4-2.67,6l-.61,1.35c-.76,1.69-1.4,3.2-2,4.62-.3.75-.57,1.53-.82,2.28l-.48,1.38c-2,5.65-4,10.85-6.14,15.88l-.49,1.16c-.63,1.48-1.26,3-1.86,4.45q-.57,1.44-1.11,2.88c-.27.7-.53,1.4-.8,2.09l-.78,2c-1.1,2.85-2.24,5.8-3.43,8.67-.76,1.78-1.56,3.55-2.36,5.32l-1.14,2.54c-.86,1.92-1.65,3.91-2.42,5.83-.41,1-.82,2.05-1.24,3.07l-.41,1c-.42,1-.85,2-1.24,3.07a17.34,17.34,0,0,0-1.15,3.88l-.05.34c-.08.55-.16,1.13-.19,1.69a9.49,9.49,0,0,0,0,1.07l0,.22a15.82,15.82,0,0,0,.25,1.72,10,10,0,0,0,.91,2.41l.05.12a20.55,20.55,0,0,0,2.7,4.25,7.55,7.55,0,0,0,1.5,1.31l.46.34c.38.3.78.58,1.18.85l1.85,1.23.51.34c1.59,1,3.16,2.08,4.78,3.08l.23.15c1.44.88,2.93,1.8,4.35,2.76s2.8,2,4,2.84l.57.47a20,20,0,0,0,1.62,1.26,11.71,11.71,0,0,0,2.35,1.17,8.59,8.59,0,0,0,2.29.49l.33,0a7,7,0,0,0,.93.06,10.79,10.79,0,0,0,3.28-.57,11.76,11.76,0,0,0,4.67-2.94,30.76,30.76,0,0,0,2.89-3.51l.39-.51c.36-.46.72-.94,1-1.43.94-1.48,1.85-2.94,2.71-4.44s1.71-3,2.42-4.41l1.12-2.18,1.12-2.17,1.31-2.5c1.1-2.1,2.24-4.28,3.28-6.46l.11-.23c1.44-3,2.93-6.18,4.23-9.34q1.15-2.79,2.28-5.59c.53-1.32,1.07-2.64,1.61-4l3.28-8.05.64-1.58c.55-1.36,1.09-2.74,1.62-4.11l.08-.21c.54-1.39,1-2.82,1.52-4.21l.08-.22q1.74-5,3.43-10l.54-1.63c.8-2.39,1.62-4.86,2.5-7.27,1.17-3.23,2.17-6.58,3.14-9.82.82-2.75,1.67-5.6,2.63-8.37q1.17-3.39,2.37-6.77l1-2.79c.35-1,.71-2,1.07-2.94.71-1.91,1.44-3.9,2-5.89.19-.66.39-1.33.58-2,.7-2.41,1.42-4.9,2.34-7.28.4-1,.83-2.08,1.25-3.12l.6-1.48c.59-1.47,1.1-3,1.58-4.43.42-1.24.85-2.47,1.28-3.69.59-1.69,1.19-3.43,1.75-5.15a79.6,79.6,0,0,0,2.27-9.3c.14-.73.24-1.49.33-2.22l.08-.6c.1-.75.2-1.52.25-2.29a18.68,18.68,0,0,0,0-3.1,12.11,12.11,0,0,0-1.42-4.55,32.81,32.81,0,0,0-2.52-4.17c-.22-.3-.44-.6-.65-.91s-.46-.65-.7-1-.65-.87-1-1.3a8.52,8.52,0,0,0-2.45-2c-.81-.46-1.69-.85-2.54-1.23l-.8-.36c-1-.44-1.8-.77-2.56-1a22.28,22.28,0,0,0-4.68-.93c-.51-.05-1-.08-1.58-.08Z"/><path class="cls-1" d="M324.24,14.21a14.22,14.22,0,0,0-4.4.64,15.67,15.67,0,0,0-9.26,9l-.3.73a3,3,0,0,0,0,1.64,3,3,0,0,0,.45,1l-.16.34,0,.1A29.35,29.35,0,0,0,308.7,35c-.26,1.8-.43,3.45-.5,5,0,.29,0,.58-.05.87,0,.61-.08,1.23-.08,1.84v2.46a25.38,25.38,0,0,0,.23,2.9l0,.19a14.8,14.8,0,0,0,.29,1.75,10.87,10.87,0,0,0,.81,2.1,16,16,0,0,0,3.91,5.06,25.06,25.06,0,0,0,5.92,3.9,10.68,10.68,0,0,0,3.66,1c.42,0,.84.06,1.25.06a16.87,16.87,0,0,0,2.06-.13,34.56,34.56,0,0,0,7-1.83l1.44-.52.81-.3a14.63,14.63,0,0,0,3-1.4,12.23,12.23,0,0,0,2.86-2.57A37.88,37.88,0,0,0,345.06,50a20.07,20.07,0,0,0,1.36-3.21,25.46,25.46,0,0,0,.84-3.28l.06-.3c.3-1.4.52-2.83.74-4.22l.12-.81a24.13,24.13,0,0,0,.34-3.15,16.43,16.43,0,0,0-.32-3.28l0-.18c-.13-.81-.34-1.62-.51-2.3a18.12,18.12,0,0,0-4.06-7.12A21.5,21.5,0,0,0,341,19.7a26.34,26.34,0,0,0-2.37-1.7,17.45,17.45,0,0,0-3.19-1.49,32.46,32.46,0,0,0-5-1.54,30.63,30.63,0,0,0-6.18-.76Z"/><path class="cls-1" d="M425.93,114.14a13.7,13.7,0,0,0-5,1,14.29,14.29,0,0,0-4.85,3.15,18.08,18.08,0,0,0-2.86,3.86l-.67,1.13c-.31.51-.61,1-.9,1.54a20.07,20.07,0,0,0-1.65,1.45,17.39,17.39,0,0,0-2.73,3.75,15.55,15.55,0,0,0-1.78,4.83,14.25,14.25,0,0,0-.29,2.71,14.92,14.92,0,0,0,.71,4.12,42.2,42.2,0,0,0,2,5,26.91,26.91,0,0,0,2.36,4c1,1.44,2.1,2.88,3.28,4.26a18.6,18.6,0,0,0,1.47,1.52,15.86,15.86,0,0,0,4,2.94,21.44,21.44,0,0,0,6.78,1.85c.86.1,1.89.2,2.94.22h.11a10.45,10.45,0,0,0,3.58-.69,20.19,20.19,0,0,0,5.54-3.5,22.26,22.26,0,0,0,4.55-5.19,17.65,17.65,0,0,0,2.3-6.22,31.09,31.09,0,0,0,.47-3.12c.17-1.68.31-3.4.42-5.11.08-1.32.17-2.88.16-4.42a36.22,36.22,0,0,0-.39-5.39,12.59,12.59,0,0,0-1.91-4.83c-.39-.6-.81-1.17-1.29-1.81l-1.07-1.41a10.58,10.58,0,0,0-2-2,19,19,0,0,0-6.66-2.69,41.61,41.61,0,0,0-5.28-1,11.4,11.4,0,0,0-1.29-.07Z"/></g></g></svg>