<svg xmlns="http://www.w3.org/2000/svg" viewBox="0 0 558.62 241.85"><defs><style>.cls-1{fill:#fff;}</style></defs><g id="Layer_2" data-name="Layer 2"><g id="Draw_Layer" data-name="Draw Layer"><path class="cls-1" d="M74,0a40.24,40.24,0,0,0-9,1.05,33,33,0,0,0-9.53,4.26,23.05,23.05,0,0,0-5.2,4.21c-.34.38-.66.78-1,1.18l-.6.73c-.59.71-1.22,1.39-1.85,2.08-1,1.09-2.12,2.1-3.21,3.08l-.83.76-.53.48c-1.09,1-2.22,2-3.28,3.08-2.8,2.79-5.27,5.44-7.54,8.09-2.57,3-4.9,5.7-7.38,8.25l-1.19,1.21-1.19,1.22c-.46.48-1,.93-1.49,1.36l-.68.58c-1,.87-2,1.71-3,2.52l-1.23,1c-1.11.91-2.2,1.88-3.26,2.82l-.85.76c-.75.66-1.51,1.31-2.27,2L7,52.41,4.59,54.49c-.22.2-.44.42-.65.63l-.35.34a17.21,17.21,0,0,0-1.47,1.61,8.38,8.38,0,0,0-.87,1.22c-.17.4-.34.8-.5,1.2a7.14,7.14,0,0,0-.29,1l-.05.23A18.47,18.47,0,0,0,0,63.29,7.74,7.74,0,0,0,.06,65,3.6,3.6,0,0,0,.3,66.26c.16.4.33.79.51,1.18A7.43,7.43,0,0,0,2.05,69.2c.29.31.58.59.89.89s.47.43.72.65l.4.36,1.71,1.52q1.4,1.22,2.76,2.46a32.16,32.16,0,0,1,3.55,4c2.29,3.14,4.27,6.55,6.2,9.84l.11.2a3.55,3.55,0,0,0,3.06,1.73h.14a3.54,3.54,0,0,0,3.17,1.93,3.8,3.8,0,0,0,.89-.11A9.67,9.67,0,0,0,28.75,91c.32-.23.64-.45,1-.65.81-.52,1.62-1,2.42-1.58a62.93,62.93,0,0,0,5.7-4.43A30,30,0,0,0,42,79.56l.26-.34c.68-.89,1.33-1.83,2-2.73s1.18-1.68,1.8-2.51c.92-1.16,1.7-2.1,2.44-2.94a21.69,21.69,0,0,1,2.69-2.53A17.11,17.11,0,0,1,53.93,67a28.1,28.1,0,0,1,5.58-1.53l.63,0q.06,1.21.09,2.46c0,.73.05,1.47.09,2.21.1,1.72.25,3.39.44,5l.29,2.42.29,2.43c.23,1.91.51,3.74.85,5.95A36.19,36.19,0,0,1,62.33,92c-.16,2.51-.35,4.88-.6,7.22-.17,1.22-.35,2.43-.53,3.64-.26,1.82-.53,3.64-.78,5.46l0-.21c-.23,1.39-.46,2.77-.68,4.16l-.37,2.3c-.24,1.56-.44,3.15-.64,4.69l-.17,1.35c-.25,1.79-.48,3.59-.72,5.39l-.15,1.19c-.56,4.11-1,8.31-1.49,12.37-.33,2.89-.66,5.78-1,8.67-.23,1.55-.51,3.37-.85,5.18s-.79,3.75-1.18,5.42c-.17.69-.33,1.37-.5,2.06-.7,2.88-1.43,5.87-1.86,8.86a97.23,97.23,0,0,0-1,11.14c-.14,4.32-.34,7.92-.63,11.32-.06.75-.14,1.49-.23,2.24-.11.92-.22,1.87-.28,2.81-.13,2-.19,3.92-.24,5.74s-.14,3.56-.23,5.34a48.79,48.79,0,0,0,.06,5.61c.13,2.07.31,4.23.54,6.44a32.24,32.24,0,0,0,1,5.42,20.21,20.21,0,0,0,1.12,2.9,10.66,10.66,0,0,0,1.34,2l.26.33a8.36,8.36,0,0,0,1.63,1.43l.33.25.91.66a10.55,10.55,0,0,0,1.82,1l.43.21c1.3.61,2.71,1.35,4.3,2.26a33.49,33.49,0,0,0,4.89,2.38,17,17,0,0,0,2.39.78c1.16.25,2.3.41,3.67.58a13.63,13.63,0,0,0,1.85.11,35.23,35.23,0,0,0,5.14-.5l.56-.08a13.92,13.92,0,0,0,3.36-.87,10.66,10.66,0,0,0,4.55-3.06,19.32,19.32,0,0,0,3-6,47,47,0,0,0,1.29-4.86,96.08,96.08,0,0,0,1.59-11.17c.31-3.16.65-6.91.85-10.69.08-1.62.18-3.23.28-4.85.14-2.2.27-4.4.37-6.61s.26-4.53.42-6.74c.12-1.52.23-3.05.32-4.57.18-3.07.48-6.17.77-9.17l.17-1.76c.92-9.69,1.89-18.37,2.94-26.55.22-1.57.43-3.13.64-4.7.58-4.25,1.18-8.77,1.66-13.23l.34-3.19c.33-3.14.67-6.38,1.07-9.56.57-3.81,1.21-7.67,1.82-11.4.53-3.2,1.06-6.41,1.55-9.62.62-4,1-8.17,1.32-11.67.22-2.45.45-4.91.69-7.36l.33-3.4c.16-1.68.28-3.37.41-5.06.13-1.88.28-3.82.47-5.72l0-.56c.17-1.61.33-3.28.41-4.94s0-3.41-.06-5.28c-.17-4-.44-7.73-.84-11.42l-.18-1.72c-.13-1.3-.26-2.64-.46-4-.31-2-.67-3.92-1-5.71-.21-1.14-.42-2.29-.62-3.43-.4-2.25-.82-4.58-1.32-6.86a47,47,0,0,0-1.39-5.17,17.16,17.16,0,0,0-1.62-3.66,8.2,8.2,0,0,0-2.48-2.46A13,13,0,0,0,98.3,1.87a15.16,15.16,0,0,0-2.46-.55A32.08,32.08,0,0,0,92.36,1l-1.29,0H88.84q-.7,0-1.41,0C86.35.88,85.24.77,84.18.67,83.49.6,82.81.53,82.12.48c-1-.08-2-.14-3-.21L76.81.11C75.89,0,75,0,74,0ZM67.47,108.09h0v0s0,0,0,0h0l-.14.82.14-.82h0v0h0Z"/><path class="cls-1" d="M185.08,4.89a19.72,19.72,0,0,0-2.52.14c-.92.12-1.84.26-2.75.39l-1.48.22-1.78.23-3.77.49a39.89,39.89,0,0,0-5.32,1.24c-.7.2-1.39.39-2.09.57-1.71.45-3.47.83-5.18,1.19s-3.55.77-5.31,1.23a40.44,40.44,0,0,0-4.94,1.8l-.12.06a40.14,40.14,0,0,0-5.18,2.47,21.15,21.15,0,0,0-4.71,3.58A12.86,12.86,0,0,0,138.75,20l-.18.23A24,24,0,0,0,136.78,23a36,36,0,0,0-2.9,7.71,93.81,93.81,0,0,0-2.34,12.46q-.15,1.26-.33,2.52c-.37,2.85-.77,5.8-.94,8.71-.2,3.31-.41,7.24-.47,11.26q-.09,6.32-.19,12.63v.19c0,2.61-.13,5.26-.21,7.83l-.1,3.06c-.06,1.95-.09,3.9-.12,5.85,0,1.61,0,3.25,0,4.83l0,1c0,1.44,0,2.87.07,4.31l0,1.43c0,1.33,0,2.68,0,4,0,.56,0,1.12,0,1.68,0,3.81-.23,7.54-.4,11-.1,1.81-.24,3.64-.38,5.42s-.29,3.82-.38,5.73L128,137.6q-.2,4.34-.43,8.69c-.18,3.32-.11,6.7,0,10l0,.57c.07,3.92.12,7.83.16,11.75s0,7.55,0,11.33c0,.95,0,1.9,0,2.85,0,2.52,0,5.13.1,7.69a48.42,48.42,0,0,0,.7,6,44.42,44.42,0,0,0,1.17,4.47l.18.59c.81,2.74,1.84,5.46,2.84,8.1l.7,1.87.49,1.31a39.5,39.5,0,0,0,4.26,9.1,19.75,19.75,0,0,0,4.83,5,33.62,33.62,0,0,0,4.55,2.51l.16.07c1,.49,2,1,3.05,1.43l1.78.83.46.21a35.16,35.16,0,0,0,6.36,2.5,33,33,0,0,0,3.37.58l.68.09c1.19.17,2.35.26,3.65.36s2.43.12,4,.12l2.88,0a65,65,0,0,0,11.06-1.42,36.89,36.89,0,0,0,5.73-1.62c1-.36,2-.75,2.93-1.13l.72-.29c1.85-.73,3.66-1.53,5.35-2.28a27.19,27.19,0,0,0,5.81-3.95c.78-.65,1.54-1.32,2.31-2l.62-.55c1.15-1,2.5-2.21,3.84-3.51,1-.93,2-1.94,3-3A48,48,0,0,0,218.8,211c1.29-1.86,2.32-3.42,3.25-4.91.7-1.11,1.32-2.31,1.91-3.47l.51-1a96.91,96.91,0,0,0,4.87-10.89c1.36-3.64,2.58-7.37,3.82-11.19l.3-.92c1.07-3.29,2.18-6.69,3.21-10,1-3.19,1.76-6.5,2.51-9.7l.33-1.39c.29-1.23.53-2.5.76-3.73.12-.63.24-1.26.37-1.89.26-1.27.49-2.55.72-3.82l.35-1.89c.61-3.3,1.18-6.88,1.77-11.29a82.12,82.12,0,0,0,.93-11.28c0-3.85-.09-7.75-.16-11.53-.07-3.62-.35-7.26-.62-10.79l0-.72c-.26-3.46-.56-7.18-1-10.88-.2-1.79-.41-3.62-.53-5.43-.05-.85-.09-1.7-.13-2.55s-.1-1.87-.16-2.8c-.12-2-.26-4-.39-5.92-.08-1-.18-2.08-.29-3.11-.07-.71-.14-1.41-.2-2.11-.29-3.3-.66-6.65-1-9.89l-.13-1.19c-.25-2.21-.64-4.44-1-6.6-.27-1.57-.56-3.19-.79-4.79-.18-1.23-.34-2.46-.51-3.69l-.2-1.44c-.11-.87-.25-1.75-.39-2.62l0-.24a16.79,16.79,0,0,0-.45-2.22,35.79,35.79,0,0,0-1.82-4.58c-.18-.39-.36-.77-.53-1.16-.6-1.37-1.21-2.73-1.8-4.1-.22-.54-.43-1.1-.64-1.65a32.19,32.19,0,0,0-1.76-4.05,17.11,17.11,0,0,0-4-4.44l-.1-.09c-.7-.61-1.64-1.41-2.66-2.15a14.7,14.7,0,0,0-5.69-2.16,23.8,23.8,0,0,0-2.68-.45,5.37,5.37,0,0,0-1.1-.54l-.22-.08c-1.16-.42-2.35-.86-3.54-1.24-.9-.29-1.79-.57-2.69-.83a30.82,30.82,0,0,0-3.93-.76c-2.94-.43-5.61-.79-8.18-1.09-2.16-.27-4.61-.57-7-.73-.9-.06-1.87-.11-2.85-.11Zm-7.69,130.19-.71,0a10.24,10.24,0,0,1-1.12-.3,8.63,8.63,0,0,1-1.11-.65l-.29-.28a15.92,15.92,0,0,1-.83-1.65c-.75-1.84-1.36-3.53-1.87-5.17a37.39,37.39,0,0,1-1.2-5.7c-.45-3.63-.7-6.41-.81-9,0-1.33-.11-3.09-.06-4.84l.05-1.39,0-1.39c0-.59.09-1.19.15-1.78l.06-.54a42.08,42.08,0,0,1,2-7c.6-1.69,1.22-3.35,1.85-4.92a16.4,16.4,0,0,1,1.06-1.93c.75-.91,1.56-1.79,2.36-2.65l.92-1c1.43-1.57,3-3.09,4.28-4.37a3.72,3.72,0,0,0,.56-.73l.28-.08.23,0,.26.15a29.24,29.24,0,0,1,2.43,2.42l.49.53c.59.64,1.17,1.27,1.73,1.94a18.9,18.9,0,0,1,1.6,2.84,15.89,15.89,0,0,1,.82,3.12c.17,1.44.27,2.85.32,4.29s0,2.94,0,4.38l0,1c-.08,3.69-.3,6.92-.65,9.87-.36,2.38-.82,4.89-1.49,8.16a43.79,43.79,0,0,1-2.28,7.47,33.79,33.79,0,0,1-3.07,5.61,17.73,17.73,0,0,1-1.85,2,18.24,18.24,0,0,1-2.35,1.28,10.14,10.14,0,0,1-1.25.39Z"/><path class="cls-1" d="M309.9,1.52c-.51,0-1,0-1.54.06a15.86,15.86,0,0,0-2.75.4A29.38,29.38,0,0,0,301,3.61c-.66.29-1.3.61-1.94,1a13,13,0,0,0-1.51,1l-.35.27c-.92.68-1.82,1.4-2.72,2.12l-1.59,1.26-1.27,1L290,11.51l-2.12,1.61L286,14.53A27.83,27.83,0,0,0,282,18.26a19.06,19.06,0,0,0-3.15,4.84c-.73,1.64-1.43,3.42-2.2,5.6-.44,1.25-.81,2.56-1.17,3.83-.15.54-.3,1.08-.46,1.61-.4,1.36-.86,2.73-1.3,4.06l-.4,1.21-.45,1.35c-1,3.06-2.06,6.23-3,9.37-.75,2.6-1.53,5.3-2.19,8a76.57,76.57,0,0,0-1.51,8.54c-.2,1.56-.36,3.11-.53,4.67-.1,1-.2,1.95-.31,2.92-.27,2.32-.56,4.64-.85,7s-.69,4.45-1.05,6.68l-.63,3.92c-.73,4.69-1.22,8.28-1.57,11.66-.32,3.1-.72,7-.89,10.68-.18,4.27-.31,8.22-.38,12.08A172.74,172.74,0,0,0,261.29,148c.38,3.5.83,7.27,1.36,11.52.23,1.85.5,4,.82,6.1.23,1.48.57,3,.9,4.39l.23,1c.32,1.38.57,2.79.81,4.17l.24,1.33.4,2.14c.19,1,.38,2,.56,3.07.29,1.6.63,3.22.95,4.79.38,1.82.77,3.7,1.09,5.57.18,1.12.35,2.25.51,3.38.34,2.32.68,4.73,1.26,7a46.7,46.7,0,0,0,1.56,4.85c.4,1.08.76,2.18,1.12,3.28.21.64.42,1.28.64,1.92.44,1.29.95,2.58,1.43,3.83l.52,1.33c.3.79.68,1.56,1,2.31l.37.79a34.69,34.69,0,0,0,2.57,4.7,21.38,21.38,0,0,0,4.45,4.9,22.5,22.5,0,0,0,2.74,1.86,23.73,23.73,0,0,0,2.81,1.3c.62.26,1.19.49,1.78.71a25.42,25.42,0,0,0,3.9,1c1.67.32,3.39.51,5.06.68l.51.06a49.64,49.64,0,0,0,5.24.25c2.06,0,4.16-.09,6.11-.2,3-.17,6.08-.49,9-.8l1.67-.18c3.47-.36,7.22-.8,11.45-1.35a74.48,74.48,0,0,0,11.35-2.32,37.82,37.82,0,0,0,4-1.45,25.56,25.56,0,0,0,6.56-4.23c.68-.57,1.35-1.17,2-1.76l.88-.78c1.59-1.4,3.13-2.78,4.55-4.28,4-4.21,6.86-9.37,9.64-14.36l.78-1.37c.93-1.66,1.84-3.33,2.75-5a37.16,37.16,0,0,0,1.8-3.74,33.61,33.61,0,0,0,1.51-5.28c.38-1.67.81-3.62,1.13-5.57q.22-1.35.42-2.7l.09-.64.11-.74.05-.34,0-.18a2.37,2.37,0,0,0,.09-.65,3.11,3.11,0,0,0,.09-.6,4.81,4.81,0,0,0,.08-.65,3.55,3.55,0,0,0,.09-.72l.18-1.31c.39-2.79.8-5.67,1.25-8.5a90.29,90.29,0,0,0,.94-12,160.8,160.8,0,0,0-1.18-22.34l-.32-2.75c-.34-2.93-.68-5.85-1-8.78-.09-.85-.17-1.7-.26-2.56s-.16-1.71-.25-2.56l-.07-.68c-.17-1.56-.35-3.17-.46-4.76-.28-4.09-.44-7.82-.49-11.39-.07-4.09-.2-8.14-.4-12s-.46-7.9-.7-11.75c-.22-3.42-.44-6.85-.63-10.27-.2-3.79-.74-7.62-1.28-11.22l-.2-1.41c-.21-1.41-.42-2.82-.64-4.23-.13-.87-.27-1.76-.42-2.64a20.64,20.64,0,0,0-1.05-4,20.39,20.39,0,0,0-2.9-5.06c-1.07-1.42-2.29-2.89-3.81-4.61a32.08,32.08,0,0,0-2.5-2.45L365.13,28,364,27c-.73-.71-1.46-1.41-2.21-2.09l-1.58-1.43c-2-1.79-4-3.65-6.08-5.4a38.13,38.13,0,0,0-4.81-3.36L344.93,12a27.65,27.65,0,0,0-2.61-1.45c-1-.48-2-.89-3-1.29L339,9.13c-1.78-.7-3.79-1.49-5.78-2.13a39.63,39.63,0,0,0-6-1.22l-.45-.07-.17,0-.17,0a5.32,5.32,0,0,0-.69-.3l-1.55-.58c-.95-.35-1.9-.7-2.86-1-1.17-.4-2.39-.71-3.57-1l-.62-.16a31,31,0,0,0-6.72-1.06Zm10.18,133.85h-.47a20.87,20.87,0,0,1-3-.88,7.58,7.58,0,0,1-.74-.4,14.73,14.73,0,0,1-1.41-1.49,26.36,26.36,0,0,1-2.26-4.3l-.32-.69c-.51-1.12-1-2.24-1.5-3.37a50.78,50.78,0,0,1-2.19-6.86c-.74-3.06-1.31-5.64-1.7-8.27-.21-1.72-.35-3.48-.4-5.23a45.85,45.85,0,0,1,.3-6.18l.06-.46a25.8,25.8,0,0,1,1-4.93l.09-.16a24.12,24.12,0,0,1,3.31-3l1.22-.92a5.29,5.29,0,0,0,.94.15c.32,0,.65,0,1,0h.85l.89,0h.2c.6,0,1.19,0,1.78.1a14.82,14.82,0,0,1,2.23.56,8.56,8.56,0,0,1,1.06.61,16,16,0,0,1,1.42,1.57,38.84,38.84,0,0,1,4.62,7.42c.31.81.59,1.59.83,2.38a19.22,19.22,0,0,1,.61,2.82,76.07,76.07,0,0,1,.09,9.34c-.1,3.11-.37,6.26-.64,9.21-.14.9-.3,1.94-.52,2.95a26.7,26.7,0,0,1-1.16,3.87,31.07,31.07,0,0,1-2.2,4,15,15,0,0,1-1.43,1.44,5.08,5.08,0,0,1-.43.27,11.63,11.63,0,0,1-1.37.36c-.26,0-.51,0-.77,0Z"/><path class="cls-1" d="M434.68,39.18a3.34,3.34,0,0,0-1.74.47c-4.86,2.91-9.38,5.92-11.29,10.8a22.39,22.39,0,0,0-1.11,4.74A42.72,42.72,0,0,0,420,61a59.91,59.91,0,0,0,.36,6.58l.11,1.26A85.88,85.88,0,0,0,422,79.88a26,26,0,0,0,1.87,5.29l.37.8a29.88,29.88,0,0,0,1.54,3,12.26,12.26,0,0,0,2.35,2.78,20.65,20.65,0,0,0,3.09,2.12,32.43,32.43,0,0,0,3.19,1.53c.65.28,1.27.52,1.9.74a9.06,9.06,0,0,0,2.73.43h.2a12.27,12.27,0,0,0,2-.24,14.54,14.54,0,0,0,1.73-.42,30.08,30.08,0,0,0,3.61-1.41c1.28-.57,2.56-1.19,3.8-1.79l.63-.31a40.58,40.58,0,0,0,4.53-2.6,18,18,0,0,0,5.33-5.59c.43-.7.79-1.42,1.19-2.23.18-.38.35-.76.53-1.15l.17-.38c.28-.64.53-1.27.74-1.89A13.62,13.62,0,0,0,464,76a26.65,26.65,0,0,0-.27-7.28l0-.25c-.14-1-.3-2.12-.52-3.15a39.27,39.27,0,0,0-1.54-5.43A27.48,27.48,0,0,0,459,54.79c-.38-.58-.8-1.15-1.22-1.69l-.27-.35a26.83,26.83,0,0,0-2.09-2.56A42.18,42.18,0,0,0,448.93,45l-.21-.15-.56-.4a20.58,20.58,0,0,0-2.51-1.61,28.49,28.49,0,0,0-5-2,3.2,3.2,0,0,0-.92-.13,3.46,3.46,0,0,0-1.85.54,2.1,2.1,0,0,0-.18-.37,3.55,3.55,0,0,0-3.06-1.73Z"/><path class="cls-1" d="M511.47,16.46q-.44,0-.87,0a26.85,26.85,0,0,0-3.25.48,12.36,12.36,0,0,0-2.65,1,13.36,13.36,0,0,0-1.76,1A19.84,19.84,0,0,0,500,21.48a24.77,24.77,0,0,0-3.22,3.83A54.93,54.93,0,0,0,494,30.16l-.22.4c-.87,1.59-1.78,3.33-2.87,5.47-.84,1.65-1.64,3.31-2.44,5l-.09.19c-.72,1.5-1.39,3-2,4.53l-.28.64c-1.41,3.26-2.77,6.61-4.1,9.85q-.93,2.28-1.87,4.58c-1.34,2.88-2.75,5.79-4.11,8.6-1.69,3.47-3.43,7.07-5.05,10.64-1.87,4.16-3.55,8.48-5.18,12.66-.94,2.41-1.88,4.82-2.86,7.22l-.4.94-.4,1c-2.1,4.81-4.09,9.58-5.93,14.2-1.64,3.84-3.05,7-4.45,9.9-.74,1.54-1.5,3.08-2.26,4.62s-1.63,3.32-2.43,5q-1.73,3.58-3.43,7.16-3.24,6.8-6.51,13.55c-2.37,4.88-4.91,10.1-7.33,15.3-1.77,3.77-3.39,7.68-4.95,11.47-.42,1-.83,2-1.25,3-1.48,3.39-3.08,6.83-4.48,9.87-1,2.14-1.83,4-2.57,5.8a41.53,41.53,0,0,0-1.75,4.78c-1.1,3.87-2,8-1.47,12.13a20.62,20.62,0,0,0,.48,2.54,20.87,20.87,0,0,0,1.15,3l.05.09a15.86,15.86,0,0,0,3.65,4.66l.47.48c1.29,1.29,2.58,2.53,3.85,3.68,1,.95,2.16,1.85,3.25,2.73l.78.63a30.82,30.82,0,0,0,2.75,2.07,21.86,21.86,0,0,0,2.48,1.35c1,.49,2.08.89,3.08,1.27a11.7,11.7,0,0,0,3.37.77h.46a11.85,11.85,0,0,0,3.74-.67,19.67,19.67,0,0,0,3.62-1.79c.81-.48,1.59-1,2.32-1.52,1-.69,1.92-1.38,2.82-2.11a38.47,38.47,0,0,0,3.81-3.42,46.88,46.88,0,0,0,3.37-3.9c1.21-1.59,2.3-3.26,3.29-4.83l.82-1.31c.76-1.2,1.52-2.41,2.29-3.6l.41-.62c1.91-2.92,3.88-6,5.87-8.89l1.56-2.28c.62-.9,1.23-1.79,1.84-2.7.34-.51.64-1.06.93-1.6l.45-.82.18-.32c.31-.55.62-1.09.9-1.65,1.22-2.43,2.42-4.87,3.63-7.3,2.22-4.5,4.53-9.16,6.86-13.7.86-1.68,1.73-3.36,2.62-5l1.26-2.38.35-.64c.26-.49.53-1,.76-1.48,1.34-2.94,2.61-6,3.85-8.87l.95-2.24c.71-1.65,1.39-3.29,2.07-4.94l.3-.73.41-1c.52-1.24,1-2.48,1.52-3.74,1.47-3.82,2.91-7.65,4.35-11.49q1.86-5,3.7-10l.38-1c1.12-3,2.28-6.15,3.26-9.29q1-3.33,2.05-6.65c1.47-4.82,3-9.8,4.59-14.68.58-1.79,1.23-3.59,1.86-5.33.55-1.53,1.1-3.06,1.61-4.61l.27-.79c1.05-3.17,2.15-6.44,3.29-9.63,1.09-3,2.3-6,3.47-8.95l.39-1c.56-1.4,1.09-2.81,1.62-4.22.64-1.7,1.3-3.46,2-5.17.36-.82.72-1.64,1.07-2.46.89-2,1.8-4.11,2.61-6.2l.4-1a40.82,40.82,0,0,0,2.34-7.19,24.18,24.18,0,0,0,.44-3.35,10.47,10.47,0,0,0-1.62-5.7,15.11,15.11,0,0,0-3.38-4,45.82,45.82,0,0,0-5.76-4,3.54,3.54,0,0,0-.93-1.69,3.68,3.68,0,0,0-2.48-1l-1.54-.15c-1.64-.14-3.28-.29-4.92-.48-1.49-.2-3-.4-4.46-.65l-.71-.13a24.76,24.76,0,0,0-4.29-.51ZM468.67,104l0,0-.5,1.11.46-1h0Z"/><path class="cls-1" d="M528.2,153.91a6.46,6.46,0,0,0-2.32.45,7.8,7.8,0,0,0-1.48.71,8.17,8.17,0,0,0-1.45,1.25,26.36,26.36,0,0,0-2.42,3.13l-.23.32a24.52,24.52,0,0,0-1.49,2.52l-.18.34a28.66,28.66,0,0,0-1.48,3.3l-.19.47c-.53,1.3-1.05,2.71-1.59,4.31a77.37,77.37,0,0,0-2.3,9.66l0,.12a38.32,38.32,0,0,0-.7,5.79,32.06,32.06,0,0,0,.16,4c.15,1.68.34,3.14.58,4.46a17.41,17.41,0,0,0,1.29,3.74,9.39,9.39,0,0,0,2.29,3.13c2,1.83,4.62,2.66,7.6,3.49a28.5,28.5,0,0,0,7.29.95h.18a28.22,28.22,0,0,0,7.75-1c1.8-.5,3.55-1.15,5.34-1.83a16.44,16.44,0,0,0,7-4.57c2.46-3,3.59-6.7,4.69-10.32l.1-.33c.23-.78.46-1.55.67-2.34l.16-.61.23-.84a32.63,32.63,0,0,0,.73-11.34,14.21,14.21,0,0,0-2.56-7.25,18.47,18.47,0,0,0-5.23-5c-1.08-.63-2.22-1.19-3.31-1.73-.43-.21-.87-.42-1.29-.64-1.06-.53-2.09-1.13-3.08-1.71l-1.79-1a3.65,3.65,0,0,0-1.77-.46,3.51,3.51,0,0,0-2.83,1.42l-.2-.09c-.83-.37-1.67-.73-2.51-1.06l-.71-.28-.72-.28a14.4,14.4,0,0,0-3.7-.81,4.43,4.43,0,0,0-.52,0Z"/></g></g></svg>