<svg xmlns="http://www.w3.org/2000/svg" viewBox="0 0 478.07 209.63"><defs><style>.cls-1{fill:#fff;}</style></defs><g id="Layer_2" data-name="Layer 2"><g id="Draw_Layer" data-name="Draw Layer"><path class="cls-1" d="M237.93,0a3.22,3.22,0,0,0-.93.13l-3.7.55c-2.22.33-4.45.66-6.67,1a29.86,29.86,0,0,0-8.75,2.44c-.48.24-1,.51-1.41.79L214.1,5,211,5.12a52,52,0,0,0-11.58,2l-2.28.61a64.81,64.81,0,0,0-8.59,2.72A30.52,30.52,0,0,0,183.79,13,25.74,25.74,0,0,0,181,15.2,19.14,19.14,0,0,0,179,17.3l-.33.4a81.44,81.44,0,0,0-6.52,9.2,65.25,65.25,0,0,0-5.06,9.85,61.64,61.64,0,0,0-3,10.46c-.65,3.07-1.31,6.41-2.07,10.52-.43,2.29-.9,4.58-1.36,6.87-.33,1.59-.65,3.19-1,4.78-.7,3.59-1.36,7.3-2,11-.33,2-.62,4.08-.91,6.13l-.19,1.27c-.2,1.41-.42,2.87-.58,4.3-.47,4.14-.8,7.61-.93,11.13s-.23,7.49-.29,12.3l0,1.08c-.09,6.88-.19,14,.18,21a79.9,79.9,0,0,0,1.38,11.48,42.91,42.91,0,0,0,1.24,5.07c.54,1.66,1.16,3.4,2,5.48s1.65,3.87,2.43,5.46c.36.74.74,1.48,1.13,2.22s.83,1.58,1.22,2.39l.39.83c.64,1.32,1.29,2.7,2,4a29.69,29.69,0,0,0,4.48,6.07,90.89,90.89,0,0,0,8.64,7.61c1.62,1.28,3.1,2.4,4.51,3.43l.83.61c1.24.9,2.51,1.83,3.82,2.67.6.38,1.3.82,2,1.19a18.24,18.24,0,0,0,3.33,1.25,38,38,0,0,0,5.5,1c2,.25,4,.4,6,.55.6,0,1.21,0,1.82,0h3.55c1.95,0,3.87-.06,5.71-.16a83,83,0,0,0,11.71-1.34c1.79-.36,3.58-.88,5.31-1.39a39.19,39.19,0,0,0,4.95-2l.76-.33c3-1.33,5.93-2.83,8.78-4.29l.66-.34.79-.41q2-1,4-2c.77-.39,1.41-.72,2.05-1.1a26.46,26.46,0,0,0,3-2.22l.28-.21c.87-.7,1.71-1.38,2.47-2.11a44.69,44.69,0,0,0,7.28-9,67.74,67.74,0,0,0,5.27-10.61,80.65,80.65,0,0,0,3.52-10.76c.86-3.75,1.58-7.43,2.14-10.95l.25-1.58c.48-3,1-6.2,1.58-9.28.74-3.75,1.38-7.5,2-11.33.55-3.29,1.19-7.2,1.77-11.23.5-3.45,1.05-7.45,1.35-11.4.65-8.49.76-16.91.8-23.3,0-2.28-.11-4.6-.23-6.84-.07-1.25-.13-2.49-.18-3.74l0-.71c-.13-3.47-.25-7.07-.63-10.59a63,63,0,0,0-1.95-10.08,38,38,0,0,0-3.67-9.34,25.15,25.15,0,0,0-3-4.15,25.43,25.43,0,0,0-2.89-2.59l-.45-.37c-.71-.57-1.4-1.15-2.1-1.73-1.61-1.32-3.27-2.69-4.94-4a24,24,0,0,1-3.06-2.91l-.7-.81c-.68-.78-1.38-1.6-2.11-2.36a17,17,0,0,0-4.51-3.64A32.07,32.07,0,0,0,253,6l-.52-.17c-1.15-.36-2.33-.73-3.48-1.16L247.38,4c-.82-.33-1.67-.67-2.52-1s-2-.59-2.93-.85L241.07,2A3.44,3.44,0,0,0,239.7.48l-.81-.35a3.52,3.52,0,0,0-1-.13ZM216,135.54c-.3,0-.6,0-.91,0a10.33,10.33,0,0,1-1.49-.41,9,9,0,0,1-1.06-.59,8.54,8.54,0,0,1-.94-1,35.23,35.23,0,0,1-3.25-5.78,47.89,47.89,0,0,1-2.69-10.54,54.25,54.25,0,0,1-.49-8.3c.13-3,.44-6,.7-8.28.4-2.48.84-5,1.27-7.42l.12-.66c.29-1.6.55-3.19.82-4.79a34.7,34.7,0,0,1,1-4.48c.14-.49.33-1,.52-1.45l.06-.17a14.45,14.45,0,0,1,1.21-2.12,10.09,10.09,0,0,1,1-1c1.11-.79,2.3-1.52,3.31-2.12a13.31,13.31,0,0,1,1.85-.5l.75,0a23.43,23.43,0,0,1,2.34.14,20.92,20.92,0,0,1,4.09,1.07l.76.32.76.32.12,0a13.62,13.62,0,0,1,1.29.6,17.2,17.2,0,0,1,1.56,1,9.56,9.56,0,0,1,.9.9A36.89,36.89,0,0,1,232,84.6a30.06,30.06,0,0,1,1.41,6,57.33,57.33,0,0,1-.45,12.63l-.13,1.16v0c-.08.58-.16,1.16-.27,1.72-.22,1.12-.45,2.23-.7,3.34l-.44,2c-.26,1.18-.52,2.35-.8,3.53-.46,1.94-1,3.91-1.52,5.86A71.21,71.21,0,0,1,226.8,128a19.5,19.5,0,0,1-1.51,2.69,15.31,15.31,0,0,1-1.9,1.87,23,23,0,0,1-3.84,2.31,11.84,11.84,0,0,1-1.9.54,16.18,16.18,0,0,1-1.64.09Z"/><path class="cls-1" d="M19.14,3.63a20.24,20.24,0,0,0-3.3.33,12.44,12.44,0,0,0-2.23.64,24.18,24.18,0,0,0-2.26,1A9.64,9.64,0,0,0,9,7.44a20.88,20.88,0,0,0-3.46,4.84c-.76,1.37-1.48,2.85-2.16,4.37a30.14,30.14,0,0,0-1.22,3.17c-.18.6-.31,1.23-.44,1.83l-.12.6c-.36,1.68-.66,3.53-.93,5.82-.2,1.64-.36,3.4-.51,5.55A38.56,38.56,0,0,0,.06,39a47.88,47.88,0,0,0,.8,6.16l.12.57.15.73a16.15,16.15,0,0,0,1.32,3.61,9,9,0,0,0,1.78,2.38A6.08,6.08,0,0,0,7.72,54.1c1.7.25,3.31.55,4.93.91l.72.16c1.35.31,2.75.62,4.11,1l.37.11c3.11.95,6.33,1.93,9.56,2.69a50,50,0,0,0,10.1,1.61l1.84,0c2.37,0,4.91-.1,8-.32,2.56-.17,5.14-.45,7.65-.72l2.36-.25c1.45-.14,2.64-.21,3.73-.21h.8c1.38,0,2.87.17,4.68.38,3.35.47,6.77.9,10,1.29a24.16,24.16,0,0,1,2.73.56c0,.47-.08,1-.14,1.42-.19,1.13-.48,2.25-.76,3.33-.11.39-.21.79-.31,1.19-.2.82-.39,1.64-.59,2.46s-.38,1.64-.58,2.46l-.5,2c-.65,2.68-1.33,5.46-2.09,8.16-1.41,5-3.16,10-4.85,14.85-.55,1.59-1.11,3.17-1.65,4.77-2.23,6.49-4.62,12.84-6.45,17.65l-.33.85c-1,2.61-2,5.31-3,8l-.74,2.17c-.83,2.41-1.68,4.9-2.61,7.33-.86,2-1.77,4-2.66,5.91-.5,1.09-1,2.19-1.49,3.29a90.48,90.48,0,0,0-4.23,11.1,43.19,43.19,0,0,0-1,4.27l-.17.86c-.21,1.05-.41,2.12-.61,3.18l-.36,1.89c-.59,3.1-1.22,6.21-1.85,9.31l-.26,1.24c-.35,1.73-.71,3.49-1,5.24a59.78,59.78,0,0,0-.51,6,41.84,41.84,0,0,0,.17,6.45,14.63,14.63,0,0,0,.33,1.88,6.93,6.93,0,0,0,.48,1.26l.14.31a9.48,9.48,0,0,0,1.62,2.55,16,16,0,0,0,3.69,2.91,31,31,0,0,0,5.21,2.63,24.16,24.16,0,0,0,2.33.73,23.41,23.41,0,0,0,3.2.51l.36,0a13,13,0,0,0,1.43.07,31,31,0,0,0,3.55-.27c1.56-.2,3.12-.52,4.62-.83l1.61-.32c.24-.05.48-.08.72-.12l.26,0c1.34-.16,2.78-.29,4.66-.42,2.92-.21,5.51-.5,7.63-2.09.58-.43,1.09-.82,1.58-1.25a9.72,9.72,0,0,0,1.51-1.85c.2-.28.39-.57.57-.86s.54-.82.83-1.22A35.7,35.7,0,0,0,90,195.83a36.68,36.68,0,0,0,2.77-8c.2-.77.4-1.54.61-2.3l.21-.76c.88-3.12,1.79-6.35,2.46-9.57.38-1.88.73-3.8,1.06-5.65s.61-3.45,1-5.17c.48-2.38,1.14-4.75,1.78-7,.28-1,.55-2,.81-3,1.59-6,3.38-12.07,5.11-17.94l1.18-4,.93-3.21c.68-2.36,1.39-4.8,2.13-7.18l.37-1.22c1.07-3.44,2.17-7,3.2-10.52.62-2.1,1.15-4.27,1.66-6.36.34-1.41.68-2.81,1-4.21,1-3.59,2-7.25,3.27-11.2l.94-3c.82-2.61,1.65-5.23,2.49-7.84.29-.91.6-1.82.92-2.73s.6-1.73.88-2.6c.49-1.52.83-3.1,1.16-4.62l.15-.74c.79-3.59,1.38-7.29,2-10.86l.09-.52c.21-1.35.45-2.7.68-4,.37-2.08.75-4.23,1-6.36l.18-1.29c.47-3.47,1-7.06,1.22-10.62.1-1.31.12-2.64.14-3.94l0-1.23,0-1.15a37.72,37.72,0,0,0-.14-5.82,15.24,15.24,0,0,0-.8-3.53A14.16,14.16,0,0,0,129,14.52a9.23,9.23,0,0,0-1.22-1.42c-.28-.25-.6-.48-.91-.71l-.35-.26-.62-.47-.61-.47c-1.27-1-2.64-1.86-4-2.71a18.52,18.52,0,0,0-2.88-1.4,8.8,8.8,0,0,0-3.4-.64,11.47,11.47,0,0,0-2.57.3,19.15,19.15,0,0,0-3,1.07c-.5.21-1,.42-1.5.6a24.54,24.54,0,0,1-4.55,1.13,47.24,47.24,0,0,1-5.15.25c-1.56,0-3.14,0-4.6-.11-3.31-.14-6.76-.41-10.55-.84l-1.44-.2c-2.74-.38-5.57-.77-8.36-1.06-1.21-.12-2.45-.17-3.65-.21L68.16,7.3l-1.27,0c-1.31,0-2.63.09-3.91.17l-.49,0c-.59,0-1.17.08-1.76.12-1.09.08-2.17.15-3.26.21-.78,0-1.57.06-2.35.06s-1.78,0-2.69-.07l-.76,0c-.56,0-1.12,0-1.67-.1l-3.34-.35c-1.17-.13-2.34-.29-3.52-.45l-.62-.08-3.73-.61-1.6-.27L36,5.7l-.15-.16a3.7,3.7,0,0,0-2.48-1c-1.19-.13-2.41-.17-3.58-.2-.6,0-1.2,0-1.8-.06-1.87-.09-3.7-.22-5.43-.37-.84-.08-1.67-.16-2.51-.22q-.45,0-.9,0Z"/><path class="cls-1" d="M439.94,3.64h-.07a5.93,5.93,0,0,0-.83.07l-.3,0a14.83,14.83,0,0,0-2.3.42,12.79,12.79,0,0,0-1.7.62l-.32.13c-.68.28-1.36.57-2,.87a18.28,18.28,0,0,0-5,3.28,20.42,20.42,0,0,0-2.16,2.28c-1.54,1.91-2.86,3.64-4,5.3-1.75,2.51-3.29,5.19-4.79,7.78l-.65,1.13-.49.85c-1.59,2.74-3.23,5.57-4.58,8.5l-.7,1.5c-1.22,2.67-2.49,5.43-3.85,8.08-1.66,3.23-3.63,7-5.62,10.75-.33.62-.67,1.23-1,1.85-.49.85-1,1.74-1.44,2.63-.75,1.49-1.5,3-2.29,4.46-.89,1.69-1.83,3.37-2.63,4.79-.33.58-.64,1.16-.95,1.74-.52,1-1.05,1.93-1.61,2.87-1.42,2.37-3,4.69-4.47,6.94l-1,1.45c-1.77,2.66-3.85,5.84-5.82,9.16A57.35,57.35,0,0,0,375.69,99l-.64,1.57-.29.7q-1.72,4.16-3.42,8.31c-.73,1.67-1.38,3.17-2.1,4.67-.87,1.81-1.83,3.58-2.67,5.15s-1.74,3-2.62,4.5-1.94,3.21-2.82,4.87l-.43.8c-.73,1.37-1.49,2.79-2.16,4.22q-1.2,2.57-2.36,5.14c-1.73,3.89-3.2,7-4.63,9.87l-1,2c-.74,1.46-1.48,2.92-2.19,4.38-.57,1.16-1.1,2.35-1.62,3.5-.34.77-.68,1.53-1,2.28-.21.46-.43.92-.65,1.38a36.77,36.77,0,0,0-2.12,5.1,25.45,25.45,0,0,0-.81,5.34c0,.57-.08,1.14-.14,1.7-.12.75-.27,1.5-.42,2.25-.19,1-.39,2-.53,3a20.92,20.92,0,0,0,0,5.12,36.92,36.92,0,0,0,1.1,5.63c.48,1.75.93,3.32,1.5,4.87a28.82,28.82,0,0,0,2.64,5.28c.28.45.56.91.86,1.35a7.14,7.14,0,0,0,2.65,2.35,13,13,0,0,0,3.53,1.17,19.8,19.8,0,0,0,4.05.4h.34a21,21,0,0,0,2.85-.3l.51-.08,1.32-.22a16.05,16.05,0,0,0,5.11-2c1.61-.92,3.25-2,4.87-3.05a42.38,42.38,0,0,0,4.62-3.6l.88-.79c1.08-1,2.19-2,3.22-3l.74-.73a42,42,0,0,0,3-3.14c1.31-1.58,2.53-3.19,3.63-4.79,2.54-3.66,4.39-6.53,6-9.3.53-.9,1.05-1.81,1.56-2.72,1.25-2.18,2.54-4.43,3.89-6.59,1.87-3,3.87-6.19,5.77-9.39l.61-1c1.7-2.85,3.45-5.8,5.34-8.59,1.75-2.62,3.6-5.23,5.39-7.75l1.53-2.16c1-1.41,2-2.82,2.95-4.24.16-.25.34-.49.51-.74.35-.5.71-1,1-1.53l.91-1.53.9-1.5c.83-1.4,1.55-2.91,2.2-4.24q1.29-2.69,2.57-5.39c.92-1.94,1.86-3.84,2.81-5.74.67-1.36,1.35-2.73,2-4.1l.55-1.13c1.38-2.86,2.82-5.82,4-8.81l.94-2.28c1-2.5,2-5,3.08-7.48,1.36-3,2.95-6.52,4.64-9.92l.39-.78c1.57-3.14,3.19-6.38,4.47-9.71q1.53-4,3.05-8.08l.93-2.48.49-1.29a85.78,85.78,0,0,0,2.82-8.28c.94-3.55,1.86-6.71,2.82-9.66.3-.93.62-1.86.94-2.78.25-.71.49-1.41.73-2.12.5-1.51,1-3,1.44-4.57l0-.16a41.77,41.77,0,0,0,1.16-4.8c.12-.64.19-1.29.28-2a9.14,9.14,0,0,0-.08-2.18A13.13,13.13,0,0,0,466,15.41l-.11-.23-.1-.22a6.11,6.11,0,0,0-.85-1.21l-.26-.33a8.55,8.55,0,0,0-1.54-1.26l-.12-.09a22.07,22.07,0,0,0-2-1.18,27,27,0,0,0-5.14-2c-.57-.18-1.13-.35-1.7-.51l-2-.61c-.62-.2-1.24-.45-1.84-.69s-1.14-.45-1.72-.65a4.88,4.88,0,0,0-1.4-.78c-.67-.25-1.34-.52-2-.79l-.75-.29a12.82,12.82,0,0,0-4.53-.89Z"/><path class="cls-1" d="M346.37,19.43h-.22l-1.43.16a23.53,23.53,0,0,0-4.5.77,15.13,15.13,0,0,0-1.79.69,10.32,10.32,0,0,0-2.08,1.28,14.87,14.87,0,0,0-2.55,2.88l-.41.56a13.35,13.35,0,0,0-1.17,2l-.17.31a18.82,18.82,0,0,0-2,6.68c-.27,2.08-.46,3.93-.57,5.64s-.24,3.54-.27,5.31a16.5,16.5,0,0,0,.28,3.2,19.25,19.25,0,0,0,1.08,3.45l.08.2A31.24,31.24,0,0,0,333,57.6a13.38,13.38,0,0,0,4,3.75,11.55,11.55,0,0,0,2.16,1.23c.76.34,1.63.71,2.51,1a14.63,14.63,0,0,0,2.15.52l.6.12c1,.19,2.09.4,3.13.49s2.27.18,3.46.18c.63,0,1.22,0,1.78-.07a17.82,17.82,0,0,0,2.59-.38A14.51,14.51,0,0,0,358.66,63a26,26,0,0,0,6-4.57,20.77,20.77,0,0,0,4-5.91,26.29,26.29,0,0,0,2.12-6.2,28.81,28.81,0,0,0,.74-6.13,18.87,18.87,0,0,0-.34-3,13.15,13.15,0,0,0-1-2.93,12.23,12.23,0,0,0-1.12-1.91,12.91,12.91,0,0,0-1.91-2.28c-.79-.72-1.64-1.4-2.47-2.06l-1.35-1.08c-.94-.79-1.95-1.53-2.93-2.25l-.45-.33-.47-.36a21.25,21.25,0,0,0-2.36-1.6A20.93,20.93,0,0,0,348.06,20a3.26,3.26,0,0,0-1.69-.58Z"/><path class="cls-1" d="M452.69,125.77a15,15,0,0,0-4.69.8,16.75,16.75,0,0,0-3.93,1.86,3.06,3.06,0,0,0-1.51.48c-.47.3-.93.62-1.4,1a2.31,2.31,0,0,0-.37,0,3.72,3.72,0,0,0-.88.11,17.44,17.44,0,0,0-4.25,1.5l-.16.12-.27.2a5.85,5.85,0,0,0-1.07.91,5.69,5.69,0,0,0-.91,1.29,8.61,8.61,0,0,0-.54,1.19l-.15.37a13.42,13.42,0,0,0-.59,1.79,26.73,26.73,0,0,0-.62,4c-.1,1-.17,2-.23,3a23.17,23.17,0,0,0,.34,4.57l.09.67A22.78,22.78,0,0,0,432,152a31.88,31.88,0,0,0,2,5.88,14.07,14.07,0,0,0,2.18,3.06l.16.2.9,1.07.9,1.07a23.78,23.78,0,0,0,5.17,4.76,16.27,16.27,0,0,0,7,2.08,23.64,23.64,0,0,0,2.79.18l.89,0a25,25,0,0,0,4.31-.65,24.14,24.14,0,0,0,6.84-2.92c.95-.56,1.94-1.22,3.11-2.07a18.65,18.65,0,0,0,3.4-3.07,35.36,35.36,0,0,0,2.19-3l.24-.35a18.5,18.5,0,0,0,1.34-2.29,32,32,0,0,0,1.28-3,22.51,22.51,0,0,0,.94-4c.19-1.26.33-2.6.42-4.09a22.54,22.54,0,0,0-.08-3.36,13.12,13.12,0,0,0-1.24-4.57,11.68,11.68,0,0,0-1.65-2.59,10.35,10.35,0,0,0-2.52-2c-.66-.44-1.34-.83-2-1.2l-.69-.4c-.68-.39-1.37-.76-2.06-1.13a22.17,22.17,0,0,0-5.11-1.92c-1.65-.42-3.4-.8-5.5-1.19-1.08-.21-2.16-.36-3-.47a10.78,10.78,0,0,0-1.52-.1Z"/></g></g></svg>