<svg xmlns="http://www.w3.org/2000/svg" viewBox="0 0 695.94 146.69"><defs><style>.cls-1{fill:#fff;}</style></defs><g id="Layer_2" data-name="Layer 2"><g id="Draw_Layer" data-name="Draw Layer"><path class="cls-1" d="M138.07,14.33h-.15l-.89.08c-2.36.24-4.8.49-7.19.9l-2.12.39-1.31.24-.18,0a4.68,4.68,0,0,0-.64,0,8.65,8.65,0,0,0-1.4.13,11.63,11.63,0,0,0-3.55,1.28,19.94,19.94,0,0,0-3.24,2.29l-.08.06c-.72.59-1.39,1.24-2,1.86a25.74,25.74,0,0,0-1.85,2l-.11.14a25,25,0,0,0-1.85,2.48A67.28,67.28,0,0,0,107,35.59l-.34.82,0,.11h0l0,.11.06-.09-.06.08,0,.12a2.41,2.41,0,0,0-.25.57l-.12.29-.08.2a1.09,1.09,0,0,0-.09.23,2.78,2.78,0,0,0-.23.5l-.18.41a2.9,2.9,0,0,0-.16.41,2.75,2.75,0,0,0-.23.55s0,.06,0,.06v0h0s0,.06,0,.07l0,0h0a2.26,2.26,0,0,0-.28.6l-.06.14,0,.12,0,.1,0,.12h0l0,.12,0,.1-1.34,3.14c-.72,1.69-1.44,3.37-2.14,5.07l-.23.54a33,33,0,0,0-1.29,3.4,34.56,34.56,0,0,0-1,4.32c-1,6.28-1.73,12.45-2.12,18.33a65.55,65.55,0,0,0-.15,8.66l.15,2.22c.14,2.23.29,4.47.45,6.7l.36,4.75c.12,1.62.31,3.24.48,4.67.09.73.23,1.44.36,2.16l0,.19c0,.23.09.46.13.69.08.48.16,1,.28,1.44s.19.79.28,1.18c.23,1,.46,2,.77,2.94.72,2.24,1.46,4.56,2.41,6.8a43.17,43.17,0,0,0,2.36,4.92l.72,1.26.73,1.26a40.86,40.86,0,0,0,11.41,12.76,12.67,12.67,0,0,0,2.35,1.24c1,.43,1.92.81,2.86,1.15a40.16,40.16,0,0,0,6.12,1.68,61.47,61.47,0,0,0,6.5.73l.51,0c.77.06,1.54.11,2.31.14h.28a14.87,14.87,0,0,0,2.61-.29c1-.18,2-.45,3-.7l.23-.06,1.16-.31c1.16-.3,2.32-.61,3.48-.94a33.63,33.63,0,0,0,4-1.34,21.08,21.08,0,0,0,5.26-3.53,40.44,40.44,0,0,0,4.2-4.34c1.32-1.52,2.54-3.15,3.72-4.73l.56-.76c1.3-1.73,2.45-3.41,3.51-5.12a45.63,45.63,0,0,0,3-5.79,64.35,64.35,0,0,0,3.13-9.12l.69-2.62.69-2.61c.27-1,.48-2.07.69-3.09.1-.5.2-1,.31-1.52.22-1,.38-2.07.54-3.09.07-.43.13-.85.2-1.28.18-1.1.3-2.24.41-3.33,0-.47.09-.94.14-1.41.11-1,.15-1.93.2-2.87,0-.49,0-1,.07-1.45.05-.75.08-1.5.1-2.25l.09-2,.21-3.46c.11-1.93.23-3.87.33-5.8.06-1.21.07-2.55,0-4.2a13.75,13.75,0,0,0-.21-1.92l-.07-.52-.09-.61c-.07-.51-.14-1-.22-1.52-.26-1.55-.51-3.1-.74-4.66l-.19-1.29c-.19-1.31-.39-2.67-.66-4a20.58,20.58,0,0,0-1.53-4.25l-.05-.11c-.27-.62-.56-1.25-.87-1.85-.72-1.34-1.38-2.68-2-4.1l-.38-.84c-.45-1-.9-2-1.36-3-.38-.79-.75-1.57-1.12-2.36a29.13,29.13,0,0,0-2.57-4.26c-.57-.8-1.2-1.6-1.76-2.3a9.39,9.39,0,0,0-2.19-1.9,12.52,12.52,0,0,0-2-1.06l-.76-.35c-1.26-.6-2.5-1.22-3.66-1.85l-1.19-.64a65,65,0,0,0-5.85-2.91c-2.17-.92-4.36-1.65-6.79-2.43-1.25-.4-2.55-.71-3.77-1a2.67,2.67,0,0,0-.64-1,2.78,2.78,0,0,0-1.79-.81Zm2.39,89.32c-.22,0-.43,0-.65,0a14.6,14.6,0,0,1-1.91-.52,3.68,3.68,0,0,1-.58-.34,9.69,9.69,0,0,1-.78-.79,13.46,13.46,0,0,1-.94-1.69,32.27,32.27,0,0,1-1.54-6.44,87.11,87.11,0,0,1-.6-10.45c0-1.88,0-3.83.15-5.74.15-2.07.32-4,.53-6l.17-1.15.17-1.16a30.5,30.5,0,0,1,1.18-4.85l.44-1.38.15,0a37.43,37.43,0,0,0,5.05-1.92l.15-.08h0a7.31,7.31,0,0,1,1,.3A17.68,17.68,0,0,1,145.12,63a10.86,10.86,0,0,1,1.59,1.59,26,26,0,0,1,2.73,4.32A21.94,21.94,0,0,1,150.55,73a56.78,56.78,0,0,1,0,7.14c-.1,2.21-.22,4.77-.52,7.27a19.84,19.84,0,0,1-1,3.92c-.63,1.37-1.34,2.71-2,4l-.51,1a38.63,38.63,0,0,1-3,5,14.08,14.08,0,0,1-1.68,1.79,7,7,0,0,1-.65.39l-.62.19Z"/><path class="cls-1" d="M32.45,0a28.42,28.42,0,0,0-3.93.37c-1.94.22-3.8.41-5.65.6l-1.52.16a37,37,0,0,0-7.22,1.6c-.53.17-1.07.33-1.6.51l-.73.25c-.61.22-1.23.43-1.85.6l-.37,0a2.82,2.82,0,0,0-2.65,2l-.11.11A7.16,7.16,0,0,0,5.38,8.12a2.12,2.12,0,0,0-.14.31,2.07,2.07,0,0,0-.56-.23A2.57,2.57,0,0,0,4,8.1a2.78,2.78,0,0,0-1.39.37,2.69,2.69,0,0,0-1.28,1.66,92.08,92.08,0,0,0-1,9.81l-.06,1.2c0,1.06-.1,2.12-.12,3.18L0,30.08c0,2.63,0,5.31.11,7.9.09,3.1.18,6.31.35,9.47.08,1.36.17,2.72.26,4.08S.94,54.48,1,56l0,.5c.15,2.79.3,5.68.39,8.53l.12,4.5c.12,4.42.24,9,.54,13.5q.29,4.32.62,8.63c.21,2.82.41,5.9.61,9.68.13,2.36.2,4.76.26,7.09l0,1.84,0,1.35c.06,2.4.12,4.87.37,7.28s.64,4.87,1,7c.16,1,.35,1.93.54,2.89q.15.75.33,1.5c.13.55.26,1.11.36,1.67.16,1.19.28,2.4.39,3.6.06.6.1,1.19.14,1.79l0,.38,0,.5a6.82,6.82,0,0,0,.94,3.71C9,143.54,11,144.18,13,144.69c.7.18,1.41.33,2.11.47,1.25.25,2.51.47,3.77.69l.69.13c1.82.32,3.33.52,4.77.65.48,0,1,.06,1.45.06,1,0,2.09-.09,2.88-.16q.9-.08,1.8-.21c.43-.06.85-.14,1.28-.23a6,6,0,0,0,1.2-.45l.26-.12a7.34,7.34,0,0,0,2-1.45l.33-.34c.25-.31.49-.62.73-.94a12.94,12.94,0,0,0,.8-1.9,19.4,19.4,0,0,0,.78-5.59c0-.67,0-1.34,0-2v-.86c0-3.46,0-6.27-.09-8.83,0-1.2-.15-2.42-.26-3.59l-.06-.77-.09-.95c-.09-1.07-.18-2.14-.29-3.21q-.3-2.76-.57-5.53c-.12-1.18-.23-2.36-.35-3.55-.35-3.31-.57-6.22-.69-8.9-.06-1.47-.1-2.94-.14-4.42,0-1.24-.06-2.49-.1-3.73s-.11-2.35-.19-3.52c.64,1,1.25,2.1,1.84,3.14l.56,1c.74,1.29,1.47,2.58,2.17,3.89,1.08,2,2,4.18,2.95,6.24l.57,1.28c1.48,3.3,2.7,5.8,4,8.12l.56,1a47.77,47.77,0,0,0,4,6.42c.76,1,1.6,1.9,2.41,2.8.67.74,1.36,1.51,2,2.3s1,1.37,1.57,2,.91,1,1.37,1.55l.41.44c.92,1,2,2.15,3,3.37l.38.52c.61.83,1.23,1.69,1.9,2.49.32.39.65.76,1,1.12s.71.79,1.05,1.21.45.64.68,1a15.84,15.84,0,0,0,2,2.51,14.25,14.25,0,0,0,1.86,1.57,9.57,9.57,0,0,0,5,1.4c.59,0,1.19,0,1.79,0a19.9,19.9,0,0,0,2.28-.11c1.55-.17,3.15-.42,4.89-.78l.88-.19c1-.23,2.1-.46,3.17-.61,1.37-.2,2.73-.47,4-.73a5,5,0,0,0,2.38-1.06,4.77,4.77,0,0,0,1.5-2.73,10.83,10.83,0,0,0,0-3.41c-.16-1.52-.34-3.15-.6-4.8-.24-1.48-.51-2.94-.82-4.33a38.37,38.37,0,0,0-1-3.84c-1-3-2.14-6.05-3.13-8.6-.22-.59-.48-1.18-.74-1.76l-.33-.74-.08-.19c-.23-.53-.45-1-.7-1.57-.69-1.44-1.44-3-2.3-4.42a18.91,18.91,0,0,0-3.66-4.36l-1.37-1.3-.68-.65c-.82-.79-1.61-1.63-2.38-2.45l-.72-.77-1.12-1.2c-.76-.82-1.55-1.68-2.37-2.48l-.45-.44c-.69-.67-1.37-1.33-2.06-2a43.72,43.72,0,0,0-4.79-3.82c-1.59-1.12-3-2.12-4.44-3-1.24-.82-2.45-1.74-3.62-2.62l-.58-.43c-1-.81-1.84-1.5-2.56-2.17s-1.54-1.51-2.3-2.27l-.43-.44c-.79-.81-1.53-1.68-2.24-2.53-.18-.2-.33-.38-.48-.56l.11,0,.34-.11A32.81,32.81,0,0,0,56,65.54c1.39-.7,2.77-1.42,4.21-2.2,2.34-1.26,4.81-2.63,7.09-4.16.58-.38,1.14-.79,1.69-1.21a11.08,11.08,0,0,0,3.26-3.65,19.67,19.67,0,0,0,1-2.21l.16-.4A12.89,12.89,0,0,0,74,49.6l.21-.94.27-1.22.08-.38c.26-1.24.54-2.53.74-3.81s.38-2.83.51-4.67a34.73,34.73,0,0,0,.06-4.3,20.28,20.28,0,0,0-2-7,61.27,61.27,0,0,0-3.75-7.54c-.68-1.13-1.44-2.33-2.3-3.49l-.93-1.27L65,12.41a39.19,39.19,0,0,0-3-3.58,21.26,21.26,0,0,0-7.37-4.89A42,42,0,0,0,48.1,2c-1.9-.45-3.76-.86-5.66-1.13C40,.52,37.88.3,35.94.16q-1.5-.11-3-.15ZM27.14,29.39A2.8,2.8,0,0,0,28.53,29c.43-.25.9-.49,1.46-.75a15.93,15.93,0,0,1,2.8-.78c.55,0,1.11-.07,1.66-.07s1.21,0,1.84.09A11.53,11.53,0,0,1,38,28a14.45,14.45,0,0,1,2.12,1.19l.12.1h0a5.57,5.57,0,0,1,.37.68,24.47,24.47,0,0,1,1,4.25c.07.7.11,1.25.12,1.78,0,.7-.06,1.41-.13,2.19A27.36,27.36,0,0,1,40.44,43a8.8,8.8,0,0,1-.54,1c-.23.23-.47.44-.71.65a21.06,21.06,0,0,1-3.54,2,14.62,14.62,0,0,1-2.58.69c-.38,0-.75,0-1.13,0s-.79,0-1.19,0a8.89,8.89,0,0,1-.89-.22,13,13,0,0,1-.73-1.5,12.94,12.94,0,0,0-.76-1.54l-.23-.38c-.31-.51-.64-1-.92-1.6-.12-.3-.23-.59-.32-.9a11.22,11.22,0,0,1-.3-1.31c-.13-1.46-.13-3-.13-4.42,0-.47,0-1,0-1.42,0-1.58,0-3.17-.05-4.75a2.23,2.23,0,0,0,.73.11Z"/><path class="cls-1" d="M227.06,13.94h-.2c-1,0-2,.06-3,.11a39.59,39.59,0,0,0-6.12.79c-1.59.35-3.3.78-5.26,1.34a40,40,0,0,0-4.62,1.76l-.3.13.16,0-.19,0-.12.07h0l-.26.11a17.41,17.41,0,0,0-2.28,1.05,6.52,6.52,0,0,0-2.37,2.41,13.91,13.91,0,0,0-.93,2.34l-.18.53-.15.45-.15.44a2.64,2.64,0,0,0-1.81,1.88c-.35,1.49-.66,3-1,4.48l-.11.53c-.2.93-.34,1.89-.48,2.82l-.15,1c-.46,2.84-.81,5.17-1.1,7.34a2.62,2.62,0,0,0-.1.73L195.76,49l-.12.94,0,.18,0,.11-.16,1.28-.14,1.14L195.13,54c-.11.91-.23,1.81-.33,2.72l-.55,4.33-.62,5c-.15,1.22-.29,2.44-.44,3.66-.15,1.38-.31,2.76-.49,4.13a2.5,2.5,0,0,0-.09.66c-.08.63-.17,1.27-.26,1.9l0,.34c0,.15-.05.3-.07.46l0,.16-.57,4.09-.57,4.09c-.39,2.81-.82,5.61-1.24,8.41l-.13.84-.17,1.11c-.37,2.46-.76,5-1,7.52l-.3,3.1c-.19,2-.39,4-.55,6-.26,3.37-.53,6.12-.86,8.63-.27,2.18-.46,4.69.81,6.84a14.35,14.35,0,0,0,3.69,3.64l.1.08,1.29,1a11.1,11.1,0,0,0,2,1.12c.92.4,1.85.73,3,1.11l1.61.53c.74.24,1.49.48,2.23.74,1.25.43,2.53.83,3.91,1.2.69.19,1.27.33,1.83.43a10.88,10.88,0,0,0,1.91.19,6.35,6.35,0,0,0,1.05-.1l.32-.05a4.14,4.14,0,0,0,1.91-.94,9.77,9.77,0,0,0,2.74-4.52l.2-.52c.5-1.27.87-2.58,1.25-3.92l.23-.86q.51-1.83,1-3.66c.66-2.48,1.34-5.23,2.14-8.62.34-1.43.65-2.87,1-4.3l.17-.81c.22-1,.45-2.13.73-3.17.81-3,1.79-5.89,2.64-8.29,1.57-4.4,2.76-9,3.91-13.48l.11-.44.45-1.7c.45-1.73.93-3.52,1.3-5.29.14-.67.24-1.36.33-2l0-.25c1.17,3,2.11,5.67,2.85,8.21l.13.44c.48,1.6,1,3.26,1.55,4.84.64,1.74,1.39,3.47,2.11,5.15,1.43,3.46,2.62,6.31,3.75,8.94l.28.65c.53,1.25,1.07,2.5,1.64,3.74s1.21,2.63,1.79,4,1,2.85,1.5,4.25c.38,1.1.75,2.19,1.14,3.28.5,1.36,1,2.78,1.63,4.13.24.53.52,1.06.84,1.62a10,10,0,0,0,1.06,1.45,8.6,8.6,0,0,0,2.35,1.81,17.57,17.57,0,0,0,4.23,1.61,14.26,14.26,0,0,0,1.59.27l.27,0,1.12.17,1.12.16c1.6.23,3.22.4,4.8.56,1.08.11,2.17.22,3.26.35l1,.16c1.16.19,2.36.39,3.56.5.24,0,.49,0,.74,0a19.11,19.11,0,0,0,3.77-.51,8.44,8.44,0,0,0,4.15-2,4.54,4.54,0,0,0,.9-1.38,7.23,7.23,0,0,0,.54-1.61,9,9,0,0,0,.19-1.25l.06-.47a18.21,18.21,0,0,0,.13-1.91,35.13,35.13,0,0,0-.58-6.26c-.21-1.36-.52-2.7-.81-4-.35-1.49-.75-2.94-1.24-4.66-.31-1.08-.68-2.17-1-3.22l-.4-1.19c-.77-2.38-1.64-4.92-2.82-8.24-1-2.72-2-5.53-3.14-8.61a56.51,56.51,0,0,0-2.47-5.84c-.86-1.66-1.87-3.28-2.84-4.85l-.88-1.42c-1.57-2.57-3-5.26-4.46-7.85-1.28-2.34-2.6-4.75-4-7.07-.34-.56-.69-1.12-1-1.68-.55-.89-1.13-1.82-1.65-2.74a42.59,42.59,0,0,1-2.09-4.16c-.49-1.19-1-2.39-1.4-3.6s-1-2.56-1.73-4.16l-.7-1.72c-.2-.47-.35-1-.51-1.45-.08-.25-.15-.49-.24-.74-.43-1.31-.82-2.64-1.17-3.88l-.73-2.55-.56-2a25.38,25.38,0,0,0-1.6-4.36,9.17,9.17,0,0,0-.79-1.26l-.13-.18c-.49-.69-1-1.36-1.56-2a28.57,28.57,0,0,0-2.73-3,18.94,18.94,0,0,0-3.82-2.76c-.67-.37-1.34-.74-2-1.08a18.62,18.62,0,0,0-3.44-1.17,19.82,19.82,0,0,0-5.06-.64Zm.48,38.36c-1,0-2-.07-2.9-.15-1.12-.08-2.15-.19-3.16-.31-.35-.06-.69-.14-1-.23l0-.37c.21-1.33.48-2.63.8-3.91l.11-.46a43.36,43.36,0,0,1,1.33-4.63c.34-.71.74-1.46,1.24-2.31a6.41,6.41,0,0,0,.39.52c.15.18.31.35.47.51l.26.26c.33.32.66.64,1,1a15.65,15.65,0,0,1,1.35,2.59A30.86,30.86,0,0,1,229,50a10.67,10.67,0,0,1,0,1.38l0,.18c-.08.16-.15.28-.23.41s-.17.18-.27.27c-.34,0-.62,0-.89,0Z"/><path class="cls-1" d="M312.78,15.29c-1.17,0-2.12,0-3,.11-2.48.2-5,.58-7.37.94-1.81.22-3.3.34-4.75.38a43.13,43.13,0,0,0-5.57.41l-.15,0a25.66,25.66,0,0,0-4.58,1c-1.09.38-2.14.84-2.93,1.19-.39.18-.76.38-1.14.59a2.29,2.29,0,0,0-.64-.08,2.92,2.92,0,0,0-2.07.93,2.43,2.43,0,0,0-.69,1.83c.22,3.16.51,6.36.79,9.46.25,2.75.5,5.49.7,8.25.06.79.11,1.58.16,2.37.1,1.69.2,3.43.42,5.13.38,2.92.8,5.87,1.25,8.79s.7,5.88,1,8.78c.2,1.84.36,3.68.53,5.52q.13,1.63.3,3.27c.3,3.18.72,6.39,1.1,9.14.4,3,.92,5.78,1.51,8.91.41,2.18.93,4.48,1.63,7.24l.19.75c.55,2.16,1.11,4.39,1.48,6.63.12.77.23,1.54.34,2.3.25,1.68.5,3.42.86,5.11.2.94.44,1.88.68,2.81.35,1.4.71,2.84,1,4.27l.12,1.41c.07.83.14,1.67.24,2.5a17.91,17.91,0,0,0,.55,2.78,7.78,7.78,0,0,0,1.37,2.63,6.79,6.79,0,0,0,2.42,1.91,17.26,17.26,0,0,0,5.94,1.4l1.22.12,1.23.12c1.32.13,2.61.17,4.16.21s2.89.06,4.33.06h.45c1.59,0,3.17-.07,4.54-.12,1,0,2-.13,3-.22l1.43-.12.54,0c1.26-.1,2.53-.19,3.79-.31,2-.17,4-.41,6-.7a51.1,51.1,0,0,0,5.25-1.11,31.11,31.11,0,0,0,5.34-1.76c.81-.37,1.6-.8,2.37-1.21s1.49-.8,2.25-1.16,1.38-.49,2.08-.72l1.32-.45a25.71,25.71,0,0,0,5.51-2.89,19.52,19.52,0,0,0,1.9-1.41,13.69,13.69,0,0,0,1.77-2c.61-.77,1.18-1.57,1.73-2.35l.22-.31c.67-1,1.31-2,1.92-2.91l.37-.57.34-.53.33-.53a15.69,15.69,0,0,0,1.23-2.46,16.86,16.86,0,0,0,.76-2.63c.06-.29.13-.57.2-.86l.18-.77,1-3.93c.34-1.42.65-2.84,1-4.26s.53-3.07.72-4.57l.09-.63c.16-1.26.23-2.55.3-3.8V89c.09-1.55.16-3.09.22-4.63.1-2.73.13-5.51.15-8.19v-.68c0-2.76,0-5.69-.22-8.56a29.08,29.08,0,0,0-1.31-5.9l-.37-1.27c-.37-1.32-.72-2.65-1.06-4-.19-.75-.38-1.5-.56-2.26a61.92,61.92,0,0,0-1.78-6.32,12.77,12.77,0,0,0-1.56-3,14.53,14.53,0,0,0-2.88-2.88c-1-.85-2-1.77-3-2.67l-.57-.53c-.85-.78-1.67-1.62-2.47-2.43l-.65-.67c-1-1-1.93-1.94-2.91-2.9l-1-1-1-1a41.24,41.24,0,0,0-3.28-2.88A26.11,26.11,0,0,0,344,23.9c-.92-.44-1.89-.82-2.8-1.17-.51-.2-1-.37-1.57-.54s-.8-.25-1.2-.39l-.64-.23-2.44-.88c-.68-.24-1.36-.53-2-.82l-.19-.08-.74-.34c-.77-.35-1.54-.7-2.32-1l-.67-.3c-.47-.21-1-.44-1.45-.61l-2-.69c-.39-.14-.77-.24-1.16-.34l-.44-.12a29.57,29.57,0,0,0-3-.64,34.53,34.53,0,0,0-4.6-.36l-1.46,0c-.85,0-1.69,0-2.53,0Zm10,78.18c-.36,0-.72,0-1.07,0a15,15,0,0,1-2.51-.61,7.14,7.14,0,0,1-.71-.4,5.67,5.67,0,0,1-.5-.48l-.15-.24c-.15-.5-.26-1-.36-1.52l0-.24c-.11-.54-.22-1.08-.3-1.62l-.18-1.08c-.11-.7-.23-1.39-.34-2.08-.18-1.56-.32-3.14-.45-4.67-.06-.73-.13-1.47-.2-2.21-.24-2.66-.43-5.32-.59-7.8-.1-1.65-.15-3.32-.19-4.94l-.09-2.91c-.05-1.16-.12-2.54-.26-3.93,0-.44-.09-.88-.15-1.31.46.2.93.37,1.41.53a25,25,0,0,0,2.9.7l.52.1a41,41,0,0,0,5.15.59c1,.07,2,.14,3,.26a26.24,26.24,0,0,1,5.55,1.52,12.66,12.66,0,0,1,2,1.26,15.43,15.43,0,0,1,2.08,2,13.28,13.28,0,0,1,.88,1.53,29.06,29.06,0,0,1,1.49,5.27,18.62,18.62,0,0,1,.09,2.16,19.59,19.59,0,0,1-.18,2.09c-.28,1.78-.58,3.39-.91,4.9a25.6,25.6,0,0,1-1.41,4.2,31.2,31.2,0,0,1-2.78,5.11,18.51,18.51,0,0,1-2.47,2.52,8.92,8.92,0,0,1-.79.51,13.41,13.41,0,0,1-1.83.42c-1.2.13-2.37.21-3.36.27l-1,.07c-.77.06-1.58.13-2.36.13Z"/><path class="cls-1" d="M479.19,13.08c-.78,0-1.58.05-2.34.09h-.17c-1.45.09-2.89.16-4.34.22l-3.12.09c-1.72,0-3.5.1-5.26.2-1.95.11-3.9.26-5.85.41l-2.94.22-.45,0c-1.8.13-3.61.25-5.41.42a33,33,0,0,0-5.48.9,10.71,10.71,0,0,0-2.61,1.09,5.72,5.72,0,0,0-1.89,1.93,8.18,8.18,0,0,0-1,2.71c-.14.6-.25,1.2-.35,1.81-.25,1.5-.4,3-.53,4.36-.16,1.78-.31,3.56-.45,5.35-.3,3.66-.6,7.44-1.06,11.15a34.81,34.81,0,0,1-.94,4.21q-.25.87-.54,1.74l-.22.69-.17-.79-.39-1.58q-1.06-4.14-2.18-8.27c-.14-.49-.27-1-.41-1.47-.25-.87-.5-1.75-.72-2.63-.31-1.3-.6-2.61-.89-3.92l-.1-.47-.13-.59c-.25-1.12-.51-2.27-.82-3.39s-.73-2.57-1.21-4l-.31-.93a26.71,26.71,0,0,0-1.65-4.27A8.47,8.47,0,0,0,424,16.66a7,7,0,0,0-4.28-1.91l-.26,0c-.35,0-.7-.08-1.05-.09-2.64-.07-5.45-.15-8.29-.3l-.54,0c-1.31-.07-2.62-.13-3.92-.24l-1.14-.1-1.15-.1c-.37,0-.74,0-1.11,0a18.48,18.48,0,0,0-2.88.24c-1.53.22-3,.53-4.2.81a17.7,17.7,0,0,0-5.16,2,8.31,8.31,0,0,0-.95.7l-.28.22a4.6,4.6,0,0,0-1,1.13,6.74,6.74,0,0,0-.84,2.77,10.58,10.58,0,0,0,.19,2.9c.11.67.26,1.38.44,2.1a23.67,23.67,0,0,0,1.57,4.3,13.83,13.83,0,0,1,.6,2.2c.23,2.54.26,5.15.29,7.67l0,2.45c0,2,.08,4.08.09,6.12,0,.29,0,.58,0,.87l0,.31,0,.45c0,.3,0,.6-.07.9l-.3,2.25c-.43,3-.9,6.09-1.38,9.14l-.23,1.44c-.38,2.38-.78,4.85-1,7.3,0,.45-.09.91-.15,1.37-.11,1-.23,2-.26,3.06l0,1.54c0,1-.07,2.07-.08,3.1l0,1.27c0,2.55,0,5.11-.1,7.66l0,.87c-.09,4.08-.19,8.31-.38,12.46-.12,2.48-.2,4.94-.24,7.31a35.19,35.19,0,0,0,.78,8.39,19.4,19.4,0,0,0,1.36,4.16,5.07,5.07,0,0,0,1.68,2,7.65,7.65,0,0,0,1.56.8,52.93,52.93,0,0,1,5.32,2.93,2.7,2.7,0,0,0,1.36.37,3.42,3.42,0,0,0,.45,0,3.1,3.1,0,0,0,1.35.87,6.41,6.41,0,0,0,1.6.3,10.94,10.94,0,0,1,1.33.36l.85.41c.56.28,1.14.56,1.74.8a14.35,14.35,0,0,0,4.28.86c1.62.12,3.75.26,5.88.26a13.54,13.54,0,0,0,1.81-.19l.45-.06a9.75,9.75,0,0,0,2-.52,14.57,14.57,0,0,0,3.27-1.63,7.22,7.22,0,0,0,1.92-2,6.12,6.12,0,0,0,.77-3.26,9.69,9.69,0,0,0-.34-2.2l-.08-.37c-.08-.33-.13-.66-.19-1l0-.19c-.34-2.79-.5-5.6-.63-8.25-.08-1.74-.23-3.51-.38-5.21-.09-1.08-.18-2.15-.26-3.23-.18-2.7-.44-5.56-.81-9-.23-2.18-.25-4.43-.27-6.6l0-1.53c-.06-4.16-.14-7.93-.25-11.5,0-1.43-.07-2.83-.09-4.23l.08.24.11.24a32,32,0,0,0,3.72,5.85l.69.94q1.41,1.93,2.86,3.82l.25.32a23.1,23.1,0,0,0,2.73,3.14A9.4,9.4,0,0,0,435,88.33a5.07,5.07,0,0,0,1.86.53,3.24,3.24,0,0,0,.44,0,5.44,5.44,0,0,0,1.58-.23c2-.56,3.31-2.42,4.46-4.06l.36-.5c.7-1,1.42-2,2.35-3.45,1.19-1.81,2.35-3.68,3.48-5.49q.85-1.4,1.71-2.76c1.8-2.87,3.37-5.18,5-7.3.14-.16.27-.33.4-.5-.08,1.11-.11,2.22-.14,3.33-.06,3.06.1,6.06.28,8.85.14,2.19.17,4.43.19,6.59l0,2.2c0,.8,0,1.61.05,2.41.05,2.06.1,4.2.07,6.29,0,1.19-.12,2.38-.22,3.54l-.07.77c-.13,1.42-.27,2.83-.44,4.24l-.07.65c-.16,1.32-.31,2.64-.45,4-.1,1-.21,2.07-.27,3.11a15.39,15.39,0,0,0,.08,3,14,14,0,0,0,1.05,3.78c.81,1.92,2.7,3.42,5.62,4.46a21.36,21.36,0,0,0,4.55,1,25.2,25.2,0,0,0,3.28.24c.31,0,.62,0,.92,0a35.66,35.66,0,0,0,4.54-.6c2.87-.51,5.24-1,7.44-1.5,3-.7,6.2-1.83,6.87-4.92a9.92,9.92,0,0,0,.08-2.61l0-.54c0-.52-.06-1-.1-1.54l0-.38c-.21-3-.5-5.55-.88-7.92-.16-1-.33-2.05-.5-3.07-.2-1.23-.4-2.45-.59-3.67-.17-1.41-.27-2.68-.32-3.88s-.05-2.56-.05-3.81v-.67c0-2.12,0-4.24,0-6.36v-4c0-5.13,0-10.42.09-15.63.08-5.55.27-11.4.6-18.4.09-1.87.15-3.75.22-5.63,0-1.07.07-2.14.11-3.21.09-2.3.21-4.6.33-6.9l.12-2.48a33.59,33.59,0,0,0-.07-4.61,10.13,10.13,0,0,0-.58-2.76,7.58,7.58,0,0,0-1.81-2.76,6.82,6.82,0,0,0-3.13-1.44,18.52,18.52,0,0,0-2.67-.46c-.5-.05-1-.08-1.58-.08Z"/><path class="cls-1" d="M537.77,15.06h-.64a9.59,9.59,0,0,0-2.28.41,5.47,5.47,0,0,0-2.48,1.66,13.79,13.79,0,0,0-1.47,2.17l-.08.14a25.5,25.5,0,0,0-1.22,2.39c-1.32,3-2.49,5.78-3.44,8.66q-1.56,4.78-3.07,9.59c-1.7,5.44-3.47,11.07-4.79,16.8s-2.63,11.65-3.88,17.33l-.12.57c-.6,2.73-1.22,5.55-1.72,8.36-.2,1.14-.49,2.29-.77,3.4l-.28,1.13c-.25,1-.55,2.1-.84,3.11-.13.44-.25.88-.37,1.32l-.6,2.09c-.54,1.88-1.1,3.82-1.47,5.76l-.23,1.18-.22,1.18c-.14.67-.21,1.38-.29,2.06,0,.34-.07.68-.12,1l-.39,3.07-.2,1.64-.08.46c-.32,2.17-.65,4.41-1,6.61a50.29,50.29,0,0,1-1.41,6.24l-.22.7q-.15.42-.27.84l-.08.26a4,4,0,0,0-.26,1.35,4.54,4.54,0,0,0,.67,2.35c1.5,2.29,4.57,2.57,7,2.8l.25,0c1,.09,2,.17,2.92.24,1.33.1,2.66.2,4,.35s2.47.45,3.5.68l.9.21a33,33,0,0,0,3.87.73,10.93,10.93,0,0,0,1.15.06,6.58,6.58,0,0,0,2.35-.39,10.21,10.21,0,0,0,3.23-2.34l.22-.21c.54-.52,1.06-1.07,1.57-1.61s.84-.9,1.28-1.33a28.59,28.59,0,0,0,2.18-2.51l.56-.7c.37-.44.73-.89,1.09-1.34s.84-1.06,1.22-1.63a13,13,0,0,0,1.25-2.86,39.42,39.42,0,0,0,1.08-4.38l.14-.67c.1-.47.16-1,.23-1.44l.09-.65c.11-.77.2-1.53.28-2.3l.06-.48c.07-.61.13-1.21.2-1.82s.13-1.21.2-1.82l-.05.27c.21-1.39.4-2.6.61-3.76.25-1.38.58-2.76.9-4.1l0-.13c.44-1.8,1-3.61,1.47-5.36.23-.77.45-1.54.67-2.3.49-1.74.94-3.53,1.37-5.25l.68-2.66c.28-1.12.61-2.28,1-3.45.34.9.74,1.86,1.17,2.78l1.17,2.56.75,1.65c1.16,2.8,2.39,5.81,3.44,8.93,1,2.88,2.17,5.71,3.34,8.45l.39.91c.91,2.23,1.82,4.69,2.87,7.72.4,1.2.85,2.48,1.36,3.72.32.77.65,1.52,1,2.28l.55,1.24.48,1.34c.33.95.68,1.93,1.1,2.87a6.48,6.48,0,0,0,1.15,1.82,5.83,5.83,0,0,0,2.41,1.49,26.66,26.66,0,0,0,3,.82l.48.11a35.46,35.46,0,0,0,5.35,1q.51,0,1,0l1.13,0,.71,0,1.32,0,.88,0h.46c.5,0,1,0,1.49,0l1.42,0h.59a21.29,21.29,0,0,0,4.52-.69,24.86,24.86,0,0,0,4.3-1.43c.56-.25,1.1-.52,1.65-.81a8.16,8.16,0,0,0,3-3,8.51,8.51,0,0,0,.6-1.21l.08-.2a16.6,16.6,0,0,0,.73-1.89,12.54,12.54,0,0,0,.43-4.41,13.18,13.18,0,0,0-.17-1.39l-.07-.42q-.12-.78-.27-1.56c-.14-.8-.26-1.61-.37-2.41-.13-1.16-.24-2.32-.35-3.48-.18-1.86-.37-3.79-.63-5.67a18.34,18.34,0,0,0-1-3.92c-.09-.25-.19-.5-.29-.75s-.27-.64-.38-1l-.21-.62-.62-1.9c-.35-1-.61-2.12-.87-3.17l-.23-.92c-.21-.83-.4-1.66-.59-2.5-.13-.54-.25-1.08-.38-1.62-.3-1.23-.65-2.48-1.07-3.81-.47-1.5-.86-2.83-1.19-4.09l-.48-1.81c-.2-.78-.41-1.57-.62-2.35a37.51,37.51,0,0,0-1.27-4.07,18.11,18.11,0,0,0-2-3.88c-.59-.81-1.25-1.57-1.89-2.32-.37-.42-.74-.85-1.1-1.29a30.65,30.65,0,0,1-2.31-4.71c-.33-.8-.67-1.6-1-2.38l-.42-.91c-.61-1.29-1.24-2.63-1.95-3.88a18.38,18.38,0,0,0-2.87-4,16.33,16.33,0,0,0-1.41-1.21l-.73-.6a26.31,26.31,0,0,1-3.21-3.1,21.71,21.71,0,0,1-1.63-3c-.17-.44-.34-.89-.5-1.33s-.35-.92-.53-1.37L573,33a13.15,13.15,0,0,0-1.64-3.29,27.16,27.16,0,0,0-2.69-3,22.32,22.32,0,0,1-1.9-2.12c-.79-1.05-1.64-2.1-2.5-3.14a14.94,14.94,0,0,0-1.5-1.62,10.68,10.68,0,0,0-3.15-1.88,12,12,0,0,0-3.18-.69l-.46-.05c-.64-.08-1.28-.14-1.93-.18s-1.33-.1-2-.12l-1.53-.05h0a14.81,14.81,0,0,0-2.93.34,2,2,0,0,0-.49.16l-.75-.27-.48-.17c-1.36-.47-2.71-1-4.09-1.3a16.72,16.72,0,0,0-4-.49Zm18.1,38.81-.54,0a47.27,47.27,0,0,1-5-1.21c-1.46-.43-3.38-1-5.26-1.76a8.43,8.43,0,0,1-.92-.51l-.27-.26a62.29,62.29,0,0,1,3.19-9l.15-.36.65-.32c.28-.15.58-.3.87-.43a6.77,6.77,0,0,1,.74-.2h.33l.11,0h0l.23.24a14,14,0,0,1,.95,1.61l.06.11c.28.52.55,1.05.86,1.55a33,33,0,0,0,2.14,2.94l.14.18c.3.42.58.85.86,1.28a10.63,10.63,0,0,1,.54,1.06,18,18,0,0,1,.72,2.61,6.78,6.78,0,0,1,0,1.26,5.89,5.89,0,0,1-.2.75,3.14,3.14,0,0,1-.18.31l-.13.15h-.11Z"/><path class="cls-1" d="M657.09,9.61a37.22,37.22,0,0,0-4.43.28c-1.61.19-3.25.42-5,.7-.51.08-1,.19-1.54.31l-.73.16a22.79,22.79,0,0,0-4.32,1.43c-2.9,1.22-5.74,2.55-8.64,3.93l-.53.25a28.27,28.27,0,0,0-3.44,1.81,29.71,29.71,0,0,0-4.1,3.43c-1.3,1.23-2.56,2.53-3.62,3.64a2.72,2.72,0,0,0-1.25-.31,2.83,2.83,0,0,0-.71.1,2.79,2.79,0,0,0-1.93,3.4q.72,2.61,1.41,5.24c.24.87.43,1.77.61,2.64.08.39.16.78.25,1.17.25,1.1.44,2.15.59,3.2l.39,2.69.16,1.12.09.85c.27,2.57.55,5.22.73,7.84.22,3.08.35,6.2.47,9.14.1,2.3.13,4.63.16,6.9l0,2.53,0,1.13c0,2.4.07,4.88.26,7.31a20.61,20.61,0,0,0,.89,4.85c.18.57.38,1.13.58,1.69.32.92.66,1.87.93,2.81A67.3,67.3,0,0,1,626.22,99c.25,2.09.45,4.23.61,6.54.07,1.12.16,2.23.25,3.35s.19,2.36.27,3.54l.06,1c0,.73.08,1.47.15,2.2.13,1.28.27,2.57.43,3.85l.12,1a43.09,43.09,0,0,1,.47,6.33,2.61,2.61,0,0,0,.77,1.9,2.75,2.75,0,0,0,4.75-1.9c0-.27,0-.55,0-.82a3,3,0,0,0,.64.28,4.72,4.72,0,0,0,1.39.34,14.14,14.14,0,0,0,1.73.09l1,0h.48c1,0,1.94,0,2.88-.11s1.91-.21,2.84-.34l.14,0c3-.37,6-.62,8.64-.83,1.53-.12,3.08-.17,4.58-.22,1.3,0,2.59-.09,3.88-.18h.28c.91-.06,1.81-.12,2.71-.21a16.11,16.11,0,0,0,2.76-.47,5.25,5.25,0,0,0,2.79-2.05c1-1.45,1.51-3.49,1.39-6.23a70.29,70.29,0,0,0-.9-9.17c-.27-1.63-.68-3.23-1-4.45-.41-1.52-.75-3.09-1-4.8-.27-2.13-.51-4.41-.76-7.19s-.65-5.75-1.2-8.76c-.32-1.78-.66-3.55-1-5.33l-.52-2.71c-.26-1.38-.55-2.76-.83-4.13-.12-.58-.26-1.15-.4-1.72-.07-.32-.16-.64-.24-1l-.16-.63c.58-.12,1.18-.22,1.77-.31l.36-.06c1.35-.17,2.44-.29,3.42-.37,1.61-.14,3.25-.28,4.85-.5a67.12,67.12,0,0,0,8.48-1.64c.79-.22,1.58-.47,2.36-.73a26.74,26.74,0,0,0,2.82-1.14A16.43,16.43,0,0,0,690.83,60l.13-.09a10.88,10.88,0,0,0,3.84-4,12.88,12.88,0,0,0,1-4.46,25,25,0,0,0,0-4.1c-.09-1.52-.17-2.89-.32-4.27-.2-1.85-.44-3.61-.71-5.38a26.68,26.68,0,0,0-.94-3.67l-.08-.29c-.22-.72-.5-1.43-.82-2.21a19,19,0,0,0-1.38-2.86,11.67,11.67,0,0,0-1.6-1.9c-1.15-1.19-2.26-2.25-3.2-3.14s-2.12-2-3.19-2.93a36.4,36.4,0,0,0-3.88-3,26.18,26.18,0,0,0-4-2.06l-.47-.21L672.16,14l-.77-.33-1.71-.77c-.72-.33-1.44-.66-2.18-1l-2.5-1a17.74,17.74,0,0,0-3.38-.94,26.13,26.13,0,0,0-4.53-.37Zm-8.94,39.22h-.4a14.34,14.34,0,0,1-.3-1.57,40.54,40.54,0,0,1-.17-5.07q.08-3,.16-6.09a1.77,1.77,0,0,0,0-.47,25.47,25.47,0,0,1,2.81-.62c1.08-.13,2.36-.27,3.64-.31l1.32,0a30.83,30.83,0,0,1,3.36.18,21.82,21.82,0,0,1,3.69,1,3.7,3.7,0,0,1,.51.29c.27.26.53.53.77.81a6.06,6.06,0,0,1,.45.78A8.33,8.33,0,0,1,664.3,39a9.18,9.18,0,0,1,0,1.48,6.06,6.06,0,0,1-.16.61,13.25,13.25,0,0,1-1,1.54A11.42,11.42,0,0,1,661.71,44a11.85,11.85,0,0,1-1.84,1.1l-1,.49-1.57.72a37,37,0,0,1-8,2.47,10.69,10.69,0,0,1-1.13.06Z"/></g></g></svg>