<svg xmlns="http://www.w3.org/2000/svg" viewBox="0 0 363.29 245.21"><defs><style>.cls-1{fill:#fff;}</style></defs><g id="Layer_2" data-name="Layer 2"><g id="Draw_Layer" data-name="Draw Layer"><path class="cls-1" d="M201.62,0l-1.23,0a23.69,23.69,0,0,0-3.76.47,11.38,11.38,0,0,0-1.51.45L195,1a9.05,9.05,0,0,0-2.59,1.33c-.31.24-.62.48-.91.75a6.87,6.87,0,0,0-.68.75l-.16.18a14.71,14.71,0,0,0-1.19,1.68,11.9,11.9,0,0,0-.79,1.55l-.14.31c-.31.66-.56,1.37-.8,2.05-.5,1.42-.95,2.86-1.43,4.61-.17.65-.29,1.32-.41,2l-.07.38c-.13.69-.25,1.38-.34,2.07-.15,1.06-.27,2.11-.39,3.17l-.2,1.69h0c-.17,1.21-.31,2.38-.44,3.55s-.21,2.42-.29,3.61v.26c-.09,1.28-.17,2.55-.3,3.83,0,.57-.11,1.14-.17,1.71s-.15,1.39-.22,2.08c-.23,2.54-.3,5.14-.35,7.34,0,2.58-.07,5.16-.08,7.75q0,1.84,0,3.69c0,1,.09,2,.15,3l0,.67.09,1.28c.05.74.1,1.49.14,2.23a18.29,18.29,0,0,1-.07,2.46q-.06.69-.09,1.38a1.35,1.35,0,0,0,.19.73,13.11,13.11,0,0,1-1.41.32l-.17,0c-.35.07-.7.12-1.06.18-.85.09-1.69.2-2.53.32a12.46,12.46,0,0,1-1.56.1h-.21c-.61,0-1.22,0-1.83-.09-1.47-.1-2.78-.22-4-.37-.94-.14-1.88-.3-2.82-.47s-1.93-.32-2.9-.46c-.47-.06-.93-.14-1.4-.22l-1.73-.26c-.95-.13-1.92-.22-2.88-.3l-.31,0c-.89-.07-1.81-.15-2.71-.18l-1.63,0-1.61,0c-1.9-.06-3.94-.13-5.94-.29s-4-.37-6.12-.61c-1.63-.19-3.3-.3-4.91-.41l-.92-.07c-1.52-.1-3.06-.15-4.56-.19l-1.76-.05c-1.85-.06-3.84-.16-6.1-.33-1.74-.12-3.6-.32-6-.63h-.1c-1.33-.18-2.58-.34-3.84-.49l-1.07-.13-3.21-.48c-.53-.08-1-.16-1.44-.22l-1-.14-.41-.06-.69-.09a1.33,1.33,0,0,0-.4,0L102.09,63l-1-.12c-1-.15-1.89-.3-2.83-.48l-1.16-.22-1.73-.34L94,61.56l-1.47-.28c-1-.18-2-.37-3-.59s-2.08-.42-3.12-.61l-1.28-.2c-.52-.08-1-.16-1.55-.26-1-.18-2-.42-3.15-.72l-.69-.18c-.72-.19-1.45-.38-2.16-.61-2.55-.85-5.14-1.82-7.91-3l.07,0c-1.76-.8-3.35-1.6-4.86-2.43-1.73-.95-3.42-1.86-5.17-2.64A58.63,58.63,0,0,0,54,47.86a39.74,39.74,0,0,0-5.6-1.29l-.37-.07-.9-.17c-1.63-.3-3.27-.59-4.89-.93l-.93-.19c-.69-.14-1.37-.27-2.06-.43-1-.24-2-.45-3-.65-.34-.07-.69-.13-1-.18l-.37-.06-.58-.11-1-.17c-.78-.12-1.58-.18-2.36-.24l-.86-.07a11.85,11.85,0,0,0-1.24-.09,14.26,14.26,0,0,0-1.51.09,12.31,12.31,0,0,0-3.13.67,16.61,16.61,0,0,0-1.58.75c-.54.28-1,.52-1.47.8l-1.37.86c-.67.27-1.35.55-2,.84l-1.36.65A15.07,15.07,0,0,0,13.39,50,24.73,24.73,0,0,0,11,52.54l-.29.33c-.71.82-1.37,1.68-2,2.51a14.39,14.39,0,0,0-1.25,2,1.4,1.4,0,0,0-.64-.15,1.38,1.38,0,0,0-.73.21A3.46,3.46,0,0,0,5,58.87l-.16.23c-.15.19-.29.39-.43.59-.39.57-.76,1.16-1.13,1.74l-.08.13c-.34.53-.65,1.09-1,1.65a16.52,16.52,0,0,0-.87,1.86,13.28,13.28,0,0,0-.44,1.35l-.11.39a19.89,19.89,0,0,0-.57,2.67A1.16,1.16,0,0,0,.16,70c0,.49-.09.94-.13,1.38a11.52,11.52,0,0,0,.05,2.08c.05.46.12.92.19,1.37s.12.68.2,1a2,2,0,0,0,.18.59l.15.36.12.78.07.71c.07.67.12,1.33.18,2C1.08,81.85,1,83.43.94,85q-.09,3-.12,6c0,2.06,0,4.11,0,6.17,0,.77,0,1.56.1,2.32l0,.77c.06,1,.11,1.93.16,2.86.09,2,.18,3.9.24,5.84l0,.76c0,1.76.1,3.57.24,5.35S1.87,119,2,121l0,.82c.08,1.84.16,3.68.28,5.52,0,.85.12,1.7.18,2.54.08,1.22.17,2.44.24,3.66.11,1.88.16,3.8.21,5.66v.61c.1,3.46.13,7,.15,10.38l0,1.74c0,6.43,0,13,0,19.31v4.59q0,3.17,0,6.34v.5c0,1.78,0,3.62.1,5.43.12,2.14.24,4.29.35,6.43,0,.69.1,1.37.16,2l.07.86L4,200.13l0,.23.07.81c.13,1.67.28,3.39.47,5.07l0,.41c.11.93.22,1.88.37,2.82s.34,1.91.59,3A39.67,39.67,0,0,0,7.35,218c.31.81.64,1.61,1,2.41.22.53.44,1.06.65,1.6l0,4.31c0,.8.06,1.62.12,2.4l0,.49a12.84,12.84,0,0,0,.31,2,8.5,8.5,0,0,0,.62,1.72,6.17,6.17,0,0,0,1,1.45,6.31,6.31,0,0,0,1.73,1.33,10.89,10.89,0,0,0,1.65.7l.21.08c.61.22,1.26.39,1.87.55s1.57.36,2.59.52c1.36.21,2.48.37,3.53.48a53.81,53.81,0,0,0,5.83.29h.66c1.92,0,3.83,0,5.75,0s3.87-.1,6-.24a99.51,99.51,0,0,0,11.94-1.5l.62-.11c.73-.14,1.47-.28,2.2-.45l1.32-.3,1.68-.39c1.78-.37,3.88-.8,6-1.09q3-.42,5.94-.88c1.8-.28,3.74-.64,6.11-1.11.9-.18,1.8-.38,2.69-.6s2-.5,3.23-.87c1.63-.48,3.38-1.09,5.5-1.92a93,93,0,0,0,11.14-5.09l2.63-1.44,2.64-1.43c2.11-1.16,3.75-2,5.32-2.71l1.94-.83.84-.35c2.14-.9,4.13-1.69,6-2.41,2.19-.83,4.34-1.74,6.36-2.6l-.19.06c2.94-1.21,5.31-2.25,7.46-3.24s4.62-2.07,6.89-3l5.72-2.32,3.81-1.55c3.19-1.29,6.28-2.58,9.19-3.82h0l2.48-1,2.3-.91c1-.39,1.91-.79,2.85-1.21l1.07-.5,1.38-.63a47.19,47.19,0,0,0,5.18-2.56,44.93,44.93,0,0,0,4.61-3.19l.21-.16c.78-.58,1.57-1.14,2.37-1.7s1.62-1.13,2.45-1.6c.56-.32,1.13-.61,1.7-.91l.91-.47c.57-.3,1.14-.58,1.71-.86l1.29-.64.34-.21a4.37,4.37,0,0,0,.39,1.14,13.07,13.07,0,0,0,.71,1.77q.53,1.15,1.08,2.31a1.15,1.15,0,0,0,.39.45l.47,1.29a24.62,24.62,0,0,1,1,3.94l.45,2.54.24,1.39c.08.48.17,1,.25,1.45.11.67.22,1.35.35,2l.18,1,.45,2.54c0,.17,0,.33.06.48,0,.68.09,1.35.15,2,.32,3.38.46,6.76.58,9.93.07,1.9.21,3.83.35,5.69.09,1.25.18,2.5.26,3.76.09,1.59.17,3.18.23,4.78,0,.85.06,1.7.08,2.55s.05,1.57.13,2.33c0,.39.1.78.17,1.16a1.46,1.46,0,0,0,.69.91l.11.05h0a11.46,11.46,0,0,0,.68,2.57,7.93,7.93,0,0,0,4.21,4.24,15.23,15.23,0,0,0,3.75,1,21.41,21.41,0,0,0,2.92.32h1.5l1.58-.09c1.78-.13,3.58-.38,5.33-.62l.87-.12c1-.12,2-.22,3-.33,1.47-.15,3-.3,4.49-.51.86-.13,1.65-.27,2.38-.44a14.32,14.32,0,0,0,2.63-1l.52-.22c.45-.2.88-.42,1.32-.65l.3-.16c.49-.26,1-.56,1.51-.9,4.24-2.84,7.67-6.62,11.11-10.57l2.33-2.7c.8-.93,1.52-1.77,2.19-2.63.92-1.17,1.82-2.37,2.71-3.57l1.56-2.08c1.4-1.79,2.93-3.62,4.68-5.61l.95-1.09c.46-.55.93-1.09,1.42-1.62.93-1,1.89-2,2.79-2.84,1.61-1.58,3.38-3.2,5.42-4.93l1.44-1.22,1.45-1.21c.87-.74,1.75-1.56,2.77-2.56s1.79-1.73,2.71-2.58,1.74-1.53,2.87-2.43c1.82-1.44,3.74-3,5.85-4.82.36-.3.7-.61,1.05-.91.56-.49,1.12-1,1.69-1.45l.91-.73c.66-.52,1.34-1.06,2-1.64a33.74,33.74,0,0,0,2.49-2.57c.39-.47.78-1,1.16-1.43s.8-1,1.23-1.51l.16-.19c.76-.89,1.51-1.77,2.3-2.63l.65-.71c.64-.72,1.31-1.46,2-2.15l.47-.47c.3-.31.6-.62.91-.9l.95-.87.85-.77c.74-.68,1.53-1.33,2.29-2l.8-.66c1.69-1.42,3.46-2.82,5.16-4.18l.79-.63c1-.82,2.06-1.62,3.09-2.42l.6-.46c.73-.56,1.48-1.14,2.19-1.75l.34-.29.34-.29a13.62,13.62,0,0,0,1.63-1.73c.43-.52.85-1.06,1.25-1.6.77-1.06,1.46-2.08,2.12-3.12l.32-.5c1.11-1.76,2.26-3.58,3.53-5.28.68-.85,1.39-1.67,2.19-2.57s1.62-1.85,2.45-2.77l.4-.44c.27-.3.54-.61.82-.91.45-.48.92-.93,1.39-1.39s.82-.78,1.24-1.17.9-.84,1.34-1.27c1-1,1.93-2.08,2.82-3.14.66-.78,1.34-1.59,2.05-2.35a23.18,23.18,0,0,1,2.09-1.88l.49-.41c.41-.35.9-.77,1.38-1.24s.87-.89,1.28-1.36c.64-.71,1.25-1.47,1.84-2.21l.65-.82a36.64,36.64,0,0,1,2.58-2.83c.65-.65,1.27-1.31,1.9-2l.62-.65.35-.35a28.91,28.91,0,0,0,2.2-2.47,13.82,13.82,0,0,0,1.78-3.1c.3-.67.54-1.29.75-1.89a13.4,13.4,0,0,0,.45-1.79,9.78,9.78,0,0,0,.18-1.75,6.78,6.78,0,0,0-.28-1.78,10.9,10.9,0,0,0-.57-1.47l-.18-.43c-.34-.78-.7-1.56-1.06-2.33l-.39-.86-.24-.51c-.41-.87-.82-1.74-1.26-2.6a24.73,24.73,0,0,0-1.8-3c-.69-1-1.39-1.94-2.1-2.9l-.61-.84c-.6-.82-1.2-1.65-1.83-2.45a22.1,22.1,0,0,0-2.57-2.67l-.68-.6-.61-.53c-.44-.4-.88-.82-1.31-1.23l-.22-.2c-1.64-1.55-3.43-3.21-5.34-4.79l-.59-.49c-.68-.55-1.37-1.12-2-1.72l-.83-.77c-.58-.53-1.16-1.06-1.72-1.62l-2.34-2.29-2.93-2.89c-1-1-2-2-3.05-3a47.87,47.87,0,0,0-3.68-3.19A24.38,24.38,0,0,0,319.2,55l-3.67-1.43c-1.57-.59-3.14-1.22-4.73-1.88l-.56-.23-.78-.34-.28-.11-.27-.12a6,6,0,0,0-.69-.3l-.19-.07-2.36-1-1.79-.76-2.4-1-1.47-.6-.25-.1a3.75,3.75,0,0,0-.65-.28l-.16-.06h0a1.36,1.36,0,0,0-.25-.11l-.13,0h0a1.51,1.51,0,0,0-.29-.13l-.11,0h0c-.94-.4-1.92-.84-3-1.37l-.47-.21c-.36-.17-.73-.34-1.08-.54l-2.08-1.13c-1-.57-2.08-1.17-3.11-1.76s-2.3-1.32-3.46-2c-2.17-1.17-4.39-2.17-7.06-3.33-1.05-.45-2.16-1-3.4-1.58l-.6-.3c-.91-.45-1.86-.92-2.76-1.42A61.77,61.77,0,0,1,263.73,28l-1.85-1.52-.84-.7c-1-.85-2.07-1.67-3.12-2.49-1.85-1.44-3.82-2.79-5.72-4.09l-.62-.43q-1.61-1.1-3.18-2.22c-1-.71-2.05-1.47-3.13-2.19a34.74,34.74,0,0,0-3.21-1.94,28.15,28.15,0,0,0-3.69-1.63c-1-.33-1.91-.65-2.87-1l-2-.67-1.82-.64c-1.07-.37-2.13-.75-3.2-1.09l-1.79-.57c-1.11-.35-2.22-.71-3.32-1.08-1.44-.48-2.93-1-4.83-1.83h0c-2.23-.93-4.42-1.75-6.52-2.42a27.36,27.36,0,0,0-3.66-1,38.7,38.7,0,0,0-4.09-.48c-1-.06-1.84-.09-2.64-.09ZM11.4,159.81l0,0v-.08l.09.76c0-.19-.05-.38-.07-.58h0v0h0v0ZM7.74,178c-.06-.67-.12-1.34-.16-2-.13-2.36-.23-4.53-.31-6.63v-.12c.1,1.26.15,2.54.2,3.78,0,.78.06,1.56.11,2.34s.1,1.7.15,2.55V178Zm0,29.64h0c-.42-3.61-.7-7.29-1-10.84l-.11-1.41c-.09-1.18-.15-2.37-.22-3.56l0-.63c.08.83.19,1.66.29,2.48.18,1.54.37,3.08.58,4.62v-.18q.19,1.65.42,3.27c.12.92.27,1.83.42,2.74l.06.34c.15.88.31,1.76.47,2.64.19,1.07.38,2.14.56,3.21l0,.19,0,.19c0,1.12-.1,2.24-.13,3.36-.2-.69-.38-1.33-.52-1.93-.2-.82-.37-1.63-.54-2.45-.13-.62-.21-1.26-.29-1.88l0-.16Z"/><path class="cls-1" d="M4.72,184.49c0,1.43,0,2.86,0,4.29a1.16,1.16,0,0,0-.18.43,25.62,25.62,0,0,0-.32,3.61c0,.77-.07,1.54-.1,2.31-.05,1.56-.09,3.14-.05,4.7.09,3.2.15,6.42.36,9.62.09,1.34.14,2.68.27,4s.23,2.83.41,4.24c.4,3.24.77,6.5,1.41,9.71a1.45,1.45,0,0,0,.81,1,9.37,9.37,0,0,0,.91,2.28,13,13,0,0,0,1.45,1.93,8.53,8.53,0,0,0,2.47,2,14.83,14.83,0,0,0,2.28,1,11.78,11.78,0,0,0,2.28.44,8.66,8.66,0,0,0,3.5-.33l1.18-.32c.48-.12.94-.31,1.4-.47a1.64,1.64,0,0,0,.9-.69,1.56,1.56,0,0,0,.15-1.16A1.52,1.52,0,0,0,22,231.94c-.6.22-1.2.43-1.82.59s-1.24.36-1.88.47c-.22,0-.45,0-.67,0a3.71,3.71,0,0,1-.67,0,12.91,12.91,0,0,1-2.39-.62,11.65,11.65,0,0,1-1.86-1,13.62,13.62,0,0,1-1.34-1.4,9.15,9.15,0,0,1-.82-1.33A19.35,19.35,0,0,1,9.72,225c0,.13,0,.26,0,.4,0-.4-.11-.79-.16-1.18-.13-1-.22-2.07-.35-3.09,0,.13,0,.26.05.4-.06-.41-.11-.83-.17-1.24,0,.13,0,.26,0,.4-.06-.46-.12-.92-.19-1.38a1.88,1.88,0,0,0,.33,0,1.52,1.52,0,0,0,1.1-1.45,13.21,13.21,0,0,0-.4-2.48c-.09-.52-.19-1-.29-1.56-.17-1.37-.37-2.75-.51-4.13-.17-1.65-.38-3.3-.51-5-.25-3.32-.48-6.64-.63-10v-.06c0-.14.05-.28.07-.43v.07c.14.76.25,1.52.38,2.28.25,1.53.46,3.08.73,4.61.15.83.29,1.67.44,2.5s.35,1.69.52,2.53c.24,1.15.53,2.29.8,3.44l.09.68,0-.15c0,.1,0,.21,0,.31,0-.13,0-.27-.05-.4l.15,1.14.15,1,.09.55a7.65,7.65,0,0,0,.34,1.31,1.55,1.55,0,0,0,1.45,1.1,1.51,1.51,0,0,0,1.45-1.1c0-.25.08-.5.11-.75a2.66,2.66,0,0,0-.11-.84c0-.25-.1-.5-.15-.75-.09-.43-.17-.85-.27-1.27s-.21-.95-.32-1.42a27.17,27.17,0,0,1-.13-5.84,16.76,16.76,0,0,1,.36-1.71v0c.27.56.5,1.15.75,1.73a1.4,1.4,0,0,0,.9.69,1.49,1.49,0,0,0,1.15-.15,1.47,1.47,0,0,0,.69-.89,1.67,1.67,0,0,0-.15-1.16L16.81,200c-.11-.27-.25-.53-.37-.8a4.5,4.5,0,0,0-.73-1.23,2,2,0,0,0-2-.77,3.11,3.11,0,0,0-1.78,1.62c0-.15,0-.3-.07-.46-.24-1.55-.5-3.09-.75-4.64-.11-.65-.22-1.3-.36-1.95a8.56,8.56,0,0,0-.7-2c-.12-.16-.24-.31-.37-.46a1.77,1.77,0,0,0-.81-.46,1.86,1.86,0,0,0-1,0c0-1.44-.09-2.88-.13-4.31a1.5,1.5,0,0,0-1.5-1.5,1.52,1.52,0,0,0-1.5,1.5ZM14,209.62h0c0,.06,0,.12,0,.18a.77.77,0,0,1,0,.15c0-.11,0-.23,0-.34Zm-2.2,3.71a.77.77,0,0,1,0,.15s0-.1,0-.15ZM9.62,224.27l0,.22,0-.22Zm1.65-12.9,0-.17v0l0,.22Zm0-.22c0-.06,0-.12,0-.18a1.1,1.1,0,0,0,0,.18Zm-.13-1,0-.25,0,.25Z"/></g></g></svg>