<svg xmlns="http://www.w3.org/2000/svg" viewBox="0 0 1000.01 257.76"><defs><style>.cls-1{fill:#fff;}</style></defs><g id="Layer_2" data-name="Layer 2"><g id="Draw_Layer" data-name="Draw Layer"><path class="cls-1" d="M141.51,192.3c.84-3.51,2.5-6.67,6-7.18-3.49.45-5.14,3.58-6,7.18Z"/><path class="cls-1" d="M52.81,24.09c-1.31,0-2.61,0-3.91.07H47.5l-1.84,0c-4.77.12-9.62.32-14.17.52-1.88.09-3.77.23-5.65.36l-.46,0c-2.09.15-4.52.31-6.89.38l-5,.17-6.65.21a4.32,4.32,0,0,0-3.08,1.47A4.73,4.73,0,0,0,0,32.2C.33,42.37.7,53.9.76,65.44q0,8.41.07,16.81c0,4.69.12,9.69.33,16.23.14,4.46.25,8.93.36,13.41l0,1.07c.13,5.46.27,11.1.48,16.67.09,2.54.21,5.07.33,7.6s.23,4.82.32,7.24c.2,5.22.34,10.6.41,16,.11,6.42.12,12.71.12,20.9q0,4.74,0,9.5c0,5.68.27,11.45.52,17l0,.63v.38c.18,4.06.37,8.66.45,13.09q.06,3,.1,6c0,1.77.14,3.33.25,4.84l0,.27.08,1.2q.21,3.13.38,6.27l0,.54a62.85,62.85,0,0,0,.61,6.76,4.69,4.69,0,0,0,2,2.93,4,4,0,0,0,2.2.67,3.66,3.66,0,0,0,1.16-.19,4.44,4.44,0,0,0,2.59-2.24,4.8,4.8,0,0,0,.57-2.39c.3.15.61.28.92.41a32.52,32.52,0,0,0,6.48,2c3.1.58,5.31,1,7.73,1.27a57.7,57.7,0,0,0,6.81.48h.41a41.77,41.77,0,0,0,7.62-.92,80.6,80.6,0,0,0,12.5-3.45,65.66,65.66,0,0,0,9.86-5c1-.6,2-1.15,2.94-1.68q2.46-1.38,4.94-2.74c2.4-1.32,4.8-2.64,7.18-4,4.1-2.33,8.1-4.87,11.9-7.56a100.1,100.1,0,0,0,8.26-6.3l1.09-.4a32,32,0,0,0,3.61-1.77l.63-.35a25.47,25.47,0,0,0,2.43-1.42,24.35,24.35,0,0,0,6.36-6.78c1.25-1.9,2.48-3.9,3.75-6.12.43-.76.88-1.51,1.33-2.26.71-1.18,1.6-2.66,2.35-4.11a65.65,65.65,0,0,0,5.17-13.29,34.6,34.6,0,0,0,.81-4,22.57,22.57,0,0,0,2.29-4.86,19.48,19.48,0,0,0,.77-4.7c0-.66,0-1.3,0-1.87v-.6c0-1-.09-2.12-.17-3.06l0-.32,0-.42,0-.47,0-.47c0-.64,0-1.28,0-1.93a74.67,74.67,0,0,0-.71-8.74,24,24,0,0,0-.57-3,14.47,14.47,0,0,0-.78-2.12c-.77-4.58-1.69-9.19-2.79-14.07-.45-2-1-4-1.51-6l-.08-.32-.07-.24-.31-1.15c-.82-3.08-1.42-5.25-2-7.27-.5-1.71-1.12-3.46-1.67-5l-.72-2c-.53-1.55-1.09-3.09-1.64-4.63l-.81-2.23q-1.23-3.45-2.51-6.88l-.14-.39-.1-.25a75.56,75.56,0,0,0-3-7.33c-1.18-2.43-2.43-4.83-3.38-6.64s-2-3.85-3-5.79c-4.83-9.78-9.21-18.28-13.38-26-.95-1.77-2.07-3.7-3.53-6.08-.41-.69-.86-1.34-1.41-2.12l-.48-.7-.44-.64c-.67-1-1.36-2-2.1-2.88a32.64,32.64,0,0,0-10.84-8.95,46,46,0,0,0-6.88-2.67,45.18,45.18,0,0,0-7.72-1.44,55.49,55.49,0,0,0-6.75-.35ZM44.34,155.74a7.31,7.31,0,0,1-.81,0,3.58,3.58,0,0,1-.64-.18,32.18,32.18,0,0,1-1-5.13c-.43-4.84-.67-10-.85-14.09l0-.23c-.13-2.77-.26-5.53-.42-8.3-.37-5.91-.48-11.91-.6-17.71v-.28l-.05-2.45.19.1.5.22c.38.14.76.29,1.13.45a47.78,47.78,0,0,1,7.6,5c.67.64,1.32,1.31,2,2s1.23,1.2,1.88,1.8l.62.57a32.38,32.38,0,0,1,4.06,4.65,15,15,0,0,1,.91,1.67A20,20,0,0,1,59.3,126a51.08,51.08,0,0,1-.26,10.1A57.84,57.84,0,0,1,58,142c-.48,2-1.11,3.92-1.77,5.86a26.93,26.93,0,0,1-1.77,3.66,12.77,12.77,0,0,1-.92,1,16.77,16.77,0,0,1-2.31,1.46,31.54,31.54,0,0,1-5.43,1.62c-.48,0-.95.07-1.42.07Z"/><path class="cls-1" d="M52.32,236.19c-2,.89-4,1.74-5.92,2.69-1.61.73-3.21,1.45-4.81,2.2l1-.48a25.05,25.05,0,0,1-5.54,1.79c-2.76.33-5.54.44-8.3.59a48.88,48.88,0,0,1-8.63-.46c-1.48-.26-2.95-.6-4.42-1-2.1-.53-4.21-1-6.34-1.42a4.13,4.13,0,0,0-3.31.49,4.76,4.76,0,0,0-2,2.87,5.37,5.37,0,0,0,.43,3.72,4.25,4.25,0,0,0,2.58,2.21c3.24.66,6.43,1.53,9.67,2.19a52.25,52.25,0,0,0,10.12,1c1.44,0,2.88-.08,4.33-.18s3.09-.15,4.63-.3a32.91,32.91,0,0,0,5.81-1,28.21,28.21,0,0,0,4.09-1.65c1.84-.86,3.7-1.66,5.53-2.56,1.1-.49,2.22-1,3.32-1.44a4.75,4.75,0,0,0,2.57-2.22,5.34,5.34,0,0,0,.43-3.71,4.77,4.77,0,0,0-2-2.88,4.32,4.32,0,0,0-2.25-.69,2.63,2.63,0,0,0-1.06.2ZM46.74,249l-.76.37.76-.37Z"/><path class="cls-1" d="M173.05,12.08c-2.18,0-4,0-5.59.1s-3.56.26-5.3.44l-1.33.14a44.91,44.91,0,0,0-4.57.79c-.78.16-1.55.32-2.34.46l-.9.12c-3.52.45-7.16.92-10.25,3.16a4.91,4.91,0,0,0-.51.39,4.07,4.07,0,0,0-2.21-.73,2.8,2.8,0,0,0-1.1.21c-.4.17-.79.35-1.17.55a7.33,7.33,0,0,0-1.28,1.17,12.36,12.36,0,0,0-1.57,2.2l-.18.3a23.45,23.45,0,0,0-1.18,2.35l-.1.21a34.66,34.66,0,0,0-2.17,7,54.56,54.56,0,0,0-1.21,9.62,58.57,58.57,0,0,0,.37,8.33,41.23,41.23,0,0,0,1.35,7.2,29.68,29.68,0,0,0,3.68,8.06c.4.6.81,1.19,1.23,1.78.27.37.53.71.82,1.08a10,10,0,0,0,1.53,1.45l.52.43a7,7,0,0,0,1.39.83,14,14,0,0,0,2.23,1,13.63,13.63,0,0,0,3.83.54h.66a33.18,33.18,0,0,0,5-.47c1.17-.15,2.35-.28,3.53-.41l1.16-.13c1.34.23,2.68.44,4,.63a40.55,40.55,0,0,0,5.44.43c.36,0,.71,0,1.07,0A32.69,32.69,0,0,0,175.32,70l.2-.05c.48,5.2.59,10.54.69,15.7s.13,10.39.16,15.7q0,3.3,0,6.59c0,7.76,0,15.79.55,23.66.11,1.7.26,3.4.4,5.1.2,2.24.39,4.56.52,6.84.25,4.8.43,9.09.56,13.12s.21,8.3.27,12.16c0,1.51,0,3,.06,4.53v3.94c0,.44,0,.88,0,1.32,0,1.07.05,2.17,0,3.25,0,.19-.07.37-.12.55s-.38.43-.58.63c-.46.31-.92.6-1.4.87a37.23,37.23,0,0,1-8.36,2.19,60.51,60.51,0,0,1-6.48.35,45.28,45.28,0,0,1-6.25-.53l-1.86-.29a38.66,38.66,0,0,0-5.26-.59h0c-6.93,0-7.57,9.46-7.92,14.55-.33,4.9-.53,10.06-.62,15.77a70,70,0,0,0,1.14,15.28,13.44,13.44,0,0,0,5.31,8.19,10.87,10.87,0,0,0,2,1.07l.66.3c.83.39,1.69.72,2.34,1a30.83,30.83,0,0,0,3.47,1l.35.08a45.22,45.22,0,0,0,9.75,1.43h.28a36.19,36.19,0,0,0,7.64-1.09l.29-.06c1.53-.33,3.06-.66,4.59-1l.63-.14c1.21-.25,2.46-.52,3.71-.7l2.23-.35,2.09-.32,1.52-.16c3.94-.41,8-.84,12-1,4.27-.2,9.31-.42,14.3-.53l.92,0c4.31-.1,8.77-.2,13.16-.5,1.67-.12,3.36-.35,5-.58l1.32-.17c2.59-.35,5.23-.75,7.85-1.18,2.4-.35,4.42-.59,6.46-.7.71,0,1.42-.05,2.12-.05a46.94,46.94,0,0,1,4.85.26c1.42.27,2.84.58,4.26.89l1.15.25c1.31.29,2.63.7,3.91,1.1.74.24,1.47.47,2.21.68a20.61,20.61,0,0,0,2.44.51,19.71,19.71,0,0,0,3.07.3h.17l.42,0,.27,0a7.62,7.62,0,0,0,3.5-.95c2.56-1.68,3.51-5.17,4.11-8.37.24-1.3.41-2.65.57-4l.16-1.2c.36-2.76.56-5.49.76-8.53.16-2.53.23-4.79.21-6.92A118.14,118.14,0,0,0,281.8,193c-.16-1.05-.32-2.11-.5-3.17a14.94,14.94,0,0,0-1-3.24,11.68,11.68,0,0,0-1.87-3,7.8,7.8,0,0,0-2.66-2.05,12.92,12.92,0,0,0-3.27-1.06c-.67-.12-1.35-.22-2-.32l-1-.16c-3.73-.58-7.74-1-12.62-1.36-3.41-.24-6.88-.34-10.23-.44l-1,0c-1.9-.05-3.81-.08-5.71-.12h-1c-1.36,0-2.78,0-4.15-.16-.14,0-.27-.07-.4-.12l-.31-.2a12.34,12.34,0,0,1-.63-1.26,43.83,43.83,0,0,1-1.61-8c-.11-.91-.19-1.83-.27-2.75l-.1-1.16-.1-1c-.08-.78-.16-1.56-.19-2.34,0-1-.1-2-.16-2.92-.09-1.79-.2-3.64-.24-5.46-.13-5.43-.26-10.86-.34-16.29q-.11-6.94-.16-13.88l0-2c-.05-4.39-.2-9.1-.52-15.27-.06-1.25-.11-2.5-.17-3.75-.08-2.11-.17-4.22-.31-6.33-.1-1.51-.23-3-.36-4.52-.14-1.66-.28-3.32-.38-5-.09-1.5-.15-3-.21-4.5-.08-1.71-.15-3.41-.26-5.12-.1-1.46-.25-2.91-.39-4.37l-.07-.67c0-.38-.09-.77-.13-1.16-.1-.83-.2-1.67-.25-2.51a2.49,2.49,0,0,0,.33-.16,33.13,33.13,0,0,1,6.91-1.81c4-.55,8.75-1.23,13.35-2.27a10.93,10.93,0,0,0,3.74-1.59,10,10,0,0,0,3.26-4.24,30.72,30.72,0,0,0,2-7.45,78.48,78.48,0,0,0,1-8,51,51,0,0,0-.89-15.53A14.74,14.74,0,0,0,253,19.35a14.76,14.76,0,0,0-7.92-3.66c-2.63-.47-5.21-.92-7.79-1.14-4.66-.41-9.39-.7-14-.86-2.95-.1-5.95-.3-8.85-.5-1.78-.12-3.55-.24-5.33-.34-9.32-.51-18.73-.62-27.57-.69l-3.15,0c-1.76,0-3.51,0-5.27,0Z"/><path class="cls-1" d="M372,4.37a67.49,67.49,0,0,0-7.61.41l-.2,0c-2.23.25-4.54.51-6.78,1L356.3,6c-1.66.35-3.32.7-5,1-4.12.54-8.4.89-13.11,1.08l-4.32.14c-3.12.1-6.33.2-9.49.45A54.22,54.22,0,0,0,310.79,11,32.47,32.47,0,0,0,307,12.68a17.4,17.4,0,0,0-6,5.3A31.85,31.85,0,0,0,299,21a25,25,0,0,0-1.69,3.85,34.73,34.73,0,0,0-1.51,6.58l-.06.36c-.93,5.79-1.56,11.14-1.91,16.37-.34,5-.42,10.19-.49,15.17-.07,4.41-.08,8.79-.1,13.17V79.9c0,2.09,0,4.26.05,6.39.05,1.71.18,3.38.38,5A24.07,24.07,0,0,0,294.74,96a21.8,21.8,0,0,0,1,2.46,14.61,14.61,0,0,0,1.39,2.2l.39.56a15,15,0,0,0,2.72,2.79,17.1,17.1,0,0,0,3.81,2.38,20.84,20.84,0,0,0,4.38,1.44,70.71,70.71,0,0,0,7.13,1.12,77.75,77.75,0,0,0,9.33.62c1,0,2,0,3-.08A79.91,79.91,0,0,0,341,107.33c2.26-.51,4.47-1.19,6.14-1.73l.38-.12a50.58,50.58,0,0,1,5-1.43,49.83,49.83,0,0,1,5.83-.35,45.88,45.88,0,0,1,4.69.23,43.13,43.13,0,0,1,9.67,2.95,52.05,52.05,0,0,1,8.66,5.61,19.4,19.4,0,0,1,1.93,2.07A13.28,13.28,0,0,1,384,116c.15.53.29,1.06.4,1.62a22.37,22.37,0,0,1,0,3.17,29.34,29.34,0,0,1-1.14,4.52,21.88,21.88,0,0,1-1.48,2.91c-.18.22-.35.42-.54.62a10.72,10.72,0,0,1-1.16.69,53.16,53.16,0,0,1-11.61,3.12c-4,.55-7.73.91-11.39,1.12h-.18c-1.66.09-3.38.18-5.07.18-.41,0-.82,0-1.23,0a54.05,54.05,0,0,1-5.68-.44c-2.66-.58-5.31-1.22-8-1.86l-4.84-1.15c-1-.24-2-.52-3.06-.8s-2.09-.59-3.14-.83c-2.44-.56-5-1-7.91-1.39a35.27,35.27,0,0,0-4.47-.31c-.52,0-1,0-1.56,0a32,32,0,0,0-4,.48l-1.62.34c-.37.08-.72.19-1.08.29l-.81.3c-.59.26-1.19.54-1.78.82-4,2.48-5.61,7.52-6.28,11.32a81.54,81.54,0,0,0-1,8.21c-.76,10.18-.8,20.49-.83,29.59,0,5,0,9.92,0,14.88v1.67c0,1.92,0,3.91.08,5.86s.32,3.77.55,5.61l.16,1.38a17.42,17.42,0,0,0,1.65,6.17,9.2,9.2,0,0,0,3.51,3.36,12.52,12.52,0,0,0,5.53,1.87c.66.05,1.32.07,2,.07a44.78,44.78,0,0,0,7.95-.86c2.42-.45,4.83-1,6.91-1.55,1.4-.35,2.82-.64,4.23-.94l2-.43c3.42-.74,6.91-1.34,10.28-1.92l3.54-.62c4.08-.72,8.39-1.62,13.17-2.74,1.06-.26,2.11-.53,3.17-.81l2.17-.56c1.87-.46,3.75-.8,5.49-1.1s3.46-.44,5.19-.65c2.65-.32,5.39-.64,8.08-1.1,1.05-.18,2-.35,2.91-.59a27.51,27.51,0,0,0,5.88-2.26,28.79,28.79,0,0,0,6.49-4.82,36.46,36.46,0,0,0,4.59-5.39,69.67,69.67,0,0,0,4.2-6.45A65.57,65.57,0,0,0,410,172.92c1-3.17,1.88-6.42,2.75-9.57.5-1.77,1-3.53,1.49-5.29.31-1.06.62-2.12.94-3.17.38-1.29.76-2.58,1.13-3.87a49.93,49.93,0,0,0,1.78-10.81c.16-2.7.2-5.18.12-7.56-.06-1.85-.17-3.69-.28-5.54l-.11-2c-.16-2.93-.32-5.4-.59-7.9a39.24,39.24,0,0,0-1.64-8.05,65.1,65.1,0,0,0-2.92-7.27,37.87,37.87,0,0,0-4-6.65,42.72,42.72,0,0,0-4.22-4.78l-1.27-1.29c-1.21-1.23-2.46-2.5-3.76-3.66a46.78,46.78,0,0,0-6-4.72l-.54-.35a47.62,47.62,0,0,0-6.42-3.62,58.37,58.37,0,0,0-6.4-2.42l-.57-.18c-1.87-.57-3.74-1.15-5.63-1.69-2.78-.79-5.56-1.62-8.34-2.45-3-.9-6.07-1.61-8.81-2.24-2.07-.48-4.15-1.11-6.17-1.72l-2-.62c-1-.3-2.06-.62-3.09-1l-1.59-.5c-.95-.29-2.2-.69-3.42-1.19.28-1.07.65-2.14,1-3a43.7,43.7,0,0,1,2.95-5.81,11.72,11.72,0,0,1,1-1.12,11.81,11.81,0,0,1,1.17-.77,15.7,15.7,0,0,1,2.43-.68,24.51,24.51,0,0,1,2.5-.12c1.7,0,3.42.14,5.07.28s3.25.35,4.83.55l1.16.15,4.54.76c2.93.49,6,1,9,1.42,1.33.22,2.45.44,3.5.69a18.48,18.48,0,0,1,3.14,1.09,33.79,33.79,0,0,1,4,2.52l.69.7a16,16,0,0,0,2.15,2,3.56,3.56,0,0,0,2.09.67,4.35,4.35,0,0,0,3.24-1.55,5.43,5.43,0,0,0,2.1-1.47,11.61,11.61,0,0,0,1.34-2l.16-.28a13.11,13.11,0,0,0,.85-2l.15-.4c.45-1.21.8-2.47,1.12-3.59a45.88,45.88,0,0,0,1.24-7.29l.09-.83c.26-2.16.44-4.53.56-7.23a45.67,45.67,0,0,0-.4-7.79,28.67,28.67,0,0,0-2.14-7.47,20,20,0,0,0-5.44-7.74c-.57-.45-1.19-.86-1.79-1.26-.36-.23-.71-.47-1.06-.72l-.16-.1A13.54,13.54,0,0,0,386,6a18.37,18.37,0,0,0-4.71-1.08c-1.21-.16-2.31-.26-3.37-.32-2.18-.13-4.11-.2-5.92-.2Z"/><path class="cls-1" d="M520.56,19.54a4.57,4.57,0,0,0-4.17,3.58,5.56,5.56,0,0,0-.16,1.29c-3.51-.1-7-.17-10.57-.2H504l-1.69,0h-2a35.4,35.4,0,0,0-5.61.49,74.53,74.53,0,0,0-11.93,3.25l-.32.1a110.78,110.78,0,0,0-13.57,5.58,30.17,30.17,0,0,0-5.61,3.69,25.07,25.07,0,0,0-6.95,9.78c-1.44,3.31-2.68,6.79-3.87,10.16-.54,1.52-1.08,3-1.64,4.54l-.65,1.75c-1.58,4.26-3.17,8.52-4.7,12.8-1.72,4.77-3.49,9.72-5.13,14.62a61.72,61.72,0,0,0-1.94,6.84c-.65,3.14-1.16,5.77-1.59,8.25-1.81,10.44-3.17,20.92-4.48,31.06l-.06.49c-.67,5.19-1.37,10.55-1.81,15.84s-.85,10.64-.82,15.87a72.36,72.36,0,0,0,.55,7.41c.28,2.64.68,5.3,1.25,8.51a77.88,77.88,0,0,0,4.18,14.62,107.93,107.93,0,0,0,6.06,13.23c.44.78.94,1.54,1.43,2.27l.48.72c.83,1.26,1.73,2.54,2.67,3.8a38.82,38.82,0,0,0,4.35,4.87,28.8,28.8,0,0,0,4.55,3.6c1,.64,2.14,1.2,3.21,1.74l.39.19a35.88,35.88,0,0,0,7.34,2.59,52,52,0,0,0,6.15,1l1.51.19c1.78.25,3.6.39,5.36.52l1.64.13c2.94.24,5.66.36,8.34.36,1.66,0,3.31,0,4.91-.14,4.11-.25,8.49-.76,14.18-1.67l2.73-.43c2.37-.32,4.78-.56,7.12-.8,2-.21,4-.41,6-.66,4.32-.54,9.35-1.2,14.28-2.29a54.43,54.43,0,0,0,6.37-1.7c.88-.3,1.75-.62,2.62-.94l.39-.15,1.34-.46c.6-.21,1.21-.41,1.8-.65A54.08,54.08,0,0,0,557.8,222a30.5,30.5,0,0,0,5.63-4.33l.54-.5a16.53,16.53,0,0,0,1.72-1.73,26.13,26.13,0,0,0,2.53-3.63l.56-1,.27-.49a24.56,24.56,0,0,0,1.74-4.27,30.63,30.63,0,0,0,.92-4.12l.06-.32c.21-1.2.38-2.55.54-4.35l.1-1c.1-.94.19-1.89.25-2.84.18-2.63.35-5.2.46-7.76a119.55,119.55,0,0,0-.32-15.29,80.93,80.93,0,0,0-1.23-8.48,45.71,45.71,0,0,0-2.1-6.85c-.89-2.36-1.89-4.72-3-7a38.74,38.74,0,0,0-3.69-6.56,11.38,11.38,0,0,0-1.55-1.75,8.42,8.42,0,0,0-2.5-1.65,7.44,7.44,0,0,0-3-.64,6.88,6.88,0,0,0-1.88.26,15.28,15.28,0,0,0-5,2.65c-.82.62-1.64,1.26-2.45,1.89a19,19,0,0,1-3,1.85,53.42,53.42,0,0,1-6.09,2.09l-.76.23c-1.29.39-2.58.75-3.88,1.12l-2.5.72c-2.15.62-4.29,1.24-6.45,1.82s-4.33,1-6.46,1.34l-.45.09c-4,.73-8.22,1.71-12.82,3-.85.24-1.69.46-2.54.68-1.29.35-2.58.69-3.86,1.06-1.56.46-3.63,1-5.73,1.47a24.7,24.7,0,0,1-2.78.16c-.61,0-1.22,0-1.83-.08a18.55,18.55,0,0,1-3.63-1.16,19.39,19.39,0,0,1-2.69-1.73,12.33,12.33,0,0,1-1.2-1.34,23,23,0,0,1-1.51-3.06,43.76,43.76,0,0,1-1.71-7.93c-.31-3.12-.71-7-.78-10.74a90.42,90.42,0,0,1,.48-11.29v.06c.21-1.77.43-3.59.81-5.35a47.14,47.14,0,0,1,1.56-5.45,58.42,58.42,0,0,1,4.47-8.65c.59-.81,1.19-1.6,1.82-2.37a17.43,17.43,0,0,1,2-2.09,59.15,59.15,0,0,1,10.71-6.33,49,49,0,0,1,9.72-3.23,62.37,62.37,0,0,1,8-.51c1.46,0,2.93,0,4.38.15.93.06,1.85.15,2.77.24a4.72,4.72,0,0,0,1.34.19l1.09.19,1,.18.43.08a36.17,36.17,0,0,1,5.81,1.49c.86.33,1.7.7,2.55,1.07s2,.87,3,1.24a14.55,14.55,0,0,0,2.59.65,22.92,22.92,0,0,1,2.85.74l.16,0,.65.2.64.19a5.43,5.43,0,0,0,1.66.27,4.71,4.71,0,0,0,.53,0l.53-.08.62-.1a6.15,6.15,0,0,0,1.5-.79,8.77,8.77,0,0,0,2.92-4.11c.47-1.18.86-2.42,1.23-3.61l.05-.16c.55-1.77,1-3.61,1.4-5.4l.31-1.33c.44-1.82.81-3.68,1.17-5.49l.26-1.32c.51-2.56,1-5.06,1.37-7.58A150,150,0,0,0,559.6,48a29.2,29.2,0,0,0-.31-5.44,21.56,21.56,0,0,0-1.78-5.6,24.9,24.9,0,0,0-4.07-6.24,20.28,20.28,0,0,0-2-1.86l-.3-.27a24.62,24.62,0,0,0-3.37-2.52A23.6,23.6,0,0,0,541,23.16a82.52,82.52,0,0,0-9.53-1.45c-1.41-.17-2.83-.33-4.24-.52a35.38,35.38,0,0,1-5.51-1.45,3.47,3.47,0,0,0-1.14-.2Z"/><path class="cls-1" d="M510.59,12.15A46.47,46.47,0,0,0,504.17,14a40.81,40.81,0,0,0-6.56,3.17c-1.75,1-3.5,2-5.23,3.07a41.86,41.86,0,0,0-5.12,3.86c-1.77,1.5-3.6,3-5.25,4.7a47.11,47.11,0,0,0-4.24,5.16c-1.49,2-3,4-4.36,6.16-1.23,1.9-2.34,3.89-3.51,5.83-.86,1.43-1.66,2.91-2.53,4.34s-1.77,2.92-2.66,4.37a38.18,38.18,0,0,0-2.5,4.74,62.93,62.93,0,0,0-2.49,7.15,4.94,4.94,0,0,0,3,5.93c2.35.72,4.57-.88,5.3-3.37.44-1.52.93-3,1.46-4.48,1.62-3.71,3.88-6.93,5.87-10.39s3.87-6.82,6-10.06c1.57-2.2,3.15-4.38,4.82-6.47a39.6,39.6,0,0,1,4.92-4.86,52.47,52.47,0,0,1,6.41-4.77c.93-.57,1.87-1.14,2.82-1.69a5.21,5.21,0,0,0-.22,1.54V28c0,.31.08.63.11.94-.74.68-1.47,1.38-2.2,2.07-1.48,1.4-3,2.8-4.45,4.18-.81.74-1.62,1.48-2.42,2.25a11,11,0,0,0-1,1.05,7.11,7.11,0,0,0-1.9,3.34,5.7,5.7,0,0,0,.44,3.71,4.29,4.29,0,0,0,5,2.26,10.31,10.31,0,0,0,1.68-.8,13.55,13.55,0,0,0,2.14-1.79l1.71-1.54c1.28-1.05,2.56-2.09,3.88-3.09,1.49-1.11,3.07-2.1,4.65-3.06.72-.44,1.47-.84,2.22-1.23l.05,0,.1,0h0a4.19,4.19,0,0,0,.69-.29A18.61,18.61,0,0,1,514,35a34,34,0,0,1,7.2.34c2.11.34,4.22.72,6.33,1.12a4.16,4.16,0,0,0,3.31-.49,4,4,0,0,0,.61-.48c.32.1.64.22,1,.34l.64.35c.42.29.84.58,1.28.84a4.12,4.12,0,0,0,5.89-1.73,5.24,5.24,0,0,0,.57-2.06,4.43,4.43,0,0,0,4.34-3.07c1.41,1,2.75,2.18,4.1,3.3,1,.85,2.11,1.61,3.17,2.39.49.36,1,.71,1.49,1.06s.75.47,1.14.69a6.17,6.17,0,0,0,2.87.85,4,4,0,0,0,2.17-.67,5.06,5.06,0,0,0,2-2.87c.88-2.59-.82-4.91-2.3-6.66-.66-.78-1.31-1.57-2-2.33-.85-.92-1.68-1.85-2.57-2.72A20.44,20.44,0,0,0,550.86,20a58.11,58.11,0,0,0-6.62-2.92c-2-.86-4.07-1.89-6.17-2.55l-.7-.21a25.65,25.65,0,0,0-5.27-2.25,16,16,0,0,0-7.55-.22c-2.27-.22-4.54-.39-6.81-.39a34.59,34.59,0,0,0-7.15.69ZM491.83,32.2l-.32.28.32-.28Zm19.47,3.43-.15.08h0l.15-.08Z"/><path class="cls-1" d="M532.71,26.74a4.65,4.65,0,0,0,4.3,4.82c2.8.16,5.59.28,8.38.63a14.91,14.91,0,0,1,2.27.61c.21.12.41.26.62.4a15.15,15.15,0,0,1,1.25,1.49,26.76,26.76,0,0,1,1.83,3.48,26.78,26.78,0,0,1,.83,3.43A37.77,37.77,0,0,1,552,48a84.75,84.75,0,0,1-2.68,11.38c-.61,2.08-1.32,4.12-2,6.19-.3,1-.58,1.92-.85,2.88-.64,2.29-.81,4.73.81,6.6a4.07,4.07,0,0,0,5.57.54q-.25,1.08-.57,2.13c0,.09-.08.18-.13.27v0l-.93.62a18.51,18.51,0,0,0-2.62,2.17,16.05,16.05,0,0,0-2.12,2.71l-.33.43a4.23,4.23,0,0,0-1.47.6,4.83,4.83,0,0,0-2,2.88,5.34,5.34,0,0,0,.43,3.71,4.18,4.18,0,0,0,2.58,2.21,5.59,5.59,0,0,0,3,0c.47-.19.94-.4,1.39-.63a13.78,13.78,0,0,0,1.56-1.3A8,8,0,0,0,552.85,90c.23-.33.47-.67.69-1A13.53,13.53,0,0,1,555,87.38c.43-.31.87-.6,1.31-.88A16.64,16.64,0,0,0,558.06,85a10.71,10.71,0,0,0,2.72-5.27c.59-2.3,1-4.64,1.39-7,.74-4.74,1.45-9.48,2.18-14.22.77-5,1.63-10.25,1.49-15.4,0-1.43-.13-2.83-.29-4.25a29.56,29.56,0,0,0-1.12-5.46,16.52,16.52,0,0,0-2.56-4.91l-.32-.29a4.2,4.2,0,0,0-1.9-1.23,4.08,4.08,0,0,0-2.56-.13,3.73,3.73,0,0,0-1.63.8,17.12,17.12,0,0,0-2.8-2.78,13.06,13.06,0,0,0-6.42-2.22c-2.06-.3-4.12-.46-6.2-.58l-3-.16h-.18c-2.27,0-4.12,2.36-4.12,4.82Z"/><path class="cls-1" d="M637.37,28.49a21.93,21.93,0,0,0-3.66.39l-.32.06c-.52.09-1,.17-1.55.3a29.38,29.38,0,0,0-6.9,2.61,58,58,0,0,0-5.88,3.72A46.82,46.82,0,0,0,613,40.76,30.57,30.57,0,0,0,608.43,47a57.77,57.77,0,0,0-3.09,6.39c-1.06,2.44-2,4.9-2.82,7.07a125.26,125.26,0,0,0-4.73,14.78c-1.51,6.11-2.61,11.15-3.45,15.86a134,134,0,0,0-1.79,15.75c-.32,5.3-.54,10.54-.65,15.59s-.22,10.34-.28,15.62l0,3.2c-.05,4-.09,8.16,0,12.24l0,1.06c0,2.47.1,4.94.17,7.41l0,.79c.06,2.08.12,4.24.36,6.32l.18,1.46c.28,2.43.58,4.95,1,7.41q.65,4.08,1.35,8.14c.67,3.93,1.35,7.87,2.2,11.7l.06.31c.39,1.76.8,3.59,1.37,5.33a60,60,0,0,0,2.53,6.48A53.22,53.22,0,0,0,607,219.6c2.35,3.05,4.47,5.93,6.48,8.78,1.23,1.84,2.43,3.74,3.59,5.59s2.52,4,3.84,5.94l.58.86a44.32,44.32,0,0,0,4.05,5.41,39.48,39.48,0,0,0,3.64,3.46,22.16,22.16,0,0,0,7.33,3.92l1.29.44a43.9,43.9,0,0,0,5.25,1.56c2.47.51,5.13,1,7.81,1.41a71.09,71.09,0,0,0,10,.79c1.37,0,2.72-.05,4-.16,5.5-.46,11.41-2.57,18.06-6.48a64.88,64.88,0,0,0,7.54-5.27,82.46,82.46,0,0,0,7.9-6.89,157.42,157.42,0,0,0,10.86-12.77c3.09-3.94,6-8.2,8.69-12.23a71.59,71.59,0,0,0,4.89-8.18c.8-1.63,1.49-3.36,2.15-5l.4-1,.37-.9c.37-.92.74-1.84,1.09-2.76,1.8-4.58,3.85-9.93,5.43-15.39l.19-.66a57.53,57.53,0,0,0,1.64-6.55c.56-3.29.95-5.86,1.26-8.32.65-5.15,1.1-10.36,1.39-15.94.1-2,0-4.06,0-6.05,0-.59,0-1.19,0-1.78,0-1.49-.08-3-.12-4.47l-.09-3.31v-.16l-.18-7.23,0-1.65c0-1.95-.07-4-.21-5.94a78.21,78.21,0,0,0-1.1-8.86,52.8,52.8,0,0,0-1.83-6.66c-.75-2.33-1.62-4.78-2.74-7.71-.92-2.4-1.76-4.55-2.76-6.69-.78-1.66-1.7-3.26-2.58-4.81l-.54-1c-.78-1.37-1.52-2.76-2.26-4.16l-1.06-2a61.43,61.43,0,0,0-3.91-6.42,70.28,70.28,0,0,0-4.45-5.45l-.13-.14c-1.91-2.18-3.92-4.33-5.85-6.4q-1.59-1.69-3.15-3.39a101.18,101.18,0,0,0-11.09-10.52,59.15,59.15,0,0,0-11.3-7c-2.94-1.44-5.61-2.65-8.18-3.69a34,34,0,0,0-4-1.26l-1.68-.47c-.8-.22-1.6-.45-2.4-.65a63.46,63.46,0,0,0-9.48-1.65,34.53,34.53,0,0,0-3.51-.18h-.85a36.88,36.88,0,0,0-4.61.44l-.13,0v0c-1.12-.3-2.25-.59-3.38-.86a33.29,33.29,0,0,0-4.94-.71c-.26,0-.53,0-.8,0Zm4.26,97.25.11-.94a58.6,58.6,0,0,1,2-11.16,37.68,37.68,0,0,1,3-5.33l.35-.55a20.84,20.84,0,0,1,2.42.78,13.06,13.06,0,0,1,1.87,1.22,16,16,0,0,1,1.12,1.2c0,.1.09.2.13.31a38.21,38.21,0,0,1,1.39,6.07c.1,1.43.16,2.86.21,4.3,0,1,.05,2.1.07,3.14v1.16a12.68,12.68,0,0,0,.36,4,7.64,7.64,0,0,0,.37.94c.1,2.42.17,4.84.23,7.26a155.39,155.39,0,0,1-.43,18.35,48.9,48.9,0,0,1-2.2,9.33l-1,2.56c-.81,2.14-1.49,3.87-2.26,5.59l-.36.81a12.25,12.25,0,0,1-1.25.76c-.2.08-.41.15-.63.22a11,11,0,0,1-1.06-.36,13.68,13.68,0,0,1-1.86-1.2,15.05,15.05,0,0,1-1.3-1.46,18.62,18.62,0,0,1-1.17-2.26,29.1,29.1,0,0,1-1.08-3.49c-.33-1.42-.61-2.91-.89-4.71a84.51,84.51,0,0,1-.38-8.61c0-2.84.21-5.73.38-8.52l.06-.89c.36-5.94,1-11.94,1.64-17.74l.09-.77v0Z"/><path class="cls-1" d="M787,0h-.24C784.4,0,782,.08,780,.16l-2.5.11c-3.59.15-7.3.3-11,.38-2.15,0-4.25.11-6.35.31-1.39.13-2.78.31-4.17.49l-2.3.29c-1.34.16-2.68.3-4,.4l-.76,0a9.38,9.38,0,0,0-3.75,1,9.73,9.73,0,0,0-4.26,5,21.74,21.74,0,0,0-1.23,6.2l-.09.9c-.06.66-.13,1.31-.17,2-.15,2.22-.23,4.21-.24,6.07s0,3.47.07,5.05l0,1.09c.06,1.55.13,3.15.29,4.72v.17c.25,2.33.5,4.74.95,7.08a14.88,14.88,0,0,0,1,3c.23,2.74.47,5.48.74,8.22.42,4.31.74,9,1,14.77.48,10.17,1,21,2.05,31.79l.06.54a5,5,0,0,0,.14,1.12,4.64,4.64,0,0,0,.13,1.16l.06.43.06.49a4.4,4.4,0,0,0,.11,1.08,5.06,5.06,0,0,0,.11.86l.16,1.44c.45,4,.92,8.24,1.32,12.37.5,5.06.93,10.46,1.32,16.5.15,2.4.33,4.8.51,7.2.2,2.76.41,5.51.58,8.27.33,5.22.51,10.51.67,15.17.18,5.34.47,10.75.76,16,.27,4.81.54,9.79.72,14.69.2,5.14.73,10.18,1.28,14.85a76.56,76.56,0,0,0,2.94,15,25,25,0,0,0,1.56,3.85c.43.8.92,1.68,1.57,2.76l.33.57a13.19,13.19,0,0,0,1,1.62,8.94,8.94,0,0,0,3.53,2.61,22.71,22.71,0,0,0,6,1.37,21.52,21.52,0,0,0,2.57.15,36.36,36.36,0,0,0,11.88-2.38c.92-.32,1.84-.68,2.75-1s2.14-.84,3.23-1.2,2-.6,3-.88a8.69,8.69,0,0,0,4-2.37,17,17,0,0,0,3.25-5.13c1.6-4,1.9-8.4,2.18-12.68l0-.28c.18-2.66.25-5.34.21-8.19-.06-4.46-.27-9.19-.65-14.46-.34-4.72-.63-9.75-.93-15.84-.08-1.74-.15-3.48-.21-5.23-.13-3.24-.26-6.59-.49-9.89l-.07-1c-.18-2.48-.36-5-.68-7.53-.14-1.13-.32-2.26-.49-3.38-.14-.93-.28-1.86-.41-2.8s-.18-1.77-.26-2.66l.12.22h0c.86,1.51,1.62,3.15,2.35,4.73l.5,1.07c.76,1.62,1.55,3.39,2.42,5.42,1.16,2.72,2.34,5.43,3.51,8.14,2.18,5,4.43,10.2,6.55,15.35,1.07,2.87,1.84,5.1,2.5,7.23.74,2.36,1.4,4.77,2,7.11l.37,1.33c.9,3.34,1.73,6.08,2.6,8.62.66,1.93,1.45,3.84,2.22,5.68.4,1,.81,2,1.2,2.94.86,2.39,1.75,4.78,2.66,7.15.33.88.72,1.8,1.18,2.82l.29.58.1.2.4.71c.36.54.73,1.07,1.1,1.6a12.78,12.78,0,0,0,4.87,3.28,22.06,22.06,0,0,0,4.49,1.17,38.77,38.77,0,0,0,4.05.59c1.2.1,2.45.14,3.71.14q1.59,0,3.18-.09a45.18,45.18,0,0,0,7.48-1,39.9,39.9,0,0,0,6.32-1.8c.68-.27,1.36-.56,2-.84,1.32-.55,2.68-1.13,4-1.61a27.06,27.06,0,0,1,2.95-.83c.48-.11,1-.21,1.45-.28a7.83,7.83,0,0,0,1.27-.29,6.71,6.71,0,0,0,2.71-1.9,7,7,0,0,0,1.28-2.18,11.24,11.24,0,0,0,.79-2.78,21.14,21.14,0,0,0,.17-3.56c0-1.13-.15-2.27-.27-3.37l-.06-.56c-.15-1.25-.32-2.8-.61-4.27s-.62-2.82-.92-4c-.94-3.77-2.23-7.48-3.47-11.07l-.85-2.47c-1.23-3.59-2.4-7.26-3.54-10.81l-1-3a65.82,65.82,0,0,0-3-7.87c-.75-1.6-1.65-3.15-2.53-4.64l-.81-1.39a62.8,62.8,0,0,1-3.34-6.52c-.7-1.61-1.35-3.23-2-4.85l-.79-2A105.55,105.55,0,0,0,853,131.82c-.47-.83-.95-1.65-1.43-2.48-.72-1.25-1.45-2.5-2.15-3.78l-.61-1.12c-1-1.78-2-3.62-3.12-5.33a36.14,36.14,0,0,0-5-6c-.94-.9-1.94-1.76-2.9-2.6-.61-.52-1.22-1.05-1.82-1.59l-.73-.65-.81-.72a28,28,0,0,0,2.57-2.28,22.82,22.82,0,0,0,3.74-5.58c.46-.86.86-1.78,1.25-2.66l.19-.44a79,79,0,0,0,2.82-7.83,54.56,54.56,0,0,0,1.59-7.47c.44-2.76.68-5.64.89-8.18a69.11,69.11,0,0,0,.19-7.55,56.39,56.39,0,0,0-2.21-15c-.51-1.69-1.07-3.37-1.63-5L843.38,44l-.13-.4c-.71-2.14-1.44-4.35-2.22-6.49-.46-1.29-1-2.6-1.57-4a29.38,29.38,0,0,0-4.17-6.8c-1.59-2-3.13-3.85-4.7-5.57a109.17,109.17,0,0,0-11-10.26,48.82,48.82,0,0,0-18.45-8.67L801,1.71a57.06,57.06,0,0,0-7.4-1.26A60.69,60.69,0,0,0,787,0ZM786,73.48c-.23,0-.45,0-.68,0a8.73,8.73,0,0,1-1-.3l-.2-.13c0-.21-.1-.42-.14-.63a59.09,59.09,0,0,1,.45-8.42l.08-.88q.38-3.71.78-7.4l.13-1.21.75-.45a11.12,11.12,0,0,1,1.51-.5l.57,0,.76,0a14.3,14.3,0,0,1,2,.62A20.06,20.06,0,0,1,793.8,56a12.21,12.21,0,0,1,1,1.13,18.16,18.16,0,0,1,.93,1.76,39.48,39.48,0,0,1,1.46,6.38,24.63,24.63,0,0,1,.07,3.38c-.07.34-.15.68-.24,1l-.16.33a2.66,2.66,0,0,1-.36.41c-.45.16-.9.27-1.35.39l-1.1.3c-.8.25-1.59.5-2.38.78l-1,.35A28.72,28.72,0,0,1,787,73.43c-.33,0-.65,0-1,0Z"/><path class="cls-1" d="M911.61.49h-.53a29.26,29.26,0,0,0-4.29.55,31.28,31.28,0,0,0-6.29,2.05l-.18.07c-2.59,1-5.16,2.29-7.64,3.5l-.77.37c-1.57.67-3.21,1.2-4.8,1.71l-1.26.41-.81.27-2.43.79a20.53,20.53,0,0,0-3,1.26,13.4,13.4,0,0,0-2.45,1.73l-.48.39a5.17,5.17,0,0,0-2,2.89,5.37,5.37,0,0,0,.43,3.72,5.14,5.14,0,0,0,.84,1.16,5.1,5.1,0,0,0-2.13,5.53c1.47,6.5,2.86,13.34,4.15,20.32,1.26,6.82,2.2,12.51,2.94,17.9.45,4.53.83,9.15,1.19,13.61.41,5.15.84,10.47,1.39,15.69.34,3.29.62,6.63.89,9.86q.24,2.92.5,5.86c.17,1.83.32,3.66.48,5.49.24,2.93.5,6,.8,8.94.58,5.52,1,10.65,1.36,15.71.16,2.37.37,4.73.58,7.09.23,2.54.46,5.16.62,7.74.32,4.93.73,9.92,1.12,14.75l.07.91c.4,5,.59,9.83.78,15.22.06,1.73.1,3.45.14,5.18l0,2.21c.06,2.38.24,4.8.42,7.14s.31,4.38.44,6.56c.17,2.74.35,5.57.59,8.36s.51,5.72.88,8.6l0,.29a17.52,17.52,0,0,0,1.26,5.32,10.6,10.6,0,0,0,3.26,4,18,18,0,0,0,4.28,2.14c3.36,1.28,6.75,1.42,10.83,1.47l2.83,0h4.18a97.14,97.14,0,0,0,13.51-.82,86.46,86.46,0,0,0,14-3,52.17,52.17,0,0,0,12.09-6.22l1.85-1.18c1.18-.75,2.35-1.5,3.51-2.28a49.25,49.25,0,0,0,6.27-4.77,39.32,39.32,0,0,0,4.64-5.2,10.19,10.19,0,0,0,.63-.88l.46-.66a5.78,5.78,0,0,0,.68-1l.82-1.22c.63-.93,1.22-1.93,1.83-3.05a66,66,0,0,0,3.06-6.61c1.86-4.57,3.45-9.32,5-13.92l.42-1.23c.55-1.66,1.13-3.31,1.7-5,.94-2.68,1.92-5.47,2.78-8.24l.19-.61a63.92,63.92,0,0,0,1.81-6.63q.74-3.75,1.41-7.52c.82-4.6,1.56-9.48,2.33-15.37.43-3.28.76-6.21,1-9a57.25,57.25,0,0,0,.15-6.28V125.2c0-2.39-.19-4.8-.36-7.14l0-.36c-.2-2.7-.4-5.39-.65-8.08-.23-2.47-.59-5.13-1.11-8.11-.13-.76-.31-1.52-.49-2.28-.09-.37-.18-.75-.26-1.13-.17-.72-.32-1.45-.47-2.17l-.31-1.4c-.54-2.5-1-5.06-1.5-7.53s-1-5.29-1.6-7.92a70.62,70.62,0,0,0-5.11-14c-.86-1.83-1.74-3.65-2.62-5.47l-.29-.6c-.76-1.57-1.49-3.16-2.22-4.76l-.91-2L981,50a103.9,103.9,0,0,0-5.31-10.54c-.09-.15-.19-.3-.29-.44a3.19,3.19,0,0,0-.3-.42,5.73,5.73,0,0,0-.49-.73,16.65,16.65,0,0,0-1.79-2.28l-.2-.22A30.57,30.57,0,0,0,970,32.79c-1.75-1.57-3.64-3-5.46-4.42l-.58-.45c-1.86-1.43-3.7-2.87-5.55-4.32s-4-3.13-6-4.67a90.72,90.72,0,0,0-11.74-7.39c-3.5-1.92-7.28-3.85-12.26-6.26l-.4-.19a59.73,59.73,0,0,0-6.34-2.79A35.25,35.25,0,0,0,914.27.65a21.46,21.46,0,0,0-2.66-.16Zm22.1,142.65c-.17-1.56-.34-3.11-.54-4.66l0-.2a33.44,33.44,0,0,0-.68-4l-.41-1.52c-.25-1-.51-1.9-.74-2.87a36.15,36.15,0,0,1-.6-3.63c-.41-3.89-.93-7.79-1.42-11.56l-.29-2.2c-.28-2.39-.57-4.73-1-7.06s-.88-4.76-1.34-7.13l-.45-2.3a30.9,30.9,0,0,1,3.44,2.41c.46.43,1,.94,1.49,1.51s1,1.26,1.48,1.9a17.11,17.11,0,0,1,1.49,2.63l.1.22c.19.45.37.9.56,1.36a60.13,60.13,0,0,1,2.27,9.79c.23,2.57.33,5.11.4,7.26,0,1.28.06,2.57.07,3.86s-.12,2.37-.23,3.52a51.7,51.7,0,0,1-1.87,9.06,34.31,34.31,0,0,1-1.73,3.57Z"/></g></g></svg>