<svg xmlns="http://www.w3.org/2000/svg" viewBox="0 0 1627.85 243.42"><defs><style>.cls-1{fill:#fff;}</style></defs><g id="Layer_2" data-name="Layer 2"><g id="Draw_Layer" data-name="Draw Layer"><path class="cls-1" d="M1136.06,0h-.6a39.55,39.55,0,0,0-5.62.58,33.62,33.62,0,0,0-4.79,1.13,29,29,0,0,0-3,1.13,24.09,24.09,0,0,0-4.5,2.79c-1.24.93-2.44,1.89-3.54,2.85a41.18,41.18,0,0,0-3.75,3.59c-.77.88-1.76,2-2.67,3.25-.4.54-.81,1.08-1.23,1.61A16.85,16.85,0,0,0,1104,21.1c-.25.61-.49,1.23-.73,1.84l-.65,1.64a2.85,2.85,0,0,0-2.13,1.87c-.47,1.78-.94,3.68-1.48,6l-.35,1.48-.35,1.5-.1.44a8.63,8.63,0,0,0-.2.88c-.14.84-.29,1.68-.44,2.52-.39,2.19-.8,4.46-1.06,6.71l-.22,1.88-.41,3.55c-.13,1.07-.2,2.15-.27,3.2,0,.5-.06,1-.1,1.5-.1,1.17-.15,2.32-.19,3.69l-.06,1.39c0,1-.1,2-.08,3,.09,6,.27,12.17.53,18.85.15,3.7.4,7.46.64,11.1.14,2.11.29,4.22.41,6.33.18,3.13.34,6.27.49,9.4l.09,1.87c.1,2.16.2,4.39.39,6.58.21,2.45.4,4.91.6,7.37.27,3.53.55,7.18.9,10.76.32,3.18.61,6.37.89,9.56.19,2.08.44,4.19.68,6.23.11.87.21,1.75.31,2.62.29,2.58.49,5.21.68,7.75l.09,1.16c.22,2.87.48,5.78.79,8.67s.57,5.72.88,9.29c.17,1.86.39,3.74.61,5.57.13,1.12.27,2.25.39,3.37.27,2.59.52,5.34.75,8.41.26,3.61.53,6.38.87,9l.13,1c.32,2.43.64,5,.81,7.42,0,.55.06,1.09.09,1.63.06,1.07.12,2.17.24,3.25a8.13,8.13,0,0,0,.79,3,7.87,7.87,0,0,0,2,2.37,11.38,11.38,0,0,0,2.77,1.6,30.23,30.23,0,0,0,3.87,1.3,34.67,34.67,0,0,0,8.36,1.18l1.55,0c1.11,0,2.27,0,3.76-.13,2.81-.16,5.65-.53,8.39-.88l2.54-.33c1.9-.19,3.46-.3,4.89-.35.75,0,1.49,0,2.24-.05h.31a22.79,22.79,0,0,0,3.17-.25,7.51,7.51,0,0,0,3.49-1.62,7.3,7.3,0,0,0,1-1l.14-.17a11.15,11.15,0,0,0,.86-1.11,18.89,18.89,0,0,0,1.41-2.62l.07-.14a26,26,0,0,0,2.12-5.94,30.34,30.34,0,0,0,.17-8.4l0-.28-.11-1.48c-.4-5.38-.82-10.93-1.08-16.4-.27-5.68-.34-11.29-.4-17.52,0-1.79,0-3.58,0-5.37,0-4.4,0-8.95-.19-13.42-.07-2.21-.21-4.46-.34-6.63l-.15-2.42c-.18-2.92-.32-5.84-.45-8.75-.31-6.93-.48-12.55-.55-17.68v-1.1c.2.48.41.95.61,1.43.37.86.72,1.73,1.07,2.6.21.53.42,1.05.64,1.57.56,1.38,1.15,2.71,1.75,4l.33.68c.6,1.26,1.23,2.56,2,3.79,1.41,2.39,3.06,4.91,5,7.71,1.34,1.89,2.64,3.81,3.94,5.72l1.36,2c2.94,4.32,5.54,8.88,8,13.3l1.25,2.19c1.55,2.71,3.15,5.52,4.85,8.23,1.06,1.71,2.16,3.39,3.25,5.08.54.83,1.08,1.65,1.61,2.48,3.16,4.9,6.59,9.67,10.12,14.52.52.72,1,1.43,1.57,2.14,1.14,1.53,2.31,3.11,3.38,4.71l.35.52c1.41,2.1,2.87,4.27,4.07,6.51.53,1.26,1,2.46,1.34,3.66l.06.22a15.86,15.86,0,0,0,2.68,5.81,10.77,10.77,0,0,0,1.27,1.25,12.32,12.32,0,0,0,1.09.75l.39.24a13.59,13.59,0,0,0,2.78,1.23l.16.06a31.45,31.45,0,0,0,5.62,1.42c1.71.28,3.74.59,5.85.82,6.6.72,13.11.94,20.86,1.06h.52l1.55,0h1.49a24.56,24.56,0,0,0,3.27-.27,6.44,6.44,0,0,0,4.87-3.45,9.52,9.52,0,0,0,.92-2.61,13.14,13.14,0,0,0,.17-3.29,33.72,33.72,0,0,0-2.76-10.31c-1-2.68-2.35-5.52-4.07-8.93-1.29-2.57-2.69-5.19-4.16-7.79l-1-1.74c-1.14-2.05-2.33-4.16-3.58-6.2-1.65-2.67-3.37-5.34-5.28-8.14-.87-1.28-1.75-2.54-2.63-3.8s-1.76-2.53-2.63-3.8-1.65-2.39-2.47-3.58-1.8-2.57-2.68-3.87c-1.39-2-2.84-4.09-4.25-6.08s-3-4.18-4.4-6.3c-1.23-1.8-2.46-3.75-3.88-6.12-1.32-2.19-2.47-4.24-3.54-6.25l-1.86-4-1.85-4c-.61-1.32-1.27-2.63-1.92-3.91l-.43-.84a40.85,40.85,0,0,0-2-3.57c-1.24-1.94-2.62-3.85-4-5.7l-1.15-1.59c-1-1.42-1.93-2.92-2.82-4.37-.62-1-1.24-2-1.89-3a45.35,45.35,0,0,0-3.39-4.32c-.48-.57-.91-1.11-1.34-1.65l-.51-.64-.93-1.16.23-.08,1-.4c.76-.32,1.51-.66,2.3-1a36.18,36.18,0,0,0,4.65-2.83,18.27,18.27,0,0,0,1.47-1.16l.21-.18c.67-.58,1.32-1.16,2-1.76a30.71,30.71,0,0,0,3.29-3.59,40.07,40.07,0,0,0,2.68-3.93c.26-.42.48-.87.71-1.31.11-.23.23-.46.35-.69.32-.6.6-1.2.89-1.8l.37-.78.24-.49c.53-1.08,1.07-2.21,1.56-3.33.29-.68.58-1.35.83-2s.49-1.47.71-2.27a34.64,34.64,0,0,0,.81-4l.18-1.1c.21-1.25.43-2.54.54-3.82a37.91,37.91,0,0,0,.19-5.4,20.49,20.49,0,0,0-2.58-8.45l-.11-.2c-.31-.58-.63-1.17-1-1.74s-.94-1.39-1.4-2a18.44,18.44,0,0,0-1.36-1.59l-.35-.38c-.61-.66-1.22-1.31-1.86-2a35.61,35.61,0,0,0-3.23-2.95c-1.34-1.05-2.71-2.07-4.07-3.09-2.78-2.08-5.13-3.75-7.42-5.26-1-.65-2-1.32-2.94-2-1.75-1.21-3.57-2.45-5.44-3.58-1.31-.79-2.7-1.59-4.27-2.45-.79-.44-1.59-.86-2.39-1.28-.58-.3-1.18-.56-1.77-.83l-.56-.25a87,87,0,0,0-9.79-3.49l-.38-.11c-2.91-.91-5.92-1.68-8.83-2.43l-1-.26c-3-.77-6.07-1.47-9-2.15l-.95-.22-1.75-.41c-2.71-.63-5.5-1.28-8.33-1.7a35.46,35.46,0,0,0-5-.35Zm13.47,74.17c-1.24,0-2.5-.07-3.88-.18a14.67,14.67,0,0,1-2.18-.46,7.65,7.65,0,0,1-1-.46,1.24,1.24,0,0,1-.22-.18l-.09-.13c-.06-.18-.12-.36-.17-.54a26.44,26.44,0,0,1,.06-4.45l.05-.85c.11-1.66.23-3.33.36-5,.31-3.93.72-7.91,1.13-11.77a2.23,2.23,0,0,0-.52-1.5c.37,0,.76.06,1.16.09a3.79,3.79,0,0,0,1.18.38,2.48,2.48,0,0,0,.29,2.14c.69,1.08,2,1.46,3.3,1.82l.26.07c.33.09.66.2,1,.3s.8.35,1.19.55l.67.31c.32.15.64.29.93.45.74.41,1.46.86,2.15,1.3l.23.14a21.36,21.36,0,0,1,2.84,2.45c.36.42.71.84,1,1.28a13,13,0,0,1,1,1.69l0,.08c.29.64.63,1.4.9,2.19a22.64,22.64,0,0,1,.69,2.68,26.46,26.46,0,0,1,.09,3.56l0,.49-.14.11a29.47,29.47,0,0,1-4.52,2.35,27.67,27.67,0,0,1-4.51.93c-1,.07-2.05.15-3.13.15Zm-14-4.94-.36-.64c-.36-.79-.68-1.59-1-2.43a27.49,27.49,0,0,1-.06-3.59c.13-2.12.32-4.08.58-6a23.81,23.81,0,0,1,1.5-5.34,9.37,9.37,0,0,1,.89-1.31l.12-.11a1.36,1.36,0,0,0-.07.35c-.65,6.17-1.31,12.55-1.61,19v.1Zm19,10.29c-.41,0-.81,0-1.21,0a31.23,31.23,0,0,0,4.87-.76l.81-.22c-.35.15-.7.31-1.07.45a14.45,14.45,0,0,1-2.23.53c-.39,0-.78,0-1.17,0Z"/><path class="cls-1" d="M794.14,8.69c-.94,0-2,0-3.22.08l-1.25,0c-1,0-1.95,0-2.92.14-1.38.12-2.76.25-4.14.4-1.58.16-3.18.38-4.73.6-2.54.34-5.2.77-8.41,1.35-1.72.3-3.46.59-5.17.84s-3.33.41-5.44.62c-1.2.11-2.4.29-3.42.44a16.39,16.39,0,0,0-2.76.69c-.44.15-.88.33-1.31.51l-.42.18-.09,0-.1,0h0a2.78,2.78,0,0,0-1.72.55,11,11,0,0,0-1.32,1.16l-.69.73-.44.46a2.56,2.56,0,0,0-1.2.67,2.8,2.8,0,0,0-.76,1.81l-.55,5L743.53,30c-.16,1.44-.34,2.87-.52,4.3s-.33,2.72-.49,4.09c-.58,5.22-.95,10.63-1.1,16.07C741.11,66.18,741,78,741,89v2.16c0,4.61,0,9.38-.29,14.07-.33,5.66-.56,11.41-.71,17.58,0,.71,0,1.42-.05,2.12,0,1.75-.07,3.55-.15,5.32q-.22,4.48-.47,9-.18,3.17-.31,6.34l-.1,2.11c-.12,2.6-.31,5.17-.51,7.8-.15,1.94-.27,3.87-.4,5.81-.23,3.53-.47,7.18-.81,10.76-.29,2.9-.5,5.85-.7,8.71-.19,2.55-.38,5.19-.62,7.78v.18c-.24,2.6-.49,5.3-.58,8,0,1.32,0,2.66,0,3.9,0,.73.09,1.47.14,2.15s.17,1.45.34,2.36a11.21,11.21,0,0,0,.92,2.65,9.33,9.33,0,0,0,1.17,1.9,6.32,6.32,0,0,0,.89,1,10.69,10.69,0,0,0,1.16.85,12.41,12.41,0,0,0,2.35,1.13l.38.14c.36.15.74.27,1.11.39l.34.11c1.15.38,2.38.75,3.87,1.16l1.36.39c.87.25,1.73.5,2.6.72s1.51.38,2.27.57l1.43.34c1.93.49,3.87,1,5.75,1.54l2.24.62,1.11.3c2.2.6,4.48,1.23,6.74,1.76a74.65,74.65,0,0,0,8.26,1.31l.87.1c1,.13,2.08.25,3.13.29l.51,0h.8a12,12,0,0,0,2.24-.24l.17-.06.17-.07a2.79,2.79,0,0,0,.94-.48,6.11,6.11,0,0,0,1.1-1,13.22,13.22,0,0,0,1.7-2.59c.37-.69.7-1.4,1-1.95a27.1,27.1,0,0,0,1-2.58,22.61,22.61,0,0,0,.69-3c.25-1.4.44-2.84.64-4.22l.28-2c.29-2.1.58-4.2.85-6.3s.61-4.15.91-6.23q.49-3.45,1-6.88c.22-1.53.41-3.09.6-4.59l.24-1.93q.42-3.35.84-6.64c.65-4.67,1.43-10.2,2.35-15.82.55-3.4,1-6,1.31-8.45l.45-3c.28-1.82.56-3.69.8-5.54.29-2.19.53-4.53.79-7.6.13-1.46.28-2.92.43-4.38.08-.84.17-1.69.25-2.53.38-4,.84-8.6,1.41-13.16l.76,2.91c.39,1.45.77,2.9,1.15,4.35l.42,1.59c.53,2,1.07,4.13,1.66,6.19.69,2.44,1.56,4.88,2.41,7.23l.1.31a235,235,0,0,1,9.3,31.64c.9,4.31,2,10,2.92,15.77l.32,2.12c.71,4.74,1.45,9.64,2.38,14.43.31,1.6.71,3.22,1.09,4.78.19.79.38,1.57.56,2.35.25,1.1.6,2.19.94,3.25l.1.31c.23.7.49,1.41.83,2.21a8.58,8.58,0,0,0,.75,1.42,5.73,5.73,0,0,0,1.89,1.77,8.37,8.37,0,0,0,1.91.76,15.6,15.6,0,0,0,2,.49c1.33.21,2.44.38,3.61.45q.39,0,.78,0c.57,0,1.14,0,1.71-.07l.41,0a19.52,19.52,0,0,0,2.27-.24l2-.33c1.79-.29,3.64-.59,5.47-.84,2.37-.28,5.16-.59,7.93-.73,1.17-.06,2.24-.09,3.27-.09h1.09c1.09,0,2.24.11,3.76.28,1.19.21,2.44.47,3.82.78l1.86.46c.84.21,1.67.42,2.52.6a8.21,8.21,0,0,0,1.77.2,5.53,5.53,0,0,0,3.21-1,12.75,12.75,0,0,0,2.56-2.31,21.66,21.66,0,0,0,1.58-2.05,5.21,5.21,0,0,0,.57-1.23,12.5,12.5,0,0,0,.31-1.27c.17-.87.29-1.75.38-2.51l0-.15c.07-.59.14-1.21.18-1.83s.06-1.4.07-2.33a29.42,29.42,0,0,0-.21-3.8,79.05,79.05,0,0,0-1.39-8.5c-.13-.6-.27-1.2-.41-1.8s-.28-1.18-.41-1.77l-1-4.61c-.21-1-.39-2-.56-3-.09-.5-.18-1-.28-1.5l-.11-.63c-.16-.83-.32-1.66-.46-2.5l-.36-2.09c-.88-5.12-1.79-10.42-2.8-15.61-.58-3-1.13-5.59-1.68-8-.25-1.14-.56-2.29-.86-3.39l-.18-.7c-.1-.35-.22-.71-.34-1.06l-.16-.44-.38-1.17-.39-1.15c-.12-.36-.26-.71-.4-1.06l-.18-.47-.48-1.24-.49-1.26c-.36-.94-.74-1.87-1.13-2.8l-.5-1.22c-.88-2.14-1.8-4.49-2.9-7.4-1.77-4.69-3.46-9.77-5.14-15.53-.79-2.71-1.58-5.35-2.53-7.94-.87-2.4-1.92-5-3.27-8.18-.77-1.81-1.57-3.61-2.36-5.41-2.16-5.19-4.27-10.27-6.56-15.33-.58-1.29-1.21-2.58-1.81-3.83-.53-1.09-1.06-2.17-1.56-3.27-1-2.25-2.06-4.56-3-6.79l-.31-.71c-.9-2-1.89-4.08-2.84-6.05l-.44-.9c-.45-.94-.92-1.87-1.39-2.8-.74-1.47-1.51-3-2.2-4.52-1-2.24-2.12-4.48-3.19-6.65L835,35.4c-1.18-2.4-2.36-4.79-3.52-7.19-.23-.47-.45-.94-.67-1.41-.32-.7-.65-1.39-1-2.08-.61-1.22-1.28-2.42-2-3.55a25.54,25.54,0,0,0-2.68-3.54A20.26,20.26,0,0,0,822,14.87c-.47-.35-.94-.67-1.43-1a19.84,19.84,0,0,0-3-1.66c-.83-.36-1.66-.72-2.5-1.05a18.77,18.77,0,0,0-2.82-.79l-.56-.12c-1.28-.3-2.6-.46-3.88-.63l-.71-.09c-1.11-.14-2.3-.26-3.63-.36l-.4,0c-2.67-.21-5.43-.41-8.16-.45Zm2.29,65.7c-.61,0-1.22,0-1.83,0-1.74-.08-3.57-.23-5.75-.46a24.52,24.52,0,0,1-5-1.11,12.06,12.06,0,0,1-1.17-.65l-.12-.13,0-.13a16.73,16.73,0,0,1,.14-3c.64-3.75,1.36-7.1,2.21-10.25l.75-2.78,0-.09c.19-.68.41-1.36.63-2,.1-.33.21-.65.31-1,.42-1.32.89-2.64,1.3-3.77l.22.06.22.06.17,0a7.36,7.36,0,0,1,.92.25l.27.09a3,3,0,0,0,1.07.26c.6.73,1.22,1.47,2,2.24,1,1,2,2.25,3.15,3.66a48.64,48.64,0,0,1,5.37,8.71,23.89,23.89,0,0,1,1.43,5,14.9,14.9,0,0,1,.05,2.48,7.72,7.72,0,0,1-.26,1,2.5,2.5,0,0,1-.23.39,5,5,0,0,1-.4.4,6.71,6.71,0,0,1-.68.4c-.24.07-.48.13-.73.18-.87.09-1.76.12-2.63.14l-.49,0Z"/><path class="cls-1" d="M1343.39,2.28c-1,0-2.08,0-3.4.08l-1.33,0c-1,0-2.07.06-3.1.16-1.46.13-2.92.26-4.38.42-1.68.17-3.37.41-5,.63-2.69.37-5.5.82-8.9,1.43-1.82.33-3.67.63-5.48.9s-3.52.42-5.76.65c-1.27.12-2.54.31-3.62.47a16.74,16.74,0,0,0-2.93.73c-.46.16-.92.35-1.38.54l-.44.19-.11,0-.1,0h0a3,3,0,0,0-1.82.58,11.52,11.52,0,0,0-1.4,1.24c-.25.25-.49.5-.73.76l-.46.49a2.72,2.72,0,0,0-1.28.72,3,3,0,0,0-.8,1.91l-.58,5.25-.59,5.25c-.17,1.52-.36,3-.54,4.55s-.36,2.88-.52,4.33c-.62,5.53-1,11.26-1.17,17-.33,12.47-.41,25-.46,36.59v2.28c0,4.89,0,10-.31,14.91-.34,6-.58,12.09-.75,18.62,0,.75,0,1.5,0,2.25,0,1.84-.08,3.75-.17,5.62-.15,3.18-.32,6.35-.5,9.53-.12,2.23-.22,4.47-.33,6.71l-.1,2.23c-.13,2.76-.33,5.49-.54,8.27q-.22,3.07-.42,6.15c-.25,3.74-.5,7.6-.87,11.39-.29,3.08-.52,6.21-.74,9.23-.19,2.7-.39,5.49-.65,8.24v.19c-.26,2.76-.52,5.61-.61,8.43,0,1.4,0,2.81,0,4.13,0,.78.09,1.55.15,2.28s.18,1.53.36,2.49a11.74,11.74,0,0,0,1,2.82,9.81,9.81,0,0,0,1.24,2,6.59,6.59,0,0,0,1,1.07,10.71,10.71,0,0,0,1.22.91,13.58,13.58,0,0,0,2.49,1.19l.4.15c.39.16.78.28,1.18.41l.36.12c1.22.4,2.52.79,4.1,1.23l1.44.41c.91.27,1.83.53,2.75.77s1.6.4,2.41.59l1.51.37c2,.51,4.1,1.08,6.09,1.63l2.37.66,1.17.32c2.34.63,4.75,1.29,7.15,1.85a77,77,0,0,0,8.75,1.4l.91.1c1.09.13,2.21.27,3.32.31l.54,0h.85a12.59,12.59,0,0,0,2.37-.25l.18-.07.18-.07a3.16,3.16,0,0,0,1-.51,6.8,6.8,0,0,0,1.16-1.06,14.31,14.31,0,0,0,1.8-2.74c.39-.73.74-1.49,1-2.06a28.83,28.83,0,0,0,1.08-2.74,21.94,21.94,0,0,0,.73-3.14c.27-1.48.48-3,.68-4.47l.3-2.16c.31-2.22.62-4.44.91-6.67s.64-4.4.95-6.59q.53-3.66,1.06-7.29c.24-1.62.44-3.27.64-4.86.08-.68.16-1.37.25-2,.3-2.36.6-4.69.89-7,.69-4.95,1.52-10.81,2.49-16.76.58-3.6,1-6.36,1.39-9,.15-1.07.32-2.14.48-3.21.29-1.92.59-3.91.85-5.87.3-2.32.56-4.8.83-8,.14-1.55.29-3.1.45-4.64l.27-2.68c.4-4.21.89-9.11,1.49-13.94l.81,3.08c.41,1.54.82,3.07,1.22,4.61l.44,1.68c.56,2.15,1.14,4.38,1.76,6.55.73,2.59,1.66,5.17,2.55,7.67l.11.32a248.39,248.39,0,0,1,9.84,33.52c1,4.55,2.17,10.57,3.1,16.69l.34,2.25c.75,5,1.54,10.21,2.52,15.28.33,1.7.74,3.41,1.15,5.07.2.82.4,1.65.59,2.48.27,1.16.64,2.32,1,3.45l.11.32c.24.75.52,1.49.88,2.35a9.45,9.45,0,0,0,.79,1.49,6,6,0,0,0,2,1.88,9.06,9.06,0,0,0,2,.81,15.56,15.56,0,0,0,2.12.51,36.07,36.07,0,0,0,3.83.48c.27,0,.55,0,.82,0,.61,0,1.21,0,1.81-.07l.44,0a22.17,22.17,0,0,0,2.4-.26l2.15-.35c1.9-.3,3.86-.62,5.8-.89,2.5-.3,5.46-.62,8.39-.77,1.24-.06,2.38-.09,3.47-.09h1.15c1.15,0,2.38.12,4,.29,1.27.23,2.59.5,4,.83.66.15,1.31.32,2,.48.88.23,1.77.45,2.66.64a8.59,8.59,0,0,0,1.88.21,6.7,6.7,0,0,0,1.2-.1,6.31,6.31,0,0,0,2.2-.93,13.41,13.41,0,0,0,2.71-2.44,23,23,0,0,0,1.68-2.17,5.58,5.58,0,0,0,.6-1.3c.12-.39.22-.81.33-1.35.18-.92.3-1.85.4-2.66l0-.15c.07-.64.15-1.29.19-1.94s.07-1.48.08-2.47a33.26,33.26,0,0,0-.22-4,88.42,88.42,0,0,0-1.47-9c-.14-.64-.29-1.28-.45-1.91s-.29-1.25-.43-1.88l-1.06-4.88c-.23-1-.42-2.12-.6-3.15-.1-.53-.19-1.06-.29-1.59l-.13-.66c-.17-.88-.33-1.76-.48-2.65l-.38-2.21c-.93-5.43-1.89-11-3-16.53-.61-3.14-1.2-5.92-1.77-8.52-.27-1.21-.6-2.42-.91-3.59l-.2-.74c-.1-.38-.23-.75-.36-1.12l-.16-.47-.41-1.24-.41-1.22c-.12-.38-.27-.75-.42-1.12l-.2-.5-.51-1.32-.51-1.33c-.38-1-.79-2-1.2-3l-.53-1.29c-.93-2.27-1.9-4.76-3.07-7.84-1.88-5-3.66-10.34-5.45-16.45-.83-2.86-1.67-5.66-2.67-8.41-.93-2.54-2-5.29-3.47-8.66-.82-1.92-1.66-3.83-2.5-5.73-2.28-5.5-4.52-10.88-6.94-16.24-.62-1.36-1.28-2.73-1.92-4-.56-1.15-1.12-2.3-1.66-3.47-1.1-2.38-2.17-4.82-3.21-7.19l-.33-.75c-1-2.16-2-4.32-3-6.4l-.46-1c-.48-1-1-2-1.48-3-.78-1.56-1.6-3.17-2.33-4.79-1.06-2.37-2.24-4.75-3.37-7l-.19-.38c-1.25-2.53-2.5-5.06-3.73-7.61-.24-.49-.48-1-.71-1.49-.34-.74-.69-1.48-1-2.21-.65-1.29-1.36-2.55-2.11-3.75a26.53,26.53,0,0,0-2.83-3.75,22.28,22.28,0,0,0-3.34-2.93c-.5-.36-1-.71-1.51-1A21,21,0,0,0,1368.18,6c-.88-.38-1.76-.76-2.66-1.12a22.35,22.35,0,0,0-3-.83l-.59-.13c-1.36-.31-2.76-.49-4.12-.66l-.74-.1c-1.18-.15-2.44-.28-3.84-.38l-.43,0c-2.83-.21-5.76-.43-8.64-.47Zm2.43,69.58c-.65,0-1.3,0-1.94,0-1.85-.09-3.78-.24-6.09-.49a26.21,26.21,0,0,1-5.28-1.18,10.64,10.64,0,0,1-1.24-.69l-.13-.13,0-.13a16,16,0,0,1,.15-3.17c.68-4,1.44-7.52,2.34-10.86l.79-2.94,0-.1c.19-.72.43-1.44.66-2.14l.33-1c.44-1.4.94-2.79,1.38-4l.23.06.23.06.18.05a8.87,8.87,0,0,1,1,.26l.28.1a3.17,3.17,0,0,0,1.13.27c.64.78,1.3,1.56,2.08,2.38a50.67,50.67,0,0,1,3.34,3.87,51.83,51.83,0,0,1,5.68,9.23,25.65,25.65,0,0,1,1.52,5.32,15.64,15.64,0,0,1,0,2.63,8.72,8.72,0,0,1-.27,1c-.07.14-.16.28-.24.42a5.51,5.51,0,0,1-.43.41,6.65,6.65,0,0,1-.73.43,6.49,6.49,0,0,1-.76.19c-.93.09-1.87.12-2.79.15l-.52,0Z"/><path class="cls-1" d="M1558.09,0l-.81,0a12.76,12.76,0,0,0-3.11.55,7.36,7.36,0,0,0-2.73,1.66A6.55,6.55,0,0,0,1549.91,5a9.72,9.72,0,0,0-.27,1.74c0,.44-.06.87-.07,1.3l0,1.81c0,2.72-.09,5.53-.21,8.29-.13,3-.4,6.24-.84,10.18-.54,3.66-1.16,7.37-1.76,11-.51,3.1-1,6.21-1.5,9.32l-.38,2.5c-.36,2.44-.73,5-1.18,7.42-.76,4.27-1.43,7.83-2.12,11.18-.31,1.54-.65,3.09-1,4.62l0,.11,0,.11c-.44-1.07-.91-2.14-1.38-3.21q-1.39-3.18-2.84-6.33L1535,62.19q-1-2.16-1.9-4.32c-.75-1.71-1.49-3.41-2.26-5.1-.66-1.45-1.3-2.9-1.95-4.35-.77-1.72-1.53-3.44-2.32-5.15-.92-2-1.92-4-2.89-6-.56-1.12-1.12-2.24-1.67-3.37-1.53-3.15-3-6.38-4.27-9.17l-.22-.48c-.59-1.3-1.19-2.64-1.85-3.93s-1.48-2.85-2.24-4.26-1.59-2.9-2.49-4.45a40.17,40.17,0,0,0-3.07-4.49A13.18,13.18,0,0,0,1506,5.2a8.89,8.89,0,0,0-4.37-1.95,26.92,26.92,0,0,0-4.15-.4q-1,0-2,0a52.17,52.17,0,0,0-5.27.25c-1.1.11-2.2.26-3.29.41l-.43.06-.22,0a3.37,3.37,0,0,0-.62.07,3.29,3.29,0,0,0-.7.11c-3.61.48-7.08,1-10.52,1.6-1.28.24-2.58.54-3.84.82l-1.32.3a38,38,0,0,0-7.79,2.48,11,11,0,0,0-2.6,1.84,6.15,6.15,0,0,0-1.68,3,13.55,13.55,0,0,0-.14,4.54l.06.8c.12,1.76.28,3.53.44,5.3.26,2.91.7,5.84,1.13,8.68l.32,2.07.08.57.08.57c1.29,10.4,1.61,21.06,1.92,31.37.09,3.15.18,6.3.3,9.45.14,3.65.29,7.55.37,11.5,0,1.17,0,2.33.07,3.49,0,2.33.08,4.65.16,7,.14,4.51.27,8,.43,11.19.07,1.67.17,3.34.27,5s.19,3.35.27,5q.25,5.76.53,11.52c.16,3.43.18,6.83.21,10.12v.78c.06,8.22.16,15.08.31,21.56.18,7.15.69,14.43,1.19,21.28.22,3,.5,6.57.92,10.08a45,45,0,0,0,2,10.11,17.8,17.8,0,0,0,1.4,3,12.72,12.72,0,0,0,1.66,2.15l.17.2a7.22,7.22,0,0,0,3,2.09,13,13,0,0,0,3.06.48q.86.06,1.71.06a49.05,49.05,0,0,0,7.45-.73c2.26-.34,4.54-.88,6.75-1.4l1.82-.42c2.41-.55,5.2-1.2,7.87-2a23.84,23.84,0,0,0,7.59-3.15l.39-.29c.56-.4,1.13-.8,1.67-1.22a49.6,49.6,0,0,0,4.21-3.69l.21.08,1.21.15.21,0a3.25,3.25,0,0,0,2.09-1,3.25,3.25,0,0,0,0-4.61l-.1-.08-.22-.17c-.27-2.64-.29-5.36-.31-8,0-.89,0-1.78,0-2.66-.06-3-.13-6.51-.29-10.12-.05-1.26-.12-2.51-.19-3.77-.11-2.11-.22-4.28-.28-6.42-.09-3.26-.1-6.57-.12-9.78V153c0-6.24-.11-13.61-.42-21-.1-2.27-.28-4.57-.46-6.79-.07-1-.15-2-.22-3-.11-1.49-.2-3-.29-4.46-.13-2-.25-3.91-.4-5.86-.16-2.11-.34-4.22-.52-6.32l.36.62c.5.79,1,1.59,1.48,2.39,1,1.67,1.79,3,2.49,4.29,1.27,2.27,2.52,4.55,3.78,6.82l1.58,2.85c.63,1.13,1.29,2.24,2,3.35l.76,1.27c.6,1,1.3,2,2,3,.27.4.54.79.8,1.19s.64.87,1,1.29l.48.62c.6.81,1.27,1.65,2,2.57l.2.24a28.4,28.4,0,0,0,2.86,3.13c.63.57,1.28,1.08,1.78,1.46a9.9,9.9,0,0,0,2.12,1.1l.18.08a6.7,6.7,0,0,0,2.49.43,6.42,6.42,0,0,0,4.16-2c.31-.27.6-.56.89-.86l.7-.69c.31-.28.6-.56.9-.85l1-.92,1.65-1.5c1.85-1.68,3.77-3.41,5.49-5.3,1.14-1.25,2.25-2.52,3.36-3.8s2.14-2.45,3.24-3.66a36.68,36.68,0,0,0,2.49-3c.61-.85,1.17-1.75,1.71-2.61l.31-.5c1.28-2,2.64-4,4.18-6.05l.07.86c.19,2,.38,3.93.53,5.9.08,1.08.14,2.16.2,3.24s.13,2.37.22,3.55l.09,1.25c.14,2,.29,4,.55,6l.14,1.1c.14,1.06.28,2.16.47,3.23l.19,1c.15.83.3,1.67.46,2.49.71,6.13,1,12.41,1.29,18.48l.1,2.11c.11,2.48.23,5,.34,7.44.2,4.47.4,8.94.64,13.41,0,.58.1,1.16.17,1.73,0,.27.06.53.08.8l.06.6c.1.93.19,1.86.32,2.78a45.86,45.86,0,0,0,1.29,6.51,20,20,0,0,0,1.32,3.22,8.19,8.19,0,0,0,1,1.56,9,9,0,0,0,1.82,1.59,5.73,5.73,0,0,0,1.64.68,8,8,0,0,0,1.42.18h.67c.4,0,.79,0,1.18-.06l.43,0,1.26-.11,1.06-.1q2.71-.21,5.43-.48c3.13-.3,6.26-.89,9.29-1.46l1.44-.27c1.69-.31,3.4-.68,5.22-1.1s3.32-.78,4.87-1.29a20.44,20.44,0,0,0,4.33-1.93,6.62,6.62,0,0,0,2.53-2.65,6.38,6.38,0,0,0,.57-3c-.07-1.57-.18-3.16-.32-4.72-.24-2.61-.64-5.23-1-7.77-.12-.77-.24-1.54-.35-2.32q-.42-3.15-.87-6.32l-.14-1a1.83,1.83,0,0,0,0,.33c-.35-2.69-.75-5.43-1.16-8.17l-.22-1.45c-.34-2.33-.65-4.65-1-7l-.25-1.88,0-.2,0-.22c-.37-2.84-.75-5.67-1.12-8.5-.33-2.52-.73-5.06-1.12-7.52l-.24-1.53c-.88-6.83-1.29-13.59-1.68-20.48-.19-3.37-.41-6.73-.64-10.08l-.09-1.22c-.09-1.23-.18-2.46-.23-3.68,0-.64-.07-1.27-.1-1.91-.06-1.21-.13-2.47-.14-3.7-.07-8.31-.08-16.75-.08-24.91q0-9.29,0-18.57c0-6.65-.21-13.46-.55-20.82-.09-1.81-.2-3.29-.36-4.66l0-.41c-.14-1.19-.27-2.42-.49-3.62a19.13,19.13,0,0,0-1.09-3.44A11.87,11.87,0,0,0,1613,9.13a5.21,5.21,0,0,0-1.48-1.48,9.67,9.67,0,0,0-1.13-.53l-.24-.09a4.21,4.21,0,0,0-1.1-.21l-.45-.05-1.15-.17c-.82-.14-1.63-.3-2.44-.45l-2.44-.44c-4.57-.81-9.5-1.41-15.08-1.84-1.2-.1-2.41-.18-3.61-.26l-3.31-.23c-2.68-.21-5.31-.48-7.3-.7l-.43-.07-2-.34c-.66-.11-1.31-.27-1.94-.42l-.45-.11-1.66-.4c-1-.24-2-.49-3-.71a25.39,25.39,0,0,0-3-.46C1560,.09,1559,0,1558.09,0Z"/><path class="cls-1" d="M26.79,5.91a46.24,46.24,0,0,0-6.47.48c-1,.15-2.1.38-3.12.6-.77.17-1.54.33-2.31.47a17.5,17.5,0,0,0-2.73.66,15.37,15.37,0,0,0-1.72.74,6.05,6.05,0,0,0-1.63,1.33,12.12,12.12,0,0,0-2.2,3.18,3.88,3.88,0,0,0-.44,1.74A66.11,66.11,0,0,0,3,23.5c-.59,1.94-1.07,3.56-1.49,5.26a40.51,40.51,0,0,0-.77,4.33l-.08.57A61.16,61.16,0,0,0,0,44.34c.1,3.3.26,6.69.48,10.36A15.71,15.71,0,0,0,3,62.39a18.44,18.44,0,0,0,4.77,5,9.87,9.87,0,0,0,1.3.74l.4.21A23.54,23.54,0,0,0,12,69.49,24.34,24.34,0,0,0,18,70.74c1.69.21,3.49.42,5.26.54s3.63.24,5.45.35h.13c1.55.09,3.16.18,4.73.18,3.18,0,6.41-.16,9.53-.31l1-.05c2.78-.14,4.91-.28,6.9-.46l2.22-.2c1.61-.15,3.22-.3,4.83-.43,2.2-.18,4.4-.31,6.63-.43,1.34-.08,2.42-.16,3.43-.26l1-.11a27.53,27.53,0,0,1,3-.23h.34l.13.08h0a11.83,11.83,0,0,1,.93,1.64,36.79,36.79,0,0,1,1.81,7.6l.47,3.1.24,1.55c.81,7.1,1.53,14.3,2.15,20.49.16,1.62.35,3.23.53,4.85.21,1.78.42,3.56.59,5.35.31,3.21.66,6.41,1,9.62l.17,1.57c.78,7.12,1.1,14.36,1.34,20.58.11,2.72.31,5.49.51,8.16l.17,2.17c.27,3.87.45,7,.56,10,.17,4.42.21,9,.23,12.86,0,2.24,0,4.45,0,6.67v1.24c0,1.81,0,3.68-.09,5.51l0,.16h0c-.08.15-.16.3-.26.45l-.45.48a21.77,21.77,0,0,1-3.68.89,37.61,37.61,0,0,1-4.09.19c-1,0-2.06,0-3.09,0l-1.28,0-3.78-.08-3.77-.08-1.54,0c-1.77,0-3.59-.07-5.38-.18-2.64-.17-5-.4-7.27-.68l-1.85-.27c-2.82-.41-5.73-.83-8.61-1q-.36,0-.72,0a17.38,17.38,0,0,0-2.4.19,11.89,11.89,0,0,0-3.57,1,6.55,6.55,0,0,0-2.53,2.16A13.18,13.18,0,0,0,27.19,199a41.37,41.37,0,0,0-1.33,5.32l-.07.35a40.18,40.18,0,0,0-.55,8.43c0,1.7.08,3.4.24,5,.17,1.83.42,3.73.76,5.82l.21,1.36c.19,1.24.39,2.53.65,3.78a16.73,16.73,0,0,0,1.69,5,10.72,10.72,0,0,0,2.55,2.78c.63.52,1.32,1,2,1.46l.15.1a28,28,0,0,0,6.94,3.15l.15.05a34.55,34.55,0,0,0,10.51,1.8h.51a31.54,31.54,0,0,0,4-.28l5.93-.71c3.93-.46,7.22-.87,10.55-1.34s6.58-1,9.61-1.5c3.34-.59,6.62-1.38,9.39-2.07l4-1,5-1.26c2.75-.68,5.65-1.26,8.86-1.76,7.1-.81,14.32-1.11,20.45-1.3,3.23-.1,6.55-.15,10.16-.16h.26c2.87,0,5.79.16,8.61.32l1.56.09,1.35.07c3,.16,5.89.32,8.84.44q2.46.11,4.92.18h.27c.46,0,.92,0,1.39,0h.16a9.14,9.14,0,0,0,1.27-.14l.37-.05a4,4,0,0,0,1.18-.44l.28-.14a4.68,4.68,0,0,0,1.51-1.47,6.65,6.65,0,0,0,.83-1.57,18.25,18.25,0,0,0,.95-3.73c.25-1.49.41-3,.55-4.5l0-.32c.1-.88.18-1.75.22-2.62.09-2,.1-3.89.09-5.53,0-1.18,0-2.36-.07-3.54l0-1.51,0-1.48c0-1.18,0-2.35-.1-3.52-.15-2.81-.4-5.66-.63-8.42l-.18-2c-.14-1.72-.25-3.45-.36-5.17l0-.45a53.69,53.69,0,0,0-.54-5.75,9.93,9.93,0,0,0-1.11-3.09,7.24,7.24,0,0,0-2.39-2.46,7.13,7.13,0,0,0-1.4-.65l-.13-.05c-.62-.24-1.23-.42-1.75-.57-.8-.22-1.59-.39-2.46-.57-1.91-.39-3.66-.72-5.37-1s-3.51-.51-5.24-.7l-.5-.05c-1.66-.18-3.28-.33-4.8-.42-2.69-.17-5.48-.32-8.28-.44-.94,0-1.88-.06-2.82-.08-1.64,0-3.33-.08-5-.22a8,8,0,0,1-.84-.23l-.18-.11c-.14-.12-.26-.24-.4-.38a10.55,10.55,0,0,1-.79-1.47,40.22,40.22,0,0,1-1.86-7.77c-.45-3.47-.79-6.4-1-9.36-.21-3.58-.37-7.31-.49-11.1-.11-3.33-.32-6.7-.52-10l-.08-1.26c-.09-1.44-.17-2.88-.25-4.32-.11-1.89-.21-3.79-.34-5.68-.23-3.34-.57-6.74-1-10.12s-.94-7-1.44-10.5c0,.36.06.61.09.87-.36-2.89-.77-5.77-1.18-8.65L120,85.28c-.29-2.15-.62-4.3-1-6.45l-.45-3a14.06,14.06,0,0,1-.08-2.29,5.72,5.72,0,0,1,.17-.59,4,4,0,0,1,.23-.39,11.11,11.11,0,0,1,.9-.92A34.59,34.59,0,0,1,126,68.49l.21-.09a70,70,0,0,1,9.31-3.13c3-.75,6.57-1.59,10.15-2.16,2.52-.25,5.26-.37,8.39-.37h.35c1.62,0,3.23,0,4.85,0h1l1.43,0h0a17.22,17.22,0,0,0,2.44-.18,9.19,9.19,0,0,0,2.71-.85A5.16,5.16,0,0,0,168.72,60a6.68,6.68,0,0,0,.9-2.35,12.05,12.05,0,0,0,0-3.7c-.13-1.13-.33-2.27-.52-3.37-.11-.62-.22-1.24-.32-1.87l-.5-3.11c-.34-2.08-.68-4.16-1-6.24l-.06-.42-.1-.71-.09-.7a3.29,3.29,0,0,0-.1-.75v.12h0s0-.11,0-.11v-.12c-.4-2.91-.91-6.43-1.67-9.87a20.19,20.19,0,0,0-2-6.07,11.35,11.35,0,0,0-1.71-2.07A8.72,8.72,0,0,0,159.19,17a19.3,19.3,0,0,0-3.42-1.24,67.77,67.77,0,0,0-11.56-1.64h-.11c-1.35-.11-2.71-.18-4.07-.26l-1.17-.07-.54,0c-1.27-.08-2.59-.16-3.87-.16-1.74,0-3.75,0-5.76.07l-1.91.06-3.18.09-2.55,0c-2.93,0-5.53-.08-7.94-.24-1.85-.13-3.7-.28-5.55-.44s-3.45-.29-5.18-.4c-3.82-.27-7.66-.42-10.58-.52-5.43-.19-10.74-.26-15.67-.31H73.78c-1.55,0-3.14,0-4.71-.06-2.74-.11-5.15-.29-7.35-.56l-3.51-.54c-5.46-.84-11.1-1.71-16.6-2.87-3.84-.81-7.39-1.39-10.84-1.78a37.06,37.06,0,0,0-4-.21Z"/><path class="cls-1" d="M329.94,11.33c-1.07,0-2.14,0-3.2.06a12.35,12.35,0,0,0-3.38.51,7.36,7.36,0,0,0-3,1.85,9,9,0,0,0-1.74,3.15,19.67,19.67,0,0,0-.77,2.77c-.06.27-.12.54-.19.81a33,33,0,0,0-.54,3.28l-.07.53c-.12.93-.26,2-.34,3l-.26,3.05c-.31,3.67-.32,7.42-.33,10.72,0,3,.11,6.23.38,9.75a90.27,90.27,0,0,0,1.51,10.77c.49,2.43.95,4.86,1.41,7.3l.49,2.63c.64,3.39,1.39,6.81,2.11,10.12.39,1.77.78,3.55,1.15,5.32.29,1.38.55,2.77.82,4.15.19,1,.39,2.06.59,3.09.48,2.37.88,4.7,1.2,6.92l0,.25-.35-.38-.36-.38c-1.7-1.77-3.44-3.79-5.47-6.33-2.05-2.74-4-5.65-5.59-8.16-.86-1.34-1.85-2.61-2.81-3.85l-.32-.4C310,80.68,309,79.41,307.83,78c-.48-.57-.94-1.16-1.41-1.74-.57-.73-1.15-1.45-1.75-2.16-1.05-1.22-2.17-2.37-3.42-3.63l-.62-.62c-.94-.94-1.9-1.91-2.8-2.91q-1.66-1.84-3.3-3.7c-1.62-1.84-3.32-3.66-4.91-5.35l-.55-.59c-.64-.68-1.3-1.39-1.92-2.13s-1.26-1.51-1.87-2.28L284.6,52a53,53,0,0,0-4.93-6.08c-1.78-1.79-3.67-3.53-5.51-5.21l-.76-.7c-.49-.45-1-.87-1.52-1.28a23.74,23.74,0,0,0-3.62-2.29l-1.95-1c-.66-.34-1.31-.67-2-1-1.37-.73-2.6-1.39-3.8-2.11a33.73,33.73,0,0,1-2.9-2l-1.19-1c-.72-.62-1.47-1.25-2.23-1.83a22.2,22.2,0,0,0-1.84-1.31,14.9,14.9,0,0,0-3.88-1.56,52.17,52.17,0,0,0-9-1.61c-.72-.07-1.48-.11-2.28-.11a48.49,48.49,0,0,0-7.28.72c-1.49.22-3,.45-4.45.72-.84.15-1.67.33-2.5.51l-.85.18a2.75,2.75,0,0,0-1.28-.78c-.6-.15-1.2-.25-1.78-.35a4.07,4.07,0,0,0-.5,0,11,11,0,0,0-1.46.14c-.47.07-.9.14-1.31.23a20.51,20.51,0,0,0-2.75.88l-.24.09c-1.64.61-2.92,2.06-3.91,4.45a3.43,3.43,0,0,0-1.66,2.9q.21,11.49.39,23c0,1.84.17,3.64.33,5.48.1,1.21.28,2.43.45,3.62.08.54.15,1.07.22,1.6l.75,5.69c.17,1.25.29,2.53.41,3.76l.08.83c.67,6.88,1.09,13.85,1.27,20.73l.1,3.45c.17,6.14.35,12.49.2,18.72-.07,2.65-.2,5.35-.33,8L211,130.2l0,.93c-.05,1.19-.11,2.42-.11,3.63,0,1.93,0,3.86.07,5.79.09,3.49.28,6.71.59,9.84.18,1.81.39,3.6.61,5.4s.41,3.4.58,5.1.35,3.59.52,5.39.36,3.81.55,5.72l0,.33c.32,3.09.65,6.28.82,9.43.41,7.6.6,15.1.74,21.43v.32c.07,3.27.15,6.65.34,10l0,.68c.09,1.45.17,2.9.27,4.35l.09,1.45c.07,1.2.15,2.45.29,3.66.12,1,.26,2.09.42,3.14A11.23,11.23,0,0,0,220.1,233c2.2,2.19,5.35,3.14,8.14,3.79a44.39,44.39,0,0,0,10,1.18h.84c1.29,0,2.59-.14,3.85-.25l1.13-.1c1.76-.14,3.53-.29,5.29-.48A63.83,63.83,0,0,0,259.88,235c.82-.23,1.64-.49,2.46-.76l2.18-.68c.74-.21,1.48-.43,2.21-.66.89-.27,1.78-.54,2.68-.79.69-.2,1.41-.35,2.11-.5l.19,0c.46-.1.92-.18,1.38-.26.64-.1,1.3-.21,1.93-.37a7.54,7.54,0,0,0,1.22-.48l.46-.2a5.43,5.43,0,0,0,1.46-1,11.73,11.73,0,0,0,2-2.68,26.33,26.33,0,0,0,2.58-7.11,55.12,55.12,0,0,0,1.23-7c.1-1,.15-2,.19-3l0-.8a47.86,47.86,0,0,0-.06-4.94c-.06-1.2-.19-2.42-.32-3.61-.05-.52-.11-1.05-.16-1.57-.1-1-.22-2.06-.34-3.08-.08-.64-.15-1.28-.22-1.92-.39-3.47-.71-7-1-10.43-.32-3.57-.66-7.26-1.07-10.88-.17-1.53-.4-3.07-.62-4.57-.12-.82-.24-1.65-.35-2.47l-.29-2.12-.48-3.55c-.51-4.14-.89-7.53-1.19-10.67-.19-2-.34-3.92-.49-5.89-.1-1.28-.2-2.56-.31-3.84-.64-7.42-1-14.86-1.21-20.52,1,1.35,2,2.85,3.16,4.6.45.68.9,1.38,1.34,2.07.68,1.06,1.36,2.13,2.07,3.17,2.22,3.22,4.69,6.35,7.07,9.38l.78,1c1.09,1.42,2.24,3,3.62,4.9.74,1,1.44,2.06,2.13,3.1l1.55,2.28c2.68,3.84,5.67,7.58,8.25,10.78a38.78,38.78,0,0,1,2.4,3.4c.81,1.34,1.64,2.78,2.53,4.41.7,1.29,1.37,2.6,2,3.91.8,1.56,1.63,3.19,2.51,4.75a70.69,70.69,0,0,0,5.69,8.81c2.21,2.81,4.55,5.36,6.55,7.47.39.42.79.83,1.19,1.24.56.57,1.12,1.14,1.66,1.73.84.94,1.7,2,2.69,3.21,1.62,2.18,3.5,4.76,5.26,7.46l1.27,2,1.5,2.33c.41.62.83,1.23,1.25,1.84s1,1.51,1.52,2.28c.4.62.83,1.23,1.26,1.83.3.44.56.84.82,1.24s.6,1,.94,1.4a7.33,7.33,0,0,0,2.37,2.11,9.66,9.66,0,0,0,2.8,1,20.42,20.42,0,0,0,4.19.4h.58c1.92,0,3.8-.23,5.38-.42,2-.24,3.93-.42,5.42-.55,2.94-.26,6.13-.46,10.05-.64l1.4-.05c1.16,0,2.35-.08,3.52-.2a23,23,0,0,0,2.87-.49,4.93,4.93,0,0,0,2.73-1.48,7.79,7.79,0,0,0,1.54-3.74,25.87,25.87,0,0,0,.5-5.79c-.05-1.47-.18-3.05-.39-5-.35-3.17-.8-6.39-1.23-9.49l-.28-2c-.37-2.73-.78-5.45-1.19-8.17q-.51-3.28-1-6.59l-.28-2.66-.26-2.54c-.12-1.25-.2-2.53-.28-3.77,0-.64-.08-1.27-.13-1.9-.25-3.41-.38-6.9-.49-10-.05-1.31-.09-2.62-.13-3.93-.06-2.19-.13-4.44-.26-6.66l-.16-3c-.16-2.71-.31-5.41-.45-8.12s-.21-5.53-.29-8.23c-.11-3.91-.23-8-.51-11.91-.26-3.56-.48-7-.64-10.39-.13-2.52-.32-5.08-.51-7.56-.08-1-.15-1.94-.22-2.91l0-.28c-.26-3.51-.52-7.14-.9-10.7l-.42-4.15q-.29-2.94-.6-5.88c-.39-3.47-.72-7.16-1-11.29-.1-1.28-.17-2.56-.24-3.84-.11-2-.23-4.05-.42-6.07-.26-2.88-.62-6.67-1.12-10.52-.46-3.57-.79-7.25-1.07-10.49a47.34,47.34,0,0,0-.81-5.56,13.69,13.69,0,0,0-1.2-3.26,11.35,11.35,0,0,0-1.87-2.45A11.05,11.05,0,0,0,370,18.42c-.45-.29-.88-.56-1.34-.81a36.92,36.92,0,0,0-5-2.21A35.44,35.44,0,0,0,358.93,14a126.29,126.29,0,0,0-21.5-2.48c-2.38-.1-4.92-.2-7.49-.2Z"/><path class="cls-1" d="M691.26,5.91h-.59a34.89,34.89,0,0,0-6.87,1.19l-.7.17-1.22.3c-.72.18-1.43.36-2.15.52-1,.22-2.17.44-3.54.68-4.08.5-7.19.83-10.1,1.07-2.07.17-4.19.25-6.23.32-1.41.05-2.81.11-4.22.19l-3.07.18c-2.77.17-5.63.34-8.45.46l-3.16.11c-2.49.08-5.06.16-7.59.34a60.87,60.87,0,0,0-6.22.9l-.57.11c-.75.13-1.5.29-2.25.45l-.86.18c-.72.15-1.45.27-2.17.38l-.63.11c-3.45.4-6.93.66-9.87.85-1.22.08-2.44.18-3.65.28-2.34.19-4.76.39-7.15.43h-.61c-1.07,0-2.14,0-3.21-.07L594.91,15l-1.45,0-3.66-.09-1.35,0a8.63,8.63,0,0,0-1.7-.77,18.75,18.75,0,0,0-4.2-.81c-.43,0-.87-.05-1.3-.05-.68,0-1.36,0-2,.07l-1,0-1.14.05c-1.34.05-2.73.1-4.1.23a11,11,0,0,0-2,.4q-.54.15-1.08.33a3.35,3.35,0,0,0-.53-.07,4.7,4.7,0,0,0-.53,0,6.4,6.4,0,0,0-2,.31,7.23,7.23,0,0,0-2.08,1.08l-.37.3h0a3.51,3.51,0,0,0-2.51,1.11,3,3,0,0,0-.88,2.27c0,.6,0,1.21.08,1.81.07,1.51.14,3.07.27,4.59l.25,3,.26,3c.25,2.92.46,5.84.67,8.76l.13,1.83c.26,3.61.53,7.21.83,10.82s.45,7.27.58,10.52.18,6.58.2,9v.72c0,.47,0,1,0,1.42s0,.67,0,1,.05.62.09.94a7.25,7.25,0,0,0,.6,2.38,5.54,5.54,0,0,0,1.41,1.93,7.16,7.16,0,0,0,3.19,1.48c.43.1.86.16,1.3.22l.47.06a20.61,20.61,0,0,0,2.9.27h.45c1.13,0,2.29-.05,3.41-.1L580,83c1,0,2.07-.06,3.1-.06l1.55,0a91.8,91.8,0,0,1,9.18.83h0c2.34.31,4.71.56,7,.8l3.5.38c1.67.23,3.32.51,4.9.82.77.15,1.53.32,2.28.5,1,.23,2,.47,3.09.65,1.78.31,4.13.69,6.53.9.83.07,1.67.1,2.49.12h1.54c.3,0,.59,0,.89,0,.06.12.13.24.19.37a41.85,41.85,0,0,1,1.6,6.1,179.09,179.09,0,0,1,1,19.6v1l0,2c0,3.18.07,6.46.2,9.69.06,1.52.13,3,.2,4.56.09,2,.18,3.9.24,5.86.1,2.8.27,5.64.44,8.39l.16,2.71.07,1.3c.08,1.31.15,2.62.24,3.92.06.95.15,1.89.23,2.84l.18,2.07c.24,3.28.57,6.6.89,9.81.38,3.75.76,7.63,1,11.45.3,4.47.82,9.28,1.59,14.72.33,2.34.69,4.68,1.06,7s.7,4.49,1,6.74q.25,2.1.54,4.2a13.06,13.06,0,0,0,2,5.84,12.17,12.17,0,0,0,3.5,3.27,18,18,0,0,0,3.63,1.64l.18.07a30.12,30.12,0,0,0,3.71,1.06l2.37.51a17.49,17.49,0,0,0,3.64.37,21.4,21.4,0,0,0,2.23-.12,21.71,21.71,0,0,0,5.11-1.07c1-.35,1.84-.7,2.71-1.07a30.22,30.22,0,0,0,3.47-1.84c1.15-.7,2.25-1.3,3.35-1.85,1.57-.63,3.2-1.28,4.77-2l.24-.1c.54-.24,1.09-.48,1.62-.74a7.48,7.48,0,0,0,2.75-2.37,11.32,11.32,0,0,0,1.38-2.76l.05-.14a24.59,24.59,0,0,0,1.06-4,36.33,36.33,0,0,0,.1-10.31l-.09-1-.07-.88c-.13-1.47-.25-2.94-.39-4.41-.26-2.81-.52-5.61-.77-8.42-.44-4.84-.88-9.67-1.35-14.5-.24-2.4-.44-4.8-.63-7.2-.1-1.19-.2-2.39-.31-3.58-.17-2-.3-4.09-.42-6.09-.09-1.51-.19-3-.3-4.52-.21-2.78-.39-5.55-.57-8.33-.28-4.37-.58-8.89-1-13.32-.45-4.93-.8-10-1-15.19-.09-2.25-.19-4.58-.37-6.88-.09-1.25-.19-2.49-.32-3.74,0-.41-.1-.82-.15-1.22a18,18,0,0,1-.23-2.75l.52-.11.64,0c.78,0,1.59-.08,2.38-.18A27.52,27.52,0,0,0,684,93.7c1.42-.39,2.82-.92,4.18-1.44l1.08-.41,5.85-2.18,1-.36a47.79,47.79,0,0,1,8.36-2.54c.33,0,.66-.08,1-.14a4.41,4.41,0,0,0,2.82-1.57,3.46,3.46,0,0,0,.87-1.49,9.47,9.47,0,0,0,.29-1.73c0-.54.08-1.12.08-1.81a30.83,30.83,0,0,0-.46-5c-.33-2.1-.77-4.22-1.19-6.27l-.54-2.65c-.44-2.22-.84-4.46-1.24-6.69l-.37-2.07c-.25-1.4-.51-2.77-.82-4.11-.38-1.6-.68-3.18-.93-4.52-.48-3.73-.86-7-1.14-10-.16-1.67-.3-3.34-.43-5-.16-1.89-.31-3.77-.5-5.65s-.52-3.79-.85-5.63l-.09-.48c-.27-1.52-.53-3.18-.8-5.09-.22-1.58-.48-3.38-.89-5.09a7.61,7.61,0,0,0-2.89-4.48,7.81,7.81,0,0,0-3.95-1.34c-.4,0-.79,0-1.19,0Z"/><path class="cls-1" d="M988,8.69a23.24,23.24,0,0,0-4.16.46,2.8,2.8,0,0,0-.64.2l-1-.07c-3.1-.16-5.64-.23-8-.23s-4.11.06-6,.19a30.29,30.29,0,0,0-9.88,2.38c-2.67,1.12-5.25,2.39-7.88,3.7a45.21,45.21,0,0,0-4.81,2.91l-1.15.75a64.44,64.44,0,0,0-6.1,4.4c-1.64,1.31-3.2,2.7-4.63,4a64.64,64.64,0,0,0-4.67,4.84,85.06,85.06,0,0,0-6.3,8A81.85,81.85,0,0,0,918.33,48l-.91,1.7c-2.13,3.86-4.19,7.88-6.18,11.9l-.07.16a61.8,61.8,0,0,0-2.91,6.62,51.24,51.24,0,0,0-1.81,6.91,69.29,69.29,0,0,0-1.13,13.94c0,4.78.15,9.55.36,14.18q.21,4.51.35,9c.22,6.17.44,12.58.92,18.86.38,4.81.75,9.8,1.5,14.82.78,5.2,1.63,9.7,2.61,13.78a110.85,110.85,0,0,0,3.87,13.48c.3.78.61,1.56.92,2.34l.19.53.35.86c.38,1,.78,2,1.24,2.93,1.06,2.16,2.21,4.3,3.4,6.32a26,26,0,0,0,2.57,3.5l.81,1c.64.81,1.32,1.61,2,2.4l2.68,3.07,2.1,2.38.58.67c1.23,1.38,2.47,2.81,3.78,4.12,1.63,1.62,3.39,3.15,5.1,4.62l.22.19a80.13,80.13,0,0,0,10.89,8.34,26,26,0,0,0,4.94,2.34c.91.32,1.89.58,2.82.83l.7.18c1.51.41,3.06.69,4.57,1l1.53.29c4.94,1,9.88,2.07,14.72,3.17l5.93,1.34,2.47.55a73.93,73.93,0,0,0,7.73,1.56c2.15.32,4.35.57,6.47.81l3.62.42,1.47.23c4,.6,8,1.23,12.14,1.48,1,0,2.47.12,3.82.12a31.45,31.45,0,0,0,4-.23,30.59,30.59,0,0,0,8.82-2.61l1-.47,1.93-.9a88.22,88.22,0,0,0,11.78-6.79c4-2.87,6.69-6.82,9.53-11.32a98.34,98.34,0,0,0,6.37-11.44c2.32-5,4.07-9.14,5.52-13a112.11,112.11,0,0,0,4.11-12.92,109,109,0,0,0,3.3-25.93v-1.11c0-2.21.11-4.58,0-6.93a44.23,44.23,0,0,0-.91-7.34,35.63,35.63,0,0,0-1.68-6.17,49.69,49.69,0,0,0-3.1-6.35,69.94,69.94,0,0,0-7.69-11,37.41,37.41,0,0,0-4.57-4.33c-1.77-1.43-3.7-2.89-5.79-4.47a79.63,79.63,0,0,0-11.12-6.76,25.84,25.84,0,0,0-6.26-2.47c-1.41-.32-2.68-.56-3.89-.77-2.26-.39-4.67-.67-7.41-.89-3.3-.27-6.4-.41-9.46-.41-1.31,0-2.6,0-3.91.07l-4,.13c-3.07.08-6.26.17-9.38.43h-.52c-1.82.16-3.71.32-5.56.32h-.43a33.34,33.34,0,0,1-3.46-.12l-2.47-.1h-.25a16,16,0,0,0-3.15.41c-.51.11-1,.24-1.55.38l-1,.26c-.81.2-1.62.42-2.47.65-.53.16-1,.32-1.58.51a9.08,9.08,0,0,0-4.53,3.27,12.14,12.14,0,0,0-1.65,4,23.53,23.53,0,0,0-.46,2.77v.52l-.08.52c-.13,1-.28,2.08-.38,3.12-.27,2.8-.46,5.16-.58,7.41a132.45,132.45,0,0,0-.14,13.66,50,50,0,0,0,.82,6.09l.13.83c.08.44.15.88.21,1.33s.18,1.23.29,1.75a17,17,0,0,0,1.08,3.56c1.78,4.12,6.75,4.73,10.72,5.22l.52.07c2.14.25,4.34.37,6.45.46h.21c2.47.12,4.59.18,6.52.18s3.59-.09,5.33-.19h1.14l1.43-.06c1.77-.1,3.6-.2,5.4-.2a26.18,26.18,0,0,1,3.5.15,14.65,14.65,0,0,1,2.14.56,19,19,0,0,1,2.47,1.44,21.92,21.92,0,0,1,2.86,2.92,30,30,0,0,1,2,3.1c.07.18.13.38.19.59a1.4,1.4,0,0,1-.11.35,17.19,17.19,0,0,1-1.1,1.84,7.93,7.93,0,0,1-.71.71,21,21,0,0,1-2.13,1.24c-.36.19-.72.39-1.07.6-1.39.8-2.58,1.45-3.7,2l-2.9,1.42c-1.55.76-3.09,1.51-4.65,2.23a38.19,38.19,0,0,1-7.25,2.14A21,21,0,0,1,999,165h-1.52a21.64,21.64,0,0,1-3.7-1,51.67,51.67,0,0,1-8.4-4.94,56.72,56.72,0,0,1-7.17-7.61c-2.16-2.58-4.38-5.31-7-8.64a41.29,41.29,0,0,1-4.05-7.52c-.45-1.11-.91-2.3-1.32-3.5a24.84,24.84,0,0,1-.88-3.93v-.18a56.51,56.51,0,0,1,.38-12.8,61,61,0,0,1,2.07-9c.93-3.07,1.81-5.82,2.89-8.49a37.07,37.07,0,0,1,3.53-6.75,45.7,45.7,0,0,1,4.54-4.37c1.71-1.49,3.46-2.91,5.25-4.34a17.07,17.07,0,0,1,2.68-1.7c1.05-.53,2.11-1,3.18-1.48h.13c1.83-.75,3.71-1.53,5.62-2.17a40.79,40.79,0,0,1,5.68-1.24l1.41-.24,2.9-.55c3.32-.61,6.74-1.23,10.14-1.76,1.41-.16,2.57-.26,3.64-.29h.57a29.54,29.54,0,0,1,3.26.18,41,41,0,0,1,7.85,2,27.06,27.06,0,0,1,4.29,2.57c1.24.94,2.37,2,3.71,3.21s3.07,2.64,4.94,2.64a2,2,0,0,0,.49,0l.58-.07.57-.07c.48-.19,1-.4,1.42-.62a5.87,5.87,0,0,0,1.66-1.48,13.54,13.54,0,0,0,1.92-3.18c1.55-3.43,2.78-7,4-10.53l.68-2c.94-2.67,1.81-5.41,2.67-8.07.49-1.54,1-3.08,1.49-4.63a47.87,47.87,0,0,0,1.4-5.91l.11-.6.11-.55a27.84,27.84,0,0,0,.75-6.62,20.69,20.69,0,0,0-.48-3.85,17.3,17.3,0,0,0-.65-2.12,15,15,0,0,0-1.14-2.39,14,14,0,0,0-2.1-2.56,13.39,13.39,0,0,0-1.75-1.44l-.61-.45-.9-.64-.32-.21a24.37,24.37,0,0,0-4.61-2.41,21.77,21.77,0,0,0-3.17-.94c-1.24-.29-2.47-.55-3.63-.8l-6-1.23c-1.24-.26-2.47-.58-3.71-.91l-2.69-.68c-1.12-.25-2.25-.48-3.37-.71s-2-.42-3-.66c-1.81-.4-3.94-.86-6.18-1.23-1.86-.32-4.07-.73-6.25-1.3l-3.49-1c-1-.29-2.09-.58-3.14-.85-1.94-.52-3.88-1-5.8-1.61l-.32-.09c-1.84-.54-3.71-1.09-5.65-1.48a23.51,23.51,0,0,0-4.27-.52Z"/><path class="cls-1" d="M496.74,6.28a6.6,6.6,0,0,0-1.32.15c-1.84.38-3.65.71-5.37,1-.9.12-1.79.23-2.69.33a20.89,20.89,0,0,1-2.37.11h-1.33c-1.69,0-3.39-.06-5.08-.12l-2.31-.09c-3.58-.1-7.39-.19-11.16-.19h-3.25a66.71,66.71,0,0,0-7.07.58,38,38,0,0,0-4.12.67A18.68,18.68,0,0,0,447.15,10a17.93,17.93,0,0,0-3.56,2.43c-1.62,1.32-3.19,2.78-4.7,4.18l-.71.68-.16.13a39.55,39.55,0,0,0-4.73,4.87,51.51,51.51,0,0,0-4.42,6.81l-.74,1.39c-.9,1.68-1.83,3.41-2.66,5.15a81.87,81.87,0,0,0-5.09,14.85c-.62,2.43-1.21,4.87-1.75,7.52-.46,2.12-.78,4.31-1.08,6.44l-.21,1.42a139.18,139.18,0,0,0-1.22,15.67c-.21,6.39-.29,11.29-.25,15.83a62.47,62.47,0,0,0,.58,8.08,32.92,32.92,0,0,0,1.55,6.86,55.51,55.51,0,0,0,3.5,7.79c.55,1,1.16,1.94,1.81,2.87.47.67.95,1.33,1.44,2a19.15,19.15,0,0,0,3.76,3.49,18.17,18.17,0,0,0,4,2,27.33,27.33,0,0,0,3.65,1.09c.91.22,1.88.36,2.8.49l.67.1a30.12,30.12,0,0,0,11.86-.36,40.7,40.7,0,0,0,4.76-1.41l.94-.33c1.74-.58,3.49-1.22,5.18-1.91l.88-.33a27,27,0,0,1,5.24-1.39,35.92,35.92,0,0,1,4.14-.24c.72,0,1.45,0,2.18.07a28.63,28.63,0,0,1,5.37,1.61,35.33,35.33,0,0,1,5.35,3.05,33.33,33.33,0,0,1,3.51,3.9,19.42,19.42,0,0,1,1.51,2.51,13.1,13.1,0,0,1,.41,1.61,41.87,41.87,0,0,1-.1,6c0,.73-.08,1.46-.12,2.19-.07,1.34-.14,2.68-.26,4a18.4,18.4,0,0,1-.64,2.61l-.21.37a15.25,15.25,0,0,1-1.42,1.48,19.21,19.21,0,0,1-2.44,1.53,23.72,23.72,0,0,1-4,1,43.66,43.66,0,0,1-4.43.23,42.8,42.8,0,0,1-4.33-.21c-3.2-.31-6.52-.61-9.92-.76-6.09-.25-12.7-.59-19.24-1.37-2.24-.38-4.24-.81-6.09-1.29-.91-.25-1.83-.49-2.75-.7a10.58,10.58,0,0,0-2.44-.3,8.08,8.08,0,0,0-2.29.33,7.39,7.39,0,0,0-4.5,4,20,20,0,0,0-1.6,6.72l-.07.58c-.16,1.31-.25,2.63-.33,3.91s-.16,2.83-.22,4.24c0,1-.09,2-.15,3.06l-.22,3.48c-.11,1.51-.21,3-.29,4.53-.12,2.23-.19,4.46-.27,6.68v1.59c-.07,2.2-.15,4.48-.07,6.72a76.51,76.51,0,0,0,.77,8.28,32.13,32.13,0,0,0,1.91,7.15l.07.18c1.22,3,2.52,6.38,4.87,8.71a18.43,18.43,0,0,0,7.52,4.08c1.22.4,2.43.72,3.5,1a53,53,0,0,0,7.91,1.21c4.58.38,9.56.61,15.22.71h3.06A50.26,50.26,0,0,0,480,229.54c1.31-.34,2.63-.73,3.93-1.12l2.94-.85c2.43-.67,4.87-1.3,7.3-1.93,2-.51,4.41-1.1,6.74-1.8,2-.61,4.05-1.36,6-2.08l1-.37.67-.25c1.83-.67,3.73-1.36,5.57-2.12,1.21-.47,2.35-1,3.48-1.56l.47-.22a24.26,24.26,0,0,0,4.57-3.05l.83-.66.42-.33a51.94,51.94,0,0,0,5.7-4.87c1.89-1.94,3.57-3.79,5.14-5.66a82.26,82.26,0,0,0,8.76-12.82,128,128,0,0,0,6.59-14.39c.34-.84.63-1.71.93-2.57l.3-.84a36.4,36.4,0,0,0,1.71-7.64c.3-2.33.61-4.87.8-7.36.23-3,.32-5.41.31-7.71a49,49,0,0,0-.89-8.29,72.74,72.74,0,0,0-4.65-14.62,72.5,72.5,0,0,0-6.3-12.07c-1-1.54-2.19-3-3.31-4.5l-1.22-1.54a43.06,43.06,0,0,0-4.46-5.26,36.16,36.16,0,0,0-6.09-4.87,33.57,33.57,0,0,0-6.2-2.73l-.88-.3c-1.07-.39-2.13-.81-3.19-1.22l-2.74-1c-.74-.28-1.5-.53-2.25-.79-1.15-.39-2.34-.8-3.49-1.22-2.11-1-4.18-2.15-6.08-3.2-1.48-.8-3-1.51-4.51-2.19l-2-.94c-2-.92-3.9-2-5.77-2.92l-.55-.29c-.61-.32-1.22-.61-1.85-.9s-1.09-.52-1.63-.8A21.82,21.82,0,0,1,483.4,78a23,23,0,0,1-2.29-2.44c-.18-.29-.36-.58-.52-.9a6.64,6.64,0,0,1-.34-1.21,14.59,14.59,0,0,1,0-1.62,30.41,30.41,0,0,1,1.11-4.42A22.26,22.26,0,0,1,482.71,65a21.54,21.54,0,0,1,2-2.09c.21-.14.41-.27.63-.39a20.69,20.69,0,0,1,3.52-.91,89.49,89.49,0,0,1,9-.71h1.6a75.17,75.17,0,0,1,8.08.46,33.52,33.52,0,0,1,7.3,1.83,16.45,16.45,0,0,1,2.44,1.41,19.66,19.66,0,0,1,1.88,2c.51.75,1,1.52,1.49,2.28s1.12,1.73,1.72,2.58l.51.78A9.6,9.6,0,0,0,524,73.81a5.62,5.62,0,0,0,3.85,1.61,3.82,3.82,0,0,0,2.28-.7A12.3,12.3,0,0,0,532,73.17a12.1,12.1,0,0,0,1.48-2.29c.21-.43.41-.87.58-1.32.1-.21.18-.41.27-.62.74-1.71,1.52-3.41,2.3-5.1,1.37-3,2.79-6.09,4-9.25.9-2.35,1.62-4.79,2.27-7.11a44.43,44.43,0,0,0,1.44-8.41,28.91,28.91,0,0,0-.57-9.23,21.3,21.3,0,0,0-1.54-4.17,23.62,23.62,0,0,0-1.85-3.19,25.1,25.1,0,0,0-4.17-4.8c-1.87-1.63-3.66-3.11-5.5-4.42A18.29,18.29,0,0,0,528,11.73a24.79,24.79,0,0,0-3.9-1.65,39.18,39.18,0,0,0-7.3-1.21c-2.44-.25-4.87-.31-7.2-.38-1.62,0-3.25-.09-4.87-.18-1.13-.08-2.27-.19-3.39-.3l-1.09-.09A4.67,4.67,0,0,0,499,6.84a4.28,4.28,0,0,0-2.31-.64Z"/></g></g></svg>