<svg xmlns="http://www.w3.org/2000/svg" viewBox="0 0 3321.38 288.11"><defs><style>.cls-1{fill:#fff;}</style></defs><g id="Layer_2" data-name="Layer 2"><g id="Draw_Layer" data-name="Draw Layer"><path class="cls-1" d="M2926.86,16.53h-.34c-1.93,0-3.84.09-5.77.16-3.8.14-6.93.31-9.86.52l-.41,0c-3.24.24-6.59.49-9.89.66-1.55.09-3.09.15-4.64.21-1.83.07-3.66.15-5.49.25-2.17.13-4.34.29-6.51.45l-3.65.26c-3.46.23-7,.43-10.48.58l-3.23.13c-2.23.08-4.52.17-6.78.32l-4.28.31-1.06.08h-.11c-1.46.11-3,.22-4.46.23h-.82c-3.3,0-6.74-.14-9.5-.25q-2.29-.09-4.59-.15l-2.41-.05-1.24,0h-.26a19.2,19.2,0,0,0-2.46.17,6.16,6.16,0,0,0-1.26.4l-.13.05a5.42,5.42,0,0,0-1.1.63l-.08.06a4.64,4.64,0,0,0-1.51,1.77,13.32,13.32,0,0,0-1.16,4.43l0,.3-.06.45a3.13,3.13,0,0,0-.83.52,2.53,2.53,0,0,0-.94,2c.42,3.39.81,6.77,1.18,10.16a2.62,2.62,0,0,0,0,.28c0,1.22.1,2.46.2,3.66l0,.58c.11,1.19.22,2.37.34,3.56l.08.77a63.25,63.25,0,0,0,1,6.85l0,.13,0,.11.22,1.83c.4,3.4.82,6.92,1.16,10.39l.47,4.8c.43,4.44.86,8.87,1.26,13.31l.12,1.32c.2,2.23.4,4.45.64,6.67.06,1.18.11,2.34.16,3.51.14,3.43.2,6.87.25,9.8l0,1.87c0,1.26,0,2.51.06,3.76a24.88,24.88,0,0,0,1.25,7.14.56.56,0,0,0,0,.12c0,1,.05,2,.08,3,.15,4.92.18,9.92.21,14.76l0,3.94,0,1.74c0,2.14,0,4.36.16,6.53l.22,3.12c.15,2.11.29,4.21.42,6.32l0,.37c.18,3,.36,6.05.62,9.07.12,1.49.26,3,.39,4.45s.27,3,.4,4.45c.18,2.19.43,4.42.67,6.57l.14,1.26c.34,3.05.62,6,.85,8.56.2,2.16.46,4.36.72,6.48l.18,1.56c.33,2.76.72,5.57,1.15,8.35.45,3,.8,5.69,1.06,8.17.33,3.08.51,6.25.66,9,.16,3.14.23,6.22.28,8.56v1.25a15.69,15.69,0,0,0,.52,4.92,6.09,6.09,0,0,0,2,2.67,10.23,10.23,0,0,0,3.44,1.68,13.89,13.89,0,0,0,3,.54c.56,0,1.13.08,1.77.08l.95,0c1.79-.06,3.68-.2,5.78-.41,1.71-.18,3.44-.47,5.1-.74l.85-.14c3.94-.65,7.43-1.2,10.67-1.69h0l4.49-.51c1.11-.13,2.22-.22,3.34-.32L2882,245c.59,0,1.19-.08,1.79-.12l.89,0h.17c.64,0,1.25-.08,1.89-.08h2.56c1,0,1.83,0,2.57,0l7.46.39c4.72.25,9.61.5,14.41.72,3.91.17,7.85.46,11.67.74,3,.22,6.13.56,9.11.9l1.47.16c4,.52,7.22,1,10.17,1.49s5.72,1,8.5,1.57l1.32.25c1.7.33,3.39.69,5.08,1.05s3.1.67,4.66,1c.68.14,1.36.26,2,.38l1.71.32c.54.1,1.11.15,1.65.2l.19,0,.35,0a5.39,5.39,0,0,0,2-.44A6.1,6.1,0,0,0,2977,250c.19-.47.36-.91.51-1.36a17.51,17.51,0,0,0,.61-2.55l.06-.34c.23-1.23.44-2.49.63-3.87a188,188,0,0,0,1.47-19.56c.09-2.85.11-5.75.12-8.55,0-.83,0-1.67,0-2.5,0-2.24,0-4.56,0-6.83a13.85,13.85,0,0,0-1.36-5.91,7.75,7.75,0,0,0-1.94-2.33,8,8,0,0,0-1-.72l-.31-.21c-.71-.48-1.37-.89-2-1.26a25.43,25.43,0,0,0-2.77-1.24l-.31-.13a34,34,0,0,0-5.08-1.57c-3.22-.73-6.65-1.49-10.2-2l-2.74-.38c-5.89-.81-12-1.65-17.91-2.76-2.27-.42-4.55-.94-6.75-1.44-1.13-.25-2.25-.51-3.38-.75l-2.75-.62-2.12-.48c-1.59-.35-3.17-.63-4.79-.9a162.29,162.29,0,0,0-20.63-1.93l-2.05-.07c-1.12,0-2.27-.06-3.4-.14a6.76,6.76,0,0,1-.68-.17c-.26-.12-.52-.25-.77-.39l-.16-.15c-.14-.2-.27-.4-.39-.61a28.59,28.59,0,0,1-1.66-6.53l-.11-.65c-.5-3.36-.95-6.39-1.28-9.48-.17-1.54-.32-3.1-.43-4.64l-.07-.9a25.48,25.48,0,0,1-.09-4.62l.05-.17.24-.11a32.39,32.39,0,0,1,5.25-1.08l.44-.07,1.94-.19c.6-.06,1.22-.07,1.82-.08l.91,0,1.53,0c1,0,2,0,3,.06l.8,0c1.34,0,2.7.15,4,.25l1,.08,2.53.18,2.52.19,5.21.37,2.09.13h.17l1.33.08.53,0,.53,0h.27a12.36,12.36,0,0,0,1.73-.17l.31-.05a7.33,7.33,0,0,0,3.22-1.64,5.89,5.89,0,0,0,.88-.92,4,4,0,0,1,.26-.32,8.18,8.18,0,0,0,.66-.92l.15-.23a14.52,14.52,0,0,0,1.88-6.17l0-.17c.28-1.91.47-3.87.56-5.83a58.93,58.93,0,0,0-.31-8.82c-.11-1-.26-1.94-.4-2.76a7,7,0,0,0-2.69-4.49,15.57,15.57,0,0,0-6-2.31,52.9,52.9,0,0,0-5.4-.79c-3.14-.33-6.79-.71-10.39-.94-4-.25-7.59-.44-10.83-.58q-1.18,0-2.37-.06c-1.34,0-2.72-.06-4.07-.17a10.22,10.22,0,0,1-1.07-.23c-.18-.27-.35-.56-.54-.91a33.67,33.67,0,0,1-2.06-7.91c-.23-1.74-.43-3.46-.64-5.18-.12-1.06-.25-2.11-.38-3.16l-.1-.87c-.15-1.2-.29-2.4-.43-3.59,0-.36-.08-.72-.13-1.08a23,23,0,0,1-.26-4.61,7.08,7.08,0,0,1,.32-1.08,10.5,10.5,0,0,1,.57-.9l.33-.29.17-.08a11.49,11.49,0,0,1,1.51-.36c.6,0,1.22-.08,1.85-.08s1.58,0,2.41.12,1.48.15,2.22.24l.8.1,1.7.2,1.7.2,3.25.43c5.7.75,11.58,1.54,17.39,2.19,6.61.74,13.33,1.22,20.55,1.44,1.62,0,3.24.1,4.85.13h.45l1.24,0a9.63,9.63,0,0,0,3.41-.48,6,6,0,0,0,2.86-1.9A8.61,8.61,0,0,0,2950,83c.2-.72.32-1.48.45-2.2l.11-.66c.17-1,.29-1.81.35-2.57.15-1.72.25-3.42.33-4.71.13-2.42.17-4.88.21-7.26l0-1.5,0-1.94c.06-2.39.11-4.86.06-7.28,0-1.67-.13-3.48-.28-5.54-.06-.73-.18-1.48-.3-2.2l-.11-.7-.16-1-.17-1-.35-2.54c-.3-2.2-.61-4.48-1-6.71a46.11,46.11,0,0,0-2-8.71,17.89,17.89,0,0,0-2-3.94,11.76,11.76,0,0,0-5.17-4,21.11,21.11,0,0,0-5.91-1.3l-.92-.11c-.57-.07-1.14-.14-1.71-.19l-.72-.06c-1.28-.11-2.61-.22-3.92-.22Z"/><path class="cls-1" d="M40.92,15.41h-.6a33.25,33.25,0,0,0-5.62.67,29.5,29.5,0,0,0-4.79,1.35,27,27,0,0,0-3,1.33,23.76,23.76,0,0,0-4.49,3.3c-1.25,1.09-2.44,2.22-3.54,3.36a44.51,44.51,0,0,0-3.75,4.25c-.77,1-1.76,2.39-2.67,3.83-.41.64-.81,1.28-1.23,1.9a21,21,0,0,0-2.39,4.93c-.25.72-.49,1.44-.73,2.17s-.43,1.29-.65,1.93a3.1,3.1,0,0,0-2.13,2.21c-.47,2.1-.94,4.36-1.48,7.09l-.35,1.75-.35,1.78L3,57.78c-.07.34-.14.69-.19,1-.15,1-.29,2-.44,3-.39,2.59-.8,5.28-1.06,7.93l-.22,2.22-.41,4.2c-.13,1.25-.2,2.54-.27,3.78,0,.59-.07,1.18-.1,1.76-.1,1.39-.15,2.75-.2,4.37,0,.54,0,1.09-.06,1.64C0,88.87,0,90.09,0,91.28c.1,7.09.28,14.38.54,22.26.15,4.37.4,8.81.64,13.11.14,2.49.28,5,.41,7.48q.27,5.55.49,11.1l.09,2.21c.1,2.55.2,5.18.39,7.77.21,2.9.4,5.8.59,8.7.28,4.17.56,8.48.91,12.71.32,3.77.6,7.53.89,11.29.19,2.46.44,5,.68,7.36.1,1,.21,2.07.31,3.1.29,3,.49,6.15.68,9.16l.09,1.37c.22,3.38.48,6.82.79,10.23s.57,6.75.88,11c.17,2.19.39,4.42.61,6.57l.39,4c.27,3.05.52,6.3.75,9.93.26,4.26.53,7.54.87,10.64l.13,1.19c.31,2.87.64,5.84.81,8.77l.09,1.92c.06,1.26.12,2.56.24,3.84a11,11,0,0,0,.79,3.49,9.07,9.07,0,0,0,2,2.8,11.46,11.46,0,0,0,2.78,1.9,28.11,28.11,0,0,0,3.87,1.54,30,30,0,0,0,8.36,1.39c.52,0,1,0,1.55,0,1.11,0,2.26,0,3.76-.15,2.81-.19,5.65-.63,8.39-1l2.54-.38c1.9-.22,3.45-.36,4.89-.42.74,0,1.49,0,2.23-.06h.32a19.86,19.86,0,0,0,3.17-.3,7.18,7.18,0,0,0,3.49-1.91,8.23,8.23,0,0,0,1-1.24l.14-.19a13.92,13.92,0,0,0,.86-1.31,24.11,24.11,0,0,0,1.41-3.1l.07-.17a35.13,35.13,0,0,0,2.12-7,41.8,41.8,0,0,0,.16-9.93l0-.32-.11-1.76c-.4-6.34-.81-12.9-1.07-19.36-.27-6.71-.34-13.34-.4-20.69,0-2.12,0-4.23,0-6.35,0-5.19,0-10.57-.19-15.85-.07-2.61-.21-5.26-.35-7.83l-.14-2.86c-.18-3.45-.32-6.89-.45-10.34-.31-8.18-.48-14.81-.55-20.88v-1.3c.2.57.41,1.13.61,1.7.37,1,.72,2,1.07,3.07l.63,1.85c.57,1.63,1.16,3.2,1.76,4.67l.33.8c.6,1.48,1.23,3,2,4.47,1.42,2.83,3.06,5.81,5,9.11,1.34,2.24,2.64,4.5,3.93,6.76l1.37,2.36c2.94,5.1,5.54,10.49,8,15.71l1.25,2.59c1.55,3.2,3.15,6.52,4.84,9.72q1.6,3,3.26,6l1.61,2.92c3.15,5.79,6.58,11.42,10.12,17.16.52.85,1,1.69,1.57,2.53,1.14,1.8,2.31,3.67,3.38,5.55l.35.62c1.41,2.48,2.87,5,4.07,7.69.53,1.49,1,2.91,1.33,4.33l.07.25a20.13,20.13,0,0,0,2.68,6.86,11.36,11.36,0,0,0,1.27,1.48,9.12,9.12,0,0,0,1.09.88l.39.29a12.08,12.08,0,0,0,2.78,1.45l.16.07a28.12,28.12,0,0,0,5.62,1.68c1.71.33,3.74.7,5.85,1a184.52,184.52,0,0,0,20.85,1.25h.52l1.56,0h1.49a19.89,19.89,0,0,0,3.26-.32,6.6,6.6,0,0,0,4.88-4.08,12.6,12.6,0,0,0,.92-3.08,18.22,18.22,0,0,0,.17-3.88,46.41,46.41,0,0,0-2.76-12.18c-1.05-3.16-2.35-6.52-4.07-10.55-1.29-3-2.69-6.13-4.16-9.2l-1-2.06c-1.15-2.41-2.33-4.91-3.58-7.31-1.65-3.16-3.37-6.31-5.28-9.63-.87-1.5-1.75-3-2.63-4.49s-1.77-3-2.63-4.48-1.65-2.82-2.48-4.22-1.79-3-2.67-4.57c-1.39-2.41-2.84-4.84-4.25-7.19s-3-4.94-4.4-7.44c-1.23-2.13-2.46-4.43-3.88-7.23-1.32-2.59-2.48-5-3.54-7.39l-1.86-4.74-1.85-4.75c-.61-1.55-1.28-3.11-1.92-4.61l-.43-1c-.61-1.43-1.3-2.85-2-4.22-1.24-2.28-2.62-4.54-4-6.72L112.45,141c-1-1.68-1.93-3.44-2.82-5.15-.62-1.19-1.24-2.39-1.89-3.56a54.36,54.36,0,0,0-3.39-5.1c-.48-.68-.91-1.31-1.34-2l-.52-.76-.92-1.37.23-.09c.34-.15.67-.31,1-.48.76-.38,1.51-.78,2.29-1.22a34.51,34.51,0,0,0,4.66-3.35,18.93,18.93,0,0,0,1.47-1.37l.21-.21c.67-.68,1.32-1.37,2-2.07a35.09,35.09,0,0,0,3.28-4.24,45,45,0,0,0,2.68-4.65c.27-.5.49-1,.71-1.55l.36-.82c.32-.7.6-1.41.89-2.12l.37-.92.24-.57c.53-1.29,1.07-2.62,1.56-3.94.29-.8.57-1.6.83-2.41s.49-1.73.71-2.68a47.61,47.61,0,0,0,.81-4.77l.18-1.29c.21-1.48.43-3,.54-4.51a52.91,52.91,0,0,0,.19-6.38,27.44,27.44,0,0,0-2.58-10l-.11-.24c-.31-.68-.63-1.38-1-2.06-.46-.84-.94-1.63-1.4-2.37a22.88,22.88,0,0,0-1.36-1.87l-.35-.45c-.61-.79-1.23-1.55-1.86-2.31a38.76,38.76,0,0,0-3.23-3.48c-1.34-1.24-2.71-2.45-4.07-3.65-2.78-2.46-5.13-4.43-7.42-6.21-1-.77-2-1.56-2.94-2.35C98.7,37,96.88,35.57,95,34.23c-1.31-.93-2.7-1.88-4.27-2.9-.79-.51-1.59-1-2.39-1.5-.58-.36-1.18-.67-1.78-1L86,28.55a76.75,76.75,0,0,0-9.8-4.12l-.37-.14c-2.91-1.07-5.92-2-8.83-2.86l-1-.31c-3-.91-6.07-1.74-9-2.54l-1-.26-1.75-.48c-2.71-.75-5.51-1.52-8.33-2a29.34,29.34,0,0,0-5-.42ZM54.39,103c-1.24,0-2.5-.09-3.88-.21a14.18,14.18,0,0,1-2.18-.54,8.23,8.23,0,0,1-.95-.55l-.22-.21-.09-.16c-.07-.21-.12-.42-.17-.64A36.93,36.93,0,0,1,47,95.45l0-1q.16-3,.36-5.9c.31-4.64.72-9.35,1.13-13.9A3,3,0,0,0,48,72.89l1.15.1a3.4,3.4,0,0,0,1.19.45A3.4,3.4,0,0,0,50.61,76c.69,1.28,2,1.72,3.29,2.14l.27.09c.33.11.66.23,1,.36s.8.42,1.19.65l.67.37a8.56,8.56,0,0,1,.93.53c.74.48,1.46,1,2.15,1.53l.23.16a23.84,23.84,0,0,1,2.84,2.9c.36.49.71,1,1,1.51a16.41,16.41,0,0,1,1,2l0,.1c.3.75.64,1.65.91,2.58a31.82,31.82,0,0,1,.69,3.18,36.76,36.76,0,0,1,.09,4.2l0,.57-.14.14a28.22,28.22,0,0,1-4.52,2.77,24.45,24.45,0,0,1-4.52,1.1c-.94.08-2,.18-3.12.18Zm-14-5.84L40,96.43c-.36-.94-.68-1.88-1-2.87A38.32,38.32,0,0,1,39,89.32c.13-2.51.32-4.83.58-7.09A32.23,32.23,0,0,1,41,75.92a12.61,12.61,0,0,1,.89-1.55l.11-.12a1.84,1.84,0,0,0-.06.41c-.65,7.29-1.32,14.82-1.61,22.4v.12Zm19,12.16c-.4,0-.8,0-1.2,0a27.21,27.21,0,0,0,4.87-.9l.81-.26c-.35.18-.7.37-1.07.54a13.7,13.7,0,0,1-2.23.62c-.39,0-.78,0-1.18,0Z"/><path class="cls-1" d="M2050.7,0h-.46c-4.3,0-8.66.26-12.88.51-2.44.14-5,.28-7.44.38q-4,.15-8.05.25l-2.49.07c-2,.06-4.06.3-6,.53-1.19.14-2.37.29-3.57.39l-1.79.13c-1,.08-2,.15-3,.26-1.73.2-3.6.48-5.72.87a11.77,11.77,0,0,0-4.5,1.42c-2,1.28-2.9,3.72-3.59,6.16a50.35,50.35,0,0,0-1.16,5.82,66.55,66.55,0,0,0-.55,10.49c0,3.36.08,7,.39,10.5.16,1.83.32,3.66.5,5.48.15,1.6.4,3.21.64,4.77l.1.64c.16,1,.3,2,.45,3.08l.08.6v1.53c0,3.32.14,6.68.31,9.93l0,.55c.17,3.52.4,7,.68,10.5.13,1.59.26,3.18.4,4.76.16,1.94.33,3.87.48,5.8.2,2.49.46,5,.72,7.45.11,1,.21,2.08.32,3.12l.22,2.28c.25,2.57.51,5.22.84,7.83.49,4,1.06,8,1.61,11.85l.1.67c.2,1.79.39,3.59.59,5.38.13,1.19.21,2.4.29,3.58,0,.6.08,1.19.13,1.79.25,3.28.42,6.62.58,9.85.22,4.18.46,7.84.72,11.19l.21,3.1c.15,2.13.3,4.33.52,6.49l.27,2.7c.3,2.85.59,5.7.84,8.55.14,1.55.27,3.1.4,4.65q.24,2.91.49,5.81c.3,3.3.59,6.59.85,9.89.27,3.5.61,7,.94,10.48s.6,6.81.88,10.19l.06.72c.19,2.25.42,4.53.65,6.74q.2,1.74.36,3.48c.14,1.44.28,2.89.41,4.33.17,2,.35,3.91.56,5.86.18,1.75.42,3.52.64,5.24s.44,3.26.61,4.89c.09.85.17,1.7.24,2.56s.14,1.6.22,2.41q.27,2.55.6,5.1c.16,1.21.34,2.58.64,3.89a12.77,12.77,0,0,0,1.27,3.13,7.41,7.41,0,0,0,.9,1.26l.28.34a8.85,8.85,0,0,0,1.81,1.54c3.18,2.26,7,2.81,10.46,3.29a93.28,93.28,0,0,0,10.8,1l1.36,0a85.43,85.43,0,0,0,11.69-.89l1.12-.15c1.42-.19,2.88-.39,4.31-.64.28-.06.57-.1.86-.15.57-.09,1.14-.19,1.71-.32l3.07-.71a52.48,52.48,0,0,0,5.34-1.65c1.42-.49,2.9-1,4.38-1.4l.87-.24c3.06-.81,6.22-1.66,9.36-2.33s6.24-1.22,9.3-1.75l1.52-.26c1.67-.29,3.17-.55,4.68-.91,1.77-.42,3.53-.9,5.36-1.46l.93-.29c1.42-.45,2.89-.91,4.36-1.26,1.83-.44,3.52-.79,5.2-1.05,1-.08,2.06-.12,3.21-.12,2.11,0,4.18.13,6.48.28,1.58.1,3.21.18,4.84.23l1.71,0h.76a9.68,9.68,0,0,0,2.14-.23,4.51,4.51,0,0,0,1.35-.64,5.22,5.22,0,0,0,1.7-2,13.11,13.11,0,0,0,1-4l.07-.43c.05-.39.12-.79.18-1.18.13-.8.26-1.62.33-2.43l.12-1.35.12-1.35.06-.64c0-.52.11-1,.12-1.56l.19-6.64c0-1.21,0-2.43,0-3.61v-1.73c-.1-6.64-.19-13.52-.48-20.27l0-.77a98.09,98.09,0,0,0-.82-10.63l-.05-.34c-.12-.76-.23-1.54-.4-2.31-.22-1-.47-1.88-.7-2.65a18.86,18.86,0,0,0-1.28-3.19,7.66,7.66,0,0,0-2.26-2.63,5.68,5.68,0,0,0-2.88-1.06,4.63,4.63,0,0,0-.65,0,12.32,12.32,0,0,0-2.49.33,14.22,14.22,0,0,0-1.66.46l-.58.18a11.67,11.67,0,0,1-1.2.29l-.58.13c-.8.18-1.62.31-2.42.43l-.64.1c-3.64.44-7.34.76-11,.94-2.07.1-4.52.21-6.94.21s-4.41-.1-6.36-.29a40.43,40.43,0,0,1-5.83-1.6l-.88-.29c-1.36-.44-2.74-.86-4.12-1.27-2.55-.77-5.19-1.34-7.45-1.8a76.3,76.3,0,0,0-8-1.12c-1-.09-2-.1-3-.11l-.76,0h-.48l-1.51,0h-.13l-1.34,0c-.4,0-.8,0-1.19,0-.24,0-.46-.1-.69-.17a3.19,3.19,0,0,1-.41-.38,17,17,0,0,1-1.45-2.6,73.49,73.49,0,0,1-2.22-7.09l-.19-.7c-.4-1.43-.76-2.94-1.13-4.77-.68-3.3-1.28-6.61-1.79-9.82l-.81-5.24c-.27-1.75-.53-3.5-.81-5.24s-.57-3.55-.87-5.33l-.69-4.2c0-.35,0-.69,0-1,0-.14.08-.27.13-.4s.12-.21.18-.32a14.06,14.06,0,0,1,1.68-.35,29.83,29.83,0,0,1,3.06-.25h.91c.84,0,1.68,0,2.53.05,1.83.07,3.75.22,5.7.44l4.1.46c2.66.29,5.42.59,8.12.94l.17,0,4.64.72,2.31.38c.17,0,.34.06.53.1a7.28,7.28,0,0,0,1.27.17,8.12,8.12,0,0,0,1.85-.24,6.76,6.76,0,0,0,1.54-.68,5.82,5.82,0,0,0,1.76-1.57,16.38,16.38,0,0,0,2.77-6.35,47.59,47.59,0,0,0,1-5.22c.33-2.19.62-4.4.84-6.56.19-1.77.21-3.6.24-5.21,0-.59,0-1.18-.06-1.77l0-.59a21.91,21.91,0,0,0-.33-3,32,32,0,0,0-.82-3.7,11.81,11.81,0,0,0-3.68-5.81,9.5,9.5,0,0,0-1.6-1,10.17,10.17,0,0,0-1.81-.66,10.69,10.69,0,0,0-2-.32c-.34,0-.66,0-1,0l-.69,0c-.86,0-1.74.13-2.58.22l-.32,0a105.56,105.56,0,0,0-10.5,1.66c-3.08.63-6.4,1.29-9.8,1.85h-.88l-.6-.17a7.06,7.06,0,0,1-.65-.4,14.4,14.4,0,0,1-1.54-1.67,17.36,17.36,0,0,1-1.68-3,71.7,71.7,0,0,1-3.78-12.94,14.16,14.16,0,0,1,0-1.46c.06-.2.12-.4.19-.6s.37-.66.58-1a15,15,0,0,1,1.87-1.73,11.11,11.11,0,0,1,1.73-1.05,22.88,22.88,0,0,1,4.22-1c3.83-.47,7.53-.66,12-.86,2.85-.12,5.76-.18,8.57-.23l1.85,0,1,0c1.9,0,3.8-.07,5.69-.07,1.15,0,2.3,0,3.44.05,3.55.1,7.1.27,10.57.49,1.7.11,3.39.24,5.09.36q.42,0,.84,0a12.84,12.84,0,0,0,1.71-.12,5.75,5.75,0,0,0,1.22-.29,6.25,6.25,0,0,0,1.82-1.06,6.81,6.81,0,0,0,2-3,23.69,23.69,0,0,0,1.14-3.47A39.7,39.7,0,0,0,2113.2,51l0-.83c0-1.88-.11-3.75-.18-5.63-.11-3.23-.27-6.7-.65-10.16-.21-1.89-.47-3.86-.78-6-.12-.79-.3-1.58-.46-2.28l-.06-.25a23,23,0,0,0-.6-2.27,25.14,25.14,0,0,0-2.21-4.95,28.9,28.9,0,0,0-3.36-4.54,38.72,38.72,0,0,0-3.58-3.53l-.38-.32a42,42,0,0,0-4.09-3.16,26,26,0,0,0-4.56-2.43,33.18,33.18,0,0,0-4.54-1.39l-.81-.21c-.57-.14-1.13-.29-1.7-.4l-3.15-.6c-.53-.1-1.06-.17-1.6-.24l-.61-.08-.9-.13c-.71-.1-1.42-.2-2.13-.28l-.33,0c-1.62-.16-3.29-.34-4.94-.45-3.33-.25-6.87-.44-11.15-.6C2057.3.12,2054,0,2050.7,0Z"/><path class="cls-1" d="M1694.56,2.72h-.46c-4.3,0-8.66.27-12.88.51-2.44.14-5,.28-7.44.38q-4,.15-8,.25l-2.5.07c-2,.06-4,.3-6,.54-1.19.14-2.38.28-3.57.38l-1.79.14c-1,.07-2,.14-3,.25-1.74.2-3.61.49-5.72.87a11.72,11.72,0,0,0-4.5,1.43c-2,1.28-2.9,3.71-3.59,6.15a46.82,46.82,0,0,0-1.16,5.82,66.68,66.68,0,0,0-.55,10.49c0,3.37.08,7,.39,10.51.16,1.82.32,3.65.5,5.47.15,1.6.4,3.21.64,4.77l.1.64c.16,1,.3,2,.44,3.08l.09.6v1.54c0,3.31.14,6.67.3,9.93l0,.54c.18,3.52.41,7,.69,10.51.13,1.58.26,3.17.4,4.76l.48,5.8c.2,2.48.46,5,.71,7.45.11,1,.22,2.07.32,3.11l.23,2.29c.25,2.56.51,5.22.83,7.82.49,4,1.07,8,1.62,11.85l.09.67c.2,1.79.4,3.59.59,5.38.13,1.2.22,2.41.3,3.58,0,.6.08,1.2.13,1.79.25,3.29.42,6.63.58,9.85.22,4.18.45,7.84.71,11.19.08,1,.15,2.07.22,3.1.15,2.13.3,4.33.52,6.49l.27,2.7c.29,2.85.58,5.7.84,8.56q.21,2.33.39,4.65c.16,1.93.32,3.87.5,5.8.3,3.3.59,6.59.84,9.89.28,3.5.62,7.05,1,10.48s.6,6.82.88,10.19l.06.72c.18,2.25.42,4.54.65,6.74l.36,3.48c.14,1.44.27,2.89.4,4.33.18,2,.36,3.91.56,5.86.19,1.75.42,3.53.65,5.24s.43,3.26.61,4.89c.09.85.17,1.71.24,2.56s.14,1.61.22,2.41q.27,2.55.6,5.1a39.32,39.32,0,0,0,.64,3.89,13.16,13.16,0,0,0,1.26,3.14,7.39,7.39,0,0,0,.91,1.25l.28.35a9.52,9.52,0,0,0,1.81,1.54c3.18,2.25,7,2.8,10.46,3.28a93.07,93.07,0,0,0,10.8,1l1.36,0a87,87,0,0,0,11.69-.88l1.12-.16c1.42-.19,2.88-.38,4.31-.64l.85-.15c.58-.09,1.15-.19,1.71-.32l3.08-.71a50.62,50.62,0,0,0,5.33-1.65c1.43-.49,2.91-1,4.39-1.4l.87-.23c3.06-.82,6.21-1.67,9.35-2.34s6.25-1.21,9.31-1.74l1.52-.27c1.66-.28,3.17-.55,4.68-.91,1.77-.42,3.52-.89,5.36-1.46l.93-.29c1.42-.44,2.89-.9,4.36-1.26,1.82-.44,3.52-.78,5.19-1,1-.08,2.07-.12,3.22-.12,2.1,0,4.18.13,6.48.28,1.57.11,3.2.18,4.84.23l1.71,0h.75a9.27,9.27,0,0,0,2.15-.23,4.34,4.34,0,0,0,1.34-.64,5.21,5.21,0,0,0,1.71-2,13.55,13.55,0,0,0,1-4l.06-.43c.06-.4.12-.79.19-1.19.12-.8.26-1.62.33-2.43l.12-1.35.11-1.34.07-.65c0-.52.11-1,.12-1.55l.19-6.65c0-1.21,0-2.43,0-3.61v-.57l0-1.15c-.09-6.65-.19-13.53-.47-20.28l0-.76a97.71,97.71,0,0,0-.82-10.63l0-.35c-.12-.76-.24-1.54-.41-2.31-.21-1-.47-1.87-.69-2.65a19.74,19.74,0,0,0-1.28-3.19,7.67,7.67,0,0,0-2.27-2.63,5.6,5.6,0,0,0-2.87-1.06,4.82,4.82,0,0,0-.65,0,13,13,0,0,0-2.49.33,13.7,13.7,0,0,0-1.66.46l-.58.19c-.39.11-.8.2-1.2.28l-.58.13c-.8.18-1.62.31-2.42.43l-.64.11c-3.64.43-7.34.75-11,.93-2.07.11-4.52.21-6.95.21a62.09,62.09,0,0,1-6.35-.29,40.92,40.92,0,0,1-5.84-1.6l-.87-.29c-1.37-.44-2.74-.86-4.12-1.27-2.55-.77-5.2-1.34-7.45-1.79a72,72,0,0,0-8-1.12c-1-.09-2-.11-3-.12h-1.24l-1.51,0h-.13l-1.35,0c-.39,0-.79,0-1.19,0a5.78,5.78,0,0,1-.69-.17,3,3,0,0,1-.4-.38,16.54,16.54,0,0,1-1.45-2.6,74.19,74.19,0,0,1-2.22-7.08l-.19-.71c-.4-1.42-.76-2.94-1.14-4.77-.67-3.3-1.27-6.6-1.78-9.82-.28-1.75-.54-3.49-.81-5.24l-.81-5.24c-.28-1.78-.58-3.55-.87-5.33l-.69-4.2a8.92,8.92,0,0,1,0-1c0-.14.08-.27.13-.4a2.58,2.58,0,0,1,.18-.32A12.2,12.2,0,0,1,1692,133a29.79,29.79,0,0,1,3.06-.26h.91c.84,0,1.68,0,2.53,0,1.83.07,3.74.22,5.69.44l4.11.45c2.66.3,5.41.6,8.12.94l.17,0,4.63.71,2.32.38.52.1a7.51,7.51,0,0,0,1.28.17,8.14,8.14,0,0,0,1.85-.23,7,7,0,0,0,1.53-.69,5.61,5.61,0,0,0,1.77-1.57,16.46,16.46,0,0,0,2.77-6.35,49.57,49.57,0,0,0,1-5.22c.33-2.19.61-4.4.84-6.56.19-1.77.21-3.59.23-5.2,0-.6,0-1.19,0-1.78l0-.58a23.51,23.51,0,0,0-.33-3,31.37,31.37,0,0,0-.82-3.69,11.7,11.7,0,0,0-3.69-5.81,8.88,8.88,0,0,0-1.59-1,10.33,10.33,0,0,0-3.83-1c-.34,0-.67,0-1,0l-.68,0c-.86,0-1.74.13-2.59.22l-.31,0a105.73,105.73,0,0,0-10.51,1.66c-3.07.63-6.39,1.29-9.79,1.85l-.47,0h-.41c-.2-.05-.4-.1-.6-.17s-.44-.25-.66-.39a17.25,17.25,0,0,1-1.53-1.67,17.87,17.87,0,0,1-1.68-3A70.56,70.56,0,0,1,1691,78.87a10.18,10.18,0,0,1,0-1.46,6.17,6.17,0,0,1,.19-.61,11,11,0,0,1,.58-1,15.84,15.84,0,0,1,1.87-1.73,11.86,11.86,0,0,1,1.72-1,22.51,22.51,0,0,1,4.22-1c3.83-.47,7.54-.66,12-.86,2.86-.13,5.77-.19,8.58-.24l1.84,0h1c1.89,0,3.79-.08,5.69-.08,1.15,0,2.29,0,3.44,0,3.54.11,7.1.27,10.57.5,1.7.11,3.39.23,5.09.36q.42,0,.84,0a11.41,11.41,0,0,0,1.71-.13,5.2,5.2,0,0,0,1.22-.29,6.25,6.25,0,0,0,1.82-1.06,6.9,6.9,0,0,0,2-2.94,24.31,24.31,0,0,0,1.15-3.48,39.63,39.63,0,0,0,.62-10.08l0-.84c0-1.87-.11-3.75-.18-5.63-.11-3.23-.27-6.7-.65-10.15-.22-1.9-.47-3.87-.79-6-.11-.79-.3-1.58-.45-2.28l-.06-.24a20.18,20.18,0,0,0-.61-2.28,25.08,25.08,0,0,0-2.21-4.95,28.37,28.37,0,0,0-3.36-4.53,35.5,35.5,0,0,0-3.58-3.54l-.37-.31a39.62,39.62,0,0,0-4.1-3.17,27,27,0,0,0-4.55-2.43A33.18,33.18,0,0,0,1731.59,6l-.82-.21c-.56-.14-1.12-.29-1.69-.4l-3.15-.6c-.53-.1-1.07-.17-1.6-.24l-.61-.08-.9-.13c-.71-.1-1.42-.2-2.14-.27l-.32,0c-1.62-.16-3.29-.33-4.95-.45-3.32-.24-6.86-.43-11.14-.6-3.12-.12-6.44-.24-9.71-.24Z"/><path class="cls-1" d="M452.59,4.9c-1.19,0-2.49,0-4.08.09l-1.59,0c-1.22,0-2.49.07-3.72.18-1.76.16-3.51.32-5.27.51-2,.21-4,.49-6,.76-3.23.44-6.61,1-10.69,1.72-2.19.39-4.4.75-6.58,1.08-2,.26-4.22.51-6.91.77-1.52.15-3.05.38-4.35.57a20.49,20.49,0,0,0-3.51.88c-.56.19-1.11.42-1.66.65l-.54.22-.12,0-.12.05h0a3.57,3.57,0,0,0-2.18.7,13,13,0,0,0-1.68,1.48c-.3.3-.59.61-.89.92l-.55.59a3.24,3.24,0,0,0-1.53.86,3.52,3.52,0,0,0-1,2.3l-.7,6.3-.71,6.3c-.2,1.82-.43,3.65-.65,5.47s-.43,3.46-.62,5.19c-.74,6.64-1.22,13.52-1.4,20.44-.4,15-.5,30-.56,43.93v2.74c0,5.87,0,11.94-.38,17.89-.41,7.2-.7,14.51-.9,22.35l-.06,2.71c0,2.21-.09,4.5-.2,6.75q-.27,5.72-.59,11.44-.22,4-.4,8.06l-.12,2.68c-.16,3.31-.4,6.58-.65,9.92q-.27,3.69-.51,7.39c-.29,4.48-.59,9.12-1,13.68-.36,3.68-.63,7.44-.89,11.08-.24,3.24-.48,6.59-.78,9.88l0,.23c-.31,3.31-.62,6.74-.74,10.12-.06,1.69,0,3.38.06,5,0,.93.1,1.86.18,2.73s.21,1.84.42,3a15.07,15.07,0,0,0,1.17,3.37,12.13,12.13,0,0,0,1.49,2.42,9,9,0,0,0,1.14,1.29,13.77,13.77,0,0,0,1.47,1.08,15.22,15.22,0,0,0,3,1.43l.48.19c.46.18.94.34,1.41.49l.43.14c1.47.48,3,.95,4.93,1.48l1.73.49c1.09.32,2.19.63,3.3.92,1,.25,1.92.49,2.89.72l1.81.44c2.45.61,4.93,1.3,7.32,2l2.85.78,1.4.39c2.81.76,5.71,1.55,8.58,2.23a94.59,94.59,0,0,0,10.5,1.67l1.1.13c1.3.16,2.65.32,4,.36l.66,0,.65,0H441a14.63,14.63,0,0,0,2.85-.3l.22-.08.21-.08a3.61,3.61,0,0,0,1.2-.62,7.7,7.7,0,0,0,1.4-1.27,16.89,16.89,0,0,0,2.16-3.29c.46-.88.88-1.79,1.2-2.48a33.87,33.87,0,0,0,1.3-3.28,27,27,0,0,0,.87-3.77c.32-1.78.57-3.6.82-5.36l.35-2.6c.38-2.67.75-5.34,1.09-8s.77-5.28,1.15-7.92c.42-2.92.84-5.83,1.27-8.75.29-1.94.53-3.92.77-5.83l.3-2.46c.36-2.84.72-5.63,1.07-8.43.82-5.94,1.82-13,3-20.12.7-4.32,1.21-7.64,1.66-10.75.19-1.28.39-2.57.58-3.85.35-2.31.71-4.69,1-7.05.36-2.78.67-5.76,1-9.65.15-1.86.34-3.72.53-5.57.11-1.08.22-2.15.32-3.22.49-5.06,1.07-10.94,1.79-16.73l1,3.69c.49,1.85,1,3.69,1.47,5.54l.53,2c.67,2.59,1.36,5.26,2.11,7.87.88,3.11,2,6.21,3.06,9.2l.14.39c5.69,15.93,9.33,28.34,11.81,40.24,1.15,5.47,2.6,12.7,3.72,20l.41,2.69c.9,6,1.84,12.26,3,18.35.4,2,.9,4.09,1.39,6.08.24,1,.48,2,.71,3,.32,1.4.77,2.79,1.2,4.14l.12.39c.29.9.63,1.79,1.06,2.82a11.23,11.23,0,0,0,.95,1.8,7.5,7.5,0,0,0,2.4,2.25,10.62,10.62,0,0,0,2.44,1,18.6,18.6,0,0,0,2.55.62c1.69.27,3.11.48,4.59.58l1,0c.73,0,1.45,0,2.18-.08l.51,0a26.56,26.56,0,0,0,2.89-.32L523,267c2.28-.37,4.64-.75,7-1.07,3-.36,6.55-.75,10.07-.93,1.49-.07,2.85-.11,4.16-.11l1.39,0c1.38,0,2.85.14,4.78.35,1.51.26,3.1.59,4.85,1,.79.18,1.58.38,2.37.58,1.06.27,2.13.54,3.2.77a10.9,10.9,0,0,0,2.25.25,7.67,7.67,0,0,0,1.45-.13,7.48,7.48,0,0,0,2.63-1.1,16.42,16.42,0,0,0,3.26-2.94,29.61,29.61,0,0,0,2-2.6,6.63,6.63,0,0,0,.72-1.57,14,14,0,0,0,.4-1.61c.22-1.11.36-2.23.48-3.2l0-.18c.09-.76.19-1.55.24-2.33s.08-1.78.09-3a39.1,39.1,0,0,0-.27-4.83,103.13,103.13,0,0,0-1.76-10.8c-.17-.77-.35-1.53-.53-2.29s-.36-1.5-.52-2.25L570,223.17c-.28-1.25-.5-2.53-.72-3.78-.12-.63-.23-1.27-.35-1.9l-.15-.8c-.2-1.06-.4-2.12-.58-3.18l-.46-2.66c-1.11-6.51-2.27-13.25-3.56-19.84-.74-3.76-1.44-7.11-2.13-10.23-.32-1.45-.71-2.91-1.09-4.31l-.24-.89c-.12-.45-.28-.9-.43-1.35l-.19-.56-.5-1.48-.49-1.47c-.15-.45-.33-.9-.51-1.34l-.23-.6-.61-1.59-.62-1.6c-.46-1.19-1-2.37-1.44-3.55l-.64-1.55c-1.11-2.72-2.28-5.72-3.68-9.42-2.26-5.95-4.4-12.41-6.54-19.74-1-3.44-2-6.8-3.21-10.1-1.12-3-2.44-6.35-4.16-10.4-1-2.3-2-4.59-3-6.87-2.73-6.61-5.43-13.06-8.33-19.5-.74-1.63-1.54-3.28-2.31-4.86-.67-1.39-1.34-2.77-2-4.17-1.32-2.86-2.61-5.79-3.86-8.63l-.4-.9c-1.14-2.6-2.39-5.19-3.61-7.69l-.56-1.15c-.57-1.19-1.17-2.37-1.76-3.55-1-1.87-1.93-3.81-2.8-5.76-1.28-2.85-2.69-5.69-4.06-8.44l-.22-.46q-2.26-4.56-4.48-9.14c-.29-.59-.57-1.19-.85-1.79-.42-.88-.83-1.77-1.27-2.65-.77-1.55-1.62-3.06-2.52-4.5a31.71,31.71,0,0,0-3.41-4.5,25.62,25.62,0,0,0-4-3.52c-.6-.44-1.2-.85-1.82-1.26a25.37,25.37,0,0,0-3.81-2.1c-1.06-.47-2.12-.92-3.19-1.34a23,23,0,0,0-3.58-1l-.72-.17c-1.62-.37-3.31-.58-4.93-.79L469,6c-1.42-.19-2.92-.34-4.61-.47l-.52,0c-3.4-.25-6.91-.52-10.37-.57Zm2.92,83.53c-.78,0-1.56,0-2.33-.06-2.22-.1-4.54-.29-7.31-.58a31.87,31.87,0,0,1-6.34-1.42,13.5,13.5,0,0,1-1.49-.83l-.16-.16,0-.16a19.4,19.4,0,0,1,.18-3.8c.81-4.77,1.73-9,2.8-13l1-3.54,0-.12c.23-.86.52-1.73.79-2.57.14-.41.27-.82.4-1.24.53-1.67,1.13-3.35,1.66-4.78l.27.07.28.07.22,0c.39.1.78.19,1.17.32l.34.13a4.22,4.22,0,0,0,1.36.32c.76.93,1.55,1.87,2.5,2.85a60.17,60.17,0,0,1,4,4.65,61.45,61.45,0,0,1,6.82,11.08,29.6,29.6,0,0,1,1.83,6.39,17.66,17.66,0,0,1,.05,3.15,8.58,8.58,0,0,1-.32,1.26,4.29,4.29,0,0,1-.29.5c-.16.17-.33.34-.51.5s-.57.35-.87.51-.61.16-.92.23c-1.11.11-2.25.14-3.34.18l-.63,0Z"/><path class="cls-1" d="M1043.64,2.57c-1.2,0-2.5,0-4.09.1l-1.59.05c-1.22,0-2.49.07-3.72.18-1.75.16-3.51.32-5.26.51-2,.21-4,.49-6,.76-3.22.44-6.6,1-10.69,1.72-2.18.39-4.39.75-6.57,1.08s-4.23.5-6.91.77c-1.53.15-3.06.37-4.35.57a20.33,20.33,0,0,0-3.52.87c-.56.2-1.11.43-1.66.66l-.53.22-.12,0-.12.05h0a3.59,3.59,0,0,0-2.18.7,13.59,13.59,0,0,0-1.68,1.48c-.3.3-.59.61-.88.92l-.56.59a3.24,3.24,0,0,0-1.53.86,3.57,3.57,0,0,0-1,2.3l-.7,6.3-.71,6.3q-.3,2.73-.65,5.47c-.21,1.73-.42,3.46-.62,5.19-.74,6.64-1.21,13.52-1.4,20.44-.4,15-.5,29.95-.55,43.93v2.74c0,5.87,0,11.93-.37,17.89-.42,7.2-.71,14.51-.9,22.35,0,.9,0,1.81-.06,2.71-.05,2.21-.1,4.5-.2,6.75-.18,3.81-.39,7.62-.6,11.43-.15,2.69-.27,5.38-.39,8.07l-.13,2.68c-.15,3.31-.39,6.58-.65,9.92-.18,2.46-.34,4.92-.5,7.39-.3,4.48-.6,9.12-1,13.67-.36,3.69-.63,7.45-.89,11.08-.23,3.25-.48,6.6-.78,9.89l0,.23c-.3,3.31-.62,6.74-.73,10.12-.06,1.68,0,3.38.05,5,0,.93.11,1.86.18,2.73a29.83,29.83,0,0,0,.43,3,14.48,14.48,0,0,0,1.16,3.38,12.62,12.62,0,0,0,1.49,2.42,8.88,8.88,0,0,0,1.14,1.28,13.55,13.55,0,0,0,1.47,1.09,15.31,15.31,0,0,0,3,1.43l.47.19c.47.18.94.33,1.41.49l.44.14c1.46.48,3,.95,4.92,1.48l1.73.49c1.1.32,2.19.63,3.3.92s1.93.48,2.9.72l1.81.44c2.45.61,4.92,1.3,7.31,2l2.85.78,1.41.38c2.8.77,5.7,1.56,8.58,2.23a92.43,92.43,0,0,0,10.5,1.68l1.09.13c1.31.15,2.66.32,4,.36l.65,0,.66,0h.36a14.54,14.54,0,0,0,2.84-.3l.22-.08.21-.09a3.33,3.33,0,0,0,1.2-.61,7.38,7.38,0,0,0,1.4-1.27,16.73,16.73,0,0,0,2.16-3.29c.47-.88.89-1.79,1.2-2.48a34.91,34.91,0,0,0,1.3-3.28,27,27,0,0,0,.88-3.77c.32-1.78.57-3.6.81-5.36l.36-2.6c.37-2.67.74-5.34,1.09-8s.77-5.28,1.15-7.92q.61-4.38,1.27-8.75c.28-1.94.53-3.92.76-5.83.1-.82.2-1.64.31-2.46.36-2.84.72-5.64,1.07-8.44.82-5.94,1.82-13,3-20.11.7-4.32,1.22-7.64,1.67-10.75l.57-3.85c.35-2.31.72-4.7,1-7,.36-2.78.68-5.76,1-9.65.16-1.86.35-3.72.53-5.58l.33-3.21c.48-5.06,1.06-10.94,1.79-16.73l1,3.69c.5,1.85,1,3.69,1.48,5.54l.52,2c.67,2.58,1.37,5.26,2.11,7.87.89,3.11,2,6.21,3.06,9.2l.14.39c5.69,15.93,9.34,28.34,11.82,40.24,1.14,5.47,2.6,12.7,3.71,20l.41,2.7c.91,6,1.85,12.26,3,18.35.39,2,.89,4.09,1.38,6.08.24,1,.48,2,.71,3,.33,1.4.77,2.79,1.2,4.14l.13.39c.29.9.62,1.79,1.06,2.82a10.7,10.7,0,0,0,1,1.79,7.32,7.32,0,0,0,2.4,2.26,11,11,0,0,0,2.43,1,21.05,21.05,0,0,0,2.55.62c1.7.27,3.11.48,4.6.57l1,0c.72,0,1.45,0,2.17-.08l.52,0a26.12,26.12,0,0,0,2.88-.32l2.59-.41c2.28-.37,4.63-.75,7-1.08,3-.35,6.55-.74,10.08-.92,1.49-.07,2.85-.11,4.15-.11h1.39c1.38,0,2.86.14,4.78.36,1.52.26,3.11.59,4.86,1,.79.18,1.58.38,2.36.58,1.07.27,2.13.54,3.2.77a11,11,0,0,0,2.25.25,7.59,7.59,0,0,0,1.45-.13,7.37,7.37,0,0,0,2.64-1.11,15.76,15.76,0,0,0,3.25-2.94,24.94,24.94,0,0,0,2-2.59,6.68,6.68,0,0,0,.73-1.57c.14-.47.26-1,.39-1.61.22-1.11.37-2.23.48-3.2l0-.18c.09-.77.18-1.55.23-2.34s.08-1.77.1-3a43.45,43.45,0,0,0-.27-4.83,102.79,102.79,0,0,0-1.77-10.8c-.17-.77-.35-1.53-.53-2.29s-.36-1.5-.52-2.25l-1.28-5.87c-.27-1.25-.5-2.54-.72-3.78-.11-.64-.23-1.27-.34-1.91l-.16-.79c-.2-1.06-.4-2.12-.58-3.18l-.45-2.66c-1.12-6.51-2.27-13.25-3.56-19.85-.74-3.76-1.44-7.1-2.14-10.22-.32-1.45-.71-2.91-1.09-4.31l-.24-.89c-.12-.45-.27-.9-.43-1.35l-.19-.56-.49-1.48-.49-1.47c-.15-.45-.33-.9-.51-1.34l-.24-.6-.61-1.59-.61-1.6c-.46-1.19-1-2.37-1.44-3.55l-.64-1.55c-1.11-2.73-2.28-5.72-3.68-9.42-2.26-5.95-4.4-12.41-6.54-19.74-1-3.44-2-6.8-3.22-10.1-1.11-3-2.43-6.35-4.16-10.4-1-2.3-2-4.59-3-6.87-2.74-6.61-5.43-13.07-8.34-19.5-.73-1.64-1.53-3.28-2.3-4.86-.67-1.39-1.35-2.77-2-4.17-1.32-2.86-2.61-5.79-3.86-8.63l-.39-.9c-1.14-2.6-2.4-5.19-3.62-7.69l-.55-1.15c-.58-1.19-1.17-2.37-1.77-3.55-1-1.87-1.92-3.81-2.8-5.76-1.28-2.85-2.69-5.69-4-8.45l-.23-.45q-2.25-4.56-4.48-9.14c-.29-.59-.57-1.19-.85-1.79-.41-.89-.83-1.77-1.26-2.65-.78-1.55-1.63-3.07-2.53-4.5a32.3,32.3,0,0,0-3.4-4.51,26.72,26.72,0,0,0-4-3.51c-.6-.44-1.2-.85-1.82-1.26a25.89,25.89,0,0,0-3.81-2.11c-1.06-.46-2.12-.91-3.19-1.34a25,25,0,0,0-3.58-1l-.71-.16c-1.63-.37-3.31-.58-4.94-.79l-.9-.11c-1.41-.19-2.92-.34-4.61-.47l-.52,0c-3.39-.25-6.9-.52-10.37-.57Zm2.91,83.54c-.77,0-1.55,0-2.33-.06-2.21-.11-4.53-.29-7.3-.58a31.57,31.57,0,0,1-6.34-1.42,12.79,12.79,0,0,1-1.5-.83l-.15-.16a.75.75,0,0,1,0-.16,20.35,20.35,0,0,1,.18-3.81c.82-4.76,1.73-9,2.81-13l.95-3.53,0-.12c.23-.86.52-1.73.8-2.57.13-.41.27-.82.4-1.24.52-1.67,1.13-3.35,1.65-4.79l.27.08.29.07.21,0c.4.1.79.19,1.17.32l.35.12a3.93,3.93,0,0,0,1.35.33c.77.93,1.56,1.86,2.5,2.85a58.06,58.06,0,0,1,4,4.65,62.1,62.1,0,0,1,6.83,11.08,30.13,30.13,0,0,1,1.82,6.39,18.71,18.71,0,0,1,.06,3.15,10.06,10.06,0,0,1-.32,1.26c-.09.17-.19.33-.29.49a6.14,6.14,0,0,1-.51.51c-.29.18-.58.35-.88.51s-.61.16-.92.23c-1.11.11-2.24.14-3.34.17l-.63,0c-.37,0-.74,0-1.12,0Z"/><path class="cls-1" d="M608.52,2.22c-1.94,0-3.91.08-5.81.14l-2.3.08-2.74.07c-2.43.05-4.95.1-7.4.32-2.12.2-4,.45-5.65.78a49.06,49.06,0,0,0-5,1.28c-.44.14-.89.29-1.32.46a3.37,3.37,0,0,0-2-.66,3.75,3.75,0,0,0-.82.09,8.53,8.53,0,0,0-3,1.28,7.93,7.93,0,0,0-2,2.09,11,11,0,0,0-1.72,4.31l-.12.71-.23.21a3.06,3.06,0,0,0-1,2.3c.57,4.5,1,8.51,1.41,12.27.12,1.23.19,2.49.26,3.71,0,.62.06,1.23.11,1.85.07,1.22.12,2.43.17,3.65l0,1c.27,6.86.37,13.84.47,20.58l0,1.26,0,2c0,2.42.06,4.93.15,7.39q.23,5.92.49,11.84c.17,3.46.48,7,.78,10.36s.59,6.66,1,10c.58,4.51,1.18,8.65,1.81,12.65.42,2.62.77,5.3,1.1,7.89l.45,3.39-.1-.86c.82,6.93,1.65,14,2.46,21.1.45,4,1,8.13,1.54,12.09.39,2.91.79,5.82,1.15,8.73.19,1.6.4,3.19.61,4.79.24,1.87.48,3.75.71,5.62s.44,3.74.64,5.61c.19,1.65.37,3.3.57,5l.46,3.89c.7,5.92,1.42,12,2.34,18l.18,1.31.09.63v0c.72,7.33,1,14.75,1.24,21.31.13,3.48.25,6.61.51,9.82.14,1.88.3,3.77.49,5.65A19.14,19.14,0,0,0,590,254a10.34,10.34,0,0,0,1.68,2.68,15.32,15.32,0,0,0,3.06,2.63,24,24,0,0,0,2.88,1.57,26.78,26.78,0,0,0,3.18,1.25c1.12.37,2.29.63,3.43.89l.6.13c1.43.33,3,.62,4.89.92,3.37.52,6.91.89,10.54,1.1,7.24.41,14.43.52,21.11.58,3.51,0,7,.06,10.53.06h3.55c2.3,0,4.76,0,7.21-.21,4.05-.3,7.76-.73,11.34-1.29a47.67,47.67,0,0,0,9.72-2.76c2.6-1,5.61-2.16,8.46-3.54a38.94,38.94,0,0,0,7.9-4.84,21.1,21.1,0,0,0,2.8-2.79c.49-.6,1-1.28,1.56-2,.9-1.23,1.77-2.48,2.64-3.74,1.74-2.5,3.23-4.56,4.67-6.47a36.29,36.29,0,0,0,2.71-3.85l.34-.56c.35-.57.69-1.14,1-1.72.8-1.44,1.72-3.12,2.55-4.82,1.44-2.94,2.69-6,3.9-9l.44-1.1a41.22,41.22,0,0,0,1.63-4.65c.27-.94.49-1.9.7-2.82l.12-.51c.4-1.72.78-3.52,1.16-5.49.57-2.88,1.13-5.93,1.83-9.88.72-4.14,1.24-7.8,1.56-11.21.34-3.56.5-7.19.62-10.27.13-3.25.27-7.1.36-11,0-1.58,0-3.19-.13-4.75l0-.26c-.08-1.65-.21-3.37-.39-5.11-.36-3.54-.88-7.22-1.57-11.25-.27-1.52-.6-3-.92-4.52l-.09-.43c-.39-1.8-.87-3.57-1.28-5.07-.32-1.14-.71-2.28-1.1-3.39l-.42-1.24-.31-.93c-.48-1.44-1-2.88-1.46-4.31-.62-1.82-1.24-3.64-1.84-5.47-.4-1.2-.75-2.44-1.09-3.65-.14-.51-.28-1-.43-1.55-.35-1.19-.63-2.42-.91-3.61-.11-.47-.21-.94-.33-1.41-.39-1.64-.76-3.28-1.14-4.93s-.78-3.55-1.16-5.33c-.34-1.6-.68-3.2-1-4.79l-.61-2.73,0-.11c-.12-.58-.29-1.15-.46-1.73l-.24-.85A36.42,36.42,0,0,0,712,79.17l-.28-.67a39.6,39.6,0,0,0-4.29-7.12c-.92-1.32-1.79-2.58-2.63-3.85-1.75-2.62-3.35-5-4.89-7.19-.42-.59-.83-1.2-1.24-1.8a63.39,63.39,0,0,0-4.44-5.95,31.19,31.19,0,0,0-5.38-4.54c-1.2-.86-2.41-1.65-3.44-2.31-2-1.29-4-2.69-6-4.18-1.32-1-2.61-2.09-3.9-3.16l-.83-.67c-.58-.48-1.16-.94-1.75-1.4l-.12-.09-.15-.13L672.5,36l-.09-.07a3.81,3.81,0,0,0-.49-.39c-.12-.09-.23-.19-.36-.27a3.61,3.61,0,0,0-.44-.33l-.46-.35-.46-.35-.58-.46-1.32-1-.17-.13c-.78-.61-1.59-1.23-2.43-1.77l-.73-.47-2.37-1.51c-1.72-1.09-3.74-2.38-5.65-3.78-1.09-.89-2.25-1.85-3.31-2.87l-1.16-1.13c-.89-.87-1.78-1.73-2.68-2.58A35.27,35.27,0,0,0,645.28,15a32.17,32.17,0,0,0-3.69-2l-.85-.42c-2.61-1.31-5.44-2.82-8.91-4.75l-.8-.45a38.44,38.44,0,0,0-3.67-1.89A28,28,0,0,0,622,3.59c-1.83-.38-3.78-.7-6-1-1.78-.21-3.58-.29-5.13-.34-.8,0-1.6,0-2.39,0Zm28.87,167.56h-.55c-.93,0-1.9-.12-3-.23l-.56-.11a34.54,34.54,0,0,1-3.19-2.11,24.15,24.15,0,0,1-1.82-1.61q-.24-.44-.45-.9a63.82,63.82,0,0,1-2.57-8.57c-.58-2.46-1-5-1.34-7.47l-.08-.5c-.52-4-1.13-8.75-1.67-13.62-.08-2.39-.08-4.83-.08-7.11v-.11c0-3.55,0-7.11,0-10.66v-9.59l.12,0,.12,0a3,3,0,0,0,.74.08,68.91,68.91,0,0,1,8.68,2.29l.21.07c1.36.44,2.76.89,4.12,1.4l.09,0,.1,0a57.18,57.18,0,0,1,5.87,3.73c1,.79,2.08,1.74,3.14,2.8s2.31,2.34,3.46,3.51a85.51,85.51,0,0,1,6,6.84l0,.13,0,.13c.46,3.66.77,7.37.91,11a76.28,76.28,0,0,1-.24,11.51,30.27,30.27,0,0,1-.84,3.66c-.35,1.09-.75,2.22-1.27,3.55a35.06,35.06,0,0,1-3.22,6.06,17.82,17.82,0,0,1-1.9,1.82,36.19,36.19,0,0,1-5.29,3.07,17.9,17.9,0,0,1-3.42.82c-.69.06-1.42.12-2.16.12Z"/><path class="cls-1" d="M2732.17,2.08c-.29,0-.59,0-.88,0a12.14,12.14,0,0,0-3.38.68,7.8,7.8,0,0,0-3,2.06,8.71,8.71,0,0,0-1.67,3.46,12.73,12.73,0,0,0-.29,2.17c0,.54-.07,1.08-.07,1.62l0,2.25c0,3.38-.09,6.88-.23,10.32-.15,3.73-.44,7.76-.92,12.67-.59,4.55-1.26,9.17-1.91,13.63-.56,3.87-1.12,7.73-1.64,11.61l-.41,3.11c-.39,3-.8,6.17-1.28,9.23-.83,5.32-1.57,9.74-2.31,13.92-.34,1.92-.72,3.84-1.1,5.75l0,.14,0,.13c-.48-1.33-1-2.67-1.5-4-1-2.63-2.06-5.26-3.1-7.88l-1.38-3.5c-.71-1.79-1.39-3.59-2.08-5.38-.81-2.12-1.62-4.24-2.46-6.35-.71-1.8-1.42-3.61-2.12-5.41-.84-2.14-1.67-4.28-2.53-6.41-1-2.5-2.1-5-3.15-7.44-.61-1.39-1.22-2.79-1.82-4.19-1.66-3.92-3.27-7.95-4.65-11.42l-.24-.6c-.64-1.62-1.3-3.28-2-4.89-.79-1.78-1.61-3.54-2.43-5.29s-1.74-3.61-2.72-5.54a49.33,49.33,0,0,0-3.35-5.59,15.49,15.49,0,0,0-2-2.42,9.26,9.26,0,0,0-4.77-2.43,26.08,26.08,0,0,0-4.52-.5c-.73,0-1.46,0-2.19,0a50.16,50.16,0,0,0-5.74.32c-1.2.13-2.39.32-3.59.51l-.47.07-.23,0a2.52,2.52,0,0,0-.67.09,3.26,3.26,0,0,0-.77.13c-3.93.6-7.72,1.2-11.46,2-1.4.3-2.82.67-4.19,1l-1.44.37a37.84,37.84,0,0,0-8.49,3.08,12.09,12.09,0,0,0-2.82,2.3,8,8,0,0,0-1.84,3.67,19,19,0,0,0-.15,5.64l.06,1c.14,2.2.31,4.4.48,6.6.28,3.62.77,7.27,1.24,10.8l.34,2.58.09.71.09.7c1.41,12.95,1.75,26.22,2.08,39.05.11,3.92.21,7.84.34,11.75.15,4.55.31,9.41.4,14.33,0,1.44.05,2.89.07,4.34.05,2.89.09,5.78.18,8.67.15,5.63.29,9.92.46,13.93.09,2.08.19,4.17.3,6.25s.21,4.16.29,6.24q.28,7.17.58,14.33c.17,4.28.2,8.51.23,12.61v1c.07,10.23.18,18.76.34,26.84.19,8.89.75,17.95,1.3,26.47.24,3.76.54,8.18,1,12.56a64.55,64.55,0,0,0,2.16,12.58,24,24,0,0,0,1.53,3.77,16.65,16.65,0,0,0,1.81,2.69l.19.24a7.88,7.88,0,0,0,3.31,2.6,12.73,12.73,0,0,0,3.33.6c.63.05,1.25.08,1.87.08a47.51,47.51,0,0,0,8.11-.91c2.47-.43,4.95-1.09,7.36-1.74l2-.53c2.62-.68,5.67-1.49,8.58-2.46s5.82-1.91,8.26-3.92l.44-.36c.61-.5,1.22-1,1.82-1.53a58.1,58.1,0,0,0,4.58-4.58l.23.09,1.32.2h.23a3.36,3.36,0,0,0,2.28-1.2,4.48,4.48,0,0,0,0-5.74l-.11-.1-.25-.21c-.29-3.29-.31-6.67-.33-9.94,0-1.11,0-2.21,0-3.32-.06-3.7-.14-8.09-.31-12.58-.06-1.57-.13-3.14-.2-4.7-.12-2.62-.25-5.32-.31-8-.1-4.05-.12-8.18-.13-12.17v-1.87c0-7.76-.12-16.94-.46-26.12-.11-2.82-.31-5.68-.5-8.45-.08-1.22-.17-2.45-.25-3.67-.11-1.85-.21-3.7-.31-5.56-.14-2.43-.27-4.86-.43-7.29q-.27-3.94-.57-7.87l.4.78c.54,1,1.08,2,1.61,3,1.08,2.07,1.94,3.77,2.71,5.34q2.07,4.23,4.12,8.48l1.72,3.55c.68,1.4,1.4,2.79,2.12,4.16l.83,1.59c.66,1.29,1.41,2.54,2.14,3.76.3.49.59,1,.88,1.48s.69,1.08,1.05,1.61c.18.25.35.51.52.77.67,1,1.4,2,2.23,3.2l.21.29a35.61,35.61,0,0,0,3.13,3.9c.68.7,1.39,1.34,1.94,1.81a9.59,9.59,0,0,0,2.3,1.37l.2.1a6.41,6.41,0,0,0,2.71.54c1.85,0,3.33-1.26,4.54-2.49.33-.34.65-.7,1-1.07s.5-.58.76-.86.66-.7,1-1.05.7-.77,1.06-1.15l1.8-1.87c2-2.09,4.11-4.24,6-6.59,1.24-1.56,2.45-3.15,3.66-4.73s2.33-3.06,3.53-4.56a44.3,44.3,0,0,0,2.71-3.76c.67-1,1.28-2.17,1.87-3.25l.34-.62c1.39-2.52,2.87-5,4.55-7.53l.07,1.07c.21,2.45.42,4.9.58,7.35.09,1.34.15,2.68.22,4s.14,3,.24,4.43l.1,1.55c.16,2.44.32,5,.6,7.42l.15,1.37c.15,1.32.3,2.69.51,4l.21,1.26c.16,1,.33,2.07.5,3.1.77,7.63,1.09,15.44,1.4,23l.11,2.62q.2,4.64.37,9.27c.22,5.56.44,11.13.7,16.69,0,.72.11,1.44.18,2.15,0,.33.07.66.1,1l.07.76c.1,1.15.2,2.31.34,3.46a63.16,63.16,0,0,0,1.41,8.09,28,28,0,0,0,1.43,4,10.24,10.24,0,0,0,1.15,1.94,10.07,10.07,0,0,0,2,2,5.51,5.51,0,0,0,1.78.84,6.89,6.89,0,0,0,1.55.23l.26,0h.47c.43,0,.86,0,1.29-.08l.46,0,1.37-.14,1.16-.11c2-.18,3.95-.38,5.92-.6,3.4-.38,6.82-1.11,10.12-1.82l1.56-.33c1.85-.4,3.71-.85,5.69-1.38a51.89,51.89,0,0,0,5.31-1.61,20.77,20.77,0,0,0,4.72-2.39,7.76,7.76,0,0,0,2.75-3.3,9,9,0,0,0,.63-3.74c-.08-2-.19-3.93-.35-5.87-.26-3.25-.7-6.51-1.12-9.67-.13-1-.26-1.92-.38-2.88q-.47-3.94-.95-7.87l-.16-1.27c0,.14,0,.28,0,.41-.37-3.34-.82-6.75-1.26-10.17l-.23-1.8c-.38-2.9-.72-5.8-1.06-8.69l-.27-2.34,0-.24,0-.28c-.41-3.54-.81-7.06-1.22-10.59-.36-3.12-.8-6.29-1.23-9.35l-.26-1.91c-1-8.5-1.4-16.91-1.82-25.49-.21-4.18-.46-8.36-.71-12.54l-.09-1.52c-.1-1.53-.19-3.05-.26-4.58,0-.79-.06-1.58-.1-2.37-.07-1.51-.14-3.08-.16-4.61-.07-10.34-.08-20.84-.08-31q0-11.55,0-23.11c0-8.28-.23-16.75-.6-25.91-.1-2.25-.22-4.1-.39-5.8l-.05-.52c-.15-1.47-.3-3-.53-4.5a26.53,26.53,0,0,0-1.19-4.28,16,16,0,0,0-1.62-3.67,6.29,6.29,0,0,0-1.61-1.84,9.25,9.25,0,0,0-1.24-.66l-.25-.11a4,4,0,0,0-1.21-.26l-.49-.06-1.25-.22-2.66-.55-2.66-.56a150.45,150.45,0,0,0-16.43-2.29c-1.31-.12-2.62-.22-3.94-.32s-2.4-.18-3.6-.29c-2.92-.25-5.79-.6-8-.87l-.46-.08-2.18-.42c-.72-.14-1.43-.34-2.12-.53l-.49-.14-1.81-.49c-1.09-.31-2.17-.61-3.26-.88a24,24,0,0,0-3.26-.58,26.94,26.94,0,0,0-3-.21Z"/><path class="cls-1" d="M866.38,10.44c-.32,0-.63,0-1,0a14.16,14.16,0,0,0-3.66.68,8.51,8.51,0,0,0-3.23,2.06,8.43,8.43,0,0,0-1.81,3.47,11.74,11.74,0,0,0-.32,2.17c0,.54-.07,1.07-.08,1.62l0,2.25c0,3.38-.1,6.88-.25,10.32-.16,3.74-.47,7.77-1,12.68-.64,4.55-1.37,9.17-2.07,13.64-.61,3.87-1.22,7.74-1.78,11.61l-.45,3.12c-.43,3-.87,6.17-1.39,9.24-.9,5.32-1.7,9.74-2.51,13.92q-.55,2.88-1.19,5.76l0,.13,0,.14c-.53-1.33-1.08-2.67-1.63-4-1.1-2.64-2.23-5.26-3.36-7.89l-1.5-3.51c-.76-1.78-1.51-3.58-2.25-5.38-.88-2.12-1.76-4.24-2.67-6.35-.78-1.8-1.54-3.61-2.31-5.42-.9-2.14-1.81-4.28-2.73-6.4-1.1-2.51-2.28-5-3.43-7.45-.66-1.4-1.32-2.79-2-4.2-1.81-3.92-3.56-8-5-11.42l-.26-.6c-.7-1.62-1.41-3.29-2.2-4.9-.85-1.77-1.74-3.54-2.63-5.29s-1.88-3.61-3-5.54A48.49,48.49,0,0,0,807,19.34a15.79,15.79,0,0,0-2.22-2.43,10.39,10.39,0,0,0-5.17-2.43,31.81,31.81,0,0,0-4.9-.5l-2.37,0a58.91,58.91,0,0,0-6.23.31c-1.3.13-2.6.32-3.89.51l-.51.07-.26,0a3,3,0,0,0-.73.09,3.88,3.88,0,0,0-.83.13c-4.27.61-8.37,1.2-12.43,2-1.52.29-3.06.66-4.54,1l-1.56.37a43.29,43.29,0,0,0-9.21,3.09,12.68,12.68,0,0,0-3.07,2.3,7.75,7.75,0,0,0-2,3.67,17.82,17.82,0,0,0-.17,5.65l.07,1c.15,2.2.34,4.41.52,6.61.31,3.62.83,7.27,1.34,10.8l.37,2.59.1.7.1.71c1.53,13,1.9,26.23,2.26,39.07.11,3.92.22,7.85.37,11.76.16,4.56.33,9.41.43,14.33,0,1.45.06,2.9.08,4.35,0,2.89.1,5.79.19,8.68.16,5.63.32,9.92.5,13.94q.15,3.12.32,6.25t.32,6.24l.63,14.35c.19,4.27.22,8.51.25,12.61v1c.07,10.24.19,18.78.37,26.86.21,8.89.81,18,1.41,26.49.26,3.75.59,8.18,1.08,12.56A60,60,0,0,0,760,266.63a24,24,0,0,0,1.65,3.78,16.22,16.22,0,0,0,2,2.68l.2.24a8.53,8.53,0,0,0,3.59,2.61,15,15,0,0,0,3.62.6c.68,0,1.35.07,2,.07a56.85,56.85,0,0,0,8.79-.9c2.68-.43,5.38-1.1,8-1.74l2.15-.53c2.85-.69,6.15-1.5,9.31-2.46s6.31-1.91,9-3.93l.47-.36c.67-.5,1.33-1,2-1.53a59.47,59.47,0,0,0,5-4.58l.25.09,1.42.2h.26a3.76,3.76,0,0,0,2.47-1.2,4.21,4.21,0,0,0,0-5.74l-.12-.1-.27-.22c-.31-3.29-.33-6.67-.35-9.94,0-1.11,0-2.22,0-3.32-.06-3.71-.15-8.1-.33-12.6-.07-1.56-.15-3.13-.23-4.7-.12-2.62-.26-5.32-.33-8-.11-4.06-.13-8.19-.14-12.18V201c0-7.77-.13-17-.5-26.13-.12-2.83-.33-5.69-.54-8.46l-.27-3.68c-.12-1.85-.23-3.7-.34-5.55-.15-2.44-.29-4.87-.47-7.3q-.28-3.94-.62-7.87l.44.77c.58,1,1.17,2,1.74,3,1.18,2.08,2.11,3.78,2.94,5.35q2.25,4.23,4.47,8.49l1.87,3.54c.74,1.41,1.52,2.79,2.3,4.17l.9,1.59c.72,1.29,1.53,2.54,2.32,3.76l1,1.48c.35.55.75,1.08,1.14,1.61.19.26.38.51.56.77.72,1,1.51,2.05,2.42,3.21l.23.28a35.48,35.48,0,0,0,3.39,3.91c.74.7,1.51,1.34,2.1,1.81a10.86,10.86,0,0,0,2.5,1.37l.22.1a7.46,7.46,0,0,0,2.94.54c2,0,3.61-1.26,4.92-2.49.36-.34.7-.7,1-1.07s.55-.58.83-.86l1.06-1.05,1.15-1.15,2-1.87c2.19-2.09,4.45-4.25,6.49-6.6,1.35-1.56,2.66-3.15,4-4.73s2.53-3.06,3.83-4.56a44.54,44.54,0,0,0,2.94-3.77c.73-1.05,1.39-2.17,2-3.25l.37-.62c1.5-2.52,3.11-5,4.93-7.54l.08,1.08c.23,2.45.45,4.9.63,7.35.09,1.34.16,2.69.23,4s.16,3,.27,4.43l.1,1.55c.17,2.44.34,5,.65,7.43l.17,1.36c.16,1.33.32,2.69.55,4l.22,1.26c.18,1,.36,2.07.55,3.1.84,7.63,1.19,15.45,1.52,23l.12,2.63q.21,4.63.4,9.27c.24,5.57.48,11.14.76,16.7,0,.72.12,1.44.2,2.16,0,.33.07.66.1,1l.07.75c.11,1.16.22,2.31.37,3.46a57.86,57.86,0,0,0,1.54,8.1,25.76,25.76,0,0,0,1.55,4,10,10,0,0,0,1.24,1.94,10.55,10.55,0,0,0,2.16,2,6.22,6.22,0,0,0,1.93.84,7.49,7.49,0,0,0,1.68.22l.29,0a4.35,4.35,0,0,0,.51,0c.46,0,.93,0,1.39-.08l.5,0,1.49-.14,1.26-.12q3.21-.27,6.42-.6c3.69-.37,7.39-1.1,11-1.81l1.69-.34c2-.39,4-.84,6.18-1.37s3.92-1,5.75-1.61a23.53,23.53,0,0,0,5.12-2.4,8,8,0,0,0,3-3.3,8.44,8.44,0,0,0,.68-3.74c-.09-2-.21-3.93-.38-5.88-.28-3.24-.76-6.51-1.22-9.68-.14-1-.28-1.92-.41-2.88-.33-2.62-.68-5.24-1-7.86l-.17-1.28c0,.14,0,.28,0,.41-.41-3.35-.89-6.76-1.37-10.18l-.25-1.8c-.4-2.9-.77-5.8-1.14-8.69l-.3-2.34,0-.25,0-.27-1.32-10.6c-.39-3.12-.87-6.29-1.33-9.36l-.28-1.9c-1-8.51-1.53-16.93-2-25.51-.22-4.19-.49-8.37-.76-12.55l-.11-1.52c-.1-1.53-.21-3.06-.27-4.59,0-.79-.08-1.58-.12-2.37-.07-1.51-.15-3.08-.17-4.61-.08-10.34-.08-20.86-.09-31,0-7.71,0-15.41,0-23.12,0-8.29-.25-16.77-.65-25.93-.11-2.26-.24-4.1-.42-5.8l-.06-.52c-.16-1.48-.32-3-.58-4.51a24.86,24.86,0,0,0-1.28-4.28,15.59,15.59,0,0,0-1.76-3.67A6.51,6.51,0,0,0,929.54,20a9.24,9.24,0,0,0-1.34-.66l-.28-.12a4.48,4.48,0,0,0-1.31-.25l-.53-.07c-.45-.07-.9-.13-1.36-.22-1-.17-1.92-.36-2.88-.55s-1.92-.38-2.88-.55a179.32,179.32,0,0,0-17.83-2.3l-4.26-.31L893,14.65c-3.16-.26-6.27-.6-8.63-.87l-.5-.09-2.37-.42c-.77-.14-1.54-.34-2.29-.53l-.53-.14-2-.49c-1.18-.31-2.36-.61-3.55-.88a27.67,27.67,0,0,0-3.53-.58,31.66,31.66,0,0,0-3.21-.21Z"/><path class="cls-1" d="M2185,16.53c-.66,0-1.25,0-1.81.07a35.79,35.79,0,0,0-5.37.9,30.81,30.81,0,0,0-5,1.53,11.2,11.2,0,0,0-1.56.77,7.83,7.83,0,0,0-2.54,2.52,7,7,0,0,0-.56,1.28L2168,24a6.65,6.65,0,0,0-.19.71l0,.19c-.09.43-.17.86-.23,1.3a3.42,3.42,0,0,0-.93.72,2.84,2.84,0,0,0-.81,2.16c.51,7.11.81,14.5.9,21.94.08,6.81.09,13.74.11,20.44v3.84c0,2.36,0,4.73,0,7.09,0,.52,0,1.05,0,1.58,0,1.16,0,2.39,0,3.58,0,.65.05,1.29.06,1.94,0,1.24.07,2.52.17,3.76.44,5.58,1,11.29,1.47,16.33l0,.18.47,5c.28,2.91.62,6.53.8,10,.22,4.27.39,8.08.51,11.66.21,6.18.24,12.61.26,18.29v2.19c0,3.55,0,7.09,0,10.64,0,1.94,0,3.88,0,5.81,0,1.67.12,3.41.2,4.82l0,.42c.41,7.13.55,14.53.64,20.83,0,2.41-.1,4.86-.22,7l-.07,1.18c-.14,2.56-.27,5.31-.35,8.08a43.24,43.24,0,0,0,.52,8.65,24,24,0,0,0,.86,3.76l.18.49.08.24a16.14,16.14,0,0,1,.69,2.24c.14,1.33.18,2.69.22,3.9v.33c.05,1.54.07,3.09.09,4.63a11.83,11.83,0,0,0,.52,3.81,5.17,5.17,0,0,0,1,1.78,5.85,5.85,0,0,0,1.07.92l.17.12a5.87,5.87,0,0,0,1.56.7,15.24,15.24,0,0,0,1.89.5,18.1,18.1,0,0,0,3.49.36h.12a16.9,16.9,0,0,0,2.78-.3l.1,0,2.5-.41c3.14-.4,6.35-.68,9.53-.84,2.82-.15,5.36-.27,7.83-.27,1,0,1.89,0,2.84.06,2.08.08,3.83.18,5.34.29.9.06,1.8.16,2.7.25.69.08,1.39.15,2.09.21l1.63.14c2.86.24,5.81.49,8.7.86l5.89.7.12,0,.93.1c2,.24,4.07.47,6.11.73,1.86.29,3.26.54,4.53.82.94.21,1.87.44,2.81.68l.5.12,1.51.36c1.62.39,3.25.76,4.87,1.13l.86.2.43.1.64.16c.88.21,1.75.42,2.63.61,4.1.88,8.37,1.67,10.19,2a59.44,59.44,0,0,0,10.34,1.13h1.54c.9,0,2.26,0,3.61-.12,2.6-.22,5.54-.61,7.66-2.57a4.89,4.89,0,0,0,1-1.39,9.68,9.68,0,0,0,.6-1.51l.07-.19a28.7,28.7,0,0,0,.86-3.57c.24-1.36.41-2.75.55-4l0-.13.07-.65c.22-1.8.36-3.4.45-4.9.2-3.56.34-6.87.41-10.14l0-1.58v-.5c.05-2.76.11-5.6.05-8.4,0-1-.09-2-.18-3.33l-.06-.89a36,36,0,0,0-.68-5,16.52,16.52,0,0,0-.52-1.68,14.56,14.56,0,0,0-1.34-2.85,11.33,11.33,0,0,0-3.18-3.34,12.37,12.37,0,0,0-4.49-1.85c-2.6-.59-5.35-1.14-7.56-1.58l-.16,0-.79-.16c-1.35-.26-2.77-.44-4-.6l-1.35-.18-1.54-.19-.67-.09-1.33-.17-.57-.08a14,14,0,0,1-1.49-.26l-2.85-.66c-1.18-.27-2.36-.62-3.5-1l-.18,0-1.39-.41c-1.16-.34-2.3-.71-3.45-1.07l-1.35-.43-.8-.26-.54-.18c-1.09-.36-2.16-.71-3.25-1l-.82-.21-.24-.06-.21,0c-1.26-.32-2.56-.65-3.85-.92-1.72-.35-3.59-.63-5.54-.84-.83-.08-1.56-.13-2.23-.15l-1.12,0-1,0a23.7,23.7,0,0,0-3.86.63,46,46,0,0,0-4.81,1.43l-.19.07-.07-.27a50.26,50.26,0,0,1-1.49-7.42l0-.13c-.19-1.52-.39-3-.6-4.55-.11-1-.22-2-.32-3.05-.47-5.06-.75-10.58-.86-16.86-.15-8.61-.23-15.23-.25-21.46,0-3.94,0-7.87-.08-11.81,0-2.78-.13-5.5-.24-8.52l0-1.21-.05-1.26c-.2-6.12-.44-13-.5-19.8q0-3.39,0-6.78V85.68c0-4.18,0-8.48-.1-12.66a60,60,0,0,0-1-10.55c-.2-1-.45-1.95-.7-2.9l0-.14c-.13-.5-.27-1-.39-1.52a35.65,35.65,0,0,1-.66-3.92l-.06-.46c-.16-1.32-.29-2.63-.42-4l-.05-.47a3.22,3.22,0,0,0,1.31-2.59v-.63a165.87,165.87,0,0,0-.75-17.64c-.36-3.12-1-8.36-5.45-8.5-.82,0-1.65,0-2.48-.06l-1.94,0c-2.48-.07-5.13-.16-7.74-.46-.9-.16-1.8-.38-2.68-.6-.61-.15-1.21-.3-1.83-.43s-1.45-.33-2.17-.51-1.61-.41-2.42-.57a31.57,31.57,0,0,0-5.44-.47l-.83,0c-.74,0-1.49,0-2.23,0Zm-10.58,9a10.34,10.34,0,0,1,1.12-.6c1-.36,2.13-.63,3.18-.89l.53-.14c1.1-.27,2.22-.51,3.32-.69.85-.06,1.77-.09,2.8-.09h1.5l.56,0c1.24,0,2.52.05,3.78.16l.16,0,.16,0-.49.09-.46.09-.11,0-1.52.31c-1.6.33-3.28.59-4.85.82-1.95.3-3.52.61-4.93,1a18.41,18.41,0,0,0-3.52,1.32,11,11,0,0,0-1.69,1c0-.33,0-.67,0-1a9.53,9.53,0,0,1,.35-1.37l.08-.1Z"/><path class="cls-1" d="M2358.75,14.4a17.79,17.79,0,0,0-2.14.35,26.73,26.73,0,0,0-4,1.16,9,9,0,0,0-.9.41,41.65,41.65,0,0,0-4.75.05l-.58,0a23.39,23.39,0,0,0-4.7,1,21.77,21.77,0,0,0-3.81,1.8,15.45,15.45,0,0,0-2.91,2.26,21.86,21.86,0,0,0-3.22,3.61,15.05,15.05,0,0,0-4.93,3.41,13.36,13.36,0,0,0-1.54,2.25l-.28.46c-.25.41-.51.81-.77,1.22l-.14.21-1.37,2.14c-.49.76-1,1.51-1.46,2.27l-.89,1.39-.45.66c-.92,1.38-1.84,2.75-2.71,4.15a23.71,23.71,0,0,0-2.34,5,66,66,0,0,0-2.76,11.14c-1,6.38-1.53,12.92-2,19.24l-.23,2.91c-.21,2.58-.45,5.17-.69,7.76-.45,4.84-.92,9.84-1.17,14.77l-.16,3-.18,3.47c-.08,1.67-.09,3.38-.09,5,0,.71,0,1.42,0,2.13,0,3,0,6.33.25,10.44.18,3.73.39,7.37.82,11,.33,2.78.69,5.57,1.05,8.35l.39,3.05,1.5,11.9c.25,2.06.47,3.62.7,5.07l.2,1.37c.21,1.39.42,2.82.7,4.21,1.53,7.46,3.56,14.93,5.52,22.15l.26,1c.41,1.51.85,3,1.29,4.5l.16.55.14.5c.43,1.47.88,3,1.43,4.44a40.49,40.49,0,0,0,2.3,5.14c.89,1.66,1.85,3.25,3,5.14s2.33,3.77,3.46,5.68c1.54,2.78,3.08,5.8,4.71,9.23.46,1,.92,1.94,1.37,2.91l.95,2,.42.91c.59,1.26,1.21,2.57,1.9,3.8l.37.67a18.43,18.43,0,0,0,1.35,2.19,22.23,22.23,0,0,0,2.93,3.27,21.5,21.5,0,0,0,4.26,2.7l.25.14c1,.52,1.91,1,2.77,1.37l.17.08,1.32.59a34.19,34.19,0,0,0,3.82,1.28,41.06,41.06,0,0,0,10.88,1.17l.39,0a29.28,29.28,0,0,0,3.36-.64l.54-.13a37.16,37.16,0,0,0,4.58-1.47c2.4-.9,4.75-2,7-3.14l1.83-.88c1.67-.8,3.18-1.51,4.65-2.29l1.56-.82a74.86,74.86,0,0,0,7.47-4.27c1.85-1.27,3.63-2.69,5.36-4.07l.17-.13.1-.09c1.24-1,2.52-2,3.7-3.09a47.11,47.11,0,0,0,3.91-4.15l.85-1c1-1.19,2-2.38,3-3.6,1.84-2.23,3.66-4.53,5.42-6.75l1.94-2.46.66-.83q1.5-1.87,3-3.75l1.81-2.37a28.17,28.17,0,0,0,3.53-6.74,95.33,95.33,0,0,0,3.15-9.73l.26-.9c.38-1.38.77-2.76,1.11-4.15.92-3.8,1.84-7.6,2.72-11.41.19-.81.38-1.62.58-2.43a76.59,76.59,0,0,0,1.73-8.68c.22-1.82.47-4,.65-6.11l.15-1.62c.11-1.2.23-2.44.28-3.66l.05-1.12c.07-1.68.15-3.41.15-5.12,0-2.18,0-4.2-.1-6.18-.24-7.12-.9-14.35-1.54-21.33l-.16-1.72c-.28-3.13-.59-6.27-.9-9.4l-.13-1.34c-.18-1.8-.35-3.59-.54-5.38,0-.44-.08-.89-.13-1.34-.12-1.32-.25-2.69-.47-4a139.45,139.45,0,0,0-5.4-22c-1.25-3.63-2.57-7.16-3.93-10.49a84.7,84.7,0,0,0-5.13-10.39,35.94,35.94,0,0,0-3.17-4.43c-1.13-1.39-2.35-2.82-3.75-4.38a83.74,83.74,0,0,0-8.17-7.84,38.27,38.27,0,0,0-6.28-4.53l-2.72-1.48c-1.4-.77-2.81-1.53-4.19-2.32l.77.48c-2.09-1.27-3.74-2.18-5.34-3-1.28-.65-2.61-1.26-3.9-1.84l-.88-.4-1.82-.84c-.89-.41-1.77-.82-2.66-1.21-1.13-.5-2.27-1-3.41-1.42l-1.57-.64c-1.88-.78-3.39-1.46-4.75-2.13-.81-.41-1.63-.8-2.45-1.19a19.92,19.92,0,0,0-6.66-1.84c-1.24-.11-2.51-.1-3.74-.09H2360c-.41,0-.82,0-1.22.07Zm18,141.92a25.19,25.19,0,0,1-2.64.14,16,16,0,0,1-2.56-.38,10.44,10.44,0,0,1-1.05-.42,14.57,14.57,0,0,1-1.71-1.4,14.22,14.22,0,0,1-1.42-1.81,18.48,18.48,0,0,1-1.27-3.49,108.37,108.37,0,0,1-1.53-13.11l-.14-1.9c-.37-4.88-.52-9.59-.43-14,.07-.87.16-2,.31-3.16s.38-2.24.63-3.39c.38-1.71.94-3.41,1.48-5.06l.38-1.19.91-2.79,0-.12,0-.12c.52-.17,1.06-.31,1.59-.45s.91-.15,1.36-.2,1.09-.08,1.65-.09a19.27,19.27,0,0,1,3.05.46,13.87,13.87,0,0,1,1.72.73,22.88,22.88,0,0,1,3.2,2.65,18.67,18.67,0,0,1,1.69,2c.47.69.9,1.41,1.3,2.09a43.72,43.72,0,0,1,3.12,7.68,67.14,67.14,0,0,1,1.27,15.66c-.06,1.25-.12,2.51-.19,3.77a41,41,0,0,1-1.23,8.95,33.58,33.58,0,0,1-2.75,5.78,12.21,12.21,0,0,1-.84,1.06,12.49,12.49,0,0,1-1.26.89,16.78,16.78,0,0,1-2.44.84c-.76.14-1.52.26-2.28.33Z"/><path class="cls-1" d="M265.84,22a23,23,0,0,0-2.45.14,31.16,31.16,0,0,0-4.67.79,10.22,10.22,0,0,0-1.07.34,47.47,47.47,0,0,0-5.37-.46l-.67,0a28.47,28.47,0,0,0-5.42.59,25.63,25.63,0,0,0-4.51,1.49,18.1,18.1,0,0,0-3.54,2.07,24.69,24.69,0,0,0-4.06,3.47,17.64,17.64,0,0,0-6,3.07,15.48,15.48,0,0,0-2,2.21l-.37.46-1,1.21-.18.2-1.8,2.12-1.91,2.23-1.16,1.37-.58.66c-1.2,1.35-2.39,2.71-3.55,4.09a25.06,25.06,0,0,0-3.22,5.08A67.49,67.49,0,0,0,208,64.53c-1.87,6.63-3.21,13.47-4.51,20.1l-.6,3c-.53,2.71-1.1,5.42-1.67,8.13-1.07,5.06-2.17,10.29-3,15.47l-.53,3.16-.59,3.64c-.3,1.76-.5,3.57-.69,5.31-.09.76-.17,1.51-.26,2.26-.39,3.18-.68,6.69-.93,11-.22,4-.41,7.82-.33,11.67.05,3,.14,6,.22,8.94l.09,3.26q.17,6.36.32,12.73c.06,2.2.12,3.87.21,5.43l.07,1.47c.08,1.48.15,3,.31,4.52.87,8,2.3,16.14,3.68,24l.18,1.05c.3,1.63.62,3.26.94,4.89l.12.6.11.54c.31,1.6.64,3.25,1.09,4.84a43.58,43.58,0,0,0,2,5.67c.82,1.85,1.72,3.64,2.82,5.76s2.2,4.23,3.26,6.37c1.42,3.1,2.81,6.45,4.26,10.25.41,1.07.81,2.15,1.21,3.22l.84,2.26.37,1c.52,1.4,1.06,2.84,1.71,4.22l.34.74a17.37,17.37,0,0,0,1.27,2.46,24.15,24.15,0,0,0,2.93,3.77,24.88,24.88,0,0,0,4.5,3.31l.27.17c1.07.66,2,1.24,3,1.75l.18.1c.48.26,1,.52,1.43.76a39.11,39.11,0,0,0,4.16,1.77,37.69,37.69,0,0,0,6.21,1.63,39.27,39.27,0,0,0,5.95.78h.44a33.1,33.1,0,0,0,3.87-.31l.63-.08a43.87,43.87,0,0,0,5.34-1.06c2.81-.69,5.6-1.64,8.3-2.56l2.17-.73c2-.66,3.76-1.26,5.52-1.92l1.85-.69a89,89,0,0,0,8.93-3.72c2.23-1.13,4.41-2.44,6.51-3.71l.21-.13.14-.08c1.51-.9,3.07-1.84,4.53-2.86a54.07,54.07,0,0,0,4.89-4l1.08-1c1.29-1.15,2.59-2.3,3.85-3.47,2.33-2.16,4.65-4.39,6.9-6.55l2.48-2.38.84-.81c1.27-1.21,2.53-2.42,3.78-3.65.78-.76,1.55-1.53,2.31-2.3A30,30,0,0,0,328.2,228a100.37,100.37,0,0,0,4.67-9.94l.39-.93c.6-1.41,1.19-2.83,1.74-4.26,1.48-3.92,3-7.83,4.39-11.76.3-.84.61-1.67.93-2.51a77.75,77.75,0,0,0,2.95-9c.46-1.9,1-4.14,1.44-6.39.11-.56.23-1.13.35-1.69.27-1.26.54-2.56.74-3.84l.18-1.17c.28-1.77.57-3.59.76-5.39.25-2.31.45-4.45.6-6.54.56-7.55.64-15.25.72-22.7l0-1.83q0-5,.06-10v-1.44c0-1.91,0-3.82,0-5.73,0-.47,0-1,0-1.43,0-1.41,0-2.86-.08-4.29a139.14,139.14,0,0,0-3.57-23.77c-1-4-2.07-7.84-3.23-11.5a84,84,0,0,0-4.6-11.52,37.65,37.65,0,0,0-3.07-5c-1.11-1.59-2.33-3.23-3.74-5a89.71,89.71,0,0,0-8.31-9.16A42.92,42.92,0,0,0,315,45.66c-1-.63-1.93-1.25-2.9-1.86-1.5-1-3-1.92-4.47-2.9l.82.59c-2.22-1.56-4-2.71-5.69-3.73-1.37-.82-2.81-1.6-4.2-2.35l-.94-.52-2-1.08c-.95-.53-1.91-1.06-2.86-1.57-1.22-.65-2.46-1.26-3.7-1.87l-1.69-.84c-2-1-3.67-1.9-5.12-2.76-.87-.52-1.75-1-2.64-1.52a23.24,23.24,0,0,0-7.31-2.66c-1.38-.25-2.82-.38-4.21-.5l-.89-.08c-.46,0-.92-.06-1.39-.06Zm4,151.82c-1,0-2-.05-3-.14A23,23,0,0,1,264,173c-.38-.18-.75-.36-1.13-.57a16,16,0,0,1-1.78-1.65,17.43,17.43,0,0,1-1.39-2.07,19,19,0,0,1-1-3.82,105.83,105.83,0,0,1-.21-14l.05-2A145.11,145.11,0,0,1,259.61,134c.17-.9.4-2.1.71-3.3s.69-2.33,1.1-3.51a55.66,55.66,0,0,1,2.25-5.19l.57-1.21,1.35-2.85.06-.12.06-.13c.61-.12,1.23-.21,1.85-.3s1-.06,1.56-.06,1.24,0,1.87.08a22.72,22.72,0,0,1,3.39.81,14.17,14.17,0,0,1,1.86,1,25.57,25.57,0,0,1,3.31,3.14,18.52,18.52,0,0,1,1.67,2.35c.46.78.86,1.59,1.23,2.35a44.22,44.22,0,0,1,2.63,8.44,66.13,66.13,0,0,1-.36,16.67c-.2,1.32-.42,2.65-.65,4a40.79,40.79,0,0,1-2.42,9.32,35.17,35.17,0,0,1-3.77,5.81c-.34.35-.69.69-1.06,1a14.46,14.46,0,0,1-1.53.8,19,19,0,0,1-2.86.63c-.87.07-1.74.11-2.6.11Z"/><path class="cls-1" d="M3118.47,2.08c-.55,0-1.1,0-1.65,0-1.72.1-3.44.23-5.16.37s-3.21.25-4.81.34l-.52,0a4.17,4.17,0,0,0-1.58.21l-.51.22a3.31,3.31,0,0,0-1.44,1.14,7.14,7.14,0,0,0-1,1.59,24.85,24.85,0,0,0-1.55,5.27c-.16.83-.37,1.92-.48,3,0,.45-.09.9-.14,1.35-.1,1-.21,2-.27,2.93-.64,10-.78,19.87-.88,30-.07,7.6-.08,15.33-.09,22.8v5.91c0,1.26,0,2.52,0,3.78,0,3.31,0,6.73.05,10.08.07,2.76.17,5.51.28,8.27q.14,3.33.24,6.68c.07,2.5.13,5,.19,7.49-1.24-2.72-2.46-5.45-3.68-8.19-1.34-3-2.86-6.46-4.49-9.64-.88-1.72-1.83-3.36-2.89-5.16-.46-.79-1-1.57-1.44-2.35s-.91-1.46-1.35-2.2c-1.08-2-2-4.19-2.93-6.32l-.64-1.5q-1.42-3.28-2.8-6.6l-.11-.27c-.75-1.8-1.5-3.6-2.27-5.38s-1.76-3.69-2.69-5.44l-.07-.14c-1.47-2.76-2.81-5.71-4.11-8.56-.44-1-.88-1.94-1.33-2.91-1-2.21-1.89-4-2.75-5.62a46,46,0,0,1-2.42-5.33l-.54-1.45a82.6,82.6,0,0,0-4.31-10.16,26.15,26.15,0,0,0-1.87-3.11c-.55-.76-1.13-1.46-1.73-2.17l-.17-.2a20.82,20.82,0,0,0-2.09-2.29,15.89,15.89,0,0,0-3.94-2.43,10.9,10.9,0,0,0-2.54-.7l-.29-.05-2.64-.54c-1.76-.36-3.57-.69-5.4-1l-.39-.06c-.66-.1-1.32-.2-2-.28a2.78,2.78,0,0,0-1.13-.32l-1.92-.09c-2.61-.13-5.31-.26-8-.29h-.36a29.44,29.44,0,0,0-3.89.25c-1.1.15-2.22.37-3.3.59l-.81.16-2.44.39c-.92.15-1.83.29-2.74.45a7.55,7.55,0,0,0-1.88.52,6.69,6.69,0,0,0-1.64,1,11,11,0,0,0-2.39,3.48,22.15,22.15,0,0,0-1.41,4.09,33.59,33.59,0,0,0-.86,5.36c-.4,4.05-.63,8.35-.71,13.54l0,1c0,1.77-.06,3.61,0,5.41q.12,9,.28,17.94.09,6.2.19,12.4c.11,6.87.49,13.83.85,20.56.15,2.73.3,5.47.43,8.21.29,6.06.43,12.24.55,18.21.07,3.23.14,6.46.24,9.69l.12,4.41q.33,11,.65,21.94c.12,4.07.36,8.08.7,11.93s.78,7.88,1.27,12.25c.26,3.23.49,6.58.7,10l.24,4.19q.18,3.36.4,6.7c.43,6.46,1,13.44,1.84,21.33l0,.39c.21,2.18.43,4.44.71,6.65l.15,1.25a26.79,26.79,0,0,0,1.62,7.48,6.64,6.64,0,0,0,4.53,4,16.23,16.23,0,0,0,3.38.27,43.22,43.22,0,0,0,5.09-.29c3.22-.38,6.65-.77,10.13-1l.73,0c1.88-.12,3.83-.24,5.74-.24a34.07,34.07,0,0,1,3.48.16l1.82.22c.62.15,1.25.31,1.87.48a10.5,10.5,0,0,0,2.78.53,3.45,3.45,0,0,0,2.27-.77c2-1.63,2.29-5,2.5-7.65l0-.41c.09-1.13.18-2.26.24-3.39.12-2.28.23-4.75.33-7.57.08-2.16.15-4.45.09-6.69-.28-10.15-.53-19.31-.72-28.57-.06-2.88-.22-5.8-.38-8.62-.1-1.91-.21-3.82-.29-5.74l0-.6c-.08-2-.17-4-.13-6,.05-2.49.12-5,.19-7.47q.09-3,.15-6.07c0-2.67.11-5.34.21-8q.28-7.73.59-15.46c.24-5.94.38-10.51.46-14.8,0-2.36.05-4.72.07-7.08v-.59l.84,1.85c1,2.17,1.81,4.51,2.59,6.78,1.45,4.25,2.82,8.64,4.15,12.89l.12.38q1.4,4.72,2.83,9.43l.35,1.17c.93,3.06,1.89,6.22,2.94,9.26s2.23,5.91,3.38,8.75l.11.28c1.14,2.81,2.23,5.77,3.32,9,1.1,3.75,2,7.65,3,11.41l.26,1.07c1,4.07,2.22,8.34,3.84,13.44l.77,2.42c1,3.24,2.08,6.58,3.28,9.77.5,1.32,1,2.64,1.51,4,1,2.6,2,5.28,3,8,.57,1.6,1.17,3.37,1.84,5.4l.21.71c.84,2.84,1.72,5.78,3.33,8a7.89,7.89,0,0,0,2.68,2.31,7.27,7.27,0,0,0,2.78.75,13.68,13.68,0,0,0,1.79.13l.54,0c1-.07,2.09-.18,3.13-.29l1.8-.19c1.79-.16,3.58-.31,5.37-.43,2.43-.17,4.44-.26,6.31-.26,1.25,0,2.41,0,3.56.11l2.34.17c2.14.16,4.34.32,6.51.32.48,0,1,0,1.43,0a78.39,78.39,0,0,0,10.5-1.17l2.26-.38.6-.08a4.72,4.72,0,0,0,2.58-.87,7.47,7.47,0,0,0,1.19-1.26,8.91,8.91,0,0,0,1.21-2.92,41.84,41.84,0,0,0,1-7.11l0-.49c.11-1.33.21-2.64.28-4,.13-2.33.19-4.72.23-7s0-4.69,0-7v-.31c-.06-3.25-.16-6.55-.27-9.74,0-1.55-.09-3.1-.14-4.65-.13-4.44-.48-9.28-1.1-15.22-.25-2.47-.53-4.95-.8-7.42-.22-2-.44-3.93-.65-5.9q-.78-8.75-1.54-17.49c-.37-4.3-.85-8.66-1.31-12.88-.19-1.73-.37-3.45-.55-5.18-.14-1.49-.27-3-.41-4.45l-.48-5.33c-.13-1.53-.25-3.06-.38-4.6-.17-2.14-.34-4.28-.54-6.42-.34-3.64-.71-7.53-1.25-11.4-.45-3.21-.86-6.5-1.25-9.67l-.14-1.18c-.57-6-1.09-12.18-1.59-18.12-.67-7.88-1.37-16-2.16-24V43.5c-.12-1.59-.24-3.19-.37-4.78-.2-2.58-.41-5.25-.66-7.87-.22-2.26-.4-4.62-.56-7.23-.05-.94-.1-1.89-.14-2.84-.07-1.34-.13-2.67-.23-4a27.83,27.83,0,0,0-.83-5.42,9.16,9.16,0,0,0-1.92-3.84,11.08,11.08,0,0,0-3.68-2.57,26.86,26.86,0,0,0-6.8-1.82l-.69-.13a49.84,49.84,0,0,0-8.66-.91Z"/><path class="cls-1" d="M1500.42,10.19h-.1a44.2,44.2,0,0,0-7.55.79,48.12,48.12,0,0,0-5.35,1.35l-1.45.42c-2.86.82-6,1.63-9.49,2.47l-2.06.47a56.71,56.71,0,0,0-7.54,2.09l-.26.11-.18.07a4.11,4.11,0,0,0-1-1.57,4.72,4.72,0,0,0-6.44,0,4.06,4.06,0,0,0-1.33,3.07c.7,5.38,1.3,10.23,1.62,15.16.29,4.46.57,9.24.58,14,0,.7,0,1.4,0,2.11,0,1.53,0,3.07,0,4.6l0,1.41c0,1.91-.1,3.83-.17,5.74-.17,5-.33,10.07-.44,15.11-.18,8.57-.31,17.78,0,27.1.18,4.85.37,9.87.71,14.83l.13,1.94c.24,3.63.49,7.39.83,11.07.28,3,.59,6,.91,9,.18,1.66.35,3.33.52,5s.27,3.44.36,5.13l.08,1.52c.14,2.58.31,5.17.47,7.75l.27,4.11c.21,3,.42,6,.57,9.05.13,2.6.29,5.2.44,7.8.11,1.86.23,3.72.33,5.58.28,5.18.6,9.74,1,14,.3,3.45.75,6.94,1.19,10.31l.41,3.22.29,2.34c.46,3.65.93,7.43,1.33,11.15.47,4.42.59,8.93.71,13.3v.21c.12,4.41.14,8.91.15,13.25,0,1.4,0,2.8,0,4.2v2.11a18,18,0,0,0,.13,2.51l0,.28a13,13,0,0,0,.32,1.76,7.29,7.29,0,0,0,.94,1.94c1.8,2.85,5.48,4,9.18,4.74a80.38,80.38,0,0,0,9.75,1.22c2.21.18,4.83.37,7.5.38h.4c3.76,0,7.58-.27,11.27-.54l3.18-.22c4.8-.32,9.69-.47,14.41-.61h.4c4.15-.12,8.37-.36,12.44-.59l2.16-.12a125.87,125.87,0,0,0,14.93-1.42c1.35-.23,2.72-.55,4-.86.83-.19,1.66-.39,2.49-.56l4.14-.89,3-.64a74.24,74.24,0,0,0,13.77-4.41,47.81,47.81,0,0,0,4.57-2.33l1-.58a49.71,49.71,0,0,0,5.87-3.7,43.78,43.78,0,0,0,4.18-3.73l.36-.35c.59-.57,1.15-1.17,1.71-1.77l.68-.73.31-.32c.82-.85,1.67-1.73,2.44-2.65a41.54,41.54,0,0,0,5.18-7.81,55,55,0,0,0,3.69-9.68,87.64,87.64,0,0,0,2.19-10.28l.14-.79c.34-2,.55-4,.75-6l.2-1.94c.18-1.57.28-3.18.38-4.73l.11-1.82c.32-4.39.39-8.87.45-13.21v-.28c.15-10.7.19-20.29.12-29.34,0-4.4-.22-8.95-.56-13.53-.19-2.46-.45-5-.7-7.37-.2-1.93-.4-3.85-.56-5.79l-.21-2.39c-.32-3.89-.66-7.92-1.09-11.87-.49-4.61-1.11-9.53-1.9-15-.32-2.29-.69-4.58-1-6.86l-.15-1c-.3-2.06-.59-4.12-.9-6.17l-.27-2c-.23-1.63-.46-3.33-.79-5a38.15,38.15,0,0,0-1.76-6.43c-.8-2.08-1.65-4.14-2.51-6.2l-.32-.77c-1.78-4.3-3.62-8.75-5.68-13a36.85,36.85,0,0,0-8.54-11.46c-4.33-3.83-7.69-6.71-10.9-9.35-2-1.6-4.1-3.17-6.36-4.67-1-.65-2-1.27-3-1.88-.73-.44-1.46-.87-2.17-1.32-2.56-1.61-4.54-2.81-6.43-3.91a48,48,0,0,0-6.18-3c-4-1.6-8-3-12-4.43l-1.54-.55c-2.27-.79-4.54-1.55-6.75-2.24a52.12,52.12,0,0,0-7-1.58c-1.85-.31-3.7-.58-5.56-.84l-1.64-.24c-1.32-.19-2.63-.4-4-.6l-3-.47a104.59,104.59,0,0,0-14.87-1.33Zm19.87,159.91c-.83,0-1.66,0-2.53-.11a43.65,43.65,0,0,1-1.61-7.23l-.05-.31c-.49-4-.88-8.28-1.21-13.53-.1-1.57-.16-3.13-.22-4.69l-.07-1.88-.08-1.69c-.08-1.71-.16-3.42-.18-5.13l0-3c-.1-8.08-.21-16.44-.67-24.65,0-.51-.06-1-.08-1.55l1.35.34c1.49.35,3,.62,4.51.88l2.06.37a70.72,70.72,0,0,1,12.65,3.61,18.08,18.08,0,0,1,2.94,1.61,12,12,0,0,1,1,1,27.14,27.14,0,0,1,2.21,3.88A90.86,90.86,0,0,1,1544,128.3c.21.76.43,1.52.66,2.27a82.39,82.39,0,0,1,2.17,8.59,34.17,34.17,0,0,1,0,6.78c-.34,1.93-.66,3.41-1,4.79a39.44,39.44,0,0,1-1.78,5.07,38.9,38.9,0,0,1-3.77,6.49,18,18,0,0,1-1.94,1.82,28.11,28.11,0,0,1-3.32,2c-1,.49-2,1-3.37,1.53a42.48,42.48,0,0,1-7.5,2.2c-1.25.12-2.37.22-3.51.23Z"/><path class="cls-1" d="M3309.8,2.08a8.85,8.85,0,0,0-2.28.33,7.82,7.82,0,0,0-1.72.89,3.05,3.05,0,0,0-.65.5,4,4,0,0,0-.92,1c-6.56,1-13.25,1.63-19.72,2.29l-3.15.32c-6.94.71-14,.9-20.87,1.09H3258c-2.21.07-4.4.17-6.6.27l-5.11.27H3245c-1.54,0-3.08.13-4.62.13h-7.07c-3.76.1-7.65.21-11.46.63h-.69c-3.85.42-7.84.84-11.76,1.43a168.62,168.62,0,0,0-17.9,3.51,74.4,74.4,0,0,1-11,1.18h-1.05c-1.38,0-2.75,0-4.12-.12h-.43l-1.48,0c-.89,0-1.79-.12-2.68-.12h-1.46a9.07,9.07,0,0,0-5.82,2.08c-2.43,2.26-3.51,6.33-4.21,10a75.76,75.76,0,0,0-1.16,9.67l-.15,2.23-.16,2.28c-.15,2.59-.2,5.19-.15,7.78s.15,5.12.31,8q.53,8.16,1.8,16.18c.18,1.18.41,2.34.7,3.48a17.36,17.36,0,0,0,1.4,3.88,12.55,12.55,0,0,0,1.37,2.11,27.42,27.42,0,0,0,2,2,13.6,13.6,0,0,0,3.29,2,20.37,20.37,0,0,0,3.87,1.27c.73.17,1.45.3,2.18.42l1,.11a86.87,86.87,0,0,0,12.34,1.16c1.86.09,3.6.13,5.26.13a59.12,59.12,0,0,0,6.19-.21l3.31-.19c1.9-.11,3.81-.21,5.71-.39,1.05-.1,2.1-.24,3.23-.38l1.18-.12,1-.15a19.84,19.84,0,0,1,2.56-.28,1.9,1.9,0,0,0,.19.55c.41,1.43.78,3,1.05,4.45s.46,2.67.61,4c.73,9.31.77,18.85.81,28.09v8.23c0,8.95.11,18.21-.05,27.31,0,1.64-.1,3.29-.16,4.94,0,.93-.07,1.85-.1,2.78-.11,2.86-.18,5.73-.25,8.59-.1,5.36-.15,10.69-.19,15.69v1.75c0,2,0,4-.06,6-.07,2.71-.33,5.47-.56,7.91-.27,2.87-.41,5.86-.53,8.71-.11,2.12-.2,4.3-.36,6.43-.09,1.24-.18,2.47-.29,3.7-.05.54-.09,1.09-.11,1.65a14.45,14.45,0,0,0,.69,5.54c1.18,3.33,3.83,4.66,6,5.46a20.45,20.45,0,0,0,3.65.89,35.45,35.45,0,0,0,5.62.57h.15c1.47,0,3,0,4.43-.13h1c4.21-.17,8-.28,11.63-.34h1.83a41,41,0,0,0,4.42-.16,8.26,8.26,0,0,0,2-.39l.55-.21,1.4-.8a11.35,11.35,0,0,0,2.8-3.23,19.85,19.85,0,0,0,1.19-2.4,21.59,21.59,0,0,0,.72-2.28l.14-.52a37.53,37.53,0,0,0,1-5.44l.06-.45c.58-4.29,1.05-8.72,1.49-13l.4-3.78c.3-2.77.55-5.73.76-9.16q.11-1.74.18-3.48c.05-1.16.11-2.55.2-3.81.38-5.82.65-10.69.71-15.63s0-10.23-.34-16.12c-.26-5-.56-10.17-.92-15.23-.33-4.57-.56-9.57-.72-15.76-.11-4.8-.13-9.68-.14-14.41V98.74c0-1.17.08-2.35.2-3.52a5.53,5.53,0,0,0,.11-.9v-.59c.09-.65.2-1.3.34-1.93a11.64,11.64,0,0,1,1.14-1.44,19.6,19.6,0,0,1,2.75-2.12c2.45-1.34,4.73-2.49,7-3.48,1.29-.57,2.56-1.13,3.84-1.56a33.42,33.42,0,0,1,4-1,48.29,48.29,0,0,1,5-.64h2c1.19,0,2.37,0,3.55.1,4,.17,7.63.3,11.12.37h.75a13.6,13.6,0,0,0,3.47-.36,5.59,5.59,0,0,0,1.83-1.06,7.67,7.67,0,0,0,1.27-1.43,14.34,14.34,0,0,0,2-4.51c.63-2.23,1.15-4.5,1.58-6.81l.21-1.12c.37-2,.76-4,1-6.08q.55-4,.8-8.06a178,178,0,0,0-.31-22.75c-.15-2.26-.39-4.53-.63-6.7l-.1-1c-.16-1.43-.32-3-.54-4.48a12.9,12.9,0,0,0-2.57-6.2,8.57,8.57,0,0,0-.12-1.44,12.35,12.35,0,0,0-1.81-4.75,7.19,7.19,0,0,0-2.93-2.54,5.82,5.82,0,0,0-2.37-.49Z"/><path class="cls-1" d="M1183.31.91c-.29,0-.58,0-.86,0a32.1,32.1,0,0,0-3.67.47,13.15,13.15,0,0,0-4.29,1.68,4,4,0,0,0-2,2.22,3.28,3.28,0,0,0-.12,1.39,3.14,3.14,0,0,0-1,2.39c.27,4.51.51,9.11.73,14.06.15,3.62.34,7.49.64,11.33s.59,7.7,1,11.57c.45,4.48.76,8.21,1,11.74.2,3.28.41,6.57.62,9.85.33,5.24.66,10.47,1,15.71.09,1.62.16,3.23.24,4.84.1,2.16.2,4.31.33,6.46l.87,13.7c.37,5.74,1,11.56,1.54,17.2q.33,3.15.63,6.3l.4,4.05c.65,6.73,1.33,13.69,1.86,20.55.34,4.26.77,8.59,1.19,12.77l.12,1.2c.5,5,1.15,9.92,1.93,14.64q.55,3.78,1.08,7.56L1187,196c.29,2,.54,4,.8,6s.51,4,.79,6c.53,3.69,1,7.45,1.38,11.09.46,4.08.94,8.29,1.56,12.42.28,1.85.54,3.7.81,5.55.34,2.35.67,4.7,1,7v.09c.29,1.92.58,3.89.94,5.83.21,1.15.45,2.31.7,3.46.16.74.31,1.48.46,2.22l.16.81a18.92,18.92,0,0,0,.67,2.82,6.4,6.4,0,0,0,2.76,3.34,14.94,14.94,0,0,0,4.31,1.64c1.49.4,3,.67,4.53.94l.52.09.86.12.37.05.86.11c.57.07,1.14.15,1.7.19,1,.06,2.27.13,3.53.13a26.66,26.66,0,0,0,2.93-.15c2.9-.31,5.45-.69,7.8-1.15,1.77-.35,3.7-.77,6.08-1.33,1.08-.26,2.17-.5,3.26-.75s2.19-.49,3.27-.75c2-.47,4-1,6.1-1.63,1.69-.5,3.37-1.08,5-1.65l1-.35c1.18-.4,2.36-.87,3.5-1.38q.88-.41,1.74-.84a6.7,6.7,0,0,0,2.79-3,17.64,17.64,0,0,0,.78-1.81,7,7,0,0,0,.29-1.5l.06-.51a15.49,15.49,0,0,0,0-3.12l0-.59c0-.9-.12-1.8-.19-2.7l-.07-.88-.22-2.93c-.22-2.89-.44-5.78-.69-8.68l-.06-.64c-.33-3.7-.67-7.53-.94-11.3-.29-4.29-.54-8.57-.72-12.73-.16-3.68-.4-7.52-.72-11.74-.08-1-.15-2.06-.22-3.09-.2-2.82-.41-5.74-.71-8.6l-.09-.85c-.17-1.55-.33-3.15-.56-4.72s-.45-2.9-.68-4.35l-.34-2.06c-.14-1-.27-2-.41-3-.37-2.74-.76-5.57-1.26-8.33-.64-3.49-1.49-6.85-2.47-10.56-.53-2-1-4.13-1.44-6.14-.37-1.63-.73-3.26-1.13-4.88l-.29-1.18c-.36-1.44-.71-2.89-1-4.33-.2-.87-.46-1.74-.71-2.58-.17-.58-.34-1.16-.49-1.75a.58.58,0,0,0,.15-.06c3.74-1.25,8.14-2.79,12.5-4.72,2-.89,4-2,5.64-2.92,2.11-1.2,3.87-2.24,5.58-3.4a134.8,134.8,0,0,0,10.82-8.08c.74-.61,1.47-1.24,2.2-1.86s1.61-1.38,2.43-2c1-.87,2.13-1.71,3.22-2.54l1.67-1.3a31.23,31.23,0,0,0,4.54-4.62c1.25-1.51,2.45-3,3.48-4.52a48.53,48.53,0,0,0,3.11-5.52,33.65,33.65,0,0,0,2.31-6,60,60,0,0,0,1.3-6c.32-1.89.53-3.83.73-5.71l.07-.62c.18-1.75.27-3.68.28-6.07a29.56,29.56,0,0,0-.57-6.26c-.19-.89-.41-1.77-.66-2.65a18.52,18.52,0,0,0-1-2.43l-.24-.53a38.38,38.38,0,0,0-2.91-5.47,57.11,57.11,0,0,0-8.37-9.87c-2.74-2.62-5.62-5.3-8.58-8-1.46-1.33-2.9-2.52-4.37-3.64a64.72,64.72,0,0,0-5.5-3.65c-1.63-1-3.33-1.91-5.2-2.86s-3.79-1.92-5.73-2.69c-4-1.56-8.1-3.11-12.32-4.61-1.72-.62-4-1.41-6.4-2-2-.54-4.12-.93-6.24-1.32-.83-.15-1.65-.32-2.47-.48-1.2-.24-2.39-.47-3.6-.68-2.29-.39-4.71-.71-7.59-1-2.62-.28-5.3-.4-7.89-.52-1.32-.07-2.64-.13-4-.21-2-.12-3.93-.28-5.9-.44s-3.8-.31-5.7-.43c-4.22-.28-8.11-.47-11.9-.58L1185,1h-.57l-1.15,0Zm36.32,82c-.09-.32-.16-.64-.22-1a61,61,0,0,1-.33-7.46q0-3.87,0-7.73c0-4.77.08-9.53.12-14.29a5.1,5.1,0,0,0,1.09.16c.71,0,1.41.06,2.11.06,1.18,0,2.36,0,3.54-.09l.76,0,1.28,0c1.08,0,2.19.05,3.4.16a59.86,59.86,0,0,1,9.11,2.06,15,15,0,0,1,1.84.91,13,13,0,0,1,1.23,1.11,28.44,28.44,0,0,1,2.57,3.86,15.47,15.47,0,0,1,1.08,3.11,23.88,23.88,0,0,1-.2,5.08,38.21,38.21,0,0,1-2.18,7.15l-.17.28a11.63,11.63,0,0,1-1,.85,16.31,16.31,0,0,1-1.87.92c-1.21.42-2.64.9-4.11,1.28-1.93.49-3.89.93-5.55,1.28l-3.24.71c-2.32.53-4.73,1.06-7.13,1.46-.72.07-1.45.13-2.18.16Z"/><path class="cls-1" d="M2477.42,6l-.86,0a31.94,31.94,0,0,0-3.67.46,13.14,13.14,0,0,0-4.28,1.69,3.94,3.94,0,0,0-2,2.22,3.27,3.27,0,0,0-.12,1.39,3.09,3.09,0,0,0-1,2.39c.27,4.5.5,9.1.72,14.06.16,3.61.34,7.49.64,11.33s.6,7.7,1,11.56c.45,4.49.76,8.22,1,11.75q.3,4.92.61,9.84c.33,5.24.67,10.48.95,15.72.09,1.61.17,3.23.24,4.84.1,2.15.2,4.3.34,6.46q.42,6.84.86,13.7c.37,5.74,1,11.56,1.54,17.19q.33,3.15.64,6.31l.39,4c.65,6.73,1.33,13.69,1.87,20.54.33,4.27.77,8.59,1.19,12.78l.12,1.2c.49,5,1.14,9.92,1.92,14.64.38,2.52.73,5,1.08,7.55l.48,3.37q.42,3,.79,6c.26,2,.51,4,.8,6,.52,3.69.95,7.45,1.37,11.09.46,4.07.94,8.29,1.56,12.41q.42,2.79.81,5.56c.34,2.35.68,4.69,1,7v.09c.28,1.91.58,3.89.93,5.83.21,1.15.46,2.3.7,3.45.16.74.32,1.48.47,2.22l.15.81a20,20,0,0,0,.68,2.82,6.32,6.32,0,0,0,2.75,3.35,15.42,15.42,0,0,0,4.32,1.64c1.48.4,3,.67,4.52.94l.53.09c.28.05.57.08.86.12l.36,0,.86.11c.57.08,1.14.16,1.71.19,1,.07,2.27.14,3.52.14a26.53,26.53,0,0,0,2.93-.15c2.9-.32,5.45-.69,7.8-1.15,1.78-.35,3.71-.77,6.08-1.33,1.09-.26,2.18-.5,3.27-.75l3.27-.75c2-.47,4-1,6.09-1.63,1.69-.5,3.38-1.09,5-1.66l1-.34c1.18-.4,2.35-.87,3.49-1.38.59-.27,1.17-.55,1.74-.85a6.54,6.54,0,0,0,2.79-3,15.55,15.55,0,0,0,.78-1.8,7.1,7.1,0,0,0,.29-1.5c0-.17,0-.34.07-.51a15.49,15.49,0,0,0,0-3.12l0-.6c0-.9-.12-1.8-.19-2.7l-.07-.87-.23-2.93c-.22-2.89-.43-5.79-.69-8.68l-.06-.65c-.33-3.7-.67-7.52-.93-11.29-.3-4.29-.54-8.58-.73-12.73-.16-3.68-.39-7.52-.72-11.74-.07-1-.15-2.06-.22-3.09-.2-2.82-.41-5.74-.71-8.61l-.09-.84c-.16-1.55-.33-3.15-.56-4.72s-.44-2.9-.68-4.36l-.33-2.06-.42-3c-.37-2.74-.76-5.57-1.26-8.34-.63-3.48-1.49-6.84-2.46-10.56-.54-2-1-4.12-1.45-6.14-.36-1.62-.73-3.25-1.13-4.88l-.29-1.17c-.35-1.45-.71-2.89-1-4.34-.2-.86-.45-1.73-.7-2.57-.17-.58-.35-1.17-.5-1.75l.16-.06c3.73-1.25,8.14-2.79,12.5-4.73,2-.89,4-2,5.63-2.91,2.11-1.21,3.87-2.25,5.58-3.4,4.07-2.76,7.61-5.4,10.83-8.08.74-.61,1.47-1.24,2.2-1.87l2.42-2c1.06-.86,2.14-1.7,3.22-2.54l1.68-1.3a30.67,30.67,0,0,0,4.53-4.62c1.25-1.5,2.45-3,3.49-4.51a47.69,47.69,0,0,0,3.1-5.52,33.47,33.47,0,0,0,2.31-6,60.58,60.58,0,0,0,1.31-6c.32-1.9.52-3.84.72-5.71l.07-.63a58.21,58.21,0,0,0,.28-6.07,28.82,28.82,0,0,0-.57-6.25c-.19-.89-.4-1.77-.65-2.65a16.81,16.81,0,0,0-1-2.43l-.23-.53a37.83,37.83,0,0,0-2.92-5.47,57.46,57.46,0,0,0-8.36-9.88c-2.74-2.61-5.63-5.3-8.58-8-1.47-1.34-2.9-2.53-4.38-3.64a60.24,60.24,0,0,0-5.5-3.65c-1.62-1-3.32-1.91-5.2-2.87s-3.78-1.91-5.73-2.68c-4-1.57-8.09-3.12-12.32-4.62-1.72-.61-4-1.4-6.4-2-2-.54-4.12-.94-6.24-1.32l-2.47-.48c-1.19-.24-2.39-.48-3.59-.68-2.3-.39-4.71-.72-7.6-1-2.62-.28-5.3-.41-7.89-.53-1.32-.06-2.63-.12-3.95-.2-2-.13-3.93-.29-5.89-.45s-3.8-.3-5.71-.43c-4.22-.27-8.11-.46-11.9-.57l-2.8-.07-.57,0-1.15,0Zm36.32,82c-.08-.32-.16-.65-.22-1a58.89,58.89,0,0,1-.32-7.45c0-2.58,0-5.16,0-7.74q0-7.14.13-14.28a5.71,5.71,0,0,0,1.08.16c.71,0,1.41.06,2.12.06,1.18,0,2.35-.05,3.53-.1l.76,0,1.29,0c1.07,0,2.18,0,3.4.15a60,60,0,0,1,9.1,2.07,16.82,16.82,0,0,1,1.85.9,11.83,11.83,0,0,1,1.22,1.12,28,28,0,0,1,2.57,3.85,15.13,15.13,0,0,1,1.08,3.12,23.17,23.17,0,0,1-.19,5.08A38.61,38.61,0,0,1,2539,81l-.18.29a11.53,11.53,0,0,1-1,.84,16.29,16.29,0,0,1-1.87.93c-1.2.42-2.63.9-4.1,1.27-1.93.5-3.89.93-5.56,1.29l-3.23.71c-2.33.52-4.74,1.06-7.13,1.45-.73.08-1.46.14-2.19.17Z"/><path class="cls-1" d="M1843.22,11.58h-.16l-2.76.12c-3.28.14-6.67.29-10,.59l-1.78.14c-1.54.11-3.12.23-4.65.48l-6.2,1c-1.2.2-2.42.45-3.59.69l-1.76.36c-1.46.29-2.92.63-4.35,1l-.43.1-1.87.46c-1.09.27-2.22.55-3.34.77-1.76.34-3.49.63-5.29.9s-3.32.31-5,.45c-2.81.24-5.73.48-8.57.9A5.32,5.32,0,0,0,1780,22a7,7,0,0,0-.72,4.24,22.6,22.6,0,0,0,.72,3.59l.18.69c.19.74.41,1.46.64,2.19s.43,1.41.61,2.13l1.76,6.73c.39,1.52.75,3.05,1.1,4.59.18.78.36,1.56.55,2.33.35,1.46.73,2.91,1.12,4.35l.43,1.61c.47,1.79,1,3.62,1.65,5.61l.36,1.1c.5,1.57,1,3.2,1.6,4.77.24.63.47,1.27.7,1.9.53,1.43,1.06,2.91,1.65,4.33l1.09,2.65,1.55,3.75c1.81,4.38,3.56,8.74,5.19,13,.55,1.41,1,2.88,1.47,4.3.22.7.44,1.39.67,2.08.5,1.48.93,3,1.35,4.5l.48,1.72c.85,3,1.64,6,2.39,8.93l.87,3.37c.68,2.59,1.42,5.2,2.14,7.73q.67,2.35,1.33,4.71c1.1,4,2.09,8.12,3.06,12.1l.06.26c2.27,9.4,4.54,17.73,7,25.44l.38,1.25c1.17,3.75,2.37,7.62,3.44,11.46,1.14,4.06,2.11,8.24,3,12.28l.15.64q.71,3,1.43,6.09c.15.66.32,1.32.49,2l.25,1a39,39,0,0,0,1.38,4.68,59.51,59.51,0,0,0,3,6.35l.62,1.19c.35.68.71,1.36,1.07,2,.55,1,1.09,2.09,1.63,3.15l.06.11c.56,1.13,1.15,2.29,1.68,3.46a48.58,48.58,0,0,1,2.7,10.72l0,.45a49.39,49.39,0,0,0,.93,5.89,21.53,21.53,0,0,0,.8,2.79c.17.44.34.88.52,1.32s.39.95.6,1.41a6.82,6.82,0,0,0,1.33,1.75c2,2.05,5,2.24,7.64,2.26h.23c1.72,0,3.46-.17,5.14-.32,2.24-.22,4.44-.46,7-.76l3.73-.42c3.15-.36,6.29-.72,9.44-1.06,4.18-.45,8.44-.7,12.57-.94l.44,0c1.44-.09,3-.13,4.72-.13,2.06,0,4.16.06,6.19.12l1.53,0,1.46,0c1.67,0,3.41.08,5.11.17s3.16.23,4.7.37l1.11.11c.48,0,1,.07,1.44.07a5.63,5.63,0,0,0,3.51-1l.41-.32.4-.31c.33-.41.65-.83,1-1.25a5.56,5.56,0,0,0,.68-1.48c.07-.19.13-.37.2-.55a27.71,27.71,0,0,0,1.25-4.3l0-.13c.4-1.7.76-3.61,1.15-6,.81-5,1.48-9.53,2-13.83s1.07-8.5,1.6-12.76c.55-3.87,1.2-8.37,1.94-12.81s1.69-9.12,2.41-12.58c.46-2.19.9-4.37,1.34-6.55.41-2,.82-4.15,1.06-6.27.08-.67.16-1.35.25-2,.17-1.43.35-2.91.47-4.37.19-2.4.39-4.79.58-7.18.15-1.73.36-3.49.57-5.2.08-.74.17-1.48.26-2.22l.44-3,.52-3.53c.22-1.47.49-3,.75-4.4l.36-1.94c.3-1.69.61-3.39.93-5.08q.61-3.27,1.19-6.54c.68-4,1.44-8.24,2.45-13.74.29-1.55.64-3.12,1-4.63.17-.74.34-1.49.5-2.23l.83-3.87.47-2.18c.39-1.81.75-3.63,1.11-5.45.42-2.11.85-4.28,1.32-6.41l.57-2.6.87-3.89c.16-.71.32-1.43.49-2.14.34-1.49.7-3,1-4.55.14-.69.29-1.37.44-2.06.3-1.42.61-2.89.86-4.35.11-.67.23-1.34.35-2,.31-1.72.62-3.5.84-5.26.08-.64.17-1.27.25-1.91.19-1.38.38-2.81.5-4.22.21-2.36.42-4.76.57-7.12.14-2.14.25-4.29.35-6.44a57.59,57.59,0,0,0,0-6.13c0-.49-.08-1-.14-1.45-.1-.75-.19-1.37-.31-1.94a7.87,7.87,0,0,0-.66-1.75l-.19-.4a6.22,6.22,0,0,0-1.17-1.53l-.17-.17a8,8,0,0,0-1.75-1.27,16.13,16.13,0,0,0-2.38-1.07,53.35,53.35,0,0,0-6.17-1.82c-.72-.18-1.47-.31-2.2-.43l-1.06-.18c-.74-.14-1.48-.25-2.22-.35l-1.07-.15c-2.58-.38-5.18-.64-7.69-.89-2.77-.28-5.6-.42-8.33-.55l-3.66-.19c-3.34-.2-6.92-.43-10.46-.8-.68-.1-1.48-.23-2.28-.41a7.27,7.27,0,0,0-1.65-.19,5.3,5.3,0,0,0-2.72.68,7.19,7.19,0,0,0-2.9,4,24,24,0,0,0-.85,3.31c-.06.32-.12.63-.19,1-.16.76-.31,1.53-.45,2.3l-.24,1.23-.1.52c-.74,3.82-1.49,7.63-2.2,11.45l-.18.94c-.78,4.19-1.6,8.52-2.24,12.81-.48,3.24-.81,6.56-1.13,9.76-.12,1.24-.24,2.47-.37,3.71-.07.7-.16,1.39-.25,2.09-.43,2.89-1.13,5.71-1.81,8.43l-.13.53-.35,1.41c-.68,2.74-1.39,5.57-2,8.36a55.11,55.11,0,0,0-1,5.45c-.2,1.55-.36,3.21-.54,5.37-.05.64-.09,1.28-.14,1.91,0,.87-.11,1.74-.2,2.6-.16,1.67-.35,3.33-.54,5-.38,2.71-.82,5.46-1.31,8.15-.11.62-.23,1.23-.34,1.85-.17.86-.33,1.73-.48,2.6s-.3,1.88-.44,2.82c-.07.52-.15,1-.23,1.55-.13.9-.27,1.81-.4,2.71l-.33,2.27c-.33-1.57-.68-3.15-1-4.72l-.19-.86c-.83-3.76-1.55-7.61-2.24-11.34l-.31-1.66c-.64-3.45-1.33-6.9-2-10.34l-.51-2.59c-.28-1.42-.55-2.85-.83-4.28l-.4-2.14c-.28-1.45-.61-2.91-.92-4.33l-.39-1.75c-.13-.6-.31-1.19-.48-1.76-.08-.27-.16-.53-.23-.79-.31-1.06-.61-2.12-.91-3.18-.19-.69-.44-1.38-.68-2-.12-.32-.24-.65-.35-1l-.26-.78c-.22-.67-.44-1.34-.69-2-.77-2-1.56-4.08-2.35-6.11s-1.57-4.08-2.34-6.12l-1.21-3.2-1.21-3.19-.09-.23c-.29-.78-.58-1.56-.9-2.32l-.51-1.26c-.37-.92-.75-1.86-1.17-2.76-1-2.18-2-4.11-2.88-5.9-.35-.7-.72-1.39-1.08-2.08-.59-1.11-1.19-2.25-1.73-3.4-.57-1.4-1.17-2.9-1.73-4.46l-.53-1.55c-.36-1.07-.73-2.18-1.17-3.25l-.5-1.23c-.5-1.25-1-2.54-1.64-3.76a29.18,29.18,0,0,0-2.28-3.69,3.83,3.83,0,0,0,1.34-2.94,4,4,0,0,0-3.85-4Z"/></g></g></svg>