<svg xmlns="http://www.w3.org/2000/svg" viewBox="0 0 451.6 128.21"><defs><style>.cls-1{fill:#fff;}</style></defs><g id="Layer_2" data-name="Layer 2"><g id="Draw_Layer" data-name="Draw Layer"><path class="cls-1" d="M400.74,0a10.17,10.17,0,0,0-1.68.18,4,4,0,0,0-1.31.57,6,6,0,0,0-.9.71l-.15.13a7.75,7.75,0,0,0-1.53,2.12,14.41,14.41,0,0,0-1.09,3.05l-.16.58a60.06,60.06,0,0,0-1.66,8.05l-.19,1.36c-.33,2.4-.67,4.88-1.12,7.3l-.22,1.12-.21,1.12c-.1.55-.26,1.1-.41,1.64-.07.26-.15.53-.22.8-.3,1.17-.65,2.35-1,3.49l-.26.85c-.17.59-.38,1.17-.59,1.75l-.27.78-.13.37-.12.36-.12-.57c-.11-.47-.22-.94-.32-1.4l-.2-.92c-.53-2.43-1.08-4.94-1.68-7.39s-1.21-5.29-1.82-8.41a56.54,56.54,0,0,0-2.08-8.15c-.16-.47-.34-.94-.52-1.4l-.24-.64a9.42,9.42,0,0,0-2.3-4,3.84,3.84,0,0,0-1.56-.82,2.28,2.28,0,0,0-.72-.1,6.36,6.36,0,0,0-1.53.25l-.63.2-.48.16c-.69.2-1.39.36-2.14.5s-1.77.16-3,.23c-1,.06-2,.17-2.91.29l-.64.07-.89.11c-.73.1-1.49.19-2.24.24l-1.29,0c-.68,0-1.41,0-2.36-.08s-1.66-.08-2.56-.08c-1.73,0-3.42.1-4.7.18-2.84.18-5.72.43-8.5.68l-.51,0a2.83,2.83,0,0,0-1.95.81,2.78,2.78,0,0,0-.81,2,2.6,2.6,0,0,0,.18,1,2.53,2.53,0,0,0-1.47-.45,2.85,2.85,0,0,0-2,.87,2.6,2.6,0,0,0-.75,1.89c.05,1.36.08,2.73.12,4.09,0,1.74.08,3.48.16,5.23.11,2.89.37,5.83.59,8.43.31,3.51.5,6.42.6,9.16s.14,5.77.17,8.51V50c0,3,0,6,.18,9a44.68,44.68,0,0,0,.65,4.8c.08.5.17,1,.25,1.5l.25,1.54c.22,1.33.44,2.65.63,4,.22,1.86.35,3.76.49,5.6.08,1.19.17,2.39.28,3.58.13,1.44.3,2.93.52,4.54.13,1,.29,2,.45,3,.1.61.19,1.21.28,1.82.39,3.76.53,7.45.62,10.57.05,1.72.19,3.58.41,5.5.15,1.26.29,2.31.47,3.38.05.33.12.65.2,1l0,.18a3.51,3.51,0,0,0,1.74,2.66l.33.14a2.67,2.67,0,0,0,2.55,1.82h.15a3.61,3.61,0,0,0,.67-.11,12.15,12.15,0,0,0,1.16.39,7.49,7.49,0,0,0,1.47.24,2.86,2.86,0,0,0,2.38,1.38h.49c.59,0,1.18,0,1.77-.06l.24,0h.6c.45,0,.9,0,1.34.06l1.2.2a22.18,22.18,0,0,0,3.67.45h.14a19,19,0,0,0,3.61-.46l.17,0a21.41,21.41,0,0,0,3.29-1,10,10,0,0,0,2.51-1.25,7.24,7.24,0,0,0,1.94-2.06c1-1.45.86-3.17.76-4.84l0-.53c-.07-1.36-.16-2.73-.27-4.09s-.3-2.92-.47-4.35c-.11-.86-.2-1.69-.29-2.53-.06-.58-.13-1.16-.2-1.75l0-.31c-.32-2.73-.65-5.54-.86-8.33-.47-6.45-.57-12.89-.61-17.78a157,157,0,0,1,1-17.3c.32.58.61,1.13.87,1.66.62,1.55,1.21,3.14,1.77,4.69.36,1,.72,2,1.1,2.95A102.16,102.16,0,0,0,380.68,70a14.9,14.9,0,0,0,3.43,4.69A9.09,9.09,0,0,0,386.32,76a10.94,10.94,0,0,0,3.41,1c.2,0,.41,0,.61,0a3.17,3.17,0,0,0,.9-.11,6.75,6.75,0,0,0,1.33-.52,3.49,3.49,0,0,0,.8-.6l.22-.19a6.35,6.35,0,0,0,.68-.69,17.78,17.78,0,0,0,1.86-2.73C397.41,70,398.86,68,400.27,66l.84-1.19c1.59-2.27,3.09-4.34,4.59-6.34,1.48-1.81,2.82-3.38,4.08-4.8.56-.63,1.12-1.23,1.7-1.84,0,1.44-.07,2.79-.09,4.14a37.35,37.35,0,0,0,.1,4.07c.16,1.63.38,3.33.66,5.07a83.38,83.38,0,0,0,2,8.83c.22.78.45,1.55.68,2.31s.39,1.3.58,2c.3,1.09.58,2.19.86,3.3l.21.84c.13.49.21,1,.3,1.5,0,.25.08.5.13.75L417,85c.08.45.17.91.25,1.37l.17,1.17c.16,1,.32,2.13.53,3.19l.21,1.08c.22,1.15.45,2.35.75,3.51.19.75.39,1.49.6,2.24s.38,1.4.56,2.1c.23.93.44,1.87.65,2.81l.36,1.56c.18.79.39,1.58.62,2.36.57,2,1.39,4.21,3.19,5.33a12.34,12.34,0,0,0,2.34,1.06l.54.21a17.37,17.37,0,0,0,2.1.64,15.15,15.15,0,0,0,3.74.38h1a28.49,28.49,0,0,0,3.56-.39l.7-.1c1.28-.19,2.65-.42,4.18-.7a11.43,11.43,0,0,0,1.15-.3l.51-.14a14.69,14.69,0,0,0,1.8-.64c.47-.19.92-.39,1.37-.62a5.2,5.2,0,0,0,.95-.66l.28-.23a4.63,4.63,0,0,0,1.24-2A10.24,10.24,0,0,0,451,106c.15-1,.25-1.79.31-2.56.11-1.37.2-2.74.28-4.11s0-2.48,0-3.77c-.09-2.34-.42-4.72-.73-7l-.06-.43-.12-1c-.25-2-.51-4.15-.83-6.22a77.59,77.59,0,0,1-.43-8.06c0-1.48.06-3,.14-4.43s.15-2.68.15-4c0-3-.1-5.82-.23-9.25s-.31-6.25-.59-8.81c-.09-.83-.18-1.65-.26-2.48-.21-2-.42-4-.69-6-.22-1.69-.46-3.37-.71-5-.2-1.42-.41-2.84-.6-4.26l-.1-.75c-.36-2.66-.73-5.4-1.27-8.07-.6-3-1.34-5.9-2.11-8.89a25.72,25.72,0,0,0-1.84-4.88c-.73-1.46-2-3.32-3.82-3.87A12.55,12.55,0,0,0,434,1.64c-3.14-.08-6.29-.22-8.68-.34s-4.78-.13-7.2-.13h-1.56c-1.38,0-2.75,0-4.12-.06l-1.29,0L409.9,1c-.54,0-1.09-.08-1.63-.14L407.5.83l-1-.09-.16,0c-.5-.07-1-.15-1.52-.21L403.61.33l-.68-.11c-.58-.08-1.16-.15-1.75-.2a3.24,3.24,0,0,0-.44,0Z"/><path class="cls-1" d="M263.27,8a2.48,2.48,0,0,0-.73.1l-.77.23c-1.14.34-2.31.7-3.49,1-.52,0-.93-.05-1.35-.05a13.85,13.85,0,0,0-2.25.18l-.31.11a2.78,2.78,0,0,0-1.56-1.16,3.06,3.06,0,0,0-.73-.1,2.82,2.82,0,0,0-2.67,2l-1,3.3q-1.08,3.39-2.12,6.8l-.24.75c-.32,1.05-.66,2.14-.92,3.23l-.73,3-.15.61c-.11.4-.21.8-.29,1.2l-1,5.36c-.8,4.32-1.59,8.64-2.43,12.95-.66,3.4-1.45,6.82-2.22,10.13-.51,2.22-1,4.44-1.51,6.66-1.43,6.66-2.56,12.65-3.46,18.31-.39,2.48-.84,5.37-1.2,8.22l-.37,2.87c-.19,1.53-.38,3.07-.59,4.61v0c-.17,1.26-.33,2.51-.49,3.77l-.23,1.66c-.1.78-.21,1.55-.31,2.33-.21,1.37-.41,2.71-.67,4-.19,1-.35,1.93-.51,2.9l-.23,1.37-.19,1-.16.89c-.09.5-.17,1-.22,1.53a5.45,5.45,0,0,0,.06,1.47,6.07,6.07,0,0,0,1.44,2.93,7.49,7.49,0,0,0,2,1.67,7.79,7.79,0,0,0,3,1A34.61,34.61,0,0,0,239,125c.73,0,1.47,0,2.2,0,2.09,0,4.26,0,6.38.25l1.39.14a66.66,66.66,0,0,0,7,.48h.23a24.81,24.81,0,0,0,4.56-.54c.66-.13,1.33-.26,2-.42a10.94,10.94,0,0,0,2.07-.76,7.1,7.1,0,0,0,2.39-2.39l.06-.09a20.07,20.07,0,0,0,2.74-6.68l.2-.74c.32-1.15.62-2.3.92-3.46l.27-1,.81-3.16c.48-1.84,1-3.68,1.44-5.52l.52-2c.54-2,1.1-4.12,1.58-6.19.14-.61.28-1.22.41-1.83.25-1.12.51-2.27.8-3.4q.77-2.91,1.55-5.82c.43-1.58.93-3.17,1.41-4.71l.05-.17.09-.28c.25-.8.5-1.59.79-2.38l.51-1.29.29-.73.32-.72.64-1.44.17-.37h0l.3.43c.79,1.05,1.61,2.13,2.36,3.23.93,1.37,1.81,2.82,2.58,4.1a70.28,70.28,0,0,1,4,7.35,59.6,59.6,0,0,1,1.78,6.66l.36,1.6c.72,3.08,1.37,5.78,2,8.24.49,1.9.92,3.85,1.33,5.74.16.75.33,1.5.49,2.25a31.57,31.57,0,0,0,1.08,4,12.42,12.42,0,0,0,2.47,4.08,6.81,6.81,0,0,0,1.71,1.34,7.72,7.72,0,0,0,2.85.77c.3,0,.61.05.91.05.49,0,1,0,1.47-.08l.4,0H309c1.47-.11,3-.23,4.48-.45a31.36,31.36,0,0,0,4-.87l.43-.13c1.24-.36,2.51-.73,3.8-1,.59,0,1.21-.08,1.9-.08,1,0,2.07.06,3,.11s2,.12,3,.12h.64a19.64,19.64,0,0,0,3.16-.27,7.68,7.68,0,0,0,1.69-.63l.32-.15c.31-.14.62-.31.92-.47a9.12,9.12,0,0,0,3-2.7,6.75,6.75,0,0,0,1-2.46,12.22,12.22,0,0,0,.21-3.71A42.45,42.45,0,0,0,338.88,99l-.15-.51-.16-.56L338,96a45.76,45.76,0,0,0-1.86-5.12,62.74,62.74,0,0,0-3.73-7.28l-.54-.93c-.51-.87-1-1.73-1.49-2.61l-.83-1.55c-.78-1.42-1.58-2.89-2.29-4.38l-2.11-4.41L324,67.4l-.33-.69c-.59-1.24-1.2-2.52-1.87-3.76a24.25,24.25,0,0,0-2.48-3.62c-.35-.44-.73-.85-1.11-1.26s-.55-.59-.82-.9l-.76-.87c-.5-.56-1-1.15-1.5-1.75l-.73-.93L313.13,52l-.48-.65a46.75,46.75,0,0,1-3.13-4.49c-.57-1-1.13-2-1.67-3-.26-.5-.57-1-.87-1.46a19.63,19.63,0,0,1-1.07-1.84c-.72-1.92-1.31-3.92-1.88-5.85l-.06-.2a31.19,31.19,0,0,0-2.4-6A18.4,18.4,0,0,0,300,26.05a17.89,17.89,0,0,0-3-3c-1.07-.91-2.23-1.76-3.35-2.57-.54-.4-1.08-.79-1.62-1.2-.8-.62-1.57-1.22-2.26-1.87s-1.1-1.06-1.63-1.6l-.87-.87-.55-.54c-.71-.71-1.45-1.45-2.24-2.1-.3-.25-.62-.48-.94-.7a4.08,4.08,0,0,0-.92-.43l-.36-.14a8.42,8.42,0,0,0-2-.5c-.9-.12-1.8-.25-2.71-.35-2.68-.3-5.39-.37-7.72-.41-1.32,0-2.51,0-3.7-.15H266l-.18,0A2.83,2.83,0,0,0,263.27,8Zm8.14,35.87c.31-2.37.59-4.55.77-6.74.11-1.51.2-3,.28-4.54.51,0,1,.05,1.56.07,1.14,0,2.32.08,3.47.2a6.42,6.42,0,0,1,.63.15,4.53,4.53,0,0,1,.55.34,3.26,3.26,0,0,1,.26.42,32.46,32.46,0,0,1,1.34,6.49c.12.89.23,1.79.31,2.69l.07.79a22.8,22.8,0,0,1,.16,2.34h-.3c-.58,0-1.16,0-1.75-.08l-1.21-.06c-1.11,0-2.26-.08-3.41-.18a17.32,17.32,0,0,1-2.9-.58c0-.33.08-.68.13-1l0-.32v0Z"/><path class="cls-1" d="M190.36,3.66h-.67l-1.82,0h-.74c-3,0-6.07.37-9,.69-2.67.29-5.32.62-8,1l-.67.09c-3.07.38-6.19.56-8.83.68l-1.16,0c-.76,0-1.51,0-2.26-.06l-.89,0L154,6l-2.3-.06-.72,0c-1.1,0-2.2-.07-3.3-.07a32,32,0,0,0-5,.34,19.34,19.34,0,0,0-2.84.63l-.56.17c-.59.19-1.15.37-1.74.5h-.36c-.39,0-.77,0-1.16,0l-.84,0H135a11.83,11.83,0,0,0-1.27.07c-.46,0-.93.12-1.38.21a5.71,5.71,0,0,0-1.46.58,2.46,2.46,0,0,0-1.29,1.53,5.77,5.77,0,0,0-1,1.29,12.83,12.83,0,0,0-1.17,2.52,3.61,3.61,0,0,0-1,1.09,2.88,2.88,0,0,0-.27,2.12c.32,1.67.67,3.45.93,5.21a83.49,83.49,0,0,1,.29,11.67c-.08,2.89-.2,6-.37,9.85l-.27,5.62c-.21,4.12-.41,8.24-.57,12.37-.4,10.3-.4,20.78-.39,30.92v4.89c0,2.37,0,4.75,0,7.12,0,.46,0,.93,0,1.39a46.37,46.37,0,0,1-.17,5.26l-.11.7a39.08,39.08,0,0,0-.64,6.12c0,1.19,0,2.27.08,3.3,0,.37.09.73.15,1.1,0,.14.06.29.1.43.14.35.29.7.44,1.06a7.2,7.2,0,0,0,2,2,17.62,17.62,0,0,0,4.57,1.77,19.72,19.72,0,0,0,4.3.63h.55a33.33,33.33,0,0,0,4.61-.42c1.46-.19,2.94-.46,4.37-.72l1-.18,2.56-.47c1.77-.33,3.61-.67,5.42-.94.79-.07,1.64-.11,2.58-.11,1.26,0,2.55.07,3.79.14l.85,0,1.84.11c.71,0,1.43.09,2.15.12,1.51.08,3.14.16,4.77.18h.74c1.11,0,2.22,0,3.33-.06l1.12,0c.88,0,1.77,0,2.66,0h.84c1.06,0,2.12.06,3.19.1l1,0c1.46.06,2.91.11,4.37.15h.21l2.11,0c.8,0,1.5,0,2.14-.07a17.67,17.67,0,0,0,3.16-.47,16,16,0,0,0,2.53-1l.18-.08,1.54-.68,2.64-1.16c1.21-.48,2.42-.92,3.63-1.36l1.47-.49c.79-.26,1.6-.53,2.38-.85a15,15,0,0,0,1.7-.75,5,5,0,0,0,1.84-1.82,5.48,5.48,0,0,0,.52-1.37,7.46,7.46,0,0,0,.17-1.07c0-.15,0-.3.05-.45.11-.94.19-1.8.24-2.63.09-1.42.14-2.95.17-4.81,0-1.12,0-2.33-.12-3.92s-.2-3.24-.31-4.86c-.1-1.41-.21-2.81-.34-4.21a16.62,16.62,0,0,0-1.56-6.07,5.36,5.36,0,0,0-2-1.88,6.09,6.09,0,0,0-1-.45l-.35-.14a7.14,7.14,0,0,0-1.11-.31,9,9,0,0,0-1.87-.18c-.83,0-1.67.09-2.49.17l-.52,0c-1.45.14-2.86.27-4.3.35l-2.92.16c-2.08.11-4.16.22-6.24.35-1.4.09-2.86.22-4.49.41l-.76.08c-1.1.13-2.23.26-3.35.32-.67,0-1.34,0-2,0l-1.5,0H176.3c-1.06,0-2.11,0-3.17.07l-.88,0a65.7,65.7,0,0,0-8.08.91l-1.76.28-.34,0-.22-.22a1.59,1.59,0,0,1-.13-.22,8.43,8.43,0,0,1-.31-1.33c-.11-1.16-.19-2.36-.23-3.56,0-.42,0-.85,0-1.26l0-.65v-.38c0-.53,0-1.06,0-1.58a2.33,2.33,0,0,1,.07-.25,4,4,0,0,1,.38-.41,7.3,7.3,0,0,1,.87-.47,27,27,0,0,1,5.8-1.38c3-.38,6.11-.54,9.1-.69l.33,0,1.8-.08c2.14-.1,4.35-.2,6.51-.46.52-.06,1.13-.15,1.73-.28a7.56,7.56,0,0,0,2-.8,8.23,8.23,0,0,0,2.43-2.16,16,16,0,0,0,1.35-1.92c.46-.79.86-1.6,1.16-2.21a16.76,16.76,0,0,0,1.47-5.73,28.3,28.3,0,0,0,0-3.19l0-.51a18.41,18.41,0,0,0-.52-3.73,14.63,14.63,0,0,0-.85-2.23l0-.09a10.27,10.27,0,0,0-1.39-2.07,6.32,6.32,0,0,0-1.19-1.06l-.2-.15a5.11,5.11,0,0,0-2.43-.9,12.89,12.89,0,0,0-1.7-.11c-.7,0-1.41,0-2.07.1-1.63.13-3.17.31-4.7.54s-2.92.49-4.34.75c-1.08.19-2.15.39-3.23.57a21.06,21.06,0,0,1-2.47.2c-.25,0-.51,0-.76,0-1-.08-1.94-.19-2.91-.29l-.89-.1a9.59,9.59,0,0,1-1-.18l-.09-.17h0a38.28,38.28,0,0,1-1.53-6.07c-.11-.59-.23-1.18-.34-1.77-.21-1.08-.43-2.17-.62-3.25,0-.18,0-.34,0-.51a23.53,23.53,0,0,1,2.91-.65c1.21-.14,2.51-.28,3.83-.37,1.56-.1,3.12-.17,4.69-.23,2.81-.11,5.67-.15,8.44-.19h.5l3,0c1.78,0,3.56,0,5.33-.08a20.13,20.13,0,0,0,5-.69,9.44,9.44,0,0,0,2.92-1.47l.15-.11A9.7,9.7,0,0,0,201,33a9,9,0,0,0,1.63-3.21,28.09,28.09,0,0,0,1.07-5,15.2,15.2,0,0,0,.13-3.68c-.08-.74-.16-1.47-.26-2.2a40.5,40.5,0,0,0-.86-4.7,32.6,32.6,0,0,0-1-3.18l-.24-.69a16.78,16.78,0,0,0-1.13-2.67,5.5,5.5,0,0,0-.9-1.09,7.8,7.8,0,0,0-1.18-1,13.51,13.51,0,0,0-2.81-1.46,8.59,8.59,0,0,0-2.56-.48c-.94-.07-1.8-.08-2.55-.08Z"/><path class="cls-1" d="M112.3,7.18h0a13,13,0,0,0-2.36.32L108,7.87c-1,.21-2.07.42-3.14.58l-.47.07c-1,.15-2,.3-3,.55l-1,.24c-.76.2-1.52.4-2.29.57-.92.21-1.93.4-3.17.59a38,38,0,0,1-3.82.25h-.77c-1.24,0-2.47,0-3.71-.07l-1.69,0c-2.2,0-4.38.11-7,.27l-4.79.29-3.59.21c-3.41.2-6.37.51-9.05.93-2.34.36-4.42.73-6.35,1.1s-3.67.75-5.51,1.14l-.6.13-4.28.85-1.55.29c-1.28.25-2.59.46-3.86.65l-1.65.26c-4,.52-8.23,1-12.52,1.52L17.46,19l-.25,0-4.54.47a41.13,41.13,0,0,1-4.21.22h-.3a2.49,2.49,0,0,0-.3-.36,2.78,2.78,0,0,0-2-.8,2.7,2.7,0,0,0-1.94.8l-.18.18L3,19.51H2.83A2.48,2.48,0,0,0,1,20.37a2.86,2.86,0,0,0-.77,1.9,2.69,2.69,0,0,0,.36,1.36,8.68,8.68,0,0,0-.33,1A7.32,7.32,0,0,0,0,26.13a6.57,6.57,0,0,0,0,1.09l0,.22A9.93,9.93,0,0,0,.32,29a7.57,7.57,0,0,0,0,.95A15.43,15.43,0,0,0,.57,31.5c.08.41.19.81.29,1.21l.13.48a32.18,32.18,0,0,1,.62,3.35l.08.6c.15,1,.29,2.09.45,3.13a30.45,30.45,0,0,0,1.2,5.47,12.57,12.57,0,0,0,2.35,4.18c.29.24.57.47.87.68a7.8,7.8,0,0,0,1.27.59,5.61,5.61,0,0,0,.95.27,16.49,16.49,0,0,0,3.61.46l.5,0a31.79,31.79,0,0,0,4.68-.68c.8-.15,1.6-.31,2.4-.44a63,63,0,0,1,6.43-.34q3.53,0,7.05-.09l5.11-.12,2.56-.06h1c.85,0,1.71,0,2.55.08s1.84.18,2.73.3l.28,0a22.69,22.69,0,0,1,4.51,1,12.85,12.85,0,0,1,1.74.95c.11.1.22.2.32.31s.16.28.23.42c.32.91.57,1.86.82,2.78l.16.61c.33,1.22.64,2.41.85,3.64.21,2.09.25,4.23.29,6.3,0,.63,0,1.26,0,1.89,0,1.54.09,3.09.13,4.63,0,1.23,0,2.47-.1,3.66l0,.83c-.14,2.8-.07,5.56,0,8.14.1,2.84.23,6.2.47,9.54.09,1.4.17,2.81.24,4.21s.15,2.91.26,4.37a74.46,74.46,0,0,0,1,9,15.6,15.6,0,0,0,.87,2.87,11.43,11.43,0,0,0,.66,1.38,7.15,7.15,0,0,0,.78,1l.15.18A8.22,8.22,0,0,0,63,119.72l.22.15a11.06,11.06,0,0,0,1.07.58l.26.12c.72.36,1.45.69,2.19,1l1.64.76.37.17c1.1.53,2.24,1.07,3.39,1.56a39.69,39.69,0,0,0,4.41,1.63,30.49,30.49,0,0,0,4.93,1,6,6,0,0,0,.72,0,7.63,7.63,0,0,0,1.11-.09,2.67,2.67,0,0,0,.73-.17,4.63,4.63,0,0,0,1.6-.89,4,4,0,0,0,1.32-2,4.62,4.62,0,0,0,0-2l0-.11-.09-.67-.09-.66a31,31,0,0,1-.13-3.18v-.34c0-1.36,0-2.72,0-4.08v-.66c0-2.59,0-5.27-.2-7.89-.18-3.2-.47-6.34-.69-8.71-.11-1.09-.2-2.18-.3-3.28-.16-1.83-.32-3.72-.53-5.58-.34-3.14-.65-5.78-1-8.46-.2-1.51-.45-3-.69-4.51-.18-1.12-.36-2.25-.53-3.37-.3-2.56-.6-5.12-.92-7.68-.19-1.52-.39-2.85-.61-4.06-.08-.45-.17-.91-.26-1.36-.15-.84-.31-1.68-.45-2.52A41.63,41.63,0,0,1,80.09,50c0-.69,0-1.4.07-2.09l0-.52c.06-1.18.15-2.24.26-3.23,1.11-.13,2.43-.3,3.71-.55s2.35-.49,3.52-.75l.63-.14c2.39-.53,4.92-1,7.52-1.35,1.65-.18,3.29-.36,4.93-.52,1.09-.1,2.21-.14,3.29-.17a29,29,0,0,0,5.08-.43,21.19,21.19,0,0,0,2.36-.67l.79-.25a29,29,0,0,0,3.16-1.22c.57-.25,1.11-.54,1.52-.76a9.88,9.88,0,0,0,1.34-1l.26-.21a5.24,5.24,0,0,0,1.79-2.86,6.48,6.48,0,0,0,0-2.44c-.08-.67-.18-1.34-.27-2l-.06-.4-.33-2.57-.42-3.27c-.38-2.92-.78-5.48-1.23-7.81a15.38,15.38,0,0,0-.91-2.85A9.84,9.84,0,0,0,115,8.25a4.2,4.2,0,0,0-2.68-1.07Z"/></g></g></svg>