<svg xmlns="http://www.w3.org/2000/svg" viewBox="0 0 673.86 416.41"><defs><style>.cls-1{fill:#fff;}</style></defs><g id="Layer_2" data-name="Layer 2"><g id="Draw_Layer" data-name="Draw Layer"><path class="cls-1" d="M229,10.23a10.82,10.82,0,0,0-2.16.23,8.85,8.85,0,0,0-1.63.62,3.92,3.92,0,0,0-.62.34,3.68,3.68,0,0,0-.88.73c-6.22.67-12.58,1.14-18.73,1.6L202,14c-6.59.5-13.32.63-19.82.75l-2.36,0c-2.08,0-4.17.12-6.25.19l-4.89.15-1.22,0c-1.46,0-2.92.09-4.39.09h-3.4c-.81,0-1.62,0-2.43,0l-.87,0c-3.57.07-7.26.15-10.88.44l-.66,0c-3.66.29-7.45.59-11.18.94-6.06.58-12,1.57-17,2.46a96.37,96.37,0,0,1-10.46.82h-1c-1.3,0-2.6,0-3.91-.08h-.4l-1.44-.06c-.84,0-1.69-.08-2.54-.08-.46,0-.93,0-1.39,0A10.64,10.64,0,0,0,90,21.21c-2.31,1.58-3.34,4.42-4,7A40.69,40.69,0,0,0,84.91,35l-.15,1.55-.14,1.55a50.16,50.16,0,0,0-.12,5.47c0,1.76.12,3.57.27,5.55A92.65,92.65,0,0,0,86.45,60.4a17.53,17.53,0,0,0,.67,2.43,10.27,10.27,0,0,0,1.36,2.71A8.89,8.89,0,0,0,89.78,67a22.32,22.32,0,0,0,1.9,1.42,14.13,14.13,0,0,0,3.12,1.42,24.17,24.17,0,0,0,3.68.89c.68.12,1.38.21,2.07.29l1,.12a112.52,112.52,0,0,0,11.71.81c1.78.06,3.42.09,5,.09,2.06,0,4,0,5.88-.15l3.14-.14c1.8-.07,3.61-.15,5.42-.26,1-.07,2.05-.17,3.07-.28l1.06-.1,1-.11c.79-.09,1.62-.18,2.42-.19l.19.38c.39,1,.74,2.08,1,3.11a25.31,25.31,0,0,1,.55,2.78c.68,6.5.73,13.16.77,19.61v2.21l0,3.53c0,6.25.1,12.71-.05,19.06,0,1.15-.09,2.3-.15,3.45,0,.65-.08,1.29-.11,1.94-.09,2-.16,4-.22,6-.11,3.75-.15,7.47-.18,11V145c0,1.38,0,2.77-.07,4.16-.06,1.89-.31,3.82-.52,5.52-.26,2-.39,4.09-.52,6.08-.09,1.48-.19,3-.33,4.49-.08.86-.18,1.72-.27,2.58-.05.38-.09.76-.11,1.15a7.52,7.52,0,0,0,.66,3.86c1.12,2.33,3.64,3.26,5.71,3.82a25,25,0,0,0,3.46.62,46.23,46.23,0,0,0,5.34.4h.14c1.4,0,2.82,0,4.2-.09l.92,0c4-.12,7.64-.2,11.05-.24h1.71c1.37,0,2.8,0,4.2-.11.66-.05,1.32-.17,1.89-.27l.51-.15,1.33-.56a9.19,9.19,0,0,0,2.66-2.25,11.93,11.93,0,0,0,1.13-1.68,11.75,11.75,0,0,0,.69-1.59l.13-.36a20.69,20.69,0,0,0,.94-3.8l.06-.31c.54-3,1-6.09,1.41-9.07l.39-2.64c.28-1.93.51-4,.72-6.39.07-.81.12-1.62.17-2.43s.11-1.78.19-2.67c.36-4,.61-7.45.68-10.9s-.05-7.14-.33-11.25c-.24-3.53-.54-7.1-.88-10.63-.31-3.19-.52-6.68-.67-11-.11-3.35-.13-6.76-.15-10.06V87.54c0-3.24,0-6.59,0-9.89a19.76,19.76,0,0,1,.19-2.46,3.19,3.19,0,0,0,.1-.63,1.84,1.84,0,0,0,0-.41c.09-.45.2-.91.33-1.35a10.48,10.48,0,0,1,1.08-1,19.18,19.18,0,0,1,2.61-1.48c2.33-.94,4.5-1.74,6.63-2.44,1.24-.4,2.44-.78,3.66-1.09s2.72-.56,3.76-.72c1.6-.2,3.16-.38,4.72-.45.64,0,1.29,0,1.93,0,1.12,0,2.25,0,3.37.07,3.79.12,7.25.21,10.57.26h.7a17.76,17.76,0,0,0,3.3-.26,5.93,5.93,0,0,0,1.73-.73,6.25,6.25,0,0,0,1.22-1,9.07,9.07,0,0,0,1.85-3.15A38.65,38.65,0,0,0,237.83,56l.2-.79c.36-1.38.73-2.81,1-4.24a52.08,52.08,0,0,0,.76-5.62,90.69,90.69,0,0,0-.29-15.88c-.14-1.58-.37-3.16-.6-4.68l-.1-.7c-.14-1-.29-2.09-.5-3.13a8,8,0,0,0-2.44-4.33,4.15,4.15,0,0,0-.12-1A7.44,7.44,0,0,0,234,12.34a6.66,6.66,0,0,0-2.78-1.77,7.23,7.23,0,0,0-2.26-.34Z"/><path class="cls-1" d="M505.67,0H505a24.84,24.84,0,0,0-3.36.36,3.29,3.29,0,0,0-2,1.4c-6-.49-12.24-.73-18.44-.73l-2.74,0-3.86,0c-1.88,0-3.74.19-5.46.36-3.37.35-6.75,1-10,1.63l-1.23.24c-1.19.23-2.37.48-3.56.74l-1.45.31c-2,.42-3.92.8-5.88,1.17s-4.23.77-6.29,1.11c-1.36.23-2.73.45-4.09.7l-2.71.49c-.36.07-.73.15-1.09.25a19.28,19.28,0,0,0-2.81,1,9,9,0,0,0-3.14,2.47,12.09,12.09,0,0,0-2,3.45c-.42,1-.79,2.1-1.14,3.25a64.43,64.43,0,0,0-2,11.23c-.5,4.24-.79,7.78-.93,11.13-.32,7.94-.39,15.87-.41,22.58,0,2,0,4,0,6,0,1.78.13,3.58.23,5.32l0,.61c.07,1.3.19,2.62.3,3.9l.15,1.7c.11,1.39.23,2.77.35,4.16l.16,1.75q.31,3.74.58,7.47l.27,3.54c.18,2.47.4,4.93.61,7.39.12,1.45.25,2.9.37,4.34.55,6.58,1,13.28,1.37,19.76l.14,2.32.11,1.76c.17,2.71.34,5.51.59,8.26.17,1.95.29,3.94.41,5.86.06,1.1.13,2.19.2,3.28.16,2.23.37,4.86.7,7.45,0,.46,0,.92,0,1.39a9.77,9.77,0,0,0,.67,3.68,9.94,9.94,0,0,0,1.75,3,12.38,12.38,0,0,0,1.15,1.14,25.37,25.37,0,0,0,4.87,3.74,3.67,3.67,0,0,0,1.77.45,3.57,3.57,0,0,0,2.17-.73,16.66,16.66,0,0,0,2,.32c.5,0,1,.06,1.49.07.82.12,1.63.22,2.44.31a1.84,1.84,0,0,0,.08.38A3.5,3.5,0,0,0,447,174a3.25,3.25,0,0,0,1.72.45,5.09,5.09,0,0,0,1-.1c5.33-1,9.65-1.86,13.61-2.74l2.52-.57c3.29-.75,6.68-1.52,10.06-2,4.39-.5,7.77-.84,10.95-1.1,2-.16,4.05-.24,6-.32,1.63-.07,3.25-.13,4.88-.24l5.73-.37.76,0a48.72,48.72,0,0,0,5.37-.5c1.58-.27,3.44-.61,5.32-1.1.77-.2,1.53-.44,2.29-.68s1.71-.53,2.58-.75c.66-.16,1.31-.29,2-.41a39.51,39.51,0,0,1,4.23-.18h.47c.44,0,.89,0,1.33,0l1.46,0a12.75,12.75,0,0,0,3.14-.32c3.86-.95,4.42-5.23,4.86-8.67l.06-.42c.22-1.65.29-3.36.35-5v-.15c.07-1.64.13-3.54.05-5.43l-.1-2.35c0-1-.09-2-.13-3,0-.64,0-1.28-.06-1.92,0-1-.07-2.1-.12-3.14a40.94,40.94,0,0,0-.79-6q-.59-2.79-1.21-5.55c-.2-.87-.4-1.73-.64-2.58-.11-.41-.25-.81-.38-1.21a12.14,12.14,0,0,0-.58-1.45,8.18,8.18,0,0,0-1.22-1.73,5.11,5.11,0,0,0-1.46-1.06,6.49,6.49,0,0,0-1.73-.62,19.47,19.47,0,0,0-2.37-.38l-.2,0c-1.07-.13-2.14-.23-3.21-.31-1.56-.12-3.15-.18-4.68-.23l-1,0c-3.42-.12-6.71-.15-10.67-.18h-2a83.2,83.2,0,0,0-9,.39c-1.52.17-3.05.3-4.58.43s-3.05.26-4.58.42c-2.07.22-3.77.47-5.35.79l-1.39.29c-.73.15-1.46.31-2.2.44s-1.22.08-1.81.08-1.12,0-1.67-.07a11.7,11.7,0,0,1-1.79-.48,11.35,11.35,0,0,1-1.12-.66c-.34-.31-.67-.63-1-1-.16-.26-.3-.51-.44-.78a33.36,33.36,0,0,1-1.53-6.39,11,11,0,0,1-.08-1.58c0-.15.08-.29.13-.44a5,5,0,0,1,.67-.38,26,26,0,0,1,4.28-1c1.51-.17,3.12-.32,4.92-.45,1.64-.12,3.33-.23,5-.23h.12c1.85,0,3.67.1,5.21.2l.83,0,1.7.1H492c.35,0,.69,0,1,0a7.32,7.32,0,0,0,2.09-.42,8.06,8.06,0,0,0,2.51-1.61,7.06,7.06,0,0,0,1.7-2.35,17,17,0,0,0,.86-2.19,13,13,0,0,0,.48-2.75l0-.17a17.69,17.69,0,0,0,0-2.91,47,47,0,0,0-.72-6.07,29,29,0,0,0-1.42-4.85l-.36-.92c-.28-.72-.56-1.44-.87-2.16A9.92,9.92,0,0,0,492.53,70a20.43,20.43,0,0,0-7.95-1.66c-1.31-.08-2.64-.11-3.93-.14h-.59c-1,0-2,0-3,0h-1.24c-.7,0-1.41,0-2.11.09l-.77.06c-.43,0-.85.08-1.27.09-.17-.28-.34-.57-.5-.88-.42-1.19-.73-2.43-1-3.64l-.16-.63c-.28-1.14-.55-2.39-.82-3.82a8.19,8.19,0,0,1,0-1.28c0-.11.05-.21.08-.32l0-.11h0l.48-.44a17.92,17.92,0,0,1,2.46-1.47,27,27,0,0,1,4.94-1.25c1.51-.2,3-.39,4.47-.47q3-.18,6.09-.29c1.23-.05,2.45-.09,3.68-.12,2.3-.07,4.69-.14,7-.29,1.73-.1,3.52-.21,5.27-.43.91-.12,2-.26,3.11-.49.73-.15,1.46-.35,2.17-.55l.28-.07a17,17,0,0,0,1.69-.61l.37-.16c.84-.33,1.71-.72,2.66-1.18l.19-.09c.39-.19.78-.38,1.16-.61a7.26,7.26,0,0,0,2.38-2.61,11.18,11.18,0,0,0,1.21-3.33,28.61,28.61,0,0,0,.54-3.67,150.33,150.33,0,0,0,.43-22.12c-.1-1.83-.33-3.64-.55-5.33l-.09-.69c-.1-.84-.21-1.67-.35-2.49a8.21,8.21,0,0,0-2.68-4.86,22.42,22.42,0,0,0-2.27-1.66,12.14,12.14,0,0,0-1.69-.85l-.34-.15A24.91,24.91,0,0,0,509.12.41,11.88,11.88,0,0,0,505.67,0Z"/><path class="cls-1" d="M501.36.62a33.13,33.13,0,0,0-6,.58,47.71,47.71,0,0,0-5.08,1.51c-1.56.48-3.13.94-4.66,1.49a39.86,39.86,0,0,0-7.43,3.54c-1.74,1-3.42,2.22-5.1,3.37s-3.39,2.4-5,3.7c-.62.5-1.22,1-1.81,1.55a23.53,23.53,0,0,0-3.7,4.45,63.7,63.7,0,0,0-3.39,5.89C458,28.78,457,30.92,456,33.08a3.83,3.83,0,0,0-.35,2.7,3.55,3.55,0,0,0,1.61,2.09,3.49,3.49,0,0,0,2.7.35,3.34,3.34,0,0,0,2.09-1.6c.92-2.1,1.92-4.17,3-6.19a65.38,65.38,0,0,1,4.26-7.17,28.87,28.87,0,0,1,4.11-3.86c1.51-1.12,3.06-2.19,4.61-3.26a51.32,51.32,0,0,1,7.56-4.48c2.65-1.07,5.4-1.86,8.12-2.74a31.33,31.33,0,0,1,4.65-1.17,32.65,32.65,0,0,1,4.08-.1c1.61.07,3.22.29,4.81.44a3.38,3.38,0,0,0,2.48-1,3.5,3.5,0,0,0,0-4.94,3.72,3.72,0,0,0-2.48-1c-1.92-.19-3.86-.48-5.79-.48Z"/><path class="cls-1" d="M501.09,1.19a35.53,35.53,0,0,0-5.81.84c-1.8.39-3.59,1-5.37,1.46-1.16.33-2.32.7-3.48,1.06a28.75,28.75,0,0,0-7,3.4c-5.34,3.48-9.69,8.23-13.75,13.08-2.71,3.24-5.42,6.49-7.9,9.9-.12.18-.25.35-.38.53a3.38,3.38,0,0,0-.35,2.69,3.49,3.49,0,0,0,4.3,2.45A3.7,3.7,0,0,0,463.46,35c.54-.75,1.09-1.48,1.64-2.22,1.93-2.44,3.9-4.83,5.9-7.21,1-1.23,2.11-2.4,3.18-3.6a56.1,56.1,0,0,1,6.65-6.43,32,32,0,0,1,5.88-3.64,71.13,71.13,0,0,1,7.1-2.22c1.78-.49,3.56-.95,5.37-1.31a54.92,54.92,0,0,1,7.48-.16,3.52,3.52,0,0,0,3.5-3.5,3.54,3.54,0,0,0-3.5-3.5c-1.12,0-2.24-.06-3.36-.06-.74,0-1.48,0-2.21.05Z"/><path class="cls-1" d="M426,116.74c-.15,7.78-.2,15.55-.21,23.32v10.79a51.74,51.74,0,0,0,.82,11.26c.14.59.26,1.2.45,1.78.31.9.67,1.77,1,2.64a21.87,21.87,0,0,0,1.13,2.21,11,11,0,0,0,4,3.94,15.76,15.76,0,0,0,6.48,1.81,20.6,20.6,0,0,0,4.3-.11,37.17,37.17,0,0,0,4.34-.77c1.4-.34,2.75-.84,4.11-1.3,1.19-.41,2.37-.86,3.56-1.26a25,25,0,0,1,3.78-.91c1.82-.22,3.64-.35,5.47-.44l2.8-.09c.91,0,1.84-.09,2.76-.05l.13,0a3.5,3.5,0,0,0,1.86-6.75,16.88,16.88,0,0,0-4.43-.25c-1.09,0-2.17.06-3.25.11a53.82,53.82,0,0,0-8,.81,52.83,52.83,0,0,0-6.82,2.14,38.49,38.49,0,0,1-6.48,1.73,24.72,24.72,0,0,1-4.47.05,16.5,16.5,0,0,1-2.09-.56,8,8,0,0,1-1-.58,7.62,7.62,0,0,1-.64-.63,18.47,18.47,0,0,1-1.47-2.78,26.3,26.3,0,0,1-1-3.79,88.66,88.66,0,0,1-.36-9.64q0-5.15,0-10.27c0-7.49.05-15,.2-22.45a3.5,3.5,0,0,0-7,0Z"/><path class="cls-1" d="M374.87.36c-1,0-1.89,0-2.71.11l-2.88.32-2.56.29c-.83.08-1.66.17-2.48.28A11.82,11.82,0,0,0,358,3.76a9.56,9.56,0,0,0-1.8,2.08,10.16,10.16,0,0,0-1,2.08l-.17.45a27.79,27.79,0,0,0-.93,2.76,18.54,18.54,0,0,0-.44,2.25l-.06.39c-.16,1.05-.32,2.13-.44,3.21-.4,3.86-.55,7.73-.65,11.33-.11,3.84-.14,7.71-.17,11.35,0,3.92-.2,7.72-.36,10.91-.08,1.61-.15,3.21-.22,4.82,0,.45,0,.89,0,1.34,0,.88,0,1.79-.11,2.69-.62.14-1.27.25-1.89.35-1.05.12-2.08.19-3.16.22h-.76c-.73,0-1.47,0-2.21,0l-1.18,0c-2.74,0-5.47-.1-8.21-.13h-.42c-1.9,0-3.84.11-5.71.22l-1.59.1-3.79.17-.75,0c-.7,0-1.41.06-2.11.06l-.94,0c-.07-.13-.14-.26-.2-.4a24.88,24.88,0,0,1-1-4.52c-.18-1.48-.38-3.2-.49-4.9a41.1,41.1,0,0,1,0-4.3l0-1.07,0-1.08c.1-3.06.2-6.23.41-9.34.22-3.29.44-6.8.54-10.38.06-2.28.08-4.57.11-6.86l0-3a3.52,3.52,0,0,0-2-3.14,3.41,3.41,0,0,0-2.36-2.21,58,58,0,0,0-6.35-1.16c-2.21-.26-4-.42-5.71-.51l-2.28-.11-3.56-.19-2.45-.17c-1-.07-2-.14-2.92-.19-1.38-.08-2.8-.12-4.22-.12h-1.17a37,37,0,0,0-5.63.58,16.28,16.28,0,0,0-5.39,1.88,12.29,12.29,0,0,0-2.48,1.88,8.46,8.46,0,0,0-1.81,3.39,21.53,21.53,0,0,0-.85,4.21l-.08.59a116,116,0,0,0-.85,12.07c-.11,3.54-.15,7.07-.18,11l0,1.38c0,1.32,0,2.64,0,3.95s.1,2.9.17,4.36l.05,1.09c.19,4,.31,7.63.35,11.16.12,8.49.15,17,.15,23.37,0,3.5-.13,7-.27,10.49v.29c-.16,4.14-.28,8-.35,11.71-.12,6.32-.13,12.76-.13,19V132c0,.55,0,1.11,0,1.66,0,1.28,0,2.61,0,3.9-.07,1.7-.17,3.4-.26,5.1l0,.61c-.08,1.49-.15,3-.21,4.45l0,.78c0,1.11-.15,2.24-.25,3.32,0,.61-.11,1.22-.16,1.84-.27,3.54-.52,7-.53,10.51a13.37,13.37,0,0,0,.09,1.77A14.83,14.83,0,0,0,267,168a7.4,7.4,0,0,0,.66,1.6l.11.23a9.48,9.48,0,0,0,1.74,2.26,7.59,7.59,0,0,0,.92.78,13,13,0,0,0,1.73,1.19,7.69,7.69,0,0,0,1.1.49l.39.15a9,9,0,0,0,1.31.41l.3.08a21,21,0,0,0,2.35.42l.34,0,1.48.21c1.5.22,3,.44,4.59.6s3.38.31,5.65.46c2.94.19,5.94.22,8.84.26l2.1,0h1.19c3.79,0,8.13-.29,11.66-2.47,2-1.23,3.51-3.21,4.82-6.26.72-1.65,1.54-3.6,2.22-5.63a50.91,50.91,0,0,0,1.55-5.57c.27-1.24.49-2.51.7-3.74l.23-1.35a75.46,75.46,0,0,0,1.23-11,42.55,42.55,0,0,0-.11-5.35l-.21-2.05c-.11-1-.21-2-.3-3-.12-1.36-.26-2.71-.4-4.06-.22-2.09-.45-4.25-.58-6.39-.08-1.28-.11-2.57-.15-3.86-.06-2.16-.13-4.39-.39-6.57-.25-2-.54-3.77-.89-5.38a24.23,24.23,0,0,0-.65-2.53l-.17-.51c-.21-.64-.43-1.3-.58-2a6.94,6.94,0,0,1,0-.79l0-.13h0l.2-.34a18.76,18.76,0,0,1,3.41-.73c3-.31,6.17-.48,10.09-.56,1.73,0,3.45-.06,5.18-.08l1.31,0c.55,0,1.11,0,1.67,0,.32,0,.64,0,1,0l.07.1h0a29.44,29.44,0,0,1,1.17,5,98.38,98.38,0,0,1,.39,10.62c0,1.44-.17,2.9-.3,4.32l-.13,1.32c-.12,1.44-.27,2.87-.41,4.3l-.07.71c-.29,2.77-.5,5.59-.7,8.32-.08,1.08-.16,2.16-.25,3.24-.14,1.72-.24,3.43-.35,5.15s-.23,3.73-.38,5.6c-.31,3.7-.6,7.32-.75,11-.15,3.33-.17,6.71-.19,10v.83c0,.8,0,1.61,0,2.41a19.59,19.59,0,0,0,.33,3.24c0,.22.08.44.11.65.09.54.18,1.1.32,1.64a9.92,9.92,0,0,0,.75,1.94,5.67,5.67,0,0,0,3.4,2.59,20.16,20.16,0,0,0,3.34.59l.25,0c.76.09,1.65.19,2.54.21s1.71.06,2.57.06c1.08,0,2,0,2.93-.11,1.68-.15,3.37-.39,5-.63l.76-.11,2-.23c1.32-.16,2.63-.31,3.94-.48,1.49-.19,3-.42,4.44-.66l1.84-.29,2.86-.32c2.64-.28,5.37-.58,8-1.08a29.67,29.67,0,0,0,5.25-1.44,12.31,12.31,0,0,0,4.5-2.83,14.74,14.74,0,0,0,2.28-3.27,41,41,0,0,0,2.4-5.44c.47-1.25.89-2.53,1.31-3.78l.41-1.23.48-1.41c1-2.87,2-5.85,2.72-8.84a46.83,46.83,0,0,0,.93-5.85c.23-2.13.37-3.88.44-5.51.16-3.52.26-7.28.31-11.5.06-4,.08-8.07.1-12.1,0-3.7-.14-7.34-.32-11.07-.13-2.81-.29-5.61-.44-8.41l-.18-3.05c-.07-1.36-.13-2.72-.19-4.08-.09-2.17-.18-4.41-.35-6.61-.27-3.53-.46-7.28-.59-11.46-.11-3.38-.2-7,0-10.49s.31-7.32.41-11.64c.08-3.87.13-7.36-.08-10.89-.21-3.37-.64-6.79-1.06-10.1l-.06-.53a92.25,92.25,0,0,0-1.9-10.73l-.09-.37a39.91,39.91,0,0,0-1.28-4.44A19,19,0,0,0,400,7.22a8.65,8.65,0,0,0-2.44-2.64A15.38,15.38,0,0,0,394,2.8c-.91-.34-1.66-.6-2.36-.82a19.89,19.89,0,0,0-2.16-.5l-.54-.1a46.27,46.27,0,0,0-5.71-.67l-.45,0c-1.79-.14-3.61-.2-5.37-.27-.86,0-1.72,0-2.58,0Z"/><path class="cls-1" d="M358.69,218.54c-.79,0-1.5,0-2.18.07-2.82.2-5.66.68-8.41,1.15l-.37.06c-.66.11-1.31.24-2,.36l-1.65.31c-.93.16-1.85.29-2.78.41-1.91.19-3.82.34-5.72.49-1.67.13-3.34.26-5,.42-2.14.19-4.32.33-6.42.47-1.54.1-3.08.19-4.62.31-3.67.29-7.48.58-11.28,1.21l-.35.06a27.76,27.76,0,0,0-4.76,1.07,5.27,5.27,0,0,0-1.84,1,7,7,0,0,0-1.24,1.46,17.75,17.75,0,0,0-1.33,3.09,33.86,33.86,0,0,0-1.26,5.31l-.1.54a107.47,107.47,0,0,0-1.54,12c-.1,1.34-.13,2.71-.15,4,0,.52,0,1,0,1.55-.05,1.79,0,3.59.05,5.5.07,1.51.22,3,.38,4.5l.11,1.12c.15,1.52.24,3.07.32,4.56l.05.8c.21,3.58.42,7.2.7,10.77.32,4,.6,7.66.81,11.3s.23,7.42.25,11.05v1.68c0,3.21,0,6.53.15,9.8s.31,6.74.63,10.47l.12,1.39c.11,1.38.23,2.8.39,4.19.22,1.93.37,3.65.47,5.27.23,3.75.27,7.57.31,11.26a97.16,97.16,0,0,1-.32,10c-.08.81-.16,1.61-.25,2.41-.12,1.07-.23,2.14-.32,3.21-.12,1.47-.22,3.07-.3,5a32.23,32.23,0,0,0,.28,6.48,25.52,25.52,0,0,0,1.75,5.53,26.23,26.23,0,0,1,1.15,4.11l.13.59.08.39c.13.59.27,1.21.45,1.81a10.53,10.53,0,0,0,.75,1.88,8.17,8.17,0,0,0,2,2.4,19.2,19.2,0,0,0,2.27,1.71,17.46,17.46,0,0,0,2.34,1.21,15.24,15.24,0,0,0,3.18,1,28.18,28.18,0,0,0,3.06.43l.86.08c.62.06,1.25.12,1.87.16,3.6.22,7.34.36,11.43.43l2.7,0c3.08,0,5.87-.1,8.53-.31s5.63-.7,8.37-1.16l2.66-.44c2.28-.29,4.73-.6,7.22-.87a40.37,40.37,0,0,1,4.35-.25c1.07,0,2.15.05,3.21.14.58.09,1.17.19,1.75.3a32.75,32.75,0,0,0,5.52.64c.49,0,1,0,1.43-.07a22.63,22.63,0,0,0,4.3-1,29,29,0,0,1,3.36-.87,17.67,17.67,0,0,0,2.65-.48,6.92,6.92,0,0,0,3.22-2,9.31,9.31,0,0,0,1.79-3.82,22.82,22.82,0,0,0,.5-3.21l.05-.48c.11-1,.22-1.91.28-2.86a79.36,79.36,0,0,0,0-8.59c0-.89-.07-1.78-.1-2.67-.07-2.52-.24-5.08-.41-7.55-.06-.94-.13-1.88-.18-2.81a18,18,0,0,0-1.37-6.5,13.82,13.82,0,0,0-1-1.82,8,8,0,0,0-2.82-2.62,13.38,13.38,0,0,0-3.64-1.31,29.41,29.41,0,0,0-4-.61l-.36,0c-1-.1-2.1-.21-3.15-.26-2.55-.12-5.13-.2-7.63-.28-1.46,0-2.95-.15-4.38-.25l-2.37-.16-.58,0c-1.91-.12-3.89-.23-5.83-.44a20.78,20.78,0,0,1-4-1.18,29.58,29.58,0,0,0-4-1.27c-.9-.22-1.83-.38-2.74-.54l-1.2-.22a23.39,23.39,0,0,1-3.94-1.09,8.93,8.93,0,0,1-.48-2c-.21-2-.39-4.08-.54-6.4-.09-1.43-.17-2.73-.17-4a28.65,28.65,0,0,0,3,.21h1c1.48,0,2.95,0,4.33-.08,1.63-.06,3.27-.11,4.9-.13h.31a6.87,6.87,0,0,0,4.25-1,5.67,5.67,0,0,0,1.48-1.49,6,6,0,0,0,.58-1.05,13.34,13.34,0,0,0,1.06-3.79,25.6,25.6,0,0,0,0-5.18l-.06-.73c-.1-1.37-.23-2.73-.37-4.09l-.13-1.21c-.07-.8-.15-1.61-.22-2.41a13.42,13.42,0,0,0-1-4.68,5.23,5.23,0,0,0-2.42-2.47,6.42,6.42,0,0,0-2.78-.62,7.26,7.26,0,0,0-.93.06c-.69.09-1.38.21-2.05.34l-1.13.2-2,.31a12.75,12.75,0,0,1-1.35.08H344c-.18-.1-.35-.21-.52-.32l-.33-.33a15.8,15.8,0,0,1-1-1.77,31.86,31.86,0,0,1-1.54-5.29,31.21,31.21,0,0,1,.05-6h0a21.6,21.6,0,0,1,.58-3.13c.2-.12.41-.23.62-.34a33.54,33.54,0,0,1,5.53-1.3c2.45-.3,4.95-.46,7.37-.61,1.27-.08,2.54-.16,3.81-.26a58,58,0,0,0,7.27-1.19c1.56-.32,3.17-.66,4.77-.9,1.11-.14,2.21-.3,3.32-.45l1.61-.23c.9-.12,1.79-.28,2.68-.43l2-.34,1.55-.16c.77-.08,1.55-.15,2.32-.25a11.09,11.09,0,0,0,3.9-1,8,8,0,0,0,2.72-2.34,10.21,10.21,0,0,0,1.35-2.83,23.46,23.46,0,0,0,.93-4.79l0-.37c.12-.94.22-1.87.32-2.8.13-1.4.2-2.83.26-4.2l0-.38c.13-2.9.23-6,.11-9.07-.05-1.33-.22-2.65-.38-3.93l-.08-.71c-.21-1.75-.44-3.49-.69-5.24s-.51-3.71-.8-5.56a24.75,24.75,0,0,0-1.71-6.72,8.67,8.67,0,0,0-2.85-3.56,10.38,10.38,0,0,0-2.73-1.37c-.86-.3-1.71-.6-2.58-.86a18.48,18.48,0,0,0-3.25-.65l-1.4-.12c-.52,0-1-.07-1.56-.13l-.23,0h-.16a4.87,4.87,0,0,0-1.2-.24l-.95-.09c-1-.1-2-.2-3-.25s-2.31-.09-3.59-.09h-.38c-1.17,0-2.34-.05-3.48-.1h-.23c-1.33-.07-2.53-.12-3.77-.12Z"/><path class="cls-1" d="M195.24,211.44h-.18a72.09,72.09,0,0,0-8.18.46,45.36,45.36,0,0,0-8.54,2c-1.39.44-2.51.84-3.54,1.24a32.55,32.55,0,0,0-4.07,2l-.51.29c-.78.45-1.58.91-2.34,1.4a18.34,18.34,0,0,0-1.82,1.39,8.28,8.28,0,0,0-1.35,1.73l-.11.17c-.37.58-.76,1.23-1.23,2a3.64,3.64,0,0,0-1,2.38c-.28,12.71-.26,25.63-.25,38.14V286.1c0,3,0,6.21-.13,9.3-.28,6.73-.45,13.94-.52,23.4l0,2.54c-.06,6.73-.12,13.7.12,20.53.12,3.55.25,7.2.51,10.78.28,4,.46,7.5.53,10.77.08,3.65.14,7.53.17,11.85,0,1.94,0,3.7,0,5.37,0,1.06-.08,2.13-.14,3.2,0,.64-.07,1.28-.1,1.92l-.05,1.12c-.13,3.26-.28,6.64-.25,10,0,1.71.11,3.45.2,5.13l0,.61c.09,1.66.2,3.44.42,5.22l.06.57a14.39,14.39,0,0,0,.64,3.25,6.12,6.12,0,0,0,1.91,2.84,5.53,5.53,0,0,0,1.84,1,10.47,10.47,0,0,0,1.58.46,22.32,22.32,0,0,0,4.7.45c1,0,2,0,3.33-.14,4-.28,7.62-.46,11.05-.56,1.88,0,4.07-.12,6.23-.12,1.68,0,3.19,0,4.62.11s2.81.12,4,.12a37.36,37.36,0,0,0,6.76-.55l1.14-.21c1-.18,2-.37,3.06-.52l1-.1c.82-.09,1.68-.18,2.51-.33a4.8,4.8,0,0,0,2-1.15,6.43,6.43,0,0,0,1.14-1.51,11.39,11.39,0,0,0,.94-4.28l0-.18c.15-1.73.2-3.51.24-5.22l0-1.34v-.55c.05-1.5.09-3.05.08-4.57,0-1.89-.11-3.77-.21-5.69-.09-1.55-.21-3.09-.33-4.64-.16-2-.32-4-.4-6-.16-4.1-.26-7.81-.3-11.35-.09-7.39-.09-14.9-.1-22.16,0-1,0-1.94,0-2.91,0-2.56.05-5.21-.1-7.8,0-.24,0-.48,0-.72l.61,1.45A82.8,82.8,0,0,1,224,345.58c.93,3.65,1.95,7,3.11,10.18,1.21,3.35,2.47,6.81,3.61,10.35,1.06,3.32,1.94,6.75,2.8,10.08l0,.19a182.32,182.32,0,0,1,3.69,21l0,.28q.21,1.47.45,2.94c.12.74.23,1.48.34,2.22s.21,1.28.33,1.92l.08.43.11.61.1.61a7.9,7.9,0,0,0,.84,2.7,5.94,5.94,0,0,0,3.17,2.66,7,7,0,0,0,2.33.37,10.88,10.88,0,0,0,1.14-.06,27.78,27.78,0,0,0,3.24-.55c1.21-.28,2.4-.68,3.56-1.06l1-.31c1.52-.5,3-1,4.61-1.35,1.35-.31,2.7-.58,4-.79,1.87-.19,3.72-.23,5.12-.25h1.52c1.45,0,2.66,0,3.79.07s2.07.15,3.08.24c.66.06,1.32.13,2,.17,1.82.13,3.44.22,4.94.25l1.18,0h.25a6.28,6.28,0,0,0,1.85-.35A5.31,5.31,0,0,0,288.1,407l.21-.27a4.06,4.06,0,0,0,.81-1.22,11.44,11.44,0,0,0,.67-1.69l.1-.29a13.38,13.38,0,0,0,.49-1.84,22.86,22.86,0,0,0,.37-5.83,62.13,62.13,0,0,0-1.65-8.8c-.14-.61-.29-1.22-.43-1.83a93.61,93.61,0,0,0-3-10.06c-1-2.89-1.76-5.93-2.48-8.87l-.33-1.38c-.46-1.85-.85-3.74-1.23-5.58-.32-1.57-.66-3.2-1-4.79l-.49-2.06c-.62-2.69-1.27-5.46-2-8.16-.91-3.28-2-6.45-3.12-10-1.06-3.19-2.24-6.48-3.62-10.08-1.18-3.07-2.59-6.39-4.45-10.43-.67-1.45-1.44-3.13-2.25-4.76a28.39,28.39,0,0,0-3.24-4.76c-.31-.4-.64-.78-1-1.15.29-.46.6-.92.93-1.37a20.13,20.13,0,0,0,2-3.15,39.48,39.48,0,0,0,2.78-8.6,96.46,96.46,0,0,0,1.9-11.13,64.89,64.89,0,0,0,.46-11.26c-.14-2.12-.43-4.2-.69-6a22.31,22.31,0,0,0-1.1-4.92,48.33,48.33,0,0,0-2.68-5.56c-.85-1.55-1.77-3.05-2.71-4.59l-.09-.15c-.84-1.37-1.7-2.79-2.65-4.1a60.58,60.58,0,0,0-3.8-4.73l-1.52-1.71c-.73-.81-1.46-1.63-2.18-2.46s-1.32-1.56-2-2.34l-1.33-1.58c-.37-.44-.75-.87-1.15-1.29a13,13,0,0,0-1.12-1l-.35-.27c-.79-.64-1.64-1.22-2.46-1.78l-.09-.06-3-2.07-1.75-1.22a42,42,0,0,0-4.55-2.85,39.16,39.16,0,0,0-5.45-2.18l-1.83-.6c-1.09-.35-2.17-.7-3.24-1.08l-.13-.05a35.67,35.67,0,0,0-4.74-1.46c-3.67-.75-7.45-1.14-11.11-1.52l-1-.11c-1.67-.17-3.46-.31-5.48-.41l-.65,0c-1.45-.08-3-.16-4.45-.16ZM203.59,278c0-.53,0-1.06,0-1.59,0-1.75,0-3.5-.05-5.24,0-3.28-.08-6.57-.12-9.85l.31-.18a3.74,3.74,0,0,1,.45-.12c.44,0,.88-.05,1.32-.05.71,0,1.47,0,2.32.12s1.7.33,2.63.56l.29.08a23.77,23.77,0,0,1,2.43.68,8.13,8.13,0,0,1,.81.47,9.48,9.48,0,0,1,.24,1,20.53,20.53,0,0,1-.08,3.37,24.49,24.49,0,0,1-.84,3.47,14.29,14.29,0,0,1-1.1,1.8,7.69,7.69,0,0,1-.62.66c-.74.49-1.52.93-2.28,1.35s-1.44.8-2.13,1.25l-.62.41c-.95.63-1.93,1.27-2.95,1.82Z"/><path class="cls-1" d="M66.94,232a18.26,18.26,0,0,0-3.37.38,2.21,2.21,0,0,0-.52.16c-.25,0-.51-.05-.77-.06-2.51-.13-4.56-.19-6.46-.19-1.73,0-3.32,0-4.86.16a24.76,24.76,0,0,0-8,1.92c-2.16.91-4.25,1.94-6.38,3a37.56,37.56,0,0,0-3.89,2.35l-.94.61c-1.61,1.05-3.23,2.21-4.93,3.56-1.33,1.06-2.59,2.19-3.75,3.26a48.31,48.31,0,0,0-3.78,3.93,69,69,0,0,0-5.11,6.46,66.87,66.87,0,0,0-3.67,6.26l-.74,1.37c-1.72,3.14-3.4,6.38-5,9.65l-.06.12a51.1,51.1,0,0,0-2.34,5.36,41,41,0,0,0-1.48,5.58A56.06,56.06,0,0,0,0,297.22c0,3.87.12,7.74.29,11.48.11,2.44.19,4.88.28,7.32.18,5,.36,10.19.75,15.28.29,3.9.6,7.93,1.2,12,.63,4.21,1.32,7.86,2.11,11.16a94.76,94.76,0,0,0,3.14,10.93c.24.63.49,1.26.74,1.88l.17.43.28.7c.31.79.62,1.61,1,2.37.86,1.75,1.79,3.48,2.75,5.13a22.84,22.84,0,0,0,2.09,2.82l.64.79c.53.66,1.07,1.31,1.63,1.95l2.17,2.48,1.7,1.93.47.55c1,1.12,2,2.28,3.05,3.34,1.33,1.3,2.76,2.54,4.14,3.74l.17.14a65.73,65.73,0,0,0,8.83,6.76,21.21,21.21,0,0,0,4,1.89c.75.26,1.53.47,2.29.67l.57.15c1.22.33,2.48.56,3.7.78l1.24.23c4,.77,8,1.69,11.92,2.57l4.79,1.09,2,.44c2,.47,4.15,1,6.25,1.27,1.75.25,3.53.45,5.25.65l2.93.34,1.19.18c3.2.49,6.52,1,9.82,1.2.85.05,2,.11,3.09.11a26.18,26.18,0,0,0,3.24-.19,25.25,25.25,0,0,0,7.15-2.12l.83-.38,1.56-.72A72.16,72.16,0,0,0,119,403c3.24-2.32,5.42-5.52,7.72-9.15a81.52,81.52,0,0,0,5.15-9.28c1.87-4.07,3.29-7.39,4.47-10.48a90.83,90.83,0,0,0,3.33-10.45,97.14,97.14,0,0,0,2.06-11.17c.42-3.26.51-6.62.6-9.87l0-.91c0-1.79.09-3.71,0-5.61a36.8,36.8,0,0,0-.73-5.93,29.36,29.36,0,0,0-1.36-5,41.37,41.37,0,0,0-2.51-5.14,57,57,0,0,0-6.23-8.92,29.24,29.24,0,0,0-3.71-3.51c-1.42-1.16-3-2.34-4.68-3.61a65.46,65.46,0,0,0-9-5.48,20.93,20.93,0,0,0-5.07-2c-1.14-.25-2.17-.46-3.15-.62-1.84-.31-3.79-.55-6-.73-2.67-.22-5.17-.33-7.66-.33-1,0-2.1,0-3.16.06l-3.25.1c-2.49.07-5.07.14-7.6.36l-.43,0c-1.47.13-3,.26-4.49.26H73c-.94,0-1.87-.06-2.81-.1l-2-.08h-.17a13.13,13.13,0,0,0-2.55.33c-.42.09-.84.2-1.26.31l-.81.21c-.65.16-1.3.34-2,.53-.43.13-.86.26-1.28.42a7.33,7.33,0,0,0-3.67,2.65,9.68,9.68,0,0,0-1.33,3.27,17.47,17.47,0,0,0-.38,2.24l-.05.42-.06.43c-.12.84-.23,1.68-.32,2.52-.21,2.28-.36,4.18-.46,6a107.3,107.3,0,0,0-.11,11.07,40.28,40.28,0,0,0,.65,4.93l.12.66c.06.36.11.72.17,1.08s.14.95.22,1.42a14.45,14.45,0,0,0,.89,2.88c1.44,3.34,5.45,3.83,8.68,4.23l.42.05c1.73.21,3.5.3,5.22.38h.17c2,.09,3.72.14,5.28.14s2.9-.07,4.32-.14l.92-.05,1.08-.06c1.43-.08,2.91-.16,4.36-.16,1,0,2,0,2.83.12a12.3,12.3,0,0,1,1.75.45,15.87,15.87,0,0,1,2,1.17,18.43,18.43,0,0,1,2.3,2.36,22.93,22.93,0,0,1,1.6,2.51c0,.16.1.32.14.48s0,.19-.08.28a13.21,13.21,0,0,1-.89,1.5,7.66,7.66,0,0,1-.57.57c-.56.37-1.16.71-1.73,1-.29.16-.58.32-.86.49-1.13.66-2.1,1.17-3,1.62L87.31,355c-1.24.61-2.49,1.23-3.75,1.81a33.18,33.18,0,0,1-5.88,1.74c-.65.06-1.28.09-1.92.09-.41,0-.82,0-1.24,0a17.47,17.47,0,0,1-3-.84,42.07,42.07,0,0,1-6.8-4,47.46,47.46,0,0,1-5.8-6.16c-1.76-2.1-3.55-4.31-5.68-7A33.48,33.48,0,0,1,50,334.48c-.37-.9-.75-1.85-1.08-2.82a21.88,21.88,0,0,1-.7-3.19l0-.15A44.8,44.8,0,0,1,48.49,318a49.84,49.84,0,0,1,1.67-7.33c.76-2.48,1.46-4.71,2.34-6.88a29.84,29.84,0,0,1,2.86-5.45A36.76,36.76,0,0,1,59,294.76c1.39-1.21,2.81-2.36,4.26-3.52a14.08,14.08,0,0,1,2.17-1.37c.84-.42,1.71-.81,2.57-1.2l.1,0c1.49-.61,3-1.24,4.56-1.75a31.84,31.84,0,0,1,4.6-1l1.14-.2,2.35-.44c2.68-.5,5.46-1,8.2-1.43,1.15-.13,2.09-.2,3-.23h.46a25.7,25.7,0,0,1,2.63.14,33.62,33.62,0,0,1,6.44,1.78,22.23,22.23,0,0,1,3.48,2.08c.94.76,1.91,1.61,3,2.6s2.5,2.15,4,2.15a2.69,2.69,0,0,0,.4,0l.47-.06.46-.06c.39-.15.77-.32,1.15-.5a4.79,4.79,0,0,0,1.34-1.21,10.35,10.35,0,0,0,1.55-2.57c1.25-2.78,2.26-5.7,3.23-8.53l.55-1.6c.76-2.17,1.47-4.39,2.16-6.54.4-1.25.8-2.5,1.21-3.75a40.1,40.1,0,0,0,1.13-4.79l.09-.48.09-.45a23,23,0,0,0,.61-5.35,16.74,16.74,0,0,0-.39-3.13,13.85,13.85,0,0,0-1.45-3.65,11.09,11.09,0,0,0-1.7-2.06,10.69,10.69,0,0,0-1.42-1.18c-.17-.11-.33-.23-.49-.35l-.73-.52-.26-.18a20.06,20.06,0,0,0-3.74-2,17.31,17.31,0,0,0-2.56-.76c-1-.24-2-.45-2.94-.65-1.62-.33-3.24-.65-4.85-1-1-.21-2-.47-3-.72-.72-.19-1.44-.38-2.17-.55-.91-.21-1.82-.4-2.73-.59s-1.65-.34-2.47-.53c-1.46-.32-3.2-.7-5-1-1.52-.27-3.3-.6-5.06-1.06l-2.83-.77c-.85-.24-1.7-.48-2.55-.7-1.57-.42-3.14-.84-4.69-1.29l-.26-.08c-1.49-.43-3-.88-4.57-1.2a18.8,18.8,0,0,0-3.46-.42Z"/><path class="cls-1" d="M487.65,225.35l-1.61,0a78.54,78.54,0,0,0-21.81,3.28,34.22,34.22,0,0,0-5.44,2.24,22.74,22.74,0,0,0-4.86,3.22c-1.74,1.57-3.38,3.3-5,5-.72.76-1.45,1.53-2.19,2.29l-.29.3c-1,1-2.1,2.14-3.07,3.28l-1,1.19c-.83,1-1.66,1.93-2.47,2.91-1.27,1.51-2.53,3.1-3.76,4.72a34.77,34.77,0,0,0-2.25,3.55l-.47.8c-.79,1.35-1.58,2.7-2.35,4.06a51.35,51.35,0,0,0-2.31,4.73c-1.37,3.15-2.7,6.53-4.17,10.62-1.25,3.47-2.35,6.92-3.27,10.24a66.54,66.54,0,0,0-1.65,9.47l-.23,1.76c-.16,1.19-.29,2.37-.43,3.56-.07.64-.15,1.29-.22,1.93l0,.26c-.2,1.64-.4,3.34-.52,5-.28,3.86-.38,7.7-.45,11.29v.28c0,1.77-.07,3.61,0,5.41.11,2,.29,3.87.53,5.68.52,3.85,1.15,7.33,1.93,10.61.42,1.75,1,3.44,1.61,5.3.55,1.6,1.09,3.2,1.67,4.79l.63,1.76c.37,1.06.74,2.12,1.14,3.16.72,1.82,1.5,3.71,2.4,5.79.76,1.72,1.44,3.27,2.21,4.81.68,1.35,1.49,2.68,2.26,4l.07.12a32.74,32.74,0,0,0,3.48,4.58c1.15,1.31,2.28,2.59,3.44,3.84s2.23,2.5,3.29,3.74q.71.84,1.38,1.71c.64.8,1.29,1.63,2,2.39a25.6,25.6,0,0,0,4.6,3.69c1.41.94,2.88,1.82,4.36,2.61.94.5,1.93.95,2.89,1.39.45.2.9.4,1.35.62.92.43,1.84.89,2.75,1.35.69.35,1.37.7,2.07,1a27.78,27.78,0,0,0,6,1.94l.15,0a43.52,43.52,0,0,0,4.44.86,18.24,18.24,0,0,0,2.48.16,28.88,28.88,0,0,0,4.35-.37A26.55,26.55,0,0,0,486,401l.58-.2c1.42-.48,2.89-.91,4.31-1.32l.5-.15a104,104,0,0,0,9.84-3.56c.71-.29,1.43-.56,2.15-.84s1.65-.63,2.47-1l.41-.15c.29-.12.59-.23.87-.36l.24-.11a3.8,3.8,0,0,0,.78-.33l.59-.26.38-.16.12-.05c.78-.33,1.59-.68,2.35-1.08s1.46-.79,2.18-1.2c.4-.23.8-.46,1.21-.68.92-.51,1.88-1,2.95-1.45l1.25-.49a36.21,36.21,0,0,0,8.34-4.13,44.82,44.82,0,0,0,6.7-6.5l1-1.16c.58-.64,1.19-1.27,1.8-1.9,2.39-2.48,4.86-5.05,5.86-8.46.26-.89.49-1.76.69-2.64a25.55,25.55,0,0,0,.43-2.76l.09-.77c.23-1.77.43-3.55.64-5.33.44-3.82.53-7.62.6-11s.11-6.8.11-11.2c0-3.2-.19-6.62-.6-10.76A63.08,63.08,0,0,0,543,310c-.39-1.34-.92-2.65-1.43-3.92l-.25-.6c-.62-1.54-1.38-3.35-2.3-5.11a21.16,21.16,0,0,0-3.27-4.64,17.65,17.65,0,0,0-2.18-1.86,21.45,21.45,0,0,0-2.32-1.56,32,32,0,0,0-5.13-2.15l-.39-.14-1.09-.38c-1.32-.47-2.64-.94-4-1.37a39.68,39.68,0,0,0-5.33-1.45,27.56,27.56,0,0,0-5.19-.58l-.79,0c-1.47.07-2.94.26-4.38.45l-1.1.14-2.59.3c-.87.09-1.74.19-2.6.3-1.77.22-3.54.41-5.31.61s-3.54.38-5.31.6c-4.07.51-8.71,1.29-12.25,4.13a18.49,18.49,0,0,0-3.46,3.78,21.63,21.63,0,0,0-1.23,1.94,11.54,11.54,0,0,0-1.4,3.62,10.22,10.22,0,0,0-.1,2.52c.05.62.14,1.23.24,1.83l0,.23c.13.83.32,1.62.52,2.5s.48,1.83.74,2.71.44,1.5.63,2.25c.55,2.21,1,4.47,1.43,6.66.24,1.18.47,2.37.73,3.55a38,38,0,0,0,1.4,4.92,27.47,27.47,0,0,0,1.14,2.65c.1.19.18.38.27.56a8.07,8.07,0,0,0,1.34,2.23,5.38,5.38,0,0,0,2.52,1.49,5,5,0,0,0,1.33.17,14,14,0,0,0,2-.22,9.06,9.06,0,0,0,1.84-.62l.55-.23.23-.09c.68-.26,1.38-.53,2.09-.75A22,22,0,0,1,491,334l.19,0,3.19-.6c1.56-.3,3.17-.62,4.76-.87.24,0,.46,0,.7,0h.31c.16,0,.32.08.48.12s.23.23.33.35l.1.14h0a13.19,13.19,0,0,1,.47,1.9,15.84,15.84,0,0,1,0,2.39,18.35,18.35,0,0,1-.54,2.06c-.14.27-.28.53-.44.79a10.8,10.8,0,0,1-1.08,1,17.76,17.76,0,0,1-2.37,1.5,25,25,0,0,1-3.3.76c-.5.09-1,.18-1.51.29l-.26.05c-1.4.3-2.85.61-4.29.84-1.66.18-3.13.29-4.5.32h-.51a34,34,0,0,1-3.76-.24,29.11,29.11,0,0,1-5.08-1.3,28.17,28.17,0,0,1-4.61-2.58,14.81,14.81,0,0,1-1.65-1.61,16.41,16.41,0,0,1-1.36-2.4,39.17,39.17,0,0,1-1.71-6.45c-.4-2-.76-4.17-1.09-6.38-.27-2.56-.45-5.21-.56-8.11a55,55,0,0,1,.41-7.91,26.29,26.29,0,0,1,1.08-4.68,26.75,26.75,0,0,1,2.94-4.6,53.94,53.94,0,0,1,7.55-7.56,31.42,31.42,0,0,1,5.22-2.94,52.05,52.05,0,0,1,5.34-1.59c1.7-.43,3.3-.76,4.88-1l3.17-.32c2.37-.22,4.82-.46,7.23-.76a63.2,63.2,0,0,0,10.81-2.05c.77-.24,1.54-.5,2.31-.76.61-.22,1.19-.47,1.67-.68a9,9,0,0,0,2.1-1.42c1.73-1.43,2.12-3.81,2.46-5.91.06-.37.12-.73.19-1.08.38-2.1.66-4,.83-5.9.16-1.66.24-3.35.31-5l0-.41c.07-1.58.18-3.16.3-4.77,0-.5.07-1,.1-1.49.08-1.14.15-2.31.28-3.45l.15-1.29a51.08,51.08,0,0,0,.51-8.21c0-.93-.13-1.87-.26-2.8a10.92,10.92,0,0,0-1.2-3.57,12.45,12.45,0,0,0-1.6-2.21,11.92,11.92,0,0,0-1.48-1.46,19.09,19.09,0,0,0-2.51-1.81,20.07,20.07,0,0,0-1.81-.88l-.13-.05a37.7,37.7,0,0,0-3.76-1.39,3.6,3.6,0,0,0-.92-.41,56.14,56.14,0,0,0-11.65-2c-1.82-.1-3.78-.17-6-.21h-.67c-1,0-2-.05-3.05-.05Z"/><path class="cls-1" d="M626.69,218.2a5.1,5.1,0,0,0-1.08.12c-1.5.31-3,.59-4.4.82-.74.1-1.47.2-2.21.28a18.6,18.6,0,0,1-2,.08H616c-1.38,0-2.77-.05-4.16-.1-.63,0-1.26-.05-1.89-.06-2.93-.09-6.06-.17-9.15-.17l-2.67,0c-2,0-3.86.25-5.81.48a29.22,29.22,0,0,0-3.38.56A15,15,0,0,0,586,221.3a14,14,0,0,0-2.92,2c-1.34,1.07-2.62,2.27-3.86,3.42l-.59.56-.13.12a31.41,31.41,0,0,0-3.88,4A39.93,39.93,0,0,0,571,237l-.61,1.13c-.74,1.38-1.5,2.8-2.18,4.23A66.48,66.48,0,0,0,564,254.56c-.51,2-1,4-1.44,6.19-.39,1.73-.65,3.54-.9,5.28l-.16,1.16a114.24,114.24,0,0,0-1,12.87c-.18,5.26-.24,9.27-.22,13a52.18,52.18,0,0,0,.49,6.63,27,27,0,0,0,1.27,5.64,44.35,44.35,0,0,0,2.88,6.4c.44.78.92,1.56,1.48,2.36.38.54.77,1.09,1.18,1.61a15.53,15.53,0,0,0,3.09,2.86,14.37,14.37,0,0,0,3.27,1.66,22,22,0,0,0,3,.9c.75.18,1.54.29,2.29.4l.56.08a25.42,25.42,0,0,0,3.74.35,27.93,27.93,0,0,0,6-.64,34.66,34.66,0,0,0,3.92-1.16l.77-.26c1.43-.49,2.86-1,4.24-1.57l.72-.28a21.49,21.49,0,0,1,4.32-1.13,29.6,29.6,0,0,1,3.39-.21c.6,0,1.2,0,1.8.07a22.63,22.63,0,0,1,4.41,1.31,29.41,29.41,0,0,1,4.39,2.51,27.46,27.46,0,0,1,2.88,3.2,16.3,16.3,0,0,1,1.24,2.06,11.75,11.75,0,0,1,.33,1.33,35,35,0,0,1-.07,4.94c0,.6-.07,1.2-.1,1.8-.06,1.1-.12,2.2-.22,3.3a14,14,0,0,1-.52,2.14,3.07,3.07,0,0,1-.17.31,13.37,13.37,0,0,1-1.17,1.21,17.45,17.45,0,0,1-2,1.26,18.75,18.75,0,0,1-3.28.8,33.58,33.58,0,0,1-3.64.2c-1.16,0-2.35-.06-3.55-.18-2.64-.25-5.37-.5-8.15-.62-5-.21-10.43-.49-15.8-1.13-1.84-.31-3.48-.65-5-1.06-.75-.2-1.5-.4-2.26-.57a9.13,9.13,0,0,0-2-.24,6.24,6.24,0,0,0-1.88.27,6.12,6.12,0,0,0-3.7,3.24,16.57,16.57,0,0,0-1.31,5.52l-.06.48c-.13,1.07-.2,2.16-.27,3.21s-.13,2.32-.18,3.48l-.12,2.51c-.06.95-.12,1.91-.19,2.86-.08,1.24-.16,2.48-.23,3.72-.1,1.83-.16,3.66-.22,5.5l0,.85v.44c-.07,1.81-.13,3.69-.06,5.53a63,63,0,0,0,.63,6.79,26.64,26.64,0,0,0,1.56,5.87l.06.16c1,2.45,2.08,5.23,4,7.14a15.07,15.07,0,0,0,6.17,3.35c1,.33,2,.59,2.89.81a44.63,44.63,0,0,0,6.49,1c3.76.3,7.85.49,12.5.58.83,0,1.67,0,2.51,0a41.3,41.3,0,0,0,10.38-1.1c1.08-.28,2.16-.6,3.23-.92.8-.23,1.6-.47,2.41-.69,2-.56,4-1.08,6-1.59,1.67-.42,3.62-.91,5.53-1.48,1.67-.5,3.33-1.12,4.94-1.71l.81-.3.55-.2c1.5-.56,3.06-1.13,4.57-1.74,1-.39,1.93-.85,2.86-1.29l.39-.18A19.57,19.57,0,0,0,648,389l.69-.54.35-.26a44,44,0,0,0,4.68-4c1.55-1.59,2.93-3.11,4.22-4.65A67.11,67.11,0,0,0,665.12,369a104.83,104.83,0,0,0,5.41-11.82c.27-.69.52-1.4.76-2.11l.24-.69a29.06,29.06,0,0,0,1.42-6.27c.24-1.92.49-4,.65-6.05.19-2.43.27-4.44.26-6.32a41.08,41.08,0,0,0-.73-6.82A60.42,60.42,0,0,0,669.31,317a59.13,59.13,0,0,0-5.17-9.9c-.84-1.28-1.8-2.51-2.72-3.7-.33-.42-.65-.84-1-1.27a36.45,36.45,0,0,0-3.67-4.32,30.06,30.06,0,0,0-5-4,26.64,26.64,0,0,0-5.1-2.23l-.71-.26c-.88-.32-1.75-.66-2.62-1l-2.25-.86-1.85-.65c-1-.32-1.92-.65-2.87-1-1.74-.85-3.43-1.76-5-2.63-1.21-.66-2.47-1.24-3.7-1.8-.55-.25-1.11-.5-1.66-.77-1.61-.76-3.2-1.59-4.74-2.4l-.46-.24-1.51-.74L618,278.6a18,18,0,0,1-2.21-1.35,17.6,17.6,0,0,1-1.88-2,7.55,7.55,0,0,1-.43-.74,8.83,8.83,0,0,1-.28-1,9.74,9.74,0,0,1,0-1.32,24.53,24.53,0,0,1,.91-3.64,17.49,17.49,0,0,1,1.11-2,20,20,0,0,1,1.6-1.72,5.64,5.64,0,0,1,.53-.31,17.15,17.15,0,0,1,2.89-.75c2.53-.32,5-.52,7.36-.59h1.32a64,64,0,0,1,6.63.37,28.69,28.69,0,0,1,6,1.5,15.77,15.77,0,0,1,2,1.16,15.29,15.29,0,0,1,1.54,1.64c.42.61.82,1.24,1.23,1.87s.92,1.43,1.4,2.12c.15.21.29.43.42.64a7.75,7.75,0,0,0,1,1.32,4.55,4.55,0,0,0,3.16,1.32,3.16,3.16,0,0,0,1.87-.57,10.06,10.06,0,0,0,1.5-1.28,9,9,0,0,0,1.22-1.88c.18-.34.33-.71.48-1.07.07-.18.14-.35.22-.51.61-1.41,1.25-2.8,1.88-4.2,1.13-2.46,2.3-5,3.29-7.59.74-1.93,1.33-3.94,1.86-5.84a36.53,36.53,0,0,0,1.19-6.91,23.78,23.78,0,0,0-.47-7.58A17.46,17.46,0,0,0,664,234.2a20.07,20.07,0,0,0-1.52-2.62,21,21,0,0,0-3.43-3.94c-1.53-1.34-3.05-2.56-4.52-3.63a15.45,15.45,0,0,0-2.2-1.26,21.37,21.37,0,0,0-3.2-1.35,31.89,31.89,0,0,0-6-1c-2-.2-4-.25-5.91-.3-1.34,0-2.67-.08-4-.16-.92-.06-1.85-.15-2.78-.24l-.89-.08a3.77,3.77,0,0,0-1-.88,3.5,3.5,0,0,0-1.91-.53Z"/></g></g></svg>