<svg xmlns="http://www.w3.org/2000/svg" viewBox="0 0 1273.97 204.97"><defs><style>.cls-1{fill:#fff;}</style></defs><g id="Layer_2" data-name="Layer 2"><g id="Draw_Layer" data-name="Draw Layer"><path class="cls-1" d="M144.51,32.12a11,11,0,0,0-2.17.23,8.85,8.85,0,0,0-1.63.62,3.26,3.26,0,0,0-.62.35,3.41,3.41,0,0,0-.87.72c-6.23.67-12.59,1.14-18.73,1.6l-3,.22c-6.59.5-13.31.63-19.82.76l-2.35,0c-2.09.05-4.17.12-6.26.19L84.2,37,83,37c-1.47,0-2.93.09-4.39.09H75.2c-.81,0-1.62,0-2.43,0l-.88,0c-3.57.07-7.26.15-10.88.44l-.66,0c-3.66.29-7.45.59-11.17,1-6.07.57-12,1.56-17,2.45a96.37,96.37,0,0,1-10.46.82h-1c-1.31,0-2.61,0-3.91-.08H16.4L15,41.73c-.85,0-1.7-.08-2.55-.08-.46,0-.92,0-1.39,0A10.66,10.66,0,0,0,5.54,43.1c-2.31,1.58-3.34,4.42-4,7A39.71,39.71,0,0,0,.43,56.85L.29,58.41.14,60A50.05,50.05,0,0,0,0,65.43C.05,67.18.14,69,.29,71A92.37,92.37,0,0,0,2,82.29a19.05,19.05,0,0,0,.67,2.43A10,10,0,0,0,4,87.43,8.44,8.44,0,0,0,5.3,88.9a22.32,22.32,0,0,0,1.9,1.42,14.13,14.13,0,0,0,3.12,1.42,24.46,24.46,0,0,0,3.68.89c.69.12,1.38.21,2.07.29L17,93a112.52,112.52,0,0,0,11.72.81c1.77.06,3.42.09,5,.09,2.06,0,4,0,5.88-.15l3.14-.13c1.81-.08,3.62-.15,5.42-.27,1-.07,2-.17,3.07-.27L52.35,93l1-.11c.8-.09,1.62-.18,2.43-.19,0,.12.12.25.18.38.39,1,.74,2.09,1,3.11A25.29,25.29,0,0,1,57.54,99c.69,6.5.73,13.16.77,19.61v2.21l0,3.53c0,6.25.1,12.71-.05,19.06,0,1.15-.09,2.3-.15,3.45,0,.65-.07,1.29-.1,1.94-.1,2-.17,4-.23,6-.1,3.74-.15,7.46-.18,10.95v1.22c0,1.39,0,2.77-.06,4.16-.07,1.89-.31,3.82-.53,5.52-.26,2-.39,4.09-.51,6.08-.1,1.48-.19,3-.34,4.49q-.12,1.29-.27,2.58c-.05.38-.09.76-.11,1.15a7.58,7.58,0,0,0,.66,3.87c1.12,2.32,3.64,3.25,5.71,3.81a25.27,25.27,0,0,0,3.46.62,46.23,46.23,0,0,0,5.34.4h.14c1.4,0,2.83,0,4.21-.09l.91,0c4-.12,7.65-.2,11.05-.24H89c1.38,0,2.8,0,4.2-.11.66,0,1.32-.17,1.89-.27l.52-.15,1.33-.56a9.3,9.3,0,0,0,2.66-2.25,12.86,12.86,0,0,0,1.13-1.68,13.1,13.1,0,0,0,.68-1.59l.14-.36a20.69,20.69,0,0,0,.94-3.8l.05-.31c.55-3,1-6.09,1.42-9.07l.38-2.64c.28-1.93.52-4,.72-6.39.07-.81.12-1.62.17-2.43s.11-1.78.19-2.66c.36-4.06.62-7.46.68-10.91s0-7.14-.33-11.25c-.24-3.52-.53-7.1-.87-10.63-.31-3.19-.53-6.68-.68-11-.11-3.35-.13-6.76-.14-10.06v-1.72c0-3.24,0-6.59,0-9.89a21.88,21.88,0,0,1,.19-2.46,3.19,3.19,0,0,0,.11-.63c0-.13,0-.27,0-.41a12.6,12.6,0,0,1,.32-1.35,10.48,10.48,0,0,1,1.08-1,19.18,19.18,0,0,1,2.61-1.48c2.33-.94,4.5-1.74,6.64-2.43,1.23-.4,2.44-.79,3.65-1.09,1.36-.34,2.72-.57,3.76-.73,1.6-.2,3.17-.38,4.72-.45.65,0,1.29,0,1.93,0,1.13,0,2.25,0,3.37.07,3.79.12,7.25.21,10.57.26h.71a17.63,17.63,0,0,0,3.29-.25,6,6,0,0,0,1.74-.74,6.2,6.2,0,0,0,1.21-1,8.92,8.92,0,0,0,1.85-3.15,40.67,40.67,0,0,0,1.5-4.75l.2-.78c.35-1.39.72-2.82,1-4.25a54.71,54.71,0,0,0,.76-5.62,90.79,90.79,0,0,0-.3-15.88c-.14-1.58-.37-3.16-.59-4.68l-.1-.7c-.15-1-.3-2.09-.51-3.13a8,8,0,0,0-2.44-4.33,4.15,4.15,0,0,0-.12-1,7.39,7.39,0,0,0-1.72-3.32,6.6,6.6,0,0,0-2.78-1.77,7.21,7.21,0,0,0-2.25-.34Z"/><path class="cls-1" d="M421.2,21.89h-.67a26.76,26.76,0,0,0-3.36.36,3.29,3.29,0,0,0-2,1.4c-6-.48-12.23-.73-18.44-.73L394,23l-3.86,0c-1.88,0-3.73.19-5.46.37-3.37.34-6.75,1-10,1.62l-1.23.24c-1.19.23-2.37.48-3.55.74l-1.46.31c-1.95.42-3.92.8-5.88,1.18s-4.22.76-6.29,1.1c-1.36.23-2.73.45-4.09.7l-2.71.49c-.36.07-.73.16-1.09.25a18.73,18.73,0,0,0-2.8,1,8.86,8.86,0,0,0-3.14,2.47,11.85,11.85,0,0,0-2,3.45,32.6,32.6,0,0,0-1.14,3.25,63.54,63.54,0,0,0-2,11.23c-.49,4.24-.79,7.78-.92,11.13-.32,7.94-.39,15.87-.42,22.59,0,2,0,4,0,6,0,1.78.14,3.58.23,5.33l0,.6c.07,1.3.19,2.62.3,3.9l.15,1.7c.11,1.39.23,2.78.36,4.16l.15,1.76c.22,2.48.4,5,.58,7.47l.27,3.53c.19,2.47.4,4.93.61,7.39.13,1.45.25,2.9.37,4.34.55,6.58,1,13.28,1.37,19.76l.14,2.32.11,1.76c.17,2.71.35,5.51.59,8.26.17,1.95.29,3.94.41,5.86.07,1.1.13,2.19.21,3.29.15,2.22.36,4.85.7,7.44,0,.46-.05.92-.05,1.39a10,10,0,0,0,.67,3.68,10.16,10.16,0,0,0,1.75,3,11.38,11.38,0,0,0,1.16,1.14,25,25,0,0,0,4.86,3.74,3.72,3.72,0,0,0,1.78.46,3.51,3.51,0,0,0,2.16-.74,16.49,16.49,0,0,0,2,.32c.49.05,1,.06,1.49.07.81.12,1.62.22,2.43.31,0,.12.05.25.08.38a3.54,3.54,0,0,0,1.61,2.1,3.31,3.31,0,0,0,1.72.46,6.26,6.26,0,0,0,1-.1c5.32-1,9.64-1.87,13.6-2.75l2.53-.57c3.28-.74,6.68-1.51,10.06-2,4.38-.5,7.76-.84,10.94-1.1,2-.16,4.05-.24,6-.32,1.62-.07,3.25-.13,4.87-.24l5.74-.37.76,0a51.38,51.38,0,0,0,5.36-.51c1.58-.27,3.45-.61,5.33-1.1.77-.2,1.53-.44,2.29-.68s1.71-.53,2.58-.75c.65-.16,1.31-.29,2-.41a39.38,39.38,0,0,1,4.23-.18H442l1.34,0,1.45,0a13.1,13.1,0,0,0,3.14-.31c3.86-.95,4.42-5.24,4.87-8.68l.05-.42c.22-1.65.29-3.36.36-5v-.15c.07-1.63.13-3.54.06-5.42l-.11-2.36c0-1-.09-2-.13-3L453,158c0-1.05-.06-2.1-.12-3.14a40.94,40.94,0,0,0-.79-6c-.38-1.86-.79-3.71-1.21-5.55-.2-.87-.4-1.73-.64-2.58-.11-.41-.24-.81-.38-1.21a10.66,10.66,0,0,0-.58-1.45,8.44,8.44,0,0,0-1.21-1.72,5.19,5.19,0,0,0-1.47-1.07,6.86,6.86,0,0,0-1.73-.62,20.88,20.88,0,0,0-2.37-.38l-.19,0c-1.07-.13-2.14-.23-3.22-.31-1.56-.12-3.14-.18-4.68-.23l-1,0c-3.42-.12-6.71-.15-10.67-.17h-2a83.2,83.2,0,0,0-9,.39c-1.52.17-3.05.3-4.58.43s-3.05.26-4.58.42c-2.06.22-3.76.47-5.35.79l-1.38.29c-.74.15-1.47.31-2.21.44s-1.22.08-1.81.08-1.12,0-1.67-.07a13,13,0,0,1-1.79-.47c-.39-.21-.75-.43-1.11-.67a13.42,13.42,0,0,1-1-1,7.37,7.37,0,0,1-.43-.78,32.64,32.64,0,0,1-1.54-6.38,13,13,0,0,1-.08-1.59c0-.15.08-.29.13-.44a5,5,0,0,1,.67-.38,26,26,0,0,1,4.28-1c1.51-.17,3.12-.32,4.92-.45,1.64-.11,3.33-.23,5-.23h.12c1.85,0,3.67.09,5.21.19l.84,0,1.7.1h.48q.51,0,1,0a7.26,7.26,0,0,0,2.09-.42,7.94,7.94,0,0,0,2.51-1.61,6.93,6.93,0,0,0,1.7-2.35,15.68,15.68,0,0,0,.86-2.19,13.68,13.68,0,0,0,.49-2.75v-.17a17.79,17.79,0,0,0,0-2.91,45.4,45.4,0,0,0-.73-6.07,28.1,28.1,0,0,0-1.42-4.85l-.36-.92c-.28-.72-.56-1.44-.87-2.16a9.9,9.9,0,0,0-4.83-4.79,20.66,20.66,0,0,0-8-1.66c-1.31-.08-2.64-.11-3.93-.13l-.59,0c-1,0-2,0-3,0H391.3c-.7,0-1.4,0-2.1.09l-.78.06c-.42,0-.84.08-1.27.09-.17-.28-.34-.57-.5-.87-.42-1.19-.73-2.44-1-3.65l-.15-.63c-.29-1.14-.56-2.39-.83-3.82a9.64,9.64,0,0,1,0-1.28c0-.11,0-.21.08-.32l.06-.11h0l.48-.44a18.54,18.54,0,0,1,2.46-1.47,27,27,0,0,1,4.94-1.25c1.51-.2,3-.38,4.48-.47,2-.12,4-.21,6.08-.29l3.68-.12c2.31-.07,4.69-.14,7-.28,1.73-.11,3.52-.22,5.27-.44.91-.12,2-.26,3.11-.49.73-.15,1.47-.35,2.18-.55l.27-.07a17,17,0,0,0,1.69-.61l.38-.15c.84-.34,1.7-.73,2.65-1.19l.2-.09c.38-.19.78-.38,1.15-.61a7.26,7.26,0,0,0,2.38-2.61,11.07,11.07,0,0,0,1.22-3.33,30.65,30.65,0,0,0,.53-3.67,151.74,151.74,0,0,0,.44-22.12c-.11-1.82-.33-3.63-.56-5.33l-.09-.69c-.1-.84-.2-1.67-.35-2.49A8.16,8.16,0,0,0,431.68,26a22.42,22.42,0,0,0-2.27-1.66,12.14,12.14,0,0,0-1.69-.85l-.33-.15a25.16,25.16,0,0,0-2.75-1.06,11.44,11.44,0,0,0-3.44-.42Z"/><path class="cls-1" d="M416.89,22.51a33,33,0,0,0-6,.58,47.2,47.2,0,0,0-5.09,1.51c-1.55.48-3.12.95-4.66,1.49a39.86,39.86,0,0,0-7.43,3.54c-1.74,1.06-3.42,2.22-5.1,3.37s-3.39,2.4-5,3.71c-.62.5-1.22,1-1.81,1.54a23.66,23.66,0,0,0-3.7,4.46,64.51,64.51,0,0,0-3.39,5.88c-1.13,2.08-2.16,4.22-3.11,6.38a3.79,3.79,0,0,0-.36,2.7,3.52,3.52,0,0,0,4.31,2.45,3.39,3.39,0,0,0,2.09-1.61c.92-2.1,1.92-4.17,3-6.19a63.24,63.24,0,0,1,4.26-7.17A27.67,27.67,0,0,1,389,41.3c1.52-1.13,3.06-2.2,4.62-3.27a52.65,52.65,0,0,1,7.55-4.48c2.65-1.07,5.41-1.86,8.12-2.74a33,33,0,0,1,4.65-1.17,31,31,0,0,1,4.09-.09c1.6.06,3.21.28,4.81.43a3.35,3.35,0,0,0,2.47-1,3.57,3.57,0,0,0,1-2.48,3.52,3.52,0,0,0-1-2.47,3.68,3.68,0,0,0-2.47-1c-1.92-.18-3.87-.47-5.8-.47Z"/><path class="cls-1" d="M416.61,23.08a35.57,35.57,0,0,0-5.8.84c-1.81.39-3.59,1-5.37,1.46-1.17.33-2.33.7-3.48,1.06a28.57,28.57,0,0,0-7,3.4c-5.34,3.48-9.7,8.23-13.76,13.08-2.71,3.24-5.41,6.49-7.9,9.9-.12.18-.25.35-.38.53a3.38,3.38,0,0,0-.35,2.69,3.5,3.5,0,0,0,4.31,2.45A3.73,3.73,0,0,0,379,56.88c.53-.75,1.08-1.48,1.64-2.21,1.92-2.45,3.89-4.84,5.89-7.22,1-1.23,2.12-2.4,3.18-3.6a56.1,56.1,0,0,1,6.65-6.43,32.36,32.36,0,0,1,5.88-3.64,73.85,73.85,0,0,1,7.1-2.22c1.79-.49,3.56-.95,5.37-1.31a54.92,54.92,0,0,1,7.48-.16,3.5,3.5,0,0,0,0-7c-1.12,0-2.24-.06-3.36-.06-.74,0-1.47,0-2.21,0Z"/><path class="cls-1" d="M341.53,138.63c-.15,7.78-.19,15.55-.2,23.32q0,5.4,0,10.79a51.74,51.74,0,0,0,.83,11.26,15.46,15.46,0,0,0,.45,1.78c.3.9.66,1.77,1,2.64a20.86,20.86,0,0,0,1.13,2.21,11.27,11.27,0,0,0,4,4,16,16,0,0,0,6.48,1.8,20.6,20.6,0,0,0,4.3-.11,35.68,35.68,0,0,0,4.35-.77c1.39-.34,2.75-.83,4.1-1.3,1.19-.41,2.37-.86,3.56-1.26a26.13,26.13,0,0,1,3.79-.91c1.81-.22,3.63-.35,5.46-.43.94,0,1.87-.07,2.81-.1s1.84-.09,2.75,0l.13,0a3.5,3.5,0,1,0,1.86-6.75,16.88,16.88,0,0,0-4.43-.25c-1.08,0-2.17.06-3.25.11a37.92,37.92,0,0,0-14.84,3,38.52,38.52,0,0,1-6.48,1.74,25.55,25.55,0,0,1-4.46,0,16.65,16.65,0,0,1-2.1-.56,8,8,0,0,1-1-.58c-.22-.2-.43-.41-.64-.63a19.42,19.42,0,0,1-1.47-2.78,26.3,26.3,0,0,1-1-3.79,88.57,88.57,0,0,1-.36-9.64q0-5.15,0-10.27c0-7.48.05-15,.2-22.45a3.5,3.5,0,0,0-7,0Z"/><path class="cls-1" d="M290.39,22.25c-1,0-1.88,0-2.71.11l-2.88.32-2.56.29c-.83.09-1.65.17-2.48.28a11.74,11.74,0,0,0-6.22,2.41,9.36,9.36,0,0,0-1.8,2.08,10.62,10.62,0,0,0-1,2.07l-.17.45a27.79,27.79,0,0,0-.93,2.76,18.54,18.54,0,0,0-.44,2.25l-.06.39c-.16,1.05-.32,2.13-.43,3.21-.4,3.86-.56,7.73-.66,11.33-.11,3.84-.14,7.71-.17,11.35,0,3.92-.2,7.72-.36,10.91-.08,1.61-.15,3.21-.22,4.82,0,.45,0,.9,0,1.34,0,.88,0,1.8-.11,2.69-.62.14-1.27.25-1.89.35a29.93,29.93,0,0,1-3.15.22h-.76c-.74,0-1.48,0-2.21,0l-1.19,0c-2.74,0-5.47-.1-8.21-.13h-.42c-1.9,0-3.83.11-5.7.23L242,82l-3.78.17-.75,0c-.71,0-1.42.06-2.12.06l-.94,0-.2-.4a24.88,24.88,0,0,1-1-4.52c-.18-1.48-.38-3.2-.49-4.9a38.53,38.53,0,0,1,0-4.3l0-1.06,0-1.09c.1-3.06.2-6.23.41-9.34.22-3.29.44-6.8.54-10.38.06-2.28.09-4.57.11-6.86l0-2.94a3.53,3.53,0,0,0-2-3.15,3.39,3.39,0,0,0-2.36-2.21,58,58,0,0,0-6.35-1.16c-2.2-.26-4-.42-5.71-.51l-2.27-.11-3.57-.19L209.26,29l-2.93-.19c-1.38-.08-2.8-.12-4.22-.12h-1.17a37.29,37.29,0,0,0-5.63.58,16.36,16.36,0,0,0-5.39,1.88A12.58,12.58,0,0,0,187.44,33a8.46,8.46,0,0,0-1.81,3.39,21.68,21.68,0,0,0-.85,4.21l-.08.59a116,116,0,0,0-.84,12.07c-.12,3.54-.15,7.07-.19,11v1.38c0,1.32,0,2.64,0,4,0,1.46.1,2.91.17,4.36l.06,1.09c.18,4,.3,7.63.35,11.16.12,8.49.14,17,.15,23.37,0,3.5-.14,7-.27,10.49l0,.29c-.16,4.15-.27,8-.35,11.71-.12,6.32-.12,12.76-.13,19v2.85c0,.55,0,1.11,0,1.67,0,1.27,0,2.6,0,3.89-.07,1.7-.16,3.41-.26,5.11l0,.6c-.09,1.49-.15,3-.22,4.45l0,.78c-.05,1.11-.16,2.24-.25,3.32-.06.62-.12,1.23-.16,1.84-.28,3.54-.52,7-.54,10.51,0,.58,0,1.16.09,1.77a14.83,14.83,0,0,0,.37,2.07,8.27,8.27,0,0,0,.66,1.61l.11.22a9.74,9.74,0,0,0,1.74,2.26,9.5,9.5,0,0,0,.92.78,13.16,13.16,0,0,0,1.74,1.19,7.12,7.12,0,0,0,1.09.49l.39.15a9.41,9.41,0,0,0,1.31.41l.31.08a20.47,20.47,0,0,0,2.34.42l.35.05,1.48.21c1.49.22,3,.44,4.58.6s3.38.32,5.65.46c2.94.19,5.94.22,8.84.26l2.1,0h1.2c3.78,0,8.12-.3,11.65-2.48,2-1.22,3.52-3.21,4.82-6.25.72-1.65,1.54-3.61,2.22-5.63a54.25,54.25,0,0,0,1.56-5.58c.27-1.23.48-2.51.69-3.74l.23-1.35a75.47,75.47,0,0,0,1.24-11,42.65,42.65,0,0,0-.12-5.35q-.09-1-.21-2c-.1-1-.21-2-.3-3-.12-1.36-.26-2.71-.4-4.06-.22-2.09-.45-4.25-.58-6.39-.08-1.28-.11-2.57-.15-3.86-.06-2.15-.12-4.39-.39-6.56s-.54-3.78-.88-5.38a23.9,23.9,0,0,0-.66-2.54l-.17-.51c-.21-.64-.43-1.3-.58-2a7,7,0,0,1,0-.79l0-.13h0c.06-.11.13-.22.2-.33a17.9,17.9,0,0,1,3.42-.74c3-.3,6.16-.48,10.09-.56,1.72,0,3.45-.06,5.17-.08l1.31,0c.56,0,1.11,0,1.67,0l1,0,.06.1h0a29.44,29.44,0,0,1,1.17,5,93.5,93.5,0,0,1,.39,10.62c0,1.44-.17,2.9-.3,4.32l-.12,1.32c-.13,1.44-.28,2.87-.42,4.3l-.07.71c-.28,2.77-.49,5.59-.7,8.32-.08,1.08-.16,2.16-.25,3.24-.13,1.72-.24,3.43-.35,5.15-.11,1.87-.23,3.73-.38,5.6-.31,3.7-.6,7.32-.75,11-.14,3.33-.16,6.71-.18,10v.83c0,.8,0,1.61,0,2.41a17.65,17.65,0,0,0,.33,3.24c0,.22.07.44.1.66.09.54.18,1.09.32,1.63a9.92,9.92,0,0,0,.75,1.94,5.67,5.67,0,0,0,3.4,2.59,20.16,20.16,0,0,0,3.34.59l.25,0c.76.09,1.66.19,2.54.22s1.71,0,2.57,0c1.09,0,2.05,0,2.93-.11,1.68-.15,3.37-.39,5-.63l.75-.1,2-.24,3.94-.48c1.48-.19,3-.42,4.43-.66l1.84-.28c1-.12,1.91-.22,2.87-.32,2.64-.29,5.36-.59,8-1.09a30.7,30.7,0,0,0,5.26-1.43,12.42,12.42,0,0,0,4.49-2.84,14.42,14.42,0,0,0,2.28-3.27,41,41,0,0,0,2.4-5.44c.47-1.25.9-2.53,1.31-3.78l.41-1.23.48-1.41c1-2.87,2-5.84,2.72-8.84a45,45,0,0,0,.93-5.85c.23-2.13.37-3.88.45-5.51.15-3.52.25-7.28.31-11.5q.07-6,.09-12.1c0-3.69-.14-7.34-.32-11.07-.12-2.81-.28-5.61-.44-8.41l-.17-3.05c-.08-1.36-.13-2.72-.19-4.08-.1-2.17-.19-4.41-.36-6.61-.26-3.53-.46-7.28-.59-11.46-.11-3.38-.2-7,0-10.49s.32-7.32.41-11.64c.08-3.87.14-7.36-.08-10.89-.2-3.37-.64-6.79-1.05-10.09l-.07-.54A92,92,0,0,0,318,36.47l-.09-.38a37.72,37.72,0,0,0-1.28-4.43,19.74,19.74,0,0,0-1.14-2.55,8.54,8.54,0,0,0-2.45-2.63,15,15,0,0,0-3.5-1.79c-.9-.34-1.66-.6-2.36-.82a19.89,19.89,0,0,0-2.16-.5l-.54-.1a46.27,46.27,0,0,0-5.71-.67l-.45,0c-1.78-.14-3.6-.2-5.37-.26q-1.29-.06-2.58-.06Z"/><path class="cls-1" d="M958.8,7.09c-.78,0-1.5,0-2.17.07-2.83.21-5.67.69-8.42,1.16l-.37.06-2,.36-1.65.3c-.93.16-1.85.3-2.78.42-1.91.19-3.81.34-5.72.49-1.67.13-3.34.26-5,.41-2.14.2-4.31.34-6.42.48-1.54.09-3.08.19-4.61.31-3.68.29-7.48.58-11.28,1.21l-.36.06a27.76,27.76,0,0,0-4.76,1.07,5.12,5.12,0,0,0-1.84,1A7,7,0,0,0,900.2,16a17.75,17.75,0,0,0-1.33,3.09,33.59,33.59,0,0,0-1.26,5.31l-.1.54A109.54,109.54,0,0,0,896,37c-.1,1.34-.12,2.71-.15,4l0,1.55c0,1.79,0,3.59,0,5.5.07,1.5.23,3,.38,4.49l.11,1.13c.15,1.51.24,3.06.32,4.56l.05.8c.21,3.57.42,7.2.7,10.76.32,4,.6,7.66.81,11.3s.23,7.43.25,11.06v1.68c0,3.21,0,6.53.14,9.8s.32,6.74.63,10.47l.12,1.39c.11,1.37.23,2.8.39,4.19.22,1.92.37,3.65.47,5.27.24,3.75.28,7.56.31,11.26a97.16,97.16,0,0,1-.32,10c-.08.8-.16,1.61-.25,2.41-.11,1.07-.23,2.14-.32,3.21-.12,1.46-.22,3.06-.3,5a32.32,32.32,0,0,0,.28,6.49,25.52,25.52,0,0,0,1.75,5.53,26.23,26.23,0,0,1,1.15,4.11l.13.59.09.39c.13.59.26,1.21.44,1.8a10.24,10.24,0,0,0,.75,1.88,8,8,0,0,0,2,2.4,19.1,19.1,0,0,0,2.26,1.72,17.65,17.65,0,0,0,2.35,1.2,15.21,15.21,0,0,0,3.17,1,28.75,28.75,0,0,0,3.06.42l.86.09c.63.06,1.25.12,1.87.16,3.6.21,7.34.36,11.43.43l2.7,0c3.08,0,5.87-.1,8.53-.31,2.81-.22,5.64-.7,8.37-1.16l2.66-.44c2.28-.3,4.73-.6,7.22-.88a40.51,40.51,0,0,1,4.36-.24c1.07,0,2.15,0,3.2.14l1.75.29a31.88,31.88,0,0,0,5.52.65c.49,0,1,0,1.43-.07a22.92,22.92,0,0,0,4.31-1,30.65,30.65,0,0,1,3.36-.88,16.52,16.52,0,0,0,2.64-.47,6.92,6.92,0,0,0,3.22-2,9.18,9.18,0,0,0,1.79-3.82,21.45,21.45,0,0,0,.5-3.21l.06-.48c.1-1,.21-1.91.27-2.87a79.18,79.18,0,0,0,0-8.58c0-.89-.07-1.78-.09-2.67-.08-2.52-.25-5.08-.42-7.56l-.18-2.8a18,18,0,0,0-1.37-6.5,13.84,13.84,0,0,0-1-1.83,8.35,8.35,0,0,0-2.82-2.62,13.86,13.86,0,0,0-3.65-1.3,29.16,29.16,0,0,0-4-.61l-.36,0c-1-.1-2.09-.21-3.15-.26-2.54-.13-5.13-.21-7.63-.28-1.46,0-2.95-.15-4.38-.25-.79-.06-1.58-.12-2.37-.16l-.57,0c-1.92-.11-3.9-.22-5.84-.43a21.73,21.73,0,0,1-4-1.18,29.58,29.58,0,0,0-4-1.27c-.9-.22-1.83-.39-2.73-.55L943,129.2a23.43,23.43,0,0,1-3.94-1.08,8.93,8.93,0,0,1-.48-2c-.21-2-.39-4.08-.54-6.4-.09-1.44-.17-2.73-.17-4a28.64,28.64,0,0,0,3,.21h1c1.47,0,2.95,0,4.32-.09,1.64,0,3.27-.1,4.91-.12h.3a6.88,6.88,0,0,0,4.25-1,5.48,5.48,0,0,0,1.48-1.48,6,6,0,0,0,.58-1,13,13,0,0,0,1.06-3.79,25.7,25.7,0,0,0,0-5.19l-.05-.72c-.1-1.37-.24-2.73-.38-4.09l-.12-1.21c-.08-.8-.15-1.61-.23-2.41a13.42,13.42,0,0,0-1-4.68,5.23,5.23,0,0,0-2.42-2.47,6.39,6.39,0,0,0-2.78-.62,7.26,7.26,0,0,0-.93.06c-.69.08-1.38.21-2,.34l-1.13.2-2,.3a12.72,12.72,0,0,1-1.36.09h-.18c-.18-.1-.35-.21-.52-.32l-.33-.33a16.74,16.74,0,0,1-1-1.77,31.81,31.81,0,0,1-1.53-5.29,31.21,31.21,0,0,1,0-6h0a22,22,0,0,1,.58-3.14l.62-.33a34.6,34.6,0,0,1,5.53-1.31c2.45-.29,5-.45,7.37-.6,1.27-.08,2.54-.16,3.82-.26A58.14,58.14,0,0,0,966,67.42c1.56-.32,3.17-.66,4.78-.9l3.31-.45,1.61-.23c.9-.13,1.79-.28,2.69-.44.66-.11,1.32-.23,2-.33l1.55-.16c.77-.08,1.55-.15,2.32-.25a11.2,11.2,0,0,0,3.91-1,8.07,8.07,0,0,0,2.71-2.34,10.35,10.35,0,0,0,1.35-2.83,23.59,23.59,0,0,0,.93-4.79l0-.38c.11-.93.22-1.86.31-2.8.14-1.39.2-2.82.26-4.2l0-.38c.13-2.89.23-6,.11-9.07-.05-1.32-.21-2.64-.37-3.92l-.09-.71c-.21-1.75-.44-3.5-.69-5.24s-.51-3.71-.79-5.57a25.32,25.32,0,0,0-1.72-6.72,8.8,8.8,0,0,0-2.85-3.56,10.53,10.53,0,0,0-2.73-1.36c-.86-.3-1.71-.6-2.58-.86a17.61,17.61,0,0,0-3.25-.65c-.46-.06-.93-.09-1.4-.12s-1-.07-1.56-.14h-.38a5,5,0,0,0-1.21-.24l-1-.1c-1-.09-2-.2-3-.25s-2.32-.08-3.59-.08h-.39c-1.16,0-2.34,0-3.48-.1l-.22,0c-1.34-.06-2.54-.12-3.78-.12Z"/><path class="cls-1" d="M795.35,0h-.18A71.77,71.77,0,0,0,787,.46a45.27,45.27,0,0,0-8.55,2c-1.39.44-2.51.83-3.53,1.24a31.74,31.74,0,0,0-4.08,2l-.51.3c-.78.44-1.58.91-2.34,1.4a19.58,19.58,0,0,0-1.82,1.39,8.24,8.24,0,0,0-1.34,1.73l-.11.16c-.38.59-.77,1.23-1.23,2a3.64,3.64,0,0,0-1,2.38c-.27,12.71-.26,25.64-.25,38.14V74.66c0,3,0,6.2-.13,9.3-.28,6.72-.44,13.94-.52,23.4l0,2.54c-.06,6.73-.12,13.7.12,20.53.13,3.55.26,7.2.51,10.78.29,4,.46,7.5.53,10.77.08,3.65.14,7.52.17,11.85,0,1.94,0,3.7,0,5.36,0,1.07-.08,2.14-.14,3.21,0,.64-.07,1.28-.1,1.91l0,1.13c-.14,3.26-.28,6.64-.26,9.95,0,1.72.11,3.46.2,5.14l0,.61c.09,1.66.2,3.44.42,5.22l.07.57a13.85,13.85,0,0,0,.63,3.25,6.17,6.17,0,0,0,1.91,2.84,5.93,5.93,0,0,0,1.84,1,10.47,10.47,0,0,0,1.58.46,22.32,22.32,0,0,0,4.7.45c1,0,2,0,3.33-.14,4-.28,7.62-.46,11-.56,1.88-.06,4.08-.12,6.23-.12,1.68,0,3.19,0,4.62.11s2.82.12,4,.12a37.36,37.36,0,0,0,6.76-.55l1.14-.21c1-.19,2-.37,3.07-.52l.95-.1c.83-.09,1.68-.18,2.52-.33a4.74,4.74,0,0,0,2-1.16,6.67,6.67,0,0,0,1.15-1.5,11.62,11.62,0,0,0,.93-4.28l0-.18c.15-1.73.2-3.51.24-5.22l0-1.34,0-.56c0-1.49.08-3,.08-4.56,0-1.89-.11-3.77-.22-5.69-.09-1.55-.21-3.1-.33-4.64-.16-2-.32-4-.4-6-.16-4.1-.26-7.81-.3-11.36-.08-7.38-.09-14.89-.1-22.16,0-1,0-1.94,0-2.91,0-2.55,0-5.2-.11-7.79,0-.24,0-.48-.05-.72l.61,1.45a82.46,82.46,0,0,1,3.12,10,104.66,104.66,0,0,0,3.1,10.18c1.22,3.35,2.47,6.81,3.61,10.35,1.06,3.31,1.94,6.75,2.8,10.08l.05.18a182.66,182.66,0,0,1,3.68,21l0,.28c.14,1,.29,2,.45,2.95.12.74.24,1.48.35,2.22s.21,1.28.32,1.92l.08.43.11.61.11.61a7.55,7.55,0,0,0,.83,2.69,6,6,0,0,0,3.17,2.67,7,7,0,0,0,2.34.37,10.84,10.84,0,0,0,1.13-.06,30.07,30.07,0,0,0,3.24-.55c1.21-.28,2.4-.68,3.56-1.06l1-.32c1.52-.49,3-1,4.61-1.34,1.35-.31,2.7-.58,4-.8,1.87-.18,3.71-.22,5.11-.24h1.52c1.45,0,2.66,0,3.8.08s2.06.14,3.07.24l2,.17c1.83.13,3.44.21,4.94.25h1.43a5.9,5.9,0,0,0,1.85-.34,5.31,5.31,0,0,0,1.81-1.13l.21-.27a4.33,4.33,0,0,0,.81-1.22,11.21,11.21,0,0,0,.67-1.69l.1-.29a12.19,12.19,0,0,0,.49-1.85,22.78,22.78,0,0,0,.37-5.82,62.13,62.13,0,0,0-1.65-8.8c-.14-.61-.29-1.22-.43-1.83a90.11,90.11,0,0,0-3-10.06c-1-2.89-1.76-5.94-2.48-8.88l-.33-1.37c-.46-1.85-.85-3.75-1.22-5.58-.33-1.57-.66-3.2-1-4.8l-.48-2.05c-.63-2.69-1.28-5.46-2-8.16-.91-3.28-2-6.45-3.12-10-1.06-3.19-2.24-6.49-3.61-10.08-1.18-3.08-2.6-6.39-4.46-10.44-.66-1.44-1.44-3.12-2.25-4.75a28,28,0,0,0-3.23-4.76c-.32-.4-.65-.78-1-1.16.29-.45.6-.91.93-1.36a22,22,0,0,0,2-3.15,39.09,39.09,0,0,0,2.77-8.6,92.34,92.34,0,0,0,1.9-11.13,64,64,0,0,0,.46-11.27c-.14-2.11-.42-4.2-.68-6a22.9,22.9,0,0,0-1.11-4.92,49,49,0,0,0-2.67-5.56c-.86-1.55-1.77-3.05-2.71-4.59l-.1-.15c-.84-1.37-1.7-2.79-2.65-4.11-1.09-1.51-2.33-3.06-3.79-4.72-.51-.58-1-1.14-1.53-1.71-.73-.82-1.46-1.63-2.17-2.46s-1.33-1.56-2-2.35c-.44-.52-.88-1.05-1.33-1.57s-.75-.87-1.15-1.29a9.51,9.51,0,0,0-1.12-1l-.35-.27c-.78-.64-1.63-1.22-2.45-1.78l-.1-.07-3-2.06L838,10.46a41.07,41.07,0,0,0-4.55-2.85A37.86,37.86,0,0,0,828,5.43l-1.84-.6c-1.09-.35-2.17-.7-3.24-1.09l-.13,0a35.67,35.67,0,0,0-4.74-1.46C814.39,1.49,810.61,1.1,807,.72l-1-.11C804.27.43,802.47.3,800.45.2l-.65,0c-1.45-.08-3-.16-4.45-.16Zm8.35,66.58c0-.53,0-1.06,0-1.59,0-1.74,0-3.49-.05-5.23,0-3.29-.07-6.57-.12-9.86l.32-.17a3.17,3.17,0,0,1,.44-.12c.44,0,.88,0,1.32,0,.71,0,1.47,0,2.32.12s1.71.33,2.63.56l.29.07c.81.2,1.64.41,2.44.69a8,8,0,0,1,.8.47,10,10,0,0,1,.24,1,20.65,20.65,0,0,1-.08,3.38,24.49,24.49,0,0,1-.84,3.47,13.09,13.09,0,0,1-1.09,1.8q-.3.34-.63.66c-.73.48-1.52.92-2.28,1.35s-1.43.8-2.13,1.25l-.62.41c-.95.62-1.93,1.27-2.95,1.81Z"/><path class="cls-1" d="M667.05,20.6a19.2,19.2,0,0,0-3.37.37,2.8,2.8,0,0,0-.52.16l-.77-.05c-2.51-.13-4.56-.19-6.45-.19s-3.33.05-4.87.15a24.84,24.84,0,0,0-8,1.93c-2.16.91-4.25,1.94-6.38,3a37.56,37.56,0,0,0-3.89,2.35l-.93.61c-1.62,1-3.23,2.21-4.94,3.56-1.33,1.06-2.59,2.19-3.75,3.26a50.06,50.06,0,0,0-3.78,3.92,67.22,67.22,0,0,0-5.1,6.47,64.85,64.85,0,0,0-3.68,6.26l-.74,1.37c-1.72,3.13-3.39,6.38-5,9.64l-.06.13a50.26,50.26,0,0,0-2.35,5.36A41,41,0,0,0,601,74.49a56,56,0,0,0-.91,11.29c0,3.87.12,7.73.29,11.48q.17,3.66.28,7.32c.18,5,.36,10.19.75,15.27.3,3.9.6,7.94,1.21,12,.63,4.21,1.32,7.86,2.11,11.16a90.76,90.76,0,0,0,3.14,10.92c.24.63.49,1.26.74,1.89l.16.43.28.7c.31.79.63,1.61,1,2.37.86,1.75,1.79,3.48,2.76,5.12a21.22,21.22,0,0,0,2.08,2.83l.65.79c.52.66,1.07,1.31,1.62,1.95l2.17,2.48c.57.64,1.14,1.28,1.7,1.93l.47.54c1,1.12,2,2.28,3.06,3.34,1.32,1.31,2.75,2.55,4.13,3.74l.18.15a65,65,0,0,0,8.82,6.76,21,21,0,0,0,4,1.89c.74.26,1.53.47,2.28.67l.57.15c1.22.33,2.48.56,3.7.78l1.24.23c4,.77,8,1.68,11.92,2.57,1.6.36,3.2.73,4.8,1.08l2,.45c2,.47,4.15,1,6.26,1.26,1.74.26,3.52.46,5.24.66l2.93.34,1.19.18c3.21.49,6.52,1,9.83,1.2.84,0,2,.1,3.09.1a24.58,24.58,0,0,0,3.24-.19,24.84,24.84,0,0,0,7.14-2.11l.83-.38c.52-.24,1-.47,1.56-.73a70.8,70.8,0,0,0,9.54-5.5c3.25-2.32,5.42-5.52,7.72-9.16a79.11,79.11,0,0,0,5.15-9.27c1.88-4.07,3.3-7.4,4.47-10.48a90.34,90.34,0,0,0,3.33-10.46,87.95,87.95,0,0,0,2.67-21l0-.9c0-1.79.09-3.71,0-5.61a36,36,0,0,0-.73-5.94,29.49,29.49,0,0,0-1.36-5,41.37,41.37,0,0,0-2.51-5.14,56.48,56.48,0,0,0-6.23-8.92,29.91,29.91,0,0,0-3.7-3.51c-1.43-1.16-3-2.34-4.69-3.62a63.94,63.94,0,0,0-9-5.47,20.53,20.53,0,0,0-5.07-2c-1.14-.26-2.17-.46-3.15-.63-1.83-.31-3.78-.54-6-.72-2.67-.22-5.18-.33-7.66-.33-1.06,0-2.11,0-3.17.06l-3.25.1c-2.49.07-5.07.14-7.6.35l-.42,0c-1.47.13-3,.26-4.5.26h-.35c-.93,0-1.87,0-2.8-.1l-2-.08H668a13.23,13.23,0,0,0-2.55.33c-.42.09-.84.2-1.26.31s-.53.15-.8.21c-.66.16-1.31.34-2,.53-.43.13-.85.26-1.28.41a7.39,7.39,0,0,0-3.67,2.65,9.81,9.81,0,0,0-1.33,3.28,19,19,0,0,0-.38,2.24l0,.42-.06.42c-.11.84-.23,1.69-.31,2.53-.22,2.27-.37,4.18-.47,6a107.14,107.14,0,0,0-.11,11.06,39.78,39.78,0,0,0,.66,4.93l.11.67c.06.36.12.72.17,1.08s.14,1,.23,1.42a13.78,13.78,0,0,0,.88,2.88c1.44,3.34,5.46,3.83,8.68,4.23l.42.05c1.73.21,3.51.3,5.22.38h.17c2,.09,3.72.14,5.28.14s2.91-.07,4.32-.15l.92,0L682,130c1.43-.08,2.91-.16,4.37-.16,1,0,1.95,0,2.83.12a12.5,12.5,0,0,1,1.74.45,15.2,15.2,0,0,1,2,1.17,17.87,17.87,0,0,1,2.31,2.36,24.48,24.48,0,0,1,1.59,2.51q.08.22.15.48c0,.09-.05.18-.09.28a12.35,12.35,0,0,1-.89,1.49,6.25,6.25,0,0,1-.57.58c-.56.37-1.15.71-1.73,1-.29.16-.58.32-.86.49-1.13.65-2.09,1.17-3,1.62l-2.35,1.15c-1.25.61-2.5,1.22-3.76,1.8a31.49,31.49,0,0,1-5.87,1.74,18.09,18.09,0,0,1-1.93.1c-.41,0-.82,0-1.23,0a17.31,17.31,0,0,1-3-.84,41.89,41.89,0,0,1-6.8-4,46.21,46.21,0,0,1-5.8-6.16c-1.75-2.09-3.55-4.3-5.68-7a33.48,33.48,0,0,1-3.28-6.09c-.36-.9-.74-1.86-1.07-2.83a20.3,20.3,0,0,1-.71-3.18l0-.15a45.46,45.46,0,0,1,.31-10.36,50,50,0,0,1,1.67-7.32c.76-2.49,1.47-4.72,2.34-6.88a30.28,30.28,0,0,1,2.86-5.46,36.91,36.91,0,0,1,3.68-3.54c1.38-1.21,2.8-2.36,4.25-3.52a14.08,14.08,0,0,1,2.17-1.37c.85-.43,1.71-.82,2.57-1.2l.11,0c1.48-.61,3-1.24,4.55-1.76a33.19,33.19,0,0,1,4.6-1l1.14-.2,2.35-.44c2.69-.5,5.46-1,8.21-1.43,1.14-.13,2.08-.21,2.95-.23h.46a26,26,0,0,1,2.64.14A33,33,0,0,1,701.58,74a21.78,21.78,0,0,1,3.48,2.08c1,.76,1.92,1.61,3,2.6s2.49,2.14,4,2.14a2.61,2.61,0,0,0,.4,0l.47-.06.46-.06c.39-.15.78-.32,1.15-.5A4.66,4.66,0,0,0,715.88,79a10.66,10.66,0,0,0,1.56-2.57c1.25-2.78,2.25-5.7,3.22-8.53l.55-1.61c.76-2.16,1.47-4.38,2.16-6.53.4-1.25.8-2.5,1.21-3.75a38.25,38.25,0,0,0,1.13-4.79l.09-.48.09-.45a22.55,22.55,0,0,0,.61-5.36,16.73,16.73,0,0,0-.39-3.12,12.86,12.86,0,0,0-.53-1.71,12.48,12.48,0,0,0-.92-1.94,11.15,11.15,0,0,0-1.7-2.07,10.59,10.59,0,0,0-1.42-1.17l-.49-.36-.73-.52-.26-.17a19.66,19.66,0,0,0-3.73-1.95,17.41,17.41,0,0,0-2.57-.76c-1-.24-2-.45-2.94-.65l-4.85-1c-1-.21-2-.47-3-.73l-2.18-.55c-.91-.21-1.82-.39-2.73-.58s-1.65-.34-2.47-.53c-1.46-.33-3.19-.7-5-1-1.51-.26-3.3-.59-5.06-1.05l-2.83-.78c-.84-.23-1.69-.47-2.54-.69-1.57-.42-3.14-.84-4.7-1.3l-.26-.07c-1.49-.44-3-.89-4.57-1.2a18.8,18.8,0,0,0-3.46-.42Z"/><path class="cls-1" d="M1087.76,13.91c-.54,0-1.07,0-1.61,0a78.94,78.94,0,0,0-21.81,3.27,36,36,0,0,0-5.44,2.24,22.75,22.75,0,0,0-4.86,3.23c-1.74,1.57-3.38,3.3-5,5-.72.77-1.45,1.54-2.18,2.29l-.3.3c-1,1.06-2.09,2.15-3.07,3.29l-1,1.19c-.83,1-1.65,1.93-2.47,2.91-1.27,1.51-2.53,3.1-3.76,4.72a36.59,36.59,0,0,0-2.25,3.55l-.47.8c-.79,1.35-1.58,2.69-2.34,4.05s-1.51,2.89-2.32,4.74c-1.37,3.15-2.7,6.53-4.17,10.62-1.25,3.47-2.34,6.91-3.26,10.24a66.44,66.44,0,0,0-1.66,9.46l-.23,1.77c-.15,1.18-.29,2.37-.43,3.56-.07.64-.14,1.28-.22,1.93l0,.26c-.19,1.64-.39,3.34-.52,5-.28,3.86-.38,7.69-.45,11.29v.28c0,1.77-.07,3.61,0,5.41.12,2,.29,3.87.53,5.68a105.8,105.8,0,0,0,1.94,10.61,55.23,55.23,0,0,0,1.61,5.3q.81,2.4,1.66,4.79c.22.58.42,1.17.63,1.76.37,1.06.74,2.12,1.15,3.16.71,1.81,1.49,3.71,2.4,5.78.75,1.73,1.43,3.28,2.21,4.81.68,1.36,1.48,2.69,2.25,4l.08.12a32,32,0,0,0,3.47,4.58c1.15,1.31,2.28,2.59,3.44,3.84s2.23,2.5,3.29,3.74c.48.56.93,1.13,1.38,1.7.64.8,1.29,1.63,2,2.4a25.6,25.6,0,0,0,4.6,3.69c1.42.94,2.88,1.82,4.36,2.61.94.5,1.93.95,2.89,1.38l1.35.62c.93.44,1.84.9,2.75,1.36l2.07,1a28,28,0,0,0,6,1.94l.15,0c1.45.33,2.94.67,4.45.86a19.74,19.74,0,0,0,2.47.15,29,29,0,0,0,4.36-.36,26.44,26.44,0,0,0,4.63-1.27l.58-.2c1.43-.48,2.89-.91,4.32-1.32l.5-.15a103.77,103.77,0,0,0,9.83-3.56l2.15-.84c.83-.32,1.66-.63,2.47-1l.41-.16a9.37,9.37,0,0,0,.87-.36l.24-.1a3.36,3.36,0,0,0,.78-.34l.6-.25.37-.16.12-.05c.78-.34,1.59-.68,2.36-1.08s1.45-.79,2.17-1.2c.4-.23.8-.46,1.21-.68a32.66,32.66,0,0,1,3-1.45l1.24-.5a36.38,36.38,0,0,0,8.34-4.12,44.41,44.41,0,0,0,6.7-6.51l1-1.15c.58-.64,1.18-1.27,1.79-1.9,2.39-2.48,4.86-5.05,5.86-8.47.26-.88.49-1.75.69-2.63a25.94,25.94,0,0,0,.43-2.76l.09-.77c.23-1.78.44-3.56.64-5.33.44-3.82.53-7.62.6-11s.11-6.8.11-11.2a105.08,105.08,0,0,0-.6-10.76,62.17,62.17,0,0,0-1.81-11.11c-.39-1.34-.92-2.65-1.43-3.93l-.24-.59c-.63-1.54-1.39-3.35-2.31-5.11a21.16,21.16,0,0,0-3.27-4.64,17.65,17.65,0,0,0-2.18-1.86,21.45,21.45,0,0,0-2.32-1.56,32.26,32.26,0,0,0-5.12-2.15l-.4-.14-1.09-.38c-1.32-.47-2.64-.94-4-1.37a41.35,41.35,0,0,0-5.33-1.46,28.12,28.12,0,0,0-5.19-.57l-.79,0c-1.46.07-2.94.26-4.37.44l-1.1.14-2.6.31c-.87.09-1.73.19-2.6.3-1.77.22-3.54.41-5.31.6s-3.54.39-5.31.61c-4.07.51-8.71,1.29-12.25,4.12a19.06,19.06,0,0,0-3.46,3.78c-.46.66-.86,1.29-1.23,2a11.57,11.57,0,0,0-1.4,3.61,10.3,10.3,0,0,0-.1,2.53c0,.61.15,1.23.24,1.83l0,.23c.13.83.31,1.62.52,2.5s.48,1.83.73,2.71.44,1.5.63,2.25c.55,2.21,1,4.47,1.44,6.66.23,1.18.47,2.37.72,3.55a38,38,0,0,0,1.4,4.92,27.58,27.58,0,0,0,1.15,2.65c.09.18.18.37.26.56a7.87,7.87,0,0,0,1.35,2.23,5.36,5.36,0,0,0,2.52,1.48,4.53,4.53,0,0,0,1.32.18,12.71,12.71,0,0,0,2.05-.23,8.45,8.45,0,0,0,1.84-.61l.56-.23.23-.09c.67-.27,1.37-.54,2.08-.75a19.56,19.56,0,0,1,2.22-.48l.19,0c1.07-.19,2.13-.39,3.2-.6,1.55-.3,3.16-.61,4.76-.86q.35,0,.69,0h.31l.48.12.34.35.09.14h0a12.41,12.41,0,0,1,.47,1.91,15.84,15.84,0,0,1,0,2.39A18.35,18.35,0,0,1,1101,128c-.14.27-.28.53-.43.79a12,12,0,0,1-1.08,1,17.89,17.89,0,0,1-2.38,1.5,25,25,0,0,1-3.3.75c-.5.1-1,.19-1.51.3l-.25.05c-1.41.3-2.86.61-4.29.84-1.67.18-3.14.29-4.51.32h-.51a34.14,34.14,0,0,1-3.76-.24,30.28,30.28,0,0,1-5.08-1.3,28.17,28.17,0,0,1-4.61-2.58,15.75,15.75,0,0,1-1.65-1.61,17.38,17.38,0,0,1-1.36-2.4,40.19,40.19,0,0,1-1.71-6.45c-.39-2-.76-4.17-1.08-6.39-.28-2.55-.46-5.2-.57-8.1a58.28,58.28,0,0,1,.41-7.92,27.1,27.1,0,0,1,1.08-4.67,26.75,26.75,0,0,1,2.94-4.6,53.94,53.94,0,0,1,7.55-7.56,31.12,31.12,0,0,1,5.22-2.94,52.05,52.05,0,0,1,5.34-1.59c1.7-.43,3.3-.76,4.88-1l3.18-.31c2.37-.23,4.82-.46,7.22-.76a63.2,63.2,0,0,0,10.81-2c.77-.24,1.54-.5,2.31-.76.61-.22,1.19-.47,1.68-.68a9,9,0,0,0,2.09-1.42c1.73-1.43,2.12-3.81,2.46-5.91.06-.37.12-.73.19-1.08.38-2.1.66-4,.84-5.9.15-1.66.23-3.36.31-5V50c.07-1.58.19-3.16.3-4.78,0-.49.07-1,.11-1.48.07-1.14.15-2.31.27-3.46l.15-1.28a51.09,51.09,0,0,0,.52-8.21c0-.93-.14-1.88-.27-2.81a10.87,10.87,0,0,0-1.2-3.56,12.45,12.45,0,0,0-1.6-2.21,11.38,11.38,0,0,0-1.48-1.47,20.34,20.34,0,0,0-2.51-1.81,20,20,0,0,0-1.81-.87l-.13-.06c-1.26-.55-2.55-1-3.76-1.38a3.28,3.28,0,0,0-.92-.41,55.38,55.38,0,0,0-11.65-2c-1.82-.1-3.77-.17-6-.21l-.67,0c-1,0-2,0-3,0Z"/><path class="cls-1" d="M1226.81,6.76a5,5,0,0,0-1.08.12c-1.51.31-3,.58-4.41.82-.74.1-1.47.19-2.21.27a16.19,16.19,0,0,1-1.95.09h-1.09c-1.39,0-2.78-.05-4.17-.1L1210,7.89c-2.94-.08-6.07-.16-9.16-.16-.89,0-1.78,0-2.67,0a57.11,57.11,0,0,0-5.81.48,31.71,31.71,0,0,0-3.38.55,15.27,15.27,0,0,0-2.89,1.08,14.67,14.67,0,0,0-2.92,2c-1.33,1.08-2.62,2.28-3.86,3.43l-.59.56-.13.11a32.16,32.16,0,0,0-3.88,4,41.38,41.38,0,0,0-3.63,5.59l-.61,1.14c-.74,1.38-1.5,2.8-2.18,4.23a66.48,66.48,0,0,0-4.18,12.19c-.51,2-1,4-1.44,6.18-.38,1.74-.64,3.54-.89,5.29l-.17,1.16a114.24,114.24,0,0,0-1,12.87c-.17,5.25-.24,9.27-.21,13a52.27,52.27,0,0,0,.48,6.63,27.3,27.3,0,0,0,1.27,5.64,45.32,45.32,0,0,0,2.88,6.39,26.85,26.85,0,0,0,1.48,2.36c.39.55.78,1.09,1.19,1.62a15.76,15.76,0,0,0,3.08,2.86,14.58,14.58,0,0,0,3.27,1.66,22,22,0,0,0,3,.9c.75.18,1.54.29,2.3.4l.55.08a27,27,0,0,0,3.74.35,28.09,28.09,0,0,0,6-.64,35.12,35.12,0,0,0,3.91-1.16l.77-.27c1.43-.48,2.86-1,4.25-1.57l.72-.27a22.21,22.21,0,0,1,4.31-1.14,29.52,29.52,0,0,1,3.4-.2c.59,0,1.19,0,1.79.06a23.39,23.39,0,0,1,4.41,1.32,28.93,28.93,0,0,1,4.39,2.5,27.44,27.44,0,0,1,2.88,3.21,15.62,15.62,0,0,1,1.24,2.06,9.78,9.78,0,0,1,.34,1.32,35.1,35.1,0,0,1-.08,4.95c0,.6-.07,1.2-.1,1.8-.06,1.1-.12,2.2-.22,3.3a14,14,0,0,1-.52,2.14l-.17.31a13.37,13.37,0,0,1-1.17,1.21,16.6,16.6,0,0,1-2,1.26,19.69,19.69,0,0,1-3.28.8,33.6,33.6,0,0,1-3.64.19c-1.15,0-2.35-.05-3.55-.17-2.63-.25-5.36-.5-8.15-.62-5-.21-10.43-.49-15.8-1.13-1.84-.31-3.48-.66-5-1.06-.75-.2-1.5-.4-2.26-.57a8.6,8.6,0,0,0-2-.25,6.57,6.57,0,0,0-1.88.27,6.1,6.1,0,0,0-3.7,3.25,16.51,16.51,0,0,0-1.31,5.52l-.06.48c-.13,1.07-.2,2.16-.27,3.21s-.13,2.32-.18,3.48c0,.83-.07,1.67-.12,2.51l-.18,2.86q-.14,1.86-.24,3.72c-.1,1.83-.16,3.66-.22,5.49l0,.86,0,.44c-.06,1.81-.13,3.68-.06,5.52a63.23,63.23,0,0,0,.63,6.8,26.26,26.26,0,0,0,1.57,5.87l.06.15c1,2.46,2.07,5.24,4,7.15a15.12,15.12,0,0,0,6.17,3.35c1,.33,2,.59,2.88.81a43.8,43.8,0,0,0,6.49,1c3.76.31,7.85.5,12.5.58l2.51,0a41.25,41.25,0,0,0,10.38-1.09c1.08-.28,2.16-.6,3.23-.92l2.41-.7c2-.55,4-1.07,6-1.58,1.67-.42,3.62-.91,5.53-1.48,1.67-.5,3.33-1.12,4.94-1.71l.81-.3.55-.21c1.5-.55,3.06-1.12,4.57-1.74,1-.39,1.93-.84,2.86-1.28l.39-.18a20,20,0,0,0,3.75-2.51l.68-.54.35-.27a42.9,42.9,0,0,0,4.68-4c1.55-1.59,2.93-3.11,4.22-4.65a67.11,67.11,0,0,0,7.19-10.52,104.83,104.83,0,0,0,5.41-11.82c.28-.69.52-1.4.77-2.11l.24-.69a29.84,29.84,0,0,0,1.41-6.27c.24-1.92.5-4,.65-6.05.19-2.43.27-4.44.26-6.33a41,41,0,0,0-.73-6.81,59.77,59.77,0,0,0-3.82-12,59.63,59.63,0,0,0-5.17-9.91c-.84-1.27-1.8-2.5-2.72-3.7l-1-1.26a35.66,35.66,0,0,0-3.67-4.32,29.66,29.66,0,0,0-5-4,27.51,27.51,0,0,0-5.09-2.24l-.72-.25c-.88-.32-1.75-.66-2.62-1l-2.25-.86c-.61-.23-1.23-.44-1.85-.65-.94-.32-1.92-.66-2.86-1-1.74-.85-3.44-1.77-5-2.63-1.21-.66-2.47-1.24-3.7-1.8l-1.66-.77c-1.61-.76-3.2-1.6-4.74-2.4l-.45-.24c-.5-.26-1-.5-1.52-.74s-.89-.42-1.34-.65a17.52,17.52,0,0,1-2.21-1.35,18.45,18.45,0,0,1-1.88-2c-.15-.24-.3-.48-.43-.74s-.2-.68-.28-1a11.91,11.91,0,0,1,0-1.33,25.7,25.7,0,0,1,.91-3.63,19.13,19.13,0,0,1,1.11-2,17.43,17.43,0,0,1,1.61-1.72c.17-.11.34-.22.52-.32a17.22,17.22,0,0,1,2.89-.74c2.54-.33,5-.52,7.36-.59l1.32,0a64.13,64.13,0,0,1,6.63.38,27.91,27.91,0,0,1,6,1.5,13.54,13.54,0,0,1,2,1.16,15.29,15.29,0,0,1,1.54,1.64c.42.61.83,1.24,1.23,1.87s.92,1.42,1.41,2.12l.42.64a8,8,0,0,0,1,1.32,4.58,4.58,0,0,0,3.16,1.32,3.14,3.14,0,0,0,1.87-.57,10.14,10.14,0,0,0,1.51-1.28,9.4,9.4,0,0,0,1.21-1.88,11.76,11.76,0,0,0,.48-1.08c.08-.17.15-.34.22-.51.61-1.4,1.25-2.8,1.89-4.19,1.12-2.46,2.29-5,3.28-7.59.74-1.93,1.33-3.94,1.87-5.84a36.59,36.59,0,0,0,1.18-6.91,23.77,23.77,0,0,0-.47-7.58,17.46,17.46,0,0,0-1.26-3.42,20.07,20.07,0,0,0-1.52-2.62,20.41,20.41,0,0,0-3.43-3.94c-1.53-1.34-3-2.56-4.51-3.63a15.15,15.15,0,0,0-2.21-1.26,20.38,20.38,0,0,0-3.2-1.35,31.89,31.89,0,0,0-6-1c-2-.2-4-.25-5.91-.31-1.33,0-2.67-.07-4-.15-.93-.06-1.86-.15-2.78-.24l-.9-.08a3.77,3.77,0,0,0-1-.88,3.49,3.49,0,0,0-1.9-.53Z"/></g></g></svg>