<svg xmlns="http://www.w3.org/2000/svg" viewBox="0 0 1139.16 205.93"><defs><style>.cls-1{fill:#fff;}</style></defs><g id="Layer_2" data-name="Layer 2"><g id="Draw_Layer" data-name="Draw Layer"><path class="cls-1" d="M1025,0h-.52a35.07,35.07,0,0,0-4.85.49,29.9,29.9,0,0,0-4.14,1,26.74,26.74,0,0,0-2.6,1A20.89,20.89,0,0,0,1009,4.78c-1.08.79-2.11,1.6-3.06,2.42a34.81,34.81,0,0,0-3.24,3.05c-.66.74-1.53,1.72-2.31,2.76-.35.46-.7.91-1.06,1.36a14.24,14.24,0,0,0-2.07,3.54c-.22.52-.42,1-.63,1.56s-.37.93-.56,1.39a2.46,2.46,0,0,0-1.84,1.59c-.41,1.51-.81,3.13-1.28,5.09l-.3,1.27-.3,1.27-.1.37c-.06.24-.12.49-.17.74-.12.72-.25,1.43-.38,2.14-.34,1.87-.68,3.79-.91,5.7l-.19,1.6-.36,3c-.1.91-.17,1.83-.23,2.72,0,.42,0,.85-.09,1.27-.08,1-.12,2-.16,3.14l-.06,1.17c0,.85-.08,1.73-.06,2.59.08,5.09.23,10.33.46,16,.13,3.15.34,6.34.55,9.43.13,1.79.25,3.58.35,5.37q.24,4,.43,8l.08,1.59c.08,1.83.17,3.72.33,5.58.19,2.09.35,4.17.52,6.26.23,3,.48,6.09.78,9.13.27,2.71.52,5.41.77,8.12.16,1.76.38,3.55.59,5.29.09.74.18,1.48.26,2.23.26,2.18.43,4.41.6,6.57l.07,1c.19,2.43.42,4.9.68,7.35s.49,4.86.77,7.89c.14,1.58.33,3.18.52,4.73.11.95.23,1.91.33,2.86.24,2.2.46,4.53.65,7.14.23,3.06.47,5.42.76,7.65l.11.85c.27,2.07.55,4.2.7,6.31,0,.46,0,.92.08,1.38,0,.9.1,1.84.2,2.76a7.1,7.1,0,0,0,.68,2.51,7,7,0,0,0,1.73,2,9.92,9.92,0,0,0,2.4,1.36,28.41,28.41,0,0,0,3.34,1.11,31.55,31.55,0,0,0,7.23,1l1.34,0c1,0,2,0,3.25-.11,2.43-.14,4.88-.45,7.25-.75l2.19-.28c1.65-.16,3-.25,4.23-.3l1.93,0h.27a19.88,19.88,0,0,0,2.74-.22,6.68,6.68,0,0,0,3-1.37,6.24,6.24,0,0,0,.89-.89l.13-.14a9.44,9.44,0,0,0,.74-.94,16.57,16.57,0,0,0,1.22-2.22l.06-.13a21.5,21.5,0,0,0,1.83-5,25.09,25.09,0,0,0,.15-7.13l0-.23-.1-1.27c-.34-4.56-.7-9.27-.93-13.92-.23-4.81-.29-9.58-.34-14.87,0-1.52,0-3,0-4.55,0-3.74,0-7.6-.16-11.4-.06-1.88-.18-3.78-.3-5.62l-.13-2.06c-.15-2.48-.27-5-.39-7.43-.26-5.88-.41-10.65-.47-15v-.93c.17.41.36.81.53,1.22.32.73.62,1.47.92,2.2.19.45.37.89.55,1.34.49,1.17,1,2.3,1.52,3.35l.28.58c.53,1.06,1.07,2.17,1.69,3.21,1.23,2,2.65,4.17,4.36,6.55,1.15,1.61,2.27,3.23,3.4,4.85l1.17,1.7c2.55,3.66,4.79,7.54,7,11.29l1.08,1.86c1.34,2.3,2.73,4.69,4.19,7,.92,1.45,1.87,2.88,2.81,4.31.47.7.93,1.4,1.39,2.1,2.73,4.16,5.7,8.21,8.75,12.33l1.36,1.82c1,1.3,2,2.64,2.92,4l.3.45a62.2,62.2,0,0,1,3.51,5.53,31.2,31.2,0,0,1,1.16,3.1l.06.19a13.3,13.3,0,0,0,2.31,4.92,9.36,9.36,0,0,0,1.1,1.07,10.26,10.26,0,0,0,.94.63l.34.21a11.17,11.17,0,0,0,2.4,1l.14.05a27.75,27.75,0,0,0,4.85,1.21c1.48.23,3.24.5,5.06.69,5.7.62,11.33.81,18,.91h.45l1.35,0h1.29a21.6,21.6,0,0,0,2.82-.23,5.55,5.55,0,0,0,4.21-2.93,7.91,7.91,0,0,0,.8-2.21,10.74,10.74,0,0,0,.14-2.79,28.49,28.49,0,0,0-2.38-8.75c-.91-2.28-2-4.69-3.52-7.59-1.12-2.18-2.33-4.4-3.6-6.61l-.84-1.48c-1-1.73-2-3.53-3.1-5.26-1.42-2.27-2.91-4.53-4.56-6.91-.75-1.08-1.51-2.16-2.27-3.23s-1.53-2.14-2.28-3.22-1.42-2-2.13-3-1.55-2.18-2.31-3.28c-1.2-1.74-2.46-3.48-3.68-5.16s-2.56-3.55-3.8-5.35c-1.06-1.54-2.13-3.19-3.36-5.2-1.13-1.86-2.13-3.6-3-5.31l-1.61-3.41-1.6-3.41c-.52-1.12-1.1-2.24-1.66-3.32l-.37-.71c-.53-1-1.12-2-1.76-3-1.06-1.64-2.25-3.26-3.41-4.83l-1-1.36c-.88-1.2-1.67-2.47-2.44-3.7-.53-.86-1.07-1.71-1.63-2.55a39.93,39.93,0,0,0-2.93-3.67l-1.16-1.4-.44-.55c-.27-.32-.54-.65-.8-1l.19-.07.88-.34c.65-.27,1.3-.56,2-.88a29.9,29.9,0,0,0,4-2.41,12.24,12.24,0,0,0,1.27-1l.18-.15c.59-.49,1.15-1,1.71-1.49a27.34,27.34,0,0,0,2.84-3,32.93,32.93,0,0,0,2.31-3.34c.23-.36.42-.74.62-1.11.1-.2.2-.4.31-.59.27-.5.52-1,.76-1.53l.33-.66.2-.41c.46-.92.93-1.88,1.35-2.83.25-.58.5-1.15.72-1.73s.42-1.25.61-1.93a29.72,29.72,0,0,0,.7-3.42l.16-.93c.18-1.07.36-2.16.46-3.25a32.41,32.41,0,0,0,.17-4.58,17,17,0,0,0-2.24-7.17l-.09-.17c-.27-.49-.54-1-.86-1.48s-.81-1.18-1.21-1.71a13.36,13.36,0,0,0-1.17-1.34l-.3-.33c-.53-.56-1.06-1.11-1.61-1.66a31.22,31.22,0,0,0-2.79-2.5c-1.16-.89-2.34-1.76-3.52-2.62-2.4-1.77-4.43-3.19-6.41-4.47-.86-.55-1.7-1.12-2.54-1.68-1.52-1-3.08-2.08-4.7-3-1.13-.67-2.34-1.35-3.69-2.08-.69-.37-1.37-.73-2.07-1.08-.5-.26-1-.48-1.53-.71l-.48-.21a75.78,75.78,0,0,0-8.47-3l-.32-.1c-2.51-.77-5.12-1.42-7.63-2.06l-.89-.22c-2.59-.65-5.25-1.25-7.81-1.83l-.82-.18-1.52-.35c-2.34-.53-4.75-1.09-7.2-1.44A30.41,30.41,0,0,0,1025,0Zm11.64,63c-1.06,0-2.16-.06-3.35-.15a12.21,12.21,0,0,1-1.88-.39,6.43,6.43,0,0,1-.83-.39l-.18-.15-.08-.12c-.06-.15-.1-.3-.15-.46a21.57,21.57,0,0,1,0-3.77l0-.72c.09-1.41.2-2.83.31-4.24.26-3.33.62-6.72,1-10a1.82,1.82,0,0,0-.45-1.27l1,.07a2.94,2.94,0,0,0,1,.32,2.05,2.05,0,0,0,.25,1.82,4.56,4.56,0,0,0,2.85,1.54l.23.07.84.25c.35.15.69.3,1,.47l.58.26c.27.12.55.25.8.39.64.34,1.26.72,1.86,1.09l.2.12a18.35,18.35,0,0,1,2.45,2.09c.32.35.62.71.91,1.09a10.71,10.71,0,0,1,.9,1.43l0,.06a18.3,18.3,0,0,1,.78,1.86,18,18,0,0,1,.59,2.28,21.72,21.72,0,0,1,.09,3l0,.41-.12.1a25.53,25.53,0,0,1-3.91,2,23.67,23.67,0,0,1-3.9.79c-.82.06-1.77.13-2.7.13Zm-12.11-4.19c-.11-.18-.21-.36-.31-.54-.31-.68-.59-1.35-.86-2.07a22.51,22.51,0,0,1,0-3c.11-1.81.27-3.47.5-5.1a19.39,19.39,0,0,1,1.3-4.53,7.88,7.88,0,0,1,.77-1.12l.1-.09a1.07,1.07,0,0,0-.06.3c-.56,5.24-1.14,10.65-1.39,16.1v.09Zm16.38,8.73c-.35,0-.7,0-1,0a27.72,27.72,0,0,0,4.21-.65c.23,0,.47-.12.7-.19q-.45.21-.93.39a12.86,12.86,0,0,1-1.93.45c-.34,0-.67,0-1,0Z"/><path class="cls-1" d="M883.41,0H883c-4.3,0-8.66.2-12.88.39-2.44.11-5,.22-7.44.29-2.69.08-5.37.14-8,.2l-2.5.05c-2,0-4.05.23-6,.41-1.19.11-2.38.22-3.57.3l-1.79.1c-1,.05-2,.11-3,.2-1.74.15-3.61.37-5.72.66a14.36,14.36,0,0,0-4.5,1.1c-2,1-2.9,2.85-3.59,4.73a29.51,29.51,0,0,0-1.16,4.46,39.57,39.57,0,0,0-.55,8.07,76.76,76.76,0,0,0,.39,8.06c.16,1.41.32,2.81.5,4.21.15,1.23.4,2.47.64,3.66l.1.5c.16.78.3,1.57.45,2.36l.08.46v1.18c0,2.55.14,5.13.31,7.63l0,.42c.18,2.7.41,5.41.69,8.07.13,1.22.26,2.43.4,3.65l.48,4.46c.2,1.91.46,3.85.72,5.72.1.8.21,1.6.32,2.39l.22,1.76c.25,2,.51,4,.83,6,.5,3,1.07,6.12,1.62,9.1l.09.52c.2,1.38.4,2.75.59,4.13.13.92.22,1.85.3,2.75,0,.46.08.92.13,1.38.25,2.52.42,5.08.58,7.56.22,3.21.45,6,.71,8.6.08.79.15,1.58.22,2.38.15,1.63.3,3.33.52,5l.27,2.08c.29,2.19.59,4.38.84,6.57q.21,1.78.39,3.57c.16,1.49.32,3,.5,4.46.3,2.53.59,5.06.85,7.6s.61,5.41.94,8,.6,5.23.88,7.83l.06.55c.18,1.73.42,3.48.65,5.18.12.89.25,1.78.36,2.67.14,1.11.27,2.22.4,3.33.18,1.5.36,3,.56,4.5.19,1.34.42,2.71.65,4s.44,2.51.61,3.76c.09.65.17,1.31.24,2s.14,1.24.22,1.85c.18,1.31.38,2.62.6,3.92a23.62,23.62,0,0,0,.64,3A8.92,8.92,0,0,0,844,200.2a5.87,5.87,0,0,0,.91,1l.28.27a9.1,9.1,0,0,0,1.81,1.18c3.18,1.74,7,2.16,10.46,2.52s7.12.73,10.8.79h1.36a111.09,111.09,0,0,0,11.69-.68l1.12-.11c1.42-.15,2.88-.3,4.31-.5l.86-.11c.57-.07,1.14-.15,1.7-.25l3.08-.54c1.82-.33,3.61-.8,5.34-1.27,1.42-.38,2.9-.77,4.38-1.08l.87-.18c3.06-.62,6.22-1.27,9.35-1.79s6.25-.93,9.31-1.34l1.52-.2c1.67-.22,3.17-.43,4.68-.7,1.77-.32,3.52-.69,5.36-1.13l.93-.22c1.42-.34,2.89-.69,4.36-1,1.82-.33,3.52-.6,5.2-.8,1-.06,2.06-.09,3.21-.09,2.11,0,4.18.1,6.48.21,1.58.08,3.2.14,4.84.18l1.71,0h.76a12.19,12.19,0,0,0,2.14-.18,5.11,5.11,0,0,0,1.34-.49,4.52,4.52,0,0,0,1.71-1.56,8.25,8.25,0,0,0,1-3.1l.07-.33c0-.3.12-.61.18-.91.13-.61.26-1.24.33-1.87l.12-1,.12-1,.06-.49c0-.4.11-.8.12-1.2l.19-5.1c0-.93,0-1.87,0-2.78v-.43l0-.89c-.09-5.11-.19-10.39-.47-15.58l0-.58a58.14,58.14,0,0,0-.82-8.17l-.05-.26c-.12-.59-.24-1.19-.41-1.78s-.46-1.44-.69-2a12.7,12.7,0,0,0-1.28-2.45,6.66,6.66,0,0,0-2.26-2,6.76,6.76,0,0,0-2.88-.82c-.22,0-.43,0-.65,0a17.08,17.08,0,0,0-2.49.25,16.52,16.52,0,0,0-1.66.36l-.58.14c-.39.09-.8.16-1.2.22l-.58.1c-.8.14-1.62.24-2.42.33l-.64.08c-3.64.34-7.34.58-11,.72-2.07.08-4.52.16-6.94.16s-4.41-.07-6.36-.22a52.08,52.08,0,0,1-5.84-1.23l-.87-.22c-1.36-.34-2.74-.66-4.12-1-2.55-.59-5.2-1-7.45-1.38s-4.91-.64-8-.86c-1-.07-2-.08-3-.09h-1.24l-1.51,0h-.13l-1.34,0q-.6,0-1.2,0a5.58,5.58,0,0,1-.69-.13,3.24,3.24,0,0,1-.4-.29,12.33,12.33,0,0,1-1.45-2,47.44,47.44,0,0,1-2.22-5.44l-.19-.54c-.4-1.1-.76-2.26-1.13-3.67-.68-2.53-1.28-5.07-1.79-7.54-.28-1.34-.54-2.68-.81-4l-.81-4c-.28-1.37-.58-2.73-.87-4.09l-.69-3.23a5.27,5.27,0,0,1,0-.79,2.88,2.88,0,0,1,.13-.31,1.88,1.88,0,0,1,.18-.24c.59-.13,1.18-.21,1.68-.27,1-.09,2-.18,3.06-.19h.91c.84,0,1.68,0,2.53,0,1.83,0,3.74.17,5.69.34l4.11.35c2.66.22,5.42.45,8.12.72l.17,0,4.63.55,2.32.29.53.07a8.22,8.22,0,0,0,1.27.14,10.46,10.46,0,0,0,1.85-.18,8.14,8.14,0,0,0,1.53-.53,5.5,5.5,0,0,0,1.77-1.2,11.54,11.54,0,0,0,2.77-4.89,29.72,29.72,0,0,0,1-4c.33-1.68.62-3.37.84-5a32.87,32.87,0,0,0,.23-4c0-.46,0-.91,0-1.36l0-.45a14.3,14.3,0,0,0-.33-2.35,19.86,19.86,0,0,0-.82-2.83,9.16,9.16,0,0,0-3.68-4.46,9.56,9.56,0,0,0-1.6-.8,13,13,0,0,0-1.81-.51,14.37,14.37,0,0,0-2-.24l-1,0h-.69c-.86,0-1.74.1-2.59.17l-.31,0c-3.29.25-6.72.67-10.51,1.27-3.07.48-6.39,1-9.79,1.42h-.88l-.6-.13-.66-.3a14.31,14.31,0,0,1-1.53-1.29,13.08,13.08,0,0,1-1.68-2.28,45.89,45.89,0,0,1-3.78-9.94,6,6,0,0,1,0-1.12c.06-.16.12-.31.19-.47a9.47,9.47,0,0,1,.58-.75,14.82,14.82,0,0,1,1.87-1.33,14,14,0,0,1,1.72-.81,30.16,30.16,0,0,1,4.22-.78c3.84-.36,7.54-.51,12-.66,2.86-.1,5.77-.14,8.58-.18l1.85,0,1,0c1.9,0,3.79-.05,5.69-.05,1.15,0,2.29,0,3.44,0,3.54.08,7.1.2,10.57.38,1.7.08,3.39.18,5.09.27q.42,0,.84,0c.55,0,1.11,0,1.71-.1a6.63,6.63,0,0,0,1.22-.23,6.39,6.39,0,0,0,1.82-.81,5.43,5.43,0,0,0,2-2.26,14.72,14.72,0,0,0,1.15-2.67,23.58,23.58,0,0,0,.62-7.75l0-.64q-.07-2.16-.18-4.32c-.11-2.48-.27-5.15-.65-7.8-.21-1.46-.47-3-.79-4.63a15.92,15.92,0,0,0-.45-1.75l-.06-.19a14.47,14.47,0,0,0-.6-1.75,17.68,17.68,0,0,0-2.22-3.8,22.33,22.33,0,0,0-3.36-3.48A32.69,32.69,0,0,0,934,8.11l-.37-.24a40.24,40.24,0,0,0-4.1-2.43A29.89,29.89,0,0,0,925,3.57a42.9,42.9,0,0,0-4.54-1.07l-.81-.16c-.57-.11-1.13-.22-1.7-.31l-3.15-.46c-.53-.08-1.07-.13-1.6-.18l-.61-.06-.9-.1c-.71-.08-1.42-.16-2.14-.21l-.32,0c-1.62-.13-3.29-.26-5-.35C900.94.46,897.4.31,893.12.18,890,.09,886.68,0,883.41,0Z"/><path class="cls-1" d="M131.08,7.06a7.37,7.37,0,0,0-2,.27,7.53,7.53,0,0,0-1.48.73,3.56,3.56,0,0,0-.56.42,3.58,3.58,0,0,0-.79.85c-5.65.8-11.42,1.36-17,1.9l-2.72.27c-6,.59-12.08.74-18,.9H86.47c-1.9.06-3.78.14-5.68.22l-4.41.23H75.29c-1.33,0-2.65.11-4,.11H65.22c-3.24.08-6.59.17-9.87.52h-.6c-3.32.34-6.75.7-10.13,1.18A151.39,151.39,0,0,0,29.2,17.57a67.26,67.26,0,0,1-9.48,1h-.91c-1.19,0-2.37,0-3.55-.1H13.62c-.77,0-1.54-.09-2.31-.09H10.05a8,8,0,0,0-5,1.72C3,22,2,25.34,1.42,28.4a59.44,59.44,0,0,0-1,8L.28,38.26.15,40.15Q-.06,43.38,0,46.6c0,2.08.13,4.24.26,6.61Q.74,60,1.83,66.61c.16,1,.36,1.94.61,2.89a13.56,13.56,0,0,0,1.21,3.21,9.41,9.41,0,0,0,1.18,1.75,22.82,22.82,0,0,0,1.72,1.69,11.74,11.74,0,0,0,2.83,1.68,17.51,17.51,0,0,0,3.34,1.06c.62.14,1.25.25,1.87.34l.85.1a78.93,78.93,0,0,0,10.63,1c1.6.07,3.1.1,4.53.1,1.87,0,3.63,0,5.33-.17l2.85-.16c1.64-.09,3.28-.18,4.92-.32.9-.08,1.81-.2,2.78-.32l1-.09.9-.13A16.39,16.39,0,0,1,50.61,79a1.74,1.74,0,0,0,.16.45c.35,1.19.67,2.48.91,3.69s.4,2.22.52,3.34c.63,7.72.67,15.62.7,23.28v6.81c0,7.42.09,15.09,0,22.63,0,1.36-.08,2.73-.14,4.09,0,.78-.06,1.54-.09,2.31-.09,2.37-.15,4.75-.21,7.12-.09,4.44-.13,8.86-.16,13v1.45c0,1.65,0,3.29-.06,4.94-.06,2.24-.28,4.53-.48,6.55-.23,2.37-.35,4.85-.46,7.22-.09,1.75-.17,3.56-.31,5.33q-.11,1.53-.24,3.06c-.05.45-.08.9-.1,1.36a11.45,11.45,0,0,0,.6,4.6,7.71,7.71,0,0,0,5.17,4.52,18.56,18.56,0,0,0,3.14.74,31.73,31.73,0,0,0,4.85.47h.12c1.27,0,2.57,0,3.82-.11h.83c3.62-.14,6.93-.23,10-.28h1.58a37.51,37.51,0,0,0,3.81-.13,7.73,7.73,0,0,0,1.71-.32l.47-.18,1.21-.66a9.73,9.73,0,0,0,2.41-2.67,16.32,16.32,0,0,0,1-2,16.71,16.71,0,0,0,.62-1.89l.13-.42a30.81,30.81,0,0,0,.85-4.52l0-.36c.5-3.56.9-7.23,1.28-10.77l.35-3.13c.25-2.3.47-4.75.65-7.59.07-1,.11-1.92.16-2.88s.1-2.12.17-3.16c.32-4.82.56-8.86.62-13s0-8.48-.3-13.36c-.22-4.18-.48-8.43-.79-12.62-.28-3.78-.48-7.93-.62-13.06-.1-4-.12-8-.13-11.94V87.15c0-1,.08-2,.18-2.92a6.15,6.15,0,0,0,.1-.75V83c.07-.54.17-1.07.29-1.6a11.28,11.28,0,0,1,1-1.18,16.89,16.89,0,0,1,2.37-1.76c2.12-1.12,4.08-2.07,6-2.89,1.12-.47,2.22-.93,3.31-1.29a31.78,31.78,0,0,1,3.41-.87c1.46-.23,2.88-.45,4.29-.53h1.75c1,0,2,0,3.05.08,3.44.14,6.58.25,9.59.31h.64a12.6,12.6,0,0,0,3-.3,4.79,4.79,0,0,0,1.57-.87A6.24,6.24,0,0,0,136,70.9a11.79,11.79,0,0,0,1.68-3.74c.54-1.84,1-3.73,1.36-5.64l.18-.93c.32-1.65.65-3.34.91-5q.48-3.31.69-6.67A141.15,141.15,0,0,0,140.59,30c-.13-1.88-.34-3.76-.54-5.56l-.09-.83c-.14-1.19-.27-2.48-.46-3.72a10.54,10.54,0,0,0-2.22-5.14,5.76,5.76,0,0,0-.1-1.18,10,10,0,0,0-1.56-3.94,6.11,6.11,0,0,0-2.53-2.11,5.15,5.15,0,0,0-2-.4Z"/><path class="cls-1" d="M627.5,3.53a7.37,7.37,0,0,0-2,.27,6.76,6.76,0,0,0-1.47.74,3.15,3.15,0,0,0-.57.41,3.85,3.85,0,0,0-.79.86c-5.65.79-11.41,1.35-17,1.9L603,8c-6,.59-12.07.75-18,.9h-2.13c-1.9.06-3.78.14-5.68.23l-4.41.22h-1.08c-1.34,0-2.66.11-4,.11h-6.09c-3.24.08-6.58.18-9.87.52h-.6c-3.32.34-6.75.7-10.13,1.19a145.4,145.4,0,0,0-15.41,2.91,67.54,67.54,0,0,1-9.49,1h-.91c-1.19,0-2.37,0-3.54-.1h-.38l-1.27,0c-.77,0-1.54-.1-2.31-.1h-1.26a8,8,0,0,0-5,1.72c-2.09,1.88-3,5.25-3.62,8.31a61.1,61.1,0,0,0-1,8l-.13,1.86-.13,1.88c-.13,2.15-.18,4.3-.13,6.45s.13,4.24.26,6.61q.46,6.76,1.55,13.4c.16,1,.36,2,.61,2.89a13.64,13.64,0,0,0,1.21,3.22,9.33,9.33,0,0,0,1.18,1.74A21.06,21.06,0,0,0,503,72.62a11.74,11.74,0,0,0,2.83,1.68,17.74,17.74,0,0,0,3.34,1.06c.62.14,1.25.25,1.87.34l.85.1a79.08,79.08,0,0,0,10.63,1c1.6.07,3.1.11,4.53.11a51.08,51.08,0,0,0,5.33-.18l2.85-.16c1.64-.09,3.29-.17,4.92-.32.91-.08,1.81-.2,2.78-.32l1-.09.91-.13a16.08,16.08,0,0,1,2.2-.23,1.62,1.62,0,0,0,.16.45c.36,1.19.67,2.48.91,3.7s.4,2.21.53,3.33c.62,7.72.66,15.62.69,23.28V113c0,7.42.09,15.09,0,22.63,0,1.37-.08,2.73-.14,4.1,0,.77-.06,1.53-.09,2.3-.09,2.37-.15,4.75-.21,7.12-.09,4.44-.13,8.86-.16,13v1.45c0,1.65,0,3.29,0,4.94-.07,2.24-.29,4.53-.49,6.55-.23,2.37-.35,4.86-.46,7.22-.09,1.76-.17,3.56-.31,5.33q-.11,1.53-.24,3.06c0,.45-.08.9-.1,1.37a11.43,11.43,0,0,0,.6,4.59,7.7,7.7,0,0,0,5.18,4.52,18.23,18.23,0,0,0,3.13.74,31.73,31.73,0,0,0,4.85.47h.12c1.27,0,2.57,0,3.82-.1h.83c3.63-.15,6.94-.24,10-.29h1.58a37.51,37.51,0,0,0,3.81-.13,7.62,7.62,0,0,0,1.71-.32l.47-.18,1.21-.66a9.73,9.73,0,0,0,2.41-2.67,16.37,16.37,0,0,0,1-2,19.64,19.64,0,0,0,.61-1.88l.13-.43a30.93,30.93,0,0,0,.85-4.51l.05-.37c.5-3.56.9-7.23,1.29-10.77l.34-3.13c.25-2.29.47-4.75.65-7.59.07-1,.11-1.92.16-2.88s.1-2.12.17-3.16c.33-4.82.56-8.86.62-13s0-8.48-.3-13.36c-.22-4.17-.48-8.42-.79-12.62-.28-3.78-.48-7.93-.62-13.05-.1-4-.12-8-.13-11.95V83.62c0-1,.08-2,.18-2.92a5.9,5.9,0,0,0,.1-.75v-.48c.07-.54.17-1.08.29-1.61a10.23,10.23,0,0,1,1-1.18,16.25,16.25,0,0,1,2.36-1.76c2.12-1.12,4.08-2.07,6-2.88,1.11-.48,2.21-.94,3.31-1.3a30.38,30.38,0,0,1,3.41-.86,40.38,40.38,0,0,1,4.28-.54h1.75c1,0,2,0,3.05.08,3.44.15,6.58.25,9.59.31h.64a12.09,12.09,0,0,0,3-.29,5.05,5.05,0,0,0,1.58-.88,6.22,6.22,0,0,0,1.09-1.19,11.69,11.69,0,0,0,1.68-3.74A58,58,0,0,0,635.5,58l.18-.92c.32-1.65.66-3.35.91-5q.48-3.32.69-6.67A141.15,141.15,0,0,0,637,26.5c-.13-1.88-.34-3.75-.54-5.56l-.09-.83c-.13-1.19-.27-2.48-.46-3.71a10.54,10.54,0,0,0-2.21-5.14,6.75,6.75,0,0,0-.11-1.19A10,10,0,0,0,632,6.13,6.05,6.05,0,0,0,629.52,4a5,5,0,0,0-2-.41Z"/><path class="cls-1" d="M783.76,0a8.27,8.27,0,0,0-2,.27,6.83,6.83,0,0,0-1.48.74,2.78,2.78,0,0,0-.56.41,3.43,3.43,0,0,0-.79.86c-5.65.79-11.42,1.35-17,1.9l-2.72.26c-6,.59-12.07.75-18,.9h-2.13c-1.9.06-3.79.14-5.68.23l-4.41.22H728c-1.33,0-2.66.11-4,.11H717.9c-3.24.08-6.59.18-9.87.52h-.6c-3.32.35-6.76.7-10.13,1.19a148.19,148.19,0,0,0-15.42,2.91,67.39,67.39,0,0,1-9.49,1h-.9c-1.19,0-2.37,0-3.55-.09H666.3c-.77,0-1.54-.1-2.31-.1h-1.26a8.05,8.05,0,0,0-5,1.72c-2.1,1.88-3,5.25-3.63,8.31a59.38,59.38,0,0,0-1,8L653,31.21l-.14,1.89q-.2,3.21-.12,6.44c0,2.08.12,4.24.26,6.61.3,4.51.82,9,1.55,13.41a27.24,27.24,0,0,0,.61,2.88,13.62,13.62,0,0,0,1.2,3.22,9.84,9.84,0,0,0,1.18,1.74,19.65,19.65,0,0,0,1.73,1.69,11.54,11.54,0,0,0,2.82,1.69,18.46,18.46,0,0,0,3.34,1c.63.14,1.25.25,1.88.35l.84.09a79.22,79.22,0,0,0,10.63,1c1.61.07,3.1.11,4.54.11a51.08,51.08,0,0,0,5.33-.18l2.85-.15c1.64-.1,3.28-.18,4.91-.32.91-.09,1.82-.21,2.79-.32l1-.1.91-.13a16.39,16.39,0,0,1,2.2-.22,1.58,1.58,0,0,0,.17.45c.35,1.18.67,2.48.9,3.69s.4,2.21.53,3.33c.63,7.72.66,15.63.7,23.28v6.82c0,7.42.09,15.09-.05,22.62,0,1.37-.08,2.73-.13,4.1,0,.77-.07,1.53-.09,2.3q-.13,3.57-.21,7.12c-.09,4.44-.14,8.86-.16,13v1.45c0,1.65,0,3.29-.06,4.94-.06,2.24-.28,4.53-.48,6.55-.24,2.38-.35,4.86-.46,7.22-.09,1.76-.17,3.56-.31,5.33-.07,1-.15,2-.25,3.06,0,.45-.08.91-.1,1.37a11.58,11.58,0,0,0,.6,4.59c1,2.76,3.3,3.86,5.18,4.53a18.09,18.09,0,0,0,3.14.73,32.93,32.93,0,0,0,4.84.48h.13c1.27,0,2.57,0,3.82-.11h.82c3.63-.14,6.94-.24,10-.29h1.57a37.51,37.51,0,0,0,3.81-.13,7.71,7.71,0,0,0,1.72-.32l.47-.17,1.2-.67a9.46,9.46,0,0,0,2.42-2.67,16.93,16.93,0,0,0,1-2c.24-.62.44-1.25.62-1.89l.13-.43a32.05,32.05,0,0,0,.85-4.51l0-.37c.5-3.56.91-7.23,1.29-10.77l.35-3.13c.25-2.29.47-4.75.65-7.59q.09-1.44.15-2.88c0-1,.1-2.11.18-3.16.32-4.82.56-8.85.61-13s0-8.47-.3-13.35c-.22-4.18-.48-8.43-.79-12.62-.28-3.79-.48-7.93-.61-13.06-.1-4-.12-8-.13-11.94V80.09c0-1,.07-2,.17-2.92a4.54,4.54,0,0,0,.1-.74v-.49c.08-.54.17-1.08.29-1.6a10.52,10.52,0,0,1,1-1.19A17.1,17.1,0,0,1,751,71.39c2.11-1.11,4.08-2.06,6-2.88,1.12-.48,2.21-.94,3.31-1.3a30.93,30.93,0,0,1,3.41-.86c1.45-.24,2.88-.45,4.28-.54h1.75c1,0,2,0,3.06.09,3.44.14,6.57.25,9.59.31h.64a12.46,12.46,0,0,0,3-.3,4.86,4.86,0,0,0,1.58-.88,6.29,6.29,0,0,0,1.1-1.19,11.69,11.69,0,0,0,1.68-3.74q.81-2.76,1.36-5.64l.18-.92c.32-1.65.65-3.35.91-5,.31-2.2.54-4.43.68-6.67A141.15,141.15,0,0,0,793.26,23c-.12-1.88-.33-3.75-.53-5.56l-.09-.83c-.14-1.18-.28-2.48-.47-3.71A10.44,10.44,0,0,0,790,7.73a5.92,5.92,0,0,0-.11-1.19,9.88,9.88,0,0,0-1.56-3.94A6.05,6.05,0,0,0,785.77.5a5.2,5.2,0,0,0-2-.41Z"/><path class="cls-1" d="M386.29,11.06c-2.18,0-4,0-5.59.08s-3.57.22-5.31.38l-1.33.12c-1.54.13-3.08.4-4.57.66-.77.13-1.55.27-2.33.39l-.91.1c-3.52.38-7.16.77-10.25,2.65l-.51.33a4.49,4.49,0,0,0-2.21-.61,3.3,3.3,0,0,0-1.1.18c-.39.14-.78.29-1.16.46a7.84,7.84,0,0,0-1.29,1,10.2,10.2,0,0,0-1.56,1.86l-.18.25a16.75,16.75,0,0,0-1.19,2l-.09.18a25.19,25.19,0,0,0-2.17,5.9A39,39,0,0,0,343.32,35a42.55,42.55,0,0,0,.37,7,30,30,0,0,0,1.36,6.07,22.87,22.87,0,0,0,3.68,6.77c.4.51.8,1,1.23,1.5.27.32.53.6.82.91a9.45,9.45,0,0,0,1.52,1.22l.52.37a7.63,7.63,0,0,0,1.4.7,16.12,16.12,0,0,0,2.22.79,16.32,16.32,0,0,0,3.83.46h.67a40.94,40.94,0,0,0,5-.39c1.18-.14,2.35-.25,3.53-.36l1.17-.11c1.33.2,2.68.37,4,.53a47.2,47.2,0,0,0,5.45.37l1.07,0a38.74,38.74,0,0,0,7.4-1.06l.2,0c.49,4.37.59,8.87.69,13.21s.13,8.75.16,13.22c0,1.85,0,3.7,0,5.54,0,6.53,0,13.29.54,19.91.12,1.43.26,2.86.41,4.29.19,1.89.39,3.84.51,5.76.25,4,.44,7.65.57,11s.2,7,.27,10.24c0,1.27,0,2.53.05,3.8v3.32l0,1.12c0,.89.05,1.82,0,2.73,0,.16-.08.31-.13.46s-.38.36-.58.53c-.45.26-.91.51-1.39.73a43.32,43.32,0,0,1-8.37,1.85c-2.25.2-4.37.29-6.47.29a51.24,51.24,0,0,1-6.25-.45l-1.86-.24a44.14,44.14,0,0,0-5.26-.49h0c-6.93,0-7.57,8-7.91,12.23s-.54,8.47-.63,13.28A49.77,49.77,0,0,0,354.33,195a11.28,11.28,0,0,0,5.31,6.89,11.1,11.1,0,0,0,2,.9l.66.25c.83.33,1.68.61,2.33.81a34.88,34.88,0,0,0,3.47.81l.36.07a54.05,54.05,0,0,0,9.75,1.2h.28a42.2,42.2,0,0,0,7.64-.92l.29,0c1.53-.28,3.06-.56,4.59-.82l.63-.11c1.21-.21,2.46-.44,3.7-.59l2.23-.29,2.09-.27,1.52-.14c3.94-.34,8-.7,12-.86,4.27-.17,9.3-.35,14.3-.44l.91,0c4.32-.08,8.78-.17,13.16-.42,1.67-.1,3.36-.3,5-.49l1.31-.15c2.6-.29,5.24-.62,7.86-1,2.4-.29,4.41-.5,6.45-.58.71,0,1.42,0,2.13,0,1.59,0,3.22.07,4.84.22,1.43.22,2.85.48,4.27.74l1.14.21c1.32.25,2.64.59,3.91.93q1.11.3,2.22.57c.7.16,1.47.3,2.43.43a24.29,24.29,0,0,0,3.08.25h.16l.42,0,.27,0a8.82,8.82,0,0,0,3.5-.8c2.56-1.41,3.52-4.35,4.11-7,.25-1.1.41-2.24.58-3.33l.15-1c.36-2.33.56-4.63.77-7.18.16-2.13.23-4,.21-5.82A82.94,82.94,0,0,0,495,163.31c-.16-.89-.32-1.78-.5-2.67a10.73,10.73,0,0,0-.95-2.73,10.2,10.2,0,0,0-1.87-2.5,7.94,7.94,0,0,0-2.67-1.72,14.46,14.46,0,0,0-3.26-.89c-.68-.11-1.36-.19-2-.28l-1-.13c-3.73-.49-7.74-.85-12.63-1.14-3.4-.2-6.87-.29-10.23-.37l-1,0-5.72-.1h-1.05c-1.36,0-2.77,0-4.15-.14-.13,0-.26-.06-.39-.09l-.31-.17a9.66,9.66,0,0,1-.63-1.07,31.71,31.71,0,0,1-1.62-6.74c-.1-.77-.18-1.54-.26-2.31l-.1-1-.1-.87c-.08-.65-.16-1.31-.2-2,0-.82-.1-1.64-.15-2.46-.1-1.5-.2-3.06-.25-4.59q-.19-6.85-.34-13.71c-.07-3.89-.11-7.79-.16-11.68l0-1.68c0-3.7-.2-7.66-.51-12.85-.07-1.05-.12-2.11-.17-3.16-.09-1.78-.18-3.55-.31-5.33-.1-1.27-.23-2.53-.36-3.8s-.28-2.79-.38-4.19-.16-2.52-.22-3.79c-.07-1.43-.14-2.87-.25-4.3-.1-1.23-.25-2.46-.4-3.68l-.07-.57c0-.32-.08-.64-.13-1-.09-.7-.19-1.41-.24-2.12a2.69,2.69,0,0,0,.32-.13,38.54,38.54,0,0,1,6.92-1.53c4-.46,8.74-1,13.34-1.91a12,12,0,0,0,3.74-1.33A8.86,8.86,0,0,0,468,49.05a22.79,22.79,0,0,0,2-6.27,54.49,54.49,0,0,0,1.05-6.7A36.26,36.26,0,0,0,470.12,23a12.11,12.11,0,0,0-3.91-5.83,16.12,16.12,0,0,0-7.93-3.08c-2.63-.4-5.21-.77-7.78-1-4.67-.34-9.39-.59-14.05-.72-2.95-.09-5.95-.26-8.85-.42l-5.32-.29c-9.32-.43-18.73-.52-27.58-.59l-3.15,0c-1.75,0-3.51,0-5.26,0Z"/><path class="cls-1" d="M282.25,7.06A8.62,8.62,0,0,0,278,8a10.17,10.17,0,0,0-4.26,4.7,27.32,27.32,0,0,0-1.44,4.1l0,.15c-.37,1.27-.63,2.6-.89,3.88l-.33,1.66c-.79,3.66-1.54,7.42-2.31,11.48-.74,3.85-1.31,7.8-1.87,11.61l-.11.75c-.49,3.42-1,7-1.64,10.42-.27,1.47-.55,2.95-.84,4.42-.4,2.09-.81,4.24-1.18,6.37-.29,1.69-.63,3.44-1,5.19-.29,1.34-.69,2.68-1.07,4l-.36,1.22c-.92,3.21-2.06,6.37-3.05,9l-.7-.44a10.24,10.24,0,0,1-1-1.07c-.08-.1-.16-.19-.23-.29-1.08-1.49-2.12-3-3-4.5l-.07-.11c-.35-.6-.72-1.22-1-1.86s-.52-1.14-.76-1.72l-.15-.35-1.18-2.82-.15-.37Q248.16,70.69,247,68l-.31-.74c-.61-1.46-1.25-3-2-4.4l-.21-.43c-.32-.65-.66-1.32-1.05-2-.59-.94-1.27-1.91-2.15-3.06a11.43,11.43,0,0,0-2.66-2.36l-.24-.11-.23-.11a3.27,3.27,0,0,0-1.32-.47,6,6,0,0,0-1.22-.13,3.63,3.63,0,0,0-1.15.16,9.52,9.52,0,0,0-1.76.78,7.46,7.46,0,0,0-1.56,1.41A13.26,13.26,0,0,0,229.55,59c-.32.57-.6,1.18-.86,1.77l-.29.64-.41.87c-.25.51-.49,1-.73,1.56q-1.23,2.72-2.5,5.42c-.83,1.77-1.66,3.7-2.51,5.91-.53,1.36-1,2.76-1.45,4.12l-.42,1.26c-.41,1.21-.88,2.47-1.44,3.85-1,2.21-1.72,4.09-2.37,5.89l-.33-1.44-.07-.29c-.58-2.37-1.31-4.69-2.14-7.25-.18-.57-.37-1.13-.56-1.69-.27-.79-.54-1.58-.78-2.38-.47-1.5-.91-3-1.35-4.52a80.61,80.61,0,0,1-1.85-8.12c-.39-3.18-.82-7-1.05-10.87-.17-3,0-6,.08-9,0-1,.09-2,.12-3,.1-3.5.3-7.22.61-11.69a37.47,37.47,0,0,0,.06-5.47c-.16-2.11-.49-4.25-.79-6.13a24.05,24.05,0,0,0-.92-3.74,6.89,6.89,0,0,0-3.26-4,12.06,12.06,0,0,0-2.31-1,3.44,3.44,0,0,0-3-2h-.13l-.91,0c-2,.08-4,.17-6,.38a3.46,3.46,0,0,0-.84-.11,3.5,3.5,0,0,0-.9.13,3.82,3.82,0,0,0-.93.41l-1.46.31c-.85.19-1.69.38-2.55.52-1.11.13-2.23.22-3.34.31a46.23,46.23,0,0,0-6.79.88l-.69.19c-.74-.21-1.54-.4-2.36-.57a23.56,23.56,0,0,0-3.39-.44h-.46a10.15,10.15,0,0,0-3,.49,5.26,5.26,0,0,0-1.48.74A6.6,6.6,0,0,0,162,13a6.88,6.88,0,0,0-.58,1.3c-.07.18-.13.35-.2.52a8.08,8.08,0,0,0-.4,1.46l-.07.3a32.77,32.77,0,0,0-.55,3.39l-.09.71c-.12,1-.22,2-.31,3l-.09.93c-.67,6.78-.69,13.73-.71,20.45v4.62c0,3.14,0,6.38,0,9.57,0,1.59.07,3.29.26,5l.09.77c.18,1.57.36,3.2.48,4.79.1,1.27.19,2.54.29,3.81.19,2.56.37,5.11.6,7.66.35,4,.93,7.95,1.4,10.91.25,2.12.48,4.24.71,6.35l.48,4.36c.23,2,.45,4,.77,5.88s.65,3.55,1,5.33l.37,1.71c.27,1.29.55,2.58.8,3.88.29,1.49.55,3,.8,4.5l.23,1.29c.52,3,1,6.15,1.47,9.6L169,137c.34,2.93.69,6,1.1,8.94.35,2.61.72,5.21,1.09,7.81l.43,3c.19,1.44.39,2.87.6,4.3l.29,2.11c.15,1.07.33,2.13.5,3.2s.31,1.92.44,2.88l.19,1.43c.14,1.18.29,2.35.44,3.52l.21,1.69a98.12,98.12,0,0,0,1.5,9.83l.36,1.65c.24,1.11.47,2.23.75,3.33.18.72.42,1.43.65,2.12l.06.18a14.29,14.29,0,0,0,1,2.49,6.25,6.25,0,0,0,3.48,2.65,15.5,15.5,0,0,0,3.22.61l.34.05a12.38,12.38,0,0,0,1.42.08c.81,0,1.63-.07,2.43-.14h.16c.76-.06,1.52-.15,2.29-.24l1.13-.14,2.14-.22,3-.33c3.95-.43,7.82-.85,11.74-1.12,4.29-.29,8-.48,11.47-.56h.25c1.74,0,3.55-.08,5.32-.2a46.89,46.89,0,0,0,6.3-.72,10.66,10.66,0,0,0,2.82-1.15l.73-.58a3.38,3.38,0,0,0,.9-.87,5.57,5.57,0,0,0,1.11-2,21,21,0,0,0,.57-4.67l0-.75c.1-1.95.17-3.85.21-5.65.1-4.13.15-7.85.16-11.37,0-.93,0-1.87,0-2.8,0-2.47,0-5,.07-7.54s.18-5.16.3-7.67l.11-2.66.05-1.18c.06-1.25.11-2.51.13-3.76,0-2,0-3.93-.1-5.41,0-.69-.06-1.38-.09-2.07s-.08-1.65-.11-2.48a68.7,68.7,0,0,1,3.33,6.13l.27.53c.45.89.87,1.78,1.29,2.68.63,1.33,1.27,2.71,2,4l.53,1c.41.77.84,1.57,1.3,2.32.77,1.23,1.51,2.48,2.25,3.72,1.28,2.19,2.38,4.52,3.31,6.54.68,1.76,1.23,3.33,1.68,4.82.35,1.16.65,2.35,1,3.5.17.63.33,1.26.5,1.89.5,1.84,1.08,3.7,1.63,5.5s1.11,3.55,1.6,5.35c.45,1.64,1,3.58,1.66,5.5.29.86.63,1.69.92,2.38a8.74,8.74,0,0,0,1.91,2.68,8.4,8.4,0,0,0,3.36,1.89,16.35,16.35,0,0,0,3.82.66l.53.05c1.79.17,3.63.24,5.4.3h.17c2.06.07,3.93.2,5.71.39q.84.09,1.68.21c1.25.19,2.51.43,3.74.67a48,48,0,0,0,7.1,1h.47a9.28,9.28,0,0,0,3.12-.52,8.69,8.69,0,0,0,3.55-2.45,14.92,14.92,0,0,0,2.39-4.51,42,42,0,0,0,1.58-5.39c.86-3.68,1.56-7.5,2.2-11.09.35-1.94.58-3.94.8-5.87l0-.1c.25-2.19.49-4.34.69-6.46.33-3.52.57-7.26.75-11.77l0-.5c.07-1.8.15-3.65.28-5.48s.31-3.42.49-5.09l.12-1.19c.45-4.27,1-8.55,1.41-11.8.53-4.09.83-8.18,1.07-12,.06-.9.11-1.8.16-2.69.08-1.45.17-2.89.28-4.34.06-.91.13-1.81.2-2.72l.11-1.42c.07-.89.19-1.8.31-2.68l.06-.46.19-1.45c.3-2.16.6-4.4,1-6.59.55-3.21,1-6.42,1.22-9.55.54-6.38,1.06-11.62,1.65-16.51l.17-1.11c.28-1.84.57-3.73.78-5.61.13-1.07.25-2.14.37-3.22.1-.92.2-1.84.31-2.76.25-1.84.48-3.5.79-5.15.16-.83.35-1.66.53-2.49s.42-1.82.58-2.73A73.35,73.35,0,0,0,325.35,29a31.24,31.24,0,0,0-.49-6.6,8.54,8.54,0,0,0-1.14-2.87,10,10,0,0,0-2.49-2.6,23.25,23.25,0,0,0-4.49-2.51c-2.07-1-4-1.79-5.9-2.55a38.26,38.26,0,0,0-8.3-2.08c-3.49-.55-7-1-10.33-1.48-.8-.12-1.6-.26-2.4-.4-1.07-.18-2.14-.37-3.22-.53s-2.28-.27-3.29-.33l-1.05,0Z"/></g></g></svg>